<svg width="520" height="316" viewBox="0 0 520 316" fill="none" xmlns="http://www.w3.org/2000/svg">
<path d="M288 229C281.72 230.697 270.5 234 270.5 247C254 252 257 257.5 257 291.5C240.414 303.965 191.011 298 184 298C147 291 176.5 222.5 150.5 179.5C167.5 149.5 166.327 120 184 120C186.313 126.302 187.5 130.5 193 141.5C206 160 188 233.5 203.5 241.5C206.515 243.771 224.061 224.006 229.5 203C234.382 184.146 226.905 163.612 234 168.5C261.459 187.417 288 204.205 288 229Z" fill="#E5EEF9"/>
<path fill-rule="evenodd" clip-rule="evenodd" d="M391.356 254.378C390.446 257.882 388.393 260.973 385.382 263.488C382.742 265.696 377.596 268.528 374.017 268.24C369.775 267.898 366.811 263.164 365.163 259.696C364.376 258.035 362.217 252.418 361.947 249.332C360.691 250.227 358.908 251.74 358.186 252.3C355.117 254.696 352.037 257.081 348.886 259.372C346.844 260.856 344.379 262.64 341.88 264.2C342.296 264.129 342.719 264.065 343.141 264C347.542 263.647 352.471 264.807 356.713 265.943C359.518 266.697 361.343 269.453 363.813 270.124C368.137 271.29 373.524 270.948 377.69 269.288C382.237 267.474 386.544 264.877 389.196 260.632C390.276 258.906 391.092 256.657 391.362 254.378H391.356ZM337.825 266.467C337.25 266.744 336.687 266.991 336.135 267.203C335.942 267.274 335.754 267.274 335.566 267.185C335.466 267.138 335.367 267.091 335.267 267.032C334.569 267.197 333.876 267.368 333.184 267.545C332.21 267.792 331.447 266.55 330.937 265.896C330.092 264.818 329.235 263.888 328.079 263.134C326.524 262.116 320.833 259.595 319.225 259.866C315.135 261.103 309.972 261.197 305.823 259.672C307.724 267.857 311.515 277.49 314.824 285.039C315.927 287.547 318.867 290.839 319.33 293.124C320.07 296.769 320.387 301.044 317.717 304.011C316.062 305.854 313.832 306.579 312.201 308.198C312.019 308.38 311.843 308.575 311.691 308.787C310.611 310.229 310.652 312.667 310.858 314.51H490.261C490.666 314.51 491 314.84 491 315.252C491 315.664 490.671 315.994 490.261 315.994H310.212C309.842 315.994 309.531 315.723 309.485 315.358C309.15 313.015 309.021 309.894 310.511 307.898C310.711 307.633 310.928 307.385 311.163 307.15C312.794 305.525 315.076 304.741 316.62 303.022C318.92 300.461 318.515 296.533 317.881 293.418C317.511 291.605 314.449 287.865 313.469 285.634C309.925 277.555 305.864 267.156 304.063 258.589C304.004 258.306 304.104 258.029 304.333 257.852C304.556 257.676 304.849 257.64 305.107 257.77C309.103 259.707 314.607 259.719 318.791 258.447C320.698 257.87 327.093 260.726 328.877 261.892C330.021 262.64 330.948 263.564 331.805 264.624C332.005 264.871 332.832 265.996 332.814 266.108C333.114 266.031 333.407 265.955 333.706 265.884C331.958 264.312 330.15 261.939 328.672 260.585C327.04 259.666 325.351 258.848 323.649 258.076C320.692 256.728 317.682 255.532 314.689 254.278C313.821 253.913 309.842 252.582 310.329 251.187C311.849 246.794 313.962 243.408 314.865 238.709C315.475 235.553 315.217 232.279 317.324 229.577C317.359 229.529 317.394 229.494 317.441 229.459C321.308 226.32 325.18 223.176 329.047 220.032C341.17 210.186 353.286 200.335 365.491 190.596C370.05 186.963 374.615 183.335 379.233 179.773C381.932 177.694 384.772 175.457 387.624 173.608C387.782 173.502 387.952 173.466 388.14 173.496C389.531 173.72 394.067 176.11 395.504 176.805C396.607 177.341 401.466 179.814 402.17 179.991C402.246 179.955 402.328 179.914 402.404 179.873C400.433 178.66 398.438 177.506 396.431 176.422C395.311 175.816 389.173 172.624 387.771 172.742L312.336 225.478C313.34 225.896 314.179 226.556 314.226 227.616C314.284 228.917 313.146 229.959 311.949 230.548C312.858 230.754 313.592 231.172 313.844 231.961C314.677 234.582 310.893 236.796 308.986 237.738C308.112 238.174 305.888 238.704 304.89 239.004C304.562 239.104 304.227 239.204 303.899 239.298C304.309 239.204 304.72 239.104 305.125 239.016C305.407 238.951 305.688 239.051 305.864 239.281C305.964 239.41 306.017 239.557 306.023 239.71C306.474 239.057 307.179 238.562 308.141 238.409C309.385 238.215 311.104 238.026 312.307 238.474C313.187 238.804 313.621 240.217 313.639 241.059C313.674 242.831 312.489 244.138 311.034 244.981C308.082 246.682 303.764 247.595 300.454 248.761C298.794 249.344 288.672 252.894 286.519 254.59C288.684 255.044 293.982 253.784 295.49 253.189C298.289 252.082 306.656 247.083 308.874 248.125C312.776 249.956 305.841 255.986 304.344 257.105C300.783 259.76 295.942 260.538 292.128 262.987C291.553 263.358 292.351 267.303 288.079 269.417C284.412 271.237 278.321 271.166 274.097 272.226C267.683 273.833 260.631 277.131 254.288 278.05C253.947 278.103 253.625 277.914 253.495 277.59C252.164 274.21 255.743 258.671 256.864 255.132C257.339 253.631 257.873 252.141 258.471 250.68C258.565 250.451 258.747 250.298 258.988 250.239C262.221 249.497 271.503 248.154 273.756 246.623C274.795 245.917 274.285 240.723 274.273 239.516C274.255 238.162 274.302 236.737 274.607 235.418C275.552 231.355 287.205 226.968 290.632 226.055C294.551 225.019 300.847 224.813 304.966 224.577C305.295 224.56 305.624 224.542 305.952 224.524C305.43 224.13 304.949 223.682 304.515 223.17C300.771 224.124 296.834 224.312 293.155 223.035C291.893 222.593 289.558 223.517 286.912 225.031C286.982 225.278 287.058 225.531 287.135 225.79C287.223 226.097 287.111 226.409 286.853 226.597C286.595 226.785 286.266 226.785 286.002 226.603C285.738 226.42 285.486 226.226 285.251 226.032C280.41 229.07 275.083 233.439 273.457 234.823C271.562 236.442 274.701 242.066 272.102 244.562C267.584 248.896 260.859 248.914 255.209 250.516C251.518 251.558 246.431 251.929 242.593 252.27C236.262 252.83 229.902 253.218 223.559 253.583C221.452 253.701 211.859 254.096 203.544 254.59C204.859 254.59 206.167 254.579 207.481 254.573C215.948 254.514 224.415 254.296 232.877 254.261C233.592 254.261 246.032 253.542 244.318 256.221C239.489 263.758 241.637 280.299 243.339 290.079C246.331 287.936 249.03 285.463 251.741 282.972C252.692 282.101 255.878 278.786 257.315 279.357C260.05 280.446 252.457 287.536 251.676 288.295C250.996 288.961 243.092 296.904 242.423 293.336C242.376 293.088 242.329 292.835 242.282 292.576C240.158 293.936 237.852 295.12 235.447 295.791C231.275 296.963 225.149 296.769 220.813 296.645C215.632 296.498 210.456 296.221 205.275 296.056C204.307 302.451 201.913 309.393 203.04 315.117C203.081 315.34 203.028 315.552 202.887 315.729C202.74 315.906 202.547 316 202.318 316H64.7393C64.3345 316 64 315.664 64 315.258C64 314.852 64.3286 314.516 64.7393 314.516H201.444C200.622 308.628 202.887 302.168 203.808 296.009C202.781 295.985 201.755 295.962 200.728 295.944C189.397 295.785 175.45 297.705 166.367 289.367C163.591 286.817 164.026 283.102 162.77 279.851C160.511 273.998 157.665 268.652 157.665 262.169C157.665 258.93 160.012 256.31 159.754 253.254C159.684 253.095 158.71 252.176 158.51 251.935C157.612 250.851 157.172 249.615 157.049 248.213C156.615 243.402 157.401 237.703 157.354 232.721C157.284 224.242 156.415 215.651 155.729 207.195C155.424 203.421 157.249 199.752 156.832 196.072C156.568 193.716 153.675 192.085 152.466 189.895C149.597 184.707 146.992 177.871 147.303 171.882C147.62 165.918 157.278 161.737 157.894 156.932C158.281 153.929 156.72 151.344 157.331 148.294C158.569 142.129 161.819 136.753 164.554 131.194C165.199 129.887 166.038 128.85 167.253 128.044C168.69 127.096 170.509 126.566 172.111 125.918C174.452 124.97 176.412 123.804 178.349 122.161C178.513 122.02 178.712 121.961 178.929 121.996C179.135 122.026 179.317 122.12 179.452 122.279C180.103 123.056 178.718 124.552 178.266 125.158C177.111 126.713 175.99 128.256 174.945 129.887C171.495 135.251 168.937 141.122 167.904 147.446C167.112 152.28 165.117 157.268 163.556 161.913C161.778 167.213 160.235 172.624 160.036 178.248C159.848 183.418 178.894 192.857 179.299 199.458C179.71 206.129 166.795 198.657 166.038 203.079C164.806 210.269 198.586 225.555 199.46 236.731C200.54 250.492 168.321 260.885 169.659 270.03C171.695 271.301 187.174 260.214 188.593 264.659C190.336 270.124 177.832 278.497 179.393 283.078C180.502 286.34 196.826 275.176 198.328 274.204C201.197 272.367 216.682 261.285 219.516 266.061C222.843 271.672 205.733 283.973 205.651 291.805C205.639 292.706 205.574 293.624 205.469 294.555C210.597 294.719 215.72 294.99 220.854 295.138C225.002 295.255 231.058 295.456 235.048 294.337C237.5 293.648 239.853 292.388 241.995 290.969C240.246 281.129 237.952 264.424 242.693 256.021C238.298 255.32 210.932 255.998 207.487 256.021C201.743 256.062 195.987 256.057 190.248 255.862C189.908 255.85 189.626 255.621 189.556 255.285C189.48 254.955 189.632 254.62 189.937 254.467C192.026 253.383 219.651 252.294 223.477 252.076C229.808 251.717 236.151 251.328 242.464 250.769C246.196 250.439 251.225 250.08 254.81 249.061C260.032 247.583 266.921 247.448 271.087 243.467C272.982 241.648 269.778 236.007 272.501 233.675C274.373 232.079 279.331 227.957 284.148 224.937C278.486 218.512 283.098 206.889 274.783 198.663C260.167 184.201 241.567 173.29 227.05 158.852C227.379 167.248 227.267 175.604 226.886 183.642C226.275 196.584 221.939 209.633 215.315 220.72C213.748 223.341 205.211 236.389 201.32 235.329C195.447 233.722 195.154 209.745 195.277 205.275C195.746 188.758 199.724 172.66 197.049 156.019C194.983 143.177 190.008 134.521 183.847 123.451C177.416 111.892 173.549 102.459 173.056 88.9626C172.334 69.3073 174.106 46.9256 180.936 28.342C184.504 18.6262 192.038 3.70509 203.826 2.63341C205.14 2.51564 206.466 2.58042 207.763 2.82184C209.16 3.08093 210.709 3.44011 212.322 3.88763C212.258 3.49311 212.352 3.14569 212.639 2.86894C213.349 2.19766 214.147 1.63239 215.027 1.19665C225.237 -3.89089 240.452 8.457 246.783 15.4818C248.52 17.4132 250.145 19.4505 251.618 21.5939C258.653 31.8338 261.886 38.9587 263.03 51.707C263.74 59.6268 264.562 68.4417 264.046 76.3674C263.723 81.3549 261.675 86.778 261.98 91.4828C262.391 97.8835 267.149 104.714 270.917 109.654C276.409 116.856 282.546 123.563 288.068 130.764C290.074 133.378 292.005 136.058 293.8 138.825C302.156 151.732 310.2 165.847 315.159 180.45C317.558 187.522 319.207 195.277 319.771 202.732C319.999 205.752 320.357 213.531 318.339 216.022C317.036 217.629 311.526 220.526 309.655 221.345C308.51 221.845 307.319 222.304 306.105 222.687C306.838 223.406 307.683 223.953 308.604 224.359C309.573 224.312 310.541 224.265 311.509 224.224L387.055 171.411C387.125 171.364 387.196 171.329 387.278 171.305C389.637 170.64 397.376 175.009 403.86 179.113C407.938 177.011 412.321 174.532 416.393 172.931C416.645 172.83 416.915 172.872 417.126 173.042C419.603 175.05 421.68 177.441 423.282 180.209C423.328 180.291 423.358 180.373 423.37 180.468C424.056 184.919 424.168 189.765 424.367 194.276C424.367 194.341 424.367 194.4 424.349 194.464C424.308 194.659 424.261 194.859 424.203 195.053C424.391 195.253 424.572 195.454 424.76 195.66C425.359 191.343 423.634 178.901 423.188 176.252C423.129 175.898 423.323 175.563 423.657 175.439C423.992 175.315 424.361 175.439 424.543 175.751C425.447 177.253 426.262 185.785 426.479 187.81C426.761 190.425 427.013 193.039 427.272 195.654C427.377 196.743 427.459 198.61 427.659 199.511C428.234 200.588 426.004 201.96 425.329 202.443C423.235 203.945 421.028 205.358 418.869 206.765C417.954 207.366 417.038 207.966 416.123 208.561C415.507 209.68 415.09 210.71 415.002 211.611C415.155 213.914 410.214 218.86 408.742 220.179C405.391 223.176 400.932 225.514 398.139 229.058C396.021 231.749 394.448 234.788 393.245 237.985C392.019 241.253 391.021 243.909 389.425 247.036C388.187 249.456 387.882 251.416 385.594 253.207C382.044 255.974 377.596 257.27 373.137 257.311C372.21 257.323 366.495 257.246 366.764 255.432C366.794 255.232 366.899 255.05 367.052 254.92C369.657 252.682 367.234 247.636 365.051 245.964C361.296 243.09 355.722 241.33 351.473 238.91C349.913 238.02 345.694 233.687 348.34 232.268C351.655 230.483 354.9 233.592 358.116 234.723C359.577 235.235 366.671 237.532 368.566 237.284C367.445 235.73 361.02 231.002 359.864 230.136C357.452 228.328 350.605 225.696 355.147 222.234C358.01 220.055 363.807 224.006 366.371 225.437C368.331 226.532 370.473 227.215 372.468 228.216C373.143 228.558 376.986 230.66 377.262 230.843C377.766 230.089 375.372 226.78 374.956 226.114C373.741 224.183 372.855 222.039 371.558 220.161C369.851 217.688 365.961 212.706 369.956 210.392C373.506 208.337 377.215 213.478 379.057 215.851C379.931 216.975 380.988 217.929 381.656 219.207C382.302 220.432 384.344 224.972 386.081 222.829C389.707 218.359 387.331 201.254 392.476 199.063C398.215 196.625 396.83 214.962 397.188 219.625C403.044 215.456 409 211.47 415.002 207.531C417.173 203.744 421.099 199.528 422.531 195.448C419.403 192.186 415.789 189.206 412.239 186.55C409.551 184.537 406.741 182.599 403.86 180.774C403.508 180.951 403.156 181.127 402.809 181.304C401.389 182.01 391.015 175.757 388.152 175.003C385.418 176.799 382.695 178.948 380.113 180.933C375.501 184.484 370.942 188.105 366.395 191.738C354.196 201.477 342.079 211.329 329.963 221.168C326.113 224.295 322.27 227.416 318.421 230.542C316.667 232.868 316.831 236.23 316.297 238.98C315.387 243.691 313.375 246.977 311.832 251.299C313.381 252.276 322.822 256.074 324.242 256.722C326.008 257.523 327.756 258.377 329.446 259.33C329.493 259.36 329.534 259.383 329.575 259.425C331.136 260.826 333.659 264.147 335.502 265.448C336.106 265.313 336.71 265.178 337.321 265.048C340.953 263.282 344.978 260.367 347.994 258.17C351.385 255.703 354.695 253.124 358.004 250.539C358.608 250.068 362.405 246.553 363.261 247.513C363.455 247.73 363.502 248.031 363.408 248.296C362.915 250.027 365.679 257.387 366.465 259.054C367.838 261.945 370.52 266.467 374.105 266.756C377.25 267.009 382.091 264.277 384.408 262.339C388.844 258.63 391.015 253.636 390.217 247.825C390.17 247.471 390.376 247.136 390.71 247.024C391.051 246.906 391.409 247.047 391.59 247.359C393.949 251.522 392.84 257.529 390.417 261.409C387.589 265.937 383.059 268.716 378.206 270.654C373.741 272.438 368.032 272.797 363.402 271.549C360.656 270.807 358.855 268.057 356.302 267.368C352.248 266.285 347.454 265.136 343.27 265.466C341.434 265.743 339.615 266.078 337.802 266.461L337.825 266.467ZM423.651 196.655C422.39 199.634 420.002 202.749 418.053 205.57C420.318 204.109 425.476 200.759 426.268 199.835C426.168 199.293 426.045 198.286 425.91 197.079C425.717 197.591 425.435 197.921 425.018 197.885C424.807 197.868 424.619 197.768 424.484 197.609C424.209 197.291 423.933 196.973 423.651 196.661V196.655ZM308.37 225.879C307.261 225.932 306.158 225.996 305.054 226.055C301.059 226.285 294.81 226.479 291.013 227.486C287.281 228.475 283.462 229.995 280.182 232.056C279.301 232.609 276.303 234.676 276.051 235.748C275.317 238.892 276.837 246.323 274.59 247.848C272.072 249.556 263.476 250.781 259.692 251.599C259.164 252.906 258.694 254.237 258.272 255.58C256.834 260.102 255.831 264.907 255.232 269.612C255.103 270.601 254.64 274.77 254.769 276.471C260.83 275.435 267.637 272.314 273.733 270.789C277.717 269.788 284.054 269.759 287.422 268.092C291.4 266.12 289.576 262.863 291.33 261.739C295.109 259.313 300.043 258.465 303.464 255.921C304.08 255.462 310.013 250.298 308.246 249.467C307.032 248.896 298.101 253.748 296.024 254.567C293.753 255.462 291.154 255.986 288.713 256.086C287.862 256.121 284.33 256.28 284.717 254.637C285.28 252.223 297.673 248.178 299.961 247.365C303.142 246.241 307.478 245.322 310.294 243.697C311.456 243.026 313.081 240.918 311.79 239.864C310.893 239.528 309.303 239.728 308.37 239.875C306.41 240.182 306.592 242.949 307.63 243.326C307.994 243.455 308.194 243.85 308.088 244.221C307.982 244.592 307.613 244.822 307.231 244.745C305.624 244.421 304.427 242.39 304.374 240.706C303.552 240.894 302.737 241.088 301.909 241.236C299.416 241.683 296.934 242.949 294.422 243.544C292.762 243.938 290.949 244.097 289.341 244.615C287.968 245.057 284.858 246.588 283.696 246.712C283.35 246.747 283.033 246.547 282.922 246.217C282.81 245.887 282.933 245.534 283.227 245.346C286.237 243.444 289.928 242.119 293.272 240.959C294.193 240.641 295.15 240.405 296.083 240.117C298.823 239.269 301.569 238.439 304.315 237.62C305.53 237.255 307.184 236.86 308.311 236.407C309.408 235.859 312.905 233.928 312.424 232.403C312.16 231.579 308.54 231.926 307.783 232.014C307.261 232.268 307.19 234.299 308.364 234.664C308.751 234.782 308.968 235.2 308.851 235.589C308.733 235.977 308.317 236.195 307.93 236.077C307.437 235.924 307.038 235.653 306.738 235.312C305.976 234.535 305.495 233.351 305.512 232.326C305.277 232.356 305.037 232.379 304.808 232.397C303.752 232.462 302.696 232.586 301.645 232.745C299.011 233.139 294.334 234.44 291.805 234.429C291.711 234.429 291.629 234.429 291.559 234.423C291.16 234.387 290.867 234.04 290.896 233.64C290.919 233.239 291.26 232.933 291.659 232.951C291.753 232.951 291.846 232.951 291.952 232.951C293.918 232.839 302.631 230.589 304.479 230.213C306.439 229.812 308.557 229.953 310.423 229.535C311.204 229.359 312.706 228.64 312.747 227.681C312.706 226.844 310.241 226.391 309.461 226.261C309.086 226.15 308.722 226.02 308.364 225.879H308.37ZM303.588 221.869C297.456 211.582 308.264 187.133 299.41 171.3C293.114 160.041 282.2 152.062 273 143.365C268.323 138.943 263.875 133.078 260.73 127.449C257.726 122.079 255.144 116.461 253.003 110.691C252.463 109.236 251.946 107.77 251.459 106.298C251.16 109.643 250.738 112.598 251.77 116.579C252.903 120.972 252.316 126.083 253.977 130.311C254.945 132.766 258.753 133.202 260.237 135.646C261.505 137.736 262.203 140.127 262.655 142.517C262.948 144.054 263.083 146.027 263.506 147.475C265.131 153.063 273.387 159.752 278.368 162.343C278.679 162.508 278.914 162.779 278.926 163.15C278.973 164.763 272.753 165.329 271.55 165.311C267.484 165.264 262.491 158.092 258.178 156.467C256.517 155.843 254.769 155.884 253.143 154.977C252.586 154.671 252.052 154.3 251.536 153.87C253.085 155.371 254.634 156.849 256.177 158.298C261.065 162.879 268.376 176.099 271.761 182.14C274.666 187.322 277.488 192.592 280.094 197.933C281.842 201.519 283.508 203.986 284.518 208.055C285.181 210.716 284.248 213.548 284.659 216.163C285.116 219.036 285.762 221.156 286.483 223.565C289.376 221.981 292.017 221.05 293.642 221.616C296.846 222.728 300.29 222.617 303.588 221.857V221.869ZM249.699 152.092C245.375 147.187 242.253 138.861 238.51 134.285C236.878 132.289 234.707 130.693 232.172 130.105C231.38 129.922 229.949 129.769 228.922 130.028C235.441 137.5 242.517 145.026 249.699 152.092ZM225.513 157.303C224.773 156.537 224.052 155.766 223.336 154.983C215.168 145.997 209.177 135.575 201.403 126.354C196.45 120.477 191.175 114.913 186.111 109.142C182.908 105.485 178.114 100.033 176.371 95.481C169.788 78.2929 189.198 69.0776 201.004 62.2412C207.599 58.4197 213.349 51.1181 217.363 44.7411C221.106 38.7938 224.492 31.9044 226.551 25.174C227.097 23.3899 228.259 19.1444 228.112 16.0824C227.15 15.6349 226.193 15.1579 225.26 14.628C224.48 14.1805 216.312 9.28136 213.361 5.76012C211.272 5.11829 209.248 4.62956 207.499 4.3057C206.331 4.08783 205.146 4.02894 203.961 4.13493C192.894 5.14184 185.654 19.8215 182.321 28.8837C175.561 47.2848 173.819 69.4839 174.535 88.9391C175.022 102.194 178.818 111.415 185.137 122.762C191.392 133.997 196.409 142.776 198.504 155.813C201.209 172.636 197.219 188.676 196.75 205.346C196.556 212.018 196.843 219.29 198.211 225.837C198.516 227.292 199.977 233.457 201.708 233.928C202.611 234.175 205.621 231.225 206.173 230.648C209.165 227.527 211.835 223.688 214.047 219.984C220.549 209.109 224.809 196.296 225.407 183.6C225.812 175.092 225.912 166.218 225.501 157.315L225.513 157.303ZM227.825 14.2982C227.69 13.8861 227.502 13.5386 227.255 13.2619C224.856 10.5827 220.748 8.40988 216.529 6.82591C219.704 9.51689 224.709 12.5906 226.006 13.3325C226.61 13.6741 227.214 13.9979 227.83 14.2982H227.825ZM225.401 155.042C224.668 141.887 222.772 128.738 219.035 116.667C217.357 111.244 215.015 106.504 211.941 101.758C209.5 97.9953 206.707 94.4034 204.495 90.5053C200.798 83.9928 199.73 77.7276 200.358 70.2789C200.387 69.9079 200.681 69.6252 201.051 69.6017C201.42 69.5781 201.743 69.8313 201.819 70.1905C203.585 78.87 206.683 87.5317 214.171 92.9019C224.046 99.9915 240.205 104.761 251.483 98.4429C254.44 96.7883 257.28 86.36 257.92 83.2097C258.436 80.6718 258.442 78.1221 258.77 75.5666C259.269 71.7392 259.956 67.5643 259.674 63.7075C259.287 58.4491 257.744 55.8406 256.412 50.9945C255.678 48.333 255.807 45.1297 254.763 42.58C251.225 33.9536 245.674 26.3517 237.976 21.011C235.347 19.1856 232.513 18.0256 229.714 16.7831C229.743 25.5097 221.358 41.1845 218.63 45.5183C214.476 52.1192 208.585 59.562 201.76 63.5131C190.747 69.8902 171.589 78.8052 177.768 94.9393C179.428 99.2731 184.181 104.673 187.238 108.153C192.308 113.929 197.583 119.506 202.547 125.388C210.31 134.591 216.301 145.014 224.439 153.976C224.762 154.329 225.084 154.683 225.413 155.03L225.401 155.042ZM243.632 291.675C243.697 292.04 243.761 292.388 243.826 292.723C245.967 292.029 254.082 284.215 256.054 281.2C254.833 282.083 252.832 283.973 252.387 284.385C249.623 286.929 246.842 289.432 243.761 291.587C243.72 291.616 243.679 291.646 243.638 291.675H243.632ZM204.02 294.537C204.119 293.618 204.184 292.712 204.196 291.811C204.278 283.938 220.654 270.854 218.272 266.838C216.459 263.776 201.062 274.246 199.149 275.47C196.192 277.366 182.069 287.418 178.718 284.615C178.384 284.338 178.161 283.979 178.02 283.573C176.101 277.926 188.611 269.511 187.203 265.101C185.613 263.37 168.96 275.217 168.233 270.247C166.695 259.713 199.02 249.644 198.017 236.866C197.195 226.409 163.116 211.552 164.607 202.843C165.692 196.519 178.114 203.786 177.85 199.564C177.498 193.822 158.358 184.495 158.586 178.207C158.798 172.43 160.358 166.895 162.189 161.454C163.715 156.902 165.704 151.95 166.478 147.222C167.476 141.122 169.841 135.41 173.062 130.163C174.024 128.597 175.057 127.09 176.136 125.606C175.057 126.254 173.919 126.813 172.692 127.308C171.225 127.902 169.412 128.432 168.092 129.298C167.094 129.957 166.431 130.793 165.903 131.865C163.234 137.294 160.006 142.588 158.803 148.6C158.264 151.303 159.772 154.094 159.384 157.138C158.68 162.638 149.075 166.824 148.799 171.977C148.5 177.665 151.052 184.266 153.775 189.194C155.154 191.685 157.959 192.78 158.316 195.919C158.751 199.781 156.914 203.397 157.219 207.089C157.912 215.58 158.774 224.206 158.85 232.721C158.891 237.638 158.111 243.344 158.534 248.09C158.815 251.187 161.115 251.817 161.227 253.077C161.538 256.645 159.156 259.054 159.156 262.18C159.156 268.381 161.99 273.71 164.161 279.327C165.258 282.177 165.088 286.181 167.376 288.284C176.025 296.221 189.949 294.319 200.757 294.466C201.843 294.484 202.928 294.507 204.014 294.537H204.02ZM305.09 221.486C306.433 221.091 307.748 220.603 308.997 220.055C310.781 219.278 315.933 216.587 317.212 215.115C318.849 213.089 318.503 205.34 318.315 202.873C317.764 195.542 316.138 187.911 313.78 180.956C308.863 166.471 300.871 152.463 292.58 139.661C290.808 136.923 288.895 134.279 286.912 131.694C281.39 124.493 275.253 117.786 269.755 110.585C265.771 105.362 260.953 98.3722 260.519 91.6065C260.208 86.6897 262.256 81.4137 262.584 76.2968C263.095 68.4535 262.273 59.7034 261.569 51.866C260.449 39.3709 257.304 32.4933 250.415 22.4595C248.983 20.3691 247.393 18.3789 245.697 16.5005C239.9 10.0704 225.12 -2.14794 215.69 2.54509C215.033 2.87483 214.423 3.28112 213.877 3.76986C213.942 3.98184 214.059 4.21737 214.229 4.47057C219.569 6.15464 225.231 8.79851 228.341 12.2726C228.992 12.9969 229.385 13.9685 229.567 15.1285C232.665 16.5358 235.828 17.7488 238.797 19.8039C246.73 25.3036 252.463 33.1292 256.107 42.0265C257.227 44.7646 257.051 47.8265 257.814 50.6117C259.181 55.5815 260.73 58.1783 261.123 63.6132C261.417 67.5879 260.724 71.8275 260.214 75.7727C259.879 78.3695 259.874 80.9368 259.346 83.5218C258.589 87.2491 255.725 97.7598 252.181 99.7442C240.375 106.357 223.647 101.546 213.29 94.1149C207.071 89.6515 203.732 83.086 201.696 76.02C201.948 80.8308 203.18 85.2294 205.762 89.7811C207.957 93.6497 210.744 97.224 213.167 100.963C216.318 105.821 218.712 110.685 220.431 116.237C224.368 128.956 226.281 142.847 226.95 156.685C241.584 171.676 260.824 182.799 275.816 197.632C284.26 205.988 280.264 217.511 284.934 223.582C284.242 221.28 283.632 219.19 283.192 216.416C282.787 213.843 283.673 210.846 283.074 208.431C282.094 204.498 280.446 202.072 278.756 198.598C276.168 193.281 273.357 188.04 270.465 182.882C267.695 177.947 264.814 173.025 261.745 168.267C260.032 165.605 257.45 161.548 255.156 159.393C245.521 150.366 235.822 140.25 227.162 130.264C227.021 130.105 226.962 129.91 226.985 129.698C227.009 129.486 227.109 129.316 227.273 129.186C228.593 128.191 230.987 128.314 232.501 128.668C235.359 129.333 237.8 131.1 239.642 133.349C244.037 138.725 248.179 150.543 253.842 153.693C255.232 154.465 257.169 154.524 258.682 155.089C262.655 156.584 268.546 163.804 271.556 163.839C272.284 163.845 275.088 163.486 276.649 163.097C271.274 160.006 263.723 153.546 262.086 147.893C260.9 143.807 261.493 140.574 258.976 136.417C257.667 134.256 253.842 133.997 252.604 130.852C250.843 126.389 251.506 121.466 250.345 116.95C249.635 114.2 249.547 111.28 249.705 108.453C249.811 106.616 250.163 104.602 250.186 102.812C250.192 102.4 250.356 102.005 250.814 101.911C251.794 101.717 252.152 103.678 252.351 104.29C252.915 106.033 253.495 107.764 254.123 109.484C256.294 115.425 258.929 121.207 262.015 126.731C265.09 132.23 269.444 137.977 274.015 142.293C283.385 151.15 294.281 159.099 300.701 170.581C301.622 172.23 302.355 173.973 302.924 175.775C304.421 180.532 304.743 185.602 304.603 190.56C304.427 196.755 303.488 202.843 303.136 209.003C302.919 212.842 302.819 218.112 305.09 221.48V221.486ZM405.309 180.061C408.947 182.405 411.992 184.531 413.142 185.39C416.481 187.887 419.867 190.666 422.877 193.687C422.695 189.477 422.566 184.996 421.944 180.862C420.518 178.43 418.699 176.305 416.54 174.497C412.89 175.975 408.988 178.142 405.309 180.061ZM413.852 210.098C408.243 213.796 402.68 217.541 397.212 221.462C395.528 222.67 395.727 218.3 395.721 217.729C395.692 215.227 395.698 212.73 395.598 210.233C395.557 209.25 395.252 199.528 393.069 200.453C389.308 202.049 390.933 219.237 387.243 223.788C384.379 227.321 381.568 222.193 380.371 219.926C379.773 218.789 378.705 217.806 377.907 216.787C376.675 215.203 373.184 210.269 370.702 211.7C367.991 213.272 371.67 217.735 372.785 219.343C374.105 221.25 374.991 223.4 376.217 225.349C377.144 226.821 379.679 229.936 378.5 231.691C377.537 233.121 372.925 230.118 371.822 229.559C369.81 228.54 367.662 227.857 365.673 226.75C363.907 225.761 358.039 221.922 356.056 223.429C355.739 223.671 355.076 224.218 355.123 224.689C355.229 225.737 359.676 228.146 360.762 228.964C362.34 230.148 370.027 235.565 370.197 237.408C370.508 240.823 358.949 236.59 357.646 236.136C355.07 235.235 351.514 232.262 349.062 233.581C348.563 234.57 351.356 237.149 352.219 237.644C356.566 240.123 362.076 241.836 365.961 244.81C368.707 246.912 371.065 252.294 368.666 255.391C370.132 255.821 373.172 255.874 374.134 255.821C377.936 255.609 381.668 254.42 384.702 252.058C386.656 250.533 387.049 248.496 388.129 246.382C389.701 243.308 390.669 240.7 391.878 237.485C393.134 234.14 394.782 230.972 396.995 228.163C399.928 224.436 404.3 222.21 407.773 219.101C408.888 218.1 413.588 213.325 413.541 211.741C413.535 211.688 413.535 211.647 413.541 211.588C413.577 211.105 413.688 210.604 413.846 210.092L413.852 210.098Z" fill="#4D4C4C"/>
</svg>
