<svg width="420" height="312" viewBox="0 0 420 312" fill="none" xmlns="http://www.w3.org/2000/svg">
<path d="M217.72 222.58C211.616 224.229 200.711 227.439 200.711 240.075C184.673 244.935 187.589 250.281 187.589 283.327C171.469 295.442 123.45 289.645 116.636 289.645C80.6733 282.841 109.346 216.262 84.0752 174.468C100.599 145.309 99.4583 116.636 116.636 116.636C118.885 122.761 120.038 126.841 125.384 137.533C138.019 155.514 120.524 226.953 135.589 234.729C138.52 236.937 155.574 217.725 160.86 197.309C165.605 178.983 158.338 159.025 165.234 163.776C191.923 182.162 217.72 198.48 217.72 222.58Z" fill="#E5EEF9"/>
<path fill-rule="evenodd" clip-rule="evenodd" d="M321.989 251.158C321.095 254.618 319.075 257.67 316.114 260.152C313.517 262.333 308.455 265.129 304.935 264.844C300.762 264.507 297.847 259.833 296.225 256.408C295.452 254.769 293.328 249.222 293.063 246.176C291.828 247.06 290.073 248.554 289.363 249.106C286.345 251.472 283.315 253.827 280.216 256.089C278.207 257.554 275.783 259.315 273.324 260.856C273.734 260.786 274.15 260.722 274.565 260.658C278.894 260.309 283.742 261.455 287.915 262.577C290.673 263.321 292.468 266.042 294.898 266.705C299.152 267.856 304.45 267.518 308.548 265.879C313.02 264.088 317.257 261.524 319.865 257.333C320.927 255.629 321.73 253.408 321.995 251.158H321.989ZM269.336 263.094C268.771 263.367 268.217 263.612 267.674 263.821C267.484 263.891 267.299 263.891 267.114 263.803C267.016 263.757 266.918 263.71 266.82 263.652C266.133 263.815 265.452 263.984 264.771 264.158C263.813 264.402 263.063 263.176 262.561 262.53C261.73 261.466 260.887 260.548 259.75 259.804C258.22 258.798 252.622 256.309 251.041 256.577C247.018 257.798 241.939 257.891 237.859 256.385C239.729 264.466 243.457 273.978 246.712 281.431C247.797 283.908 250.689 287.158 251.145 289.413C251.872 293.012 252.184 297.233 249.558 300.163C247.93 301.983 245.737 302.698 244.132 304.297C243.953 304.477 243.78 304.669 243.63 304.878C242.568 306.302 242.609 308.709 242.811 310.529H419.273C419.671 310.529 420 310.855 420 311.262C420 311.669 419.677 311.994 419.273 311.994H242.176C241.812 311.994 241.506 311.727 241.46 311.366C241.131 309.052 241.004 305.971 242.47 304C242.666 303.739 242.88 303.494 243.111 303.262C244.715 301.657 246.96 300.884 248.478 299.186C250.741 296.657 250.342 292.78 249.719 289.704C249.356 287.913 246.343 284.222 245.379 282.018C241.893 274.042 237.899 263.774 236.127 255.315C236.07 255.036 236.168 254.763 236.393 254.589C236.612 254.414 236.901 254.379 237.155 254.507C241.085 256.42 246.499 256.431 250.614 255.176C252.489 254.606 258.78 257.426 260.535 258.577C261.66 259.315 262.572 260.228 263.415 261.274C263.611 261.519 264.425 262.629 264.408 262.74C264.702 262.664 264.99 262.588 265.285 262.519C263.565 260.966 261.787 258.623 260.333 257.286C258.728 256.379 257.066 255.571 255.392 254.809C252.484 253.478 249.523 252.298 246.579 251.06C245.725 250.699 241.812 249.385 242.291 248.007C243.786 243.67 245.864 240.327 246.753 235.688C247.353 232.572 247.099 229.339 249.171 226.671C249.205 226.624 249.24 226.589 249.286 226.554C253.09 223.456 256.899 220.351 260.702 217.246C272.626 207.526 284.544 197.799 296.549 188.183C301.033 184.596 305.523 181.015 310.065 177.497C312.72 175.445 315.514 173.236 318.319 171.41C318.474 171.306 318.642 171.271 318.826 171.3C320.194 171.521 324.656 173.881 326.07 174.567C327.155 175.096 331.933 177.538 332.626 177.712C332.701 177.677 332.782 177.637 332.857 177.596C330.918 176.398 328.955 175.259 326.982 174.189C325.879 173.59 319.842 170.439 318.463 170.556L244.265 222.624C245.252 223.037 246.077 223.688 246.124 224.735C246.181 226.019 245.062 227.048 243.884 227.63C244.779 227.833 245.5 228.246 245.748 229.025C246.568 231.612 242.845 233.798 240.97 234.729C240.11 235.159 237.922 235.682 236.941 235.978C236.618 236.077 236.289 236.176 235.966 236.269C236.37 236.176 236.774 236.077 237.172 235.99C237.449 235.926 237.726 236.025 237.899 236.252C237.997 236.38 238.049 236.525 238.055 236.676C238.499 236.031 239.192 235.542 240.139 235.391C241.362 235.199 243.053 235.013 244.236 235.455C245.102 235.781 245.529 237.176 245.546 238.007C245.581 239.757 244.415 241.048 242.984 241.88C240.081 243.56 235.833 244.461 232.578 245.612C230.945 246.188 220.989 249.693 218.871 251.368C221 251.815 226.212 250.571 227.695 249.984C230.448 248.891 238.678 243.955 240.86 244.984C244.698 246.792 237.876 252.746 236.404 253.85C232.901 256.472 228.14 257.24 224.388 259.658C223.823 260.024 224.608 263.92 220.406 266.007C216.799 267.803 210.808 267.734 206.653 268.78C200.344 270.367 193.407 273.623 187.168 274.53C186.833 274.582 186.516 274.396 186.389 274.076C185.079 270.739 188.599 255.397 189.702 251.903C190.169 250.42 190.695 248.949 191.283 247.507C191.376 247.281 191.554 247.129 191.791 247.071C194.971 246.339 204.102 245.013 206.318 243.502C207.339 242.804 206.837 237.676 206.826 236.484C206.808 235.147 206.855 233.74 207.155 232.438C208.084 228.426 219.546 224.095 222.917 223.194C226.772 222.171 232.965 221.967 237.016 221.735C237.339 221.717 237.663 221.7 237.986 221.682C237.472 221.293 236.999 220.851 236.572 220.345C232.89 221.287 229.017 221.473 225.398 220.211C224.157 219.775 221.86 220.688 219.257 222.182C219.327 222.426 219.402 222.676 219.477 222.932C219.563 223.235 219.454 223.543 219.2 223.729C218.946 223.915 218.623 223.915 218.363 223.735C218.103 223.554 217.855 223.362 217.624 223.171C212.863 226.171 207.622 230.484 206.023 231.851C204.159 233.449 207.247 239.002 204.69 241.467C200.246 245.746 193.632 245.763 188.074 247.344C184.444 248.374 179.44 248.74 175.666 249.077C169.438 249.629 163.182 250.013 156.943 250.373C154.871 250.49 145.435 250.879 137.257 251.368C138.549 251.368 139.836 251.356 141.129 251.35C149.457 251.292 157.786 251.077 166.108 251.042C166.812 251.042 179.048 250.333 177.362 252.978C172.613 260.42 174.725 276.751 176.399 286.408C179.342 284.291 181.997 281.849 184.663 279.39C185.598 278.53 188.732 275.257 190.146 275.821C192.836 276.896 185.367 283.896 184.6 284.646C183.93 285.303 176.156 293.146 175.498 289.623C175.452 289.378 175.406 289.128 175.36 288.873C173.271 290.216 171.002 291.384 168.636 292.047C164.533 293.204 158.507 293.012 154.242 292.89C149.146 292.745 144.055 292.471 138.959 292.309C138.007 298.622 135.652 305.477 136.76 311.128C136.801 311.349 136.749 311.558 136.61 311.733C136.466 311.907 136.276 312 136.05 312H0.727208C0.328978 312 0 311.669 0 311.267C0 310.866 0.323207 310.535 0.727208 310.535H135.19C134.382 304.721 136.61 298.343 137.516 292.262C136.506 292.239 135.496 292.216 134.486 292.198C123.342 292.041 109.623 293.936 100.689 285.704C97.9588 283.187 98.3859 279.518 97.1508 276.309C94.9288 270.53 92.1297 265.251 92.1297 258.85C92.1297 255.652 94.4383 253.065 94.1843 250.048C94.1151 249.891 93.157 248.984 92.9608 248.746C92.0777 247.676 91.6449 246.455 91.5237 245.071C91.0966 240.321 91.87 234.694 91.8238 229.775C91.7545 221.403 90.9003 212.921 90.2251 204.572C89.925 200.846 91.7199 197.224 91.3101 193.59C91.0504 191.264 88.2051 189.654 87.0162 187.491C84.1939 182.369 81.6314 175.619 81.9373 169.707C82.2489 163.817 91.7487 159.689 92.3548 154.945C92.7357 151.98 91.2005 149.428 91.8007 146.417C93.0185 140.329 96.2159 135.021 98.9053 129.533C99.5402 128.243 100.366 127.219 101.56 126.423C102.974 125.487 104.763 124.964 106.339 124.324C108.642 123.388 110.569 122.237 112.474 120.615C112.636 120.475 112.832 120.417 113.045 120.452C113.247 120.481 113.426 120.574 113.559 120.731C114.2 121.499 112.838 122.975 112.393 123.574C111.256 125.109 110.154 126.632 109.127 128.243C105.733 133.539 103.217 139.335 102.201 145.579C101.422 150.353 99.4594 155.277 97.9242 159.864C96.1755 165.096 94.6576 170.439 94.4613 175.991C94.2767 181.096 113.011 190.416 113.409 196.933C113.813 203.52 101.11 196.142 100.366 200.508C99.1535 207.607 132.38 222.7 133.24 233.734C134.302 247.321 102.611 257.583 103.927 266.611C105.929 267.867 121.154 256.92 122.551 261.309C124.265 266.704 111.966 274.972 113.501 279.495C114.592 282.716 130.648 271.693 132.126 270.733C134.948 268.92 150.179 257.978 152.967 262.693C156.239 268.234 139.409 280.379 139.329 288.111C139.317 289 139.254 289.907 139.15 290.826C144.194 290.989 149.232 291.256 154.282 291.402C158.363 291.518 164.319 291.716 168.244 290.611C170.656 289.931 172.97 288.687 175.077 287.285C173.357 277.571 171.1 261.077 175.764 252.78C171.441 252.089 144.523 252.757 141.135 252.78C135.485 252.821 129.823 252.815 124.179 252.623C123.844 252.612 123.567 252.385 123.498 252.054C123.422 251.728 123.573 251.397 123.873 251.246C125.927 250.176 153.099 249.1 156.862 248.885C163.09 248.531 169.329 248.147 175.539 247.594C179.209 247.269 184.155 246.914 187.682 245.908C192.818 244.449 199.594 244.315 203.692 240.385C205.556 238.589 202.405 233.019 205.083 230.717C206.924 229.141 211.801 225.072 216.539 222.089C210.97 215.746 215.506 204.27 207.328 196.148C192.951 181.869 174.656 171.096 160.377 156.841C160.7 165.131 160.591 173.381 160.215 181.317C159.615 194.096 155.35 206.979 148.834 217.927C147.293 220.514 138.896 233.397 135.069 232.351C129.292 230.763 129.003 207.09 129.125 202.677C129.586 186.369 133.499 170.474 130.868 154.044C128.836 141.364 123.942 132.818 117.882 121.888C111.556 110.476 107.753 101.162 107.268 87.8365C106.558 68.43 108.301 46.3316 115.019 27.9832C118.528 18.3904 125.939 3.65819 137.534 2.60007C138.826 2.4838 140.131 2.54775 141.406 2.78612C142.78 3.04193 144.304 3.39657 145.891 3.83842C145.827 3.44889 145.92 3.10587 146.202 2.83262C146.901 2.16985 147.686 1.61172 148.551 1.1815C158.594 -3.84164 173.559 8.34995 179.786 15.2858C181.495 17.1928 183.094 19.2043 184.542 21.3206C191.462 31.4308 194.642 38.4655 195.768 51.0525C196.466 58.872 197.274 67.5753 196.766 75.4007C196.449 80.3251 194.434 85.6796 194.735 90.3248C195.139 96.6444 199.819 103.388 203.524 108.266C208.927 115.377 214.963 121.999 220.394 129.109C222.368 131.69 224.267 134.335 226.033 137.068C234.252 149.812 242.164 163.748 247.041 178.166C249.402 185.148 251.023 192.805 251.578 200.165C251.803 203.148 252.155 210.828 250.169 213.287C248.888 214.874 243.469 217.735 241.628 218.543C240.502 219.037 239.331 219.49 238.136 219.868C238.857 220.578 239.688 221.118 240.594 221.52C241.547 221.473 242.499 221.426 243.451 221.386L317.759 169.242C317.828 169.195 317.897 169.16 317.978 169.137C320.298 168.48 327.911 172.794 334.288 176.846C338.299 174.771 342.611 172.323 346.616 170.742C346.864 170.643 347.13 170.683 347.337 170.852C349.773 172.835 351.816 175.195 353.392 177.927C353.438 178.009 353.467 178.09 353.478 178.183C354.154 182.579 354.263 187.363 354.459 191.817C354.459 191.881 354.459 191.939 354.442 192.003C354.402 192.195 354.356 192.392 354.298 192.584C354.483 192.782 354.661 192.979 354.846 193.183C355.435 188.921 353.738 176.637 353.299 174.021C353.242 173.672 353.432 173.34 353.761 173.218C354.09 173.096 354.454 173.218 354.633 173.526C355.521 175.009 356.324 183.433 356.537 185.433C356.814 188.014 357.062 190.596 357.316 193.177C357.42 194.253 357.501 196.096 357.697 196.985C358.263 198.049 356.07 199.404 355.406 199.88C353.346 201.363 351.175 202.758 349.052 204.148C348.151 204.741 347.251 205.334 346.351 205.921C345.745 207.026 345.335 208.043 345.248 208.933C345.398 211.206 340.539 216.089 339.09 217.392C335.795 220.351 331.408 222.659 328.661 226.159C326.578 228.816 325.031 231.816 323.848 234.973C322.641 238.199 321.66 240.821 320.09 243.909C318.873 246.298 318.573 248.234 316.322 250.001C312.83 252.734 308.455 254.013 304.069 254.054C303.157 254.065 297.536 253.99 297.801 252.199C297.83 252.001 297.934 251.821 298.084 251.693C300.646 249.484 298.263 244.502 296.116 242.85C292.422 240.013 286.939 238.275 282.761 235.885C281.225 235.008 277.076 230.729 279.679 229.327C282.94 227.566 286.131 230.636 289.294 231.752C290.731 232.258 297.709 234.525 299.573 234.281C298.471 232.746 292.151 228.077 291.014 227.223C288.642 225.438 281.907 222.839 286.374 219.421C289.19 217.27 294.892 221.171 297.414 222.583C299.342 223.665 301.449 224.339 303.411 225.328C304.075 225.665 307.855 227.74 308.126 227.921C308.623 227.176 306.268 223.909 305.858 223.252C304.663 221.345 303.792 219.229 302.516 217.374C300.837 214.932 297.01 210.014 300.941 207.729C304.432 205.7 308.08 210.776 309.892 213.119C310.752 214.229 311.791 215.171 312.449 216.432C313.084 217.642 315.092 222.124 316.801 220.008C320.367 215.595 318.03 198.706 323.092 196.543C328.736 194.136 327.374 212.241 327.726 216.845C333.486 212.729 339.344 208.793 345.248 204.904C347.384 201.165 351.245 197.003 352.653 192.974C349.577 189.753 346.022 186.811 342.53 184.189C339.887 182.201 337.122 180.288 334.288 178.486C333.942 178.66 333.596 178.834 333.255 179.009C331.858 179.706 321.655 173.532 318.838 172.788C316.149 174.561 313.471 176.683 310.931 178.643C306.395 182.148 301.91 185.724 297.438 189.311C285.439 198.927 273.521 208.654 261.603 218.368C257.816 221.456 254.036 224.537 250.25 227.624C248.524 229.92 248.686 233.24 248.161 235.955C247.266 240.606 245.287 243.85 243.769 248.118C245.292 249.083 254.579 252.833 255.975 253.472C257.713 254.263 259.432 255.106 261.095 256.048C261.141 256.077 261.181 256.1 261.222 256.141C262.757 257.524 265.239 260.803 267.051 262.088C267.645 261.955 268.24 261.821 268.84 261.693C272.412 259.949 276.372 257.071 279.338 254.902C282.674 252.466 285.929 249.92 289.184 247.368C289.779 246.903 293.513 243.432 294.356 244.379C294.546 244.595 294.592 244.891 294.5 245.153C294.015 246.862 296.733 254.129 297.507 255.775C298.857 258.629 301.495 263.094 305.021 263.379C308.115 263.629 312.876 260.931 315.156 259.019C319.519 255.356 321.655 250.426 320.87 244.688C320.823 244.339 321.025 244.007 321.354 243.897C321.689 243.781 322.041 243.92 322.22 244.228C324.54 248.339 323.449 254.269 321.066 258.1C318.284 262.571 313.828 265.315 309.055 267.228C304.663 268.989 299.048 269.344 294.494 268.111C291.793 267.379 290.021 264.664 287.511 263.984C283.523 262.914 278.807 261.78 274.692 262.106C272.886 262.379 271.097 262.71 269.313 263.088L269.336 263.094ZM353.755 194.165C352.514 197.107 350.165 200.183 348.249 202.968C350.477 201.526 355.55 198.218 356.329 197.305C356.231 196.77 356.11 195.776 355.977 194.584C355.787 195.09 355.51 195.415 355.1 195.381C354.892 195.363 354.708 195.264 354.575 195.107C354.304 194.793 354.032 194.479 353.755 194.171V194.165ZM240.364 223.019C239.273 223.072 238.188 223.136 237.103 223.194C233.172 223.421 227.026 223.612 223.292 224.607C219.621 225.583 215.864 227.083 212.638 229.118C211.772 229.665 208.823 231.705 208.574 232.763C207.853 235.868 209.348 243.205 207.137 244.711C204.661 246.397 196.206 247.606 192.484 248.414C191.964 249.705 191.503 251.019 191.087 252.344C189.673 256.809 188.686 261.553 188.097 266.199C187.97 267.175 187.514 271.292 187.641 272.972C193.603 271.949 200.298 268.867 206.295 267.361C210.214 266.373 216.447 266.344 219.76 264.699C223.673 262.751 221.878 259.536 223.603 258.426C227.32 256.03 232.174 255.193 235.539 252.682C236.145 252.228 241.98 247.129 240.242 246.31C239.048 245.746 230.264 250.536 228.22 251.344C225.987 252.228 223.43 252.746 221.029 252.844C220.192 252.879 216.718 253.036 217.099 251.414C217.653 249.03 229.842 245.036 232.093 244.234C235.221 243.124 239.486 242.217 242.257 240.612C243.399 239.949 244.998 237.868 243.728 236.827C242.845 236.496 241.281 236.694 240.364 236.839C238.436 237.141 238.615 239.874 239.636 240.246C239.994 240.374 240.19 240.763 240.087 241.13C239.983 241.496 239.619 241.723 239.244 241.647C237.663 241.327 236.485 239.321 236.433 237.659C235.625 237.845 234.823 238.037 234.009 238.182C231.556 238.624 229.115 239.874 226.645 240.461C225.012 240.85 223.228 241.007 221.647 241.519C220.296 241.955 217.237 243.467 216.095 243.589C215.754 243.624 215.442 243.426 215.333 243.1C215.223 242.775 215.344 242.426 215.633 242.24C218.594 240.362 222.224 239.054 225.514 237.909C226.42 237.595 227.361 237.362 228.278 237.077C230.973 236.24 233.674 235.42 236.376 234.612C237.57 234.252 239.198 233.862 240.306 233.415C241.385 232.874 244.825 230.967 244.352 229.461C244.092 228.647 240.531 228.99 239.786 229.077C239.273 229.327 239.204 231.333 240.358 231.694C240.739 231.81 240.952 232.223 240.837 232.606C240.721 232.99 240.312 233.205 239.931 233.089C239.446 232.938 239.053 232.67 238.759 232.333C238.009 231.566 237.536 230.397 237.553 229.386C237.322 229.415 237.085 229.438 236.86 229.455C235.822 229.519 234.783 229.641 233.75 229.798C231.158 230.188 226.558 231.473 224.071 231.461C223.978 231.461 223.898 231.461 223.828 231.455C223.436 231.42 223.147 231.077 223.176 230.682C223.199 230.287 223.534 229.984 223.927 230.002C224.019 230.002 224.111 230.002 224.215 230.002C226.149 229.891 234.719 227.671 236.537 227.298C238.465 226.903 240.548 227.043 242.384 226.63C243.151 226.455 244.629 225.746 244.669 224.798C244.629 223.973 242.205 223.525 241.437 223.397C241.068 223.287 240.71 223.159 240.358 223.019H240.364ZM235.66 219.06C229.629 208.904 240.26 184.765 231.551 169.131C225.358 158.015 214.623 150.137 205.573 141.55C200.973 137.184 196.599 131.394 193.505 125.836C190.55 120.533 188.011 114.987 185.904 109.29C185.373 107.853 184.865 106.406 184.386 104.952C184.092 108.255 183.676 111.173 184.692 115.103C185.806 119.44 185.229 124.487 186.862 128.661C187.815 131.086 191.56 131.516 193.02 133.928C194.267 135.992 194.954 138.353 195.398 140.713C195.687 142.231 195.82 144.178 196.235 145.608C197.834 151.126 205.954 157.73 210.854 160.288C211.16 160.451 211.391 160.719 211.402 161.085C211.449 162.678 205.331 163.236 204.148 163.219C200.148 163.172 195.237 156.091 190.995 154.486C189.361 153.87 187.641 153.911 186.043 153.015C185.494 152.713 184.969 152.347 184.461 151.922C185.985 153.405 187.509 154.864 189.027 156.294C193.834 160.817 201.025 173.869 204.356 179.834C207.212 184.951 209.988 190.154 212.551 195.427C214.271 198.968 215.91 201.404 216.903 205.421C217.555 208.049 216.637 210.845 217.041 213.427C217.491 216.264 218.126 218.357 218.836 220.735C221.681 219.171 224.279 218.252 225.877 218.81C229.028 219.909 232.416 219.799 235.66 219.049V219.06ZM182.655 150.166C178.401 145.324 175.331 137.103 171.649 132.585C170.044 130.615 167.909 129.039 165.416 128.458C164.636 128.277 163.228 128.126 162.218 128.382C168.63 135.76 175.591 143.19 182.655 150.166ZM158.865 155.312C158.138 154.556 157.428 153.794 156.724 153.021C148.69 144.149 142.797 133.859 135.15 124.754C130.279 118.952 125.09 113.458 120.11 107.76C116.958 104.15 112.243 98.7665 110.529 94.2724C104.053 77.3019 123.145 68.2032 134.758 61.4534C141.245 57.6802 146.901 50.4711 150.848 44.1747C154.531 38.3028 157.861 31.5006 159.887 24.8554C160.423 23.0938 161.566 18.902 161.422 15.8788C160.475 15.437 159.534 14.9661 158.617 14.4428C157.849 14.001 149.815 9.16388 146.912 5.68721C144.858 5.0535 142.867 4.57096 141.147 4.2512C139.998 4.03608 138.832 3.97794 137.666 4.08259C126.781 5.07675 119.659 19.5706 116.381 28.5181C109.733 46.6863 108.018 68.6044 108.723 87.8133C109.202 100.9 112.936 110.005 119.152 121.208C125.304 132.301 130.239 140.969 132.299 153.841C134.96 170.451 131.035 186.288 130.573 202.747C130.383 209.334 130.666 216.514 132.01 222.979C132.311 224.415 133.748 230.502 135.45 230.967C136.339 231.211 139.3 228.298 139.842 227.729C142.786 224.647 145.412 220.857 147.588 217.2C153.982 206.462 158.172 193.811 158.761 181.276C159.159 172.875 159.257 164.114 158.853 155.323L158.865 155.312ZM161.139 14.1173C161.006 13.7103 160.821 13.3673 160.579 13.094C158.219 10.4487 154.179 8.30343 150.029 6.73951C153.151 9.39643 158.074 12.4312 159.35 13.1638C159.944 13.501 160.539 13.8207 161.145 14.1173H161.139ZM158.755 153.079C158.034 140.091 156.17 127.109 152.493 115.191C150.843 109.836 148.54 105.156 145.516 100.47C143.115 96.7549 140.367 93.2085 138.192 89.3597C134.556 82.9296 133.505 76.7437 134.123 69.3893C134.152 69.023 134.44 68.7439 134.804 68.7206C135.167 68.6974 135.485 68.9474 135.56 69.302C137.297 77.8716 140.344 86.4237 147.709 91.7259C157.422 98.7258 173.317 103.435 184.409 97.1968C187.318 95.5631 190.112 85.2668 190.741 82.1564C191.249 79.6506 191.254 77.1332 191.578 74.6101C192.068 70.8311 192.743 66.7091 192.466 62.901C192.085 57.7093 190.568 55.1338 189.257 50.349C188.536 47.7211 188.663 44.5584 187.636 42.041C184.155 33.5238 178.696 26.0181 171.124 20.745C168.538 18.9427 165.75 17.7974 162.997 16.5707C163.026 25.1868 154.779 40.6632 152.095 44.9421C148.009 51.4594 142.214 58.8081 135.502 62.7092C124.669 69.0055 105.825 77.8077 111.903 93.7375C113.536 98.0165 118.211 103.348 121.218 106.784C126.204 112.487 131.393 117.993 136.275 123.801C143.911 132.888 149.804 143.178 157.809 152.027C158.126 152.376 158.444 152.725 158.767 153.068L158.755 153.079ZM176.687 287.983C176.751 288.344 176.814 288.687 176.878 289.018C178.984 288.332 186.966 280.617 188.905 277.64C187.705 278.512 185.737 280.379 185.298 280.786C182.58 283.297 179.844 285.768 176.814 287.896C176.774 287.925 176.733 287.954 176.693 287.983H176.687ZM137.724 290.809C137.822 289.902 137.886 289.006 137.897 288.117C137.978 280.344 154.086 267.425 151.743 263.46C149.96 260.437 134.815 270.774 132.934 271.983C130.025 273.855 116.133 283.78 112.838 281.012C112.509 280.739 112.289 280.384 112.151 279.983C110.264 274.408 122.568 266.1 121.183 261.745C119.619 260.036 103.24 271.733 102.524 266.827C101.012 256.426 132.807 246.484 131.82 233.868C131.012 223.543 97.4913 208.874 98.9573 200.276C100.025 194.032 112.243 201.206 111.983 197.038C111.637 191.369 92.8107 182.16 93.0358 175.951C93.2436 170.247 94.7788 164.782 96.5795 159.41C98.08 154.916 100.037 150.027 100.798 145.358C101.78 139.335 104.105 133.696 107.274 128.516C108.22 126.969 109.236 125.481 110.298 124.016C109.236 124.655 108.117 125.208 106.91 125.696C105.467 126.283 103.684 126.807 102.386 127.661C101.404 128.312 100.752 129.138 100.233 130.196C97.6068 135.556 94.4325 140.783 93.2493 146.719C92.7184 149.387 94.2016 152.143 93.8207 155.149C93.1281 160.579 83.6803 164.713 83.409 169.8C83.1147 175.416 85.6252 181.933 88.3032 186.799C89.6595 189.259 92.4182 190.34 92.7703 193.439C93.1974 197.253 91.3909 200.822 91.691 204.468C92.3721 212.851 93.2205 221.368 93.2955 229.775C93.3359 234.63 92.5683 240.263 92.9838 244.949C93.2609 248.007 95.5233 248.629 95.6329 249.874C95.9388 253.397 93.5956 255.775 93.5956 258.862C93.5956 264.984 96.3832 270.245 98.5187 275.792C99.5979 278.605 99.4306 282.559 101.681 284.634C110.189 292.471 123.884 290.594 134.515 290.739C135.583 290.756 136.651 290.78 137.718 290.809H137.724ZM237.137 218.682C238.459 218.293 239.752 217.81 240.981 217.27C242.736 216.502 247.803 213.845 249.061 212.392C250.671 210.392 250.331 202.741 250.146 200.305C249.604 193.067 248.005 185.532 245.685 178.666C240.848 164.364 232.988 150.533 224.833 137.894C223.09 135.19 221.208 132.58 219.257 130.027C213.827 122.917 207.79 116.295 202.382 109.185C198.463 104.028 193.725 97.127 193.297 90.4469C192.992 85.5924 195.006 80.3832 195.329 75.331C195.831 67.587 195.023 58.9476 194.331 51.2094C193.228 38.8725 190.135 32.082 183.359 22.1752C181.951 20.1113 180.387 18.1462 178.719 16.2916C173.017 9.94292 158.478 -2.12075 149.204 2.51287C148.557 2.83844 147.957 3.23959 147.42 3.72214C147.484 3.93143 147.599 4.16399 147.766 4.41398C153.018 6.07674 158.588 8.68714 161.647 12.1173C162.287 12.8324 162.674 13.7917 162.853 14.937C165.9 16.3265 169.011 17.5242 171.932 19.5532C179.735 24.9833 185.373 32.7099 188.957 41.4945C190.06 44.198 189.887 47.2211 190.637 49.9711C191.982 54.8779 193.505 57.4418 193.892 62.808C194.18 66.7323 193.499 70.9183 192.997 74.8135C192.668 77.3774 192.663 79.9123 192.143 82.4645C191.399 86.1447 188.582 96.5223 185.096 98.4816C173.484 105.011 157.03 100.261 146.843 92.9236C140.725 88.5167 137.441 82.0343 135.439 75.0577C135.687 79.8076 136.899 84.1505 139.438 88.6446C141.597 92.4643 144.338 95.9933 146.722 99.6851C149.821 104.481 152.176 109.284 153.867 114.766C157.74 127.324 159.621 141.039 160.279 154.701C174.673 169.503 193.598 180.486 208.344 195.131C216.649 203.38 212.718 214.758 217.312 220.752C216.631 218.479 216.031 216.415 215.598 213.677C215.2 211.136 216.072 208.177 215.483 205.793C214.519 201.909 212.897 199.514 211.235 196.084C208.69 190.834 205.925 185.66 203.08 180.567C200.356 175.695 197.522 170.835 194.504 166.137C192.818 163.509 190.279 159.503 188.022 157.376C178.546 148.463 169.005 138.475 160.487 128.615C160.348 128.458 160.291 128.266 160.314 128.057C160.337 127.847 160.435 127.679 160.596 127.551C161.895 126.568 164.25 126.69 165.739 127.039C168.549 127.696 170.95 129.44 172.763 131.661C177.085 136.969 181.16 148.637 186.73 151.748C188.097 152.509 190.002 152.568 191.491 153.126C195.398 154.602 201.193 161.73 204.154 161.765C204.869 161.771 207.628 161.416 209.163 161.033C203.876 157.98 196.449 151.602 194.838 146.021C193.673 141.986 194.255 138.795 191.78 134.69C190.492 132.556 186.73 132.301 185.512 129.196C183.78 124.789 184.432 119.929 183.29 115.47C182.591 112.755 182.505 109.871 182.661 107.08C182.765 105.266 183.111 103.278 183.134 101.511C183.14 101.104 183.301 100.714 183.751 100.621C184.715 100.429 185.067 102.365 185.264 102.97C185.818 104.691 186.389 106.4 187.007 108.098C189.142 113.964 191.733 119.673 194.769 125.126C197.793 130.556 202.076 136.231 206.572 140.492C215.789 149.236 226.506 157.085 232.82 168.422C233.726 170.05 234.448 171.771 235.008 173.55C236.479 178.247 236.797 183.253 236.658 188.148C236.485 194.264 235.562 200.276 235.215 206.357C235.002 210.148 234.904 215.351 237.137 218.677V218.682ZM335.714 177.782C339.292 180.096 342.287 182.195 343.419 183.044C346.703 185.509 350.033 188.253 352.993 191.235C352.815 187.078 352.688 182.654 352.076 178.573C350.673 176.172 348.884 174.073 346.76 172.288C343.17 173.747 339.332 175.887 335.714 177.782ZM344.117 207.438C338.599 211.09 333.128 214.787 327.749 218.659C326.093 219.851 326.289 215.537 326.283 214.973C326.254 212.502 326.26 210.037 326.162 207.572C326.122 206.601 325.822 197.003 323.675 197.915C319.975 199.491 321.574 216.461 317.943 220.956C315.127 224.444 312.362 219.38 311.185 217.142C310.596 216.02 309.546 215.049 308.761 214.043C307.549 212.479 304.115 207.607 301.674 209.02C299.007 210.572 302.626 214.979 303.723 216.566C305.021 218.45 305.893 220.572 307.099 222.496C308.011 223.95 310.504 227.025 309.344 228.758C308.397 230.17 303.861 227.205 302.776 226.653C300.796 225.647 298.684 224.973 296.728 223.88C294.99 222.903 289.219 219.113 287.268 220.601C286.957 220.839 286.304 221.38 286.351 221.845C286.454 222.88 290.829 225.258 291.897 226.066C293.449 227.234 301.01 232.583 301.177 234.403C301.483 237.775 290.114 233.595 288.832 233.147C286.299 232.258 282.801 229.322 280.389 230.624C279.898 231.601 282.645 234.147 283.494 234.635C287.77 237.083 293.19 238.775 297.01 241.711C299.711 243.786 302.032 249.1 299.671 252.158C301.114 252.583 304.104 252.635 305.05 252.583C308.79 252.373 312.461 251.199 315.444 248.868C317.366 247.362 317.753 245.35 318.815 243.263C320.362 240.228 321.314 237.653 322.503 234.478C323.738 231.176 325.36 228.048 327.536 225.275C330.421 221.595 334.721 219.397 338.138 216.328C339.234 215.339 343.857 210.624 343.811 209.06C343.805 209.008 343.805 208.967 343.811 208.909C343.846 208.433 343.955 207.938 344.111 207.433L344.117 207.438Z" fill="#4D4C4C"/>
</svg>
