<svg width="619" height="280" viewBox="0 0 619 280" fill="none" xmlns="http://www.w3.org/2000/svg">
<g clip-path="url(#clip0_554_942)">
<path d="M341 116.5C307.5 117.001 316 74 299 98C266.15 130.851 337.5 84 314 146C314.391 154.197 316.001 156.5 319 175.5C321 207.5 314.5 200 293.5 225.5C306.5 228.5 336.384 230.5 345 230.5C353.341 230.5 360.778 232.546 363 228.5C364 218.5 359.495 200.058 364 181C364 120.807 413.001 88.5 379.5 82.0001C355.5 69.0001 361.5 119.501 341 116.5Z" fill="#E5EEF9"/>
<path d="M445.479 279.999C435.694 279.999 422.789 276.952 417.109 271.914C414.186 269.319 414.871 259.957 417.073 248.664C407.872 253.009 390.103 256.246 366.042 257.909C340.917 259.644 325.65 255.517 318.315 253.534C316.55 253.053 315.267 252.71 314.451 252.601C311.541 252.229 302.501 252.164 296.515 252.12C293.292 252.098 291.877 252.083 291.265 252.054C292.833 255.422 294.247 258.419 295.377 260.788L345.008 264.558L299.511 275.078L293.234 261.685L299.059 275.027L297.878 274.962L206.178 269.924L171.414 207.296H172.646C172.887 207.296 196.969 207.18 220.899 207.202C258.572 207.231 267.438 207.515 269.705 207.792C269.763 205.765 268.765 198.679 267.941 192.875C267.416 189.172 266.876 185.337 266.519 182.311C265.454 173.293 257.441 161.161 254.022 155.977L253.446 155.11C250.734 150.976 231.485 144.093 225.959 142.956C224.194 142.591 222.933 142.701 222.225 143.277C221.657 143.743 221.387 144.553 221.387 145.821C221.387 147.09 224.982 154.709 227.125 159.28C228.197 161.569 229.13 163.545 229.641 164.741C229.786 165.083 230.231 166.119 229.604 166.826C228.773 167.774 226.95 167.256 223.64 166.323C220.862 165.535 217.413 164.558 213.87 164.325C211.573 164.172 210.312 163.625 209.896 162.612C209.269 161.088 210.837 159.324 212.66 157.275C213.936 155.839 215.379 154.206 215.642 152.981C215.999 151.311 217.632 145.165 219.025 140.01C215.394 145.5 210.144 150.152 202.569 151.413C197.844 152.201 193.849 150.772 190.677 147.17C181.191 136.387 181.877 108.296 185.413 96.5943C189.102 84.3823 196.823 86.4383 206.593 89.0411C209.641 89.8504 213.097 90.7763 216.75 91.3523C229.611 93.3937 228.525 103.586 227.876 109.681C227.84 110.038 227.803 110.388 227.767 110.716C229.378 105.54 231.58 93.226 227.905 83.0992C224.632 74.0952 217.581 68.9187 206.951 67.7231C197.778 66.6951 190.764 68.7146 186.091 73.7306C176.992 83.5002 179.405 101.822 179.879 104.847C179.995 105.015 180.017 105.175 180.017 105.336C180.017 105.686 179.791 105.992 179.463 106.101L178.668 106.364L178.523 105.584C178.202 105.387 177.298 104.935 174.841 104.089C174.345 103.921 174.141 104.016 173.958 104.519C172.624 108.106 176.773 119.801 178.501 120.493C179.427 120.056 179.966 113.749 179.653 107.013L181.111 106.94C181.162 107.99 182.256 130.554 181.826 133.872C181.643 135.279 180.367 137.065 178.763 138.742C178.749 138.808 178.734 138.866 178.719 138.931L178.515 139.814C177.611 143.831 182.649 159.659 187.76 164.493C188.169 164.879 189.416 166.053 188.876 167.27C188.016 169.203 183.298 169.173 174.33 168.415C173.149 168.313 172.106 168.226 171.312 168.182C170.656 168.145 170.065 167.846 169.606 167.314C167.535 164.908 168.009 157.793 168.782 149.43C169.022 146.842 169.292 143.94 169.161 143.036C165.924 142.752 140.609 151.508 132.72 154.526C133.187 154.563 133.69 154.599 134.185 154.636C139.114 155 146.566 155.554 149.234 157.231C152.318 159.178 150.94 164.894 150.036 168.678C149.788 169.713 149.482 170.989 149.497 171.397C149.818 171.754 151.086 172.986 152.428 174.277C162.927 184.426 166.201 188.158 165.902 189.668C165.778 190.28 165.362 190.958 164.837 191.811C163.138 194.574 160.302 199.204 163.292 207.326C167.447 218.597 169.664 226.486 162.978 233.171C160.638 235.512 156.372 239.514 151.83 243.779C156.482 245.215 169.117 244.085 171.363 243.16C173.813 242.153 188.818 242.008 191.122 244.8C192.616 246.615 202.54 262.48 200.615 265.177C199.331 266.971 197.159 268.065 195.854 268.065C195.839 268.065 195.832 268.065 195.817 268.065C195.052 268.05 194.687 267.678 194.541 267.452C194.512 267.408 194.468 267.328 194.425 267.226C193.863 267.904 190.845 269.049 188.788 268.713C187.359 268.48 186.798 267.649 186.579 266.993C186.455 266.614 186.215 266.06 185.901 265.389C186.536 267.503 186.266 267.707 185.989 267.919C185.384 268.371 181.862 269.661 179.835 268.932C179.062 268.655 178.566 268.108 178.391 267.357C178.216 266.621 177.269 264.995 176.014 263.07C176.335 263.851 176.532 264.456 176.532 264.755C176.532 265.834 175.278 267.219 174.075 267.941C172.989 268.582 171.953 268.699 171.159 268.261C169.474 267.343 167.17 264.507 166.456 263.027C166.303 263.136 166.091 263.296 165.938 263.42C165.413 263.851 164.75 264.383 163.955 264.601C162.533 264.995 135.673 262.604 133.792 260.723C133.544 260.475 133.449 260.147 133.537 259.833C133.799 258.871 137.568 255.182 148.505 244.902C144.925 246.207 138.502 251.93 135.439 254.664C132.333 257.435 132.144 257.602 131.539 257.187C131.145 256.917 130.54 256.268 130.926 254.934C131.852 251.741 138.888 245.208 144.043 243.699C143.511 243.524 142.92 243.334 142.359 243.16C137.751 241.694 131.437 239.689 129.381 237.283C126.734 234.177 132.538 224.955 139.814 214.128C141.382 211.788 142.738 209.768 143.343 208.66C145.764 204.22 142.206 175.713 140.15 170.58C137.97 165.127 131.947 156.816 129.468 156.568C125.341 159.345 89.3889 229.373 86.5235 235.606C84.6351 239.726 89.3087 253.556 91.27 258.536L91.6637 259.534L0 259.308V257.85L89.5347 258.069C88.0546 254.117 82.98 239.835 85.2038 234.994C86.4287 232.333 96.6508 212.203 106.705 193.233C126.909 155.102 128.513 155.102 129.366 155.102C129.366 155.102 129.366 155.095 129.366 155.088L129.22 154.614L129.628 154.257C130.183 153.812 140.711 150.013 148.461 147.389C160.849 143.197 167.98 141.257 169.657 141.629C170.123 141.731 170.335 141.986 170.43 142.176C170.502 142.329 170.561 142.526 170.597 142.774C170.699 142.19 171.195 141.213 172.602 139.281C173.718 137.75 175.271 135.84 176.547 134.419C177.276 133.602 178.129 132.771 178.924 133.186C179.558 133.514 179.638 134.265 179.383 135.753C179.93 134.994 180.294 134.273 180.375 133.66C180.571 132.158 180.426 126.231 180.214 120.347C179.981 120.96 179.697 121.412 179.354 121.66C178.938 121.951 178.442 122.01 177.961 121.82C175.037 120.646 171.173 107.815 172.595 103.98C173.054 102.74 174.075 102.252 175.322 102.682C176.627 103.127 177.575 103.491 178.26 103.79C177.553 98.4534 176.248 82.1441 185.034 72.7099C190.035 67.3367 197.472 65.1567 207.126 66.2431C229.006 68.7 231.704 86.832 231.369 97.4181C231.143 104.614 229.021 114.34 227.169 114.427C227.089 114.427 226.367 114.442 226.243 113.494C226.112 112.495 226.265 111.103 226.432 109.499C227.067 103.564 228.022 94.5966 216.531 92.7667C212.805 92.1761 209.313 91.2429 206.229 90.4264C196.167 87.7507 190.094 86.1248 186.82 96.988C183.371 108.42 182.635 135.775 191.785 146.178C194.6 149.379 198.15 150.648 202.343 149.948C211.595 148.402 217.202 141.447 220.563 134.338C220.658 133.996 220.738 133.689 220.811 133.427C221.97 129.176 223.1 125.05 223.953 121.988C224.704 119.283 225.098 117.876 225.375 117.147C225.375 117.125 225.375 117.11 225.375 117.11H225.39C225.681 116.352 225.849 116.367 226.185 116.403L226.833 116.476V117.14C226.833 117.3 225.995 126.012 221.985 134.645C219.761 142.788 217.515 151.187 217.071 153.265C216.728 154.869 215.211 156.575 213.753 158.223C212.579 159.542 210.968 161.358 211.252 162.043C211.311 162.196 211.697 162.699 213.972 162.852C217.669 163.1 221.205 164.099 224.041 164.901C225.754 165.389 227.876 165.98 228.467 165.841C228.459 165.754 228.423 165.586 228.299 165.295C227.796 164.121 226.87 162.152 225.805 159.878C222.364 152.558 219.929 147.265 219.929 145.799C219.929 144.698 220.075 143.124 221.3 142.125C222.379 141.243 223.997 141.038 226.25 141.505C230.88 142.46 251.441 149.379 254.664 154.286L255.232 155.153C258.71 160.424 266.862 172.76 267.963 182.122C268.32 185.133 268.859 188.96 269.384 192.657C270.172 198.227 270.66 201.894 270.915 204.322C271.426 199.262 273.518 179.512 276.07 159.601C281.466 117.599 283.522 117.045 284.513 116.782C284.732 116.724 285.286 116.658 285.746 117.3C289.799 123.001 299.847 153.309 301.327 158.215C302.537 162.225 299.715 186.744 296.719 211.511C296.208 215.754 295.734 219.625 295.472 222.009C296.449 221.047 297.834 219.909 299.526 218.531C306.008 213.224 315.807 205.204 317.542 194.713C319.307 184.003 316.222 168.845 313.962 157.778C312.978 152.93 312.117 148.745 311.943 146.157C311.738 143.175 313.131 139.967 314.473 136.861C317.126 130.744 319.635 124.962 311.709 120.07C305.038 115.951 297.732 116.476 292.402 116.855C288.757 117.118 286.117 117.307 284.732 116.024C284.142 115.477 283.843 114.697 283.843 113.72C283.843 107.764 299.628 92.6136 305.774 88.8151C307.437 87.7871 308.435 87.5028 309.121 87.8382C309.908 88.2318 310.987 89.5733 312.628 91.8553C310.973 88.837 309.762 86.1175 309.369 84.1928C308.713 80.9703 308.574 78.105 308.917 75.947C307.881 75.3127 306.875 74.3285 305.913 73.0088C294.597 57.5088 307.896 37.4447 318.942 28.448C327.976 21.0771 343.411 27.6387 345.686 28.6667C348.332 27.9012 350.986 28.3824 353.567 30.0811C361.981 35.6221 367.158 52.4126 367.566 56.7505C367.902 60.2574 364.92 63.3705 362.047 65.5067C362.987 66.1556 363.986 67.4971 363.986 70.2894C363.986 76.3115 358.219 82.0347 357.06 83.1211C353.531 104.359 332.132 108.711 326.568 108.711C326.342 108.711 326.109 108.682 325.876 108.639C327.538 110.651 328.821 111.978 329.361 112.16C332.671 113.13 344.629 114.661 346.189 112.444C347.261 110.913 350.913 102.58 353.844 95.8871C357.541 87.4517 358.606 85.1114 359.021 84.6886C359.116 84.5427 359.32 83.7554 359.488 83.1211C360.253 80.1975 361.675 74.744 366.436 74.8753C371.576 75.0065 393.275 84.1636 394.033 85.9207C394.667 87.408 393.734 99.1023 388.12 109.069C382.462 119.115 365.014 178.221 363.986 188.749C362.973 199.182 364.256 226.449 365.532 229.737C368.893 229.103 387.442 225.173 390.3 224.109C390.256 223.693 390.183 223.001 390.096 222.199C389.141 213.217 386.239 185.898 387.471 176.26C388.317 169.633 391.08 154.84 392.225 148.781C393.136 143.969 394.091 139.07 394.842 135.33C395.477 132.18 395.797 130.591 396.045 129.796C395.382 126.545 388.762 90.0472 398.801 83.697C399.764 81.5317 407.31 65.4848 422.075 59.8637C430.088 56.8162 438.757 57.4505 447.841 61.752C464.246 69.5166 471.056 81.6192 473.878 90.4045C477.677 102.237 476.058 113.232 474.396 116.221C471.807 120.88 459.237 131.393 455.541 131.4C455.475 131.4 455.41 131.4 455.351 131.393C454.746 131.32 454.301 130.963 454.141 130.409C453.784 129.155 453.711 126.319 453.623 123.038C453.521 119.115 453.346 112.546 452.362 111.701C450.75 110.323 446.303 111.664 442.84 114.573C442.461 114.894 442.052 115.259 441.629 115.652C439.457 117.635 436.489 120.355 432.807 119.968C430 119.669 427.31 117.679 424.583 113.866C422.395 110.804 420.186 107.275 418.043 103.863C413.092 95.9673 407.485 87.0216 404.437 88.5818C399.917 90.9075 397.299 126.377 400.063 133.974C400.828 136.066 401.317 138.377 401.791 140.616C403.125 146.871 404.277 152.281 410.635 151.698C416.533 151.165 427.062 144.246 432.72 140.535C437.189 137.597 437.561 137.357 438.137 137.991C438.625 138.523 438.122 139.157 437.933 139.398C436.97 140.616 435.323 142.074 433.587 143.619C431.509 145.464 428.374 148.242 428.462 149.241C428.462 149.27 428.462 149.299 428.571 149.364C429.285 149.802 430.233 150.217 431.232 150.662C433.959 151.865 436.773 153.112 436.511 155.372C436.38 156.517 435.024 157.435 432.982 158.828C429.57 161.146 424.896 164.318 425.341 169.414C426.201 179.373 427.12 196.535 423.657 199.554C423.125 200.013 421.994 201.165 420.427 202.747C412.428 210.854 393.705 229.854 382.01 231.684C373.618 232.996 355.871 233.244 342.908 233.426C334.691 233.543 327.596 233.638 326.328 233.966C325.606 234.148 324.957 235.074 324.476 236.561C326.926 239.864 327.079 245.587 326.401 248.803C325.985 250.749 325.3 251.682 324.374 251.566L324.213 251.529C322.252 250.822 322.004 244.924 322.15 241.898C322.208 240.695 322.376 238.719 322.865 236.882C322.34 236.335 321.705 235.905 320.925 235.672C311.629 232.843 284.893 225.027 280.27 224.554C280.809 226.631 283.23 232.282 284.929 235.016C285.913 236.612 287.423 240.564 288.873 244.392C289.799 246.834 290.937 249.823 291.396 250.603C292.096 250.632 294.262 250.647 296.536 250.662C302.552 250.705 311.651 250.771 314.647 251.157C315.566 251.274 316.886 251.631 318.709 252.127C325.971 254.088 341.078 258.178 365.955 256.458C390.446 254.766 408.819 251.318 417.445 246.856C419.041 239.077 421.28 230.532 423.511 222.716C429.512 201.726 437.554 179.184 439.406 177.025C439.792 176.581 440.186 176.603 440.383 176.654C440.587 176.705 440.937 176.887 441.053 177.477C441.542 180.066 437.729 197.301 433.857 211.773C430.729 223.46 424.889 243.509 420.901 246.455C420.266 246.921 419.537 247.388 418.728 247.833C416.11 260.759 415.833 268.837 418.086 270.835C424.634 276.638 442.045 279.744 451.181 278.118C453.776 277.659 455.519 276.821 456.088 275.771C457.524 273.095 465.5 252.324 473.863 229.468C484.508 200.385 489.196 186.008 489.124 184.659C488.846 183.573 483.356 175.079 476.131 166.498C467.462 156.21 460.491 150.757 456.518 151.151C450.218 151.77 446.624 149.036 445.946 146.237C445.384 143.926 446.616 140.732 451.735 138.713C462.19 134.593 467.804 135.439 470.67 136.875C475.445 139.26 499.79 152.747 510.304 183.871C520.41 213.771 534.853 272.198 536.414 278.541L619.007 278.556V280.014L535.269 279.999L535.13 279.445C534.977 278.811 519.535 215.768 508.919 184.345C498.587 153.761 474.694 140.528 470.014 138.188C467.885 137.123 462.744 135.95 452.26 140.076C448.709 141.476 446.828 143.707 447.353 145.901C447.9 148.183 451.166 150.225 456.365 149.707C456.532 149.693 456.707 149.685 456.882 149.685C467.731 149.685 489.772 181.291 490.538 184.367C491.355 187.641 460.36 270.893 457.363 276.471C456.561 277.965 454.564 279.008 451.429 279.569C449.679 279.883 447.652 280.029 445.479 280.029V279.999ZM207.06 268.509L296.777 273.438L270.164 212.466L271.491 211.86L276.77 223.125C274.087 216.687 271.944 211.044 271.149 207.756C271.127 208.762 270.93 209.068 270.624 209.25C270.369 209.404 270.055 209.396 269.793 209.25C266.789 208.587 211.406 208.58 173.893 208.747L207.067 268.517L207.06 268.509ZM295.1 262.225L300.335 273.394L335.383 265.287L295.1 262.225ZM171.8 254.591C172.559 255.597 179.215 264.529 179.806 267.044C179.85 267.226 179.937 267.423 180.294 267.562C181.483 268.028 183.911 267.306 184.815 266.913C184.487 265.382 182.205 259.534 179.995 254.307L181.301 253.665C181.534 254.081 187.075 263.931 187.95 266.548C188.023 266.767 188.191 267.088 188.767 267.241C190.145 267.613 192.419 266.825 193.134 266.41C192.944 264.879 190.925 257.865 188.993 251.66L190.378 251.216C192.186 256.691 195.19 265.586 195.715 266.621C196.233 266.781 198.252 265.972 199.412 264.354C200.206 262.648 192.441 248.737 189.984 245.748C188.366 243.786 174.403 243.495 171.91 244.523C169.533 245.5 155.322 246.936 150.634 244.909C144.495 250.669 136.81 257.901 135.192 259.892C138.779 261.197 161.585 263.603 163.569 263.209C164.057 263.078 164.56 262.669 165.005 262.305C165.603 261.816 166.172 261.357 166.842 261.518C167.105 261.583 167.469 261.773 167.717 262.327C168.249 263.53 170.451 266.242 171.844 267C172.165 267.175 172.704 267.073 173.309 266.708C174.396 266.067 175.059 265.046 175.067 264.776C175.001 264.047 172.726 259.425 170.568 255.371L171.793 254.591H171.8ZM145.37 244.909C140.835 245.551 133.194 252.382 132.326 255.357C132.312 255.408 132.297 255.459 132.29 255.51C132.829 255.058 133.66 254.322 134.47 253.6C138.312 250.173 142.184 246.841 145.37 244.917V244.909ZM323.987 238.508C323.944 238.741 323.907 238.982 323.871 239.23C323.164 243.991 323.82 248.766 324.52 249.918C325.066 248.934 325.664 245.339 325.001 241.716C324.811 240.688 324.505 239.543 323.987 238.515V238.508ZM439.478 179.913C436.854 185.752 430.569 203.279 424.904 223.103C422.439 231.735 420.5 239.368 419.122 245.879C419.443 245.675 419.741 245.471 420.026 245.259C425.757 241.023 437.933 191.293 439.478 179.905V179.913ZM131.429 155.882C135.199 158.361 139.982 166.235 141.506 170.056C143.358 174.692 147.411 204.256 144.619 209.367C143.985 210.534 142.672 212.48 141.017 214.952C136.905 221.083 128.345 233.835 130.489 236.35C132.268 238.442 138.859 240.535 142.796 241.789C146.449 242.948 147.229 243.196 147.229 243.91C148.396 243.386 149.431 243.138 150.277 243.247C150.372 243.16 150.466 243.072 150.561 242.977C155.198 238.625 159.58 234.513 161.95 232.143C168.038 226.055 166.004 218.896 161.928 207.829C158.691 199.043 161.884 193.838 163.598 191.045C164.028 190.338 164.407 189.733 164.473 189.376C164.32 187.787 154.943 178.731 151.414 175.319C149.242 173.22 148.461 172.454 148.257 172.17C147.856 171.608 148.039 170.748 148.622 168.328C149.387 165.156 150.663 159.841 148.461 158.456C146.099 156.969 138.575 156.415 134.083 156.079C132.931 155.992 132.071 155.933 131.422 155.868L131.429 155.882ZM279.767 223.081C281.123 223.081 285.199 223.868 299.351 227.849C309.186 230.612 319.35 233.66 321.341 234.265C322.106 234.498 322.777 234.87 323.353 235.351C323.922 233.959 324.753 232.843 325.963 232.537C327.334 232.187 332.999 232.092 342.886 231.954C355.806 231.771 373.494 231.524 381.784 230.233C393.005 228.483 411.495 209.724 419.384 201.719C420.974 200.108 422.118 198.941 422.694 198.446C424.801 196.608 425.261 185.534 423.883 169.538C423.372 163.589 428.658 159.994 432.158 157.618C433.427 156.757 435.002 155.686 435.06 155.197C435.199 154.009 432.669 152.886 430.642 151.989C429.592 151.523 428.6 151.085 427.813 150.604C427.208 150.232 427.047 149.729 427.011 149.364C426.865 147.753 429.038 145.705 432.625 142.526C432.887 142.292 433.157 142.059 433.42 141.819C427.244 145.872 417 152.58 410.773 153.141C403.118 153.826 401.725 147.265 400.376 140.907C399.91 138.72 399.428 136.46 398.699 134.462C397.103 130.066 397.248 118.189 398.065 109.018C398.59 103.09 400.201 89.114 403.781 87.2768C408.003 85.0968 413.238 93.4374 419.289 103.083C421.418 106.473 423.62 109.987 425.778 113.013C428.214 116.418 430.627 118.27 432.967 118.517C436.015 118.846 438.582 116.476 440.66 114.573C441.104 114.165 441.527 113.786 441.921 113.45C445.501 110.439 450.882 108.493 453.324 110.585C454.695 111.759 454.914 116.265 455.096 122.994C455.176 125.998 455.249 128.834 455.548 129.949C457.611 130.438 470.4 120.457 473.141 115.514C474.498 113.064 476.247 102.492 472.507 90.8492C469.773 82.341 463.175 70.6175 447.236 63.0716C438.523 58.9451 430.241 58.3253 422.607 61.227C407.667 66.9065 400.136 84.3094 400.063 84.4844L399.968 84.7104L399.757 84.8344C391.066 89.8504 396.337 124.212 397.365 129.06H397.533V130.394L397.365 130.43C396.417 134.491 390.256 166.053 388.929 176.457C388.127 182.741 389.009 198.081 391.554 222.053C391.758 223.992 391.802 224.386 391.802 224.517C391.802 225.275 391.802 225.56 378.977 228.403C372.823 229.766 366.312 231.108 365.394 231.261C365.124 231.305 364.839 231.217 364.621 231.013C362.463 228.994 361.719 197.06 362.535 188.618C363.564 178.017 381.142 118.481 386.851 108.362C392.363 98.5774 392.961 88.0642 392.706 86.5769C390.898 85.1114 371.606 76.4719 366.4 76.3407C366.363 76.3407 366.327 76.3407 366.29 76.3407C362.769 76.3407 361.602 80.8172 360.902 83.5002C360.56 84.7979 360.399 85.3885 360.056 85.7311C359.67 86.2488 357.286 91.6876 355.186 96.4849C352.073 103.593 348.537 111.642 347.385 113.297C344.869 116.892 330.229 113.953 328.953 113.582C327.874 113.261 325.271 110.425 322.303 106.546C319.285 103.87 316.004 99.1971 313.189 95.1799C311.25 92.4094 309.238 89.5515 308.487 89.1723C308.173 89.1432 306.029 89.9743 300.882 94.4435C293.394 100.947 285.315 110.177 285.315 113.742C285.315 114.5 285.556 114.814 285.738 114.981C286.657 115.834 289.274 115.645 292.308 115.426C297.834 115.025 305.41 114.478 312.489 118.853C321.487 124.408 318.475 131.349 315.821 137.466C314.487 140.55 313.226 143.459 313.408 146.084C313.583 148.577 314.421 152.718 315.398 157.515C317.681 168.692 320.801 184.01 318.986 194.982C317.163 206.013 307.108 214.245 300.459 219.691C297.944 221.747 295.574 223.693 295.319 224.583C295.107 225.348 294.524 225.268 294.415 225.246C293.914 225.144 293.829 223.654 294.16 220.777C294.422 218.473 294.816 215.207 295.282 211.365C297.338 194.363 301.166 162.721 299.941 158.667C297.944 152.047 288.64 124.401 284.754 118.459C281.145 123.913 273.642 191.089 272.272 205.539C272.082 207.508 274.882 214.952 278.702 224C278.702 223.985 278.702 223.97 278.702 223.963C278.702 223.708 278.826 223.467 279.03 223.314C279.154 223.219 279.293 223.125 279.774 223.125L279.767 223.081ZM170.641 143.393C170.685 144.589 170.517 146.55 170.233 149.576C169.693 155.416 168.869 164.238 170.707 166.374C170.911 166.607 171.122 166.724 171.385 166.738C172.187 166.782 173.244 166.869 174.447 166.972C182.737 167.671 187.141 167.569 187.534 166.68C187.564 166.622 187.505 166.264 186.754 165.557C181.898 160.971 176.656 146.193 176.962 140.463C174.848 142.336 172.646 143.802 171.764 143.962C171.078 144.086 170.772 143.649 170.699 143.517C170.677 143.481 170.656 143.444 170.641 143.401V143.393ZM178.027 134.994C177.917 135.104 177.779 135.242 177.626 135.417C175.613 137.656 173.455 140.477 172.515 142.023C173.747 141.25 175.745 139.697 177.422 138.027C177.67 136.927 177.925 135.745 178.02 134.994H178.027ZM323.586 105.737C324.702 106.685 325.723 107.261 326.576 107.261C331.898 107.261 352.423 103.083 355.667 82.6545L355.711 82.3993L355.901 82.2243C355.966 82.166 362.535 76.2022 362.535 70.2967C362.535 68.2043 361.879 66.8263 360.727 66.4472C358.861 67.6866 357.293 68.4376 357.125 68.5178L355.551 69.2614L356.127 67.6137C356.724 65.9077 358.606 64.7339 360.399 64.9016C363.199 62.9768 366.422 60.0387 366.123 56.8891C365.685 52.2813 360.414 36.3365 352.773 31.2987C350.483 29.7895 348.157 29.3958 345.861 30.1394L345.584 30.2269L345.321 30.103C345.153 30.0228 328.712 22.3675 319.868 29.5781C312.737 35.3888 295.085 55.6934 307.094 72.1485C307.823 73.1474 308.545 73.9056 309.281 74.4378C309.566 73.5629 309.974 72.8776 310.484 72.4183C311.199 71.7767 312.103 71.5872 313.036 71.8788C313.138 71.9079 313.328 71.8569 313.554 71.7257C316.39 70.0998 321.662 59.7543 323.287 52.6313C324.031 49.3869 325.584 47.156 327.917 45.9967C330.754 44.5896 334.151 45.1802 336.193 46.1061C338.037 46.9445 339.08 51.319 340.618 58.3837C341.632 63.0279 342.886 68.8094 344.22 69.8374C345.642 70.9383 349.324 68.6417 351.526 67.271C353.553 66.0098 354.391 65.4848 355.062 66.0462C355.616 66.5128 355.303 67.2783 355.201 67.5335C353.917 70.6612 349.74 74.343 341.858 75.2908C340.808 75.4148 339.875 75.1669 339.095 74.5326C336.688 72.5933 336.2 67.4242 335.69 61.9488C335.245 57.2317 334.786 52.3542 333.058 50.393C332.904 50.2181 332.824 50.2327 332.78 50.2327C331.534 50.3858 329.033 55.1247 326.831 59.3096C322.828 66.9065 317.856 76.3699 312.256 76.7781C311.593 76.8292 310.944 76.749 310.302 76.5448C310.083 78.3311 310.185 80.7953 310.812 83.8647C311.797 88.7057 318.468 98.9565 323.594 105.693L323.586 105.737ZM310.579 75.145C311.097 75.3273 311.614 75.4002 312.147 75.3564C316.937 75.0065 321.705 65.9441 325.533 58.668C328.763 52.5292 330.681 49.0516 332.598 48.8183C332.999 48.7672 333.597 48.8401 334.144 49.4598C336.193 51.771 336.652 56.6631 337.141 61.8468C337.6 66.7753 338.081 71.8715 340.013 73.4317C340.48 73.8108 341.034 73.9566 341.683 73.8764C348.194 73.0963 351.949 70.304 353.429 67.8543C353.064 68.0657 352.663 68.3209 352.299 68.5469C349.455 70.3186 345.555 72.7464 343.331 71.0258C341.69 69.7645 340.677 65.5359 339.197 58.7263C338.212 54.2207 336.871 48.0454 335.595 47.4622C333.838 46.6675 330.943 46.1498 328.566 47.3309C326.641 48.286 325.344 50.1816 324.709 52.9812C323.098 60.0387 317.754 71.0258 314.283 73.0161C313.678 73.3661 313.116 73.4536 312.606 73.2932C312.161 73.1547 311.797 73.2276 311.469 73.5192C311.119 73.8327 310.812 74.3868 310.594 75.1523L310.579 75.145Z" fill="#4D4C4C"/>
</g>
<defs>
<clipPath id="clip0_554_942">
<rect width="619" height="280" fill="white"/>
</clipPath>
</defs>
</svg>
