<svg width="309" height="158" viewBox="0 0 309 158" fill="none" xmlns="http://www.w3.org/2000/svg">
<path fill-rule="evenodd" clip-rule="evenodd" d="M128.599 -164.981C78.3138 -165.728 27.5459 -143.821 1.9593 -107.554L2.77295 -106.981C28.1287 -142.92 78.549 -164.729 128.585 -163.986C178.618 -163.243 226.82 -141.063 257.107 -107.815C274.816 -88.3708 286.523 -65.4575 292.205 -41.4677C276.739 -57.3541 257.247 -70.1264 234.196 -76.9021C218.678 -81.4653 202.211 -82.8542 185.975 -81.5107C180.667 -100.88 166.889 -119.679 144.705 -126.509C117.165 -134.987 86.6702 -122.561 64.4426 -106.786C23.4683 -77.7033 -4.36136 -33.2754 0.564124 11.6021C5.69173 58.3111 46.0979 99.255 96.8009 119.051C108.501 123.62 120.879 127.205 133.544 129.395C159.218 145.192 190.373 155.049 222.181 157.442C247.893 159.375 274.983 156.532 296.932 145.05C315.265 135.456 328.76 120.546 339.214 104.785C351.099 86.8732 359.699 67.1411 361.59 46.6714C364.224 18.1946 353.961 -8.81769 336.75 -33.4529C319.539 -58.0868 295.359 -80.3766 270.095 -99.4299L269.495 -98.6354C294.715 -79.6161 318.805 -57.399 335.933 -32.8831C353.06 -8.36853 363.205 18.412 360.598 46.5798C358.727 66.8359 350.211 86.4115 338.384 104.235C327.985 119.914 314.604 134.679 296.471 144.168C274.747 155.533 247.865 158.374 222.256 156.45C191.45 154.132 161.293 144.784 136.187 129.831C149.642 131.944 163.387 132.46 176.959 130.893C190.688 129.306 203.908 125.582 216.145 120.194C224.452 122.915 233.195 124.669 242.085 125.273C258.379 126.379 275.22 124.061 289.58 117.463C312.603 106.886 327.275 86.0224 331.469 64.3586C335.668 42.6976 330.364 20.4022 320.834 0.0455814C314.152 -14.2207 304.991 -27.9989 293.55 -40.0674C287.981 -64.8085 276.069 -88.4727 257.843 -108.485C227.365 -141.943 178.899 -164.235 128.599 -164.981ZM233.915 -75.9473C257.356 -69.0568 277.1 -55.9105 292.639 -39.5818C296.306 -23.1479 297.158 -6.24032 295.187 10.3769C291.893 38.1392 280.79 65.605 260.401 87.6824C248.498 100.576 233.28 111.505 216.093 119.129C204.724 115.36 194.193 109.761 185.265 102.817C169.788 90.7793 159.164 74.7265 157.288 57.1803C155.418 39.653 163.411 21.9402 177.203 8.62055C180.412 5.52181 183.932 2.66308 187.712 0.10191C189.363 16.5251 194.456 32.7638 206.868 45.3926C214.918 53.5839 226.813 59.4438 239.162 61.6168C251.509 63.7896 264.374 62.2861 274.334 55.6627C290.443 44.9477 293.411 23.792 283.179 8.88376C272.979 -5.99304 252.077 -14.3532 231.695 -14.4609C215.853 -14.5463 200.906 -9.65098 188.549 -1.64612C188.18 -5.90341 188.035 -10.1727 188.046 -14.3956C188.064 -20.5921 188.36 -26.783 188.657 -32.9856C188.862 -37.2873 189.068 -41.5949 189.182 -45.9137C189.459 -56.428 189.183 -66.9326 186.991 -77.3181C186.765 -78.3899 186.513 -79.4625 186.235 -80.534C202.291 -81.8426 218.571 -80.4593 233.915 -75.9473ZM188.651 -0.524556C188.337 -0.317765 188.024 -0.108943 187.712 0.10191C187.675 -0.273642 187.639 -0.649287 187.605 -1.02499C187.918 -1.23405 188.232 -1.4411 188.549 -1.64612C188.581 -1.27216 188.615 -0.898282 188.651 -0.524556ZM188.651 -0.524556C200.94 -8.60006 215.866 -13.551 231.689 -13.4657C251.865 -13.3591 272.401 -5.07565 282.358 9.44639C292.296 23.9268 289.4 44.4463 273.783 54.8341C264.093 61.2772 251.508 62.7789 239.334 60.6366C227.161 58.4944 215.463 52.7187 207.578 44.6952C195.246 32.1483 190.232 15.9411 188.651 -0.524556ZM187.605 -1.02499C183.605 1.64572 179.888 4.64416 176.511 7.90477C162.554 21.3834 154.388 39.3835 156.298 57.2859C158.21 75.1694 169.025 91.4468 184.653 103.603C193.397 110.404 203.659 115.924 214.737 119.722C202.872 124.834 190.097 128.373 176.844 129.905C162.552 131.555 148.054 130.878 133.904 128.447C116.973 118.004 102.461 104.967 91.7695 89.7896C64.9503 51.7261 64.6643 0.771828 94.4176 -35.7006C114.846 -60.7419 149.417 -77.277 185.229 -80.4484C185.52 -79.3375 185.782 -78.225 186.017 -77.113C188.185 -66.8397 188.463 -56.4251 188.187 -45.9399C188.074 -41.6718 187.869 -37.3789 187.664 -33.0793L187.664 -33.0783L187.664 -33.0764C187.367 -26.8464 187.068 -20.6021 187.05 -14.3984C187.039 -9.97887 187.197 -5.49796 187.605 -1.02499ZM242.152 124.28C233.72 123.707 225.42 122.089 217.506 119.586C234.405 111.93 249.372 101.096 261.133 88.3574C281.681 66.1069 292.861 38.4376 296.176 10.4941C298.095 -5.686 297.356 -22.1394 293.964 -38.1701C304.797 -26.4789 313.514 -13.2358 319.932 0.467604C329.411 20.7144 334.637 42.7881 330.492 64.1693C326.355 85.5374 311.878 106.124 289.164 116.559C274.986 123.073 258.317 125.378 242.152 124.28ZM90.9555 90.3626C101.285 105.027 115.141 117.695 131.276 127.975C119.534 125.772 108.057 122.378 97.1632 118.124C46.6657 98.4082 6.62689 57.7058 1.55382 11.4935C-3.31823 -32.8972 24.2167 -77.0139 65.019 -105.974C87.1612 -121.689 117.32 -133.898 144.412 -125.558C166.126 -118.873 179.692 -100.485 184.967 -81.4237C148.963 -78.1918 114.221 -61.551 93.646 -36.3296C63.5878 0.516572 63.9005 51.9645 90.9555 90.3626Z" fill="#C3D8F5"/>
</svg>
