<svg width="592" height="364" viewBox="0 0 592 364" fill="none" xmlns="http://www.w3.org/2000/svg">
<path d="M324.553 196.585C292.669 197.061 300.759 156.187 284.579 179C253.313 210.226 321.222 165.692 298.856 224.626C299.228 232.418 300.76 234.607 303.614 252.668C305.518 283.085 299.331 275.956 279.344 300.195C291.717 303.047 320.159 304.948 328.361 304.948C336.299 304.948 343.377 306.893 345.492 303.047C346.444 293.541 342.156 276.011 346.444 257.895C346.444 200.679 393.081 169.97 361.197 163.791C338.354 151.434 344.064 199.437 324.553 196.585Z" fill="#E5EEF9"/>
<path d="M423.993 352C414.68 352 402.397 349.103 396.992 344.314C394.209 341.847 394.861 332.949 396.957 322.214C388.199 326.344 371.288 329.421 348.388 331.001C324.474 332.651 309.943 328.728 302.962 326.843C301.283 326.386 300.061 326.06 299.284 325.956C296.515 325.603 287.91 325.54 282.213 325.499C279.146 325.478 277.8 325.464 277.217 325.436C278.709 328.638 280.055 331.486 281.131 333.739L328.367 337.322L285.065 347.322L279.09 334.591L284.635 347.273L283.511 347.211L196.234 342.422L163.146 282.892H164.319C164.548 282.892 187.469 282.781 210.244 282.802C246.1 282.83 254.539 283.1 256.697 283.363C256.752 281.437 255.802 274.7 255.018 269.184C254.518 265.663 254.004 262.018 253.664 259.142C252.651 250.57 245.025 239.038 241.77 234.11L241.222 233.286C238.64 229.356 220.32 222.814 215.06 221.733C213.381 221.387 212.18 221.49 211.507 222.038C210.966 222.481 210.709 223.251 210.709 224.457C210.709 225.662 214.13 232.904 216.171 237.25C217.191 239.426 218.079 241.304 218.565 242.44C218.703 242.766 219.127 243.75 218.53 244.422C217.739 245.323 216.004 244.831 212.853 243.944C210.21 243.196 206.927 242.267 203.555 242.045C201.369 241.9 200.168 241.38 199.773 240.417C199.176 238.968 200.668 237.291 202.403 235.344C203.617 233.979 204.991 232.426 205.241 231.262C205.581 229.675 207.135 223.833 208.461 218.933C205.005 224.152 200.009 228.573 192.798 229.772C188.302 230.52 184.499 229.162 181.48 225.739C172.452 215.489 173.104 188.787 176.47 177.664C179.981 166.056 187.33 168.01 196.629 170.484C199.53 171.254 202.819 172.134 206.296 172.681C218.537 174.622 217.503 184.31 216.885 190.104C216.851 190.443 216.816 190.776 216.781 191.088C218.315 186.167 220.411 174.462 216.913 164.836C213.797 156.277 207.087 151.357 196.969 150.22C188.239 149.243 181.564 151.163 177.115 155.931C168.455 165.217 170.752 182.633 171.203 185.509C171.314 185.668 171.335 185.821 171.335 185.973C171.335 186.306 171.12 186.597 170.807 186.701L170.051 186.95L169.912 186.209C169.607 186.022 168.746 185.592 166.408 184.788C165.936 184.629 165.742 184.719 165.568 185.197C164.298 188.607 168.247 199.723 169.891 200.381C170.773 199.965 171.286 193.971 170.988 187.567L172.376 187.498C172.424 188.496 173.465 209.945 173.056 213.098C172.882 214.436 171.668 216.133 170.141 217.727C170.127 217.79 170.113 217.845 170.1 217.908L169.905 218.746C169.045 222.565 173.84 237.61 178.704 242.205C179.093 242.572 180.28 243.688 179.766 244.845C178.947 246.682 174.458 246.654 165.922 245.933C164.798 245.836 163.806 245.753 163.049 245.711C162.425 245.677 161.862 245.393 161.425 244.887C159.454 242.6 159.906 235.836 160.641 227.887C160.87 225.427 161.127 222.669 161.002 221.809C157.921 221.539 133.827 229.862 126.319 232.731C126.763 232.766 127.242 232.801 127.713 232.835C132.405 233.182 139.497 233.708 142.036 235.302C144.972 237.153 143.66 242.586 142.8 246.183C142.564 247.167 142.272 248.38 142.286 248.768C142.592 249.107 143.799 250.278 145.076 251.505C155.069 261.152 158.185 264.7 157.9 266.135C157.782 266.717 157.387 267.361 156.887 268.172C155.27 270.799 152.571 275.199 155.416 282.92C159.371 293.634 161.481 301.132 155.117 307.487C152.89 309.712 148.83 313.516 144.507 317.571C148.934 318.936 160.96 317.862 163.098 316.981C165.429 316.025 179.711 315.886 181.904 318.541C183.326 320.266 192.771 335.346 190.939 337.911C189.717 339.615 187.649 340.655 186.407 340.655C186.393 340.655 186.386 340.655 186.373 340.655C185.644 340.641 185.297 340.288 185.158 340.073C185.13 340.031 185.089 339.955 185.047 339.858C184.513 340.502 181.64 341.591 179.683 341.272C178.323 341.05 177.788 340.26 177.58 339.636C177.462 339.276 177.233 338.749 176.935 338.112C177.539 340.121 177.282 340.315 177.018 340.516C176.442 340.946 173.09 342.173 171.161 341.48C170.426 341.216 169.954 340.697 169.787 339.983C169.621 339.283 168.719 337.737 167.525 335.908C167.83 336.649 168.018 337.225 168.018 337.509C168.018 338.534 166.824 339.851 165.679 340.537C164.645 341.147 163.66 341.258 162.903 340.842C161.3 339.969 159.107 337.273 158.427 335.866C158.282 335.97 158.08 336.123 157.935 336.24C157.435 336.649 156.804 337.155 156.047 337.363C154.694 337.737 129.129 335.464 127.339 333.676C127.103 333.441 127.013 333.129 127.096 332.831C127.346 331.916 130.933 328.409 141.343 318.638C137.935 319.878 131.822 325.318 128.907 327.917C125.951 330.551 125.77 330.71 125.194 330.315C124.82 330.059 124.244 329.442 124.612 328.174C125.493 325.138 132.189 318.929 137.096 317.494C136.589 317.328 136.027 317.148 135.493 316.981C131.107 315.589 125.097 313.683 123.14 311.396C120.621 308.443 126.145 299.677 133.071 289.385C134.563 287.161 135.853 285.241 136.429 284.188C138.733 279.967 135.347 252.87 133.39 247.991C131.315 242.808 125.583 234.907 123.224 234.672C119.296 237.312 85.0775 303.876 82.3503 309.802C80.553 313.717 85.0012 326.864 86.8679 331.597L87.2427 332.547L0 332.332V330.946L85.2163 331.154C83.8076 327.398 78.9778 313.821 81.0943 309.22C82.2601 306.69 91.9892 287.556 101.559 269.524C120.788 233.279 122.315 233.279 123.126 233.279C123.126 233.279 123.126 233.272 123.126 233.265L122.988 232.814L123.376 232.475C123.904 232.052 133.924 228.441 141.301 225.947C153.091 221.962 159.878 220.118 161.474 220.472C161.918 220.569 162.119 220.811 162.209 220.991C162.279 221.137 162.334 221.324 162.369 221.56C162.466 221.005 162.938 220.077 164.277 218.24C165.339 216.785 166.817 214.969 168.032 213.618C168.726 212.842 169.537 212.052 170.294 212.447C170.898 212.758 170.974 213.472 170.731 214.886C171.252 214.165 171.598 213.479 171.675 212.897C171.862 211.469 171.723 205.835 171.522 200.243C171.3 200.825 171.029 201.254 170.703 201.49C170.308 201.767 169.836 201.823 169.378 201.642C166.595 200.527 162.917 188.33 164.27 184.684C164.708 183.506 165.679 183.042 166.866 183.451C168.108 183.873 169.01 184.22 169.662 184.504C168.989 179.431 167.747 163.928 176.109 154.961C180.87 149.853 187.948 147.781 197.136 148.814C217.961 151.149 220.528 168.384 220.209 178.447C219.994 185.287 217.975 194.532 216.212 194.615C216.136 194.615 215.449 194.629 215.331 193.728C215.206 192.779 215.352 191.455 215.511 189.93C216.115 184.289 217.024 175.765 206.088 174.026C202.541 173.464 199.217 172.577 196.282 171.801C186.706 169.258 180.925 167.712 177.809 178.038C174.527 188.905 173.826 214.907 182.535 224.796C185.214 227.839 188.593 229.044 192.583 228.379C201.39 226.91 206.726 220.298 209.925 213.542C210.015 213.216 210.092 212.925 210.161 212.675C211.264 208.635 212.34 204.712 213.152 201.802C213.867 199.231 214.241 197.893 214.505 197.2C214.505 197.179 214.505 197.166 214.505 197.166H214.519C214.797 196.445 214.956 196.459 215.275 196.493L215.893 196.563V197.193C215.893 197.346 215.095 205.627 211.278 213.833C209.162 221.574 207.024 229.557 206.601 231.532C206.275 233.057 204.831 234.679 203.444 236.245C202.326 237.499 200.793 239.225 201.063 239.876C201.119 240.022 201.487 240.5 203.652 240.645C207.17 240.881 210.536 241.831 213.235 242.593C214.866 243.057 216.885 243.619 217.447 243.487C217.44 243.404 217.406 243.244 217.288 242.967C216.809 241.851 215.928 239.98 214.914 237.818C211.639 230.86 209.321 225.829 209.321 224.436C209.321 223.389 209.46 221.892 210.626 220.943C211.653 220.104 213.193 219.91 215.338 220.354C219.744 221.262 239.314 227.839 242.381 232.503L242.922 233.327C246.232 238.338 253.99 250.064 255.038 258.962C255.378 261.824 255.892 265.462 256.392 268.976C257.141 274.271 257.606 277.757 257.849 280.064C258.335 275.255 260.326 256.481 262.755 237.555C267.89 197.63 269.847 197.103 270.791 196.854C270.999 196.798 271.526 196.736 271.964 197.346C275.822 202.765 285.385 231.574 286.793 236.238C287.945 240.049 285.26 263.356 282.407 286.898C281.922 290.931 281.471 294.611 281.221 296.877C282.151 295.962 283.469 294.881 285.079 293.571C291.248 288.526 300.575 280.903 302.227 270.93C303.906 260.75 300.97 246.342 298.819 235.822C297.882 231.214 297.064 227.236 296.897 224.775C296.703 221.941 298.028 218.892 299.305 215.939C301.831 210.125 304.218 204.629 296.675 199.979C290.325 196.064 283.372 196.563 278.299 196.923C274.83 197.172 272.318 197.353 270.999 196.133C270.437 195.613 270.152 194.872 270.152 193.943C270.152 188.281 285.176 173.88 291.026 170.269C292.608 169.292 293.559 169.022 294.211 169.341C294.961 169.715 295.988 170.99 297.549 173.159C295.974 170.29 294.822 167.705 294.447 165.876C293.823 162.813 293.691 160.089 294.017 158.038C293.032 157.435 292.074 156.499 291.158 155.245C280.388 140.511 293.046 121.439 303.559 112.888C312.157 105.881 326.848 112.118 329.013 113.095C331.532 112.368 334.058 112.825 336.514 114.44C344.522 119.707 349.449 135.667 349.838 139.791C350.157 143.124 347.319 146.083 344.585 148.114C345.48 148.73 346.431 150.006 346.431 152.66C346.431 158.384 340.942 163.824 339.838 164.857C336.48 185.045 316.112 189.182 310.818 189.182C310.602 189.182 310.38 189.154 310.158 189.113C311.741 191.025 312.962 192.287 313.475 192.46C316.626 193.382 328.007 194.837 329.492 192.73C330.512 191.275 333.988 183.354 336.778 176.992C340.296 168.974 341.309 166.749 341.705 166.347C341.795 166.208 341.99 165.46 342.149 164.857C342.878 162.078 344.231 156.894 348.762 157.019C353.655 157.144 374.306 165.848 375.028 167.518C375.632 168.932 374.744 180.048 369.4 189.522C364.015 199.071 347.409 255.254 346.431 265.262C345.466 275.179 346.688 301.097 347.902 304.223C351.101 303.62 368.755 299.885 371.475 298.873C371.434 298.478 371.364 297.82 371.281 297.057C370.372 288.519 367.61 262.552 368.783 253.39C369.588 247.091 372.218 233.029 373.307 227.27C374.175 222.696 375.084 218.039 375.798 214.484C376.402 211.49 376.708 209.979 376.943 209.224C376.312 206.133 370.011 171.441 379.567 165.404C380.483 163.346 387.665 148.093 401.717 142.75C409.344 139.853 417.595 140.456 426.241 144.545C441.855 151.925 448.336 163.429 451.022 171.78C454.637 183.028 453.097 193.479 451.515 196.32C449.051 200.748 437.088 210.742 433.569 210.749C433.507 210.749 433.444 210.749 433.389 210.742C432.813 210.672 432.39 210.333 432.237 209.806C431.897 208.614 431.828 205.918 431.744 202.8C431.647 199.071 431.481 192.827 430.544 192.023C429.01 190.714 424.777 191.989 421.481 194.754C421.12 195.059 420.731 195.405 420.329 195.779C418.261 197.664 415.437 200.249 411.932 199.882C409.26 199.598 406.7 197.706 404.104 194.082C402.023 191.171 399.92 187.817 397.88 184.573C393.168 177.068 387.831 168.565 384.931 170.048C380.628 172.258 378.137 205.974 380.767 213.195C381.496 215.184 381.961 217.381 382.412 219.508C383.682 225.455 384.778 230.597 390.829 230.042C396.443 229.536 406.464 222.96 411.849 219.432C416.103 216.639 416.457 216.411 417.005 217.014C417.47 217.519 416.991 218.122 416.811 218.351C415.895 219.508 414.326 220.894 412.675 222.364C410.697 224.117 407.713 226.757 407.796 227.707C407.796 227.735 407.796 227.762 407.9 227.825C408.58 228.24 409.483 228.635 410.433 229.058C413.029 230.202 415.707 231.387 415.457 233.535C415.332 234.623 414.042 235.496 412.099 236.82C408.851 239.024 404.403 242.038 404.826 246.883C405.645 256.349 406.519 272.663 403.223 275.532C402.717 275.969 401.641 277.064 400.149 278.567C392.536 286.274 374.716 304.334 363.585 306.073C355.598 307.321 338.707 307.556 326.369 307.73C318.548 307.841 311.796 307.931 310.589 308.242C309.902 308.416 309.284 309.296 308.826 310.71C311.158 313.849 311.303 319.289 310.658 322.345C310.262 324.196 309.61 325.083 308.729 324.972L308.576 324.937C306.709 324.265 306.473 318.659 306.612 315.783C306.668 314.639 306.827 312.761 307.292 311.015C306.793 310.495 306.189 310.086 305.446 309.864C296.599 307.175 271.152 299.746 266.752 299.296C267.266 301.271 269.57 306.642 271.186 309.24C272.123 310.758 273.56 314.514 274.941 318.153C275.822 320.474 276.905 323.316 277.342 324.057C278.008 324.085 280.069 324.099 282.234 324.113C287.959 324.154 296.619 324.217 299.472 324.584C300.346 324.695 301.602 325.034 303.337 325.506C310.249 327.37 324.627 331.258 348.304 329.622C371.614 328.014 389.101 324.736 397.311 320.495C398.83 313.101 400.961 304.978 403.084 297.549C408.796 277.597 416.45 256.169 418.212 254.118C418.58 253.695 418.955 253.716 419.142 253.764C419.337 253.813 419.67 253.986 419.781 254.547C420.246 257.008 416.616 273.391 412.931 287.147C409.954 298.256 404.396 317.314 400.6 320.114C399.996 320.557 399.302 321.001 398.532 321.424C396.041 333.711 395.777 341.39 397.921 343.288C404.153 348.805 420.724 351.757 429.42 350.212C431.89 349.775 433.548 348.978 434.09 347.98C435.457 345.437 443.049 325.693 451.008 303.967C461.14 276.322 465.602 262.656 465.532 261.374C465.269 260.341 460.043 252.267 453.166 244.111C444.915 234.332 438.281 229.148 434.499 229.523C428.504 230.112 425.082 227.513 424.437 224.852C423.903 222.655 425.075 219.619 429.947 217.7C439.898 213.784 445.241 214.588 447.969 215.953C452.514 218.219 475.685 231.04 485.691 260.625C495.31 289.046 509.057 344.584 510.542 350.614L589.152 350.628V352.014L509.452 352L509.32 351.473C509.175 350.87 494.477 290.945 484.373 261.076C474.54 232.004 451.799 219.425 447.344 217.201C445.318 216.189 440.425 215.073 430.447 218.996C427.067 220.326 425.277 222.447 425.776 224.533C426.297 226.702 429.406 228.642 434.353 228.15C434.513 228.137 434.68 228.13 434.846 228.13C445.172 228.13 466.15 258.172 466.879 261.096C467.656 264.208 438.156 343.344 435.304 348.645C434.541 350.066 432.639 351.057 429.656 351.591C427.99 351.889 426.061 352.027 423.993 352.027V352ZM197.073 341.078L282.463 345.763L257.134 287.805L258.397 287.23L263.421 297.937C260.867 291.818 258.827 286.454 258.071 283.328C258.05 284.285 257.863 284.576 257.571 284.749C257.328 284.895 257.03 284.888 256.78 284.749C253.921 284.119 201.209 284.112 165.506 284.271L197.08 341.085L197.073 341.078ZM280.867 335.104L285.849 345.721L319.207 338.015L280.867 335.104ZM163.514 327.848C164.236 328.804 170.571 337.294 171.134 339.685C171.175 339.858 171.258 340.045 171.598 340.177C172.73 340.62 175.04 339.934 175.901 339.56C175.589 338.105 173.417 332.547 171.314 327.578L172.556 326.968C172.778 327.363 178.052 336.726 178.885 339.213C178.954 339.421 179.114 339.726 179.662 339.872C180.974 340.225 183.139 339.477 183.819 339.082C183.638 337.626 181.716 330.96 179.877 325.062L181.196 324.639C182.917 329.844 185.776 338.299 186.275 339.283C186.768 339.435 188.69 338.666 189.794 337.127C190.55 335.506 183.16 322.283 180.821 319.442C179.28 317.577 165.991 317.3 163.618 318.277C161.356 319.206 147.831 320.571 143.369 318.645C137.526 324.12 130.212 330.994 128.671 332.886C132.085 334.127 153.792 336.414 155.679 336.039C156.144 335.915 156.623 335.527 157.046 335.18C157.616 334.716 158.157 334.279 158.795 334.432C159.045 334.494 159.392 334.674 159.628 335.201C160.135 336.344 162.23 338.922 163.556 339.643C163.861 339.809 164.375 339.712 164.951 339.366C165.984 338.756 166.616 337.786 166.623 337.529C166.56 336.836 164.395 332.443 162.341 328.59L163.507 327.848H163.514ZM138.359 318.645C134.042 319.255 126.77 325.748 125.944 328.576C125.93 328.624 125.916 328.673 125.909 328.721C126.423 328.292 127.214 327.592 127.984 326.905C131.641 323.648 135.326 320.481 138.359 318.652V318.645ZM308.361 312.56C308.319 312.782 308.285 313.01 308.25 313.246C307.577 317.771 308.201 322.311 308.868 323.406C309.388 322.47 309.957 319.054 309.326 315.609C309.145 314.632 308.854 313.544 308.361 312.567V312.56ZM418.282 256.862C415.784 262.413 409.802 279.073 404.41 297.917C402.064 306.122 400.218 313.378 398.907 319.566C399.212 319.372 399.497 319.178 399.767 318.977C405.222 314.951 416.811 267.68 418.282 256.855V256.862ZM125.09 234.02C128.678 236.377 133.23 243.861 134.681 247.493C136.443 251.9 140.302 280.002 137.644 284.86C137.04 285.969 135.791 287.819 134.216 290.169C130.302 295.997 122.155 308.118 124.195 310.509C125.888 312.498 132.162 314.487 135.909 315.679C139.386 316.78 140.128 317.016 140.128 317.695C141.238 317.196 142.224 316.961 143.029 317.065C143.119 316.981 143.209 316.898 143.299 316.808C147.713 312.671 151.884 308.762 154.139 306.51C159.933 300.723 157.997 293.918 154.118 283.398C151.037 275.047 154.076 270.099 155.707 267.445C156.117 266.772 156.477 266.197 156.54 265.858C156.394 264.347 147.47 255.739 144.111 252.496C142.043 250.5 141.301 249.773 141.107 249.502C140.725 248.969 140.898 248.151 141.454 245.85C142.182 242.835 143.397 237.783 141.301 236.467C139.053 235.053 131.891 234.526 127.616 234.207C126.52 234.124 125.701 234.069 125.083 234.006L125.09 234.02ZM266.273 297.896C267.564 297.896 271.443 298.644 284.913 302.428C294.274 305.055 303.948 307.951 305.842 308.527C306.571 308.748 307.209 309.102 307.757 309.559C308.299 308.236 309.09 307.175 310.242 306.884C311.546 306.552 316.938 306.461 326.348 306.33C338.645 306.156 355.48 305.921 363.37 304.694C374.05 303.031 391.648 285.2 399.157 277.59C400.669 276.059 401.759 274.95 402.307 274.479C404.313 272.732 404.75 262.205 403.438 247C402.953 241.345 407.984 237.929 411.315 235.67C412.522 234.852 414.021 233.833 414.076 233.369C414.208 232.239 411.8 231.172 409.871 230.32C408.872 229.876 407.928 229.46 407.179 229.003C406.603 228.649 406.45 228.171 406.415 227.825C406.276 226.293 408.344 224.346 411.759 221.324C412.008 221.102 412.265 220.881 412.515 220.652C406.637 224.505 396.887 230.881 390.961 231.414C383.675 232.066 382.349 225.829 381.066 219.786C380.621 217.707 380.163 215.558 379.469 213.659C377.95 209.48 378.089 198.191 378.866 189.473C379.365 183.839 380.899 170.554 384.306 168.807C388.324 166.735 393.307 174.663 399.066 183.832C401.093 187.054 403.188 190.395 405.243 193.271C407.56 196.507 409.857 198.267 412.085 198.503C414.986 198.815 417.428 196.563 419.406 194.754C419.829 194.366 420.232 194.005 420.606 193.687C424.014 190.824 429.135 188.974 431.46 190.963C432.764 192.079 432.973 196.362 433.146 202.758C433.222 205.613 433.292 208.309 433.576 209.37C435.54 209.834 447.712 200.346 450.321 195.648C451.612 193.319 453.277 183.271 449.717 172.203C447.115 164.115 440.835 152.972 425.665 145.799C417.373 141.877 409.489 141.287 402.224 144.046C388.005 149.444 380.837 165.987 380.767 166.153L380.677 166.368L380.476 166.486C372.204 171.254 377.221 203.916 378.2 208.524H378.359V209.792L378.2 209.827C377.297 213.687 371.434 243.688 370.171 253.577C369.407 259.551 370.247 274.132 372.669 296.919C372.863 298.762 372.905 299.136 372.905 299.261C372.905 299.982 372.905 300.252 360.698 302.955C354.841 304.251 348.644 305.526 347.77 305.671C347.513 305.713 347.243 305.63 347.035 305.436C344.98 303.516 344.273 273.162 345.05 265.137C346.028 255.06 362.759 198.468 368.193 188.849C373.439 179.549 374.008 169.556 373.765 168.142C372.044 166.749 353.682 158.537 348.728 158.412C348.693 158.412 348.658 158.412 348.624 158.412C345.272 158.412 344.162 162.667 343.495 165.217C343.169 166.451 343.017 167.012 342.69 167.338C342.323 167.83 340.053 173 338.055 177.56C335.092 184.317 331.726 191.968 330.63 193.541C328.236 196.958 314.301 194.165 313.087 193.811C312.06 193.506 309.582 190.811 306.758 187.124C303.885 184.58 300.762 180.138 298.084 176.32C296.238 173.686 294.323 170.969 293.608 170.609C293.309 170.581 291.269 171.371 286.37 175.62C279.243 181.801 271.554 190.575 271.554 193.964C271.554 194.685 271.783 194.983 271.957 195.142C272.831 195.953 275.322 195.773 278.209 195.565C283.469 195.183 290.679 194.664 297.418 198.822C305.981 204.103 303.115 210.7 300.589 216.515C299.319 219.446 298.118 222.211 298.292 224.706C298.458 227.076 299.256 231.013 300.186 235.573C302.358 246.197 305.328 260.757 303.601 271.187C301.866 281.672 292.296 289.496 285.967 294.673C283.573 296.628 281.318 298.478 281.075 299.323C280.874 300.051 280.319 299.975 280.215 299.954C279.738 299.857 279.657 298.441 279.972 295.706C280.222 293.516 280.596 290.411 281.04 286.759C282.997 270.598 286.641 240.521 285.475 236.668C283.573 230.375 274.719 204.096 271.02 198.448C267.585 203.631 260.444 267.486 259.14 281.222C258.959 283.093 261.624 290.169 265.26 298.769C265.26 298.755 265.26 298.741 265.26 298.734C265.26 298.492 265.378 298.263 265.572 298.118C265.69 298.027 265.822 297.937 266.28 297.937L266.273 297.896ZM162.411 222.149C162.452 223.285 162.293 225.15 162.022 228.026C161.509 233.577 160.724 241.962 162.473 243.993C162.667 244.215 162.869 244.325 163.118 244.339C163.882 244.381 164.888 244.464 166.033 244.561C173.923 245.226 178.115 245.129 178.489 244.284C178.517 244.228 178.462 243.889 177.747 243.217C173.125 238.857 168.136 224.81 168.427 219.363C166.415 221.144 164.319 222.537 163.479 222.689C162.827 222.807 162.536 222.391 162.466 222.267C162.445 222.232 162.425 222.197 162.411 222.156V222.149ZM169.44 214.165C169.336 214.269 169.204 214.401 169.059 214.567C167.143 216.695 165.089 219.377 164.194 220.846C165.367 220.111 167.268 218.635 168.864 217.048C169.1 216.002 169.343 214.879 169.433 214.165H169.44ZM307.979 186.354C309.041 187.255 310.013 187.803 310.824 187.803C315.89 187.803 335.425 183.832 338.513 164.413L338.555 164.171L338.735 164.005C338.797 163.949 345.05 158.28 345.05 152.667C345.05 150.678 344.425 149.368 343.329 149.008C341.552 150.186 340.06 150.9 339.901 150.976L338.402 151.683L338.95 150.117C339.519 148.495 341.309 147.379 343.017 147.538C345.681 145.709 348.749 142.916 348.464 139.922C348.048 135.542 343.03 120.386 335.758 115.597C333.579 114.163 331.365 113.788 329.179 114.495L328.916 114.579L328.666 114.461C328.506 114.384 312.858 107.108 304.44 113.962C297.653 119.485 280.853 138.786 292.282 154.427C292.976 155.377 293.663 156.097 294.364 156.603C294.635 155.772 295.023 155.12 295.509 154.683C296.189 154.074 297.05 153.893 297.938 154.171C298.035 154.198 298.216 154.15 298.431 154.025C301.13 152.48 306.147 142.646 307.695 135.875C308.403 132.791 309.881 130.67 312.101 129.569C314.801 128.231 318.035 128.792 319.978 129.672C321.733 130.469 322.726 134.628 324.19 141.343C325.154 145.757 326.348 151.253 327.618 152.23C328.971 153.277 332.476 151.094 334.571 149.791C336.5 148.592 337.298 148.093 337.937 148.627C338.464 149.07 338.166 149.798 338.069 150.04C336.847 153.013 332.871 156.513 325.37 157.414C324.37 157.532 323.482 157.296 322.74 156.693C320.449 154.85 319.985 149.936 319.499 144.732C319.076 140.248 318.638 135.612 316.994 133.747C316.848 133.581 316.772 133.595 316.73 133.595C315.543 133.74 313.163 138.245 311.067 142.223C307.258 149.444 302.525 158.44 297.195 158.828C296.564 158.876 295.946 158.8 295.336 158.606C295.127 160.304 295.225 162.646 295.821 165.564C296.758 170.166 303.108 179.909 307.986 186.313L307.979 186.354ZM295.599 157.275C296.092 157.449 296.585 157.518 297.091 157.476C301.651 157.144 306.189 148.529 309.832 141.613C312.906 135.778 314.731 132.472 316.556 132.25C316.938 132.202 317.507 132.271 318.028 132.86C319.978 135.057 320.415 139.707 320.88 144.635C321.317 149.32 321.775 154.164 323.614 155.647C324.058 156.007 324.585 156.146 325.203 156.07C331.4 155.328 334.974 152.674 336.382 150.345C336.035 150.546 335.654 150.789 335.307 151.004C332.6 152.688 328.888 154.995 326.771 153.36C325.21 152.161 324.245 148.141 322.837 141.669C321.9 137.386 320.623 131.516 319.409 130.961C317.736 130.206 314.981 129.714 312.719 130.837C310.887 131.745 309.652 133.546 309.048 136.208C307.514 142.916 302.428 153.36 299.125 155.252C298.549 155.584 298.014 155.668 297.529 155.515C297.105 155.383 296.758 155.453 296.446 155.73C296.113 156.028 295.821 156.555 295.613 157.282L295.599 157.275Z" fill="#4D4C4C"/>
</svg>
