<svg width="135" height="70" viewBox="0 0 135 70" fill="none" xmlns="http://www.w3.org/2000/svg">
<path fill-rule="evenodd" clip-rule="evenodd" d="M70.3388 -106.99C42.8346 -107.399 15.0665 -95.3943 1.07166 -75.5205L1.5167 -75.2062C15.3853 -94.9006 42.9633 -106.852 70.3308 -106.445C97.6971 -106.037 124.062 -93.8831 140.627 -75.6635C150.313 -65.0082 156.717 -52.4519 159.825 -39.3058C151.366 -48.0114 140.704 -55.0104 128.096 -58.7234C119.608 -61.224 110.601 -61.9851 101.721 -61.2489C98.8177 -71.8633 91.2818 -82.1648 79.1482 -85.9075C64.085 -90.553 47.4053 -83.7441 35.2476 -75.0992C12.8363 -59.1625 -2.3855 -34.8166 0.308554 -10.2243C3.11316 15.3717 25.2138 37.8085 52.9463 48.6563C59.3457 51.1603 66.1162 53.1247 73.0435 54.325C87.086 62.9811 104.127 68.3827 121.524 69.6942C135.588 70.7532 150.405 69.1958 162.411 62.9033C172.438 57.6462 179.819 49.4758 185.537 40.839C192.038 31.0234 196.741 20.2104 197.776 8.99331C199.217 -6.61164 193.603 -21.414 184.189 -34.9138C174.775 -48.4129 161.55 -60.6274 147.731 -71.0684L147.403 -70.633C161.198 -60.2107 174.374 -48.036 183.742 -34.6016C193.11 -21.1679 198.659 -6.49247 197.233 8.94308C196.21 20.0432 191.552 30.7704 185.083 40.5376C179.395 49.1294 172.076 57.2204 162.158 62.4201C150.276 68.6479 135.572 70.2051 121.565 69.1504C104.716 67.8802 88.2208 62.7579 74.489 54.5639C81.8482 55.7216 89.3666 56.0046 96.7896 55.1458C104.299 54.2762 111.53 52.2352 118.223 49.2827C122.766 50.7739 127.549 51.735 132.411 52.0659C141.323 52.6722 150.535 51.4017 158.389 47.7862C170.982 41.9904 179.007 30.5571 181.301 18.6857C183.598 6.81571 180.696 -5.40192 175.484 -16.5571C171.829 -24.3748 166.818 -31.9251 160.561 -38.5385C157.514 -52.0963 150.999 -65.064 141.03 -76.0306C124.36 -94.3652 97.8508 -106.581 70.3388 -106.99ZM127.943 -58.2002C140.764 -54.4243 151.563 -47.2203 160.062 -38.2724C162.068 -29.2668 162.534 -20.0017 161.456 -10.8956C159.654 4.31776 153.581 19.3687 142.429 31.4668C135.919 38.5322 127.595 44.5214 118.195 48.6991C111.976 46.6336 106.216 43.5658 101.333 39.7604C92.8677 33.1639 87.0565 24.3671 86.0307 14.7521C85.0076 5.14732 89.3793 -4.55911 96.9233 -11.8581C98.6783 -13.5562 100.604 -15.1227 102.671 -16.5262C103.574 -7.52651 106.36 1.37211 113.149 8.29256C117.552 12.7813 124.058 15.9924 130.812 17.1832C137.566 18.3739 144.602 17.55 150.05 13.9204C158.861 8.04874 160.484 -3.54432 154.888 -11.7139C149.309 -19.8662 137.877 -24.4474 126.728 -24.5065C118.063 -24.5533 109.888 -21.8707 103.129 -17.4841C102.927 -19.817 102.848 -22.1566 102.854 -24.4706C102.864 -27.8663 103.026 -31.2588 103.188 -34.6577C103.3 -37.015 103.413 -39.3755 103.475 -41.7422C103.627 -47.5039 103.476 -53.2603 102.277 -58.9514C102.153 -59.5388 102.015 -60.1265 101.864 -60.7137C110.645 -61.4308 119.55 -60.6728 127.943 -58.2002ZM103.185 -16.8695C103.013 -16.7562 102.842 -16.6417 102.671 -16.5262C102.651 -16.732 102.631 -16.9378 102.612 -17.1437C102.784 -17.2583 102.956 -17.3718 103.129 -17.4841C103.147 -17.2792 103.165 -17.0743 103.185 -16.8695ZM103.185 -16.8695C109.907 -21.2948 118.071 -24.0078 126.725 -23.9611C137.761 -23.9027 148.993 -19.3634 154.439 -11.4055C159.875 -3.47047 158.29 7.77399 149.749 13.4663C144.449 16.9971 137.565 17.82 130.907 16.6461C124.248 15.4722 117.85 12.3071 113.537 7.91036C106.792 1.03482 104.05 -7.8465 103.185 -16.8695ZM102.612 -17.1437C100.425 -15.6802 98.3917 -14.0371 96.5449 -12.2503C88.9109 -4.86423 84.4442 4.99962 85.4892 14.8099C86.5347 24.6098 92.4503 33.5296 100.998 40.1909C105.781 43.9179 111.394 46.943 117.453 49.024C110.963 51.8254 103.975 53.7646 96.727 54.6041C88.9096 55.5084 80.9798 55.1376 73.2401 53.8055C63.9797 48.0826 56.0421 40.9385 50.1944 32.6215C35.5253 11.7632 35.3689 -16.1591 51.6428 -36.1455C62.8161 -49.8679 81.7254 -58.9289 101.313 -60.6668C101.472 -60.058 101.616 -59.4484 101.744 -58.839C102.93 -53.2094 103.082 -47.5023 102.931 -41.7565C102.869 -39.4177 102.757 -37.0652 102.645 -34.7091L102.645 -34.7085L102.645 -34.7075C102.482 -31.2935 102.319 -27.8718 102.309 -24.4722C102.303 -22.0503 102.39 -19.5949 102.612 -17.1437ZM132.448 51.5218C127.836 51.2079 123.296 50.3214 118.967 48.9498C128.21 44.7541 136.397 38.8175 142.83 31.8367C154.069 19.6437 160.183 4.48128 161.997 -10.8314C163.047 -19.6979 162.642 -28.7141 160.787 -37.4988C166.712 -31.0921 171.48 -23.8351 174.991 -16.3258C180.175 -5.23083 183.033 6.8653 180.766 18.5819C178.503 30.2914 170.585 41.5727 158.161 47.2906C150.407 50.8606 141.289 52.1233 132.448 51.5218ZM49.7491 32.9356C55.3992 40.9713 62.9776 47.9135 71.8028 53.5467C65.3805 52.3396 59.1029 50.4798 53.1445 48.1483C25.5243 37.3444 3.62465 15.04 0.84988 -10.2837C-1.81495 -34.6093 13.2456 -58.7847 35.5629 -74.6545C47.6738 -83.2662 64.1697 -89.9562 78.9879 -85.3863C90.8645 -81.7228 98.2846 -71.6464 101.17 -61.2012C81.4767 -59.4302 62.4744 -50.3112 51.2207 -36.4902C34.7801 -16.299 34.9511 11.8939 49.7491 32.9356Z" fill="#C3D8F5"/>
</svg>
