<svg width="79" height="62" viewBox="0 0 79 62" fill="none" xmlns="http://www.w3.org/2000/svg">
<path fill-rule="evenodd" clip-rule="evenodd" d="M45.8268 -52.9934C27.9074 -53.2593 9.81608 -45.4596 0.698203 -32.5472L0.988151 -32.343C10.0238 -45.1388 27.9912 -52.9037 45.8216 -52.6391C63.6512 -52.3746 80.8281 -44.4777 91.6209 -32.6401C97.9315 -25.7172 102.104 -17.5592 104.128 -9.01792C98.617 -14.6741 91.6708 -19.2215 83.4567 -21.6339C77.9267 -23.2585 72.0585 -23.753 66.2729 -23.2747C64.3812 -30.171 59.4715 -36.8641 51.5662 -39.2958C41.7523 -42.3141 30.8852 -37.8902 22.9643 -32.2735C8.36302 -21.9191 -1.55419 -6.10116 0.201028 9.87689C2.02827 26.507 16.4271 41.0846 34.4953 48.1326C38.6647 49.7595 43.0757 51.0358 47.589 51.8157C56.7378 57.4397 67.84 60.9492 79.1749 61.8013C88.3375 62.4894 97.9911 61.4775 105.813 57.3891C112.346 53.9735 117.155 48.665 120.88 43.0536C125.116 36.6762 128.18 29.6508 128.854 22.3629C129.793 12.2241 126.135 2.6067 120.002 -6.16436C113.869 -14.9349 105.252 -22.8709 96.2492 -29.6546L96.0356 -29.3717C105.023 -22.6002 113.607 -14.6901 119.711 -5.96148C125.814 2.76662 129.429 12.3015 128.501 22.3302C127.834 29.5422 124.799 36.5118 120.584 42.8577C116.879 48.44 112.11 53.6968 105.648 57.0752C97.907 61.1215 88.3275 62.1333 79.2016 61.448C68.224 60.6227 57.4772 57.2947 48.5307 51.9709C53.3253 52.7231 58.2237 52.9069 63.0599 52.349C67.9523 51.784 72.6635 50.4579 77.0242 48.5396C79.9842 49.5085 83.0999 50.1329 86.2679 50.3479C92.0744 50.7418 98.0758 49.9164 103.193 47.5673C111.397 43.8017 116.626 36.3733 118.12 28.6602C119.617 20.9481 117.726 13.01 114.33 5.76236C111.949 0.683037 108.685 -4.22254 104.608 -8.51937C102.623 -17.3281 98.3783 -25.7534 91.8832 -32.8787C81.0224 -44.7909 63.7513 -52.7275 45.8268 -52.9934ZM83.3566 -21.2939C91.7098 -18.8407 98.7457 -14.1601 104.283 -8.34648C105.59 -2.49538 105.893 3.52434 105.191 9.4407C104.017 19.3251 100.06 29.1039 92.7949 36.9643C88.5531 41.5548 83.1303 45.4461 77.0056 48.1604C72.9541 46.8184 69.2013 44.8252 66.0198 42.3528C60.5047 38.0669 56.7186 32.3515 56.0503 26.1044C55.3837 19.8641 58.232 13.5576 63.147 8.81536C64.2904 7.7121 65.545 6.69428 66.892 5.78241C67.4803 11.6297 69.295 17.4113 73.718 21.9076C76.5868 24.824 80.8258 26.9103 85.2261 27.684C89.6261 28.4576 94.2105 27.9223 97.76 25.5641C103.5 21.7492 104.558 14.217 100.912 8.90908C97.2771 3.61238 89.8287 0.635841 82.5653 0.5975C76.92 0.567089 71.5937 2.31002 67.1901 5.16005C67.0587 3.64429 67.0069 2.12426 67.0109 0.620773C67.0173 -1.58543 67.1228 -3.7896 67.2285 -5.99796C67.3018 -7.52953 67.3751 -9.0632 67.4157 -10.6009C67.5143 -14.3443 67.4161 -18.0844 66.6348 -21.782C66.5543 -22.1636 66.4646 -22.5455 66.3657 -22.927C72.0871 -23.3929 77.8886 -22.9004 83.3566 -21.2939ZM67.2266 5.55936C67.1144 5.63299 67.0029 5.70734 66.892 5.78241C66.8786 5.6487 66.8658 5.51496 66.8536 5.38119C66.9651 5.30676 67.0773 5.23304 67.1901 5.16005C67.2016 5.29319 67.2138 5.4263 67.2266 5.55936ZM67.2266 5.55936C71.6058 2.68419 76.9248 0.921455 82.5633 0.951832C89.7531 0.989784 97.0712 3.93901 100.619 9.10939C104.161 14.2649 103.129 21.5707 97.5634 25.2691C94.1106 27.5631 89.6258 28.0978 85.2876 27.335C80.9497 26.5723 76.7812 24.5159 73.9711 21.6593C69.5767 17.1921 67.7899 11.4218 67.2266 5.55936ZM66.8536 5.38119C65.4284 6.33207 64.1037 7.39962 62.9005 8.56052C57.9268 13.3594 55.0167 19.7681 55.6975 26.142C56.3787 32.5092 60.2327 38.3046 65.8019 42.6325C68.9179 45.054 72.5747 47.0195 76.5223 48.3715C72.2942 50.1916 67.7416 51.4516 63.0191 51.997C57.9259 52.5846 52.7596 52.3436 47.717 51.4781C41.6838 47.7599 36.5123 43.1182 32.7024 37.7146C23.1453 24.1626 23.0433 6.02093 33.646 -6.96463C40.9256 -15.8802 53.2453 -21.7673 66.007 -22.8965C66.1106 -22.501 66.2041 -22.1049 66.2877 -21.709C67.0605 -18.0513 67.1593 -14.3433 67.061 -10.6102C67.021 -9.09059 66.9479 -7.56216 66.8748 -6.03131L66.8747 -6.03097L66.8747 -6.0303C66.7687 -3.81219 66.6625 -1.589 66.6561 0.619747C66.6519 2.19328 66.7085 3.78865 66.8536 5.38119ZM86.2919 49.9944C83.2868 49.7905 80.3291 49.2145 77.509 48.3233C83.5311 45.5973 88.8646 41.7402 93.0556 37.2047C100.378 29.2826 104.362 19.4313 105.543 9.48242C106.227 3.7217 105.964 -2.13631 104.755 -7.84383C108.616 -3.68133 111.722 1.0337 114.009 5.91261C117.387 13.1212 119.249 20.9803 117.772 28.5928C116.298 36.2006 111.139 43.5303 103.045 47.2453C97.9921 49.5648 92.0522 50.3852 86.2919 49.9944ZM32.4123 37.9186C36.0934 43.1395 41.0308 47.65 46.7806 51.31C42.5964 50.5257 38.5065 49.3174 34.6244 47.8026C16.6295 40.7831 2.36152 26.2915 0.55371 9.83825C-1.18246 -5.96648 8.62972 -21.6737 23.1697 -31.9846C31.0602 -37.5797 41.8075 -41.9264 51.4618 -38.9572C59.1996 -36.577 64.0339 -30.0302 65.9135 -23.2437C53.0833 -22.0931 40.703 -16.1683 33.3711 -7.18856C22.6597 5.93005 22.7712 24.2474 32.4123 37.9186Z" fill="#C3D8F5"/>
</svg>
