<svg width="925" height="403" viewBox="0 0 925 403" fill="none" xmlns="http://www.w3.org/2000/svg">
<path d="M0 367.617H181.357C173.254 327.574 165.155 287.536 159.126 257.016C153.103 226.501 149.149 205.509 148.162 194.474C147.175 183.439 149.149 182.361 186.225 183.8C223.301 185.234 295.478 189.18 332.376 191.158C369.273 193.131 370.887 193.131 372.505 194.387C374.123 195.643 375.736 198.155 382.112 230.543C388.488 262.931 399.617 325.19 404.736 357.308C409.855 389.427 408.954 391.4 383.099 389.514C357.244 387.632 306.434 381.886 271.51 378.118C236.587 374.35 217.556 372.555 205.887 372.107C194.219 371.659 189.909 372.555 188.474 374.258C187.038 375.962 188.474 378.474 208.131 382.064C227.794 385.654 265.674 390.317 302.124 393.907C338.573 397.497 373.583 400.01 392.167 401.266C410.751 402.522 412.903 402.522 431.665 398.845C450.427 395.168 485.798 387.81 503.934 383.686C522.07 379.557 522.965 378.661 520.543 377.853C518.121 377.044 512.376 376.327 494.062 374.802C475.748 373.276 444.865 370.942 430.591 369.421C416.317 367.896 418.653 367.179 417.126 357.4C415.6 347.621 410.216 328.78 410.842 302.855C411.468 276.93 418.114 243.912 421.075 217.626C424.037 191.34 423.319 171.782 425.833 155.815C428.347 139.847 434.092 127.464 433.132 122.367C432.172 117.265 424.503 119.448 418.018 123.97C411.532 128.492 406.221 135.357 403.41 149.557C400.599 163.753 400.289 185.288 401.381 201.512C402.473 217.74 404.973 228.661 404.973 243.172C404.973 257.683 402.473 275.779 405.129 293.081C407.78 310.382 415.586 326.88 422.611 338.408C429.636 349.937 435.879 356.486 443.841 358.907C451.803 361.328 461.483 359.61 467.26 352.513C473.037 345.415 474.911 332.932 469.993 323.884C465.075 314.836 453.366 309.218 446.108 312.259C438.85 315.301 436.039 327.003 439.161 335.115C442.282 343.227 451.337 347.753 459.148 349.393C466.954 351.033 473.513 349.781 479.13 345.803C484.752 341.825 489.436 335.115 490.213 313.584C490.995 292.053 487.873 255.701 484.514 229.017C481.159 202.339 477.567 185.33 476.863 173.084C476.159 160.834 478.348 153.348 474.838 148.826C471.333 144.305 462.132 142.756 454.819 141.057C447.507 139.358 442.072 137.508 439.965 139.691C437.858 141.87 439.074 148.077 444.915 150.845C450.756 153.613 461.223 152.937 463.316 150.069C465.409 147.2 459.129 142.14 453.051 139.102C446.972 136.065 441.099 135.055 438.845 129.744C436.592 124.436 437.954 114.826 439.22 103.43C440.486 92.0346 441.652 78.8437 443.123 70.3893C444.6 61.9349 446.382 58.2125 453.174 55.303C459.966 52.3935 471.767 50.3016 477.859 49.9499C483.952 49.6028 484.34 50.9958 481.237 53.7135C478.133 56.4266 471.534 60.4642 467.265 63.2915C462.996 66.1233 461.053 67.7539 459.618 71.0882C458.183 74.4224 457.251 79.4649 457.717 81.5202C458.183 83.5756 460.043 82.6438 465.4 77.4095C470.757 72.1752 479.605 62.6338 485.661 57.1619C491.717 51.6947 494.976 50.297 498.198 49.7124C501.42 49.1323 504.601 49.3653 506.077 51.1466C507.554 52.9325 507.321 56.2667 501.809 62.0857C496.297 67.9046 485.506 76.2037 478.988 81.7486C472.466 87.2935 470.217 90.0888 469.207 92.1442C468.197 94.1995 468.43 95.5195 470.839 94.5878C473.248 93.656 477.823 90.477 482.987 85.8593C488.147 81.2416 493.893 75.1943 497.581 72.3625C501.269 69.5306 502.896 69.9189 503.906 71.7047C504.917 73.4906 505.305 76.6696 504.331 79.6156C503.363 82.5616 501.032 85.2793 496.726 89.6229C492.416 93.9666 486.132 99.9408 481.941 103.937C477.749 107.934 475.652 109.948 474.605 111.734C473.558 113.52 473.558 115.068 474.952 115.575C476.351 116.078 479.143 115.534 482.791 113.209C486.438 110.88 490.94 106.769 494.706 104.559C498.472 102.348 501.498 102.037 503.244 102.891C504.99 103.746 505.456 105.76 502.663 109.176C499.871 112.588 493.815 117.398 490.168 120.659C486.52 123.915 485.277 125.624 484.697 128.108C484.116 130.589 484.194 133.85 484.039 137.339C483.883 140.829 483.495 144.551 485.163 149.055C486.831 153.554 490.556 158.829 492.613 163.757C494.669 168.681 495.058 173.258 492.924 175.354C490.789 177.451 486.132 177.062 483.376 174.034C480.62 171.011 479.765 165.347 480.542 159.528C481.319 153.709 483.723 147.735 485.241 144.131C486.753 140.523 487.375 139.285 489.628 139.591C491.881 139.902 495.762 141.765 500.264 143.003C504.766 144.245 509.889 144.866 515.127 143.469C520.365 142.071 525.721 138.659 529.254 135.325C532.787 131.991 534.492 128.73 535.854 127.606C537.212 126.482 538.222 127.492 541.366 129.506C544.511 131.525 549.79 134.549 554.484 136.293C559.182 138.038 563.295 138.504 566.435 138.349C569.58 138.193 571.751 137.417 571.573 135.316C571.394 133.21 568.858 129.78 564.603 125.66C560.347 121.54 554.369 116.731 551.225 113.159C548.08 109.592 547.77 107.262 549.904 106.874C552.038 106.486 556.618 108.039 561.275 109.976C565.933 111.917 570.668 114.242 570.864 113.661C571.061 113.081 566.71 109.587 560.462 106.02C554.214 102.453 546.06 98.8035 541.677 95.314C537.289 91.8245 536.672 88.4856 537.056 86.3161C537.445 84.142 538.843 83.1371 542.76 83.6807C546.682 84.2242 553.122 86.3161 560.69 90.3903C568.259 94.4644 576.952 100.512 581.532 103.307C586.111 106.098 586.578 105.636 583.785 102.485C580.992 99.3379 574.937 93.5053 567.72 88.2664C560.498 83.0321 552.116 78.3915 548.236 74.3904C544.355 70.3939 544.986 67.0414 547.884 65.9498C550.781 64.8581 555.946 66.032 561.993 68.6126C568.04 71.1932 574.964 75.1806 580.133 78.4692C585.298 81.7532 588.703 84.3338 590.846 86.1516C592.99 87.9695 593.867 89.0246 594.603 89.2301C595.339 89.4356 595.924 88.7916 595.28 86.9144C594.635 85.0372 592.757 81.9267 589.937 78.967C587.121 76.0027 583.365 73.1892 579.37 70.636C575.38 68.0828 571.152 65.7944 567.893 63.9172C564.635 62.04 562.345 60.5738 561.262 59.432C560.174 58.2855 560.293 57.468 562.025 56.5271C563.757 55.5862 567.103 54.5311 572.505 55.6455C577.907 56.76 585.362 60.044 590.44 62.451C595.517 64.8581 598.219 66.3791 600.563 68.8136C602.913 71.248 604.905 74.5914 606.171 75.8246C607.433 77.0578 607.963 76.1763 607.2 73.7693C606.436 71.3622 604.38 67.4342 602.62 64.0314C600.86 60.6286 599.393 57.7557 598.571 55.7871C597.748 53.8231 597.574 52.768 598.219 52.0327C598.863 51.2973 600.33 50.8862 602.268 51.8865C604.206 52.8822 606.61 55.2893 608.726 57.6918C610.838 60.0988 612.657 62.5013 614.119 63.1499C615.577 63.7939 616.679 62.684 615.248 56.6549C613.818 50.6304 609.86 39.6914 601.395 29.4876C592.935 19.2839 579.969 9.82015 566.732 4.97407C553.496 0.12342 539.986 -0.109529 526.334 3.3115C512.682 6.72797 498.879 13.7984 489.057 21.5174C479.235 29.2365 473.398 37.604 470.108 42.7516C466.817 47.8991 466.076 49.8266 465.295 48.4152M534.3 9.01171C538.852 14.9174 538.619 23.454 537.609 31.2872C536.599 39.125 534.817 46.2594 533.071 53.1471C531.325 60.0349 529.625 66.6668 529.753 75.208C529.885 83.7446 531.846 94.1858 533.564 102.499C535.283 110.811 536.759 117 536.293 119.823C535.827 122.65 533.414 122.111 531.448 116.936C529.483 111.761 527.966 101.946 528.994 93.6469C530.022 85.3478 533.592 78.5697 536.718 71.6545C539.844 64.7394 542.523 57.6917 544.172 50.5071C545.822 43.3225 546.449 36.01 547.632 30.2504C548.816 24.4954 550.557 20.2979 555.699 18.238C560.841 16.1781 569.383 16.2557 578.968 20.6222C588.552 24.9887 599.183 33.6486 606.363 43.9665C613.543 54.2844 617.278 66.2649 620.18 75.5871C623.082 84.9093 625.148 91.5687 626.94 99.1872C628.731 106.801 630.249 115.365 631.41 121.613C632.571 127.857 633.375 131.785 632.525 135.978C631.675 140.171 629.175 144.633 622.525 148.292C615.874 151.951 605.07 154.805 597.57 154.983C590.069 155.161 585.874 152.663 582.971 149.096C580.069 145.529 578.46 140.888 579.489 139.326C580.517 137.764 584.178 139.28 586.856 142.537C589.535 145.794 591.23 150.79 591.454 155.207C591.678 159.624 590.426 163.461 585.444 169.005C580.462 174.55 571.742 181.808 564.438 187.175C557.134 192.542 551.238 196.022 544.451 196.333C537.664 196.643 529.986 193.789 524.583 189.728C519.181 185.668 516.055 180.401 512.261 176.208C508.468 172.015 504.002 168.891 500.428 164.876C496.859 160.862 494.18 155.952 494.802 152.832C495.428 149.708 499.354 148.37 504.67 149.443C509.981 150.512 516.681 153.992 520.922 156.628C525.164 159.259 526.951 161.044 527.486 164.392C528.02 167.74 527.307 172.646 527.175 175.857C527.042 179.068 527.486 180.584 529.945 181.077C532.399 181.566 536.864 181.032 539.543 181.434C542.221 181.835 543.117 183.174 542.043 184.69C540.973 186.207 537.934 187.901 537.043 188.751C536.151 189.6 537.399 189.6 539.899 189.239C542.399 188.883 546.147 188.171 549.273 187.052C552.399 185.937 554.899 184.421 558.382 183.347C561.865 182.279 566.33 181.653 571.819 180.716C577.309 179.78 583.831 178.529 590.106 176.327C596.381 174.121 602.414 170.96 602.931 167.658C603.447 164.356 598.452 160.917 596.56 160.446C594.667 159.976 595.883 162.469 597.602 166.014C599.325 169.558 601.555 174.144 604.864 193.341C608.173 212.538 612.565 246.346 614.672 270.787C616.779 295.227 616.597 310.305 619.202 322.6C621.807 334.896 627.196 344.41 621.985 350.868C616.775 357.327 600.97 360.739 575.197 362.177C549.424 363.611 513.683 363.077 496.799 360.83C479.916 358.587 481.89 354.636 494.103 352.302C506.315 349.968 528.765 349.251 551.664 349.699C574.562 350.147 597.912 351.763 613.804 353.915C629.7 356.071 638.142 358.761 646.131 360.647C654.125 362.534 661.666 363.607 668.22 361.095C674.774 358.583 680.341 352.481 679.807 345.57C679.267 338.659 672.622 330.94 666.159 330.045C659.692 329.15 653.407 335.069 652.059 341.532C650.711 347.995 654.303 354.993 661.04 358.405C667.777 361.817 677.654 361.634 686.182 355.084C694.715 348.534 701.896 335.608 707.015 312.817C712.134 290.02 715.187 257.359 717.792 227.291C720.397 197.228 722.55 169.768 720.936 152.088C719.319 134.407 713.93 126.51 706.21 120.408C698.486 114.306 688.431 109.998 678.819 107.395C669.212 104.791 660.053 103.896 652.352 100.242C644.65 96.5929 638.407 90.1893 636.995 93.0394C635.582 95.8895 638.997 107.993 641.648 116.84C644.298 125.683 646.177 131.265 649.564 133.009C652.95 134.754 657.841 132.658 662.928 128.816C668.015 124.975 673.294 119.389 674.806 115.703C676.319 112.017 674.071 110.231 669.061 112.017C664.052 113.803 656.287 119.156 650.894 124.975C645.496 130.794 642.47 137.079 639.051 143.985C635.637 150.891 631.83 158.418 626.629 162.648C621.428 166.877 614.828 167.809 612.844 165.635C610.865 163.461 613.502 158.185 619.833 154.344C626.163 150.503 636.177 148.096 642.118 149.416C648.06 150.736 649.92 155.778 651.707 162.762C653.494 169.745 655.199 178.67 658.078 192.843C660.958 207.016 665.007 226.441 666.223 239.92C667.439 253.403 665.821 260.939 662.142 261.209C658.458 261.478 652.713 254.476 651.904 244.245C651.095 234.014 655.226 220.554 660.615 203.59C666.004 186.627 672.649 166.169 679.295 154.052C685.94 141.934 692.586 138.166 700.758 140.144C708.93 142.117 718.628 149.836 723.117 157.107C727.605 164.374 726.887 171.198 729.579 174.605C732.271 178.013 738.378 178.008 742.098 178.985C745.818 179.963 747.157 181.927 746.623 207.322C746.088 232.717 743.675 281.539 741.042 300.859C738.41 320.179 735.557 310.003 734.451 287.161C733.345 264.324 733.985 228.826 736.938 208.793C739.89 188.76 745.156 184.197 749.251 183.032C753.346 181.867 756.271 184.096 758.419 188.111C760.567 192.126 761.934 197.918 761.906 218.786C761.879 239.655 760.462 275.606 759.393 299.503C758.323 323.4 757.606 335.248 756.079 342.784C754.552 350.325 752.217 353.554 746.111 356.157C740.005 358.761 730.128 360.734 721.956 361.364C713.784 361.995 707.316 361.273 705.342 358.491C703.367 355.71 705.881 350.864 714.41 349.069C722.943 347.274 737.491 348.53 749.434 350.503C761.376 352.476 770.718 355.171 779.43 356.514C788.141 357.861 796.222 357.861 820.381 357.861H925.005" stroke="black" stroke-miterlimit="22.93"/>
</svg>
