<svg width="376" height="98" viewBox="0 0 376 98" fill="none" xmlns="http://www.w3.org/2000/svg">
<path d="M354.811 181.261C355.714 173.558 357.332 166.175 359.561 159.099C350.704 158.832 341.857 158.421 333.011 157.805C286.484 154.539 239.461 145.327 197.425 124.685C154.571 103.642 132.023 63.6316 95.8063 33.8803C62.203 6.26514 25.2705 -2.08411 -13 0.421698V289H376C359.634 255.192 350.466 218.478 354.811 181.271V181.261Z" fill="#C2DCFC"/>
<path d="M112.138 131.957C110.883 127.059 109.369 122.055 107.565 117.087C101.162 99.452 91.0758 82.275 75.6177 71.9511C40.3791 48.4233 -22.4716 64.2225 -35.4918 105.789C-36.4518 108.851 -37.1483 112.042 -37.5368 115.38C-39.4077 131.486 -35.4605 147.37 -28.4146 162H116C116 160.547 115.973 159.089 115.92 157.636C115.589 148.961 114.281 140.312 112.138 131.957Z" fill="#AFD3FF"/>
</svg>
