<svg width="250" height="240" viewBox="0 0 250 240" fill="none" xmlns="http://www.w3.org/2000/svg">
<path fill-rule="evenodd" clip-rule="evenodd" d="M143.52 -120.979C87.4 -121.814 30.7418 -97.3296 2.18662 -56.7961L3.09468 -56.1551C31.3922 -96.3228 87.6625 -120.698 143.503 -119.867C199.342 -119.037 253.136 -94.2474 286.937 -57.0877C306.7 -35.3556 319.766 -9.74659 326.107 17.0655C308.847 -0.689893 287.093 -14.9647 261.368 -22.5376C244.05 -27.6377 225.672 -29.19 207.552 -27.6885C201.628 -49.3369 186.252 -70.3474 161.494 -77.9808C130.759 -87.4555 96.7259 -73.5685 71.9193 -55.9368C26.1912 -23.4331 -4.86738 26.2216 0.629575 76.3788C6.3521 128.583 51.4463 174.344 108.032 196.469C121.089 201.576 134.904 205.582 149.038 208.03C177.691 225.685 212.46 236.701 247.959 239.376C276.654 241.536 306.887 238.36 331.383 225.526C351.843 214.804 366.904 198.14 378.57 180.525C391.835 160.505 401.432 138.452 403.542 115.574C406.483 83.7469 395.028 53.5567 375.82 26.0232C356.613 -1.50876 329.628 -26.4208 301.432 -47.7158L300.763 -46.8278C328.908 -25.571 355.794 -0.740092 374.909 26.6601C394.023 54.0587 405.344 83.9899 402.436 115.471C400.347 138.111 390.843 159.989 377.644 179.91C366.038 197.433 351.105 213.935 330.868 224.54C306.624 237.242 276.623 240.418 248.042 238.267C213.663 235.677 180.006 225.229 151.988 208.517C167.003 210.879 182.344 211.456 197.49 209.704C212.812 207.931 227.566 203.768 241.223 197.746C250.493 200.788 260.251 202.748 270.172 203.423C288.357 204.659 307.152 202.068 323.177 194.694C348.872 182.873 365.246 159.554 369.927 135.342C374.613 111.133 368.693 86.2142 358.058 63.4627C350.6 47.5181 340.377 32.1188 327.608 18.6305C321.393 -9.02122 308.099 -35.4694 287.758 -57.8365C253.745 -95.2307 199.655 -120.145 143.52 -120.979ZM261.055 -21.4705C287.215 -13.7693 309.25 0.923576 326.591 19.1732C330.684 37.5406 331.635 56.4373 329.435 75.0095C325.759 106.038 313.368 136.735 290.614 161.41C277.329 175.82 260.346 188.035 241.165 196.556C228.476 192.343 216.723 186.086 206.76 178.325C189.488 164.871 177.63 146.93 175.537 127.319C173.45 107.73 182.37 87.9331 197.763 73.0465C201.344 69.5832 205.273 66.3882 209.491 63.5257C211.334 81.881 217.017 100.03 230.869 114.145C239.853 123.3 253.129 129.849 266.91 132.278C280.69 134.706 295.047 133.026 306.163 125.623C324.141 113.647 327.453 90.0028 316.034 73.3407C304.651 56.7137 281.324 47.3699 258.576 47.2496C240.897 47.1541 224.216 52.6254 210.425 61.572C210.013 56.8139 209.851 52.0423 209.864 47.3226C209.884 40.3971 210.214 33.4779 210.545 26.5455C210.775 21.7378 211.004 16.9234 211.131 12.0964C211.44 0.345202 211.133 -11.3953 208.686 -23.0026C208.434 -24.2005 208.153 -25.3993 207.843 -26.5968C225.761 -28.0594 243.93 -26.5134 261.055 -21.4705ZM210.539 62.8255C210.188 63.0566 209.839 63.29 209.491 63.5257C209.449 63.1059 209.409 62.6861 209.371 62.2662C209.72 62.0325 210.072 61.8011 210.425 61.572C210.461 61.99 210.499 62.4078 210.539 62.8255ZM210.539 62.8255C224.254 53.7999 240.912 48.2665 258.57 48.3619C281.087 48.481 304.006 57.739 315.118 73.9695C326.209 90.1535 322.976 113.087 305.548 124.697C294.734 131.898 280.689 133.576 267.102 131.182C253.517 128.788 240.462 122.333 231.661 113.365C217.899 99.3422 212.303 81.2283 210.539 62.8255ZM209.371 62.2662C204.908 65.2511 200.759 68.6023 196.991 72.2465C181.414 87.3108 172.3 107.429 174.433 127.437C176.566 147.425 188.636 165.617 206.077 179.203C215.836 186.804 227.288 192.974 239.651 197.219C226.41 202.932 212.152 206.887 197.362 208.599C181.411 210.444 165.232 209.687 149.439 206.971C130.545 195.298 114.349 180.728 102.417 163.765C72.486 121.223 72.1668 64.2744 105.372 23.5111C128.17 -4.47625 166.753 -22.9566 206.72 -26.5011C207.044 -25.2596 207.337 -24.0161 207.599 -22.7733C210.019 -11.2915 210.329 0.348423 210.02 12.0672C209.895 16.8374 209.666 21.6353 209.437 26.4408L209.437 26.4419L209.437 26.444C209.105 33.407 208.773 40.3859 208.752 47.3194C208.739 52.2589 208.916 57.267 209.371 62.2662ZM270.248 202.313C260.836 201.673 251.573 199.865 242.741 197.067C261.601 188.51 278.305 176.402 291.43 162.164C314.363 137.296 326.839 106.371 330.539 75.1405C332.681 57.0568 331.856 38.6678 328.071 20.7511C340.161 33.8178 349.888 48.6189 357.051 63.9344C367.63 86.5631 373.462 111.234 368.836 135.13C364.219 159.012 348.063 182.021 322.713 193.683C306.89 200.964 288.288 203.54 270.248 202.313ZM101.508 164.405C113.037 180.795 128.5 194.954 146.507 206.443C133.403 203.981 120.594 200.188 108.436 195.433C52.0799 173.397 7.39576 127.907 1.7341 76.2575C-3.70322 26.6444 27.0264 -22.6625 72.5626 -55.0299C97.2738 -72.5938 130.932 -86.2384 161.167 -76.9178C185.4 -69.446 200.54 -48.8947 206.427 -27.5912C166.245 -23.9791 127.473 -5.38053 104.511 22.8081C70.9654 63.9891 71.3143 121.49 101.508 164.405Z" fill="#C3D8F5"/>
</svg>
