<svg width="1440" height="796" viewBox="0 0 1440 796" fill="none" xmlns="http://www.w3.org/2000/svg">
<circle opacity="0.1" cx="155.5" cy="588.5" r="396.5" fill="#5781B2"/>
<circle opacity="0.2" cx="396.5" cy="396.5" r="396" transform="matrix(-1 0 0 1 572 89)" stroke="#A1A1A1"/>
<path opacity="0.2" d="M-467.5 536.5C-467.5 755.187 -283.507 932.5 -56.5 932.5C170.507 932.5 354.5 755.187 354.5 536.5C354.5 317.813 170.507 140.5 -56.5 140.5C-283.507 140.5 -467.5 317.813 -467.5 536.5Z" stroke="#A1A1A1"/>
<path opacity="0.2" d="M-267.5 616.5C-267.5 835.187 -83.5067 1012.5 143.5 1012.5C370.507 1012.5 554.5 835.187 554.5 616.5C554.5 397.813 370.507 220.5 143.5 220.5C-83.5067 220.5 -267.5 397.813 -267.5 616.5Z" stroke="#A1A1A1"/>
<circle opacity="0.2" cx="256" cy="256" r="255.5" transform="matrix(-1 0 0 1 1551 -302)" stroke="#A1A1A1"/>
<circle opacity="0.2" cx="256" cy="256" r="255.5" transform="matrix(-1 0 0 1 1666 -292)" stroke="#A1A1A1"/>
<circle opacity="0.2" cx="256" cy="256" r="255.5" transform="matrix(-1 0 0 1 1533 -447)" stroke="#A1A1A1"/>
</svg>
