<svg width="506" height="776" viewBox="0 0 506 776" fill="none" xmlns="http://www.w3.org/2000/svg">
<g opacity="0.15">
<path d="M367.522 681.332C397.349 678.125 464.316 659.4 493.532 620.303C515.129 591.384 509.828 566.325 500.349 540.746C490.862 515.151 474.382 492.847 463.009 468.065C451.635 443.283 445.749 413.66 458.149 388.103C472.158 359.216 506.222 343.078 538.6 339.489C570.979 335.899 602.966 342.296 635.016 345.544C667.067 348.792 701.423 348.453 730.397 332.88C757.701 318.223 777.025 290.969 784.007 261.993C791.006 233.008 786.319 202.628 773.955 176.395C752.165 130.118 705.918 96.2071 653.242 87.9533C602.568 79.9931 549.899 94.5906 500.361 111.857C410.715 143.078 324.089 183.604 242.57 232.475C187.561 265.438 132.883 304.289 101.856 358.964C69.5562 415.842 67.6007 486.535 96.813 541.783C151.165 644.586 255.678 693.413 367.485 681.394L367.522 681.332Z" fill="url(#paint0_linear_1066_1042)" style="mix-blend-mode:screen"/>
</g>
<path opacity="0.2" d="M237.618 341.748L237.384 341.84L237.346 341.816C173.467 367.042 130.801 423.042 130.501 494.012C130.338 532.14 151.411 569.823 185.006 591.447L185.006 591.447C217.3 612.247 257.95 617.804 297.211 620.073L297.182 620.572L297.211 620.073C355.379 623.444 413.948 620.836 471.513 612.319L471.587 612.814L471.514 612.319C503.342 607.618 536.006 600.589 561.173 581.944L561.471 582.346L561.173 581.944C587.327 562.584 602.734 531.178 601.422 500.026L601.922 500.005L601.422 500.026C600.685 482.36 594.626 464.643 582.665 450.988L582.664 450.988C570.714 437.332 552.592 428.095 533.74 427.896C513.721 427.675 495.059 437.183 478.583 448.044C474.658 450.631 470.778 453.32 466.891 456.015C454.498 464.604 442.035 473.243 427.812 478.783C409.112 486.068 385.807 487.032 369.785 475.181C355.601 464.695 350.353 446.749 349.483 429.997C349.114 422.901 349.373 415.786 349.63 408.7C349.676 407.424 349.722 406.149 349.765 404.876C350.044 396.517 350.165 388.204 349.109 379.948C348.05 371.67 346.466 363.82 342.69 356.856C338.921 349.906 332.95 343.806 323.058 339.065C309.678 332.657 292.605 331.633 276.697 333.072C260.797 334.509 246.133 338.398 237.618 341.748Z" stroke="#2361A8"/>
<defs>
<linearGradient id="paint0_linear_1066_1042" x1="109.715" y1="566.349" x2="791.5" y2="209.569" gradientUnits="userSpaceOnUse">
<stop stop-color="#D0E2FF"/>
<stop offset="1" stop-color="#2361A8"/>
</linearGradient>
</defs>
</svg>
