<svg width="788" height="904" viewBox="0 0 788 904" fill="none" xmlns="http://www.w3.org/2000/svg">
<g opacity="0.15">
<path d="M777.962 1282.8C834.121 1276.76 960.205 1241.5 1015.21 1167.89C1055.87 1113.45 1045.89 1066.26 1028.05 1018.11C1010.18 969.915 979.156 927.921 957.743 881.263C936.329 834.604 925.247 778.831 948.593 730.713C974.968 676.325 1039.1 645.941 1100.06 639.182C1161.03 632.423 1221.25 644.468 1281.6 650.584C1341.94 656.699 1406.62 656.06 1461.18 626.739C1512.58 599.145 1548.97 547.831 1562.11 493.276C1575.29 438.703 1566.46 381.504 1543.19 332.113C1502.16 244.984 1415.09 181.137 1315.91 165.597C1220.5 150.61 1121.34 178.093 1028.07 210.602C859.285 269.384 696.188 345.686 542.706 437.699C439.136 499.762 336.189 572.909 277.773 675.849C216.959 782.938 213.277 916.037 268.277 1020.06C370.609 1213.61 567.385 1305.54 777.893 1282.92L777.962 1282.8Z" fill="url(#paint0_linear_1066_1041)" style="mix-blend-mode:screen"/>
</g>
<path opacity="0.2" d="M202.307 567.722L202.073 567.814L202.002 567.77C81.5558 615.261 1.06768 720.842 0.501761 854.671C0.195281 926.582 39.9246 997.633 103.248 1038.4L103.248 1038.4C164.107 1077.61 240.686 1088.07 314.558 1092.34L314.529 1092.84L314.558 1092.34C424.022 1098.69 534.243 1093.78 642.573 1077.75L642.646 1078.24L642.573 1077.75C702.458 1068.9 764.009 1055.66 811.453 1020.5L811.75 1020.9L811.453 1020.5C860.769 983.987 889.828 924.749 887.354 865.971C885.963 832.643 874.534 799.2 851.955 773.418L852.331 773.088L851.954 773.417C829.397 747.633 795.187 730.186 759.584 729.812C721.783 729.393 686.579 747.349 655.566 767.799C648.161 772.681 640.85 777.75 633.53 782.825C610.223 798.983 586.835 815.198 560.131 825.604C525.022 839.284 481.355 841.057 451.382 818.882C424.853 799.263 414.999 765.654 413.365 734.182C412.673 720.851 413.158 707.482 413.642 694.148C413.729 691.746 413.816 689.345 413.897 686.945C414.422 671.214 414.651 655.538 412.66 639.964C410.664 624.373 407.678 609.534 400.532 596.354C393.395 583.188 382.09 571.646 363.402 562.686C338.125 550.576 305.91 548.657 275.949 551.366C245.997 554.074 218.368 561.402 202.307 567.722Z" stroke="#2361A8"/>
<defs>
<linearGradient id="paint0_linear_1066_1041" x1="292.569" y1="1066.31" x2="1576.22" y2="394.573" gradientUnits="userSpaceOnUse">
<stop stop-color="#D0E2FF"/>
<stop offset="1" stop-color="#2361A8"/>
</linearGradient>
</defs>
</svg>
