<svg width="384" height="192" viewBox="0 0 384 192" fill="none" xmlns="http://www.w3.org/2000/svg">
<path d="M-6.53651 17.7551C-5.11272 69.6463 28.6889 117.047 70.3663 145.705C112.927 174.965 168.41 193.016 222 193.106C205.834 275.164 152.667 348.043 71.0332 376.396C30.2118 390.576 -13.8537 395.453 -57 391.87V0H-5.89662C-6.47336 5.83754 -6.69872 11.7559 -6.53651 17.7551Z" fill="#CBE2FF"/>
<path d="M264.529 -63.5989C260.93 -33.9869 271.163 -4.06745 290.112 18.5533C297.434 27.2946 306.094 35.0711 315.67 41.806C343.145 61.14 378.145 71.8958 410.606 72.1903C442.396 72.476 476.979 60.2372 496.625 33.9765C498.894 30.9393 500.936 27.8035 502.768 24.5824L293.166 -123.443C278.071 -106.799 267.333 -86.6388 264.534 -63.5956L264.529 -63.5989Z" fill="#AFD3FF"/>
<path d="M285.529 -82.5989C281.93 -52.9869 292.163 -23.0674 311.112 -0.446668C318.434 8.29462 327.094 16.0711 336.67 22.806C364.145 42.14 399.145 52.8958 431.606 53.1903C463.396 53.476 497.979 41.2372 517.625 14.9765C519.894 11.9393 521.936 8.80354 523.768 5.58243L314.166 -142.443C299.071 -125.799 288.333 -105.639 285.534 -82.5956L285.529 -82.5989Z" fill="#A2CBFF"/>
</svg>
