<svg width="182" height="104" viewBox="0 0 182 104" fill="none" xmlns="http://www.w3.org/2000/svg">
<path fill-rule="evenodd" clip-rule="evenodd" d="M88.4564 -117.987C53.8678 -118.501 18.9473 -103.444 1.34769 -78.5173L1.90736 -78.1231C19.3482 -102.825 54.0296 -117.814 88.4463 -117.303C122.862 -116.793 156.017 -101.548 176.85 -78.6966C189.031 -65.3323 197.084 -49.5838 200.992 -33.0955C190.354 -44.0143 176.946 -52.7927 161.091 -57.4497C150.417 -60.5861 139.09 -61.5407 127.922 -60.6173C124.271 -73.9302 114.794 -86.8507 99.5348 -91.545C80.5917 -97.3715 59.6157 -88.8316 44.3265 -77.9889C16.1426 -58.0004 -2.99994 -27.4649 0.38803 3.37975C3.91503 35.4832 31.7082 63.6242 66.584 77.23C74.6318 80.3705 83.1462 82.8344 91.8577 84.3398C109.517 95.1967 130.947 101.972 152.826 103.616C170.512 104.945 189.146 102.991 204.244 95.099C216.854 88.5054 226.136 78.2577 233.327 67.4252C241.502 55.1141 247.417 41.5521 248.718 27.4831C250.53 7.91082 243.47 -10.6549 231.632 -27.5868C219.793 -44.5179 203.162 -59.8378 185.783 -72.9332L185.371 -72.3872C202.718 -59.3151 219.289 -44.0452 231.07 -27.1952C242.851 -10.3462 249.829 8.06029 248.036 27.4201C246.749 41.3423 240.891 54.7968 232.756 67.0471C225.603 77.8233 216.399 87.9713 203.926 94.493C188.983 102.304 170.493 104.257 152.877 102.934C131.688 101.341 110.944 94.9167 93.6755 84.6395C102.93 86.0915 112.385 86.4464 121.72 85.3694C131.164 84.2786 140.257 81.7187 148.675 78.0156C154.388 79.8859 160.402 81.0914 166.517 81.5064C177.725 82.2669 189.309 80.6734 199.186 76.1386C215.023 68.8693 225.115 54.5293 228 39.6397C230.888 24.7519 227.239 9.4281 220.684 -4.5631C216.088 -14.3684 209.786 -23.8383 201.917 -32.133C198.086 -49.1377 189.893 -65.4023 177.356 -79.1571C156.392 -102.153 123.055 -117.474 88.4564 -117.987ZM160.898 -56.7935C177.021 -52.0576 190.602 -43.0221 201.29 -31.7993C203.813 -20.5041 204.399 -8.88345 203.043 2.5377C200.777 21.6189 193.14 40.4963 179.116 55.6702C170.928 64.5319 160.461 72.0437 148.639 77.2836C140.818 74.6929 133.575 70.8453 127.434 66.0724C116.788 57.7988 109.48 46.7655 108.19 34.706C106.904 22.6593 112.401 10.4852 121.888 1.33053C124.095 -0.799248 126.517 -2.76408 129.117 -4.52438C130.253 6.76336 133.755 17.9243 142.293 26.6042C147.83 32.2341 156.013 36.2616 164.506 37.7552C172.999 39.2486 181.848 38.2152 188.7 33.6629C199.78 26.2984 201.821 11.758 194.784 1.51144C187.768 -8.71349 173.39 -14.4595 159.37 -14.5335C148.473 -14.5922 138.192 -11.2276 129.693 -5.72582C129.439 -8.65189 129.339 -11.5862 129.347 -14.4886C129.359 -18.7475 129.563 -23.0025 129.767 -27.2656C129.908 -30.2222 130.05 -33.1829 130.128 -36.1512C130.318 -43.3778 130.129 -50.5976 128.621 -57.7357C128.465 -58.4724 128.292 -59.2095 128.101 -59.9459C139.145 -60.8454 150.343 -59.8946 160.898 -56.7935ZM129.763 -4.95496C129.546 -4.81284 129.331 -4.6693 129.117 -4.52438C129.091 -4.78251 129.066 -5.04069 129.043 -5.29891C129.258 -5.4426 129.475 -5.58491 129.693 -5.72582C129.715 -5.46879 129.738 -5.21182 129.763 -4.95496ZM129.763 -4.95496C138.216 -10.5053 148.483 -13.9081 159.366 -13.8495C173.244 -13.7762 187.37 -8.08296 194.219 1.89813C201.054 11.8506 199.062 25.9538 188.32 33.0934C181.655 37.5218 172.999 38.5539 164.625 37.0815C156.252 35.6091 148.206 31.6395 142.781 26.1248C134.299 17.5013 130.85 6.36201 129.763 -4.95496ZM129.043 -5.29891C126.292 -3.46331 123.735 -1.40247 121.413 0.83857C111.812 10.1025 106.195 22.4741 107.509 34.7785C108.824 47.07 116.263 58.2575 127.013 66.6123C133.028 71.2868 140.086 75.081 147.706 77.6912C139.545 81.2047 130.757 83.637 121.642 84.6898C111.811 85.8241 101.838 85.359 92.105 83.6882C80.4594 76.5104 70.4772 67.5499 63.1232 57.1185C44.6757 30.9573 44.479 -4.06395 64.9447 -29.1317C78.996 -46.3427 102.776 -57.7074 127.409 -59.8871C127.609 -59.1236 127.789 -58.359 127.951 -57.5947C129.442 -50.5338 129.633 -43.3758 129.443 -36.1692C129.366 -33.2357 129.225 -30.2852 129.084 -27.33L129.084 -27.3293L129.084 -27.3281C128.879 -23.0461 128.674 -18.7544 128.662 -14.4906C128.654 -11.453 128.763 -8.37321 129.043 -5.29891ZM166.563 80.8239C160.763 80.4303 155.054 79.3183 149.61 77.598C161.234 72.3356 171.529 64.8897 179.619 56.1342C193.753 40.8412 201.443 21.824 203.723 2.61824C205.043 -8.50246 204.535 -19.811 202.202 -30.829C209.653 -22.7935 215.649 -13.6915 220.064 -4.27304C226.584 9.64268 230.178 24.8141 227.327 39.5095C224.482 54.196 214.524 68.3454 198.9 75.517C189.148 79.9946 177.682 81.5784 166.563 80.8239ZM62.5633 57.5124C69.6687 67.5911 79.1991 76.2983 90.2975 83.3637C82.221 81.8496 74.3264 79.517 66.8332 76.5928C32.0988 63.0422 4.55828 35.0672 1.06879 3.30515C-2.28243 -27.2049 16.6574 -57.5266 44.723 -77.4311C59.9534 -88.2322 80.6982 -96.6231 99.3333 -90.8913C114.269 -86.2964 123.6 -73.6582 127.228 -60.5575C102.463 -58.3362 78.5663 -46.8988 64.4139 -29.564C43.7386 -4.23939 43.9536 31.1211 62.5633 57.5124Z" fill="#C3D8F5"/>
</svg>
