<svg width="333" height="657" viewBox="0 0 333 657" fill="none" xmlns="http://www.w3.org/2000/svg">
<circle opacity="0.1" cx="-65.5" cy="449.5" r="396.5" fill="#5781B2"/>
<circle opacity="0.2" cx="353.5" cy="353.5" r="353" transform="matrix(-1 0 0 1 321 0)" stroke="#A1A1A1"/>
<path opacity="0.2" d="M-638.5 397.5C-638.5 616.187 -454.507 793.5 -227.5 793.5C-0.493317 793.5 183.5 616.187 183.5 397.5C183.5 178.813 -0.493317 1.5 -227.5 1.5C-454.507 1.5 -638.5 178.813 -638.5 397.5Z" stroke="#A1A1A1"/>
<path opacity="0.2" d="M-489.5 477.5C-489.5 696.187 -305.507 873.5 -78.5 873.5C148.507 873.5 332.5 696.187 332.5 477.5C332.5 258.813 148.507 81.5 -78.5 81.5C-305.507 81.5 -489.5 258.813 -489.5 477.5Z" stroke="#A1A1A1"/>
</svg>
