<svg width="572" height="707" viewBox="0 0 572 707" fill="none" xmlns="http://www.w3.org/2000/svg">
<circle opacity="0.1" cx="155.5" cy="499.5" r="396.5" fill="#5781B2"/>
<circle opacity="0.2" cx="396.5" cy="396.5" r="396" transform="matrix(-1 0 0 1 572 0)" stroke="#A1A1A1"/>
<path opacity="0.2" d="M-467.5 447.5C-467.5 666.187 -283.507 843.5 -56.5 843.5C170.507 843.5 354.5 666.187 354.5 447.5C354.5 228.813 170.507 51.5 -56.5 51.5C-283.507 51.5 -467.5 228.813 -467.5 447.5Z" stroke="#A1A1A1"/>
<path opacity="0.2" d="M-267.5 527.5C-267.5 746.187 -83.5067 923.5 143.5 923.5C370.507 923.5 554.5 746.187 554.5 527.5C554.5 308.813 370.507 131.5 143.5 131.5C-83.5067 131.5 -267.5 308.813 -267.5 527.5Z" stroke="#A1A1A1"/>
</svg>
