<svg width="360" height="616" viewBox="0 0 360 616" fill="none" xmlns="http://www.w3.org/2000/svg">
<circle opacity="0.1" cx="-323.5" cy="417.5" r="396.5" fill="#5781B2"/>
<circle opacity="0.2" cx="353.5" cy="353.5" r="353" transform="matrix(-1 0 0 1 63 -32)" stroke="#A1A1A1"/>
<path opacity="0.2" d="M-747.5 445.5C-747.5 664.187 -563.507 841.5 -336.5 841.5C-109.493 841.5 74.5 664.187 74.5 445.5C74.5 226.813 -109.493 49.5 -336.5 49.5C-563.507 49.5 -747.5 226.813 -747.5 445.5Z" stroke="#A1A1A1"/>
<path opacity="0.2" d="M203.5 62C203.5 113.084 245.135 154.5 296.5 154.5C347.865 154.5 389.5 113.084 389.5 62C389.5 10.9162 347.865 -30.5 296.5 -30.5C245.135 -30.5 203.5 10.9162 203.5 62Z" stroke="#A1A1A1"/>
<circle opacity="0.2" cx="93" cy="93" r="92.5" transform="matrix(-1 0 0 1 432 -27)" stroke="#A1A1A1"/>
<circle opacity="0.2" cx="93" cy="93" r="92.5" transform="matrix(-1 0 0 1 383 -84)" stroke="#A1A1A1"/>
</svg>
