<svg width="582" height="303" viewBox="0 0 582 303" fill="none" xmlns="http://www.w3.org/2000/svg">
<path d="M1 287.16C15.5435 287.185 30.1431 287.293 44.8132 287.525C39.976 281.332 38.4516 274.737 39.0229 266.894C39.5932 259.053 42.0679 251.491 44.5251 244.023C50.5001 225.86 56.4751 207.697 62.45 189.532C65.7251 179.578 69.1597 169.332 76.0288 161.428C82.7181 153.729 92.4844 148.796 103.415 147.998C111.658 144.263 121.813 145.669 129.393 140.722C135.877 136.49 138.871 128.664 141.411 121.341C143.077 116.541 144.718 111.73 146.333 106.912C147.406 103.715 148.36 99.8465 146.209 97.2501C143.716 94.2382 138.455 95.3403 136.083 98.4471C133.709 101.555 133.486 105.769 133.624 109.679C133.73 112.737 134.313 116.301 137.01 117.737C141.151 119.94 145.59 115.121 147.143 110.688C148.696 106.257 150.092 100.758 154.591 99.432C156.781 98.787 159.189 99.3933 161.389 98.7783C166.884 97.2472 167.669 89.9664 170.31 84.9034C173.897 78.0264 182.927 74.5836 190.17 77.3311C191.086 93.8586 189.749 110.51 186.209 126.677C185.62 129.367 184.947 132.101 183.473 134.425C179.99 139.912 172.66 141.896 166.248 140.881C159.838 139.867 154.102 136.433 149.31 133.985C153.688 138.823 158.316 144.253 158.511 150.779C158.719 157.782 153.711 164.013 153.277 171.005C153.022 175.138 154.471 179.352 157.214 182.45C159.526 185.059 162.739 186.957 164.267 190.091C165.795 193.226 164.03 198.217 160.572 197.809C164.122 199.08 168.475 197.435 170.3 194.131C170.978 198.526 169.333 203.214 166.06 206.219C174.715 207.327 183.188 202.855 189.778 197.129C194.689 192.863 199.015 187.689 201.16 181.543C203.305 175.395 203.007 168.171 199.317 162.812C196.698 159.011 192.663 156.443 189.572 153.014C186.48 149.585 184.363 144.431 187.946 138.18C193.645 123.437 202.436 108.932 201.265 93.1671C200.488 82.7108 195.026 72.6951 186.664 66.3925C178.301 60.0898 167.181 57.6086 156.939 59.7596C146.904 61.8669 138.072 68.1657 131.515 76.0634C124.96 83.963 120.504 93.4034 116.979 103.049C112.243 116.011 108.411 130.5 97.3776 138.767C92.6874 142.283 86.1218 146.069 88.3934 151.216C100.18 148.732 112.009 146.455 123.875 144.388C128.176 157.947 136.361 170.245 147.204 179.433C149.574 175.604 151.942 171.776 154.31 167.948C155.307 174.791 156.306 181.636 157.303 188.479C153.703 186.089 150.338 183.343 147.27 180.298C144.225 184.817 140.127 188.618 135.395 191.312C124.736 179.414 118.357 163.749 116.582 148.772C106.963 148.711 97.3332 150.74 88.552 154.68C85.1648 156.2 81.3551 159.925 83.505 162.956C84.1826 163.913 85.3001 164.433 86.3325 164.986C94.8914 169.569 100.37 179.382 99.7866 189.088C99.3893 195.665 96.5018 201.789 93.916 207.848C87.7641 222.258 83.069 237.292 76.5237 253.882C99.3506 250.022 122.177 246.162 145.003 242.301C147.626 241.857 150.828 241.627 152.423 243.76C152.912 244.415 153.167 245.211 153.412 245.991C155.018 251.066 157.798 263.213 160.488 265.77C166.659 266.273 173.674 266.49 178.093 262.149C180.436 259.85 181.691 256.536 184.305 254.552C186.738 252.706 188.04 248.06 198.045 243.294C205.833 239.585 202.976 240.074 204.303 237.32C204.782 236.326 185.586 239.681 180.255 242.741C185.426 238.4 201.312 240.086 205.351 234.673C207.9 231.26 185.285 234.452 179.502 236.27C177.728 236.91 175.954 237.55 174.181 238.19C179.694 235.317 192.237 232.68 198.446 232.455C197.092 230.446 191.79 229.374 189.439 228.791C179.973 226.44 174.611 230.94 172.59 233.011C167.76 237.956 159.105 242.118 152.85 244.095C150.662 245.348 155.301 253.035 155.563 255.546C155.824 258.055 157.029 260.354 158.213 262.583C158.887 263.852 159.635 265.196 160.91 265.86C161.769 266.306 162.766 266.386 163.734 266.411C172.462 266.648 180.845 263.317 188.94 260.04C190.944 259.23 193.351 257.103 191.992 255.42C191.66 255.007 191.153 254.768 190.647 254.608C186.803 253.392 182.81 255.989 180.012 258.897C177.213 261.802 174.69 265.302 170.892 266.658C167.325 267.933 163.197 267.064 159.759 268.656C158.223 269.367 156.946 270.517 155.642 271.595C148.37 277.604 138.399 274.674 129.141 276.454C124.738 277.299 113.395 281.025 109.996 283.381C98.3791 287.435 86.3064 290.176 74.081 291.545C64.308 292.638 52.9854 292.256 46.6141 284.752C41.3506 278.556 41.6396 268.371 47.2444 262.483C52.2237 257.251 59.8951 255.842 67.032 254.77C89.074 251.457 111.205 248.737 136.248 246.541C145.177 246.391 154.381 246.183 162.55 242.57C171.914 238.427 179.163 229.766 181.599 219.805C182.867 214.628 182.887 209.232 182.921 203.298C191.451 198.764 197.678 190.111 199.275 180.569C201.802 180.23 203.608 182.883 204.722 185.178C213.306 202.87 219.774 221.591 223.939 240.815C223.428 232.39 226.643 224.235 229.867 216.437C234.534 205.148 239.342 193.915 246.425 182.558C250.939 185.771 255.85 188.428 261.009 190.444C262.449 191.006 264.039 191.526 265.515 191.062C267.516 190.432 268.542 188.293 269.617 186.489C273.523 179.933 280.478 180.23 285.068 174.136C291.955 164.992 296.906 157.88 292.048 157.442C290.395 157.294 284.035 163.398 278.69 168.751C286.027 162.084 298.674 150.298 293.715 147.263C291.407 145.85 283.758 160.427 274.35 164.919C278.602 162.167 279.229 160.695 282.425 156.762C285.62 152.827 292.612 146.442 289.287 142.619C287.206 140.227 275.73 153.181 269.588 160.72C275.941 155.411 281.928 144.51 277.558 141.924C275.086 140.46 272.461 148.297 268.017 154.187C267.259 155.191 265.157 155.566 264.859 156.787C264.598 157.854 264.71 158.97 264.821 160.062C265.228 164.028 265.635 164.287 266.042 168.254C265.712 159.595 259.568 141.6 256.777 143.81C254.607 145.531 254.823 149.55 255.221 152.296C255.619 155.039 254.074 162.1 253.812 164.86C253.278 170.509 246.728 175.362 247.071 181.026C247.383 186.23 255.272 186.929 260.118 188.83C261.328 189.305 262.636 189.847 263.289 190.975C263.939 192.096 263.764 193.496 263.559 194.778C259.92 217.644 252.192 239.571 243.976 261.212C236.237 281.595 219.807 290.214 203.265 270.386C199.893 266.344 192.366 251.827 187.56 249.689C186.526 253.877 183.132 257.001 180.916 260.704C176.46 268.148 176.656 279.128 177.329 287.783C187.15 287.832 339.872 286.198 350.091 285.628C344.835 284.3 339.66 282.648 334.607 280.683C330.227 278.978 325.323 276.244 324.806 271.566C324.529 269.068 325.634 266.641 326.769 264.399C329.724 258.563 333.551 252.527 339.681 250.275C344.08 248.661 348.988 249.288 353.497 250.552C365.977 254.052 377.661 262.304 390.562 261.076C384.25 266.212 378.145 276.32 377.163 284.785C382.714 288.95 392.833 285.968 398.088 281.431C398.639 280.955 399.251 280.406 399.976 280.463C400.586 280.51 401.068 280.978 401.506 281.404C403.447 283.3 405.632 284.939 407.991 286.274C408.578 286.604 409.271 286.923 409.899 286.683C411 286.261 410.877 284.667 410.493 283.55C408.808 278.651 405.989 274.149 402.322 270.496C404.203 274.225 406.398 277.797 408.869 281.162C409.746 282.358 410.731 283.58 412.115 284.108C413.5 284.635 415.374 284.152 415.859 282.749C416.132 281.951 415.909 281.074 415.656 280.267C414.394 276.228 412.43 272.41 409.884 269.033C412.467 274.985 415.571 281.468 421.546 283.979C423.746 279.078 420.738 273.529 417.834 269.009C419.422 274.466 421.874 279.669 425.074 284.363C427.783 280.477 427.866 274.931 425.269 270.966C425.929 274.332 426.589 277.697 427.248 281.062C429.847 281.805 432.8 281.145 434.838 279.368C435.739 278.583 436.485 277.542 436.619 276.355C436.824 274.523 435.526 272.828 433.994 271.809C432.463 270.79 427.266 271.367 426.054 269.981C419.492 262.485 414.57 261.471 408.654 260.43C401.84 259.232 399.11 262.737 391.217 263.315C374.816 261.46 360.097 251.555 343.185 250.21C340.27 251.242 337.354 252.274 334.436 253.309C353.084 234.172 361.53 206.808 380.348 187.838C386.384 181.754 402.331 171.399 413.191 171.349C411.626 167.464 410.062 163.578 408.499 159.692C411.898 158.725 414.898 156.411 416.699 153.364C410.453 156.879 403.318 158.791 396.156 158.87C393.543 158.9 390.808 158.649 388.607 157.241C384.512 154.622 383.653 149.072 383.448 144.209C382.806 128.969 384.685 113.621 390.237 97.0429C392.367 95.4188 394.497 93.7937 396.629 92.1706C400.57 94.1191 403.361 97.7585 406.006 101.274C408.825 105.022 411.647 108.769 414.467 112.517C415.767 114.244 417.095 116.025 417.699 118.104C418.306 120.194 418.133 122.424 418.409 124.585C418.948 128.846 421.327 132.842 424.812 135.344C422.939 131.231 421.019 126.83 421.653 122.353C422.285 117.876 426.627 113.627 430.969 114.865C432.982 115.439 434.562 117.045 435.654 118.834C439.773 125.577 437.051 135.55 431.498 138.782C436.412 145.588 441.394 152.516 444.165 160.443C446.94 168.369 447.243 177.579 443.004 184.825C448.642 182.872 452.934 177.487 453.585 171.547C454.114 175.033 458.366 176.909 461.802 176.143C465.239 175.375 467.942 172.786 470.354 170.218C473.097 167.301 475.811 164.074 476.598 160.146C477.874 153.773 473.824 147.728 470.737 142.01C463.816 129.19 461.128 114.551 455.768 101.001C450.41 87.4523 441.15 74.0693 427.171 70.0299C411.889 65.6138 395.611 73.7323 383.896 84.5111C380.505 87.6305 377.267 91.0898 375.475 95.3384C373.009 101.19 373.55 107.849 372.084 114.028C368.8 127.881 355.526 139.782 358.519 153.7C359.76 159.479 363.729 164.338 365.283 170.041C366.836 175.744 364.25 183.545 358.356 183.813C363.072 184.636 368.011 185.447 372.564 183.97C377.118 182.495 381.059 177.925 380.109 173.226C379.143 176.826 378.174 180.429 377.207 184.031C384.931 182.572 389.007 182.99 396.695 177.782C401.003 176.664 406.991 168.809 411.298 167.69C411.079 177.384 416.174 190.486 422.397 197.912C422.75 198.334 423.148 198.77 423.684 198.893C424.553 199.091 425.348 198.398 425.968 197.754C434.629 188.778 442.539 179.075 449.586 168.778C452.991 180.691 448.513 193.278 444.093 204.851C443.922 205.298 443.715 205.785 443.281 205.986C442.822 206.199 442.284 206.007 441.814 205.815C435.753 203.336 429.693 200.857 423.632 198.375C420.581 201.971 416.932 205.054 412.878 207.457C407.048 197.388 405.503 184.919 407.463 175.5C403.332 198.369 399.293 222.513 407.188 244.366C409.392 250.468 412.475 256.204 416.151 260.463C421.106 265.883 426.059 271.304 431.013 276.724C436.044 276.113 437.995 269.949 438.817 264.939C443.832 234.414 450.526 195.469 455.541 164.947C467.598 168.346 483.03 167.811 494.162 173.562C499.218 176.173 503.134 180.514 506.805 184.866C524.283 205.577 535.582 233.721 545.576 261.02C545.485 268.576 548.64 276.755 544.891 283.312C542.33 287.79 537.082 290.134 531.963 290.711C522.599 291.769 513.238 287.836 505.768 282.079C498.299 276.324 492.383 268.835 486.352 261.58C451.01 219.074 461.891 246.238 478.417 216.574C474.961 213.861 466.947 205.856 463.633 202.967C460.319 200.078 455.871 197.895 451.613 198.973C448.369 199.793 445.878 202.323 443.565 204.745C441.175 207.247 438.07 209.619 437.381 213.014C436.423 217.742 448.077 207.846 452.909 204.357C448.765 206.431 444.955 209.17 441.667 212.438C440.691 213.407 433.208 222.056 455.97 210.091C455.331 211.509 453.094 212 451.715 212.715C449.864 213.675 448.193 219.582 448.283 221.666C448.376 223.751 448.067 226.713 449.432 228.29C450.321 229.317 454.611 220.13 455.607 219.205C456.285 218.575 454.754 218.398 456.416 218.241C458.736 218.025 453.564 221.571 454.459 223.726C455.356 225.88 460.014 229.864 463.689 229.922C470.738 229.418 477.266 224.432 479.62 217.758C489.694 227.316 501.079 235.483 513.355 241.959C520.712 245.842 528.477 249.174 534.864 254.509C541.253 259.841 546.205 267.742 545.513 276.097C546.084 278.223 545.515 280.463 545.313 282.656C545.112 284.848 545.447 287.375 547.232 288.658C548.508 289.576 550.193 289.613 551.763 289.617C554.02 289.622 564.917 289.625 581 289.63" stroke="#4D4C4C" stroke-linecap="round" stroke-linejoin="round"/>
<path opacity="0.2" d="M183.391 208.278C187.623 190.842 146.869 230.985 135.843 190.387C124.129 177.313 129.769 181.085 124.129 174.561C115.171 135.34 56.4548 154.192 97.2533 174.561C102.077 226.49 57.9749 255.818 91.0516 250.251C156.516 234.425 172.366 253.69 183.391 208.278Z" fill="#7EABE1"/>
<path opacity="0.2" d="M445.937 221.839C455.584 169.744 439.409 197.181 425.794 197.131C412.178 197.081 404.705 160.981 402.524 221.839C402.524 242.681 419.063 270.204 432.156 274.333C436.29 272.957 439.735 270.204 445.937 221.839Z" fill="#7EABE1"/>
<path opacity="0.1" d="M302.717 245.415C305.704 244.041 307.009 240.509 305.631 237.525C304.254 234.542 300.715 233.238 297.728 234.612C294.741 235.987 293.436 239.519 294.813 242.502C296.191 245.485 299.73 246.789 302.717 245.415Z" fill="#7EABE1"/>
<path opacity="0.1" d="M529.333 99.4793C539.484 94.8394 543.918 82.9128 539.236 72.8406C534.554 62.7685 522.53 58.3647 512.38 63.0047C502.229 67.6446 497.795 79.5711 502.477 89.6433C507.158 99.7155 519.182 104.119 529.333 99.4793Z" fill="#7EABE1"/>
<path opacity="0.1" d="M273.592 64.2659C278.933 61.8244 281.266 55.5488 278.803 50.249C276.339 44.9492 270.012 42.632 264.671 45.0735C259.33 47.5149 256.997 53.7905 259.46 59.0903C261.924 64.3901 268.251 66.7073 273.592 64.2659Z" fill="#7EABE1"/>
</svg>
