<svg width="595" height="360" viewBox="0 0 595 360" fill="none" xmlns="http://www.w3.org/2000/svg">
<path d="M1.46436 342.063C16.3222 342.089 31.2373 342.199 46.2245 342.435C41.2827 336.119 39.7254 329.393 40.309 321.393C40.8917 313.394 43.4198 305.682 45.9302 298.065C52.0343 279.539 58.1384 261.013 64.2425 242.485C67.5884 232.332 71.0972 221.881 78.1147 213.82C84.9487 205.967 94.926 200.935 106.093 200.121C114.514 196.312 124.889 197.746 132.632 192.7C139.257 188.383 142.315 180.401 144.91 172.932C146.612 168.036 148.289 163.129 149.939 158.215C151.035 154.954 152.009 151.008 149.812 148.36C147.265 145.288 141.89 146.412 139.467 149.581C137.041 152.751 136.813 157.049 136.955 161.037C137.063 164.156 137.659 167.792 140.414 169.256C144.645 171.503 149.18 166.588 150.766 162.067C152.353 157.546 153.779 151.938 158.375 150.585C160.612 149.928 163.072 150.546 165.32 149.919C170.933 148.357 171.735 140.931 174.433 135.767C178.098 128.752 187.323 125.241 194.723 128.043C195.659 144.901 194.293 161.885 190.677 178.375C190.074 181.118 189.387 183.907 187.881 186.277C184.323 191.874 176.834 193.898 170.284 192.862C163.735 191.828 157.875 188.325 152.98 185.829C157.452 190.763 162.181 196.301 162.379 202.958C162.593 210.101 157.476 216.456 157.033 223.588C156.772 227.804 158.252 232.102 161.055 235.262C163.416 237.923 166.699 239.859 168.26 243.056C169.821 246.253 168.018 251.343 164.485 250.927C168.112 252.224 172.559 250.546 174.423 247.176C175.116 251.659 173.436 256.44 170.092 259.505C178.934 260.635 187.59 256.075 194.323 250.234C199.34 245.883 203.759 240.605 205.95 234.336C208.142 228.066 207.838 220.698 204.068 215.232C201.392 211.354 197.27 208.735 194.111 205.238C190.953 201.74 188.791 196.483 192.45 190.107C198.273 175.07 207.254 160.276 206.058 144.195C205.264 133.53 199.684 123.314 191.141 116.886C182.598 110.457 171.237 107.927 160.773 110.121C150.522 112.27 141.499 118.695 134.801 126.75C128.104 134.807 123.551 144.436 119.95 154.275C115.112 167.495 111.197 182.274 99.925 190.707C95.1334 194.292 88.4259 198.154 90.7466 203.404C102.788 200.87 114.873 198.548 126.995 196.44C131.389 210.269 139.751 222.813 150.829 232.184C153.249 228.279 155.669 224.375 158.088 220.47C159.106 227.45 160.127 234.431 161.146 241.411C157.468 238.973 154.03 236.173 150.896 233.067C147.785 237.676 143.598 241.553 138.764 244.3C127.875 232.165 121.358 216.187 119.545 200.911C109.718 200.848 99.8796 202.919 90.9086 206.937C87.4482 208.488 83.5562 212.287 85.7525 215.379C86.4448 216.355 87.5864 216.885 88.6411 217.449C97.385 222.123 102.982 232.133 102.386 242.032C101.98 248.74 99.0303 254.987 96.3885 261.167C90.1037 275.865 85.3071 291.2 78.6204 308.121C101.941 304.183 125.261 300.246 148.58 296.309C151.259 295.855 154.531 295.621 156.16 297.796C156.659 298.465 156.92 299.277 157.171 300.072C158.811 305.248 161.651 317.638 164.4 320.246C170.703 320.759 177.87 320.981 182.385 316.552C184.778 314.207 186.061 310.828 188.731 308.804C191.217 306.921 192.547 302.182 202.768 297.321C210.724 293.538 207.806 294.037 209.161 291.227C209.651 290.214 190.04 293.636 184.593 296.757C189.877 292.33 206.105 294.049 210.232 288.528C212.837 285.047 189.733 288.302 183.824 290.157C182.012 290.809 180.2 291.462 178.389 292.115C184.021 289.185 196.834 286.495 203.177 286.266C201.795 284.216 196.378 283.123 193.976 282.529C184.305 280.13 178.828 284.721 176.763 286.833C171.828 291.876 162.987 296.122 156.596 298.138C154.361 299.416 159.101 307.256 159.368 309.818C159.635 312.377 160.865 314.722 162.075 316.995C162.763 318.29 163.528 319.661 164.83 320.338C165.708 320.793 166.726 320.874 167.716 320.9C176.632 321.142 185.197 317.744 193.467 314.402C195.514 313.575 197.973 311.406 196.584 309.689C196.245 309.268 195.727 309.024 195.211 308.861C191.283 307.621 187.203 310.27 184.346 313.235C181.486 316.199 178.908 319.769 175.028 321.152C171.384 322.452 167.167 321.565 163.654 323.189C162.086 323.914 160.78 325.088 159.448 326.187C152.02 332.317 141.833 329.327 132.375 331.143C127.877 332.005 116.289 335.805 112.816 338.209C100.948 342.344 88.6145 345.139 76.1248 346.536C66.1406 347.651 54.5733 347.261 48.0643 339.607C42.6871 333.288 42.9823 322.899 48.7082 316.893C53.7951 311.557 61.6324 310.12 68.9235 309.026C91.4419 305.647 114.051 302.872 139.636 300.633C148.758 300.48 158.16 300.268 166.506 296.582C176.073 292.357 183.478 283.523 185.967 273.363C187.262 268.082 187.282 262.578 187.317 256.526C196.031 251.901 202.393 243.075 204.025 233.343C206.606 232.997 208.451 235.704 209.589 238.045C218.359 256.09 224.967 275.185 229.222 294.792C228.7 286.199 231.984 277.881 235.278 269.928C240.046 258.413 244.958 246.955 252.194 235.372C256.806 238.649 261.822 241.359 267.093 243.415C268.565 243.989 270.188 244.519 271.696 244.045C273.74 243.403 274.789 241.221 275.887 239.381C279.877 232.695 286.983 232.997 291.671 226.782C298.708 217.455 303.766 210.201 298.803 209.754C297.114 209.603 290.617 215.829 285.157 221.289C292.652 214.489 305.572 202.467 300.506 199.372C298.148 197.93 290.333 212.799 280.722 217.381C285.066 214.574 285.707 213.072 288.971 209.061C292.236 205.047 299.379 198.535 295.982 194.635C293.856 192.195 282.132 205.408 275.858 213.098C282.348 207.683 288.464 196.564 284 193.926C281.474 192.433 278.793 200.426 274.252 206.434C273.478 207.459 271.331 207.841 271.027 209.086C270.76 210.174 270.873 211.313 270.987 212.426C271.403 216.472 271.819 216.736 272.234 220.782C271.898 211.95 265.621 193.596 262.77 195.85C260.552 197.605 260.774 201.705 261.18 204.505C261.586 207.304 260.008 214.506 259.741 217.321C259.195 223.083 252.503 228.032 252.853 233.809C253.172 239.117 261.232 239.831 266.183 241.77C267.419 242.254 268.755 242.807 269.422 243.957C270.086 245.1 269.908 246.529 269.698 247.836C265.98 271.158 258.086 293.524 249.691 315.597C241.786 336.387 225 345.179 208.101 324.955C204.656 320.831 196.967 306.024 192.056 303.843C191 308.116 187.532 311.302 185.269 315.079C180.716 322.672 180.917 333.871 181.604 342.699C191.638 342.749 347.66 341.082 358.101 340.5C352.73 339.146 347.444 337.461 342.282 335.457C337.807 333.718 332.797 330.93 332.269 326.158C331.986 323.61 333.114 321.135 334.274 318.848C337.293 312.896 341.203 306.739 347.466 304.441C351.959 302.795 356.974 303.434 361.58 304.725C374.329 308.294 386.266 316.71 399.446 315.458C392.998 320.697 386.761 331.007 385.757 339.641C391.429 343.89 401.767 340.847 407.135 336.22C407.698 335.734 408.323 335.174 409.064 335.233C409.687 335.281 410.179 335.758 410.627 336.193C412.609 338.126 414.842 339.798 417.251 341.159C417.851 341.496 418.559 341.822 419.201 341.577C420.326 341.146 420.2 339.521 419.807 338.382C418.086 333.384 415.206 328.792 411.46 325.066C413.382 328.87 415.624 332.513 418.148 335.946C419.045 337.166 420.051 338.412 421.464 338.951C422.88 339.488 424.794 338.995 425.289 337.564C425.569 336.75 425.341 335.856 425.083 335.033C423.793 330.913 421.786 327.019 419.185 323.575C421.825 329.646 424.996 336.258 431.1 338.819C433.347 333.82 430.274 328.16 427.308 323.55C428.929 329.116 431.435 334.423 434.704 339.21C437.472 335.247 437.557 329.59 434.903 325.546C435.578 328.979 436.251 332.411 436.925 335.844C439.58 336.602 442.597 335.928 444.679 334.115C445.599 333.315 446.362 332.253 446.498 331.042C446.707 329.173 445.382 327.445 443.817 326.406C442.253 325.366 436.943 325.955 435.705 324.542C429.001 316.895 423.973 315.861 417.929 314.799C410.968 313.577 408.179 317.153 400.115 317.742C383.359 315.85 368.323 305.747 351.046 304.375C348.067 305.428 345.088 306.481 342.107 307.536C361.158 288.017 369.786 260.106 389.011 240.757C395.178 234.552 411.469 223.99 422.565 223.939C420.966 219.976 419.368 216.013 417.771 212.049C421.243 211.063 424.308 208.702 426.147 205.595C419.767 209.18 412.478 211.13 405.161 211.21C402.491 211.241 399.698 210.985 397.449 209.549C393.266 206.878 392.388 201.217 392.178 196.257C391.523 180.712 393.442 165.058 399.114 148.149C401.29 146.492 403.466 144.835 405.644 143.179C409.67 145.166 412.521 148.879 415.224 152.464C418.104 156.287 420.986 160.109 423.868 163.932C425.195 165.694 426.552 167.51 427.17 169.63C427.79 171.762 427.613 174.037 427.894 176.24C428.445 180.587 430.876 184.663 434.436 187.215C432.523 183.02 430.561 178.531 431.209 173.965C431.855 169.398 436.291 165.064 440.726 166.327C442.783 166.913 444.396 168.55 445.512 170.375C449.72 177.253 446.939 187.425 441.267 190.721C446.287 197.664 451.377 204.729 454.208 212.815C457.042 220.899 457.352 230.293 453.021 237.684C458.781 235.693 463.166 230.2 463.831 224.14C464.372 227.696 468.715 229.61 472.226 228.829C475.737 228.045 478.498 225.405 480.963 222.785C483.765 219.81 486.538 216.519 487.341 212.512C488.645 206.011 484.507 199.846 481.354 194.014C474.283 180.938 471.537 166.007 466.062 152.186C460.588 138.366 451.128 124.716 436.847 120.596C421.234 116.092 404.604 124.372 392.636 135.367C389.171 138.548 385.864 142.077 384.033 146.41C381.514 152.378 382.067 159.17 380.569 165.473C377.214 179.603 363.653 191.742 366.71 205.937C367.978 211.832 372.033 216.788 373.62 222.604C375.207 228.422 372.565 236.378 366.544 236.652C371.362 237.491 376.408 238.318 381.059 236.812C385.712 235.307 389.738 230.646 388.767 225.853C387.78 229.526 386.79 233.2 385.803 236.874C393.693 235.386 397.858 235.812 405.712 230.501C410.112 229.36 416.23 221.348 420.63 220.207C420.407 230.095 425.611 243.459 431.969 251.033C432.329 251.463 432.736 251.907 433.283 252.033C434.171 252.235 434.984 251.528 435.617 250.871C444.466 241.716 452.547 231.82 459.746 221.316C463.224 233.467 458.649 246.306 454.134 258.111C453.959 258.566 453.748 259.063 453.304 259.268C452.835 259.485 452.286 259.289 451.806 259.093C445.614 256.565 439.423 254.036 433.231 251.505C430.113 255.173 426.385 258.317 422.245 260.769C416.289 250.498 414.709 237.78 416.712 228.173C412.492 251.498 408.365 276.125 416.431 298.415C418.682 304.639 421.833 310.489 425.588 314.833C430.65 320.361 435.71 325.891 440.771 331.419C445.911 330.795 447.904 324.509 448.744 319.398C453.867 288.264 460.706 248.541 465.829 217.409C478.147 220.876 493.913 220.331 505.285 226.196C510.45 228.859 514.451 233.287 518.202 237.726C536.057 258.85 547.6 287.557 557.81 315.402C557.717 323.108 560.94 331.45 557.111 338.139C554.495 342.706 549.133 345.097 543.903 345.685C534.336 346.764 524.773 342.753 517.142 336.881C509.511 331.011 503.467 323.372 497.306 315.973C461.201 272.617 472.317 300.324 489.2 270.068C485.669 267.3 477.482 259.135 474.096 256.188C470.711 253.242 466.166 251.015 461.816 252.115C458.503 252.951 455.958 255.531 453.595 258.002C451.152 260.554 447.98 262.974 447.277 266.437C446.299 271.259 458.204 261.165 463.14 257.607C458.907 259.722 455.015 262.515 451.655 265.849C450.659 266.837 443.014 275.659 466.268 263.455C465.615 264.901 463.329 265.402 461.921 266.131C460.03 267.11 458.322 273.135 458.415 275.261C458.51 277.387 458.194 280.409 459.588 282.017C460.497 283.065 464.879 273.694 465.897 272.751C466.589 272.109 465.026 271.928 466.723 271.768C469.093 271.548 463.81 275.164 464.724 277.363C465.64 279.56 470.399 283.623 474.154 283.682C481.355 283.168 488.024 278.083 490.429 271.275C500.72 281.024 512.351 289.354 524.892 295.96C532.409 299.92 540.342 303.319 546.867 308.76C553.393 314.198 558.453 322.258 557.746 330.78C558.329 332.948 557.748 335.232 557.541 337.469C557.337 339.705 557.678 342.282 559.502 343.591C560.806 344.528 562.527 344.565 564.131 344.569C566.437 344.574 577.569 344.578 594 344.583" stroke="#4D4C4C" stroke-linecap="round" stroke-linejoin="round"/>
<path opacity="0.2" d="M187.95 261.923C192.273 244.107 150.654 285.127 139.393 243.642C127.431 230.282 133.19 234.137 127.431 227.471C118.282 187.392 58.3199 206.656 99.9845 227.471C104.91 280.534 59.8723 310.502 93.6511 304.814C160.505 288.642 176.691 308.328 187.95 261.923Z" fill="#7EABE1"/>
<path opacity="0.2" d="M456.07 275.781C465.922 222.548 449.404 250.585 435.499 250.533C421.595 250.482 413.963 213.594 411.736 275.781C411.736 297.079 428.625 325.203 441.996 329.422C446.219 328.016 449.737 325.203 456.07 275.781Z" fill="#7EABE1"/>
<path opacity="0.1" d="M308.345 300.854C311.412 299.442 312.751 295.814 311.337 292.75C309.923 289.686 306.29 288.347 303.224 289.758C300.158 291.17 298.818 294.798 300.233 297.862C301.647 300.926 305.279 302.265 308.345 300.854Z" fill="#7EABE1"/>
<path opacity="0.1" d="M509.601 143.254C519.752 138.581 524.186 126.57 519.504 116.426C514.823 106.283 502.798 101.848 492.648 106.521C482.497 111.193 478.063 123.205 482.745 133.348C487.426 143.492 499.45 147.927 509.601 143.254Z" fill="#7EABE1"/>
<path opacity="0.1" d="M233.702 107.781C239.043 105.322 241.376 99.0017 238.913 93.6643C236.449 88.3269 230.123 85.9932 224.781 88.452C219.44 90.9108 217.107 97.2309 219.571 102.568C222.034 107.906 228.361 110.239 233.702 107.781Z" fill="#7EABE1"/>
</svg>
