<svg width="542" height="369" viewBox="0 0 542 369" fill="none" xmlns="http://www.w3.org/2000/svg">
<g clip-path="url(#clip0_523_7820)">
<path d="M-21.7822 352.315H33.5204C33.5204 352.315 34.3754 349.083 39.6013 345.566C44.8273 342.049 48.5333 343.475 50.8143 339.483C53.0953 335.491 58.3213 324.941 58.7013 316.576C59.0813 308.212 59.8412 302.224 62.1223 295.665C64.4033 289.106 69.1543 277.891 71.0542 278.271C72.9541 278.651 89.773 283.308 90.6291 284.83C91.4852 286.351 89.7742 293.004 87.1131 298.422C84.4521 303.839 69.3443 341.385 68.3943 344.046C67.4443 346.708 67.0644 352.981 65.2583 352.981C63.4522 352.981 40.2674 355.453 40.2674 352.031C40.2674 348.609 52.7154 342.146 55.5664 342.146C58.4174 342.146 64.3083 344.141 66.3994 342.431C68.4893 340.721 80.8422 306.312 83.5983 300.418C86.3543 294.526 89.0142 286.256 86.0693 285.21C83.1233 284.165 65.8294 281.218 65.6394 279.222C65.4494 277.227 71.4353 255.65 75.0463 247.856C78.6573 240.061 77.8973 238.446 84.9282 235.499C91.9602 232.552 97.0437 231.364 98.0411 231.935C99.0386 232.505 106.451 240.061 123.697 236.497C140.943 232.932 144.792 227.657 148.498 227.515C152.204 227.372 156.907 229.368 159.045 224.805C161.182 220.243 158.19 213.827 159.045 208.124C159.9 202.421 158.902 201.28 156.194 195.435C153.485 189.589 150.778 179.751 146.929 175.189C143.081 170.626 139.517 168.629 139.517 171.766C139.517 174.903 134.956 180.178 135.241 186.166C135.526 192.154 141.37 196.004 141.227 200.281C141.085 204.558 134.956 204.416 137.236 210.546C139.517 216.676 143.08 218.958 141.94 218.53C140.8 218.103 136.381 211.971 133.53 214.253C130.679 216.535 125.121 222.522 132.39 224.233C139.66 225.943 144.411 226.752 142.795 222.76C141.18 218.768 139.116 216.809 135.668 216.106C132.219 215.405 126.926 221.143 125.216 225.706C123.506 230.268 119.135 237.967 111.913 236.351C104.691 234.735 97.85 227.416 93.384 227.511C88.9181 227.606 87.2081 226.941 85.3071 222.569C83.4071 218.197 76.7551 213.539 77.9901 204.319C79.225 195.1 74.9491 189.872 81.6961 193.579C88.4431 197.286 114.954 206.316 111.723 206.886C108.492 207.456 82.0761 198.807 80.2711 194.34C78.4662 189.872 79.4162 187.59 89.868 176.185C100.32 164.779 120.75 160.121 130.347 163.448C139.944 166.775 142.13 173.238 141.084 176.85C140.039 180.462 137.378 183.599 137.758 186.545C138.138 189.491 141.939 191.108 140.989 194.815C140.039 198.522 133.767 200.422 129.681 209.927C125.595 219.432 121.509 228.081 117.993 230.268C114.477 232.455 96.8028 230.268 98.0377 235.971C99.2727 241.673 114.667 249.943 126.163 244.715C137.661 239.488 145.595 234.403 147.923 231.884C150.252 229.364 152.057 229.412 152.532 230.173C153.007 230.933 155.62 233.025 153.624 235.021C151.629 237.016 147.067 238.538 144.882 250.799C142.696 263.061 118.466 295.948 111.149 302.507C103.832 309.066 101.838 314.103 106.969 321.421C112.099 328.741 108.868 319.996 111.529 311.917C114.191 303.837 115.615 300.225 125.117 291.005C134.619 281.786 143.266 271.616 145.167 261.064C147.067 250.514 154.289 232.169 159.325 232.549C164.361 232.929 172.153 242.766 171.013 245.476C169.873 248.185 160.609 261.444 156.333 274.134C152.057 286.823 138.089 314.767 133.385 320.186C128.682 325.604 123.836 331.021 121.84 332.305C119.845 333.588 107.445 337.01 104.024 338.578C100.603 340.146 98.6077 342 95.4717 343.425C92.3357 344.851 85.7798 350.412 87.2047 351.552C88.6297 352.693 95.4717 353.405 97.8941 350.127C100.318 346.847 104.165 341.857 103.738 344.282C103.31 346.706 99.5565 347.941 99.5565 351.648C99.5565 355.356 104.307 355.18 105.827 353.842C107.347 352.504 110.578 343.949 110.768 346.136C110.958 348.323 108.202 350.983 108.773 353.645C109.343 356.307 114.569 356.687 116.945 352.79C119.321 348.893 120.461 343.475 121.031 344.806C121.601 346.136 117.895 354.008 119.131 355.68C120.366 357.352 126.068 358.017 127.873 353.55C129.678 349.083 128.728 345.186 130.249 346.706C131.769 348.226 132.339 349.748 132.339 351.458C132.339 353.169 130.153 355.546 132.624 355.831C135.095 356.116 138.515 355.261 138.8 352.694C139.085 350.127 136.805 344.424 137.945 344.709C139.085 344.994 135.748 352.722 137.09 353.264C138.433 353.806 142.981 355.259 145.642 350.982C148.303 346.705 147.447 343.948 148.873 342.143C150.298 340.337 183.081 297.564 183.841 299.465C184.601 301.365 186.312 314.292 190.302 321.326C194.293 328.36 199.614 336.344 199.424 337.485C199.234 338.625 211.967 343.441 212.98 345.406C213.993 347.37 214.057 347.37 215.134 347.561C216.211 347.751 216.591 351.173 214.438 351.3C212.283 351.427 209.624 351.744 208.104 349.843C206.584 347.942 206.394 346.294 205.696 347.245C204.999 348.195 203.415 352.884 200.375 353.201C197.335 353.517 179.913 354.214 178.71 351.934C177.507 349.652 182.194 345.724 181.498 343.696C180.801 341.669 167.688 322.404 168.068 320.884C168.448 319.364 196.955 286.967 202.513 272.995C208.072 259.022 227.552 232.361 233.823 223.996C240.094 215.632 245.226 200.615 242.375 200.234C239.524 199.854 237.244 203.086 228.882 199.474C220.52 195.862 208.737 185.787 205.887 189.969C203.036 194.152 173.009 241.297 174.72 241.107C176.43 240.917 207.788 194.532 206.837 192.251C205.886 189.971 200.566 190.731 202.466 185.027C204.366 179.324 219 128.947 234.203 122.675C249.406 116.402 256.058 117.732 277.532 114.31C299.007 110.888 319.152 106.516 319.152 104.615C319.152 102.715 311.55 100.686 308.764 94.6035C305.976 88.5208 304.709 87.7595 301.542 88.2674C298.374 88.7742 292.99 94.2868 290.329 94.0967C287.668 93.9067 282.157 90.0412 279.813 84.3385C277.469 78.6359 269.108 70.8415 264.103 69.8279C259.099 68.8143 255.804 75.1505 256.248 78.0657C256.691 80.981 258.719 70.9049 263.343 73.8201C267.967 76.7354 273.731 81.9946 269.995 89.1554C266.257 96.3163 265.117 98.6602 264.041 95.7461C262.964 92.8309 267.177 91.6906 266.797 84.6564C266.417 77.6223 261.951 73.8201 260.24 76.577C258.53 79.3339 253.683 82.4697 254.064 86.2718C254.444 90.074 251.498 94.6364 250.168 94.2562C248.838 93.8761 250.833 89.4088 246.937 82.9448C243.041 76.482 235.914 74.7704 234.109 71.8235C232.304 68.8765 234.774 57.6613 230.593 57.6613C226.412 57.6613 224.417 58.6115 223.466 61.7485C222.516 64.8855 221.471 85.3205 224.986 90.5491C228.502 95.7767 229.262 105.662 229.642 107.943C230.022 110.225 235.343 106.138 236.579 107.183C237.814 108.228 238.86 110.035 241.14 113.076C243.421 116.118 241.33 117.543 251.117 116.783C260.904 116.023 267.84 112.411 269.075 109.464C270.31 106.517 276.772 77.8123 273.636 71.4434C270.5 65.0755 255.678 66.0258 254.348 69.7329C253.018 73.44 250.642 80.9493 247.601 76.8621C244.56 72.7748 236.198 68.7826 235.913 64.2203C235.628 59.6579 228.501 64.4103 219.759 59.3729C211.017 54.3354 224.32 36.7512 238.668 29.3369C253.015 21.9227 268.314 11.4676 279.907 18.5968C291.5 25.7259 282.188 44.8306 278.767 42.55C275.346 40.2682 278.862 25.7259 290.835 29.9082C302.808 34.0904 309.839 51.0095 307.369 65.2667C304.899 79.5239 304.708 90.5027 306.134 94.4949C307.559 98.4871 315.256 108.039 320.672 106.186C326.088 104.333 346.133 102.915 346.276 104.483C346.418 106.051 334.22 119.829 327.225 137.656C320.821 153.97 296.917 184.65 282.473 191.875C268.031 199.099 237.054 219.249 238.384 210.504C239.714 201.759 247.886 194.155 248.456 170.013C249.026 145.87 250.546 143.969 251.877 151.193C253.207 158.418 245.035 207.083 247.506 206.703C249.977 206.323 271.34 195.202 281.903 186.587C293.302 177.292 314.202 160.285 324.231 138.94C333.209 119.829 334.782 103.051 341.196 101.91C347.609 100.77 387.377 102.338 396.689 128.002C406 153.665 404.29 164.69 406.95 170.774C409.611 176.857 402.389 168.303 393.268 169.634C384.146 170.964 378.635 179.329 377.114 178.189C375.594 177.048 391.176 134.656 391.746 140.168C392.316 145.681 375.593 180.659 372.743 192.256C369.892 203.852 362.291 255.75 361.15 269.722C360.01 283.694 362.575 287.971 364.143 296.098C365.711 304.225 357.73 336.874 319.959 339.013C282.187 341.153 241.994 331.599 230.591 323.33C219.188 315.06 215.054 273.857 218.048 267.44C221.041 261.025 225.032 263.59 226.457 254.038C227.882 244.486 229.878 228.517 230.876 231.084C231.873 233.651 229.166 267.725 224.462 273.429C219.759 279.132 215.625 276.281 213.202 286.403C210.778 296.526 211.919 329.176 221.611 338.016C231.303 346.855 282.045 348.138 292.592 347.14C303.138 346.143 340.91 349.565 347.039 344.574C353.168 339.584 369.987 323.045 361.15 301.801C352.313 280.557 355.306 255.749 344.616 269.294C333.926 282.839 324.946 305.508 304.28 307.22C283.612 308.93 315.968 301.232 328.225 282.554C340.483 263.877 358.3 230.514 361.151 216.256C364.002 201.999 373.44 182.117 379.015 179.9C384.589 177.682 401.756 170.775 402.769 174.198C403.783 177.62 403.697 210.411 407.509 220.25C411.321 230.087 424.577 261.882 427.285 275.997C429.994 290.112 438.688 325.185 441.966 328.465C445.243 331.744 456.931 335.879 460.922 336.021C464.913 336.164 478.881 341.581 481.589 344.291C484.298 347 487.148 348.14 488.384 350.136C489.619 352.132 484.773 354.983 483.253 353.558C481.733 352.133 478.787 346.999 476.601 345.384C474.415 343.768 470.9 340.536 471.47 341.867C472.04 343.197 481.257 350.231 479.927 352.417C478.597 354.603 473.18 354.507 470.33 352.322C467.479 350.135 457.027 341.771 455.031 341.2C453.036 340.63 468.714 350.61 467.479 352.987C466.244 355.364 465.389 355.744 459.592 353.272C453.796 350.8 445.434 340.82 445.434 342.627C445.434 344.433 451.61 349.661 451.705 352.322C451.8 354.983 447.999 355.078 444.768 352.987C441.537 350.896 441.347 347.474 440.397 347.854C439.447 348.234 434.126 351.466 426.239 347.949C418.352 344.432 419.682 337.018 415.502 331.03C411.321 325.042 389.087 281.128 383.291 269.533C377.495 257.936 369.323 219.917 370.368 216.59C371.413 213.263 376.544 242.824 381.676 256.891C386.807 270.958 420.064 335.593 423.675 334.832C427.286 334.072 455.412 324.947 455.412 324.947H527.439" stroke="#4D4C4C" stroke-width="1.1669" stroke-miterlimit="10"/>
<path opacity="0.1" d="M407.248 171.414C395.19 151.966 418.924 81.1744 300.282 110.346C217.043 121.237 229.49 125.127 213.542 153.91C210.915 162.701 201.873 177.637 203.429 188.528C211.113 188.528 222.782 199.875 232.213 201.232C240.883 202.48 245.827 201.232 226.767 250.374C215.487 269.045 214.016 289.137 222.489 309.886C229.471 334.208 283.139 338.281 289.78 338.281C297.111 338.281 338.61 345.181 352.015 323.5C363.205 323.5 366.406 300.162 360.183 271.768C365.628 237.927 366.777 197.446 376.13 182.694C386.964 165.608 401.189 172.236 407.248 171.414Z" fill="#7EABE1"/>
<path opacity="0.2" d="M78.5711 341.782C121.357 333.614 131.082 337.893 152.475 284.604C159.775 269.009 159.087 262.044 171.145 243.762C168.211 238.96 165.7 232.871 151.308 229.371C147.418 232.871 144.509 234.816 135.36 240.262C119.024 249.986 124.08 244.929 117.079 246.096C104.243 246.096 103.465 241.818 99.5753 238.317C95.6855 237.616 100.904 232.354 98.0195 232.094C80.9049 234.402 78.714 238.595 73.9035 249.986C69.4522 260.526 67.5223 272.884 64.9573 278.381C78.5711 287.327 91.2972 275.921 90.2401 287.327C88.9299 301.465 61.5063 341.782 78.5711 341.782Z" fill="#7EABE1"/>
</g>
<defs>
<clipPath id="clip0_523_7820">
<rect width="542" height="369" fill="white"/>
</clipPath>
</defs>
</svg>
