<svg width="592" height="396" viewBox="0 0 592 396" fill="none" xmlns="http://www.w3.org/2000/svg">
<g clip-path="url(#clip0_494_5325)">
<path d="M-22.3296 382.417H38.9113C38.9113 382.417 39.8581 378.838 45.6452 374.943C51.4322 371.048 55.5362 372.628 58.0622 368.207C60.5881 363.786 66.3752 352.103 66.796 342.841C67.2168 333.578 68.0584 326.947 70.5843 319.684C73.1103 312.421 78.3714 300.001 80.4754 300.422C82.5793 300.843 101.204 306.001 102.152 307.685C103.1 309.37 101.205 316.738 98.2587 322.737C95.3119 328.736 78.5818 370.313 77.5298 373.261C76.4779 376.208 76.0571 383.155 74.0571 383.155C72.0571 383.155 46.3828 385.892 46.3828 382.102C46.3828 378.313 60.1673 371.156 63.3245 371.156C66.4817 371.156 73.0051 373.366 75.3207 371.472C77.635 369.578 91.3144 331.475 94.3664 324.948C97.4183 318.423 100.364 309.265 97.1027 308.106C93.8404 306.949 74.6895 303.685 74.4791 301.476C74.2687 299.266 80.8974 275.373 84.8961 266.741C88.8949 258.11 88.0533 256.321 95.8391 253.058C103.626 249.794 109.255 248.479 110.36 249.11C111.465 249.742 119.672 258.11 138.771 254.163C157.869 250.215 162.131 244.374 166.235 244.216C170.339 244.058 175.547 246.268 177.914 241.216C180.281 236.164 176.967 229.058 177.914 222.743C178.861 216.428 177.756 215.164 174.757 208.691C171.757 202.218 168.759 191.323 164.498 186.271C160.236 181.219 156.29 179.008 156.29 182.482C156.29 185.956 151.239 191.797 151.555 198.428C151.87 205.058 158.341 209.321 158.183 214.058C158.026 218.794 151.239 218.637 153.764 225.425C156.29 232.214 160.235 234.74 158.972 234.267C157.71 233.793 152.817 227.004 149.66 229.53C146.503 232.057 140.347 238.688 148.398 240.582C156.448 242.476 161.709 243.372 159.919 238.951C158.131 234.53 155.845 232.36 152.027 231.582C148.208 230.806 142.346 237.161 140.453 242.213C138.559 247.265 133.719 255.791 125.721 254.001C117.724 252.212 110.148 244.107 105.203 244.212C100.257 244.317 98.3638 243.581 96.2587 238.739C94.1547 233.897 86.7884 228.74 88.156 218.53C89.5235 208.32 84.7884 202.532 92.2599 206.637C99.7314 210.742 129.089 220.741 125.511 221.373C121.933 222.004 92.6807 212.426 90.682 207.479C88.6832 202.532 89.7352 200.005 101.309 187.375C112.884 174.744 135.507 169.586 146.135 173.27C156.762 176.955 159.183 184.111 158.024 188.111C156.867 192.111 153.92 195.585 154.341 198.847C154.762 202.109 158.971 203.9 157.919 208.005C156.867 212.11 149.922 214.214 145.397 224.74C140.872 235.265 136.347 244.844 132.454 247.265C128.56 249.687 108.989 247.265 110.356 253.58C111.724 259.895 128.771 269.053 141.502 263.264C154.235 257.475 163.02 251.844 165.598 249.054C168.177 246.264 170.176 246.317 170.702 247.16C171.228 248.002 174.122 250.318 171.912 252.528C169.702 254.738 164.65 256.423 162.231 270.001C159.81 283.579 132.979 319.997 124.876 327.261C116.773 334.524 114.564 340.102 120.246 348.206C125.928 356.311 122.35 346.628 125.297 337.681C128.244 328.734 129.821 324.734 140.344 314.524C150.866 304.314 160.441 293.052 162.546 281.368C164.65 269.685 172.648 249.37 178.225 249.791C183.801 250.212 192.43 261.105 191.168 264.106C189.905 267.106 179.646 281.789 174.911 295.841C170.176 309.893 154.708 340.838 149.5 346.838C144.291 352.837 138.925 358.837 136.714 360.259C134.505 361.679 120.773 365.469 116.985 367.205C113.197 368.941 110.987 370.994 107.515 372.573C104.042 374.151 96.7821 380.31 98.3601 381.572C99.938 382.835 107.515 383.624 110.197 379.994C112.881 376.362 117.142 370.837 116.668 373.521C116.195 376.206 112.038 377.574 112.038 381.679C112.038 385.784 117.299 385.59 118.982 384.108C120.666 382.626 124.244 373.153 124.454 375.574C124.664 377.996 121.612 380.942 122.245 383.89C122.876 386.838 128.663 387.259 131.294 382.943C133.925 378.627 135.188 372.628 135.819 374.101C136.45 375.574 132.346 384.292 133.715 386.144C135.083 387.995 141.397 388.732 143.396 383.785C145.394 378.838 144.342 374.522 146.027 376.206C147.71 377.889 148.341 379.574 148.341 381.469C148.341 383.363 145.92 385.995 148.657 386.31C151.393 386.626 155.18 385.679 155.496 382.836C155.811 379.994 153.287 373.679 154.549 373.995C155.811 374.31 152.116 382.868 153.602 383.468C155.089 384.068 160.126 385.678 163.072 380.941C166.019 376.205 165.071 373.152 166.65 371.152C168.228 369.153 204.531 321.787 205.373 323.892C206.214 325.997 208.109 340.311 212.528 348.101C216.947 355.89 222.839 364.731 222.629 365.995C222.419 367.258 236.519 372.59 237.641 374.766C238.763 376.941 238.833 376.941 240.027 377.153C241.219 377.363 241.64 381.153 239.255 381.293C236.869 381.433 233.924 381.784 232.241 379.68C230.558 377.575 230.347 375.75 229.574 376.802C228.803 377.854 227.049 383.047 223.682 383.398C220.316 383.748 201.024 384.52 199.691 381.995C198.359 379.468 203.55 375.118 202.778 372.872C202.007 370.627 187.486 349.295 187.906 347.611C188.327 345.927 219.895 310.052 226.05 294.579C232.206 279.107 253.777 249.583 260.722 240.32C267.666 231.057 273.349 214.427 270.192 214.007C267.035 213.586 264.51 217.165 255.25 213.165C245.99 209.165 232.942 198.008 229.786 202.639C226.629 207.271 193.378 259.478 195.273 259.268C197.166 259.057 231.891 207.692 230.838 205.166C229.785 202.641 223.894 203.482 225.998 197.166C228.102 190.851 244.307 135.065 261.142 128.118C277.978 121.172 285.344 122.645 309.125 118.856C332.905 115.066 355.213 110.224 355.213 108.12C355.213 106.015 346.795 103.769 343.709 97.0332C340.622 90.2973 339.22 89.4543 335.712 90.0167C332.204 90.5779 326.242 96.6825 323.295 96.472C320.348 96.2616 314.245 91.981 311.651 85.666C309.055 79.351 299.796 70.7197 294.253 69.5973C288.711 68.4748 285.063 75.4914 285.554 78.7196C286.045 81.9479 288.291 70.7899 293.411 74.0182C298.532 77.2464 304.916 83.0704 300.778 91.0001C296.639 98.9299 295.376 101.526 294.184 98.2985C292.992 95.0702 297.657 93.8075 297.236 86.018C296.815 78.2286 291.87 74.0182 289.975 77.0711C288.082 80.1239 282.714 83.5965 283.136 87.8069C283.557 92.0173 280.294 97.0696 278.822 96.6487C277.349 96.2277 279.558 91.2807 275.244 84.1227C270.929 76.9658 263.037 75.0705 261.038 71.8071C259.04 68.5437 261.775 56.1242 257.145 56.1242C252.515 56.1242 250.306 57.1765 249.253 60.6503C248.201 64.1241 247.043 86.7534 250.936 92.5435C254.829 98.3323 255.671 109.279 256.092 111.805C256.512 114.332 262.405 109.806 263.774 110.964C265.141 112.121 266.299 114.122 268.824 117.489C271.35 120.858 269.035 122.436 279.872 121.594C290.71 120.752 298.392 116.752 299.76 113.489C301.127 110.226 308.283 78.439 304.81 71.3862C301.338 64.3346 284.923 65.3869 283.45 69.4921C281.978 73.5972 279.346 81.9128 275.979 77.3867C272.611 72.8606 263.351 68.4398 263.036 63.3875C262.72 58.3353 254.828 63.598 245.147 58.0196C235.467 52.4412 250.198 32.9688 266.087 24.7585C281.975 16.5481 298.917 4.9704 311.755 12.8651C324.592 20.7598 314.281 41.9158 310.492 39.3903C306.704 36.8636 310.597 20.7598 323.856 25.3911C337.115 30.0224 344.9 48.7582 342.165 64.5463C339.43 80.3344 339.218 92.4921 340.798 96.913C342.376 101.334 350.899 111.912 356.897 109.86C362.894 107.808 385.092 106.237 385.25 107.973C385.407 109.71 371.9 124.968 364.153 144.708C357.062 162.774 330.591 196.749 314.596 204.749C298.602 212.749 264.299 235.062 265.772 225.379C267.245 215.695 276.294 207.274 276.926 180.54C277.557 153.804 279.24 151.7 280.714 159.7C282.187 167.7 273.137 221.591 275.874 221.17C278.61 220.749 302.267 208.433 313.965 198.894C326.587 188.6 349.732 169.768 360.838 146.13C370.78 124.968 372.522 106.387 379.624 105.125C386.726 103.862 430.764 105.598 441.075 134.017C451.387 162.437 449.494 174.646 452.439 181.383C455.386 188.119 447.388 178.646 437.287 180.12C427.186 181.594 421.083 190.856 419.399 189.593C417.715 188.331 434.971 141.386 435.603 147.491C436.234 153.595 417.714 192.329 414.558 205.171C411.401 218.013 402.984 275.483 401.72 290.955C400.458 306.428 403.298 311.164 405.035 320.164C406.771 329.163 397.933 365.318 356.106 367.687C314.279 370.056 269.77 359.477 257.142 350.319C244.515 341.162 239.938 295.534 243.253 288.429C246.568 281.324 250.987 284.165 252.565 273.587C254.143 263.009 256.353 245.326 257.458 248.168C258.563 251.011 255.564 288.744 250.356 295.06C245.147 301.375 240.57 298.219 237.886 309.428C235.203 320.637 236.466 356.794 247.199 366.582C257.931 376.371 314.122 377.792 325.801 376.687C337.48 375.582 379.307 379.371 386.095 373.844C392.881 368.319 411.506 350.004 401.72 326.479C391.935 302.954 395.25 275.482 383.411 290.482C371.574 305.481 361.629 330.584 338.744 332.479C315.857 334.374 351.687 325.849 365.261 305.165C378.835 284.482 398.565 247.537 401.722 231.749C404.879 215.961 415.331 193.944 421.504 191.489C427.677 189.032 446.687 181.384 447.809 185.174C448.931 188.963 448.836 225.276 453.058 236.171C457.279 247.065 471.958 282.274 474.958 297.904C477.957 313.534 487.585 352.374 491.214 356.006C494.844 359.637 507.787 364.216 512.206 364.374C516.626 364.532 532.093 370.531 535.093 373.531C538.092 376.531 541.248 377.794 542.617 380.004C543.984 382.214 538.618 385.372 536.935 383.794C535.252 382.215 531.989 376.53 529.569 374.741C527.148 372.952 523.255 369.373 523.887 370.847C524.518 372.32 534.724 380.109 533.252 382.53C531.779 384.951 525.78 384.845 522.624 382.424C519.467 380.003 507.893 370.741 505.683 370.109C503.473 369.477 520.835 380.529 519.467 383.161C518.1 385.793 517.153 386.214 510.733 383.477C504.315 380.739 495.055 369.688 495.055 371.688C495.055 373.689 501.894 379.478 501.999 382.424C502.105 385.372 497.896 385.477 494.318 383.161C490.74 380.846 490.529 377.056 489.477 377.477C488.425 377.898 482.533 381.477 473.799 377.583C465.065 373.688 466.538 365.477 461.909 358.847C457.279 352.216 432.657 303.586 426.239 290.746C419.821 277.904 410.771 235.803 411.928 232.118C413.086 228.434 418.767 261.169 424.451 276.747C430.132 292.324 466.961 363.899 470.96 363.057C474.959 362.215 506.105 352.111 506.105 352.111H585.865" stroke="#4D4C4C" stroke-width="1.2922" stroke-miterlimit="10"/>
<path opacity="0.1" d="M452.769 182.092C439.416 160.555 465.699 82.1624 334.317 114.467C242.141 126.527 255.924 130.835 238.264 162.709C235.355 172.443 225.342 188.983 227.065 201.044C235.574 201.044 248.496 213.609 258.939 215.112C268.541 216.494 274.015 215.112 252.909 269.531C240.418 290.206 238.789 312.456 248.171 335.433C255.902 362.366 315.334 366.876 322.688 366.876C330.806 366.876 376.761 374.518 391.605 350.508C403.997 350.508 407.542 324.664 400.65 293.221C406.68 255.747 407.953 210.919 418.31 194.583C430.307 175.662 446.06 183.002 452.769 182.092Z" fill="#7EABE1"/>
<path opacity="0.2" d="M88.7997 370.753C136.18 361.708 146.949 366.446 170.64 307.435C178.723 290.165 177.961 282.453 191.314 262.208C188.064 256.89 185.284 250.148 169.347 246.271C165.039 250.148 161.817 252.301 151.687 258.332C133.596 269.1 139.195 263.5 131.442 264.793C117.228 264.793 116.367 260.054 112.059 256.178C107.752 255.402 113.53 249.574 110.336 249.287C91.3841 251.842 88.9579 256.486 83.6308 269.1C78.7017 280.772 76.5645 294.457 73.7241 300.544C88.7997 310.45 102.892 297.82 101.722 310.45C100.271 326.107 69.9025 370.753 88.7997 370.753Z" fill="#7EABE1"/>
</g>
<defs>
<clipPath id="clip0_494_5325">
<rect width="592" height="396" fill="white"/>
</clipPath>
</defs>
</svg>
