<svg width="901" height="950" viewBox="0 0 901 950" fill="none" xmlns="http://www.w3.org/2000/svg">
<path opacity="0.05" d="M614.253 826.026C831.19 726.121 925.943 469.326 825.891 252.458C725.838 35.5892 468.868 -59.2291 251.931 40.6752C34.9939 140.579 -59.7596 397.375 40.2929 614.243C140.345 831.112 397.316 925.93 614.253 826.026Z" fill="#7EABE1"/>
<path opacity="0.1" d="M717.995 362.69C800.556 541.646 722.367 753.547 543.355 835.986C364.344 918.425 152.297 840.183 69.7359 661.228C-12.8253 482.273 65.3633 270.371 244.375 187.932C423.387 105.493 635.433 183.735 717.995 362.69Z" stroke="#6D6D6D"/>
<path opacity="0.07" d="M547.74 842.875C692.147 776.372 755.222 605.432 688.62 461.07C622.019 316.709 450.962 253.591 306.555 320.094C162.147 386.597 99.0732 557.537 165.675 701.898C232.276 846.26 403.333 909.378 547.74 842.875Z" fill="#7EABE1"/>
</svg>
