<svg width="908" height="842" viewBox="0 0 908 842" fill="none" xmlns="http://www.w3.org/2000/svg">
<path opacity="0.05" d="M373.006 741C577.628 741 743.393 575.121 743.253 370.5C743.113 165.878 577.122 0 372.5 0C167.879 0 2.11335 165.878 2.25318 370.5C2.39301 575.121 168.385 741 373.006 741Z" fill="#7EABE1"/>
<path opacity="0.1" d="M775.114 290.292C848.123 448.542 778.981 635.927 620.68 708.828C462.38 781.729 274.867 712.539 201.858 554.289C128.849 396.038 197.991 208.653 356.292 135.753C514.592 62.8517 702.105 132.041 775.114 290.292Z" stroke="#6D6D6D"/>
<path opacity="0.07" d="M624.583 714.973C752.306 656.154 808.092 504.964 749.186 377.281C690.279 249.598 538.986 193.773 411.263 252.593C283.54 311.412 227.753 462.602 286.66 590.284C345.566 717.967 496.859 773.792 624.583 714.973Z" fill="#7EABE1"/>
</svg>
