<svg width="112" height="115" viewBox="0 0 112 115" fill="none" xmlns="http://www.w3.org/2000/svg">
<path opacity="0.1" d="M153.591 61.1774C191.747 43.582 208.413 -1.64542 190.815 -39.8408C173.217 -78.0363 128.019 -94.7359 89.8629 -77.1405C51.7064 -59.5451 35.0404 -14.3177 52.6384 23.8777C70.2364 62.0731 115.434 78.7728 153.591 61.1774Z" fill="#7EABE1"/>
<path fill-rule="evenodd" clip-rule="evenodd" d="M95.5322 -73.2222C70.3809 -81.9612 41.2178 -79.389 22.3226 -65.408L22.6361 -64.9843C41.3609 -78.8391 70.333 -81.4198 95.3592 -72.7242C120.384 -64.0291 140.922 -44.859 150.614 -23.1031C156.279 -10.3802 158.352 3.08892 157.216 16.097C152.086 5.53634 144.413 -4.12809 133.954 -11.369C126.913 -16.2446 118.867 -19.6818 110.483 -21.7066C111.038 -32.3294 107.24 -44.0738 97.2264 -51.1978C84.7943 -60.041 67.3988 -58.865 53.6013 -54.6292C28.1671 -46.8202 6.78648 -29.1085 1.79518 -5.72286C-3.39928 18.6174 10.098 45.9261 32.2896 64.3133C37.4102 68.5569 43.0356 72.4183 49.0371 75.6261C59.3134 87.8392 73.3332 97.9775 88.923 104.471C101.525 109.719 115.615 112.796 128.558 110.672C139.369 108.898 148.633 103.645 156.51 97.4581C165.464 90.4279 173.07 81.9359 177.426 71.9574C183.489 58.0762 182.825 42.7862 178.272 27.5359C173.72 12.2864 165.276 -2.94344 155.747 -16.7263L155.313 -16.4266C164.825 -2.6683 173.237 12.5102 177.767 27.6866C182.297 42.8623 182.94 58.0159 176.943 71.7464C172.632 81.6208 165.095 90.048 156.185 97.0435C148.349 103.198 139.166 108.397 128.473 110.152C115.662 112.254 101.678 109.212 89.1256 103.985C74.0273 97.6956 60.4241 87.9795 50.2929 76.2849C56.7043 79.585 63.5276 82.1309 70.6098 83.6001C77.7747 85.0855 85.0396 85.4115 92.0869 84.7375C95.8093 87.4874 99.9122 89.8235 104.28 91.6057C112.286 94.8721 121.137 96.5073 129.452 95.5778C142.785 94.0888 153.631 86.0376 159.344 75.8417C165.059 65.648 166.102 53.5545 164.699 41.7333C163.714 33.4482 161.402 24.9963 157.659 17.0249C158.976 3.65769 156.927 -10.2229 151.095 -23.3175C141.343 -45.2107 120.691 -64.4807 95.5322 -73.2222ZM133.654 -10.9356C144.29 -3.57205 152.027 6.32235 157.12 17.1174C156.229 25.9912 153.844 34.6348 150.089 42.6628C143.814 56.0751 133.663 68.0394 119.741 75.7499C111.613 80.2534 102.145 83.2182 92.2379 84.1932C87.1503 80.4069 82.7884 75.8403 79.4563 70.8636C73.6802 62.2364 71.0109 52.3972 72.9876 43.2623C74.9638 34.1377 81.9285 26.5603 91.0773 22.1565C93.2058 21.132 95.451 20.2801 97.7771 19.6209C95.8743 28.1538 95.732 37.1663 99.8694 45.581C102.553 51.0389 107.557 55.9639 113.402 59.1103C119.247 62.2566 125.964 63.6402 132.072 61.9663C141.952 59.2575 146.964 49.113 144.302 39.9149C141.65 30.7376 132.535 23.0573 122.308 19.6132C114.359 16.9354 106.032 16.9111 98.4884 18.881C99.0115 16.6789 99.6488 14.508 100.357 12.3864C101.397 9.27347 102.576 6.20967 103.757 3.14004C104.576 1.01115 105.396 -1.12065 106.172 -3.27345C108.061 -8.51445 109.67 -13.8425 110.296 -19.4294C110.361 -20.0059 110.413 -20.5872 110.452 -21.1721C118.739 -19.1598 126.692 -15.7565 133.654 -10.9356ZM98.3533 19.462C98.1607 19.5137 97.9686 19.5666 97.7771 19.6209C97.8207 19.4258 97.8651 19.2309 97.9104 19.0363C98.1026 18.9832 98.2952 18.9315 98.4884 18.881C98.4425 19.0744 98.3974 19.2681 98.3533 19.462ZM98.3533 19.462C105.874 17.4452 114.2 17.4381 122.139 20.1127C132.263 23.522 141.207 31.1028 143.795 40.0612C146.381 48.9954 141.511 58.8319 131.933 61.4579C125.99 63.0862 119.415 61.7482 113.652 58.6462C107.89 55.5443 102.971 50.6945 100.342 45.3484C96.2319 36.9883 96.4081 28.0046 98.3533 19.462ZM97.9104 19.0363C95.4558 19.7141 93.0883 20.6035 90.8487 21.6815C81.5907 26.1378 74.4909 33.8309 72.4724 43.1507C70.4577 52.4613 73.1855 62.4451 79.0183 71.1568C82.2818 76.0312 86.5212 80.5138 91.4575 84.2658C84.6432 84.8631 77.6328 84.5177 70.7168 83.0839C63.2582 81.5366 56.0836 78.7851 49.3755 75.2092C42.6032 67.1419 37.4779 58.1726 34.6293 48.7626C27.4822 25.162 35.8166 -0.507649 56.8404 -13.8991C71.2749 -23.0934 91.4032 -25.658 109.931 -21.2965C109.893 -20.6895 109.839 -20.0864 109.772 -19.4883C109.153 -13.9617 107.56 -8.67866 105.676 -3.45214C104.91 -1.32465 104.092 0.799923 103.274 2.92785L103.273 2.92926C102.087 6.01252 100.898 9.10284 99.857 12.2193C99.1158 14.4398 98.45 16.7194 97.9104 19.0363ZM104.479 91.1176C100.336 89.427 96.4331 87.233 92.8717 84.6582C102.64 83.6188 111.965 80.6606 119.997 76.211C134.027 68.44 144.25 56.386 150.566 42.8862C154.223 35.0693 156.589 26.6728 157.552 18.0478C161.052 25.7284 163.229 33.8373 164.175 41.7956C165.571 53.553 164.525 65.5219 158.884 75.5839C153.249 85.6407 142.547 93.5849 129.394 95.0539C121.183 95.9717 112.422 94.358 104.479 91.1176ZM34.1248 48.9154C36.8771 58.0072 41.7335 66.682 48.1333 74.5347C42.5979 71.4741 37.3937 67.8586 32.626 63.9074C10.5243 45.5948 -2.82851 18.4685 2.3107 -5.61284C7.24786 -28.7448 28.4285 -46.349 53.756 -54.1253C67.5004 -58.3448 84.691 -59.4677 96.9209 -50.7683C106.723 -43.7952 110.482 -32.2925 109.962 -21.8306C91.3269 -26.1936 71.0955 -23.6041 56.5572 -14.3437C35.318 -0.815037 26.9148 25.1073 34.1248 48.9154Z" fill="#D8E7FC"/>
</svg>
