<svg width="592" height="582" viewBox="0 0 592 582" fill="none" xmlns="http://www.w3.org/2000/svg">
<path d="M365.621 346.796C377.044 400.575 378.185 433.89 372.524 454.074C357.351 508.173 293.317 467.958 247.397 474.654C215.665 474.654 224.737 444.286 232.553 410.725C235.698 397.224 219.373 387.585 219.373 374.82C219.373 352.204 193.68 286.738 199.231 281.116C201.471 278.847 215.87 272.357 232.071 261.848C207.55 278.925 268.972 320.491 281.988 325.34C284.854 326.408 277.774 311.924 278.485 296.877C279.229 281.144 287.787 264.714 292.059 260.973C297.829 262.897 298.627 279.799 330.592 246.96C354.237 243.894 350.296 243.894 352.047 243.894C343.728 260.973 346.793 265.351 365.621 346.796Z" fill="#E5EEF9"/>
<path d="M591.706 386.707C545.881 370.185 534.441 405.798 488.923 428.929C443.405 452.059 401.679 397.232 384.427 396.129C367.174 395.028 380.316 420.998 381.001 440.31C381.685 459.623 357.017 470.416 344.048 471.028C331.079 471.641 326.918 470.05 306.238 475.19C285.559 480.33 228.66 476.168 224.133 466.256C219.606 456.344 226.733 444.257 227.191 424.431C227.65 404.604 215.537 386.431 216.087 381.198C216.637 375.966 225.723 406.806 226.182 412.131C226.641 417.455 222.144 418.556 219.941 414.242C217.738 409.929 206.818 394.049 206.266 391.847C205.716 389.644 217.738 400.382 221.662 413.418C225.586 426.453 220.4 437.375 204.981 442.697C189.564 448.022 173.136 427.093 174.696 417.914C176.255 408.735 178.826 387.899 177.541 386.798C176.255 385.698 176.837 411.611 186.504 424.339C196.171 437.068 207.672 437.313 210.243 429.051C212.813 420.79 209.447 412.897 208.04 405.921C206.632 398.945 202.351 396.436 201.371 394.846C200.393 393.255 200.881 388.603 206.694 383.953C212.506 379.303 214.281 377.1 215.687 372.571C217.095 368.043 217.768 360.271 214.342 357.151C210.916 354.03 208.53 360.578 208.53 362.903C208.53 365.229 209.875 361.19 211.038 358.253C212.201 355.317 212.873 352.501 208.835 349.197C204.797 345.893 202.533 350.665 201.248 356.478C199.963 362.291 206.265 348.645 206.51 347.667C206.755 346.688 204.98 343.505 200.391 342.282C195.802 341.058 192.804 348.401 191.519 350.726C190.234 353.051 198.799 344.423 198.493 343.137C198.188 341.852 196.291 339.221 192.927 338.976C189.561 338.731 183.016 345.829 177.265 354.152C171.513 362.474 176.775 396.374 174.694 398.333C172.614 400.291 164.784 386.063 165.334 357.425C165.884 328.787 171.268 307.034 179.59 294.306C187.91 281.577 226.577 261.628 228.29 262.241C230.003 262.853 191.398 285.922 188.277 284.821C185.157 283.72 200.575 276.468 208.833 259.946C217.093 243.424 219.356 226.505 220.947 212.921C222.537 199.337 222.201 188.015 232.969 177.98C243.737 167.945 245.174 156.226 252.057 147.782C258.94 139.338 280.598 135.482 288.185 141.082C292.888 144.553 292.027 141.7 304.605 146.278C318.317 151.271 319.631 175.471 319.266 184.467C318.898 193.462 322.937 208.455 322.997 230.606C323.057 252.758 299.748 260.407 297.24 257.591C294.732 254.777 290.571 252.023 289.286 252.451C288.001 252.879 288.308 258.571 288.551 261.813C288.796 265.057 292.222 247.677 291.977 246.209C291.732 244.74 284.268 249.88 279.986 251.716C275.703 253.552 266.77 250.615 261.326 244.985C255.881 239.355 246.413 221.028 245.037 221.717C243.66 222.407 251.415 235.011 254.841 240.335C258.267 245.66 266.894 256.551 277.478 254.164C288.063 251.778 300.421 245.812 307.763 234.246C315.105 222.681 317.673 212.217 317.673 206.618C317.673 201.019 317.397 193.676 317.765 186.058C318.132 178.44 314.553 164.304 305.101 156.043C295.649 147.782 289.041 146.773 276.192 149.067C263.344 151.362 246.55 185.736 244.026 189.362C241.503 192.988 241.41 188.168 238.198 185.508C234.986 182.847 226.13 197.027 232.37 207.812C238.611 218.596 242.465 208.913 241.362 208.499C240.262 208.086 240.094 236.602 239.176 247.984C238.258 259.366 230.183 260.1 228.408 267.565C226.633 275.031 240.766 295.377 252.606 304.832C264.445 314.285 279.631 324.887 282.798 324.337C285.964 323.786 279.907 322.088 275.823 320.069C271.739 318.05 267.472 320.298 271.28 322.547C275.089 324.796 315.652 474.457 318.222 478.494C320.792 482.533 329.05 480.33 331.07 472.069C333.089 463.808 292.893 344.666 290.507 334.571C288.121 324.474 284.818 321.72 280.412 316.948C276.006 312.175 277.383 294.552 278.209 286.657C279.035 278.763 284.679 273.119 287.324 269.584C289.97 266.05 290.414 257.055 295.738 259.35C301.061 261.645 305.374 268.606 311.736 259.549C318.098 250.493 329.478 245.965 339.389 245.965C349.3 245.965 383.316 232.625 388.945 235.073C394.574 237.521 397.633 244.007 400.814 249.759C403.995 255.512 388.057 247.006 392.463 237.093C396.868 227.181 389.481 191.613 391.636 188.537C393.793 185.462 401.042 198.084 413.386 200.744C425.73 203.407 423.114 194.228 423.114 189.547C423.114 184.866 406.594 140.532 400.446 134.841C394.298 129.151 372.548 101.522 370.528 99.2588C368.51 96.995 343.333 107.765 342.018 110.334C340.703 112.903 346.943 122.082 348.166 124.225C349.389 126.366 354.208 128.413 354.995 128.875C355.386 129.104 360.861 130.557 364.287 130.129C367.713 129.702 375.208 127.345 372.761 125.509C370.313 123.673 364.929 121.256 365.327 122.786C365.726 124.317 368.417 127.193 366.98 127.162C365.543 127.131 356.488 127.039 355.907 126.489C355.244 125.862 348.901 122.205 347.983 121.808C347.066 121.409 345.704 122.313 344.374 124.516C343.044 126.719 344.788 130.941 349.744 132.227C354.7 133.512 353.919 136.22 359.702 139.157C365.484 142.093 375.731 138.515 381.237 145.49C386.744 152.466 392.983 180.126 396.532 193.955C400.08 207.784 421.861 205.948 424.675 201.788C427.488 197.627 423.817 188.937 426.633 187.102C429.446 185.266 444.315 211.028 440.276 245.541C436.238 280.053 374.201 303.917 365.574 310.16C356.947 316.402 351.716 290.884 351.716 285.193C351.716 279.503 358.782 298.412 360.435 307.406C362.087 316.401 376.77 412.596 384.479 438.113C392.188 463.63 381.023 457.585 380.073 463.814C379.123 470.044 394.389 526.598 394.389 535.777C394.389 544.956 341.345 545.689 336.574 544.405C331.802 543.12 336.206 498.327 335.106 493.187C334.005 488.047 326.296 491.168 322.808 492.637C319.32 494.105 324.643 527.7 321.34 537.43C318.036 547.159 309.776 546.241 299.131 538.348C288.486 530.454 216.353 541.469 214.518 539.265C212.682 537.062 220.759 495.39 224.246 485.478C227.734 475.566 228.467 474.831 235.441 479.236C242.416 483.641 291.054 484.376 323.175 485.111C355.296 485.846 374.567 460.327 380.073 457.391C385.579 454.454 402.832 534.493 400.629 545.14C398.426 555.788 335.288 544.59 310.142 549.73C284.996 554.87 156.7 542.019 100.17 519.991C43.649 497.955 2.35083 537.791 2.35083 537.791" stroke="#4D4C4C" stroke-miterlimit="10"/>
</svg>
