<svg width="486" height="374" viewBox="0 0 486 374" fill="none" xmlns="http://www.w3.org/2000/svg">
<g clip-path="url(#clip0_523_7752)">
<path d="M299.604 205.053C309.009 249.391 309.948 276.858 305.287 293.499C292.794 338.101 240.07 304.945 202.26 310.466C176.133 310.466 183.602 285.429 190.038 257.76C192.627 246.629 179.185 238.681 179.185 228.157C179.185 209.511 158.03 155.537 162.601 150.902C164.445 149.032 176.301 143.681 189.641 135.017C169.451 149.096 220.024 183.366 230.742 187.364C233.102 188.244 227.272 176.302 227.858 163.897C228.47 150.926 235.516 137.38 239.034 134.296C243.785 135.882 244.442 149.817 270.761 122.743C290.23 120.214 286.985 120.214 288.427 120.214C281.577 134.296 284.101 137.905 299.604 205.053Z" fill="#E5EEF9"/>
<path d="M485.758 237.957C448.027 224.335 438.607 253.697 401.128 272.767C363.65 291.838 329.293 246.635 315.088 245.726C300.883 244.818 311.704 266.229 312.267 282.15C312.83 298.074 292.519 306.972 281.841 307.477C271.162 307.982 267.736 306.67 250.709 310.908C233.682 315.145 186.832 311.714 183.105 303.542C179.378 295.37 185.246 285.405 185.623 269.059C186.001 252.713 176.027 237.73 176.48 233.415C176.933 229.102 184.415 254.528 184.792 258.918C185.17 263.308 181.467 264.215 179.653 260.659C177.84 257.103 168.849 244.01 168.394 242.195C167.941 240.378 177.84 249.232 181.071 259.979C184.302 270.726 180.031 279.731 167.336 284.119C154.642 288.509 141.115 271.254 142.4 263.686C143.684 256.119 145.8 238.94 144.742 238.033C143.684 237.125 144.162 258.49 152.122 268.984C160.082 279.477 169.552 279.679 171.668 272.868C173.784 266.058 171.013 259.55 169.854 253.798C168.695 248.047 165.17 245.979 164.363 244.667C163.558 243.356 163.96 239.521 168.746 235.687C173.532 231.853 174.993 230.037 176.151 226.303C177.31 222.57 177.864 216.162 175.043 213.59C172.222 211.017 170.258 216.415 170.258 218.332C170.258 220.25 171.366 216.92 172.323 214.499C173.28 212.078 173.834 209.756 170.509 207.032C167.184 204.308 165.32 208.243 164.262 213.035C163.204 217.828 168.393 206.577 168.594 205.77C168.796 204.964 167.335 202.339 163.556 201.331C159.778 200.322 157.309 206.376 156.251 208.292C155.193 210.21 162.245 203.096 161.994 202.036C161.742 200.977 160.18 198.807 157.41 198.605C154.639 198.403 149.25 204.255 144.515 211.118C139.779 217.978 144.111 245.928 142.398 247.542C140.685 249.157 134.238 237.427 134.691 213.816C135.144 190.205 139.577 172.27 146.429 161.777C153.28 151.283 185.118 134.836 186.528 135.341C187.939 135.846 156.152 154.865 153.582 153.957C151.013 153.049 163.708 147.071 170.508 133.449C177.309 119.827 179.172 105.878 180.482 94.6784C181.791 83.479 181.514 74.1446 190.38 65.8713C199.247 57.598 200.43 47.9363 206.097 40.9746C211.765 34.0128 229.598 30.8336 235.844 35.451C239.717 38.3124 239.008 35.96 249.364 39.7344C260.654 43.8509 261.737 63.803 261.436 71.2199C261.133 78.6354 264.458 90.9969 264.508 109.259C264.558 127.523 245.365 133.829 243.3 131.507C241.235 129.187 237.809 126.917 236.751 127.269C235.692 127.622 235.945 132.315 236.146 134.988C236.347 137.662 239.168 123.333 238.966 122.123C238.765 120.912 232.619 125.15 229.093 126.663C225.567 128.177 218.212 125.756 213.729 121.114C209.246 116.473 201.45 101.363 200.317 101.931C199.183 102.499 205.569 112.891 208.39 117.281C211.211 121.67 218.314 130.649 227.028 128.682C235.744 126.715 245.919 121.796 251.964 112.261C258.01 102.726 260.125 94.0981 260.125 89.482C260.125 84.866 259.897 78.8118 260.2 72.5314C260.502 66.251 257.555 54.5965 249.773 47.7855C241.99 40.9746 236.549 40.1424 225.97 42.0343C215.391 43.9263 201.563 72.2661 199.485 75.2555C197.407 78.2449 197.331 74.2712 194.686 72.0776C192.041 69.8841 184.749 81.575 189.887 90.4664C195.026 99.3578 198.199 91.3739 197.292 91.0333C196.385 90.6926 196.247 114.202 195.491 123.587C194.736 132.971 188.087 133.575 186.625 139.731C185.164 145.886 196.801 162.66 206.549 170.455C216.297 178.249 228.802 186.99 231.409 186.536C234.016 186.082 229.029 184.682 225.666 183.017C222.303 181.353 218.79 183.206 221.925 185.06C225.061 186.914 258.46 310.303 260.576 313.632C262.693 316.962 269.492 315.145 271.155 308.334C272.817 301.523 239.721 203.297 237.756 194.974C235.792 186.649 233.072 184.379 229.444 180.444C225.817 176.509 226.95 161.98 227.63 155.471C228.311 148.963 232.958 144.309 235.136 141.395C237.314 138.481 237.68 131.065 242.063 132.957C246.446 134.849 249.997 140.588 255.236 133.122C260.474 125.655 269.845 121.922 278.005 121.922C286.165 121.922 314.174 110.923 318.808 112.942C323.443 114.96 325.961 120.308 328.581 125.05C331.2 129.793 318.077 122.78 321.705 114.608C325.332 106.435 319.249 77.1111 321.024 74.5755C322.8 72.0399 328.769 82.4462 338.933 84.6398C349.096 86.8347 346.942 79.267 346.942 75.4077C346.942 71.5484 333.34 34.9972 328.278 30.3057C323.216 25.6143 305.308 2.83573 303.644 0.969384C301.982 -0.89696 281.252 7.98231 280.169 10.1005C279.087 12.2186 284.225 19.7863 285.232 21.553C286.239 23.3184 290.207 25.0056 290.855 25.3867C291.176 25.5752 295.684 26.7737 298.505 26.4209C301.326 26.0681 307.498 24.125 305.482 22.6114C303.467 21.0979 299.034 19.105 299.362 20.3667C299.69 21.6284 301.906 23.9997 300.723 23.9742C299.539 23.9486 292.084 23.8732 291.605 23.4194C291.059 22.9023 285.837 19.8873 285.081 19.5601C284.326 19.2315 283.204 19.9762 282.11 21.7927C281.014 23.6092 282.45 27.0901 286.531 28.1499C290.611 29.2096 289.969 31.4422 294.73 33.8634C299.491 36.2845 307.928 33.3342 312.462 39.0854C316.996 44.8365 322.134 67.6407 325.055 79.0421C327.977 90.4435 345.911 88.9299 348.228 85.5002C350.544 82.0692 347.522 74.9054 349.84 73.3919C352.156 71.8783 364.399 93.1178 361.074 121.572C357.748 150.026 306.668 169.701 299.565 174.848C292.462 179.994 288.155 158.956 288.155 154.264C288.155 149.573 293.973 165.162 295.334 172.577C296.694 179.993 308.783 259.302 315.131 280.339C321.479 301.377 312.286 296.393 311.503 301.529C310.721 306.665 323.291 353.291 323.291 360.859C323.291 368.426 279.616 369.031 275.687 367.973C271.758 366.913 275.384 329.983 274.478 325.746C273.572 321.508 267.224 324.081 264.352 325.292C261.48 326.502 265.863 354.2 263.143 362.221C260.423 370.243 253.622 369.486 244.857 362.978C236.092 356.47 176.699 365.551 175.188 363.735C173.677 361.918 180.327 327.562 183.198 319.39C186.07 311.217 186.674 310.611 192.416 314.243C198.159 317.875 238.207 318.481 264.654 319.087C291.102 319.693 306.969 298.654 311.503 296.233C316.037 293.812 330.243 359.8 328.429 368.579C326.615 377.357 274.629 368.125 253.923 372.362C233.218 376.6 127.582 366.005 81.0361 347.844C34.4978 329.676 0.493652 362.519 0.493652 362.519" stroke="#4D4C4C" stroke-miterlimit="10"/>
</g>
<defs>
<clipPath id="clip0_523_7752">
<rect width="486" height="374" fill="white"/>
</clipPath>
</defs>
</svg>
