<svg width="460" height="268" viewBox="0 0 460 268" fill="none" xmlns="http://www.w3.org/2000/svg">
<path fill-rule="evenodd" clip-rule="evenodd" d="M280.036 -285.909C205.878 -311.676 119.892 -304.092 64.1807 -262.87L65.1052 -261.62C120.314 -302.471 205.737 -310.079 279.526 -284.441C353.311 -258.804 413.866 -202.282 442.44 -138.136C459.146 -100.623 465.256 -60.9098 461.907 -22.5561C446.78 -53.6938 424.158 -82.1888 393.321 -103.538C372.562 -117.914 348.838 -128.048 324.118 -134.018C325.753 -165.339 314.557 -199.967 285.031 -220.972C248.375 -247.045 197.086 -243.578 156.405 -231.089C81.4129 -208.064 18.3733 -155.842 3.65669 -86.8909C-11.6589 -15.125 28.1371 65.3935 93.568 119.607C108.666 132.119 125.252 143.504 142.947 152.962C173.246 188.972 214.583 218.864 260.549 238.011C297.706 253.485 339.248 262.556 377.411 256.295C409.287 251.062 436.601 235.574 459.826 217.333C486.227 196.605 508.652 171.567 521.497 142.145C539.372 101.217 537.413 56.1356 523.991 11.1707C510.57 -33.7916 485.67 -78.6959 457.575 -119.334L456.297 -118.45C484.342 -77.8847 509.145 -33.1318 522.502 11.6153C535.858 56.3599 537.753 101.04 520.072 141.523C507.361 170.638 485.137 195.485 458.866 216.111C435.762 234.257 408.687 249.585 377.159 254.761C339.389 260.958 298.155 251.988 261.146 236.576C216.63 218.033 176.521 189.386 146.65 154.905C165.553 164.635 185.672 172.141 206.553 176.473C227.678 180.853 249.099 181.814 269.877 179.827C280.853 187.935 292.95 194.823 305.828 200.077C329.434 209.708 355.53 214.529 380.047 211.789C419.357 207.399 451.337 183.66 468.181 153.598C485.03 123.542 488.107 87.8855 483.97 53.0312C481.065 28.603 474.248 3.68284 463.214 -19.8204C467.098 -59.2328 461.054 -100.159 443.86 -138.768C415.106 -203.319 354.214 -260.136 280.036 -285.909ZM392.437 -102.26C423.796 -80.5493 446.608 -51.3762 461.625 -19.5474C458.998 6.61633 451.966 32.1016 440.893 55.7718C422.391 95.3172 392.462 130.593 351.415 153.327C327.448 166.606 299.534 175.347 270.322 178.222C255.322 167.058 242.461 153.594 232.637 138.92C215.606 113.484 207.736 84.4733 213.564 57.5394C219.391 30.636 239.926 8.29422 266.901 -4.68994C273.176 -7.71065 279.796 -10.2226 286.655 -12.1662C281.044 12.9926 280.625 39.5655 292.824 64.3758C300.736 80.4682 315.49 94.9893 332.725 104.266C349.958 113.543 369.761 117.623 387.772 112.687C416.902 104.7 431.679 74.79 423.83 47.6696C416.011 20.6111 389.136 -2.03392 358.981 -12.1889C335.545 -20.0842 310.993 -20.1558 288.752 -14.3477C290.294 -20.8404 292.173 -27.2414 294.261 -33.4968C297.328 -42.675 300.804 -51.7085 304.286 -60.7591C306.701 -67.036 309.12 -73.3215 311.407 -79.6689C316.975 -95.1218 321.72 -110.831 323.566 -127.304C323.757 -129.004 323.91 -130.718 324.024 -132.442C348.461 -126.509 371.91 -116.475 392.437 -102.26ZM288.353 -12.6346C287.786 -12.4823 287.219 -12.3262 286.655 -12.1662C286.783 -12.7415 286.914 -13.3161 287.048 -13.8899C287.614 -14.0463 288.182 -14.1989 288.752 -14.3477C288.616 -13.7773 288.484 -13.2063 288.353 -12.6346ZM288.353 -12.6346C310.528 -18.5811 335.077 -18.6019 358.485 -10.716C388.334 -0.664036 414.704 21.6877 422.336 48.101C429.96 74.4432 415.602 103.445 387.361 111.188C369.84 115.989 350.452 112.044 333.461 102.898C316.471 93.7523 301.969 79.4528 294.218 63.69C282.099 39.0407 282.618 12.5528 288.353 -12.6346ZM287.048 -13.8899C279.81 -11.8914 272.83 -9.26892 266.227 -6.09042C238.93 7.04874 217.996 29.7313 212.045 57.2104C206.105 84.6622 214.148 114.099 231.345 139.785C240.967 154.157 253.467 167.373 268.021 178.436C247.93 180.197 227.26 179.179 206.869 174.951C184.877 170.389 163.723 162.276 143.945 151.733C123.977 127.947 108.866 101.502 100.467 73.7568C79.3935 4.17164 103.967 -71.5141 165.955 -110.998C208.514 -138.107 267.861 -145.669 322.491 -132.809C322.377 -131.019 322.22 -129.241 322.022 -127.478C320.196 -111.183 315.498 -95.606 309.945 -80.1958C307.684 -73.923 305.275 -67.6588 302.861 -61.3847L302.861 -61.3833L302.859 -61.3806C299.362 -52.2897 295.857 -43.1781 292.787 -33.9893C290.602 -27.4424 288.639 -20.7212 287.048 -13.8899ZM306.416 198.638C294.199 193.654 282.692 187.185 272.191 179.593C300.993 176.529 328.488 167.806 352.168 154.687C393.537 131.775 423.678 96.234 442.3 56.4304C453.083 33.3828 460.058 8.62618 462.897 -16.8042C473.216 5.84168 479.637 29.7504 482.426 53.2147C486.541 87.881 483.457 123.171 466.825 152.838C450.211 182.49 418.657 205.913 379.875 210.244C355.667 212.95 329.833 208.193 306.416 198.638ZM98.979 74.2072C107.094 101.014 121.413 126.591 140.282 149.744C123.962 140.72 108.617 130.06 94.5597 118.41C29.3939 64.4165 -9.97603 -15.5638 5.17667 -86.5665C19.7336 -154.77 82.1838 -206.675 156.861 -229.603C197.385 -242.044 248.071 -245.355 284.13 -219.705C313.031 -199.145 324.115 -165.23 322.58 -134.384C267.636 -147.248 207.985 -139.613 165.12 -112.309C102.497 -72.4205 77.7207 4.01023 98.979 74.2072Z" fill="#D8E7FC"/>
<path opacity="0.1" d="M481.461 80.2509C577.834 35.8687 619.928 -78.2118 575.48 -174.555C531.032 -270.898 416.874 -313.021 320.5 -268.639C224.126 -224.257 182.032 -110.176 226.48 -13.8329C270.928 82.5104 385.087 124.633 481.461 80.2509Z" fill="#7EABE1"/>
</svg>
