<svg width="592" height="456" viewBox="0 0 592 456" fill="none" xmlns="http://www.w3.org/2000/svg">
<g clip-path="url(#clip0_494_5573)">
<path d="M341.049 425.885C360.445 407.189 360.973 376.35 342.23 357.003C323.487 337.657 292.569 337.128 273.173 355.824C253.778 374.519 253.249 405.358 271.993 424.705C290.736 444.052 321.654 444.58 341.049 425.885Z" fill="#F0F5FA"/>
<path d="M86.7891 358.136C123.505 350.816 159.008 345.915 196.084 337.104C194.036 334.351 197.185 330.779 200.006 328.821C203.905 326.114 207.805 323.405 211.703 320.698C214.632 318.665 218.047 316.53 221.517 317.356C226.384 318.516 228.072 324.58 228.004 329.568C224.717 327.919 225.045 318.122 226.26 316.899C226.978 316.177 228.089 315.951 228.818 315.237C229.433 314.637 229.695 313.774 229.933 312.949C237.548 286.577 243.531 268.808 248.575 239.572C264.114 217.026 274.399 201.559 292.633 177.331C307.516 196.261 325.324 199.825 336.765 221.001C338.3 223.845 339.815 226.733 340.681 229.845C341.617 233.207 341.767 236.728 342.172 240.194C344.59 260.912 356.055 279.594 359.751 300.012C363.035 297.088 366.32 294.162 369.604 291.238C370.876 290.105 372.224 288.932 373.885 288.543C376.385 287.957 378.884 289.274 381.224 290.335C386.782 292.858 392.908 294.126 399.015 294.022C400.522 293.996 402.089 293.9 403.476 294.489C404.862 295.08 405.981 296.625 405.516 298.053C405.122 299.266 403.819 299.9 402.634 300.375C391.132 304.98 378.683 307.022 366.289 307.105C365.141 307.112 363.931 307.087 362.939 306.511C361.947 305.934 361.296 304.608 361.574 303.473C361.608 304.712 361.641 305.955 361.675 307.196C339.411 311.278 252.865 326.067 229.922 330.951C219.531 333.457 208.972 335.261 198.338 336.347C200.707 329.359 209.136 320.856 216.1 318.373C214.389 317.735 210.686 317.256 208.886 317.565C213.526 295.103 216.599 275.531 220.513 251.213C220.045 241.279 223.868 231.699 227.625 222.486C236.806 199.966 245.988 177.446 257.191 154.742C264.208 154.217 271.224 153.693 278.24 153.168C275.35 147.677 275.883 141.089 276.627 134.934C280.084 106.389 286.519 78.2994 292.942 50.2701C287.343 49.0055 276.539 50.8456 270.766 54.5494C264.757 58.405 233.443 82.1514 221.725 85.3426C207.366 89.2513 195.576 90.4542 180.944 93.1749C179.493 99.729 179.365 101.585 181.343 107.43C171.725 107.43 170.165 112.623 168.08 111.879C164.999 110.777 172.208 106.985 175.267 105.82C169.804 104.137 163.232 111.647 161.098 111.296C157.302 110.673 165.192 104.487 169.005 103.964C163.503 105.458 159.895 112.036 158.879 109.163C158.501 108.1 163.546 102.455 166.834 101.333C165.412 102.513 160.407 106.019 161.202 104.352C163.862 98.7706 171.23 96.1673 177.027 94.7161C177.548 94.5865 178.144 94.4815 178.592 94.7816C179.041 95.0829 179.166 95.6757 179.255 96.208C179.743 99.1572 180.233 102.106 180.722 105.057C180.815 105.614 180.944 106.231 181.412 106.55C181.811 106.82 182.337 106.786 182.818 106.741C195.215 105.575 211.22 104.681 223.537 102.851C229.937 101.9 255.897 93.5639 262.567 88.5338C265.156 86.5825 264.949 82.5923 266.815 79.9457C258.383 102.022 248.26 123.458 236.564 144.002C239.515 150.11 245.244 154.816 252.344 156.506C255.626 157.319 258.989 157.807 262.368 157.965C263.559 158.02 269.395 157.708 270.374 157.029C272.538 155.529 271.791 147.828 273.222 145.621C290.405 147.459 295.796 146.61 310.257 143.98C315.148 125.251 315.897 105.716 316.117 86.3627C316.257 74.203 314.976 60.7478 312.723 48.7968C310.637 51.3693 307.343 54.9581 302.995 56.371C300.055 54.5951 297.836 54.3913 292.803 50.7468C293.673 46.1144 296.653 41.8413 295.132 37.3781C294.658 35.985 292.748 31.954 292.234 30.5733C289.754 23.9056 291.747 18.0147 293.769 11.1951C294.767 7.83218 296.26 3.96666 299.651 3.04166C300.731 2.74773 301.888 2.80577 302.955 2.46862C304.034 2.129 304.95 1.41023 305.998 0.985398C308.248 0.0715061 310.797 0.603787 313.165 1.14842C316.946 2.01661 320.726 2.88605 324.505 3.75424C325.678 4.02347 326.889 4.31122 327.847 5.0374C328.804 5.76357 329.438 7.05908 329.023 8.18539C328.591 9.3611 327.203 9.9823 326.779 11.1605C326.535 11.836 326.652 12.5782 326.738 13.2908C327.803 22.1037 322.606 33.3804 318.723 41.3683C317.669 43.537 316.485 45.8464 314.346 46.9702C312.116 48.1435 309.301 47.7013 307.119 46.4392C304.937 45.177 303.27 43.2047 301.664 41.2917C300.94 38.4278 300.217 35.5639 299.494 32.7012C297.624 32.2245 296.131 30.7104 295.359 28.948C294.587 27.1845 294.461 25.1974 294.64 23.2807C294.736 22.2556 294.996 21.112 295.875 20.5736C297.062 19.8462 298.698 20.7403 299.286 21.9987C299.874 23.2584 299.738 24.7157 299.668 26.1026C299.6 27.4895 299.646 28.9974 300.503 30.0929C300.265 28.5405 300.369 26.9362 300.807 25.4258C301.217 26.2644 302.602 25.926 303.069 25.1183C303.537 24.3106 303.469 23.3128 303.692 22.4075C304.091 20.786 305.432 19.5226 306.942 18.8014C308.453 18.0801 310.136 17.8183 311.79 17.5651C311.192 15.9238 312.426 14.0738 314.021 13.3575C315.618 12.64 317.449 12.7548 319.195 12.8759C320.942 12.9969 322.778 13.0932 324.361 12.3461C322.78 13.7194 320.437 12.3103 318.47 11.5841C316.717 10.9382 314.81 10.8962 312.967 10.5862C308.938 9.90943 304.985 7.92727 300.966 8.64851C296.907 9.37715 293.733 12.8672 292.477 16.7859C291.221 20.7045 291.616 24.9714 292.58 28.9703C292.902 30.3065 293.298 31.6588 294.108 32.7703C294.917 33.883 296.213 34.7265 297.59 34.6623C298.034 34.6413 298.502 34.5326 298.906 34.7167C299.633 35.0464 299.677 36.0319 299.694 36.826C299.829 42.7404 305.224 48.041 311.155 48.0854C311.527 48.0879 311.929 48.0817 312.232 48.2966C312.606 48.5621 312.703 49.0685 312.748 49.5242C313.221 54.1233 311.842 58.8854 308.984 62.5262C307.381 61.0516 305.778 59.5758 304.174 58.1012C304.005 57.9456 303.821 57.7826 303.593 57.7554C303.29 57.7208 303.02 57.932 302.784 58.1271C301.153 59.493 299.384 60.6971 297.514 61.7148C297.188 61.8914 296.831 62.0692 296.462 62.0235C296.076 61.9753 295.761 61.6925 295.491 61.4122C293.652 59.5078 292.425 57.0267 291.481 55.0421C294.611 57.5689 297.741 60.0945 300.873 62.6225C302.087 63.6031 303.506 64.6417 305.048 64.3984C303.835 81.3375 302.604 98.3902 298.325 114.829C297.178 119.233 295.812 123.604 295.286 128.124C295.064 130.038 294.985 132.007 294.284 133.802C292.705 137.831 288.378 140.124 286.166 143.844C284.78 140.862 283.394 137.879 282.007 134.899C281.528 133.867 281.04 132.796 281.027 131.658C281.013 130.257 281.718 128.962 282.382 127.726C292.733 108.438 296.873 86.5393 300.88 65.0319C303.563 66.1113 306.832 62.9967 305.859 60.0673C308.811 57.3009 311.315 54.0615 313.245 50.5122C324.196 51.5422 334.931 54.7988 344.602 60.0253C376.278 77.1447 373.997 76.6989 378.467 75.3429C394.843 70.3708 406.147 66.0286 423.124 63.8217C422.745 68.2207 423.494 72.7148 425.811 76.752C428.247 78.3081 431.544 76.4704 434.33 77.2447C435.762 77.6436 437.111 78.7341 438.562 78.4081C438.692 78.3797 438.832 78.3315 438.909 78.2204C439.07 77.9907 438.867 77.6856 438.667 77.4843C437.337 76.1505 435.745 75.0761 434.006 74.3462C433.208 74.0115 432.369 73.7399 431.678 73.2199C430.988 72.6988 430.464 71.8466 430.624 70.9982C430.766 70.2288 431.717 69.6631 432.353 69.2025C435.576 66.8745 441.868 65.5371 445.819 65.0789C447.069 64.9331 451.498 62.1915 445.481 62.8892C439.996 63.5253 433.691 62.8757 426.417 63.7192C425.971 63.7723 425.521 64.0353 425.322 64.4379C425.175 64.7331 425.206 65.0838 425.253 65.4098C425.41 66.5201 425.721 67.6106 426.172 68.6393C426.3 68.9345 426.455 69.2408 426.734 69.4063C427.051 69.594 427.45 69.5495 427.815 69.4964C433.846 68.6208 444.945 65.6309 447.298 66.8696C450.264 68.4306 438.944 69.8583 436.033 70.4449C437.377 70.8759 439.586 69.8645 441.132 69.9361C442.764 69.4779 444.398 69.021 446.03 68.5628C446.165 69.3322 445.397 69.9361 444.707 70.3016C442.572 71.4354 440.224 72.1739 437.824 72.4641C439.804 72.0578 441.788 71.6638 443.774 71.281C443.954 71.859 443.388 72.3851 442.869 72.6963C440.645 74.0325 438.006 74.6723 435.414 74.5055C433.338 74.3722 431.182 73.7448 429.23 74.466C427.503 75.1045 426.305 76.6767 424.71 77.5955C422.874 78.6526 390.956 92.7933 377.469 94.4803C373.307 95.0014 367.02 93.286 365.333 92.587C361.043 90.8111 347.678 88.067 343.263 86.9641C341.232 86.5405 339.203 86.1157 337.172 85.6921C336.801 83.2814 336.429 80.8707 336.058 78.46C337.157 104.449 339.311 130.396 342.512 156.214C332.699 154.684 322.883 153.153 312.995 151.999C311.712 149.7 310.604 147.304 309.682 144.839C310.734 147.13 312.683 148.996 315.023 149.949C316.685 150.624 318.492 150.844 320.275 151.058C325.811 151.718 331.348 152.38 336.643 153.184C344.493 169.608 351.492 186.436 357.605 203.578C359.51 208.923 361.332 214.304 362.736 219.8C364.214 225.577 365.222 231.462 366.231 237.336C368.77 252.132 371.309 266.928 374.207 281.734C374.529 283.783 374.852 285.833 375.173 287.882C370.92 289.378 366.524 291.586 364.485 295.597C362.445 299.61 364.235 305.67 368.684 306.406C369.882 306.606 371.107 306.408 372.304 306.212C392.066 302.98 510.405 284.623 529.683 282.184C529.562 284.27 529.44 286.354 529.318 288.44C519.953 289.544 334.742 318.516 324.399 320.777C317.747 322.176 311.096 323.573 304.444 324.972C303.69 325.131 302.871 325.328 302.396 325.933C301.937 326.517 301.922 327.325 301.973 328.064C302.143 330.527 302.815 332.954 303.937 335.155C287.573 337.443 269.924 345.704 260.77 360.06C262.481 361.196 264.193 362.33 266.185 364.059C267.548 367.349 268.847 370.662 270.083 373.999C271.043 373.296 271.909 372.463 273.215 371.695C281.637 378.523 290.596 384.69 299.983 390.121C299.449 392.822 301.381 395.739 304.058 396.41C306.734 397.084 309.762 395.506 310.837 392.97C311.91 390.433 310.996 387.241 308.806 385.566C306.663 383.928 303.082 384.028 301.659 386.314C293.672 379.759 285.208 373.783 276.355 368.45C277.401 367.076 278.092 365.432 278.34 363.723C274.945 364.328 271.451 364.36 268.046 363.818C279.868 372.807 291.825 381.617 303.38 390.478C299.815 395.81 296.093 401.037 292.222 406.151C290.702 405.812 289.256 405.158 288 404.24C288.277 407.803 288.556 411.367 288.835 414.93C292.919 414.168 296.966 413.211 300.958 412.063C299.275 410.714 297.592 409.364 295.907 408.016C300.028 403.418 303.892 398.595 307.478 393.574C307.03 393.188 306.581 392.803 306.133 392.416C295.364 407.244 284.595 422.072 273.617 437.907C266.979 436.649 262.442 430.542 259.41 424.52C253.003 411.786 250.272 397.239 251.626 383.058C252.293 376.08 254.048 368.944 258.451 363.481C256.33 362.993 254.211 362.505 252.091 362.017C245.575 374.397 243.036 388.821 244.933 402.677C246.832 416.531 253.158 429.748 262.767 439.931C265.738 443.081 269.06 445.978 272.95 447.885C273.817 448.31 274.747 448.691 275.712 448.654C278.721 448.541 280.018 444.863 283.288 440.795C295.734 446.855 310.448 444.642 324.097 442.294C324.751 445.998 325.405 449.701 326.06 453.406C335.394 453.277 537.556 451.423 546.89 451.293" stroke="#4D4C4C" stroke-linecap="round" stroke-linejoin="round"/>
<path d="M64.9888 455.297C105.414 456.048 242.187 454.612 261.88 453.505C268.207 453.15 274.534 452.795 280.861 452.439C257.948 456.29 221.633 403.433 249.779 357.455C263.365 335.264 290.123 321.434 316.021 324.419C341.919 327.407 365.23 347.742 370.443 373.216C371.944 380.556 372.039 388.146 371.104 395.578C368.591 415.532 361.031 433.345 344.043 444.181C329.218 453.637 309.067 456.084 290.241 453.172C290.885 449.989 291.531 446.808 292.175 443.625C313.46 449.477 337.928 441.207 351.259 423.657C364.59 406.108 365.946 380.378 354.533 361.532C343.12 342.685 319.654 331.902 296.949 336.292C295.97 332.763 294.993 329.233 294.016 325.702C225.242 337.809 156.465 349.914 87.6894 362.021" stroke="#4D4C4C" stroke-linecap="round" stroke-linejoin="round"/>
<path d="M302.851 65.8581C306.708 60.8514 301.694 91.2771 300.537 102.061C298.786 112.162 295.137 122.473 293.594 133.642C291.666 137.493 285.368 143.656 285.368 141.125C284.567 140.92 282.795 134.027 281.638 130.946C288.581 119.777 293.105 103.545 294.366 98.5947C296.623 89.7365 300.923 64.3177 302.851 65.8581Z" fill="#E5F1FF"/>
</g>
<defs>
<clipPath id="clip0_494_5573">
<rect width="592" height="456" fill="white"/>
</clipPath>
</defs>
</svg>
