<svg width="377" height="356" viewBox="0 0 377 356" fill="none" xmlns="http://www.w3.org/2000/svg">
<g clip-path="url(#clip0_523_7299)">
<path d="M215.913 332.489C231.055 317.893 231.468 293.817 216.835 278.713C202.202 263.609 178.063 263.197 162.921 277.792C147.778 292.388 147.366 316.464 161.999 331.568C176.632 346.672 200.77 347.084 215.913 332.489Z" fill="#F0F5FA"/>
<path d="M17.4067 279.597C46.0718 273.883 73.7892 270.057 102.736 263.178C101.136 261.028 103.595 258.24 105.798 256.711C108.841 254.597 111.886 252.483 114.93 250.37C117.217 248.783 119.882 247.116 122.591 247.761C126.391 248.666 127.709 253.4 127.656 257.294C125.09 256.007 125.346 248.358 126.295 247.404C126.855 246.84 127.723 246.663 128.292 246.106C128.772 245.638 128.977 244.964 129.162 244.32C135.108 223.731 139.779 209.859 143.717 187.034C155.848 169.432 163.878 157.357 178.113 138.442C189.733 153.221 203.636 156.004 212.568 172.536C213.767 174.756 214.949 177.011 215.625 179.44C216.356 182.065 216.473 184.814 216.789 187.52C218.678 203.695 227.628 218.28 230.514 234.22C233.077 231.937 235.643 229.653 238.207 227.37C239.2 226.485 240.252 225.57 241.548 225.266C243.5 224.809 245.452 225.837 247.278 226.665C251.617 228.635 256.4 229.625 261.168 229.544C262.345 229.524 263.568 229.448 264.651 229.908C265.733 230.369 266.607 231.575 266.243 232.691C265.936 233.638 264.919 234.132 263.993 234.503C255.014 238.099 245.295 239.693 235.618 239.757C234.722 239.763 233.777 239.744 233.003 239.293C232.229 238.843 231.72 237.808 231.938 236.922C231.964 237.89 231.99 238.859 232.016 239.828C214.634 243.015 147.066 254.561 129.154 258.374C121.042 260.33 112.798 261.739 104.495 262.586C106.345 257.131 112.926 250.493 118.362 248.554C117.027 248.057 114.136 247.683 112.73 247.924C116.353 230.387 118.752 215.107 121.808 196.122C121.443 188.367 124.428 180.888 127.36 173.695C134.528 156.114 141.697 138.532 150.443 120.807C155.922 120.397 161.399 119.988 166.876 119.579C164.621 115.292 165.036 110.148 165.617 105.343C168.316 83.0583 173.34 61.1285 178.355 39.246C173.984 38.2587 165.549 39.6953 161.041 42.5868C156.35 45.5969 131.902 64.1357 122.754 66.6271C111.544 69.6787 102.339 70.6177 90.9155 72.7418C89.7824 77.8586 89.6828 79.3077 91.2269 83.8711C83.7181 83.8711 82.4998 87.9253 80.8726 87.344C78.467 86.4839 84.0952 83.523 86.4834 82.6138C82.2185 81.2997 77.0873 87.1627 75.4213 86.8889C72.4578 86.4029 78.6178 81.5735 81.5948 81.1647C77.299 82.3313 74.4825 87.4664 73.6887 85.2238C73.3938 84.3936 77.3328 79.9865 79.8999 79.111C78.789 80.0318 74.8818 82.769 75.5025 81.4674C77.5794 77.1104 83.3313 75.0779 87.8573 73.9451C88.2644 73.8438 88.7294 73.7619 89.0794 73.9962C89.4294 74.2314 89.5271 74.6942 89.5967 75.1098C89.9777 77.4122 90.3605 79.7146 90.7425 82.018C90.815 82.4528 90.9155 82.9349 91.281 83.1836C91.5924 83.3948 92.0033 83.3678 92.3784 83.3331C102.057 82.4229 114.553 81.7248 124.168 80.296C129.165 79.5536 149.433 73.0455 154.64 69.1185C156.661 67.5951 156.5 64.4799 157.957 62.4137C151.373 79.649 143.47 96.3839 134.339 112.423C136.643 117.191 141.116 120.865 146.659 122.185C149.221 122.819 151.847 123.2 154.485 123.323C155.415 123.367 159.971 123.123 160.736 122.593C162.425 121.422 161.842 115.41 162.959 113.687C176.374 115.121 180.583 114.459 191.873 112.405C195.691 97.7839 196.276 82.5328 196.448 67.4235C196.558 57.9304 195.557 47.4259 193.798 38.0957C192.17 40.1041 189.598 42.9059 186.203 44.0089C183.908 42.6225 182.175 42.4634 178.246 39.6181C178.926 36.0016 181.252 32.6656 180.065 29.1811C179.694 28.0935 178.203 24.9465 177.802 23.8686C175.865 18.6631 177.422 14.0641 179 8.74C179.779 6.1146 180.945 3.09678 183.593 2.37463C184.436 2.14516 185.339 2.19047 186.172 1.92726C187.014 1.66211 187.73 1.10097 188.548 0.769304C190.305 0.0558271 192.295 0.471379 194.143 0.896573C197.095 1.57438 200.046 2.25314 202.997 2.93095C203.913 3.14113 204.858 3.36578 205.606 3.93271C206.353 4.49963 206.848 5.51103 206.524 6.39035C206.187 7.30823 205.103 7.7932 204.772 8.713C204.582 9.2404 204.673 9.81986 204.74 10.3762C205.572 17.2564 201.514 26.0601 198.483 32.2963C197.66 33.9894 196.735 35.7924 195.066 36.6697C193.324 37.5857 191.127 37.2405 189.423 36.2551C187.719 35.2698 186.418 33.73 185.164 32.2365C184.599 30.0007 184.035 27.7648 183.47 25.5299C182.01 25.1577 180.845 23.9756 180.241 22.5998C179.639 21.223 179.54 19.6716 179.681 18.1753C179.755 17.375 179.958 16.4822 180.645 16.0618C181.571 15.4939 182.848 16.192 183.307 17.1745C183.767 18.1579 183.66 19.2956 183.606 20.3784C183.553 21.4611 183.589 22.6383 184.258 23.4936C184.072 22.2816 184.153 21.0292 184.495 19.85C184.815 20.5047 185.897 20.2405 186.261 19.6099C186.627 18.9794 186.574 18.2003 186.748 17.4936C187.059 16.2277 188.106 15.2413 189.285 14.6783C190.464 14.1152 191.778 13.9108 193.07 13.7131C192.603 12.4318 193.566 10.9875 194.811 10.4282C196.059 9.86807 197.488 9.95773 198.851 10.0522C200.215 10.1467 201.648 10.2219 202.884 9.6386C201.65 10.7107 199.821 9.61064 198.285 9.04371C196.916 8.53946 195.427 8.50667 193.989 8.26467C190.843 7.73631 187.757 6.18884 184.619 6.75191C181.45 7.32076 178.972 10.0455 177.992 13.1047C177.011 16.164 177.32 19.4952 178.072 22.6171C178.323 23.6603 178.633 24.7161 179.265 25.5838C179.896 26.4526 180.909 27.1111 181.984 27.0609C182.33 27.0445 182.695 26.9597 183.011 27.1034C183.578 27.3608 183.613 28.1302 183.627 28.7501C183.732 33.3675 187.944 37.5057 192.574 37.5404C192.864 37.5423 193.178 37.5375 193.415 37.7052C193.707 37.9125 193.783 38.3078 193.817 38.6636C194.187 42.2541 193.111 45.9719 190.879 48.8143C189.628 47.6631 188.376 46.5109 187.124 45.3597C186.992 45.2382 186.848 45.1109 186.67 45.0897C186.433 45.0627 186.223 45.2276 186.039 45.3799C184.765 46.4463 183.384 47.3864 181.924 48.1808C181.67 48.3187 181.391 48.4575 181.103 48.4219C180.801 48.3843 180.556 48.1635 180.345 47.9446C178.909 46.4579 177.951 44.5209 177.214 42.9715C179.657 44.9441 182.102 46.9158 184.547 48.8895C185.495 49.655 186.603 50.4659 187.806 50.2759C186.859 63.5003 185.898 76.8134 182.557 89.6473C181.662 93.0855 180.595 96.4977 180.184 100.027C180.011 101.521 179.949 103.058 179.402 104.46C178.169 107.605 174.791 109.395 173.064 112.299C171.982 109.971 170.9 107.642 169.818 105.316C169.443 104.51 169.062 103.674 169.053 102.786C169.041 101.692 169.592 100.681 170.111 99.716C178.192 84.6578 181.424 67.5614 184.552 50.7705C186.647 51.6132 189.199 49.1816 188.44 46.8946C190.744 44.7349 192.699 42.2059 194.206 39.4349C202.755 40.2391 211.136 42.7815 218.686 46.8619C243.417 60.227 241.636 59.879 245.126 58.8203C257.911 54.9386 266.736 51.5486 279.99 49.8257C279.694 53.26 280.279 56.7686 282.088 59.9204C283.99 61.1352 286.564 59.7006 288.74 60.3051C289.857 60.6165 290.91 61.4679 292.043 61.2133C292.145 61.1912 292.254 61.1536 292.314 61.0668C292.44 60.8875 292.281 60.6493 292.126 60.4922C291.087 59.4509 289.844 58.612 288.486 58.0422C287.864 57.7809 287.208 57.5688 286.669 57.1629C286.13 56.756 285.721 56.0908 285.846 55.4284C285.957 54.8277 286.7 54.3861 287.196 54.0265C289.712 52.2091 294.624 51.1649 297.709 50.8072C298.685 50.6934 302.142 48.553 297.445 49.0977C293.163 49.5943 288.241 49.0871 282.561 49.7457C282.213 49.7871 281.862 49.9925 281.707 50.3068C281.592 50.5372 281.616 50.811 281.652 51.0656C281.775 51.9324 282.018 52.7837 282.37 53.5869C282.47 53.8173 282.591 54.0564 282.809 54.1856C283.056 54.3321 283.368 54.2974 283.653 54.256C288.362 53.5724 297.027 51.2382 298.864 52.2052C301.179 53.4239 292.341 54.5385 290.069 54.9965C291.118 55.3329 292.843 54.5433 294.05 54.5992C295.324 54.2415 296.599 53.8848 297.874 53.5271C297.979 54.1277 297.38 54.5992 296.841 54.8846C295.174 55.7697 293.341 56.3463 291.467 56.5729C293.013 56.2556 294.562 55.9481 296.112 55.6492C296.253 56.1004 295.811 56.5111 295.406 56.7541C293.67 57.7973 291.609 58.2968 289.586 58.1666C287.965 58.0625 286.282 57.5727 284.758 58.1358C283.409 58.6342 282.474 59.8616 281.229 60.5789C279.795 61.4042 254.877 72.4439 244.346 73.7609C241.098 74.1678 236.189 72.8286 234.872 72.2828C231.523 70.8964 221.088 68.754 217.641 67.893C216.056 67.5623 214.472 67.2307 212.886 66.9C212.596 65.0179 212.306 63.1359 212.016 61.2538C212.875 81.5436 214.556 101.801 217.055 121.956C209.394 120.762 201.73 119.567 194.011 118.666C193.009 116.871 192.144 115.001 191.424 113.076C192.245 114.865 193.767 116.322 195.594 117.065C196.891 117.593 198.302 117.764 199.694 117.931C204.016 118.447 208.339 118.964 212.473 119.591C218.601 132.414 224.066 145.551 228.839 158.934C230.326 163.107 231.748 167.307 232.844 171.598C233.998 176.108 234.785 180.702 235.573 185.289C237.555 196.84 239.537 208.391 241.8 219.95C242.051 221.55 242.303 223.15 242.554 224.75C239.234 225.918 235.802 227.642 234.21 230.773C232.617 233.906 234.014 238.637 237.488 239.211C238.423 239.368 239.38 239.213 240.315 239.06C255.743 236.537 348.133 222.206 363.183 220.301C363.089 221.93 362.994 223.557 362.898 225.186C355.587 226.048 210.989 248.666 202.914 250.431C197.721 251.524 192.528 252.614 187.334 253.707C186.746 253.83 186.107 253.984 185.735 254.457C185.378 254.913 185.366 255.543 185.406 256.12C185.538 258.043 186.063 259.938 186.939 261.656C174.163 263.443 160.384 269.892 153.238 281.099C154.573 281.986 155.91 282.871 157.465 284.221C158.529 286.79 159.544 289.377 160.508 291.982C161.258 291.433 161.934 290.782 162.954 290.183C169.528 295.513 176.523 300.328 183.852 304.568C183.435 306.676 184.943 308.954 187.033 309.478C189.122 310.004 191.486 308.773 192.326 306.792C193.164 304.812 192.45 302.319 190.74 301.012C189.067 299.734 186.271 299.812 185.16 301.596C178.925 296.479 172.317 291.813 165.405 287.65C166.222 286.577 166.761 285.293 166.955 283.959C164.304 284.431 161.576 284.456 158.918 284.033C168.148 291.051 177.483 297.929 186.504 304.846C183.72 309.01 180.815 313.09 177.792 317.083C176.606 316.818 175.477 316.307 174.496 315.591C174.713 318.373 174.93 321.155 175.148 323.937C178.337 323.342 181.496 322.595 184.613 321.698C183.299 320.645 181.985 319.591 180.67 318.539C183.887 314.949 186.903 311.184 189.703 307.264C189.353 306.963 189.003 306.662 188.653 306.36C180.245 317.936 171.838 329.513 163.267 341.875C158.085 340.893 154.543 336.125 152.176 331.424C147.173 321.482 145.041 310.125 146.098 299.054C146.619 293.606 147.989 288.035 151.427 283.77C149.771 283.389 148.117 283.008 146.462 282.627C141.374 292.292 139.392 303.554 140.873 314.37C142.355 325.186 147.294 335.505 154.796 343.455C157.116 345.914 159.71 348.176 162.747 349.664C163.424 349.996 164.15 350.294 164.903 350.265C167.252 350.176 168.265 347.305 170.817 344.129C180.534 348.86 192.022 347.133 202.678 345.3C203.188 348.191 203.699 351.083 204.21 353.975C211.498 353.874 369.33 352.427 376.617 352.325" stroke="#4D4C4C" stroke-linecap="round" stroke-linejoin="round"/>
<path d="M0.386719 355.451C31.9475 356.038 138.729 354.916 154.104 354.052C159.044 353.775 163.983 353.498 168.923 353.22C151.034 356.227 122.682 314.961 144.656 279.066C155.263 261.741 176.153 250.944 196.373 253.275C216.592 255.607 234.792 271.483 238.861 291.371C240.033 297.101 240.108 303.026 239.378 308.829C237.416 324.407 231.513 338.314 218.25 346.773C206.676 354.156 190.944 356.066 176.246 353.792C176.749 351.307 177.253 348.824 177.756 346.339C194.373 350.907 213.476 344.451 223.884 330.75C234.292 317.049 235.35 296.962 226.44 282.249C217.53 267.535 199.21 259.117 181.483 262.544C180.719 259.789 179.956 257.033 179.193 254.277C125.5 263.728 71.8042 273.179 18.1096 282.631" stroke="#4D4C4C" stroke-linecap="round" stroke-linejoin="round"/>
<path d="M186.091 51.4154C189.102 47.5067 185.188 71.2601 184.284 79.679C182.918 87.5647 180.069 95.6148 178.864 104.334C177.359 107.341 172.441 112.152 172.441 110.176C171.816 110.017 170.433 104.635 169.53 102.23C174.95 93.5101 178.482 80.8372 179.466 76.9729C181.229 70.0573 184.586 50.2128 186.091 51.4154Z" fill="#E5F1FF"/>
</g>
<defs>
<clipPath id="clip0_523_7299">
<rect width="377" height="356" fill="white"/>
</clipPath>
</defs>
</svg>
