<svg width="416" height="271" viewBox="0 0 416 271" fill="none" xmlns="http://www.w3.org/2000/svg">
<g clip-path="url(#clip0_494_5462)">
<path d="M154.652 191.882C143.661 191.882 138.797 225.253 132.21 235.503C129.039 243.846 116.599 256.241 118.306 259.011C121.408 262.965 132.022 266.679 157.091 269.827C180.612 272.781 195.876 270.542 197.34 268.874C198.072 267.205 186.37 249.711 186.363 243.13C190.601 218.907 189.164 213.097 181.728 204.754C179.06 201.76 178.313 212.143 168.556 203.801C167.824 209.045 160.994 209.76 155.872 209.045C169.776 181.871 156.932 191.882 154.652 191.882Z" fill="#E2EFFF"/>
<path d="M161.518 50.0393C169.425 42.5803 169.641 30.2761 161.999 22.5572C154.357 14.8382 141.752 14.6275 133.844 22.0865C125.937 29.5456 125.721 41.8497 133.363 49.5687C141.005 57.2876 153.61 57.4983 161.518 50.0393Z" fill="#E5EEF9"/>
<path d="M0.344482 269.422C59.5346 269.443 31.8791 269.648 92.1453 267.824C97.8382 270.651 104.99 269.196 110.261 265.673C115.533 262.15 119.279 256.872 122.682 251.587C134.04 233.946 138.673 220.711 144.874 200.763C138.97 200.192 133.34 197.259 129.656 193.46C131.46 192.616 136.143 184.323 135.716 182.412C135.289 180.501 134.307 178.689 134.29 176.733C134.276 175.077 134.956 173.503 135.369 171.896C136.009 169.404 136.002 166.755 135.35 164.265C135.056 163.144 134.841 161.584 135.946 161.169C136.881 160.818 137.78 161.734 138.304 162.57C140.391 165.896 141.663 169.707 141.979 173.403C147.872 166.978 155.878 162.438 164.506 160.628C165.309 160.46 166.258 160.352 166.848 160.91C167.908 161.912 166.68 163.58 165.523 164.474C163.062 166.377 160.6 168.279 158.139 170.181C160.449 170.116 162.477 172.507 161.983 174.718C163.626 175.869 163.667 178.627 162.057 179.823C164.873 180.605 165.591 184.563 163.99 186.961C162.39 189.359 159.403 190.457 156.556 191.122C156.739 189.652 158.16 188.434 159.673 188.448C157.387 190.634 154.085 191.76 150.834 191.762C149.522 193.041 143.904 200.217 142.591 201.497C140.021 202.132 137.634 200.131 135.704 198.353C133.774 196.575 131.145 194.744 128.698 195.738C127.599 196.184 128.527 193.757 127.781 194.664C119.778 204.391 115.218 214.119 107.213 223.845C86.6211 248.872 87.4673 265.863 93.1714 265.895C96.5512 268.116 101.055 268.6 104.847 267.152C108.64 265.702 111.616 262.359 112.563 258.485C106.888 256.044 99.566 260.895 94.3741 257.58C91.9413 256.027 90.8161 253.029 90.7774 250.187C90.7386 247.345 91.6133 244.578 92.3949 241.841C95.2573 231.818 96.9756 221.483 97.5077 211.09C97.9338 202.752 97.6463 194.14 100.81 186.387C103.974 178.634 111.866 171.91 121.845 173.638C129.72 181.343 138.879 172.063 130.47 153.695C125.601 151.544 121.164 144.354 123.525 138.792C125.514 134.106 130.997 140.048 132.804 142.369C132.165 138.006 139.076 141.764 142.31 138.695C145.544 135.626 146.391 126.563 150.437 124.624C152.488 123.641 154.466 119.802 156.421 120.958C157.894 121.829 158.474 123.602 158.939 125.223C164.587 144.87 163.289 155.025 160.141 161.45C158.717 164.356 153.049 167.958 149.915 168.952C146.546 170.021 146.212 168.8 143.43 166.655C140.648 164.511 138.667 162.392 137.035 159.751C138.941 161.952 140.871 164.176 143.256 165.874C145.641 167.571 148.562 168.715 151.499 168.458C152.967 168.33 154.822 168.023 155.585 169.257C156.287 170.393 155.371 171.92 155.833 173.168C156.144 174.008 157 174.517 157.81 174.928C158.62 175.339 159.497 175.767 159.935 176.55C160.372 177.335 160.046 178.57 159.142 178.694C160.585 179.561 161.566 181.125 161.925 184.169C163.753 192.64 161.551 201.862 156.076 208.664C158.647 208.872 161.311 209.069 163.737 208.21C166.163 207.352 168.286 205.127 168.121 202.609C169.086 204.787 171.278 206.398 173.685 206.697C176.092 206.997 178.627 205.974 180.118 204.101C176.161 201.791 174.807 196.889 174.04 192.443C170.78 173.549 172.725 150.648 168.074 132.035C166.617 126.2 164.392 120.189 159.666 116.355C155.653 113.099 151.71 111.621 145.955 111.875C137.078 112.265 144.154 94.3898 147.876 86.1036C146.012 87.0057 143.655 86.2948 142.157 84.8839C140.658 83.4721 138.758 74.0689 139.269 65.3851C145.625 65.0944 150.26 64.9715 157.935 64.1569C159.527 58.1501 165.267 54.2458 169.037 49.2557C176.738 39.0615 175.089 23.2337 165.456 14.7571C155.823 6.28046 139.577 6.34532 130.004 14.8868C120.431 23.4283 118.865 39.2376 126.571 49.4283C130.605 54.763 136.711 57.3928 139.798 64.8089C141.697 64.7053 143.597 64.6017 145.496 64.4981C145.286 55.4579 145.077 46.4178 144.867 37.3768C144.825 35.5733 144.745 33.6502 143.679 32.1778C142.613 30.7062 140.172 30.0593 138.923 31.386C137.936 32.4347 138.199 34.2121 139.164 35.2827C140.127 36.3525 141.59 36.8495 143.017 37.1392C145.301 37.6025 147.649 37.6455 149.981 37.6859C152.134 37.7238 154.42 37.7281 156.257 36.6296C158.094 35.5312 159.137 32.8938 157.788 31.252C156.304 29.4477 153.08 30.2353 151.751 32.1525C150.423 34.0697 150.438 36.5563 150.502 38.8711C150.736 47.3814 150.971 55.8909 152.04 64.7508C153.594 64.4307 155.261 64.119 156.73 64.7103C158.2 65.3017 159.219 67.1944 158.305 68.4664C152.541 68.9726 146.777 69.4797 141.013 69.986C139.823 70.0904 138.292 70.5276 138.266 71.696C138.251 72.3572 138.808 72.9258 139.442 73.1558C140.075 73.3857 140.772 73.3504 141.447 73.3116C146.131 73.0446 150.815 72.7784 155.499 72.5114C156.66 72.4457 158.214 72.6765 158.358 73.8061C158.512 75.0207 156.857 75.5615 155.61 75.6533C151.259 75.9726 146.909 76.2919 142.558 76.6119C141.158 76.7147 139.368 77.173 139.255 78.5418C139.186 79.3833 139.894 80.1355 140.707 80.4211C141.519 80.7066 142.411 80.635 143.271 80.5592C146.476 80.2762 149.681 79.994 152.887 79.711C153.784 79.6318 154.706 79.5551 155.57 79.8028C156.434 80.0504 157.239 80.7024 157.383 81.5717C157.575 82.7384 156.574 83.7509 155.588 84.4332C153.736 85.7144 151.615 86.62 149.086 87.1599C143.812 91.2942 140.989 98.2301 141.913 104.78C142.261 107.242 143.022 110.019 141.505 112.012C140.269 113.636 138.011 114.036 136.024 114.605C127.599 117.017 121.399 124.443 118.583 132.579C115.765 140.713 115.862 149.525 116.554 158.088C116.94 162.882 115.375 166.211 108.8 173.368C106.774 175.92 105.188 178.804 104.129 181.863C106.939 178.311 110.732 175.513 114.996 173.85C116.609 173.221 118.541 172.781 120.001 173.701C121.932 174.919 121.861 177.636 121.164 181.126C124.719 188.493 123.472 197.263 120.644 204.926C117.816 212.59 113.516 219.686 110.906 227.423C109.834 230.598 109.049 233.954 109.47 237.273C109.892 240.592 111.704 243.887 114.742 245.42C117.78 246.953 122.04 246.217 123.822 243.363C125.062 251.351 125.098 259.516 125.423 266.662C124.774 255.813 126.188 244.849 129.573 234.499C130.426 231.891 131.567 229.121 133.977 227.73C136.701 226.158 140.127 226.839 143.241 227.372C154.626 229.32 166.48 228.586 176.107 226.483C177.893 223.005 177.716 218.846 176.751 215.07C175.786 211.293 174.094 207.734 172.924 204.013C170.736 197.055 170.413 189.685 170.107 182.412C170.035 180.725 169.979 178.962 170.714 177.435C172.18 174.386 176.34 173.428 179.666 174.301C184.404 175.544 187.842 179.439 190.973 183.133C198.771 192.337 206.569 201.541 214.572 212.256C211.589 229.313 208.606 248.055 205.354 265.428C186.109 266.292 166.865 265.472 147.62 266.337C147.754 267.522 147.889 268.707 148.024 269.892C166.71 269.501 179.37 270.794 197.885 268.93C192.821 259.714 187.625 248.33 187.589 237.866C187.572 232.842 188.76 227.894 189.196 222.888C189.915 214.615 180.966 194.535 188.098 198.119C191.827 199.993 189.638 209.203 189.717 213.068C188.337 214.996 188.485 217.666 189.471 219.812C190.458 221.958 192.16 223.699 193.829 225.393C195.964 227.559 198.121 229.744 200.692 231.397C203.262 233.049 206.318 234.146 209.382 233.887C211.483 225.45 213.583 217.014 215.901 208.892C240.705 207.208 265.585 206.58 291.014 208.987C288.542 227.381 284.342 246.506 279.691 264.727C254.99 265.088 230.289 265.449 205.587 265.81C205.592 266.96 205.597 268.111 205.602 269.261C228.54 269.225 251.479 269.188 274.417 269.152C273.93 268.038 273.442 266.923 273.122 266.313L273.374 269.429C279.589 269.456 345.186 268.979 351.4 269.006" stroke="#4D4C4C" stroke-linecap="round" stroke-linejoin="round"/>
</g>
<defs>
<clipPath id="clip0_494_5462">
<rect width="416" height="271" fill="white"/>
</clipPath>
</defs>
</svg>
