<svg width="432" height="340" viewBox="0 0 432 340" fill="none" xmlns="http://www.w3.org/2000/svg">
<g clip-path="url(#clip0_526_7928)">
<path d="M189.936 240.738C176.438 240.738 170.463 282.606 162.374 295.465C158.48 305.932 143.201 321.483 145.298 324.958C149.107 329.919 162.143 334.579 192.932 338.529C221.819 342.234 240.566 339.426 242.363 337.332C243.262 335.239 228.891 313.291 228.882 305.035C234.086 274.643 232.323 267.354 223.19 256.887C219.912 253.13 218.996 266.158 207.013 255.691C206.114 262.27 197.725 263.167 191.434 262.27C208.51 228.178 192.737 240.738 189.936 240.738Z" fill="#E2EFFF"/>
<path d="M198.368 62.7797C208.08 53.4215 208.345 37.9846 198.959 28.3003C189.574 18.616 174.093 18.3516 164.381 27.7098C154.669 37.068 154.404 52.505 163.789 62.1892C173.175 71.8735 188.656 72.1379 198.368 62.7797Z" fill="#E5EEF9"/>
<path d="M0.422852 338.02C73.1173 338.046 39.1521 338.304 113.168 336.015C120.16 339.562 128.943 337.737 135.418 333.317C141.892 328.897 146.493 322.275 150.672 315.644C164.622 293.511 170.311 276.907 177.927 251.88C170.676 251.163 163.761 247.483 159.237 242.717C161.452 241.658 167.204 231.254 166.679 228.857C166.155 226.459 164.95 224.186 164.928 221.732C164.91 219.654 165.747 217.679 166.253 215.663C167.04 212.536 167.031 209.213 166.23 206.089C165.869 204.682 165.605 202.725 166.962 202.205C168.111 201.764 169.215 202.914 169.859 203.962C172.421 208.135 173.983 212.917 174.371 217.553C181.609 209.493 191.442 203.796 202.038 201.526C203.024 201.315 204.19 201.18 204.915 201.88C206.216 203.137 204.708 205.229 203.288 206.351C200.265 208.738 197.241 211.125 194.218 213.512C197.056 213.429 199.546 216.43 198.939 219.203C200.957 220.647 201.007 224.108 199.03 225.608C202.488 226.589 203.37 231.555 201.405 234.564C199.439 237.573 195.77 238.95 192.274 239.783C192.499 237.94 194.245 236.411 196.102 236.429C193.295 239.172 189.24 240.585 185.247 240.587C183.635 242.192 176.736 251.195 175.123 252.8C171.967 253.597 169.035 251.087 166.665 248.856C164.295 246.625 161.066 244.328 158.06 245.575C156.71 246.135 157.851 243.09 156.934 244.227C147.105 256.432 141.504 268.636 131.674 280.839C106.384 312.238 107.423 333.555 114.428 333.595C118.579 336.382 124.111 336.989 128.768 335.172C133.426 333.353 137.081 329.158 138.244 324.298C131.274 321.236 122.282 327.322 115.905 323.163C112.918 321.214 111.536 317.454 111.488 313.888C111.441 310.322 112.515 306.851 113.475 303.417C116.99 290.842 119.101 277.876 119.754 264.836C120.277 254.375 119.924 243.57 123.81 233.844C127.695 224.117 137.388 215.68 149.644 217.848C159.315 227.515 170.565 215.873 160.237 192.828C154.257 190.128 148.808 181.108 151.707 174.13C154.149 168.251 160.884 175.706 163.104 178.618C162.318 173.144 170.806 177.859 174.778 174.009C178.75 170.159 179.791 158.787 184.759 156.354C187.278 155.121 189.708 150.305 192.109 151.756C193.918 152.849 194.63 155.072 195.202 157.107C202.137 181.756 200.543 194.496 196.678 202.557C194.929 206.203 187.967 210.723 184.118 211.97C179.98 213.311 179.571 211.779 176.154 209.088C172.736 206.397 170.304 203.739 168.3 200.425C170.641 203.188 173.011 205.978 175.94 208.107C178.869 210.237 182.456 211.672 186.064 211.349C187.866 211.189 190.145 210.804 191.081 212.351C191.944 213.777 190.819 215.693 191.387 217.259C191.769 218.313 192.82 218.951 193.814 219.467C194.809 219.983 195.887 220.52 196.424 221.502C196.961 222.486 196.56 224.037 195.45 224.192C197.223 225.28 198.427 227.242 198.868 231.06C201.114 241.689 198.409 253.258 191.685 261.792C194.842 262.053 198.114 262.3 201.094 261.223C204.073 260.146 206.681 257.355 206.478 254.195C207.663 256.928 210.356 258.949 213.312 259.325C216.268 259.701 219.381 258.417 221.212 256.067C216.353 253.169 214.689 247.02 213.747 241.442C209.743 217.737 212.132 189.005 206.42 165.652C204.63 158.332 201.898 150.791 196.094 145.98C191.165 141.896 186.323 140.041 179.255 140.359C168.352 140.85 177.043 118.423 181.614 108.027C179.324 109.159 176.43 108.267 174.59 106.496C172.749 104.725 170.416 92.9278 171.044 82.0329C178.85 81.6683 184.542 81.514 193.968 80.4921C195.923 72.9558 202.973 68.0574 207.602 61.7968C217.061 49.0071 215.036 29.1493 203.205 18.5144C191.374 7.87956 171.421 7.96093 159.664 18.6772C147.907 29.3934 145.984 49.2279 155.448 62.0134C160.402 68.7063 167.902 72.0057 171.693 81.31C174.025 81.1801 176.359 81.0501 178.691 80.9201C178.433 69.5782 178.176 58.2363 177.918 46.8934C177.866 44.6307 177.768 42.218 176.459 40.3707C175.15 38.5244 172.153 37.7127 170.619 39.3772C169.406 40.693 169.73 42.9229 170.914 44.2661C172.097 45.6083 173.894 46.2318 175.646 46.5954C178.451 47.1766 181.335 47.2305 184.2 47.2813C186.844 47.3288 189.651 47.3341 191.907 45.956C194.163 44.5779 195.445 41.269 193.787 39.2092C191.965 36.9455 188.005 37.9336 186.373 40.339C184.742 42.7443 184.761 45.8641 184.839 48.7682C185.127 59.4453 185.415 70.1214 186.727 81.2371C188.637 80.8355 190.684 80.4445 192.489 81.1864C194.293 81.9283 195.545 84.303 194.422 85.8988C187.343 86.5339 180.264 87.1702 173.185 87.8053C171.724 87.9364 169.844 88.4848 169.811 89.9507C169.793 90.7803 170.477 91.4936 171.255 91.7822C172.033 92.0707 172.89 92.0263 173.719 91.9777C179.471 91.6426 185.223 91.3087 190.976 90.9737C192.402 90.8912 194.31 91.1808 194.487 92.598C194.676 94.122 192.644 94.8004 191.112 94.9156C185.769 95.3162 180.426 95.7167 175.083 96.1183C173.363 96.2472 171.164 96.8222 171.026 98.5395C170.941 99.5953 171.811 100.539 172.809 100.897C173.806 101.256 174.902 101.166 175.958 101.071C179.894 100.716 183.831 100.361 187.768 100.006C188.87 99.907 190.002 99.8109 191.063 100.122C192.125 100.432 193.113 101.25 193.29 102.341C193.526 103.805 192.296 105.075 191.086 105.931C188.811 107.538 186.206 108.674 183.1 109.352C176.623 114.539 173.155 123.241 174.291 131.459C174.718 134.548 175.652 138.031 173.79 140.531C172.271 142.569 169.498 143.071 167.058 143.784C156.711 146.811 149.097 156.128 145.637 166.335C142.177 176.541 142.296 187.596 143.145 198.339C143.62 204.353 141.698 208.531 133.622 217.51C131.135 220.711 129.187 224.329 127.887 228.168C131.337 223.711 135.996 220.2 141.233 218.114C143.213 217.325 145.587 216.773 147.379 217.927C149.751 219.455 149.663 222.865 148.807 227.243C153.174 236.486 151.643 247.489 148.169 257.103C144.696 266.718 139.415 275.62 136.21 285.327C134.893 289.312 133.928 293.522 134.446 297.686C134.964 301.85 137.19 305.983 140.921 307.907C144.652 309.83 149.883 308.907 152.072 305.327C153.595 315.348 153.639 325.593 154.038 334.558C153.241 320.946 154.978 307.191 159.136 294.205C160.182 290.934 161.584 287.458 164.544 285.713C167.889 283.741 172.097 284.595 175.922 285.264C189.904 287.707 204.462 286.787 216.286 284.148C218.48 279.784 218.262 274.567 217.077 269.829C215.892 265.091 213.814 260.625 212.377 255.957C209.69 247.228 209.293 237.982 208.917 228.856C208.829 226.74 208.76 224.528 209.662 222.612C211.463 218.787 216.572 217.585 220.657 218.68C226.476 220.24 230.699 225.126 234.544 229.762C244.121 241.308 253.698 252.855 263.526 266.299C259.863 287.699 256.199 311.213 252.206 333.009C228.57 334.094 204.935 333.064 181.299 334.15C181.464 335.637 181.63 337.123 181.795 338.61C204.745 338.119 220.293 339.741 243.033 337.403C236.813 325.84 230.431 311.558 230.388 298.43C230.367 292.127 231.826 285.918 232.361 279.637C233.245 269.258 222.253 244.066 231.013 248.563C235.593 250.914 232.904 262.468 233 267.318C231.307 269.737 231.488 273.086 232.699 275.779C233.911 278.472 236.001 280.655 238.051 282.78C240.673 285.499 243.323 288.24 246.48 290.314C249.637 292.386 253.389 293.762 257.153 293.438C259.733 282.852 262.313 272.268 265.159 262.078C295.622 259.966 326.179 259.177 357.41 262.198C354.373 285.275 349.215 309.27 343.503 332.13C313.166 332.582 282.829 333.036 252.491 333.488C252.498 334.932 252.504 336.375 252.511 337.818C280.682 337.772 308.854 337.727 337.025 337.682C336.427 336.283 335.829 334.885 335.435 334.12L335.745 338.029C343.378 338.063 423.94 337.465 431.573 337.499" stroke="#4D4C4C" stroke-linecap="round" stroke-linejoin="round"/>
</g>
<defs>
<clipPath id="clip0_526_7928">
<rect width="432" height="340" fill="white"/>
</clipPath>
</defs>
</svg>
