<svg width="548" height="360" viewBox="0 0 548 360" fill="none" xmlns="http://www.w3.org/2000/svg">
<g clip-path="url(#clip0_523_7846)">
<path d="M318.08 116.395C330.102 113.494 335.64 104.279 335.64 83.5418C322.48 51.4903 307.347 43.3596 295.325 46.2609C283.304 49.1623 283.594 75.8098 287.745 92.9436C291.896 110.077 306.058 119.297 318.08 116.395Z" fill="#F2F7FC"/>
<path d="M394.804 362.414C419.008 412.407 308.557 373.909 198.079 358.72C184.937 309.865 148.168 250.655 163.58 231.042C172.129 224.205 184.526 246.53 198.079 249.106C205.051 230.962 206.703 240.485 232.167 258.138C239.97 262.244 245.657 267.864 254.756 270.864C285.8 283.812 314.717 292.213 357.43 302.066C368.519 302.066 388.643 349.689 394.804 362.414Z" fill="#E5EEF9"/>
<path d="M0.0258789 351.221C0.0258789 351.221 195.534 372.375 188.579 348.109C181.624 323.845 145.724 248.927 148.403 229.596C151.082 210.264 168.909 214.333 173.648 215.656C178.388 216.979 186.168 222.778 186.168 221.481C186.168 220.183 187.488 209.424 188.76 209.271C190.032 209.118 199.923 213.621 199.151 215.681C198.378 217.741 191.577 235.368 187.249 234.071C182.921 232.774 165.147 221.022 166.615 219.801C168.083 218.58 171.329 218.275 175.656 220.412C179.984 222.549 187.172 224.227 187.326 222.167C187.48 220.107 188.253 213.621 188.794 207.363C189.335 201.105 200.129 147.995 208.167 144.331C216.204 140.669 266.282 123.473 266.591 125.509C266.9 127.543 269.888 132.326 274.01 132.834C278.132 133.343 300.852 137.769 310.745 139.295C320.636 140.821 332.383 140.669 332.383 137.464C332.383 134.258 330.271 110.552 331.816 115.843C333.361 121.134 334.289 139.956 336.556 147.18C338.823 154.404 340.678 155.014 340.678 155.014C340.678 155.014 347.376 150.97 348.149 152.191C348.921 153.413 351.935 159.441 351.626 167.071C351.317 174.702 351.819 175.961 350.158 177.64C348.496 179.319 345.057 178.098 344.864 176.266C344.671 174.435 344.748 166.576 344.052 167.72C343.357 168.864 342.996 172.006 342.275 171.802C341.554 171.598 340.163 170.988 340.73 168.343C341.297 165.697 342.275 163.205 342.275 161.475C342.275 159.746 342.12 155.421 342.532 154.963C342.944 154.506 348.457 152.471 348.766 150.588C349.076 148.706 351.394 96.714 347.839 90.1512C344.284 83.5884 327.901 62.3753 328.982 64.9698C330.064 67.5643 340.729 96.562 338.72 102.972C336.711 109.382 329.292 114.266 322.8 116.707C316.309 119.149 303.171 118.386 298.998 116.097C294.825 113.807 291.81 108.999 290.96 109.076C290.11 109.152 278.672 110.526 274.886 110.373C271.1 110.22 269.553 110.297 269.399 109.877C269.245 109.457 268.317 103.887 268.743 103.887C269.168 103.887 289.622 103.327 289.106 101.648C288.591 99.9695 283.903 85.827 282.357 77.8905C280.811 69.954 279.677 57.3382 281.738 51.7422C283.799 46.1462 295.855 43.9077 303.068 42.178C310.28 40.4483 317.39 42.5849 318.936 44.5185C320.482 46.4522 329.859 64.4609 329.447 70.8707C329.035 77.2806 323.779 78.0944 320.173 79.2142C316.566 80.333 296.061 85.2171 294.309 82.6736C292.557 80.13 284.623 51.4382 288.745 49.0977C292.867 46.7571 316.154 43.7056 315.948 39.5334C315.742 35.3622 315.227 30.4781 312.033 26.7137C308.838 22.9494 297.195 12.9782 295.855 14.301C294.515 15.6237 264.736 40.9581 264.324 38.6176C263.912 36.277 264.943 34.2424 263.397 33.7335C261.851 33.2246 257.936 31.19 258.76 29.2563C259.584 27.3227 262.263 24.5762 262.367 22.1346C262.47 19.693 262.058 13.4862 262.882 12.7743C263.706 12.0624 268.961 8.90799 270.61 14.3C272.258 19.6921 271.846 21.0148 274.526 21.1168C277.205 21.2188 277.617 20.3029 277.822 22.4396C278.029 24.5762 278.441 27.1197 279.265 26.5098C280.09 25.8999 285.757 22.6435 283.284 20.1C280.811 17.5564 277.308 17.0475 277.41 14.504C277.514 11.9604 281.532 8.39909 277.101 7.99216C272.671 7.58523 268.652 9.11098 267.415 8.1961C266.179 7.28027 263.088 7.38224 262.469 8.90799C261.85 10.4337 262.134 12.3929 261.438 12.4693C260.742 12.5458 256.569 10.7142 257.961 9.11193C259.352 7.5097 261.129 7.96762 261.207 6.05949C261.284 4.15136 262.289 0.259567 263.989 1.55683C265.689 2.85409 266.386 4.68575 267.698 3.38848C269.012 2.09122 272.799 -1.0377 274.345 0.793957C275.89 2.62561 278.286 5.37214 279.445 3.8464C280.604 2.32065 282.768 -0.716685 284.236 1.29813C285.705 3.31295 283.232 4.38079 286.555 4.53374C289.878 4.68669 295.829 5.22014 296.447 7.58618C297.066 9.95222 294.876 13.2331 295.365 13.7675C295.854 14.3019 303.054 19.7959 302.706 20.521C302.358 21.2462 282.561 38.5175 276.585 42.5868C270.609 46.657 267.311 48.0808 267.621 48.8947C267.93 49.7085 278.956 64.8178 279.264 63.8C279.573 62.7822 280.243 56.2704 279.419 54.8976C278.595 53.5238 271.382 47.9788 270.506 47.9279C269.63 47.8769 265.766 47.1905 265.225 45.4353C264.684 43.6801 264.761 38.949 264.375 40.9326C263.988 42.9163 263.833 45.6638 262.829 45.6638C261.826 45.6638 248.146 41.6955 238.795 42.0014C229.443 42.3064 217.465 44.8244 220.17 42.8408C222.875 40.8571 236.863 28.4944 236.322 27.808C235.781 27.1216 234.931 26.2823 235.55 25.29C236.168 24.2976 238.95 22.3905 238.718 21.5511C238.487 20.7118 236.013 18.4222 236.246 16.8965C236.477 15.3707 239.415 14.149 244.746 12.7762C250.079 11.4024 261.053 12.8527 259.971 14.2264C258.888 15.6001 244.437 17.5073 248.455 17.9652C252.474 18.4231 255.333 16.9729 254.715 18.8811C254.097 20.7892 248.146 22.3149 244.282 22.3149C240.419 22.3149 237.405 16.4395 235.627 16.668C233.85 16.8965 228.401 20.5975 229.058 21.7805C229.715 22.9636 234.893 26.5495 233.656 25.1379C232.42 23.7264 225.272 19.8724 222.489 21.3226C219.707 22.7728 197.141 37.8056 197.605 43.4526C198.068 49.0996 200.644 54.3906 217.027 60.8004C233.411 67.2103 241.757 69.3469 248.867 70.1607C255.977 70.9746 259.274 71.3815 260.305 74.9429C261.336 78.5042 269.631 108.01 270.017 114.878C270.403 121.745 270.919 122.101 269.991 123.628C269.064 125.154 268.291 126.782 269.734 128.512C271.177 130.242 280.193 133.141 298.946 135.278C317.7 137.414 328.32 138.126 328.519 138.94C328.718 139.754 325.428 207.008 327.283 212.095C329.138 217.182 338.411 261.238 336.041 262.357C333.671 263.476 322.028 262.611 320.791 261.39C319.555 260.169 314.917 251.775 310.59 239.718C306.262 227.661 300.234 206.447 297.916 187.37C295.597 168.294 295.133 152.421 292.506 151.963C289.878 151.505 270.403 158.678 254.638 160.509C238.872 162.341 230.217 161.272 228.826 164.172C227.435 167.071 195.441 223.082 196.677 225.066C197.913 227.049 241.964 255.131 263.602 264.593C285.24 274.056 307.807 280.364 310.486 279.448C313.165 278.532 312.134 278.023 316.256 278.023C320.378 278.023 328.621 279.448 328.106 276.7C327.591 273.953 323.572 265.101 324.809 264.39C326.046 263.678 335.732 262.762 336.144 263.474C336.556 264.186 341.09 287.485 339.338 288.096C337.587 288.707 333.052 287.892 326.097 286.113C319.142 284.332 308.219 280.313 311.62 280.924C315.02 281.534 338.308 288.198 345.727 289.419C353.146 290.64 363.965 291.454 370.353 298.169C376.741 304.884 388.416 341.239 404.181 346.275C419.945 351.311 547.996 350.67 547.996 350.67" stroke="#4D4C4C" stroke-miterlimit="10"/>
</g>
<defs>
<clipPath id="clip0_523_7846">
<rect width="548" height="360" fill="white"/>
</clipPath>
</defs>
</svg>
