<svg width="592" height="348" viewBox="0 0 592 348" fill="none" xmlns="http://www.w3.org/2000/svg">
<g clip-path="url(#clip0_494_5441)">
<path d="M364.539 112.516C376.178 109.711 381.539 100.803 381.539 80.7571C368.799 49.774 354.149 41.9143 342.51 44.719C330.872 47.5236 331.153 73.2829 335.172 89.8455C339.19 106.408 352.901 115.32 364.539 112.516Z" fill="#F2F7FC"/>
<path d="M438.817 350.334C462.249 398.659 355.321 361.445 248.365 346.762C235.642 299.536 200.046 242.3 214.967 223.34C223.243 216.732 235.244 238.312 248.365 240.803C255.115 223.264 256.714 232.469 281.366 249.533C288.92 253.502 294.426 258.935 303.234 261.835C333.289 274.351 361.284 282.473 402.634 291.997C413.37 291.997 432.852 338.032 438.817 350.334Z" fill="#E5EEF9"/>
<path d="M56.6274 339.514C56.6274 339.514 245.901 359.962 239.168 336.506C232.435 313.05 197.679 240.63 200.273 221.942C202.867 203.255 220.125 207.189 224.713 208.468C229.302 209.746 236.833 215.352 236.833 214.098C236.833 212.844 238.112 202.443 239.343 202.295C240.574 202.147 250.15 206.5 249.402 208.491C248.654 210.483 242.07 227.523 237.88 226.269C233.691 225.015 216.483 213.654 217.904 212.474C219.326 211.294 222.468 210.999 226.657 213.065C230.847 215.13 237.805 216.753 237.954 214.761C238.104 212.77 238.852 206.5 239.376 200.451C239.9 194.401 250.349 143.061 258.131 139.52C265.912 135.98 314.393 119.357 314.692 121.325C314.991 123.292 317.884 127.915 321.875 128.407C325.865 128.898 347.861 133.177 357.438 134.652C367.014 136.127 378.386 135.98 378.386 132.881C378.386 129.783 376.341 106.867 377.837 111.981C379.333 117.096 380.231 135.291 382.426 142.274C384.621 149.257 386.417 149.847 386.417 149.847C386.417 149.847 392.901 145.937 393.649 147.118C394.397 148.299 397.315 154.126 397.016 161.502C396.717 168.878 397.203 170.096 395.594 171.719C393.985 173.341 390.656 172.161 390.469 170.391C390.282 168.62 390.357 161.023 389.683 162.129C389.01 163.235 388.66 166.273 387.963 166.076C387.265 165.878 385.918 165.289 386.467 162.731C387.016 160.174 387.963 157.765 387.963 156.093C387.963 154.421 387.813 150.241 388.212 149.798C388.61 149.355 393.947 147.388 394.247 145.569C394.547 143.749 396.791 93.4902 393.349 87.1461C389.907 80.8021 374.047 60.296 375.094 62.8041C376.141 65.3121 386.466 93.3432 384.521 99.5394C382.576 105.736 375.393 110.457 369.109 112.817C362.824 115.177 350.105 114.44 346.066 112.227C342.026 110.013 339.107 105.366 338.284 105.44C337.461 105.514 326.388 106.842 322.723 106.694C319.057 106.546 317.56 106.62 317.411 106.215C317.261 105.809 316.363 100.424 316.775 100.424C317.187 100.424 336.988 99.8826 336.489 98.2598C335.991 96.6371 331.452 82.9661 329.955 75.2941C328.459 67.6221 327.361 55.4269 329.356 50.0174C331.351 44.608 343.023 42.444 350.006 40.772C356.988 39.1 363.871 41.1654 365.368 43.0345C366.864 44.9037 375.942 62.3121 375.543 68.5083C375.144 74.7045 370.057 75.4912 366.565 76.5737C363.073 77.6552 343.222 82.3765 341.526 79.9177C339.83 77.459 332.149 49.7236 336.14 47.461C340.13 45.1985 362.674 42.2487 362.475 38.2156C362.276 34.1834 361.778 29.4621 358.685 25.8232C355.592 22.1844 344.32 12.5456 343.023 13.8242C341.726 15.1029 312.896 39.5928 312.497 37.3303C312.098 35.0677 313.096 33.1009 311.6 32.609C310.104 32.1171 306.313 30.1502 307.111 28.2811C307.909 26.4119 310.503 23.7569 310.603 21.3967C310.703 19.0365 310.304 13.0366 311.102 12.3484C311.899 11.6603 316.987 8.61101 318.583 13.8233C320.179 19.0356 319.78 20.3143 322.374 20.4129C324.967 20.5114 325.366 19.6261 325.565 21.6915C325.765 23.7569 326.164 26.2157 326.962 25.6261C327.76 25.0365 333.247 21.8887 330.853 19.4299C328.459 16.9711 325.067 16.4792 325.166 14.0205C325.266 11.5617 329.157 8.11907 324.867 7.72571C320.578 7.33234 316.687 8.80723 315.49 7.92285C314.293 7.03755 311.301 7.13612 310.702 8.61101C310.103 10.0859 310.378 11.9797 309.704 12.0536C309.03 12.1276 304.99 10.357 306.337 8.80815C307.684 7.25933 309.405 7.70198 309.48 5.85745C309.555 4.01293 310.528 0.250866 312.173 1.50489C313.819 2.75891 314.493 4.52951 315.764 3.27548C317.036 2.02146 320.702 -1.00315 322.199 0.767443C323.695 2.53804 326.014 5.19302 327.136 3.71813C328.258 2.24325 330.353 -0.692844 331.775 1.25481C333.197 3.20247 330.802 4.23471 334.02 4.38256C337.237 4.53042 342.998 5.04608 343.596 7.33326C344.195 9.62043 342.075 12.792 342.548 13.3086C343.022 13.8251 349.993 19.136 349.656 19.837C349.319 20.5379 330.153 37.2335 324.368 41.1672C318.582 45.1017 315.389 46.4781 315.689 47.2648C315.988 48.0515 326.662 62.6571 326.961 61.6733C327.26 60.6894 327.909 54.3946 327.111 53.0676C326.313 51.7397 319.33 46.3795 318.482 46.3302C317.634 46.2809 313.893 45.6174 313.369 43.9207C312.846 42.2241 312.92 37.6506 312.547 39.5682C312.173 41.4857 312.023 44.1416 311.051 44.1416C310.079 44.1416 296.836 40.3056 287.782 40.6013C278.729 40.8961 267.133 43.3302 269.752 41.4127C272.371 39.4952 285.913 27.5445 285.389 26.881C284.865 26.2175 284.042 25.4061 284.641 24.4469C285.24 23.4877 287.932 21.6441 287.708 20.8327C287.484 20.0213 285.09 17.8081 285.315 16.3332C285.539 14.8583 288.382 13.6773 293.544 12.3503C298.707 11.0223 309.331 12.4242 308.283 13.7521C307.235 15.0801 293.245 16.9237 297.135 17.3663C301.025 17.809 303.793 16.4071 303.195 18.2516C302.596 20.0962 296.836 21.5711 293.095 21.5711C289.354 21.5711 286.437 15.8914 284.716 16.1123C282.995 16.3332 277.72 19.9109 278.356 21.0545C278.992 22.1981 284.005 25.6644 282.808 24.3C281.611 22.9355 274.69 19.21 271.997 20.6118C269.303 22.0137 247.457 36.5454 247.906 42.0041C248.355 47.4628 250.848 52.5775 266.709 58.7737C282.57 64.9699 290.65 67.0352 297.534 67.822C304.417 68.6087 307.609 69.0021 308.607 72.4447C309.605 75.8873 317.635 104.409 318.009 111.048C318.383 117.687 318.882 118.031 317.984 119.507C317.086 120.982 316.338 122.556 317.735 124.228C319.132 125.9 327.86 128.703 346.016 130.769C364.171 132.834 374.453 133.522 374.646 134.309C374.838 135.096 371.653 200.107 373.449 205.025C375.244 209.943 384.222 252.53 381.928 253.611C379.633 254.693 368.361 253.857 367.164 252.677C365.967 251.497 361.478 243.382 357.288 231.727C353.098 220.072 347.263 199.565 345.018 181.125C342.773 162.684 342.324 147.34 339.78 146.897C337.237 146.455 318.383 153.388 303.12 155.159C287.857 156.93 279.478 155.896 278.131 158.699C276.784 161.502 245.811 215.646 247.008 217.563C248.205 219.481 290.85 246.627 311.799 255.774C332.747 264.92 354.594 271.018 357.187 270.133C359.781 269.248 358.783 268.756 362.774 268.756C366.764 268.756 374.745 270.133 374.246 267.477C373.747 264.821 369.856 256.265 371.054 255.576C372.251 254.888 381.628 254.003 382.027 254.691C382.426 255.379 386.816 277.902 385.12 278.493C383.424 279.083 379.034 278.296 372.301 276.575C365.567 274.854 354.993 270.969 358.285 271.559C361.577 272.15 384.122 278.592 391.304 279.772C398.487 280.952 408.961 281.738 415.145 288.23C421.33 294.721 432.633 329.864 447.894 334.732C463.156 339.6 587.124 338.981 587.124 338.981" stroke="#4D4C4C" stroke-miterlimit="10"/>
</g>
<defs>
<clipPath id="clip0_494_5441">
<rect width="592" height="348" fill="white"/>
</clipPath>
</defs>
</svg>
