<svg width="328" height="517" viewBox="0 0 328 517" fill="none" xmlns="http://www.w3.org/2000/svg">
<path opacity="0.5" d="M266.768 475.804C237.336 454.477 211.724 427.165 191.443 395.241C162.832 350.206 147.018 299.445 145.711 248.446C145.534 241.493 145.6 234.377 145.668 227.493C145.831 210.339 146.002 192.708 142.368 175.996C123.75 178.966 104.662 178.588 86.4287 174.494C72.4793 171.354 38.9263 160.87 28.634 131.276C28.5599 131.071 28.49 130.86 28.426 130.653C15.4637 118.191 6.30204 103.067 2.54055 87.2086C-4.25574 58.5606 7.53337 27.8113 30.5715 14.0907C37.7692 9.80462 45.9694 7.23525 54.4729 6.37564C54.1546 5.35094 53.8607 4.31714 53.5827 3.28596C49.7572 3.68116 45.9542 4.21756 42.2215 5.00124C25.571 8.50444 7.91898 19.7132 6.01451 36.846C5.91589 37.7203 5.13157 38.3474 4.26345 38.2537C3.38949 38.1557 2.76305 37.3717 2.85744 36.5033C4.94451 17.7897 23.7961 5.63914 41.5665 1.89462C45.2789 1.11416 49.0459 0.578388 52.8178 0.171102C50.9798 -8.15552 50.5711 -16.6955 51.7904 -25.0461C55.0849 -47.5419 70.7197 -66.0918 89.8137 -70.162C100.661 -72.4725 113.009 -69.0294 122.024 -61.1587C124.438 -59.0525 126.495 -56.7236 128.163 -54.2393C132.68 -55.7745 137.301 -56.9588 141.975 -57.7742C169.095 -62.4879 198.444 -54.7281 222.527 -36.3045C246.598 -17.9516 261.92 8.28199 264.562 35.6867C264.724 37.3829 264.845 39.0856 264.93 40.7889C271.278 44.2823 276.448 49.4742 279.402 55.6208C284.402 66.0064 283.944 78.7187 279.167 89.9868C282.88 96.3893 284.921 103.551 284.385 111.228C282.877 132.957 263.476 148.868 225.059 159.858C209.496 164.309 191.778 168.252 175.776 166.837C166.004 170.703 155.834 173.603 145.485 175.471C149.164 192.466 148.994 210.231 148.827 227.525C148.765 234.377 148.694 241.463 148.872 248.364C151.49 350.739 214.747 450.305 306.288 496.126C338.274 512.131 365.342 516.962 389.029 510.885C419.879 502.967 446.323 473.72 456.39 436.378C468.703 390.734 456.357 340.846 424.943 309.276C391.975 276.135 338.978 266.353 298.954 286.019C256.969 306.647 234.572 358.063 249.029 400.621C256.283 421.982 273.286 440.013 295.688 450.09C316.71 459.55 339.723 460.381 358.814 452.366C385.806 441.037 404.128 413.157 402.379 386.07C400.506 357.073 374.794 332.606 347.353 333.715C333.486 334.275 319.975 342.194 311.202 354.903C303.114 366.618 300.745 380.122 304.692 391.949C308.865 404.447 319.652 413.71 330.929 414.485C337.129 414.91 343.859 412.167 348.487 407.331C352.505 403.14 354.399 398.053 353.84 393.017C353.11 386.484 347.39 381.902 342.036 380.261C336.426 378.543 331.184 379.723 328.018 383.416C327.447 384.081 326.456 384.157 325.781 383.588C325.116 383.017 325.039 382.015 325.611 381.35C329.626 376.658 336.118 375.117 342.973 377.221C350.589 379.554 356.227 385.763 356.999 392.657C357.668 398.647 355.464 404.642 350.786 409.522C345.439 415.105 337.944 418.141 330.72 417.653C318.194 416.793 306.261 406.638 301.688 392.957C297.418 380.174 299.94 365.647 308.604 353.1C317.939 339.577 332.377 331.143 347.236 330.543C376.331 329.366 403.582 355.215 405.557 385.866C407.385 414.26 388.25 443.459 360.051 455.296C340.145 463.649 316.214 462.805 294.392 452.987C271.194 442.556 253.564 423.839 246.032 401.644C238.771 380.269 240.285 356.047 250.302 333.452C260.178 311.149 276.968 293.293 297.57 283.169C338.777 262.915 393.305 272.958 427.208 307.036C459.405 339.396 472.072 390.49 459.47 437.209C449.106 475.638 421.768 505.773 389.825 513.969C365.359 520.248 337.571 515.342 304.875 498.974C291.593 492.33 278.858 484.573 266.763 475.81L266.768 475.804ZM33.8263 135.503C45.5399 159.604 74.5752 168.573 87.1243 171.394C96.5784 173.516 106.269 174.623 115.996 174.757C106.577 173.115 97.6541 168.55 90.5438 162.086C77.0251 159.053 64.9561 154.732 54.1498 149.088C46.7781 145.236 39.9464 140.651 33.8263 135.503ZM31.2119 128.924C38.2928 135.626 46.522 141.517 55.6197 146.272C64.863 151.096 75.0669 154.939 86.3573 157.812C80.666 151.297 76.6652 143.384 75.3174 134.824C73.7988 125.158 75.6791 115.342 80.0128 106.741C71.8158 100.694 65.2755 91.4134 61.0987 81.2581C53.1396 81.2187 45.3829 85.1444 39.4006 92.3543C30.8891 102.612 27.6789 117.13 31.2061 128.92L31.2119 128.924ZM55.5001 9.44857C47.2013 10.1978 39.1883 12.6441 32.1895 16.8156C10.3147 29.8536 -0.863709 59.145 5.62396 86.472C8.89423 100.253 16.4118 113.462 27.0474 124.756C25.3392 113.088 28.9776 99.9597 36.9591 90.3353C43.2615 82.7327 51.4153 78.4435 59.8882 78.106C59.1155 75.9491 58.4564 73.7584 57.8997 71.5617C53.6522 54.6638 54.3469 36.4938 59.6151 18.988C58.0299 15.8855 56.6528 12.6927 55.4942 9.44433L55.5001 9.44857ZM140.116 167.405C137.678 167.423 135.565 167.373 133.86 167.315C120.624 166.833 108.444 165.556 97.2199 163.453C106.019 169.74 116.865 173.139 127.649 172.049C132.112 171.598 136.426 170.406 140.485 168.618C140.364 168.219 140.242 167.809 140.116 167.405ZM82.7961 108.633C78.8322 116.6 77.0802 125.6 78.4553 134.332C79.9515 143.856 84.971 152.516 91.9945 159.149C104.629 161.926 118.569 163.578 133.985 164.141C135.4 164.193 137.118 164.234 139.078 164.236C139.04 164.128 138.997 164.016 138.963 163.902C132.16 144.662 118.992 128.215 105.532 113.5C104.685 113.636 103.821 113.733 102.953 113.799C95.6214 114.358 88.824 112.358 82.812 108.635L82.7961 108.633ZM141.331 171.694C139.484 172.497 137.585 173.173 135.641 173.727C137.641 173.49 139.644 173.211 141.637 172.897C141.536 172.494 141.436 172.091 141.325 171.69L141.331 171.694ZM144.25 170.312C144.431 170.996 144.608 171.687 144.78 172.373C153.069 170.886 161.252 168.722 169.197 165.915C167.991 165.684 166.8 165.409 165.623 165.101C160.001 166.13 154.574 166.73 149.693 167.056C147.95 168.256 146.123 169.35 144.24 170.313L144.25 170.312ZM109.117 112.735C122.352 127.33 135.16 143.66 141.937 162.837C142.098 163.292 142.252 163.743 142.407 164.194C144.344 164.153 146.432 164.077 148.654 163.939C150.335 162.739 151.937 161.438 153.456 160.031C150.265 158.111 147.292 155.743 144.579 152.867C131.483 138.979 130.671 119.369 130.255 100.198C123.855 105.794 117.026 110.605 109.122 112.729L109.117 112.735ZM156.343 161.632C155.678 162.266 155.002 162.891 154.307 163.494C155.89 163.339 157.515 163.151 159.165 162.928C158.213 162.533 157.27 162.099 156.348 161.636L156.343 161.632ZM133.367 97.4033C133.375 97.7124 133.377 98.0172 133.385 98.3262C133.808 118.35 134.208 137.26 146.881 150.699C149.58 153.556 152.577 155.879 155.797 157.722C164.001 149.07 169.121 137.453 168.948 125.39C168.791 114.534 165.048 104.64 160.122 94.7443C154.745 91.8919 149.395 89.3093 144.013 87.3007C142.334 88.8675 140.666 90.4688 139.028 92.0393C137.158 93.8333 135.279 95.639 133.373 97.4076L133.367 97.4033ZM64.6565 81.5523C68.561 90.4841 74.3686 98.5735 81.5236 103.955C83.3653 100.81 85.5379 97.8612 87.9906 95.1776C80.882 88.367 73.4396 82.9027 64.6565 81.5523ZM90.3753 97.5212C88.0662 100.068 86.0156 102.873 84.2825 105.856C89.8004 109.301 96.0088 111.141 102.687 110.636C102.743 110.632 102.793 110.624 102.845 110.626C100.037 107.6 97.2349 104.651 94.4848 101.766C93.1185 100.33 91.7495 98.9096 90.3711 97.5271L90.3753 97.5212ZM164.859 97.3113C168.941 106.194 171.976 115.441 172.12 125.342C172.309 137.925 167.091 150.06 158.69 159.229C160.971 160.302 163.353 161.172 165.82 161.853C185.33 158.155 206.823 149.052 214.065 127.321C214.881 124.878 215.472 122.353 215.887 119.763C211.859 119.084 207.815 118.071 203.794 116.719C192.773 113.006 182.144 107.018 171.857 101.223C169.506 99.903 167.177 98.5899 164.859 97.3113ZM181.448 160.99C178.818 161.913 176.152 162.702 173.493 163.381C174.112 163.463 174.728 163.535 175.347 163.591C177.398 162.766 179.436 161.897 181.452 160.984L181.448 160.99ZM92.6045 95.2199C94.0888 96.7147 95.4817 98.188 96.798 99.5701C100.035 102.977 103.356 106.464 106.67 110.06C115.486 108.178 123.037 102.506 130.167 96.0385C130.074 91.8851 129.959 87.6888 129.697 83.5469C124.569 82.8371 119.353 82.8497 113.983 83.8387C105.922 85.3309 98.5511 89.474 92.6003 95.2257L92.6045 95.2199ZM61.7849 22.9692C57.4878 38.975 57.1209 55.4376 60.9784 70.7948C61.6018 73.2808 62.3781 75.7526 63.294 78.1917C63.8711 78.2441 64.4498 78.3066 65.0276 78.3951C75.0813 79.899 83.4524 86.3575 90.2417 92.8831C96.6225 86.7471 104.597 82.3367 113.413 80.7133C118.878 79.704 124.223 79.6603 129.467 80.3465C129.288 78.1824 129.061 76.0467 128.763 73.9482C128.349 70.9892 127.775 68.0662 127.054 65.1975C112.698 63.0741 99.208 58.1435 87.8077 50.5874C76.9287 43.3822 68.0782 33.7837 61.7891 22.9633L61.7849 22.9692ZM238.554 120.013C234.258 125.634 229.475 130.992 224.246 136.018C212.173 147.611 197.977 157.015 182.602 163.95C196.348 163.963 211.055 160.559 224.196 156.805C261.163 146.228 279.818 131.249 281.217 111.012C281.652 104.778 280.224 98.8987 277.498 93.5327C274.056 100.139 269.071 106.073 262.802 110.479C255.771 115.421 247.475 118.626 238.554 120.013ZM219.033 120.232C218.588 122.987 217.954 125.695 217.08 128.327C214.239 136.85 209.379 143.544 203.352 148.785C210.007 144.302 216.274 139.27 222.046 133.728C226.391 129.552 230.411 125.149 234.106 120.555C229.199 120.978 224.146 120.877 219.039 120.236L219.033 120.232ZM132.911 84.0823C133.091 87.0944 133.196 90.1235 133.273 93.1417C134.464 92.015 135.647 90.874 136.832 89.7431C138.084 88.5446 139.353 87.3227 140.633 86.1093C138.076 85.2826 135.504 84.5877 132.915 84.0764L132.911 84.0823ZM130.43 65.645C131.037 68.2265 131.533 70.8519 131.903 73.5024C132.241 75.9152 132.493 78.3727 132.692 80.8542C136.251 81.5152 139.762 82.4891 143.238 83.6962C144.244 82.7749 145.264 81.8722 146.278 81.0013C147.757 79.7354 149.274 78.5151 150.825 77.3463C148.893 73.7512 147.003 70.0976 145.289 66.3846C140.282 66.4674 135.309 66.2188 130.425 65.6508L130.43 65.645ZM63.0277 18.6951C69.1282 30.1818 78.2068 40.4005 89.5534 47.9445C100.202 55.0004 112.753 59.6882 126.134 61.8541C120.822 43.8906 109.687 28.39 94.9866 19.0402C86.2823 13.509 76.3643 10.2924 66.4091 9.43987C65.1322 12.4938 64.0062 15.5856 63.0277 18.6951ZM152.35 80.1638C150.98 81.2054 149.642 82.2883 148.342 83.4067C147.759 83.9033 147.179 84.4202 146.594 84.9328C150.305 86.3815 153.986 88.0676 157.622 89.8903C156.344 87.4833 155.028 85.0668 153.693 82.6275C153.243 81.8102 152.802 80.9912 152.35 80.1638ZM154.938 78.2653C155.456 79.2115 155.973 80.1577 156.485 81.0997C158.523 84.8332 160.585 88.5937 162.502 92.4188C166.175 94.3753 169.81 96.4205 173.423 98.4588C183.575 104.182 194.078 110.098 204.814 113.711C208.639 115.002 212.485 115.969 216.312 116.618C217.192 108.513 216.62 99.9166 216.057 91.515C215.354 80.995 214.641 70.2542 216.931 60.7342C195.099 59.5282 172.778 65.6405 154.938 78.2653ZM58.787 9.24302C59.4647 11.0635 60.2072 12.8684 61.0272 14.6403C61.6538 12.8282 62.3341 11.0282 63.0622 9.23612C61.633 9.19082 60.2118 9.19594 58.7929 9.24726L58.787 9.24302ZM100.104 18.671C114.121 28.8283 124.619 44.4826 129.584 62.3465C134.276 62.9451 139.064 63.2388 143.885 63.2169C143.434 62.167 143.008 61.1181 142.597 60.0617C133.979 37.9006 134.247 7.14445 154.265 -11.6107C164.208 -20.9286 179.946 -24.9062 194.369 -21.7437C206.563 -19.0724 215.927 -11.7074 220.052 -1.55419C225.409 11.6599 221.797 28.7867 211.063 41.0652C202.271 51.1193 189.243 58.4074 172.347 62.741C164.538 64.7462 156.616 65.9109 148.757 66.2743C150.226 69.3643 151.811 72.4308 153.429 75.4504C171.994 62.4407 195.186 56.2097 217.82 57.6131C219.503 52.4359 222.242 47.6845 226.559 43.6217C233.304 37.2772 243.087 34.739 253.397 36.6517C256.264 37.1857 259.048 38.0433 261.669 39.1751C261.603 38.1101 261.516 37.0482 261.414 35.9838C258.855 9.46038 243.987 -15.9718 220.612 -33.7846C197.217 -51.6202 168.78 -59.2003 142.529 -54.6515C138.236 -53.9075 134.002 -52.8365 129.847 -51.4577C132.384 -46.6925 133.56 -41.4868 133.172 -36.2895C131.776 -17.2986 113.2 -4.77854 95.4047 -0.802439C86.9668 1.08613 78.2479 1.66476 69.7714 2.14252C69.0646 3.54854 68.3896 4.95979 67.7465 6.37629C77.8532 7.40104 87.8786 10.7401 96.7041 16.3502C97.8656 17.0848 98.9974 17.8603 100.114 18.6694L100.104 18.671ZM56.7713 2.98241C57.0583 4.03798 57.3698 5.08447 57.7056 6.12189C59.9166 6.01102 62.1453 6.01111 64.3714 6.12536C64.9303 4.86197 65.511 3.60543 66.1177 2.3499C63.0223 2.52477 59.8983 2.71455 56.7713 2.98241ZM117.375 -60.8075C109.419 -66.5723 99.3802 -68.9577 90.473 -67.0612C72.6543 -63.2624 58.0405 -45.8016 54.9333 -24.5976C53.746 -16.5004 54.1649 -8.22066 55.9989 -0.146789C59.9466 -0.489135 63.8918 -0.717327 67.778 -0.925727C69.464 -4.13819 71.3168 -7.3101 73.3267 -10.4038C86.3397 -30.4164 104.629 -45.3833 125.071 -53.1341C123.639 -55.1442 121.926 -57.0368 119.938 -58.7717C119.115 -59.4932 118.257 -60.1679 117.375 -60.8075ZM220.111 60.9595C217.81 69.99 218.506 80.4595 219.228 91.297C219.801 99.8934 220.384 108.685 219.462 117.081C225.377 117.825 231.218 117.811 236.811 117.055C246.919 103.573 254.198 88.6313 258.225 73.2686C254.556 70.9134 250.691 68.9153 246.793 67.3311C238.274 63.8699 229.256 61.7606 220.111 60.9595ZM207.284 -12.6976C203.461 -15.4678 198.855 -17.5025 193.685 -18.6348C180.253 -21.5785 165.63 -17.9086 156.434 -9.28944C137.502 8.45924 137.332 37.7518 145.558 58.9154C146.109 60.332 146.697 61.7481 147.325 63.1576C155.383 62.8762 163.529 61.7221 171.553 59.6671C187.818 55.5015 200.308 48.5374 208.668 38.9817C218.637 27.5859 222.021 11.7833 217.106 -0.343131C215.106 -5.272 211.722 -9.47256 207.285 -12.6875L207.284 -12.6976ZM126.8 -50.3909C106.744 -42.9499 88.758 -28.316 75.9861 -8.67297C74.3836 -6.20304 72.8814 -3.68714 71.4881 -1.13694C79.2341 -1.59085 87.1407 -2.20491 94.7093 -3.90261C110.817 -7.50502 128.724 -19.2511 129.997 -36.5207C130.348 -41.2623 129.217 -46.0252 126.8 -50.3909ZM261.007 75.1504C257.095 89.5172 250.423 103.499 241.309 116.273C248.516 114.741 255.205 111.933 260.975 107.87C267.41 103.344 272.4 97.1102 275.614 90.2141C272.031 84.5303 267.006 79.5064 261.318 75.385C261.213 75.3088 261.102 75.2283 260.997 75.1521L261.007 75.1504ZM261.827 42.7337C259.013 41.3638 255.972 40.3559 252.807 39.7663C243.504 38.0389 234.725 40.2872 228.73 45.927C225.034 49.4044 222.602 53.424 221.049 57.8564C230.288 58.7253 239.386 60.8838 248 64.3867C251.748 65.907 255.473 67.8034 259.031 70.0161C261.128 60.9717 262.087 51.7991 261.827 42.7337ZM263.137 72.7771C268.544 76.6952 273.387 81.3913 277.092 86.6989C280.753 76.799 280.859 65.9374 276.547 56.9777C274.129 51.9606 270.058 47.6271 265.04 44.5C265.136 53.6071 264.046 62.8007 261.854 71.8654C262.289 72.1629 262.716 72.4722 263.143 72.7814L263.137 72.7771Z" fill="#EEEEEE"/>
</svg>
