<svg width="20" height="16" viewBox="0 0 20 16" fill="none" xmlns="http://www.w3.org/2000/svg">
<path d="M19.2102 1.29C19.1172 1.19627 19.0066 1.12188 18.8848 1.07111C18.7629 1.02034 18.6322 0.994202 18.5002 0.994202C18.3682 0.994202 18.2375 1.02034 18.1156 1.07111C17.9937 1.12188 17.8831 1.19627 17.7902 1.29L6.50019 12.59L2.21019 8.29C2.02188 8.1017 1.76649 7.99591 1.50019 7.99591C1.23388 7.99591 0.978489 8.1017 0.790185 8.29C0.601882 8.4783 0.496094 8.7337 0.496094 9C0.496094 9.2663 0.601882 9.5217 0.790185 9.71L5.79018 14.71C5.88315 14.8037 5.99375 14.8781 6.11561 14.9289C6.23747 14.9797 6.36817 15.0058 6.50019 15.0058C6.6322 15.0058 6.7629 14.9797 6.88476 14.9289C7.00662 14.8781 7.11722 14.8037 7.21019 14.71L19.2102 2.71C19.3039 2.61704 19.3783 2.50644 19.4291 2.38458C19.4798 2.26272 19.506 2.13201 19.506 2C19.506 1.86799 19.4798 1.73728 19.4291 1.61542C19.3783 1.49356 19.3039 1.38296 19.2102 1.29Z" fill="#2361A8"/>
</svg>
