<svg width="447" height="559" viewBox="0 0 447 559" fill="none" xmlns="http://www.w3.org/2000/svg">
<path opacity="0.5" d="M385.768 475.804C356.336 454.477 330.724 427.165 310.443 395.241C281.832 350.206 266.018 299.445 264.711 248.446C264.534 241.493 264.6 234.377 264.668 227.493C264.831 210.339 265.002 192.708 261.368 175.996C242.75 178.966 223.662 178.588 205.429 174.494C191.479 171.354 157.926 160.87 147.634 131.276C147.56 131.071 147.49 130.86 147.426 130.653C134.464 118.191 125.302 103.067 121.541 87.2086C114.744 58.5606 126.533 27.8113 149.571 14.0907C156.769 9.80462 164.969 7.23525 173.473 6.37564C173.155 5.35094 172.861 4.31714 172.583 3.28596C168.757 3.68116 164.954 4.21756 161.222 5.00124C144.571 8.50444 126.919 19.7132 125.015 36.846C124.916 37.7203 124.132 38.3474 123.263 38.2537C122.389 38.1557 121.763 37.3717 121.857 36.5033C123.945 17.7897 142.796 5.63914 160.566 1.89462C164.279 1.11416 168.046 0.578388 171.818 0.171102C169.98 -8.15552 169.571 -16.6955 170.79 -25.0461C174.085 -47.5419 189.72 -66.0918 208.814 -70.162C219.661 -72.4725 232.009 -69.0294 241.024 -61.1587C243.438 -59.0525 245.495 -56.7236 247.163 -54.2393C251.68 -55.7745 256.301 -56.9588 260.975 -57.7742C288.095 -62.4879 317.444 -54.7281 341.527 -36.3045C365.598 -17.9516 380.92 8.28199 383.562 35.6867C383.724 37.3829 383.845 39.0856 383.93 40.7889C390.278 44.2823 395.448 49.4742 398.402 55.6208C403.402 66.0064 402.944 78.7187 398.167 89.9868C401.88 96.3893 403.921 103.551 403.385 111.228C401.877 132.957 382.476 148.868 344.059 159.858C328.496 164.309 310.778 168.252 294.776 166.837C285.004 170.703 274.834 173.603 264.485 175.471C268.164 192.466 267.994 210.231 267.827 227.525C267.765 234.377 267.694 241.463 267.872 248.364C270.49 350.739 333.747 450.305 425.288 496.126C457.274 512.131 484.342 516.962 508.029 510.885C538.879 502.967 565.323 473.72 575.39 436.378C587.703 390.734 575.357 340.846 543.943 309.276C510.975 276.135 457.978 266.353 417.954 286.019C375.969 306.647 353.572 358.063 368.029 400.621C375.283 421.982 392.286 440.013 414.688 450.09C435.71 459.55 458.723 460.381 477.814 452.366C504.806 441.037 523.128 413.157 521.379 386.07C519.506 357.073 493.794 332.606 466.353 333.715C452.486 334.275 438.975 342.194 430.202 354.903C422.114 366.618 419.745 380.122 423.692 391.949C427.865 404.447 438.652 413.71 449.929 414.485C456.129 414.91 462.859 412.167 467.487 407.331C471.505 403.14 473.399 398.053 472.84 393.017C472.11 386.484 466.39 381.902 461.036 380.261C455.426 378.543 450.184 379.723 447.018 383.416C446.447 384.081 445.456 384.157 444.781 383.588C444.116 383.017 444.039 382.015 444.611 381.35C448.626 376.658 455.118 375.117 461.973 377.221C469.589 379.554 475.227 385.763 475.999 392.657C476.668 398.647 474.464 404.642 469.786 409.522C464.439 415.105 456.944 418.141 449.72 417.653C437.194 416.793 425.261 406.638 420.688 392.957C416.418 380.174 418.94 365.647 427.604 353.1C436.939 339.577 451.377 331.143 466.236 330.543C495.331 329.366 522.582 355.215 524.557 385.866C526.385 414.26 507.25 443.459 479.051 455.296C459.145 463.649 435.214 462.805 413.392 452.987C390.194 442.556 372.564 423.839 365.032 401.644C357.771 380.269 359.285 356.047 369.302 333.452C379.178 311.149 395.968 293.293 416.57 283.169C457.777 262.915 512.305 272.958 546.208 307.036C578.405 339.396 591.072 390.49 578.47 437.209C568.106 475.638 540.768 505.773 508.825 513.969C484.359 520.248 456.571 515.342 423.875 498.974C410.593 492.33 397.858 484.573 385.763 475.81L385.768 475.804ZM152.826 135.503C164.54 159.604 193.575 168.573 206.124 171.394C215.578 173.516 225.269 174.623 234.996 174.757C225.577 173.115 216.654 168.55 209.544 162.086C196.025 159.053 183.956 154.732 173.15 149.088C165.778 145.236 158.946 140.651 152.826 135.503ZM150.212 128.924C157.293 135.626 165.522 141.517 174.62 146.272C183.863 151.096 194.067 154.939 205.357 157.812C199.666 151.297 195.665 143.384 194.317 134.824C192.799 125.158 194.679 115.342 199.013 106.741C190.816 100.694 184.276 91.4134 180.099 81.2581C172.14 81.2187 164.383 85.1444 158.401 92.3543C149.889 102.612 146.679 117.13 150.206 128.92L150.212 128.924ZM174.5 9.44857C166.201 10.1978 158.188 12.6441 151.19 16.8156C129.315 29.8536 118.136 59.145 124.624 86.472C127.894 100.253 135.412 113.462 146.047 124.756C144.339 113.088 147.978 99.9597 155.959 90.3353C162.262 82.7327 170.415 78.4435 178.888 78.106C178.116 75.9491 177.456 73.7584 176.9 71.5617C172.652 54.6638 173.347 36.4938 178.615 18.988C177.03 15.8855 175.653 12.6927 174.494 9.44433L174.5 9.44857ZM259.116 167.405C256.678 167.423 254.565 167.373 252.86 167.315C239.624 166.833 227.444 165.556 216.22 163.453C225.019 169.74 235.865 173.139 246.649 172.049C251.112 171.598 255.426 170.406 259.485 168.618C259.364 168.219 259.242 167.809 259.116 167.405ZM201.796 108.633C197.832 116.6 196.08 125.6 197.455 134.332C198.951 143.856 203.971 152.516 210.994 159.149C223.629 161.926 237.569 163.578 252.985 164.141C254.4 164.193 256.118 164.234 258.078 164.236C258.04 164.128 257.997 164.016 257.963 163.902C251.16 144.662 237.992 128.215 224.532 113.5C223.685 113.636 222.821 113.733 221.953 113.799C214.621 114.358 207.824 112.358 201.812 108.635L201.796 108.633ZM260.331 171.694C258.484 172.497 256.585 173.173 254.641 173.727C256.641 173.49 258.644 173.211 260.637 172.897C260.536 172.494 260.436 172.091 260.325 171.69L260.331 171.694ZM263.25 170.312C263.431 170.996 263.608 171.687 263.78 172.373C272.069 170.886 280.252 168.722 288.197 165.915C286.991 165.684 285.8 165.409 284.623 165.101C279.001 166.13 273.574 166.73 268.693 167.056C266.95 168.256 265.123 169.35 263.24 170.313L263.25 170.312ZM228.117 112.735C241.352 127.33 254.16 143.66 260.937 162.837C261.098 163.292 261.252 163.743 261.407 164.194C263.344 164.153 265.432 164.077 267.654 163.939C269.335 162.739 270.937 161.438 272.456 160.031C269.265 158.111 266.292 155.743 263.579 152.867C250.483 138.979 249.671 119.369 249.255 100.198C242.855 105.794 236.026 110.605 228.122 112.729L228.117 112.735ZM275.343 161.632C274.678 162.266 274.002 162.891 273.307 163.494C274.89 163.339 276.515 163.151 278.165 162.928C277.213 162.533 276.27 162.099 275.348 161.636L275.343 161.632ZM252.367 97.4033C252.375 97.7124 252.377 98.0172 252.385 98.3262C252.808 118.35 253.208 137.26 265.881 150.699C268.58 153.556 271.577 155.879 274.797 157.722C283.001 149.07 288.121 137.453 287.948 125.39C287.791 114.534 284.048 104.64 279.122 94.7443C273.745 91.8919 268.395 89.3093 263.013 87.3007C261.334 88.8675 259.666 90.4688 258.028 92.0393C256.158 93.8333 254.279 95.639 252.373 97.4076L252.367 97.4033ZM183.656 81.5523C187.561 90.4841 193.369 98.5735 200.524 103.955C202.365 100.81 204.538 97.8612 206.991 95.1776C199.882 88.367 192.44 82.9027 183.656 81.5523ZM209.375 97.5212C207.066 100.068 205.016 102.873 203.283 105.856C208.8 109.301 215.009 111.141 221.687 110.636C221.743 110.632 221.793 110.624 221.845 110.626C219.037 107.6 216.235 104.651 213.485 101.766C212.118 100.33 210.75 98.9096 209.371 97.5271L209.375 97.5212ZM283.859 97.3113C287.941 106.194 290.976 115.441 291.12 125.342C291.309 137.925 286.091 150.06 277.69 159.229C279.971 160.302 282.353 161.172 284.82 161.853C304.33 158.155 325.823 149.052 333.065 127.321C333.881 124.878 334.472 122.353 334.887 119.763C330.859 119.084 326.815 118.071 322.794 116.719C311.773 113.006 301.144 107.018 290.857 101.223C288.506 99.903 286.177 98.5899 283.859 97.3113ZM300.448 160.99C297.818 161.913 295.152 162.702 292.493 163.381C293.112 163.463 293.728 163.535 294.347 163.591C296.398 162.766 298.436 161.897 300.452 160.984L300.448 160.99ZM211.605 95.2199C213.089 96.7147 214.482 98.188 215.798 99.5701C219.035 102.977 222.356 106.464 225.67 110.06C234.486 108.178 242.037 102.506 249.167 96.0385C249.074 91.8851 248.959 87.6888 248.697 83.5469C243.569 82.8371 238.353 82.8497 232.983 83.8387C224.922 85.3309 217.551 89.474 211.6 95.2257L211.605 95.2199ZM180.785 22.9692C176.488 38.975 176.121 55.4376 179.978 70.7948C180.602 73.2808 181.378 75.7526 182.294 78.1917C182.871 78.2441 183.45 78.3066 184.028 78.3951C194.081 79.899 202.452 86.3575 209.242 92.8831C215.623 86.7471 223.597 82.3367 232.413 80.7133C237.878 79.704 243.223 79.6603 248.467 80.3465C248.288 78.1824 248.061 76.0467 247.763 73.9482C247.349 70.9892 246.775 68.0662 246.054 65.1975C231.698 63.0741 218.208 58.1435 206.808 50.5874C195.929 43.3822 187.078 33.7837 180.789 22.9633L180.785 22.9692ZM357.554 120.013C353.258 125.634 348.475 130.992 343.246 136.018C331.173 147.611 316.977 157.015 301.602 163.95C315.348 163.963 330.055 160.559 343.196 156.805C380.163 146.228 398.818 131.249 400.217 111.012C400.652 104.778 399.224 98.8987 396.498 93.5327C393.056 100.139 388.071 106.073 381.802 110.479C374.771 115.421 366.475 118.626 357.554 120.013ZM338.033 120.232C337.588 122.987 336.954 125.695 336.08 128.327C333.239 136.85 328.379 143.544 322.352 148.785C329.007 144.302 335.274 139.27 341.046 133.728C345.391 129.552 349.411 125.149 353.106 120.555C348.199 120.978 343.146 120.877 338.039 120.236L338.033 120.232ZM251.911 84.0823C252.091 87.0944 252.196 90.1235 252.273 93.1417C253.464 92.015 254.647 90.874 255.832 89.7431C257.084 88.5446 258.353 87.3227 259.633 86.1093C257.076 85.2826 254.504 84.5877 251.915 84.0764L251.911 84.0823ZM249.43 65.645C250.037 68.2265 250.533 70.8519 250.903 73.5024C251.241 75.9152 251.493 78.3727 251.692 80.8542C255.251 81.5152 258.762 82.4891 262.238 83.6962C263.244 82.7749 264.264 81.8722 265.278 81.0013C266.757 79.7354 268.274 78.5151 269.825 77.3463C267.893 73.7512 266.003 70.0976 264.289 66.3846C259.282 66.4674 254.309 66.2188 249.425 65.6508L249.43 65.645ZM182.028 18.6951C188.128 30.1818 197.207 40.4005 208.553 47.9445C219.202 55.0004 231.753 59.6882 245.134 61.8541C239.822 43.8906 228.687 28.39 213.987 19.0402C205.282 13.509 195.364 10.2924 185.409 9.43987C184.132 12.4938 183.006 15.5856 182.028 18.6951ZM271.35 80.1638C269.98 81.2054 268.642 82.2883 267.342 83.4067C266.759 83.9033 266.179 84.4202 265.594 84.9328C269.305 86.3815 272.986 88.0676 276.622 89.8903C275.344 87.4833 274.028 85.0668 272.693 82.6275C272.243 81.8102 271.802 80.9912 271.35 80.1638ZM273.938 78.2653C274.456 79.2115 274.973 80.1577 275.485 81.0997C277.523 84.8332 279.585 88.5937 281.502 92.4188C285.175 94.3753 288.81 96.4205 292.423 98.4588C302.575 104.182 313.078 110.098 323.814 113.711C327.639 115.002 331.485 115.969 335.312 116.618C336.192 108.513 335.62 99.9166 335.057 91.515C334.354 80.995 333.641 70.2542 335.931 60.7342C314.099 59.5282 291.778 65.6405 273.938 78.2653ZM177.787 9.24302C178.465 11.0635 179.207 12.8684 180.027 14.6403C180.654 12.8282 181.334 11.0282 182.062 9.23612C180.633 9.19082 179.212 9.19594 177.793 9.24726L177.787 9.24302ZM219.104 18.671C233.121 28.8283 243.619 44.4826 248.584 62.3465C253.276 62.9451 258.064 63.2388 262.885 63.2169C262.434 62.167 262.008 61.1181 261.597 60.0617C252.979 37.9006 253.247 7.14445 273.265 -11.6107C283.208 -20.9286 298.946 -24.9062 313.369 -21.7437C325.563 -19.0724 334.927 -11.7074 339.052 -1.55419C344.409 11.6599 340.797 28.7867 330.063 41.0652C321.271 51.1193 308.243 58.4074 291.347 62.741C283.538 64.7462 275.616 65.9109 267.757 66.2743C269.226 69.3643 270.811 72.4308 272.429 75.4504C290.994 62.4407 314.186 56.2097 336.82 57.6131C338.503 52.4359 341.242 47.6845 345.559 43.6217C352.304 37.2772 362.087 34.739 372.397 36.6517C375.264 37.1857 378.048 38.0433 380.669 39.1751C380.603 38.1101 380.516 37.0482 380.414 35.9838C377.855 9.46038 362.987 -15.9718 339.612 -33.7846C316.217 -51.6202 287.78 -59.2003 261.529 -54.6515C257.236 -53.9075 253.002 -52.8365 248.847 -51.4577C251.384 -46.6925 252.56 -41.4868 252.172 -36.2895C250.776 -17.2986 232.2 -4.77854 214.405 -0.802439C205.967 1.08613 197.248 1.66476 188.771 2.14252C188.065 3.54854 187.39 4.95979 186.747 6.37629C196.853 7.40104 206.879 10.7401 215.704 16.3502C216.866 17.0848 217.997 17.8603 219.114 18.6694L219.104 18.671ZM175.771 2.98241C176.058 4.03798 176.37 5.08447 176.706 6.12189C178.917 6.01102 181.145 6.01111 183.371 6.12536C183.93 4.86197 184.511 3.60543 185.118 2.3499C182.022 2.52477 178.898 2.71455 175.771 2.98241ZM236.375 -60.8075C228.419 -66.5723 218.38 -68.9577 209.473 -67.0612C191.654 -63.2624 177.041 -45.8016 173.933 -24.5976C172.746 -16.5004 173.165 -8.22066 174.999 -0.146789C178.947 -0.489135 182.892 -0.717327 186.778 -0.925727C188.464 -4.13819 190.317 -7.3101 192.327 -10.4038C205.34 -30.4164 223.629 -45.3833 244.071 -53.1341C242.639 -55.1442 240.926 -57.0368 238.938 -58.7717C238.115 -59.4932 237.257 -60.1679 236.375 -60.8075ZM339.111 60.9595C336.81 69.99 337.506 80.4595 338.228 91.297C338.801 99.8934 339.384 108.685 338.462 117.081C344.377 117.825 350.218 117.811 355.811 117.055C365.919 103.573 373.198 88.6313 377.225 73.2686C373.556 70.9134 369.691 68.9153 365.793 67.3311C357.274 63.8699 348.256 61.7606 339.111 60.9595ZM326.284 -12.6976C322.461 -15.4678 317.855 -17.5025 312.685 -18.6348C299.253 -21.5785 284.63 -17.9086 275.434 -9.28944C256.502 8.45924 256.332 37.7518 264.558 58.9154C265.109 60.332 265.697 61.7481 266.325 63.1576C274.383 62.8762 282.529 61.7221 290.553 59.6671C306.818 55.5015 319.308 48.5374 327.668 38.9817C337.637 27.5859 341.021 11.7833 336.106 -0.343131C334.106 -5.272 330.722 -9.47256 326.285 -12.6875L326.284 -12.6976ZM245.8 -50.3909C225.744 -42.9499 207.758 -28.316 194.986 -8.67297C193.384 -6.20304 191.881 -3.68714 190.488 -1.13694C198.234 -1.59085 206.141 -2.20491 213.709 -3.90261C229.817 -7.50502 247.724 -19.2511 248.997 -36.5207C249.348 -41.2623 248.217 -46.0252 245.8 -50.3909ZM380.007 75.1504C376.095 89.5172 369.423 103.499 360.309 116.273C367.516 114.741 374.205 111.933 379.975 107.87C386.41 103.344 391.4 97.1102 394.614 90.2141C391.031 84.5303 386.006 79.5064 380.318 75.385C380.213 75.3088 380.102 75.2283 379.997 75.1521L380.007 75.1504ZM380.827 42.7337C378.013 41.3638 374.972 40.3559 371.807 39.7663C362.504 38.0389 353.725 40.2872 347.73 45.927C344.034 49.4044 341.602 53.424 340.049 57.8564C349.288 58.7253 358.386 60.8838 367 64.3867C370.748 65.907 374.473 67.8034 378.031 70.0161C380.128 60.9717 381.087 51.7991 380.827 42.7337ZM382.137 72.7771C387.544 76.6952 392.387 81.3913 396.092 86.6989C399.753 76.799 399.859 65.9374 395.547 56.9777C393.129 51.9606 389.058 47.6271 384.04 44.5C384.136 53.6071 383.046 62.8007 380.854 71.8654C381.289 72.1629 381.716 72.4722 382.143 72.7814L382.137 72.7771Z" fill="#EEEEEE"/>
</svg>
