<svg width="24" height="24" viewBox="0 0 24 24" fill="none" xmlns="http://www.w3.org/2000/svg">
<path d="M21.2099 5.28994C21.117 5.19621 21.0064 5.12182 20.8845 5.07105C20.7627 5.02028 20.632 4.99414 20.4999 4.99414C20.3679 4.99414 20.2372 5.02028 20.1154 5.07105C19.9935 5.12182 19.8829 5.19621 19.7899 5.28994L8.49994 16.5899L4.20994 12.2899C4.02164 12.1016 3.76624 11.9958 3.49994 11.9958C3.23364 11.9958 2.97824 12.1016 2.78994 12.2899C2.60164 12.4782 2.49585 12.7336 2.49585 12.9999C2.49585 13.2662 2.60164 13.5216 2.78994 13.7099L7.78994 18.7099C7.8829 18.8037 7.99351 18.8781 8.11536 18.9288C8.23722 18.9796 8.36793 19.0057 8.49994 19.0057C8.63195 19.0057 8.76266 18.9796 8.88452 18.9288C9.00638 18.8781 9.11698 18.8037 9.20994 18.7099L21.2099 6.70994C21.3037 6.61698 21.3781 6.50638 21.4288 6.38452C21.4796 6.26266 21.5057 6.13195 21.5057 5.99994C21.5057 5.86793 21.4796 5.73722 21.4288 5.61536C21.3781 5.4935 21.3037 5.3829 21.2099 5.28994Z" fill="#2361A8"/>
</svg>
