<svg width="506" height="388" viewBox="0 0 506 388" fill="none" xmlns="http://www.w3.org/2000/svg">
<path opacity="0.2" d="M152.28 276.686C180.314 248.671 180.314 203.25 152.28 175.236C124.246 147.221 78.794 147.221 50.76 175.236C22.726 203.25 22.726 248.671 50.76 276.686C78.794 304.701 124.246 304.701 152.28 276.686Z" fill="#7EABE1"/>
<path opacity="0.2" d="M266.022 125.978C277.624 114.384 277.624 95.5865 266.022 83.9925C254.42 72.3985 235.609 72.3985 224.007 83.9925C212.405 95.5865 212.405 114.384 224.007 125.978C235.609 137.572 254.42 137.572 266.022 125.978Z" fill="#7EABE1"/>
<path d="M181.986 387.503C182.175 380.154 182.364 372.84 183.343 366.282C184.323 359.723 186.086 353.955 189.321 349.645C192.536 345.328 197.368 342.274 202.381 339.727C207.402 337.173 212.56 335.156 216.42 332.741C219.199 330.992 221.274 329.04 222.645 326.827C224.023 324.615 224.676 322.155 224.669 319.514C224.669 317.454 224.285 315.277 223.566 312.97C222.275 308.871 219.953 304.365 217.588 300.07C215.23 295.782 212.821 291.698 211.377 288.585C210.188 286.017 209.665 284.116 209.672 282.578C209.672 281.482 209.919 280.532 210.427 279.523C210.942 278.515 211.74 277.441 212.829 276.215C214.693 274.125 217.378 271.608 219.67 268.96C220.817 267.632 221.876 266.275 222.681 264.882C223.494 263.489 224.067 262.06 224.19 260.58C224.19 260.406 224.205 260.239 224.205 260.065C224.205 258.643 223.755 257.293 223.022 256.031C221.912 254.137 220.171 252.389 218.089 250.575C215.999 248.768 213.547 246.904 210.993 244.858H210.986C207.467 242.05 203.723 238.901 200.364 235.578C197.005 232.255 194.037 228.758 192.064 225.297C190.083 221.851 189.046 218.376 188.146 214.407C187.246 210.446 186.499 206.006 185.099 200.753C182.298 190.24 176.864 176.426 164.117 165.732C151.376 155.038 131.533 147.543 110.602 146.375C108.679 146.266 106.749 146.215 104.82 146.215C85.6874 146.215 66.1853 151.243 50.8404 159.5C42.3953 164.034 35.1981 169.548 29.5245 176.012C23.8509 182.47 19.7081 189.877 17.3792 198.148C15.6814 204.156 14.9414 210.598 14.9414 217.157C14.9414 228.664 17.2268 240.541 20.7238 251.104C26.2306 267.668 34.6902 280.96 42.6057 290.413C46.5526 295.137 50.3543 298.895 54.1198 302.58C57.878 306.266 61.5927 309.894 65.4235 314.385C73.085 323.359 81.2254 335.882 84.4975 347.193C85.7962 351.706 86.3404 356.052 86.3404 360.057C86.3404 366.086 85.107 371.36 83.3947 375.285C82.009 378.463 80.3258 380.727 78.541 382.178C76.7562 383.629 74.8988 384.282 73.027 384.289C72.9182 384.289 72.8021 384.289 72.6932 384.289C70.9012 384.217 69.1091 383.513 67.7887 382.243C66.4682 380.966 65.5686 379.145 65.5613 376.628C65.5613 376.25 65.5831 375.866 65.6266 375.459C65.9241 372.521 67.4477 368.727 70.0596 365.295C72.6715 361.856 76.3571 358.78 80.9425 357.096C85.535 355.406 91.274 355.072 97.0491 354.376C99.9367 354.027 102.832 353.578 105.618 352.787C108.404 351.996 111.074 350.857 113.475 349.116C117.625 346.097 120.817 341.389 122.979 335.577C125.141 329.766 126.273 322.852 126.273 315.328C126.273 313.013 126.172 310.648 125.947 308.232C124.293 290.145 116.435 269.779 105.581 256.096C100.147 249.262 93.9947 244.154 88.1469 240.519C82.2919 236.891 76.7562 234.744 72.5046 233.844H72.4828H72.4973C71.3945 233.612 70.3861 233.503 69.4501 233.503C68.3764 233.503 67.4114 233.656 66.5553 233.946C65.2784 234.381 64.2626 235.157 63.5952 236.159C62.9349 237.16 62.6302 238.35 62.6302 239.576C62.6375 241.114 63.0945 242.739 63.9362 244.321C65.1986 246.693 67.3389 248.986 70.2555 250.698C73.1793 252.41 76.8795 253.528 81.2327 253.52C88.3646 253.52 97.2015 250.538 107.323 242.442C109.34 240.838 110.834 239.039 111.821 237.131C112.815 235.223 113.294 233.198 113.294 231.181C113.294 230.18 113.178 229.179 112.945 228.192C112.387 225.733 111.168 223.397 109.724 221.605C108.991 220.712 108.208 219.95 107.381 219.392C106.554 218.84 105.668 218.463 104.718 218.456H104.58H104.587C103.884 218.485 103.223 218.739 102.686 219.152C101.881 219.769 101.315 220.676 100.931 221.75C100.553 222.823 100.358 224.086 100.35 225.479C100.358 226.894 100.561 228.439 101.01 230.057C101.816 232.981 103.412 236.13 105.828 238.727C108.244 241.317 111.509 243.363 115.565 243.922C116.363 244.031 117.19 244.089 118.031 244.089C121.855 244.089 126.027 243.007 129.763 241.172C133.5 239.336 136.815 236.746 138.861 233.605C140.61 230.891 141.335 227.844 141.335 224.768C141.335 219.885 139.543 214.908 137.076 210.685C135.154 207.399 132.81 204.562 130.467 202.516C129.299 201.493 128.123 200.666 126.984 200.078C125.838 199.491 124.728 199.135 123.632 199.135C123.422 199.135 123.212 199.15 123.001 199.179C121.768 199.353 120.745 200.093 120.106 201.072C119.461 202.052 119.149 203.27 119.149 204.569C119.149 206.775 120.063 209.263 122.094 211.346C123.727 213.007 126.005 214.357 128.551 215.321C131.091 216.279 133.906 216.838 136.634 216.845C138.564 216.845 140.457 216.562 142.162 215.902C145.086 214.763 148.75 212.717 151.754 209.88C153.256 208.458 154.598 206.84 155.57 205.019C156.542 203.205 157.144 201.181 157.144 199.004C157.144 198.489 157.108 197.974 157.043 197.445C156.441 192.99 154.823 188.209 152.494 183.718C150.158 179.227 147.118 175.033 143.621 171.783C140.885 169.243 137.033 167.27 132.919 165.891C128.805 164.52 124.438 163.766 120.629 163.766C118.176 163.766 115.956 164.078 114.15 164.803C110.602 166.247 107.627 169.018 105.48 172.138C103.332 175.265 101.99 178.74 101.838 181.802C101.823 181.998 101.816 182.194 101.816 182.39C101.816 184.748 102.563 186.75 103.688 188.18C104.254 188.898 104.907 189.471 105.632 189.877C106.35 190.284 107.134 190.516 107.932 190.516C108.643 190.516 109.354 190.327 109.978 189.928C110.994 189.275 111.69 188.223 112.169 186.975C112.641 185.727 112.887 184.254 112.887 182.68C112.887 180.286 112.307 177.652 110.914 175.272C108.121 170.506 102.222 167.045 94.3937 167.045C93.1893 167.045 91.9414 167.125 90.6427 167.299C85.7962 167.937 80.4056 169.816 75.4938 172.414C70.5892 175.011 66.1708 178.32 63.2977 181.94H63.3049C60.4173 185.568 59.2057 189.471 59.213 193.135C59.213 196.763 60.3811 200.151 62.2021 202.879C63.5371 204.888 65.2203 206.543 67.0341 207.711C68.8479 208.872 70.7924 209.568 72.6787 209.575C74.0645 209.575 75.4357 209.184 76.5603 208.306C77.6196 207.479 78.4176 206.296 78.969 204.932C79.5204 203.568 79.8107 202.001 79.8179 200.361C79.8179 197.162 78.6643 193.643 75.8928 190.908C73.9702 189.028 71.3583 187.585 68.3909 186.591C65.4162 185.597 62.0788 185.06 58.6979 185.06C55.5491 185.06 52.3568 185.524 49.3748 186.54C44.688 188.143 40.625 191.074 37.6141 194.615C34.6104 198.163 32.6442 202.327 32.2379 206.463C32.1799 207 32.1581 207.537 32.1581 208.073C32.1509 211.911 33.5221 215.575 36.0324 218.601C38.5428 221.626 42.1921 224.013 46.7484 225.363C51.0073 226.625 54.9541 227.191 58.6616 227.191C66.2651 227.191 72.8383 224.797 79.0924 221.278C88.4734 215.996 97.2378 208.211 108.157 201.79C119.083 195.37 132.121 190.262 150.158 190.255C152.508 190.255 154.946 190.342 157.478 190.523C163.565 190.958 169.74 191.43 175.805 191.43C182.306 191.43 188.683 190.893 194.69 189.166C202.562 186.917 209.745 182.782 216.565 177.739C223.378 172.697 229.835 166.74 236.263 160.805L235.523 160.007L234.442 160.094C234.638 162.612 234.834 165.144 235.095 167.437C235.363 169.737 235.69 171.79 236.19 173.408C236.444 174.228 236.749 174.939 237.119 175.563C237.663 176.499 238.382 177.224 239.238 177.739C240.094 178.262 241.059 178.581 242.147 178.835H242.14C243.569 179.176 245.245 179.415 246.609 179.72C247.291 179.872 247.893 180.046 248.314 180.228C248.524 180.315 248.684 180.409 248.786 180.482C248.887 180.554 248.916 180.605 248.916 180.605H248.923V180.62V180.649C248.931 180.707 248.887 180.903 248.742 181.142C248.524 181.505 248.104 181.955 247.617 182.288C247.139 182.629 246.594 182.861 246.203 182.905C246.123 182.919 246.05 182.919 245.971 182.919C245.709 182.919 245.455 182.861 245.194 182.738C244.81 182.564 244.418 182.245 244.106 181.875C243.787 181.505 243.54 181.084 243.424 180.765L242.408 181.156L243.424 180.779C243.351 180.583 243.337 180.453 243.337 180.395V180.344C243.337 180.344 243.388 180.257 243.634 180.133C243.866 180.01 244.273 179.872 244.831 179.749C245.789 179.553 247.226 179.408 248.684 179.219C250.15 179.023 251.63 178.791 252.848 178.32H252.856C253.458 178.073 253.995 177.768 254.437 177.369C255.119 176.774 255.562 176.012 255.859 175.178C256.164 174.337 256.346 173.408 256.527 172.327C257.006 169.439 257.477 165.304 257.724 163.229C257.797 162.656 257.847 162.227 257.847 161.799C257.847 161.524 257.826 161.226 257.71 160.907C257.622 160.668 257.47 160.443 257.289 160.269C257.028 160 256.745 159.862 256.469 159.739C256.193 159.616 255.903 159.514 255.555 159.383L255.185 160.406L255.569 159.391C254.728 159.071 253.501 158.614 252.174 157.94C250.846 157.265 249.424 156.372 248.198 155.219H248.205C245.782 152.897 243.975 149.335 243.119 144.249C242.677 141.652 242.568 140.578 242.423 139.388C242.27 138.191 242.096 136.907 241.552 134.048C240.986 131.095 240.101 128.795 238.984 127.076C237.874 125.356 236.517 124.203 235.044 123.651C234.558 123.47 234.065 123.376 233.579 123.376C232.976 123.376 232.403 123.521 231.888 123.789C231.126 124.188 230.524 124.848 230.132 125.632C229.733 126.423 229.523 127.344 229.523 128.338C229.523 129.971 230.081 131.799 231.329 133.591C232.577 135.383 234.522 137.124 237.293 138.612C240.812 140.498 244.302 141.311 247.53 141.303C252.152 141.303 256.222 139.664 259.161 137.255C260.626 136.051 261.816 134.65 262.65 133.148C263.485 131.647 263.956 130.036 263.956 128.418C263.956 127.562 263.826 126.706 263.535 125.879C263.332 125.298 263.035 124.79 262.592 124.413C262.157 124.029 261.562 123.833 261.018 123.84C260.271 123.84 259.603 124.13 258.965 124.522C257.847 125.226 256.737 126.358 255.635 127.772C253.98 129.898 252.362 132.677 251.144 135.593C249.925 138.517 249.09 141.565 249.083 144.3C249.083 145.279 249.192 146.215 249.446 147.093C249.816 148.406 250.549 149.596 251.68 150.438C252.812 151.279 254.3 151.751 256.092 151.816C256.229 151.816 256.36 151.816 256.498 151.816C258.312 151.816 260.321 151.366 262.353 150.184C264.384 149.008 266.423 147.122 268.36 144.3C273.345 137.059 276.45 127.888 276.45 118.921C276.45 111.397 274.237 103.99 269.013 98.1418C266.713 95.5735 263.644 93.2808 260.075 91.6048C256.505 89.9361 252.442 88.8986 248.169 88.8986C247.734 88.8986 247.298 88.9059 246.863 88.9277C242.35 89.1526 237.707 90.5456 233.55 92.7657C229.385 94.9858 225.699 98.0257 223.124 101.617C219.627 106.5 218.299 112.246 218.299 117.941C218.299 120.655 218.596 123.368 219.112 125.988C220.744 134.121 224.43 141.398 228.333 145.831C230.299 148.058 232.309 149.524 233.949 150.626C234.761 151.178 235.494 151.649 236.067 152.063C236.647 152.476 237.068 152.846 237.286 153.144C237.518 153.441 237.634 153.746 237.714 154.123C237.837 154.689 237.816 155.429 237.866 156.3C237.917 157.163 238.055 158.186 238.628 159.195V159.209V159.202C239.404 160.53 240.761 161.654 242.495 162.496C244.222 163.338 246.333 163.889 248.626 163.918C248.72 163.918 248.822 163.918 248.923 163.918C251.18 163.918 253.581 163.425 256.215 162.438C258.856 161.451 261.729 159.964 264.972 157.954C277.393 150.242 290.801 140.208 305.057 132.125C319.321 124.036 334.39 117.927 350.083 117.927C358.028 117.927 366.147 119.487 374.461 123.165C379.104 125.218 382.514 128.004 384.749 130.943C386.984 133.881 388.036 136.965 388.036 139.598C388.036 140.883 387.789 142.058 387.317 143.081C386.846 144.104 386.157 144.975 385.228 145.671C382.95 147.383 380.055 148.203 376.855 148.203C371.465 148.21 365.276 145.838 360.27 141.731C355.264 137.625 351.462 131.828 350.62 125.044C350.468 123.804 350.395 122.599 350.395 121.446C350.395 117.927 351.077 114.807 352.318 112.007C354.473 107.102 358.354 103.119 363.339 99.7888C370.819 94.7972 380.751 91.3582 390.655 88.5794C400.566 85.8006 410.433 83.6821 417.877 81.2298C437.35 74.8089 452.143 67.1256 465.05 54.8207C477.957 42.523 488.942 25.6691 501 0.957693L499.048 0C487.041 24.6026 476.18 41.2171 463.548 53.2463C450.924 65.2755 436.501 72.792 417.195 79.1621C411.666 80.9832 404.607 82.6591 397.148 84.5818C385.961 87.4766 373.852 90.9374 364.434 96.5312C359.726 99.3244 355.677 102.662 352.79 106.768C349.909 110.868 348.212 115.743 348.219 121.446C348.219 122.694 348.299 123.978 348.465 125.306C349.387 132.749 353.537 139.018 358.891 143.407C364.253 147.797 370.841 150.365 376.855 150.372C380.418 150.372 383.806 149.458 386.534 147.405C387.753 146.491 388.681 145.315 389.298 143.981C389.915 142.646 390.212 141.151 390.212 139.591C390.212 136.384 388.957 132.873 386.476 129.622C384.002 126.365 380.294 123.361 375.339 121.17C366.756 117.368 358.318 115.75 350.083 115.75C333.81 115.75 318.4 122.062 303.984 130.232C289.575 138.408 276.123 148.464 263.826 156.104C260.67 158.063 257.905 159.478 255.453 160.399C252.994 161.321 250.861 161.741 248.923 161.741C248.836 161.741 248.749 161.741 248.669 161.741C246.703 161.712 244.889 161.234 243.453 160.537C242.016 159.841 240.972 158.905 240.529 158.114C240.304 157.722 240.188 157.323 240.116 156.873C240.007 156.206 240.036 155.437 239.978 154.573C239.941 154.145 239.876 153.688 239.738 153.216C239.593 152.752 239.368 152.266 239.034 151.823C238.577 151.229 237.997 150.764 237.351 150.293C236.372 149.589 235.211 148.878 233.941 147.956C232.679 147.035 231.315 145.903 229.973 144.38C226.389 140.331 222.797 133.301 221.259 125.552C220.766 123.056 220.483 120.481 220.483 117.934C220.483 112.565 221.731 107.298 224.901 102.872C227.237 99.6146 230.676 96.7561 234.58 94.6738C238.476 92.5916 242.836 91.2929 246.979 91.0897C247.378 91.068 247.777 91.0607 248.176 91.0607C252.094 91.0607 255.852 92.0184 259.161 93.5638C262.469 95.1091 265.313 97.2494 267.403 99.5784C272.206 104.962 274.281 111.796 274.281 118.906C274.281 127.359 271.313 136.167 266.575 143.052C264.783 145.664 262.977 147.296 261.272 148.283C259.567 149.27 257.963 149.618 256.505 149.618C256.396 149.618 256.287 149.618 256.179 149.618C255.199 149.582 254.416 149.407 253.806 149.139C252.885 148.733 252.297 148.152 251.884 147.354C251.477 146.556 251.267 145.511 251.267 144.285C251.267 142.544 251.695 140.476 252.406 138.379C253.48 135.231 255.192 132.024 256.926 129.659C257.789 128.476 258.66 127.504 259.422 126.865C259.799 126.546 260.147 126.314 260.43 126.169C260.713 126.024 260.924 125.988 261.025 125.988C261.127 125.988 261.119 125.995 261.185 126.046C261.25 126.096 261.373 126.241 261.489 126.575C261.693 127.163 261.787 127.772 261.787 128.396C261.787 129.579 261.439 130.834 260.757 132.067C259.734 133.918 257.971 135.688 255.685 136.986C253.4 138.285 250.614 139.105 247.538 139.105C244.665 139.105 241.545 138.394 238.331 136.667C235.806 135.318 234.144 133.787 233.121 132.321C232.098 130.856 231.707 129.448 231.707 128.316C231.707 127.395 231.968 126.655 232.323 126.198C232.505 125.966 232.701 125.806 232.904 125.697C233.114 125.588 233.332 125.53 233.586 125.53C233.789 125.53 234.021 125.567 234.282 125.668H234.29C235.233 126.024 236.241 126.815 237.163 128.237C238.084 129.659 238.897 131.697 239.419 134.44C239.963 137.277 240.123 138.467 240.268 139.635C240.406 140.803 240.529 141.971 240.979 144.597C241.886 150.002 243.866 154.044 246.703 156.779C248.133 158.136 249.736 159.13 251.187 159.87C252.638 160.61 253.959 161.096 254.8 161.415H254.807C255.119 161.524 255.359 161.611 255.518 161.683C255.642 161.734 255.722 161.778 255.743 161.792H255.758L255.946 161.56L255.664 161.662L255.758 161.792L255.946 161.553L255.664 161.654L255.823 161.596L255.656 161.633V161.654L255.823 161.596L255.656 161.633V161.662V161.77C255.664 161.974 255.62 162.373 255.547 162.939C255.301 165.014 254.829 169.149 254.365 171.935C254.14 173.328 253.9 174.322 253.567 174.946C253.4 175.265 253.219 175.497 252.986 175.701C252.754 175.904 252.457 176.092 252.029 176.259C251.173 176.6 249.787 176.847 248.379 177.028C246.957 177.217 245.521 177.347 244.374 177.587H244.367C243.46 177.79 242.749 178.022 242.147 178.45C241.857 178.668 241.588 178.944 241.407 179.285C241.226 179.618 241.146 180.003 241.146 180.366C241.146 180.765 241.24 181.142 241.371 181.505V181.519C241.668 182.288 242.198 183.101 242.952 183.797C243.33 184.146 243.765 184.45 244.266 184.683C244.766 184.915 245.339 185.06 245.949 185.06C246.123 185.06 246.304 185.045 246.486 185.024C247.059 184.944 247.603 184.741 248.111 184.479C248.873 184.08 249.562 183.529 250.106 182.89C250.374 182.571 250.607 182.223 250.781 181.853C250.955 181.476 251.078 181.069 251.078 180.612C251.078 180.228 250.984 179.814 250.759 179.451L249.83 180.017L250.766 179.466C250.57 179.132 250.309 178.878 250.033 178.682C249.547 178.334 249.003 178.109 248.408 177.921C247.516 177.638 246.5 177.435 245.484 177.246C244.469 177.057 243.46 176.883 242.619 176.68C241.973 176.528 241.436 176.361 240.979 176.165C240.29 175.867 239.804 175.519 239.375 175.004C238.947 174.489 238.577 173.771 238.251 172.726C237.823 171.347 237.496 169.381 237.235 167.147C236.974 164.912 236.785 162.402 236.589 159.884L236.415 157.642L234.761 159.166C228.34 165.101 221.934 170.999 215.244 175.947C208.555 180.895 201.597 184.886 194.074 187.033C188.342 188.673 182.168 189.21 175.783 189.21C169.834 189.21 163.71 188.745 157.616 188.31C155.033 188.122 152.545 188.034 150.136 188.034C137.838 188.034 127.724 190.371 119.054 193.882C106.046 199.149 96.2873 207.021 87.0949 213.479C82.5023 216.707 78.0476 219.595 73.4188 221.655C68.7899 223.716 63.9942 224.971 58.6398 224.971C55.1573 224.971 51.4281 224.441 47.3434 223.23C43.1498 221.982 39.8922 219.827 37.6866 217.164C35.481 214.502 34.3129 211.346 34.3129 208.03C34.3129 207.566 34.3347 207.101 34.3782 206.637C34.7265 203.046 36.4895 199.237 39.2538 195.986C42.018 192.729 45.7835 190.022 50.0568 188.564C52.7776 187.635 55.7377 187.2 58.6761 187.2C61.8321 187.2 64.9446 187.708 67.6799 188.615C70.4078 189.529 72.744 190.849 74.3474 192.424C76.6546 194.695 77.6123 197.626 77.6196 200.325C77.6196 201.696 77.3656 202.995 76.9303 204.083C76.495 205.164 75.8783 206.02 75.2036 206.55C74.4853 207.101 73.6437 207.362 72.6497 207.362C71.3147 207.362 69.7258 206.84 68.1877 205.846C66.6424 204.852 65.155 203.401 63.9797 201.638C62.3835 199.237 61.3533 196.255 61.3605 193.099C61.3605 189.914 62.3835 186.533 64.9809 183.26C67.5638 179.988 71.7791 176.796 76.4877 174.307C81.1891 171.819 86.3912 170.02 90.9039 169.432C92.1011 169.272 93.2619 169.2 94.3647 169.2C101.562 169.2 106.67 172.349 109.006 176.346C110.174 178.341 110.689 180.612 110.682 182.651C110.682 183.986 110.464 185.219 110.101 186.17C109.746 187.128 109.231 187.781 108.788 188.056C108.512 188.23 108.229 188.303 107.903 188.31C107.54 188.31 107.112 188.201 106.67 187.947C105.327 187.207 103.963 185.212 103.963 182.361C103.963 182.201 103.963 182.042 103.978 181.882C104.094 179.386 105.277 176.179 107.243 173.343C109.194 170.498 111.908 168.017 114.941 166.791C116.348 166.218 118.336 165.906 120.6 165.913C124.118 165.913 128.305 166.631 132.201 167.93C136.104 169.229 139.717 171.115 142.112 173.35C145.384 176.39 148.3 180.402 150.535 184.697C152.762 188.985 154.3 193.563 154.852 197.706C154.91 198.134 154.939 198.562 154.939 198.983C154.939 200.753 154.453 202.407 153.618 203.967C152.378 206.303 150.324 208.393 148.068 210.083C145.812 211.774 143.352 213.065 141.35 213.841C139.957 214.378 138.324 214.639 136.605 214.639C134.182 214.639 131.599 214.132 129.284 213.261C126.977 212.39 124.946 211.157 123.618 209.8C121.971 208.11 121.289 206.151 121.296 204.547C121.296 203.604 121.528 202.799 121.898 202.247C122.268 201.696 122.704 201.406 123.291 201.312H123.284C123.378 201.297 123.487 201.29 123.603 201.29C124.198 201.29 125.025 201.507 125.961 201.994C127.369 202.712 129.009 203.996 130.619 205.679C132.23 207.362 133.812 209.445 135.168 211.766C137.497 215.742 139.137 220.407 139.13 224.753C139.13 227.496 138.491 230.093 137.004 232.408C135.263 235.099 132.244 237.508 128.776 239.199C125.316 240.903 121.412 241.897 118.002 241.89C117.255 241.89 116.529 241.839 115.833 241.745C112.343 241.259 109.543 239.525 107.395 237.225C105.248 234.925 103.789 232.059 103.078 229.455C102.679 228.018 102.498 226.654 102.498 225.457C102.498 223.875 102.817 222.569 103.267 221.75C103.485 221.336 103.738 221.046 103.971 220.872C104.203 220.698 104.406 220.625 104.645 220.618H104.689C105.015 220.618 105.545 220.777 106.14 221.184C107.032 221.779 108.048 222.867 108.897 224.202C109.746 225.53 110.442 227.104 110.798 228.664C110.986 229.498 111.088 230.34 111.088 231.167C111.088 232.843 110.696 234.504 109.862 236.115C109.028 237.726 107.743 239.286 105.937 240.729C96.0769 248.609 87.7116 251.337 81.2037 251.337C75.8928 251.337 71.7791 249.537 68.9858 247.15C67.5928 245.96 66.5335 244.618 65.8298 243.29C65.1187 241.97 64.7778 240.664 64.7778 239.569C64.7778 238.981 64.8793 238.451 65.0535 237.994C65.3219 237.305 65.7645 236.768 66.4465 236.354C67.1357 235.948 68.1079 235.672 69.4211 235.672C70.1829 235.672 71.0463 235.767 72.0258 235.97C75.9726 236.797 81.3197 238.857 86.9716 242.362C92.6234 245.873 98.5872 250.821 103.847 257.438C114.389 270.694 122.16 290.805 123.756 308.421C123.966 310.772 124.068 313.072 124.068 315.321C124.075 322.619 122.965 329.302 120.912 334.816C118.858 340.33 115.869 344.661 112.169 347.345C110.029 348.898 107.606 349.943 104.994 350.683C101.083 351.8 96.7589 352.221 92.4783 352.678C88.1905 353.142 83.9534 353.65 80.1589 355.036C75.1237 356.893 71.1261 360.245 68.2966 363.96C65.4743 367.682 63.7983 371.752 63.4355 375.213C63.3848 375.692 63.3557 376.156 63.3557 376.606C63.3557 379.66 64.5021 382.127 66.2506 383.796C67.9918 385.464 70.2845 386.35 72.5699 386.444H72.5772C72.715 386.444 72.8529 386.451 72.998 386.451C75.3994 386.451 77.7792 385.581 79.8904 383.854C82.009 382.127 83.8663 379.566 85.3609 376.149C87.2038 371.919 88.4879 366.376 88.4879 360.049C88.4879 355.848 87.922 351.299 86.558 346.584C83.1263 334.779 74.8553 322.126 67.0487 312.963C63.1453 308.385 59.3653 304.706 55.6144 301.021C51.8562 297.335 48.1197 293.642 44.2526 289.013C36.4895 279.748 28.1677 266.674 22.7698 250.415C19.3308 240.047 17.0962 228.374 17.0962 217.157C17.0962 210.758 17.8217 204.511 19.4542 198.736C21.696 190.784 25.6647 183.681 31.1351 177.442C36.6129 171.21 43.5924 165.841 51.8489 161.415C66.8382 153.347 86.0502 148.392 104.798 148.392C106.691 148.392 108.585 148.443 110.464 148.544C130.953 149.676 150.433 157.076 162.695 167.393C174.956 177.674 180.223 191.009 182.973 201.312C184.344 206.448 185.084 210.83 185.999 214.886C186.913 218.935 188.023 222.664 190.156 226.378C192.274 230.093 195.365 233.714 198.811 237.124C202.258 240.533 206.059 243.726 209.607 246.555C213.046 249.298 216.238 251.692 218.495 253.919C219.627 255.029 220.526 256.103 221.121 257.119C221.716 258.142 222.006 259.1 222.006 260.057C222.006 260.173 222.006 260.29 221.992 260.406C221.919 261.414 221.491 262.56 220.78 263.779C219.721 265.6 218.06 267.545 216.289 269.417C214.519 271.296 212.654 273.102 211.182 274.757C210.028 276.055 209.107 277.26 208.468 278.529C207.822 279.792 207.467 281.134 207.474 282.57C207.474 284.602 208.127 286.778 209.382 289.492C210.906 292.771 213.322 296.856 215.658 301.115C218.001 305.366 220.265 309.792 221.47 313.608C222.144 315.756 222.478 317.715 222.478 319.507C222.478 321.8 221.934 323.802 220.78 325.674C219.627 327.538 217.827 329.272 215.244 330.898H215.252C211.668 333.147 206.509 335.186 201.387 337.783C196.257 340.388 191.114 343.587 187.558 348.339C183.996 353.099 182.182 359.215 181.167 365.955C180.165 372.695 179.977 380.088 179.788 387.438L181.965 387.496L181.986 387.503Z" fill="#4D4C4C"/>
</svg>
