<svg width="440" height="448" viewBox="0 0 440 448" fill="none" xmlns="http://www.w3.org/2000/svg">
<path opacity="0.2" d="M315.278 118.481C340.529 94.1058 341.218 53.8975 316.815 28.673C292.413 3.44857 252.161 2.76 226.909 27.1351C201.657 51.5101 200.969 91.7185 225.371 116.943C249.774 142.167 290.026 142.856 315.278 118.481Z" fill="#7EABE1"/>
<path d="M275.317 133.29C275.009 129.217 274.728 125.15 274.521 120.689C274.454 119.151 274.401 117.573 274.401 116.021C274.401 113.078 274.601 110.229 275.243 107.981C275.738 106.263 276.494 104.845 277.37 103.795C278.253 102.738 279.25 102.062 280.246 101.775H280.253H280.26C280.688 101.641 281.136 101.581 281.577 101.581C282.36 101.581 283.122 101.781 283.751 102.129C284.38 102.477 284.861 102.965 285.136 103.514H285.129C285.356 103.968 285.47 104.537 285.47 105.172C285.477 106.537 284.915 108.189 284.072 109.46H284.079C283.463 110.383 282.748 111.092 281.778 111.66C280.815 112.229 279.571 112.663 277.919 112.944C276.574 113.172 274.969 113.285 273.243 113.285C270.709 113.285 267.913 113.031 265.251 112.53C263.003 112.108 260.863 111.486 259.191 110.697C258.355 110.302 257.639 109.861 257.084 109.393C256.529 108.924 256.148 108.443 255.927 107.961C255.746 107.56 255.66 107.105 255.66 106.617C255.66 105.707 255.981 104.671 256.516 103.768C257.044 102.858 257.786 102.089 258.489 101.674C259.044 101.347 259.579 101.199 260.121 101.199C260.716 101.199 261.331 101.38 261.94 101.775C262.542 102.163 263.144 102.771 263.666 103.594C264.421 104.778 265.023 106.45 265.458 108.597C265.893 110.737 266.167 113.339 266.314 116.362C266.428 118.636 266.475 121.158 266.475 123.706C266.475 127.953 266.354 132.307 266.221 135.838C266.16 137.517 266.1 139.022 266.1 140.38C266.1 141.998 266.18 143.403 266.495 144.654C266.802 145.898 267.378 147.008 268.321 147.851C269.364 148.774 270.729 149.322 272.193 149.663C273.665 150.004 275.263 150.138 276.802 150.138C277.698 150.138 278.574 150.091 279.397 150.011C281.223 149.844 282.768 149.503 284.019 149.135C285.269 148.767 286.232 148.379 286.868 148.118H286.875C287.189 147.985 287.456 147.884 287.737 147.717C287.945 147.597 288.172 147.423 288.353 147.195C288.486 147.021 288.593 146.827 288.66 146.634C288.868 146.052 288.894 145.496 288.955 144.594C289.068 142.487 289.216 138.661 291.918 135.364C293.262 133.698 295.355 132.066 297.656 130.361C299.957 128.655 302.465 126.876 304.632 124.796C308.431 121.158 311.18 116.783 313.046 112.055C314.919 107.326 315.909 102.25 316.217 97.173C316.277 96.2032 316.304 95.2468 316.304 94.297C316.31 81.1811 310.839 70.2724 302.619 62.6878C294.406 55.0965 283.45 50.7959 272.401 50.7959C264.08 50.7959 255.7 53.2438 248.449 58.5812C241.199 63.9185 235.099 72.1318 231.28 83.5622C230.243 86.6656 229.775 90.2171 229.775 93.9024C229.775 98.1295 230.391 102.537 231.487 106.657C232.591 110.777 234.183 114.603 236.169 117.68C238.276 120.923 241.012 123.592 243.6 125.88C246.195 128.167 248.657 130.1 250.195 131.752C251.733 133.397 252.416 134.775 252.817 136.153C253.212 137.537 253.292 138.962 253.492 140.614C253.7 142.273 254.028 144.038 254.529 145.563C254.783 146.326 255.078 147.028 255.452 147.637C255.82 148.239 256.268 148.774 256.897 149.115H256.904H256.91C257.332 149.336 257.793 149.429 258.235 149.429C258.79 149.429 259.311 149.295 259.826 149.108C260.596 148.821 261.358 148.406 262.167 147.951C262.97 147.503 263.819 147.015 264.709 146.593C267.217 145.396 270.254 144.6 273.417 144.6C273.819 144.6 274.227 144.614 274.635 144.64H274.628C276.434 144.767 278.266 145.155 279.771 145.791C281.276 146.426 282.42 147.302 282.968 148.279C283.296 148.861 283.457 149.536 283.457 150.285C283.47 152.044 282.494 154.165 280.768 155.75H280.775C279.551 156.867 277.912 157.77 275.986 158.445C274.059 159.121 271.846 159.562 269.505 159.79C268.314 159.903 267.097 159.97 265.9 159.97C264.127 159.97 262.408 159.83 260.91 159.522C259.418 159.221 258.154 158.746 257.305 158.144H257.298C256.803 157.796 256.429 157.408 256.195 157.027C255.954 156.646 255.847 156.285 255.847 155.97C255.853 155.763 255.894 155.576 255.987 155.375C256.128 155.081 256.395 154.76 256.897 154.452C257.392 154.145 258.128 153.857 259.117 153.67C260.094 153.482 261.331 153.389 262.729 153.389C267.986 153.389 275.39 154.7 280.059 156.445H280.052C282.474 157.348 284.152 158.378 285.182 159.368C285.704 159.863 286.059 160.351 286.279 160.806C286.5 161.268 286.594 161.689 286.6 162.11C286.6 162.478 286.52 162.846 286.366 163.227H286.36C285.938 164.297 284.788 165.481 282.989 166.531C281.203 167.581 278.802 168.504 275.999 169.18C272.849 169.949 269.177 170.404 265.913 170.404C263.385 170.404 261.097 170.123 259.546 169.575C258.609 169.247 257.927 168.805 257.512 168.391C257.305 168.183 257.164 167.983 257.077 167.802C256.99 167.622 256.964 167.474 256.964 167.341C256.964 167.22 256.984 167.107 257.044 166.98C257.131 166.792 257.312 166.558 257.653 166.317C257.994 166.077 258.489 165.836 259.151 165.642H259.158C260.462 165.247 262.448 165.047 264.669 165.047C268.842 165.047 273.886 165.742 277.29 166.866C279.537 167.602 281.069 168.525 281.999 169.454C282.922 170.391 283.269 171.287 283.269 172.17C283.269 172.437 283.236 172.711 283.169 172.986C282.915 174.042 282.099 175.2 280.915 176.236C279.731 177.273 278.2 178.183 276.635 178.818H276.641C274.869 179.534 273.043 179.895 271.411 179.895C270.153 179.895 269.01 179.674 268.093 179.266C267.338 178.938 266.709 178.47 266.294 177.989C265.873 177.507 265.699 177.032 265.706 176.724C265.706 176.597 265.726 176.49 265.772 176.39C265.819 176.283 265.893 176.176 266.027 176.056C266.247 175.842 266.662 175.601 267.19 175.434C267.712 175.26 268.341 175.159 268.976 175.159C269.672 175.159 270.374 175.28 270.983 175.541C271.591 175.801 272.113 176.183 272.508 176.738H272.501L272.835 176.497L272.474 176.684L272.501 176.731L272.835 176.497L272.474 176.684L272.488 176.678H272.474C272.474 176.678 272.534 176.845 272.575 177.046C272.668 177.447 272.769 178.089 272.862 178.918C273.217 182.042 273.524 187.767 273.779 194.669C274.534 215.377 274.842 246.765 274.882 252.283C274.896 254.129 274.902 255.948 274.902 257.747C274.902 266.469 274.681 274.569 273.892 281.504C273.11 288.434 271.745 294.192 269.558 298.192C268.354 300.399 266.896 302.111 265.251 303.523C262.783 305.643 259.873 307.094 256.79 308.445C253.713 309.796 250.469 311.027 247.386 312.779C239.172 317.448 232.638 325.467 228.565 333.185C226.123 337.841 224.531 342.449 224.531 346.95C224.525 349.913 225.234 352.823 226.819 355.578C228.805 359.043 232.116 362.22 236.056 364.982C239.995 367.738 244.583 370.072 249.158 371.777C253.733 373.476 258.228 374.513 262.294 375.75C266.368 376.981 269.986 378.399 272.882 380.753H272.876C275.778 383.121 278.066 386.525 279.618 390.21C281.163 393.889 281.972 397.842 281.972 401.233C281.972 404.624 281.223 407.313 280.246 409.246C279.758 410.209 279.21 410.951 278.708 411.413C278.46 411.647 278.226 411.807 278.032 411.901C277.838 411.995 277.691 412.028 277.584 412.028H277.491C277.397 412.001 277.29 411.961 277.143 411.841C276.875 411.633 276.527 411.165 276.213 410.483C275.732 409.46 275.303 407.988 274.962 406.316C274.621 404.637 274.367 402.751 274.187 400.858C274.026 399.2 273.932 397.548 273.932 395.909C273.932 391.816 274.548 387.803 276.394 383.857C277.691 381.108 279.651 378.312 281.678 375.135C283.704 371.958 285.798 368.393 287.316 364.086C289.483 357.892 290.439 350.281 290.446 342.201C290.446 339.071 290.299 335.867 290.025 332.65C289.022 321.12 286.38 309.515 285.437 293.978C285.062 287.818 284.955 281.009 284.955 274.141C284.955 265.513 285.122 256.778 285.122 249.046C285.122 247.4 285.115 245.802 285.095 244.264C285.008 236.96 284.687 230.914 284.139 226.004C283.597 221.088 282.828 217.309 281.831 214.5C280.855 211.772 279.644 209.946 278.233 208.795C276.835 207.638 275.25 207.223 273.785 207.23C273.705 207.23 273.625 207.23 273.538 207.23H273.531C272.789 207.257 271.966 207.384 271.157 207.792C270.555 208.1 269.979 208.561 269.464 209.19C268.689 210.14 268.047 211.457 267.505 213.31C266.956 215.163 266.515 217.564 266.18 220.707C265.605 226.292 265.385 234.218 265.244 242.444C265.097 250.671 265.03 259.199 264.776 265.914C264.522 272.629 264.074 277.552 263.639 281.244C263.204 284.942 262.776 287.397 262.562 289.25C262.475 289.985 262.415 290.627 262.415 291.236C262.415 291.845 262.475 292.42 262.629 292.982C262.85 293.824 263.271 294.6 263.873 295.416C264.482 296.232 265.278 297.122 266.334 298.252C268.093 300.145 270.588 302.727 273.076 305.984C275.564 309.234 278.046 313.154 279.778 317.702C281.791 322.992 282.815 329.213 282.815 335.607C282.815 340.188 282.293 344.863 281.236 349.351C279.972 354.715 277.945 359.805 275.31 363.811C273.986 365.818 272.521 367.55 270.923 368.915C269.324 370.286 267.605 371.289 265.779 371.864C264.435 372.286 262.997 372.486 261.525 372.486C258.268 372.486 254.83 371.516 251.82 370.005C248.817 368.5 246.249 366.44 244.724 364.393C243.232 362.4 242.657 360.414 242.65 358.167C242.644 354.749 244.095 350.696 246.041 345.8H246.048C247.647 341.74 249.54 337.125 251.051 332.697C252.563 328.263 253.7 324.042 253.74 320.618V320.524C253.74 318.819 253.452 317.334 252.924 316.023C252.135 314.057 250.817 312.532 249.279 311.228C247.74 309.923 245.968 308.82 244.155 307.663C241.727 306.111 239.159 304.439 236.892 302.747C234.631 301.061 232.665 299.342 231.454 297.791C230.103 296.058 229.641 294.533 229.635 293.182C229.635 292.119 229.936 291.149 230.411 290.28H230.404C231.494 288.333 233.434 287.069 235.587 286.755H235.581C235.922 286.708 236.27 286.688 236.617 286.688C237.534 286.688 238.47 286.848 239.313 287.129C240.149 287.41 240.878 287.805 241.4 288.24C241.768 288.554 242.035 288.882 242.202 289.216C242.376 289.557 242.463 289.905 242.463 290.306C242.463 290.821 242.309 291.43 241.935 292.132L241.928 292.146C241.46 293.049 240.597 294.112 239.547 295.028C238.49 295.951 237.24 296.734 236.022 297.162C235.24 297.436 234.457 297.577 233.708 297.577C232.912 297.577 232.163 297.423 231.474 297.102C230.785 296.781 230.156 296.299 229.615 295.61H229.608C228.511 294.246 227.749 291.958 227.755 289.791C227.755 288.761 227.922 287.771 228.264 286.909C228.752 285.671 229.628 284.635 230.799 283.899C231.969 283.163 233.447 282.728 235.126 282.728C235.387 282.728 235.648 282.735 235.915 282.762C237.788 282.909 239.968 283.605 242.202 284.514C244.436 285.424 246.724 286.534 248.891 287.457H248.884C250.717 288.246 252.442 288.895 254.048 289.357C255.646 289.811 257.124 290.086 258.489 290.086C258.977 290.086 259.459 290.052 259.913 289.972C260.662 289.845 261.365 289.611 261.993 289.236C262.943 288.681 263.706 287.825 264.221 286.735C264.736 285.645 265.03 284.32 265.13 282.748C265.157 282.327 265.17 281.886 265.17 281.424C265.17 279.391 264.896 277.05 264.361 274.749C263.819 272.448 263.01 270.188 261.9 268.315C260.649 266.235 259.044 264.723 257.365 263.667C255.68 262.61 253.927 262.008 252.335 261.734C251.666 261.613 251.024 261.553 250.389 261.553C249.212 261.553 248.081 261.767 246.978 262.195C245.874 262.623 244.791 263.252 243.654 264.068C242.222 265.098 240.664 266.456 239.36 268.007C238.069 269.566 237.012 271.311 236.671 273.197C236.597 273.632 236.564 274.06 236.564 274.482C236.564 276.127 237.072 277.652 237.681 278.956C238.29 280.254 239.025 281.344 239.527 282.073C239.815 282.488 240.042 282.815 240.276 283.09C240.396 283.23 240.517 283.357 240.697 283.484C240.784 283.544 240.885 283.611 241.018 283.658C241.146 283.712 241.306 283.745 241.48 283.745C241.654 283.745 241.834 283.705 241.988 283.638C242.249 283.518 242.41 283.344 242.523 283.203C242.691 282.983 242.784 282.775 242.885 282.548C242.985 282.314 243.085 282.06 243.192 281.759C243.754 280.227 244.697 277.398 244.704 274.508C244.704 273.913 244.664 273.311 244.563 272.723C244.269 270.977 243.487 269.365 242.263 268.068C241.045 266.77 239.387 265.787 237.387 265.258C236.163 264.931 234.818 264.77 233.4 264.77C230.176 264.77 226.571 265.579 223.16 267.198H223.167C218.244 269.519 213.683 273.552 211.322 279.551C209.824 283.357 209.215 287.852 209.215 292.166C209.215 294.627 209.416 297.028 209.77 299.209C210.252 302.212 211.027 304.807 212.118 306.92C213.208 309.027 214.633 310.659 216.418 311.649H216.412C218.325 312.706 220.478 312.933 222.578 312.94C224.391 312.94 226.177 312.759 227.782 312.706C228.424 312.679 229.053 312.672 229.655 312.672C230.444 312.672 231.207 312.686 231.929 312.686C232.785 312.686 233.594 312.672 234.357 312.592C235.113 312.512 235.835 312.371 236.504 312.097C237.681 311.615 238.504 310.773 239.079 309.957C239.654 309.141 240.002 308.318 240.229 307.796V307.783C240.343 307.516 240.43 307.301 240.49 307.141C240.524 307.061 240.55 306.994 240.57 306.927L240.61 306.813L240.631 306.72C240.637 306.679 240.644 306.626 240.651 306.519C240.644 306.439 240.657 306.325 240.557 306.091C240.503 305.977 240.403 305.823 240.229 305.696C240.055 305.569 239.821 305.502 239.641 305.509C239.42 305.509 239.279 305.576 239.186 305.616C239.012 305.71 238.965 305.77 238.918 305.81C238.845 305.89 238.825 305.924 238.798 305.957C238.724 306.064 238.691 306.131 238.631 306.238C238.57 306.345 238.497 306.479 238.417 306.639H238.41C238.169 307.114 237.835 307.79 237.367 308.418C236.898 309.047 236.316 309.602 235.654 309.876H235.661C235.133 310.097 234.404 310.191 233.641 310.191C232.464 310.191 231.227 309.977 230.35 309.85L230.203 310.84L230.364 309.85C229.996 309.79 229.728 309.749 229.588 309.716L229.488 309.689H229.481L229.381 309.89L229.554 309.749L229.481 309.689L229.381 309.89L229.554 309.749L229.421 309.856L229.568 309.769L229.554 309.749L229.421 309.856L229.568 309.769L229.561 309.776H229.568C229.568 309.776 229.534 309.676 229.501 309.502C229.474 309.328 229.447 309.067 229.421 308.726C229.361 307.816 229.32 306.372 229.2 304.432C229.073 302.493 228.872 300.058 228.464 297.128C228.063 294.212 227.481 290.801 226.759 287.544C226.043 284.28 225.2 281.163 224.251 278.789C223.321 276.428 222.284 274.809 221.134 273.686C219.983 272.555 218.726 271.953 217.509 271.586C216.458 271.258 215.362 271.064 214.278 271.064C212.847 271.064 211.415 271.398 210.185 272.221C209.108 272.95 208.258 274 207.456 275.418C206.647 276.843 205.864 278.655 204.921 281.03C203.015 285.798 200.379 292.948 199.002 302.606C198.44 306.506 198.072 310.813 198.072 315.22C198.072 321.735 198.868 328.47 201.021 334.43C202.834 339.426 205.583 343.78 208.379 347.739C211.181 351.699 214.037 355.264 216.091 358.635C218.151 361.999 219.462 365.196 220.338 368.814C221.221 372.433 221.662 376.493 221.95 381.509C222.291 387.408 222.404 394.638 222.445 402.383C222.451 403.968 222.451 405.574 222.451 407.199C222.451 411.118 222.438 415.118 222.425 419.118H223.428L223.194 418.148C212.586 420.723 202.359 421.967 192.594 421.967C167.606 421.967 145.648 413.847 128.01 399.066C110.373 384.278 97.0562 362.802 89.4781 336.041C87.5519 329.233 86.7091 322.738 86.7091 316.652C86.7091 306.706 88.9565 297.857 92.3876 290.527C95.8121 283.197 100.42 277.391 105.109 273.559C110.507 269.158 115.998 267.338 120.807 267.338C126.927 267.338 131.923 270.275 134.311 274.682C135.414 276.729 135.983 279.123 135.983 281.672C135.983 288.955 131.341 297.369 121.824 301.69H121.83C116.814 303.964 110.373 305.114 103.597 305.114C92.9896 305.114 81.5657 302.285 73.4526 296.807C67.7808 292.975 63.6674 287.852 60.9452 281.745C58.223 275.639 56.9054 268.549 56.9054 260.851C56.9054 258.189 57.0659 255.46 57.3736 252.671C58.4303 243.207 61.2529 233.041 64.1824 222.64C67.1053 212.233 70.1351 201.585 71.5732 191.104C72.1818 186.657 72.5029 182.236 72.5029 177.942C72.5029 169.969 71.4059 162.398 69.0048 155.743C66.6103 149.088 62.9049 143.336 57.6946 139.082C51.073 133.678 42.1774 130.775 32.2116 129.05C22.2324 127.324 11.1497 126.796 0.100327 126.254L0 128.261C11.0493 128.802 22.0652 129.337 31.8638 131.03C41.6691 132.722 50.2303 135.578 56.4238 140.641C61.3064 144.627 64.8178 150.045 67.1186 156.432C69.4195 162.813 70.4963 170.163 70.4963 177.955C70.4963 182.155 70.182 186.476 69.5867 190.844C68.1754 201.137 65.179 211.705 62.2495 222.112C59.3199 232.519 56.4639 242.765 55.3804 252.464C55.0661 255.319 54.8988 258.129 54.8988 260.864C54.8988 268.79 56.2499 276.16 59.1126 282.581C61.9685 288.995 66.3428 294.446 72.3289 298.493C80.9035 304.265 92.6351 307.141 103.597 307.141C110.6 307.141 117.289 305.964 122.653 303.543H122.673H122.66C132.853 298.908 137.99 289.811 137.99 281.698C137.99 278.856 137.354 276.12 136.07 273.753C133.301 268.629 127.562 265.352 120.807 265.359C115.49 265.359 109.544 267.372 103.845 272.034C98.8888 276.087 94.1133 282.12 90.5684 289.704C87.0168 297.289 84.7026 306.432 84.7026 316.679C84.7026 322.946 85.5721 329.627 87.5452 336.61C95.2102 363.691 108.728 385.542 126.719 400.624C144.711 415.713 167.171 424 192.594 424C202.526 424 212.914 422.736 223.662 420.128L224.431 419.94V419.158C224.444 415.165 224.458 411.158 224.458 407.232C224.458 405.607 224.458 403.995 224.451 402.41C224.411 394.645 224.297 387.395 223.956 381.429C223.662 376.359 223.214 372.185 222.291 368.38C221.368 364.574 219.963 361.143 217.796 357.625H217.803C215.642 354.093 212.773 350.515 210.017 346.622C207.262 342.73 204.627 338.523 202.908 333.787C200.861 328.142 200.078 321.615 200.078 315.267C200.078 310.967 200.433 306.753 200.988 302.934C202.339 293.483 204.901 286.527 206.787 281.819C207.717 279.471 208.479 277.719 209.201 276.455C209.924 275.184 210.579 274.428 211.302 273.933C212.138 273.378 213.154 273.117 214.278 273.117C215.127 273.117 216.03 273.271 216.907 273.545H216.913C217.937 273.86 218.833 274.294 219.722 275.164C220.612 276.033 221.515 277.384 222.384 279.578C223.261 281.779 224.09 284.822 224.792 288.019C225.501 291.223 226.076 294.58 226.471 297.449C226.866 300.319 227.066 302.7 227.187 304.606C227.307 306.512 227.347 307.923 227.414 308.913C227.448 309.402 227.488 309.79 227.575 310.157C227.635 310.432 227.735 310.699 227.916 310.96C228.043 311.154 228.23 311.321 228.417 311.442C228.705 311.622 228.979 311.696 229.233 311.749C229.494 311.803 229.748 311.836 230.036 311.883H230.049C230.885 312.003 232.23 312.251 233.634 312.251C234.557 312.251 235.521 312.151 236.417 311.783H236.424C237.561 311.301 238.377 310.472 238.972 309.669C239.56 308.873 239.955 308.071 240.189 307.616C240.289 307.429 240.37 307.281 240.41 307.201L240.437 307.154V307.141L239.922 306.813L240.403 307.201L240.443 307.148L239.922 306.82L240.403 307.208L239.674 306.619L240.289 307.322C240.363 307.261 240.383 307.228 240.403 307.208L239.674 306.619L240.289 307.322L239.641 306.579L240.116 307.442C240.209 307.388 240.256 307.348 240.289 307.322L239.641 306.579L240.116 307.442L239.634 306.566V307.562C239.888 307.562 240.029 307.482 240.116 307.435L239.634 306.559L239.052 307.375C239.226 307.502 239.46 307.569 239.634 307.562V306.559L238.778 307.074C238.831 307.168 238.925 307.281 239.052 307.375L239.634 306.559L238.651 306.74C238.664 306.82 238.691 306.927 238.778 307.074L239.634 306.559L238.651 306.74L239.621 306.566H238.637C238.637 306.613 238.637 306.666 238.651 306.74L239.621 306.566H239.58L238.651 306.385C238.651 306.385 238.637 306.459 238.637 306.566H239.58L238.651 306.385L239.293 306.506L238.671 306.312L238.651 306.385L239.293 306.506L238.671 306.312V306.325C238.637 306.412 238.53 306.679 238.37 307.047L239.3 307.435L238.377 307.034C238.149 307.556 237.855 308.231 237.427 308.846C236.992 309.462 236.45 309.99 235.735 310.284C235.313 310.458 234.778 310.572 234.136 310.639C233.494 310.706 232.745 310.719 231.915 310.719C231.213 310.719 230.451 310.706 229.641 310.706C229.019 310.706 228.371 310.713 227.695 310.739C226.003 310.806 224.244 310.973 222.565 310.973C220.612 310.973 218.806 310.733 217.375 309.937C216.024 309.194 214.853 307.903 213.89 306.044C212.927 304.191 212.198 301.79 211.736 298.934C211.402 296.868 211.208 294.567 211.208 292.213C211.208 288.086 211.803 283.799 213.174 280.334C215.328 274.883 219.448 271.218 224.01 269.064C227.153 267.573 230.504 266.83 233.387 266.83C234.658 266.83 235.835 266.971 236.858 267.252H236.865C238.537 267.693 239.841 268.489 240.791 269.492C241.741 270.502 242.336 271.733 242.577 273.104H242.57C242.65 273.565 242.684 274.06 242.684 274.562C242.691 277.01 241.834 279.679 241.293 281.123C241.139 281.565 241.012 281.879 240.945 281.993L240.918 282.039L241.286 282.3L241.032 281.932C240.945 281.999 240.918 282.039 240.918 282.039L241.286 282.3L241.032 281.932L241.467 282.561V281.805C241.293 281.805 241.119 281.872 241.032 281.939L241.467 282.568V282.541L241.734 281.852C241.674 281.825 241.58 281.805 241.467 281.805V282.541L241.734 281.852L241.54 282.354L241.841 281.912L241.734 281.859L241.54 282.361L241.841 281.919L241.694 282.133L241.855 281.932L241.841 281.919L241.694 282.133L241.855 281.932C241.855 281.932 241.748 281.825 241.627 281.665C241.507 281.504 241.353 281.284 241.166 281.01C240.677 280.301 240.015 279.304 239.48 278.174C238.945 277.043 238.557 275.779 238.557 274.555C238.557 274.241 238.584 273.927 238.637 273.619C238.865 272.261 239.728 270.756 240.891 269.365C242.048 267.974 243.5 266.71 244.811 265.767C245.854 265.018 246.791 264.483 247.687 264.135C248.583 263.794 249.439 263.626 250.376 263.626C250.877 263.626 251.406 263.673 251.981 263.774C253.332 264.008 254.844 264.529 256.282 265.426C257.72 266.329 259.084 267.613 260.168 269.405H260.161C261.131 271.024 261.886 273.117 262.395 275.271C262.896 277.425 263.151 279.632 263.151 281.484C263.151 281.906 263.137 282.3 263.117 282.682H263.11C262.997 284.554 262.575 285.825 261.987 286.628C261.693 287.036 261.358 287.337 260.963 287.564C260.569 287.798 260.114 287.959 259.566 288.052H259.572C259.231 288.106 258.87 288.139 258.475 288.139C257.385 288.139 256.068 287.919 254.583 287.491C253.098 287.069 251.446 286.447 249.667 285.678C247.56 284.782 245.259 283.665 242.945 282.722C240.631 281.779 238.296 281.003 236.056 280.822C235.741 280.795 235.427 280.782 235.113 280.782C233.086 280.782 231.233 281.31 229.722 282.26C228.203 283.21 227.033 284.581 226.384 286.233C225.929 287.377 225.735 288.614 225.735 289.852C225.735 292.46 226.578 295.089 228.029 296.914H228.023C228.759 297.837 229.641 298.526 230.618 298.974C231.588 299.423 232.638 299.637 233.695 299.637C234.691 299.637 235.694 299.449 236.671 299.108C238.203 298.566 239.634 297.657 240.851 296.593C242.069 295.53 243.065 294.326 243.694 293.129L242.804 292.661L243.687 293.135C244.189 292.206 244.456 291.269 244.456 290.36C244.456 289.658 244.289 288.975 243.981 288.36C243.667 287.745 243.219 287.21 242.671 286.748C241.915 286.113 240.972 285.618 239.935 285.27C238.892 284.922 237.755 284.728 236.604 284.728C236.163 284.728 235.728 284.755 235.286 284.815C232.544 285.216 230.049 286.835 228.638 289.357V289.363C228.029 290.48 227.622 291.791 227.622 293.229C227.622 295.062 228.29 297.068 229.869 299.068C231.273 300.867 233.347 302.646 235.688 304.399C238.022 306.144 240.624 307.843 243.065 309.402C245.506 310.953 247.714 312.338 249.245 314.017C250.021 314.859 250.63 315.762 251.051 316.819C251.479 317.876 251.72 319.093 251.727 320.571V320.651C251.707 323.634 250.636 327.754 249.145 332.095C247.66 336.443 245.781 341.031 244.169 345.111C242.222 350.033 240.644 354.24 240.631 358.22C240.624 360.828 241.36 363.33 243.099 365.651C244.884 368.025 247.667 370.219 250.911 371.851C254.148 373.476 257.86 374.546 261.512 374.546C263.164 374.546 264.803 374.326 266.368 373.837C268.495 373.168 270.448 372.011 272.213 370.5C274.869 368.226 277.109 365.142 278.942 361.598C280.775 358.053 282.193 354.033 283.176 349.866C284.266 345.225 284.808 340.402 284.808 335.667C284.808 329.065 283.758 322.618 281.644 317.053C279.811 312.271 277.223 308.191 274.655 304.827C272.086 301.469 269.531 298.827 267.786 296.948C266.388 295.456 265.518 294.446 265.037 293.637C264.796 293.236 264.649 292.888 264.548 292.527C264.455 292.166 264.408 291.778 264.408 291.296C264.408 290.815 264.455 290.239 264.542 289.544C264.742 287.785 265.177 285.277 265.619 281.538C266.06 277.792 266.508 272.81 266.769 266.048C267.023 259.286 267.09 250.758 267.237 242.538C267.378 234.325 267.605 226.419 268.167 220.968C268.729 215.524 269.672 212.514 270.648 211.009C271.13 210.253 271.598 209.865 272.06 209.625C272.514 209.39 273.009 209.297 273.591 209.277H273.585C273.645 209.277 273.712 209.277 273.772 209.277C274.896 209.283 275.919 209.551 276.956 210.387C277.979 211.223 279.029 212.708 279.932 215.216C280.848 217.791 281.597 221.45 282.132 226.265C282.667 231.088 282.989 237.074 283.076 244.33C283.096 245.862 283.102 247.454 283.102 249.093C283.102 256.798 282.935 265.539 282.935 274.187C282.935 281.083 283.042 287.919 283.417 294.145C284.373 309.85 287.035 321.534 288.012 332.864C288.279 336.028 288.426 339.172 288.426 342.241C288.426 350.161 287.47 357.578 285.41 363.464C283.965 367.55 281.972 370.968 279.972 374.098C277.979 377.228 275.972 380.071 274.568 383.047H274.561C272.561 387.314 271.906 391.655 271.912 395.949C271.912 397.668 272.013 399.387 272.18 401.086C272.461 404.055 272.922 407.018 273.631 409.366C273.986 410.536 274.401 411.56 274.936 412.376C275.203 412.784 275.504 413.145 275.865 413.439C276.227 413.733 276.661 413.954 277.15 414.034C277.29 414.055 277.437 414.068 277.578 414.068C278.046 414.068 278.494 413.941 278.909 413.74C279.631 413.386 280.266 412.804 280.862 412.055C281.738 410.931 282.507 409.413 283.062 407.58C283.624 405.754 283.972 403.614 283.972 401.266C283.972 397.568 283.109 393.394 281.457 389.468C279.805 385.549 277.364 381.877 274.14 379.235C270.909 376.606 267.023 375.122 262.87 373.864C258.709 372.607 254.268 371.577 249.854 369.931C245.426 368.279 240.978 366.019 237.199 363.37C233.42 360.728 230.317 357.705 228.551 354.615C227.14 352.16 226.531 349.632 226.531 346.984C226.525 342.964 227.976 338.643 230.33 334.155C234.256 326.704 240.617 318.953 248.369 314.558C252.242 312.358 256.596 310.933 260.703 308.873C262.749 307.843 264.736 306.639 266.548 305.088C268.361 303.536 269.993 301.623 271.317 299.195C273.705 294.801 275.076 288.835 275.879 281.772C276.681 274.709 276.902 266.543 276.902 257.787C276.902 255.982 276.895 254.156 276.882 252.31C276.849 248.203 276.675 229.83 276.273 212.146C276.073 203.304 275.818 194.636 275.497 188.001C275.33 184.684 275.156 181.875 274.956 179.794C274.855 178.751 274.755 177.895 274.641 177.226C274.581 176.892 274.521 176.604 274.454 176.357C274.421 176.23 274.38 176.109 274.334 175.995C274.287 175.875 274.233 175.761 274.14 175.621H274.133C273.504 174.731 272.655 174.116 271.752 173.735C270.849 173.354 269.893 173.2 268.97 173.2C268.12 173.2 267.297 173.333 266.562 173.574C265.826 173.815 265.17 174.156 264.649 174.638H264.655C264.341 174.919 264.094 175.26 263.933 175.628C263.766 175.995 263.692 176.39 263.692 176.778C263.699 177.741 264.134 178.611 264.769 179.353C265.405 180.095 266.274 180.717 267.284 181.166H267.277C268.515 181.714 269.926 181.961 271.411 181.961C273.337 181.961 275.397 181.54 277.39 180.737C279.149 180.022 280.848 179.019 282.233 177.808C283.617 176.591 284.707 175.166 285.115 173.527C285.222 173.099 285.276 172.665 285.276 172.223C285.283 170.765 284.647 169.307 283.41 168.083C282.179 166.852 280.373 165.822 277.912 165.013C274.213 163.803 269.07 163.1 264.669 163.094C262.328 163.094 260.214 163.288 258.582 163.769H258.589C257.485 164.09 256.609 164.552 255.974 165.16C255.653 165.468 255.399 165.809 255.225 166.19C255.044 166.572 254.957 166.98 254.957 167.394C254.957 167.856 255.071 168.304 255.265 168.718C255.566 169.341 256.041 169.882 256.649 170.35C257.265 170.819 258.007 171.207 258.877 171.514C260.79 172.183 263.238 172.457 265.913 172.457C269.357 172.457 273.156 171.989 276.474 171.18C279.417 170.471 281.985 169.494 284.005 168.311C286.018 167.12 287.523 165.729 288.219 164.043C288.466 163.448 288.607 162.806 288.607 162.157C288.607 161.421 288.426 160.679 288.085 159.97C287.563 158.913 286.687 157.937 285.477 157.047C284.259 156.151 282.701 155.342 280.761 154.606C275.778 152.753 268.307 151.429 262.729 151.422C261.244 151.422 259.893 151.516 258.736 151.737C257.178 152.038 255.994 152.553 255.144 153.288C254.723 153.656 254.395 154.078 254.175 154.546C253.954 155.007 253.84 155.509 253.84 156.004C253.847 156.76 254.088 157.482 254.496 158.131C254.904 158.773 255.466 159.348 256.154 159.823C257.345 160.652 258.843 161.181 260.509 161.522C262.181 161.863 264.02 162.003 265.9 162.01C267.164 162.01 268.448 161.943 269.699 161.823C272.173 161.582 274.528 161.114 276.648 160.371C278.761 159.629 280.641 158.619 282.126 157.261H282.132C284.213 155.328 285.457 152.78 285.463 150.319C285.47 149.275 285.229 148.245 284.714 147.329C283.838 145.791 282.306 144.721 280.547 143.978C278.788 143.236 276.762 142.814 274.768 142.674C274.314 142.641 273.865 142.627 273.417 142.627C269.919 142.627 266.608 143.49 263.839 144.814C262.542 145.436 261.398 146.132 260.428 146.647C259.94 146.908 259.505 147.115 259.131 147.256C258.75 147.396 258.449 147.456 258.235 147.456C258.061 147.456 257.947 147.429 257.833 147.369L257.372 148.259L257.847 147.376C257.679 147.289 257.419 147.042 257.164 146.62C256.776 145.991 256.409 145.015 256.128 143.911C255.847 142.808 255.633 141.577 255.486 140.4C255.292 138.848 255.218 137.297 254.75 135.638C254.275 133.979 253.385 132.247 251.66 130.414C249.934 128.582 247.466 126.662 244.931 124.415C242.396 122.174 239.801 119.619 237.848 116.623C236.002 113.787 234.477 110.128 233.42 106.176C232.364 102.223 231.775 97.9756 231.775 93.9426C231.775 90.4245 232.223 87.0736 233.18 84.2377C236.885 73.135 242.744 65.3097 249.633 60.2399C256.522 55.1701 264.462 52.8425 272.394 52.8425C282.922 52.8425 293.416 56.9559 301.255 64.2061C309.094 71.4563 314.29 81.7965 314.29 94.3439C314.29 95.2535 314.264 96.1698 314.21 97.0995C313.909 101.995 312.953 106.871 311.174 111.366C309.395 115.86 306.806 119.98 303.234 123.391C301.215 125.331 298.78 127.077 296.459 128.796C294.138 130.515 291.931 132.207 290.353 134.14C287.176 138.006 287.055 142.447 286.941 144.52C286.908 145.028 286.875 145.41 286.841 145.657C286.814 145.844 286.781 145.951 286.768 145.985V146.005L286.801 146.032L286.768 145.991V146.005L286.801 146.032L286.768 145.991C286.768 145.991 286.727 146.025 286.62 146.078C286.507 146.132 286.333 146.205 286.099 146.299H286.105C285.47 146.553 284.594 146.908 283.443 147.249C282.3 147.583 280.882 147.898 279.203 148.051C278.447 148.125 277.631 148.165 276.802 148.165C275.384 148.165 273.919 148.038 272.655 147.744C271.377 147.449 270.314 146.981 269.652 146.386C269.056 145.851 268.682 145.182 268.434 144.199C268.187 143.222 268.093 141.958 268.1 140.413C268.1 139.116 268.16 137.631 268.22 135.946C268.347 132.401 268.475 128.026 268.475 123.739C268.475 121.164 268.428 118.616 268.314 116.295C268.16 113.212 267.886 110.523 267.418 108.229C266.95 105.941 266.301 104.042 265.351 102.55C264.696 101.52 263.906 100.698 263.017 100.123C262.127 99.5474 261.131 99.2264 260.114 99.2331C259.198 99.2331 258.281 99.4939 257.445 99.9955C256.389 100.638 255.466 101.634 254.783 102.791C254.101 103.955 253.646 105.293 253.646 106.657C253.646 107.386 253.78 108.129 254.094 108.824C254.469 109.654 255.064 110.356 255.787 110.964C256.877 111.874 258.261 112.59 259.813 113.172C261.371 113.753 263.097 114.202 264.87 114.536C267.659 115.064 270.568 115.325 273.237 115.332C275.056 115.332 276.762 115.212 278.246 114.957C280.066 114.65 281.557 114.155 282.795 113.426C284.025 112.697 284.995 111.74 285.744 110.597C286.767 109.018 287.463 107.085 287.47 105.206C287.47 104.33 287.316 103.46 286.928 102.664H286.921C286.44 101.688 285.651 100.925 284.714 100.41C283.778 99.8885 282.694 99.6076 281.571 99.6076C280.935 99.6076 280.293 99.6945 279.664 99.8885H279.678C278.226 100.317 276.909 101.246 275.825 102.544C274.742 103.841 273.872 105.513 273.304 107.466C272.581 110.035 272.394 113.031 272.387 116.061C272.387 117.66 272.441 119.265 272.508 120.81C272.722 125.304 273.003 129.391 273.31 133.471L275.31 133.324L275.317 133.29Z" fill="#4D4C4C"/>
</svg>
