<svg width="204" height="594" viewBox="0 0 204 594" fill="none" xmlns="http://www.w3.org/2000/svg">
<path opacity="0.5" d="M-234.085 157.034C-228.461 192.942 -215.771 228.168 -196.549 260.741C-169.432 306.692 -131.402 343.845 -86.5661 368.184C-80.4525 371.501 -74.0833 374.676 -67.9209 377.744C-52.5657 385.393 -36.7827 393.253 -23.5472 404.084C-34.6528 419.318 -42.9901 436.494 -47.6285 454.596C-51.17 468.449 -57.0773 503.102 -35.3927 525.718C-35.2434 525.878 -35.087 526.036 -34.9317 526.187C-29.7209 543.396 -20.4121 558.43 -7.99455 568.987C14.4366 588.059 47.1849 591.53 69.8758 577.243C76.9646 572.778 82.9796 566.641 87.6095 559.457C88.3776 560.206 89.1649 560.938 89.9572 561.654C87.8668 564.882 85.6609 568.026 83.2666 570.995C72.5798 584.235 54.5739 594.866 38.4467 588.777C37.6231 588.468 36.708 588.882 36.3971 589.698C36.0872 590.521 36.501 591.435 37.3174 591.746C54.9357 598.39 74.3257 587.118 85.7363 572.99C88.1185 570.038 90.3075 566.926 92.3843 563.751C98.9664 569.172 106.388 573.417 114.381 576.125C135.917 583.413 159.546 577.914 171.848 562.755C178.835 554.142 181.379 541.578 178.465 529.971C177.685 526.864 176.545 523.973 175.09 521.359C178.511 518.032 181.665 514.454 184.515 510.662C201.038 488.645 207.462 458.975 201.994 429.15C196.584 399.367 180.177 373.799 156.966 358.992C155.528 358.077 154.067 357.195 152.588 356.346C152.361 349.104 150.085 342.139 145.952 336.714C138.973 327.541 127.441 322.172 115.232 321.308C111.216 315.09 105.764 310.018 98.6816 307.007C78.6401 298.477 55.6515 308.529 28.4046 337.756C17.367 349.597 5.80337 363.589 -0.207118 378.486C-8.09138 385.435 -15.2958 393.176 -21.6632 401.545C-35.1299 390.546 -51.0322 382.625 -66.5139 374.915C-72.6455 371.856 -78.99 368.7 -85.0563 365.405C-175.062 316.554 -235.009 214.96 -234.23 112.595C-233.952 76.8287 -225.955 50.5214 -209.778 32.1833C-188.707 8.30013 -150.637 -1.96601 -112.799 6.03454C-66.5446 15.8077 -27.7143 49.4748 -13.8672 91.8042C0.674041 136.232 -14.6947 187.886 -50.4007 214.602C-87.8537 242.629 -143.832 239.216 -175.174 206.999C-190.906 190.831 -199.241 167.491 -198.038 142.956C-196.913 119.932 -187.195 99.0542 -171.38 85.6902C-149.023 66.7934 -115.862 63.1415 -92.5279 77.0086C-67.5486 91.8528 -57.4377 125.875 -70.8947 149.815C-77.6946 161.913 -90.8886 170.351 -106.196 172.391C-120.307 174.272 -133.413 170.245 -142.155 161.356C-151.392 151.959 -154.741 138.141 -150.308 127.743C-147.868 122.027 -142.367 117.278 -135.955 115.353C-130.397 113.679 -125.005 114.303 -120.773 117.089C-115.285 120.709 -113.803 127.886 -114.774 133.401C-115.793 139.179 -119.226 143.312 -123.954 144.454C-124.806 144.661 -125.324 145.509 -125.123 146.369C-124.917 147.221 -124.06 147.744 -123.207 147.538C-117.203 146.093 -112.881 141.01 -111.639 133.947C-110.257 126.103 -113.226 118.26 -119.016 114.439C-124.048 111.121 -130.39 110.361 -136.864 112.31C-144.266 114.536 -150.376 119.833 -153.224 126.49C-158.15 138.039 -154.527 153.283 -144.418 163.573C-134.971 173.185 -120.885 177.541 -105.771 175.524C-89.4824 173.353 -75.4084 164.325 -68.1225 151.361C-53.853 125.978 -64.4963 89.9572 -90.902 74.2696C-115.364 59.7389 -150.07 63.5159 -173.428 83.2564C-189.915 97.1931 -200.037 118.894 -201.208 142.795C-202.457 168.199 -193.796 192.409 -177.447 209.204C-161.706 225.385 -139.44 235.043 -114.762 236.388C-90.4062 237.724 -66.871 230.882 -48.4909 217.131C-11.7236 189.627 4.10761 136.49 -10.8428 90.8045C-25.0381 47.419 -64.7961 12.918 -112.14 2.91361C-151.081 -5.31604 -190.348 5.34209 -212.164 30.0726C-228.875 49.0133 -237.132 75.9969 -237.409 112.559C-237.526 127.41 -236.403 142.279 -234.092 157.035L-234.085 157.034ZM-36.7981 519.172C-52.9446 497.786 -47.7398 467.846 -44.5506 455.386C-42.145 446 -38.7275 436.864 -34.4268 428.139C-37.2445 437.275 -37.2323 447.298 -34.7053 456.569C-38.1464 469.99 -39.7821 482.704 -39.6643 494.895C-39.583 503.212 -38.6034 511.381 -36.7981 519.172ZM-32.1261 524.491C-34.8779 515.138 -36.3868 505.13 -36.488 494.865C-36.5853 484.439 -35.372 473.603 -32.8006 462.24C-29.5832 470.271 -24.3522 477.43 -17.3392 482.521C-9.41939 488.266 0.179583 491.052 9.81046 491.1C11.4722 501.149 16.7672 511.192 23.9154 519.528C20.3339 526.635 13.3122 531.761 4.17125 533.814C-8.83375 536.735 -23.2253 532.997 -32.125 524.498L-32.1261 524.491ZM85.3389 557.146C80.9004 564.198 75.0801 570.224 68.1838 574.563C46.6296 588.124 15.4574 584.772 -5.93721 566.575C-16.727 557.4 -25.0779 544.7 -30.3051 530.095C-20.688 536.918 -7.33992 539.643 4.86034 536.906C14.4965 534.747 22.0225 529.432 26.1733 522.038C27.7436 523.707 29.3955 525.289 31.0993 526.783C44.2217 538.246 60.7231 545.883 78.7111 549.145C80.7545 551.967 82.9728 554.645 85.34 557.153L85.3389 557.146ZM-16.9176 409.994C-18.0413 412.157 -18.957 414.062 -19.6802 415.607C-25.2654 427.617 -29.6617 439.047 -32.8894 450.001C-34.4913 439.306 -32.5901 428.1 -26.719 418.989C-24.2895 415.218 -21.2672 411.917 -17.8306 409.114C-17.5294 409.403 -17.22 409.698 -16.9176 409.994ZM9.38986 487.76C0.491047 487.671 -8.3218 485.142 -15.4751 479.949C-23.2794 474.289 -28.713 465.882 -31.43 456.611C-28.1618 444.095 -23.2992 430.926 -16.7953 416.938C-16.1994 415.654 -15.4548 414.105 -14.5656 412.358C-14.4869 412.441 -14.407 412.531 -14.3211 412.612C-0.273378 427.415 8.3942 446.619 15.3852 465.296C14.8795 465.989 14.4007 466.714 13.9468 467.457C10.1182 473.734 8.81026 480.698 9.39477 487.745L9.38986 487.76ZM-20.1859 406.962C-21.7403 408.243 -23.2054 409.627 -24.5825 411.107C-23.4625 409.433 -22.3034 407.776 -21.1185 406.144C-20.8053 406.416 -20.492 406.688 -20.1848 406.969L-20.1859 406.962ZM-17.6281 404.991C-18.1556 404.518 -18.6901 404.046 -19.2236 403.582C-14.1317 396.873 -8.48676 390.567 -2.37531 384.766C-2.7172 385.945 -3.01401 387.131 -3.27403 388.319C-6.74571 392.859 -9.74608 397.421 -12.2547 401.621C-14.1152 402.628 -15.9198 403.758 -17.6342 404.999L-17.6281 404.991ZM17.6963 462.45C10.7087 444.028 1.98275 425.198 -12.0204 410.447C-12.353 410.097 -12.6846 409.755 -13.0161 409.412C-12.0989 407.705 -11.0831 405.88 -9.94995 403.963C-8.11733 403.011 -6.23002 402.175 -4.28693 401.462C-4.02687 405.177 -3.26806 408.901 -1.9391 412.624C4.48158 430.601 21.5809 440.235 38.4694 449.317C30.5765 452.475 23.1869 456.373 17.7034 462.448L17.6963 462.45ZM-4.40147 398.162C-5.26797 398.466 -6.13223 398.784 -6.98489 399.13C-6.12711 397.79 -5.22163 396.427 -4.2733 395.059C-4.35357 396.087 -4.39592 397.124 -4.40259 398.155L-4.40147 398.162ZM42.373 447.815C42.1013 447.667 41.8307 447.527 41.559 447.379C23.9141 437.904 7.2511 428.955 1.03846 411.558C-0.28001 407.856 -0.987766 404.131 -1.16597 400.425C10.2686 397.048 22.9441 397.767 33.6111 403.403C43.2099 408.475 50.3228 416.305 56.899 425.19C56.9966 431.276 56.8664 437.215 56.21 442.922C54.0512 443.706 51.8666 444.465 49.7236 445.209C47.2756 446.06 44.8132 446.914 42.3719 447.807L42.373 447.815ZM25.2701 516.225C19.0879 508.688 14.521 499.839 12.9789 491.02C16.6167 490.808 20.2309 490.213 23.736 489.247C26.5726 498.674 28.0583 507.787 25.2701 516.225ZM22.732 486.058C19.414 486.958 15.9831 487.51 12.5392 487.698C11.9775 481.217 13.1596 474.851 16.6441 469.132C16.6731 469.084 16.7032 469.042 16.7251 468.995C18.1439 472.872 19.4979 476.708 20.8182 480.469C21.4766 482.338 22.1197 484.203 22.7248 486.059L22.732 486.058ZM56.7648 419.804C50.7075 412.131 43.8491 405.226 35.0951 400.598C23.9721 394.712 10.7909 393.847 -1.19417 397.163C-1.11336 394.644 -0.805688 392.126 -0.291467 389.62C11.8676 373.921 29.7435 358.911 52.3929 362.335C54.9392 362.718 57.4569 363.339 59.9527 364.146C58.7274 368.043 57.7916 372.106 57.1691 376.302C55.4682 387.806 55.9732 399.995 56.4606 411.793C56.5681 414.487 56.6794 417.158 56.7648 419.804ZM7.57851 376.09C5.56165 378.014 3.6472 380.03 1.83447 382.09C2.04221 381.502 2.25821 380.92 2.4896 380.343C4.15615 378.891 5.85686 377.47 7.58564 376.089L7.57851 376.09ZM25.795 485.118C25.1378 483.117 24.4584 481.206 23.8254 479.406C22.2612 474.974 20.6648 470.431 18.9667 465.846C24.6494 458.847 33.133 454.698 42.1343 451.286C45.7919 453.256 49.4777 455.265 53.0485 457.38C51.3502 462.272 48.969 466.912 45.6479 471.246C40.6554 477.749 33.6156 482.432 25.7879 485.119L25.795 485.118ZM76.1507 545.403C59.9402 541.958 45.1086 534.804 33.1814 524.389C31.2502 522.704 29.4011 520.89 27.6446 518.965C27.8601 518.428 28.0674 517.884 28.2511 517.329C31.48 507.69 29.5307 497.298 26.8028 488.285C35.1683 485.389 42.7206 480.29 48.1728 473.174C51.5553 468.764 54.023 464.023 55.7947 459.04C57.6409 460.183 59.4406 461.355 61.1745 462.574C63.622 464.288 65.965 466.128 68.1929 468.073C63.5608 481.826 61.823 496.084 63.3736 509.672C64.8484 522.637 69.3769 534.883 76.1578 545.402L76.1507 545.403ZM70.0302 343.841C63.0705 345.114 56.1243 346.939 49.2712 349.313C33.4579 354.8 18.6303 363.173 5.46649 373.717C11.7013 361.467 21.4165 349.913 30.7313 339.912C56.9517 311.789 78.7716 301.978 97.4352 309.927C103.186 312.373 107.774 316.316 111.315 321.183C103.866 321.246 96.315 322.992 89.5414 326.573C81.944 330.591 75.3193 336.524 70.0302 343.841ZM60.9648 361.131C58.308 360.276 55.6078 359.61 52.8659 359.192C43.9831 357.85 35.8117 359.137 28.4039 362.124C35.4216 358.234 42.7518 354.938 50.3116 352.314C56.0062 350.341 61.7551 348.761 67.5264 347.558C64.9194 351.736 62.7138 356.283 60.9637 361.124L60.9648 361.131ZM54.0318 454.274C51.4304 452.746 48.7797 451.276 46.1264 449.835C47.6711 449.286 49.2253 448.751 50.7711 448.209C52.4075 447.639 54.0725 447.064 55.7353 446.474C55.3098 449.128 54.7602 451.735 54.039 454.273L54.0318 454.274ZM69.3282 464.863C67.3046 463.149 65.1912 461.514 62.9985 459.98C61.0027 458.582 58.9279 457.241 56.8077 455.937C57.8363 452.466 58.5642 448.896 59.0683 445.251C60.3463 444.773 61.6138 444.275 62.8505 443.767C64.6502 443.025 66.4266 442.228 68.1727 441.377C70.4971 444.732 72.8928 448.076 75.4217 451.29C73.0724 455.713 71.0343 460.255 69.321 464.864L69.3282 464.863ZM80.5227 546.238C73.0626 535.585 68.0852 522.854 66.521 509.318C65.0744 496.627 66.6021 483.316 70.753 470.412C84.341 483.307 93.089 500.269 94.7377 517.613C95.7096 527.88 94.0681 538.177 90.3038 547.432C87.0032 547.182 83.7373 546.78 80.5227 546.238ZM66.3555 438.739C64.8053 439.486 63.2329 440.185 61.6455 440.836C60.9383 441.129 60.2146 441.411 59.4919 441.699C59.8876 437.735 60.0584 433.69 60.0869 429.623C61.6504 431.855 63.2051 434.125 64.7715 436.423C65.2948 437.196 65.824 437.96 66.3555 438.739ZM69.2228 437.296C68.6152 436.405 68.0076 435.514 67.4011 434.63C65.0011 431.118 62.5884 427.573 60.0523 424.126C59.9784 419.966 59.8083 415.798 59.6345 411.654C59.149 400.01 58.6521 387.965 60.3121 376.76C60.9005 372.766 61.7869 368.901 62.9472 365.197C70.5675 368.095 77.9648 372.512 85.1933 376.831C94.2448 382.238 103.489 387.753 113.01 390.04C104.163 410.035 88.5756 427.141 69.2228 437.296ZM87.0156 554.311C85.7019 552.88 84.4314 551.399 83.2257 549.863C85.1246 550.128 87.0372 550.34 88.9644 550.506C88.3553 551.8 87.705 553.063 87.0145 554.304L87.0156 554.311ZM97.392 513.222C94.7135 496.12 85.5389 479.656 71.882 467.115C73.4809 462.663 75.3952 458.265 77.6054 453.98C78.3354 454.859 79.0764 455.715 79.8305 456.562C95.6556 474.308 123.175 488.046 148.978 478.736C161.797 474.113 172.491 461.902 176.228 447.616C179.39 435.54 177.084 423.852 169.914 415.564C160.577 404.788 143.679 400.222 127.864 404.204C114.913 407.468 102.501 415.761 90.9627 428.843C85.6279 434.888 80.9904 441.416 77.0957 448.251C75.0108 445.538 72.9993 442.733 71.0449 439.919C91.0698 429.293 107.159 411.466 116.194 390.666C121.57 391.519 127.047 391.239 132.628 389.239C141.345 386.113 148.051 378.553 151.033 368.499C151.86 365.703 152.361 362.833 152.544 359.984C153.462 360.527 154.369 361.086 155.271 361.661C177.735 375.993 193.633 400.794 198.879 429.711C204.136 458.655 197.966 487.431 181.985 508.749C179.372 512.234 176.494 515.52 173.378 518.595C170.286 514.169 166.183 510.756 161.377 508.74C143.825 501.354 124.232 512.212 112.603 526.257C107.087 532.915 102.609 540.419 98.3321 547.753C96.7584 547.744 95.1946 547.704 93.6405 547.633C97.3203 538.164 98.9015 527.716 97.9144 517.305C97.7879 515.937 97.6113 514.576 97.398 513.214L97.392 513.222ZM91.6765 558.952C90.8667 558.216 90.076 557.463 89.3045 556.693C90.4079 554.774 91.4206 552.788 92.3304 550.753C93.7097 550.83 95.0929 550.883 96.487 550.913C94.9247 553.591 93.3361 556.288 91.6765 558.952ZM176.039 533.953C177.559 543.66 175.122 553.686 169.385 560.759C157.904 574.905 135.71 579.989 115.409 573.122C107.657 570.5 100.472 566.364 94.113 561.062C96.2118 557.701 98.2078 554.29 100.159 550.923C103.787 550.881 107.455 550.672 111.124 550.287C134.864 547.789 156.507 538.298 172.701 523.611C173.84 525.8 174.748 528.186 175.39 530.745C175.659 531.806 175.87 532.876 176.039 533.953ZM114.254 387.105C105.164 385.05 96.154 379.673 86.8285 374.105C79.4312 369.688 71.865 365.174 63.9665 362.181C65.9914 356.573 68.6584 351.377 71.8733 346.738C88.4755 343.86 105.094 344.165 120.609 347.559C121.04 351.897 121.063 356.249 120.703 360.441C119.915 369.603 117.696 378.594 114.254 387.105ZM174.038 432.001C174.769 436.665 174.489 441.693 173.148 446.813C169.667 460.116 159.753 471.474 147.896 475.749C123.482 484.549 97.3118 471.389 82.1973 454.445C81.1859 453.31 80.1915 452.143 79.2211 450.943C83.1334 443.893 87.8633 437.161 93.3398 430.947C104.442 418.351 116.321 410.389 128.632 407.285C143.313 403.582 158.928 407.749 167.496 417.638C170.978 421.659 173.182 426.582 174.03 431.995L174.038 432.001ZM171.043 520.824C155.301 535.309 134.092 544.68 110.79 547.131C107.862 547.437 104.938 547.632 102.033 547.714C105.958 541.02 110.097 534.256 115.049 528.285C125.577 515.574 144.178 504.959 160.14 511.673C164.523 513.515 168.252 516.687 171.043 520.824ZM120.196 344.226C105.621 341.182 90.1345 340.773 74.614 343.086C79.2531 337.362 84.794 332.68 91.035 329.386C97.9912 325.71 105.812 324.098 113.415 324.369C116.85 330.144 119.042 336.903 120.129 343.842C120.149 343.97 120.17 344.106 120.19 344.234L120.196 344.226ZM149.446 358.226C149.387 361.355 148.903 364.522 147.99 367.609C145.301 376.682 139.309 383.48 131.562 386.257C126.784 387.97 122.099 388.309 117.444 387.679C120.869 379.054 123.08 369.969 123.874 360.704C124.223 356.674 124.226 352.494 123.872 348.319C132.881 350.562 141.488 353.875 149.446 358.226ZM123.278 343.407C122.245 336.81 120.263 330.362 117.218 324.65C127.701 325.887 137.424 330.728 143.446 338.641C146.817 343.074 148.827 348.671 149.332 354.561C141.263 350.338 132.578 347.131 123.508 344.964C123.44 344.441 123.359 343.921 123.277 343.4L123.278 343.407Z" fill="#EEEEEE"/>
</svg>
