<svg width="40" height="40" viewBox="0 0 40 40" fill="none" xmlns="http://www.w3.org/2000/svg">
<path d="M20 5C11.7333 5 5 11.7333 5 20C5 28.2667 11.7333 35 20 35C28.2667 35 35 28.2667 35 20C35 11.7333 28.2667 5 20 5ZM27.8833 16.1667L19.05 25C18.8833 25.1667 18.6667 25.25 18.45 25.25C18.25 25.25 18.0333 25.1667 17.8667 25L12.1167 19.25C11.8 18.9333 11.8 18.4 12.1167 18.0833C12.45 17.75 12.9667 17.75 13.3 18.0833L18.45 23.2333L26.7 15C27.0333 14.6667 27.55 14.6667 27.8833 15C28.2 15.3167 28.2 15.85 27.8833 16.1667Z" fill="#EFF6FF"/>
<path d="M27.8831 16.1667L19.0497 25C18.8831 25.1667 18.6664 25.25 18.4497 25.25C18.2497 25.25 18.0331 25.1667 17.8664 25L12.1164 19.25C11.7997 18.9333 11.7997 18.4 12.1164 18.0833C12.4497 17.75 12.9664 17.75 13.2997 18.0833L18.4497 23.2333L26.6997 15C27.0331 14.6667 27.5497 14.6667 27.8831 15C28.1997 15.3167 28.1997 15.85 27.8831 16.1667Z" fill="#0CC763"/>
</svg>
