<!-- Generated by IcoMoon.io -->
<svg version="1.1" xmlns="http://www.w3.org/2000/svg" width="32" height="32" viewBox="0 0 32 32">
<title>facebook</title>
<path d="M8.762 0c-4.834 0-8.762 3.928-8.762 8.762v14.476c0 4.834 3.928 8.762 8.762 8.762h14.476c4.834 0 8.762-3.928 8.762-8.762v-14.476c0-4.834-3.928-8.762-8.762-8.762zM8.762 0.889h14.476c4.354 0 7.873 3.52 7.873 7.873v14.476c0 4.354-3.52 7.873-7.873 7.873h-14.476c-4.353 0-7.873-3.52-7.873-7.873v-14.476c0-4.353 3.52-7.873 7.873-7.873z"></path>
<path d="M13.433 16.015h-1.886v-3.389c0.517 0 1.033 0 1.55 0 0.243 0 0.3-0.072 0.3-0.31 0-0.77 0-1.55 0.031-2.304 0.009-0.579 0.154-1.147 0.423-1.66s0.655-0.954 1.127-1.29c0.729-0.468 1.583-0.7 2.449-0.666 0.914 0 1.824 0 2.738 0 0.114 0 0.222 0 0.222 0.16 0 1.033 0 2.066 0 3.131h-0.517c-0.579 0-1.157 0-1.736 0-0.094-0.005-0.189 0.009-0.277 0.042s-0.169 0.084-0.238 0.149c-0.068 0.065-0.122 0.144-0.159 0.231s-0.055 0.181-0.054 0.275c-0.041 0.682 0 1.374 0 2.066 0 0.046 0.145 0.134 0.227 0.134 0.847 0 1.7 0 2.552 0h0.258c-0.119 1.126-0.232 2.237-0.346 3.374h-2.681v9.646h-3.983v-9.589z"></path>
</svg>
