<svg width="592" height="179" viewBox="0 0 592 179" fill="none" xmlns="http://www.w3.org/2000/svg">
<path d="M628.692 -165.333C630.409 -150.701 633.487 -136.674 637.729 -123.232C620.879 -122.725 604.05 -121.945 587.221 -120.774C498.713 -114.571 409.259 -97.0711 329.295 -57.8582C247.772 -17.8846 204.88 58.1219 135.984 114.639C72.0597 167.098 1.80242 182.959 -71 178.199V-370H669C637.867 -305.777 620.426 -236.033 628.692 -165.352V-165.333Z" fill="#EFF6FF"/>
<path d="M217.802 -73.0784C215.464 -63.9622 212.643 -54.6475 209.281 -45.3989C197.348 -12.5739 178.55 19.399 149.742 38.6158C84.0702 82.41 -33.0606 53.0016 -57.3256 -24.3704C-59.1147 -30.0701 -60.4128 -36.0097 -61.1368 -42.2223C-64.6234 -72.2015 -57.2674 -101.767 -44.1363 -129H225C225 -126.295 224.95 -123.582 224.85 -120.876C224.234 -104.729 221.796 -88.6305 217.802 -73.0784Z" fill="#E6F1FF"/>
</svg>
