<svg width="80" height="80" viewBox="0 0 80 80" fill="none" xmlns="http://www.w3.org/2000/svg">
<path d="M55.5878 72.0648C53.6537 51.9785 70.4542 56.1625 70.4542 28.7259C70.4542 13.1971 51.3152 1.5166 37.7 1.5166C24.0848 1.5166 9.00532 6.35008 9.00532 27.3673C9.00532 29.2184 11.2454 32.1737 11.2454 33.8841C11.2454 35.194 5.54688 45.5916 5.54688 47.708C5.54688 49.3588 11.6497 50.8202 11.6497 50.8202C11.6497 50.8202 9.76476 54.49 11.2181 56.5143C11.7644 57.2775 15.3485 58.5062 16.403 58.517C15.0699 58.6307 10.699 57.8891 11.371 59.3938C13.0702 63.226 9.91774 69.4668 12.4638 71.3828C15.2994 73.5154 24.0629 68.5141 25.8932 70.1271C27.7235 71.7401 25.03 77.1635 25.4889 79.453" fill="#C3D8F5"/>
<path d="M58.5703 18.2504L58.532 18.0478C58.2747 16.69 57.3171 15.5326 55.8373 14.7152C54.3569 13.8975 52.3851 13.4414 50.2 13.4912L49.8712 13.4987L49.7341 13.1998C48.9541 11.4986 46.932 10.0653 44.2423 9.69793L58.5703 18.2504ZM58.5703 18.2504C58.7852 19.8348 58.0182 21.5009 56.4664 22.9291L56.1384 23.231L56.4009 23.5914C56.7427 24.0606 56.9732 24.5771 57.0787 25.1331L57.0787 25.1334C57.364 26.631 56.6917 28.2299 55.2313 29.6124C53.7752 30.9907 51.5822 32.1003 48.9938 32.5806L48.9937 32.5806C45.4468 33.2391 42.199 32.5331 40.3338 31.0368L40.0421 30.8027L39.7352 31.0165C38.3417 31.987 36.6162 32.7286 34.6789 33.0894C31.9219 33.6 29.2908 33.2527 27.257 32.3001C25.2222 31.3469 23.8183 29.8079 23.4141 27.9382L23.3305 27.5518L22.9352 27.544C20.0284 27.4867 17.8356 26.0254 17.4669 24.0652L17.4669 24.0648C17.2419 22.8738 17.6965 21.6292 18.7037 20.5707C19.7104 19.5126 21.2451 18.673 23.0764 18.3327C23.6035 18.2355 24.1265 18.1892 24.6351 18.1841L25.137 18.179L25.13 17.677C25.0963 15.292 27.3545 12.8764 30.7313 12.2489L30.732 12.2487C32.7046 11.8794 34.5847 12.2328 35.9576 13.0478L36.4264 13.3262L36.6632 12.835C37.7031 10.6779 40.807 9.22964 44.2421 9.69791L58.5703 18.2504Z" stroke="#4B7EB7"/>
<path d="M44.6367 44.0551C44.6367 41.9712 48.1443 37.2568 48.1443 37.2568C48.1443 37.2568 51.6519 41.9712 51.6519 44.0551C51.6519 46.139 50.0839 47.8331 48.1443 47.8331C46.2048 47.8331 44.6367 46.1444 44.6367 44.0551Z" stroke="#4B7EB7" stroke-linecap="round" stroke-linejoin="round"/>
<path d="M39.1973 58.6962C39.1973 56.6123 42.7049 51.8979 42.7049 51.8979C42.7049 51.8979 46.2125 56.6123 46.2125 58.6962C46.2125 60.7801 44.6445 62.4742 42.7049 62.4742C40.7653 62.4742 39.1973 60.7855 39.1973 58.6962Z" stroke="#4B7EB7" stroke-linecap="round" stroke-linejoin="round"/>
<path d="M27.9141 45.976C27.9141 43.8921 31.4217 39.1777 31.4217 39.1777C31.4217 39.1777 34.9293 43.8867 34.9293 45.976C34.9293 48.0653 33.3612 49.754 31.4217 49.754C29.4821 49.754 27.9141 48.0653 27.9141 45.976Z" stroke="#4B7EB7" stroke-linecap="round" stroke-linejoin="round"/>
</svg>
