<svg width="80" height="80" viewBox="0 0 80 80" fill="none" xmlns="http://www.w3.org/2000/svg">
<g clip-path="url(#clip0_376_1497)">
<path d="M57.5704 72.4056C55.6932 51.7889 72 56.0833 72 27.9222C72 11.9889 53.4235 0 40.2083 0C26.9932 0 12.3568 4.96111 12.3568 26.5333C12.3568 28.4333 14.5311 31.4667 14.5311 33.2222C14.5311 34.5667 9 45.2389 9 47.4111C9 49.1056 14.9235 50.6056 14.9235 50.6056C14.9235 50.6056 13.0939 54.3722 14.5045 56.45C15.0348 57.2333 18.5136 57.9944 19.5371 58.0056C18.2432 58.1222 14.0008 57.8556 14.653 59.4056C16.3023 63.3389 13.2424 69.7444 15.7136 71.7111C18.4659 73.9 26.972 68.7667 28.7485 70.4222C30.525 72.0778 27.9106 77.6445 28.3561 79.9945L57.5704 72.4V72.4056Z" fill="#C3D8F5"/>
<path d="M42.7961 27.9777C42.4355 28.0944 42.0378 28.1666 41.6029 28.1777C41.1681 28.1888 40.6908 28.1333 40.2188 28C39.2749 27.7277 38.5165 27.2777 38.0287 26.3722C37.4931 25.3833 38.0817 24.0722 38.8188 23.4611C39.7787 22.6722 41.1044 21.9722 42.8862 21.7722C43.7772 21.6722 44.6999 21.6833 45.6279 21.8222C46.5506 21.9611 47.4734 22.2388 48.3006 22.6333C49.9658 23.4277 51.2067 24.7055 51.5514 26.2222C51.7158 26.9777 51.6681 27.7666 51.3711 28.5444C51.0741 29.3166 50.5332 30.0777 49.7696 30.7555C48.2423 32.1166 45.7923 33.1222 42.9817 33.3777C41.5817 33.5111 40.1128 33.4666 38.6809 33.2277C37.2491 32.9888 35.8597 32.5555 34.6188 31.95C33.3779 31.3444 32.2961 30.5611 31.4688 29.65C29.1832 27.5888 29.6075 24.2166 30.5355 22.5055C31.1082 21.4222 32.015 20.3944 33.2135 19.5055C34.412 18.6166 35.8969 17.8611 37.5779 17.3222C39.259 16.7777 41.1362 16.3944 43.0665 16.3611C47.1022 16.2944 51.4453 17.2 54.1658 18.8555C55.709 19.7888 57.0506 20.8555 58.0158 22.1166C58.9809 23.3722 59.5802 24.7833 59.7552 26.2222C59.9249 27.6611 59.665 29.1611 58.965 30.5833C58.2703 32.0111 57.1355 33.3611 55.6294 34.5333C54.1287 35.7055 52.2567 36.7055 50.1249 37.4388C47.9931 38.1722 45.6014 38.6388 43.1567 38.7833C40.7173 38.9333 38.1772 38.7722 35.7484 38.2777C33.3196 37.7888 31.0128 36.9777 29.0082 35.9C26.9984 34.8222 25.2855 33.4666 24.0128 31.9222C22.7347 30.3777 21.6211 27.5944 21.6211 25.5777C21.6211 19.7833 27.3006 14.2666 31.14 12.7111C36.39 10.5777 41.99 10.1388 47.5158 12.0833" stroke="#4B7EB7" stroke-linecap="round" stroke-linejoin="round"/>
</g>
<defs>
<clipPath id="clip0_376_1497">
<rect width="63" height="80" fill="white" transform="translate(9)"/>
</clipPath>
</defs>
</svg>
