<svg width="80" height="80" viewBox="0 0 80 80" fill="none" xmlns="http://www.w3.org/2000/svg">
<g clip-path="url(#clip0_479_2866)">
<path d="M65.0712 70.7111C63.2831 69.4999 61.3755 63.9666 59.2514 58.5888C59.2799 58.6444 59.3027 58.6722 59.3027 58.6722C59.3027 58.6722 60.7605 61.7611 60.863 58.3444C61.3299 42.8055 56.8085 39.6999 54.3144 39.6999C53.6082 39.6999 52.6516 40.25 51.581 41.0388C49.1381 36.7888 46.4332 33.8111 43.3981 33.8111C39.8675 33.8111 37.1114 36.4444 34.7482 40.0611C31.2006 36.5388 27.2714 32.3055 24.0142 29.2777C23.7124 28.0666 23.3764 25.4222 23.012 24.3722C27.0949 24.5888 31.827 22.8833 34.7027 17.5222C38.3357 10.75 38.1421 3.64995 33.6435 0.988841C29.1335 -1.67227 22.0269 1.12773 18.3995 7.8944C16.0933 12.1833 15.5409 16.8166 16.583 20.3166C7.68825 22.6722 -1.13814 35.5999 0.120336 50.6666C1.51547 67.3444 12.4203 81.0444 24.4698 79.9388C33.9624 79.0666 41.3367 68.8666 43.3639 56.8833C44.7249 56.4444 46.3877 55.1444 48.0163 53.5722L48.0049 53.5888L58.682 72.1777C58.682 72.1777 56.8085 75.6111 56.8085 77.9C56.8085 79.3833 78.7596 80.1335 80.001 78.5001C81.2481 76.8668 70.3784 74.3055 65.0712 70.7111Z" fill="#C3D8F5"/>
<path d="M19.7598 25.8833C25.6535 29.2722 39.1778 46.5722 43.3974 46.5722C46.2048 46.5722 51.8195 39.7 54.3137 39.7C56.8078 39.7 61.3349 42.8055 60.8623 58.3444" stroke="#4B7EB7" stroke-linecap="round" stroke-linejoin="round"/>
<path d="M24.0547 59.0056C26.1332 57.0778 27.9611 53.2834 29.9086 49.2112" stroke="#4B7EB7" stroke-linecap="round" stroke-linejoin="round"/>
<path d="M59.8711 60.1667C57.656 54.8389 55.3839 48.9556 54.3134 46.2445C52.4399 48.8612 45.8913 57.0389 42.4632 57.0389C39.0352 57.0389 18.1309 40.0278 18.1309 40.0278" stroke="#4B7EB7" stroke-linecap="round" stroke-linejoin="round"/>
</g>
<defs>
<clipPath id="clip0_479_2866">
<rect width="80" height="80" fill="white"/>
</clipPath>
</defs>
</svg>
