<svg width="80" height="80" viewBox="0 0 80 80" fill="none" xmlns="http://www.w3.org/2000/svg">
<g clip-path="url(#clip0_376_1498)">
<path d="M0.548828 79.4523C0.866636 76.3619 2.77349 70.466 6.58718 68.3016C10.4009 66.1373 28.3844 61.2277 29.2557 57.4414C29.8475 54.8715 29.2557 46.8879 29.2557 46.8879" stroke="#4B7EB7" stroke-linecap="round" stroke-linejoin="round"/>
<path d="M50.5589 46.8879C50.5589 46.8879 50.1315 54.8715 50.7452 57.4414C51.6493 61.2222 69.6 66.1373 73.4137 68.3016C77.2274 70.466 79.1342 76.3674 79.452 79.4523" stroke="#4B7EB7" stroke-linecap="round" stroke-linejoin="round"/>
<path d="M23.1406 61.7808H23.1461C26.642 64.2356 32.7845 65.8575 39.7872 65.8575C46.7899 65.8575 53.1352 64.1753 56.6036 61.6438" stroke="#4B7EB7" stroke-linecap="round" stroke-linejoin="round"/>
<path d="M24.0508 27.337C24.0508 14.8767 31.0974 9.86304 39.7878 9.86304C48.4782 9.86304 55.5248 14.8767 55.5248 27.337C55.5248 39.7973 48.4782 54.9808 39.7878 54.9808C31.0974 54.9808 24.0508 39.7973 24.0508 27.337Z" fill="#C3D8F5"/>
<path d="M43.2891 32.022C43.5247 30.2412 44.8014 28.6905 46.6425 28.1864C48.6041 27.6549 50.626 28.811 51.1576 30.7672C51.585 32.3343 50.6589 33.9508 49.0918 34.3782C47.837 34.7179 46.4671 34.0001 46.1986 32.7234C45.9302 31.4466 47.3384 30.6138 48.111 31.3261" stroke="#4B7EB7" stroke-linecap="round" stroke-linejoin="round"/>
<path d="M36.3399 31.8028C36.1043 30.0219 34.8276 28.4712 32.9865 27.9671C31.0248 27.4356 29.0029 28.5918 28.4714 30.548C28.044 32.1151 28.97 33.7315 30.5372 34.1589C31.792 34.4986 33.1618 33.7808 33.4303 32.5041C33.6988 31.2274 32.2906 30.3945 31.518 31.1069" stroke="#4B7EB7" stroke-linecap="round" stroke-linejoin="round"/>
<path d="M60.4549 10.411C60.4549 6.52606 59.4084 5.47948 55.5234 5.47948C59.4084 5.47948 60.4549 4.43291 60.4549 0.547974C60.4549 4.43291 61.5015 5.47948 65.3865 5.47948C61.5015 5.47948 60.4549 6.52606 60.4549 10.411Z" stroke="#4B7EB7" stroke-linecap="round" stroke-linejoin="round"/>
<path d="M74.5214 39.9233C74.5214 36.0384 73.4748 34.9918 69.5898 34.9918C73.4748 34.9918 74.5214 33.9452 74.5214 30.0603C74.5214 33.9452 75.5679 34.9918 79.4529 34.9918C75.5679 34.9918 74.5214 36.0384 74.5214 39.9233Z" stroke="#4B7EB7" stroke-linecap="round" stroke-linejoin="round"/>
<path d="M11.787 54.5205C11.787 50.6356 10.7404 49.589 6.85547 49.589C10.7404 49.589 11.787 48.5424 11.787 44.6575C11.787 48.5424 12.8336 49.589 16.7185 49.589C12.8336 49.589 11.787 50.6356 11.787 54.5205Z" stroke="#4B7EB7" stroke-linecap="round" stroke-linejoin="round"/>
</g>
<defs>
<clipPath id="clip0_376_1498">
<rect width="80" height="80" fill="white"/>
</clipPath>
</defs>
</svg>
