<svg width="80" height="80" viewBox="0 0 80 80" fill="none" xmlns="http://www.w3.org/2000/svg">
<g clip-path="url(#clip0_376_1500)">
<path d="M75.7712 31.2109C73.4698 28.1698 70.5931 25.9671 67.2451 25.0794C65.7383 21.9616 63.0205 19.5616 59.5903 17.8849C56.2753 16.2685 52.8342 15.5945 49.5465 16.2082C46.8616 14.2137 43.4753 13.3096 39.7876 13.3096C36.0999 13.3096 32.9657 14.1479 30.3355 15.9835C27.6835 15.9068 24.9712 16.5918 22.3355 17.874C19.0424 19.4794 16.4123 21.7589 14.8671 24.6959C10.5657 25.052 6.91637 27.5123 4.12733 31.2055C-1.11651 38.137 -1.36308 46.7781 8.57116 54.2959C18.1328 61.5287 33.6342 65.074 39.4643 59.1561C39.7492 59.1287 40.0232 59.0849 40.2972 59.0246C46.0232 65.1287 61.689 61.5781 71.3219 54.2904C81.2561 46.7726 81.0095 38.1315 75.7657 31.2L75.7712 31.2109Z" fill="#C3D8F5"/>
<path d="M24.0566 30.789C24.0566 18.3288 31.1032 13.3151 39.7936 13.3151C48.484 13.3151 55.5306 18.3288 55.5306 30.789C55.5306 43.2493 48.484 58.4329 39.7936 58.4329C31.1032 58.4329 24.0566 43.2493 24.0566 30.789Z" stroke="#4B7EB7" stroke-linecap="round" stroke-linejoin="round"/>
<path d="M53.41 16.0548C55.4758 16.2575 57.5579 16.8986 59.5908 17.8904C67.4045 21.7041 71.5305 29.3041 66.0621 40.4987C61.4264 49.9836 51.3936 59.0082 43.6895 59.2219" stroke="#4B7EB7" stroke-linecap="round" stroke-linejoin="round"/>
<path d="M36.9712 59.107C29.4588 58.033 20.2369 49.4631 15.8588 40.4878C10.4013 29.2878 14.5328 21.6933 22.341 17.8796C23.5136 17.3097 24.7027 16.8549 25.8972 16.5316" stroke="#4B7EB7" stroke-linecap="round" stroke-linejoin="round"/>
<path d="M0.548828 79.4521C0.866636 76.3672 2.77349 73.9179 6.58718 71.7535C10.0173 69.8028 24.8995 65.6439 28.505 62.0658" stroke="#4B7EB7" stroke-linecap="round" stroke-linejoin="round"/>
<path d="M51.5078 62.0603C55.1188 65.6329 69.99 69.8028 73.4201 71.7535C77.2338 73.9178 79.1407 76.3617 79.4585 79.4521" stroke="#4B7EB7" stroke-linecap="round" stroke-linejoin="round"/>
<path d="M23.1406 65.2329H23.1461C26.642 67.6877 32.7845 69.3096 39.7872 69.3096C46.7899 69.3096 53.1351 67.6275 56.6036 65.0959" stroke="#4B7EB7" stroke-linecap="round" stroke-linejoin="round"/>
<path d="M39.8711 0.547852V6.47662" stroke="#4B7EB7" stroke-linecap="round" stroke-linejoin="round"/>
<path d="M29.4316 1.85193L30.4618 7.69302" stroke="#4B7EB7" stroke-linecap="round" stroke-linejoin="round"/>
<path d="M19.2773 4.78906L21.3047 10.3617" stroke="#4B7EB7" stroke-linecap="round" stroke-linejoin="round"/>
<path d="M9.19531 9.76978L12.1597 14.9095" stroke="#4B7EB7" stroke-linecap="round" stroke-linejoin="round"/>
<path d="M0.921875 16.6793L4.73009 21.2218" stroke="#4B7EB7" stroke-linecap="round" stroke-linejoin="round"/>
<path d="M50.4403 1.85205L49.4102 7.69315" stroke="#4B7EB7" stroke-linecap="round" stroke-linejoin="round"/>
<path d="M60.5993 4.78906L58.5664 10.3617" stroke="#4B7EB7" stroke-linecap="round" stroke-linejoin="round"/>
<path d="M70.6812 9.76978L67.7168 14.9095" stroke="#4B7EB7" stroke-linecap="round" stroke-linejoin="round"/>
<path d="M78.9543 16.6794L75.1406 21.2219" stroke="#4B7EB7" stroke-linecap="round" stroke-linejoin="round"/>
</g>
<defs>
<clipPath id="clip0_376_1500">
<rect width="80" height="80" fill="white"/>
</clipPath>
</defs>
</svg>
