<!-- Generated by IcoMoon.io -->
<svg version="1.1" xmlns="http://www.w3.org/2000/svg" width="32" height="32" viewBox="0 0 32 32">
<title>instagram</title>
<path d="M8.762 0c-4.834 0-8.762 3.928-8.762 8.762v14.476c0 4.834 3.928 8.762 8.762 8.762h14.476c4.834 0 8.762-3.928 8.762-8.762v-14.476c0-4.834-3.928-8.762-8.762-8.762zM8.762 0.889h14.476c4.354 0 7.873 3.52 7.873 7.873v14.476c0 4.354-3.52 7.873-7.873 7.873h-14.476c-4.353 0-7.873-3.52-7.873-7.873v-14.476c0-4.353 3.52-7.873 7.873-7.873z"></path>
<path d="M25.237 12.089c0.022-1.066-0.275-2.115-0.852-3.012-0.491-0.745-1.166-1.35-1.96-1.757s-1.68-0.601-2.571-0.563c-1.281 0-2.583 0-3.839 0v0.026c-1.472 0-2.945-0.036-4.412 0-1.205 0.027-2.357 0.5-3.234 1.328-0.521 0.489-0.932 1.082-1.208 1.741s-0.41 1.368-0.393 2.082c0 2.351 0 4.701 0 7.057-0.018 0.558-0.003 1.117 0.046 1.674 0.067 0.743 0.302 1.461 0.687 2.1s0.909 1.182 1.534 1.589c0.969 0.616 2.102 0.924 3.25 0.883 1.968 0 3.932 0 5.9 0 0.914 0.017 1.828-0.017 2.738-0.103 0.671-0.078 1.317-0.298 1.896-0.645s1.077-0.814 1.462-1.369c0.646-0.937 0.979-2.055 0.951-3.193 0.021-2.609 0.015-5.223 0.005-7.837zM23.6 19.699c0.022 0.6-0.085 1.197-0.315 1.751-0.243 0.592-0.652 1.102-1.177 1.468s-1.144 0.574-1.784 0.599c-0.728 0.062-1.467 0.036-2.206 0.036-1.98 0-3.959 0-5.936 0-0.663 0.016-1.321-0.127-1.917-0.419-0.514-0.256-0.949-0.647-1.259-1.131s-0.481-1.043-0.498-1.617c-0.062-0.754-0.041-1.514-0.041-2.268 0-1.968 0-3.937 0-5.9 0-0.488 0.072-0.974 0.212-1.441 0.177-0.622 0.547-1.172 1.057-1.571s1.133-0.624 1.779-0.646c1.085-0.098 2.18-0.046 3.275-0.062 0.413 0 0.821 0 1.235 0 1.348 0 2.697 0 4.045 0 0.79-0.015 1.563 0.238 2.191 0.718 0.375 0.29 0.683 0.656 0.904 1.075s0.35 0.88 0.377 1.353c0.067 0.847 0.047 1.705 0.047 2.557 0.016 1.813 0.010 3.658 0.010 5.497z"></path>
<path d="M25.237 12.089c0.022-1.066-0.275-2.115-0.852-3.012-0.491-0.745-1.166-1.35-1.96-1.757s-1.68-0.601-2.571-0.563c-1.281 0-2.583 0-3.839 0v0.026c-1.472 0-2.945-0.036-4.412 0-1.205 0.027-2.357 0.5-3.234 1.328-0.521 0.489-0.932 1.082-1.208 1.741s-0.41 1.368-0.393 2.082c0 2.351 0 4.701 0 7.057-0.018 0.558-0.003 1.117 0.046 1.674 0.067 0.743 0.302 1.461 0.687 2.099s0.909 1.182 1.534 1.589c0.969 0.616 2.102 0.924 3.25 0.883 1.968 0 3.932 0 5.9 0 0.914 0.017 1.828-0.017 2.738-0.103 0.671-0.078 1.317-0.298 1.896-0.645s1.077-0.814 1.462-1.369c0.646-0.937 0.979-2.055 0.951-3.193 0.021-2.609 0.015-5.223 0.005-7.837zM23.6 19.699c0.022 0.6-0.085 1.197-0.315 1.751-0.243 0.592-0.652 1.102-1.177 1.468s-1.144 0.574-1.784 0.599c-0.728 0.062-1.467 0.036-2.206 0.036-1.98 0-3.959 0-5.936 0-0.663 0.016-1.321-0.127-1.917-0.419-0.514-0.256-0.949-0.647-1.259-1.131s-0.481-1.043-0.498-1.617c-0.062-0.754-0.041-1.514-0.041-2.268 0-1.968 0-3.937 0-5.9 0-0.488 0.072-0.974 0.212-1.441 0.177-0.622 0.547-1.172 1.057-1.571s1.133-0.624 1.779-0.646c1.085-0.098 2.18-0.046 3.275-0.062 0.413 0 0.821 0 1.235 0 1.348 0 2.697 0 4.045 0 0.79-0.015 1.563 0.238 2.191 0.718 0.375 0.29 0.683 0.656 0.904 1.075s0.35 0.88 0.377 1.353c0.067 0.847 0.047 1.705 0.047 2.557 0.016 1.813 0.010 3.658 0.010 5.497z"></path>
<path d="M15.979 11.201c-0.942 0.003-1.863 0.285-2.645 0.811s-1.391 1.272-1.749 2.143c-0.359 0.872-0.451 1.83-0.265 2.754s0.641 1.772 1.309 2.438 1.517 1.118 2.442 1.301c0.925 0.183 1.883 0.087 2.753-0.274s1.614-0.973 2.137-1.756 0.803-1.705 0.803-2.648c-0.001-0.627-0.125-1.248-0.366-1.828s-0.593-1.105-1.038-1.548c-0.444-0.443-0.972-0.794-1.552-1.033s-1.201-0.361-1.829-0.36zM15.979 19.017c-0.604 0-1.194-0.179-1.696-0.514s-0.893-0.812-1.125-1.369c-0.231-0.558-0.292-1.171-0.175-1.763s0.408-1.136 0.834-1.563 0.97-0.718 1.562-0.837c0.592-0.118 1.206-0.059 1.764 0.172s1.035 0.621 1.371 1.122c0.336 0.501 0.516 1.091 0.517 1.695 0.003 0.805-0.313 1.578-0.878 2.151s-1.334 0.899-2.139 0.907h-0.036zM20.964 10.007c-0.214-0.002-0.424 0.060-0.603 0.177s-0.319 0.285-0.402 0.482c-0.083 0.197-0.106 0.415-0.066 0.625s0.142 0.403 0.293 0.556c0.151 0.152 0.343 0.256 0.553 0.298s0.427 0.022 0.625-0.060c0.198-0.081 0.367-0.22 0.486-0.398s0.183-0.387 0.183-0.601c0.001-0.141-0.026-0.281-0.080-0.412s-0.132-0.249-0.231-0.35-0.217-0.18-0.347-0.235c-0.13-0.055-0.27-0.083-0.411-0.084z"></path>
</svg>
