<svg width="81" height="54" viewBox="0 0 81 54" fill="none" xmlns="http://www.w3.org/2000/svg">
<path d="M14.3984 8.44617L14.7327 8.49376C15.0511 8.77926 15.2103 9.13614 15.2103 9.5644C15.2103 9.86577 15.1466 10.1433 15.0193 10.3971C14.876 10.3654 14.7327 10.3495 14.5895 10.3495C14.4462 10.3337 14.295 10.3178 14.1358 10.302H13.6582C13.499 10.8254 13.3558 11.3488 13.2284 11.8722C13.0056 12.8556 12.8941 13.8232 12.8941 14.7749C12.8941 16.012 13.1011 16.932 13.515 17.5347C13.9288 18.1375 14.5338 18.4388 15.3297 18.4388C15.7117 18.4388 16.1256 18.3595 16.5713 18.2009C17.0171 18.0582 17.4707 17.852 17.9324 17.5823C18.394 17.3127 18.8477 16.9875 19.2934 16.6068C19.7392 16.2262 20.153 15.8058 20.5351 15.3459C21.0922 14.6797 21.5937 13.9263 22.0394 13.0856C22.4851 12.2291 22.8592 11.325 23.1617 10.3733C23.48 9.42165 23.7188 8.44617 23.878 7.44691C24.0531 6.43178 24.1407 5.44045 24.1407 4.4729C24.1407 4.09223 24.1327 3.775 24.1168 3.52122C24.1009 3.25158 24.077 3.02952 24.0452 2.85504C24.0292 2.66471 24.0133 2.51403 23.9974 2.403C23.9815 2.29197 23.9656 2.1968 23.9496 2.11749C24.1407 2.21266 24.3476 2.33162 24.5705 2.47437C24.8093 2.60126 25.0242 2.79953 25.2152 3.06917C25.4221 3.32296 25.5893 3.66397 25.7166 4.09223C25.8599 4.52049 25.9315 5.07564 25.9315 5.75767C25.9315 6.86797 25.7962 7.9624 25.5256 9.04098C25.2709 10.1037 24.9048 11.1188 24.4272 12.0864C23.9656 13.0539 23.4164 13.958 22.7796 14.7986C22.1429 15.6393 21.4584 16.3769 20.7261 17.0113C19.771 17.852 18.7522 18.5023 17.6697 18.9623C16.5873 19.4222 15.5446 19.6522 14.5417 19.6522C13.0772 19.6522 11.9549 19.1843 11.1749 18.2485C10.4108 17.3285 10.0288 15.9645 10.0288 14.1563C10.0288 13.1887 10.1402 12.1657 10.3631 11.0871C10.3949 10.865 10.4427 10.635 10.5063 10.3971C9.69447 10.4764 8.88262 10.5637 8.07077 10.6588C7.00422 10.7857 6.08093 10.8571 5.30092 10.873C4.58458 12.5384 4.01151 14.077 3.5817 15.4886C3.16782 16.8844 2.84148 18.2485 2.6027 19.5808C1.99779 19.4381 1.49636 19.1843 1.09839 18.8195C0.700422 18.4706 0.334292 18.0264 0 17.4872C0.127349 17.2334 0.270617 16.9082 0.429804 16.5117C0.60491 16.1151 0.803893 15.6393 1.02675 15.0842C1.26553 14.5131 1.52819 13.8549 1.81473 13.1094C2.11718 12.3481 2.45944 11.4678 2.84148 10.4685C2.31617 10.2464 1.96596 9.93714 1.79085 9.54061C1.87044 9.47716 2.04555 9.41372 2.31617 9.35027C2.6027 9.27097 2.95291 9.19166 3.3668 9.11235L3.67721 8.35101C4.01151 7.49449 4.28212 6.7728 4.48907 6.18593C4.71193 5.59906 4.89499 5.02805 5.03826 4.4729C5.19745 3.90189 5.34072 3.27537 5.46807 2.59333C5.61133 1.91129 5.77848 1.04685 5.9695 0C6.63809 0.126891 7.243 0.420326 7.78423 0.880305C8.34139 1.34028 8.81895 1.89543 9.21691 2.54575C9.07365 2.73608 8.89854 3.02159 8.6916 3.40226C8.48465 3.78293 8.25383 4.24291 7.99913 4.7822C7.76035 5.30563 7.4977 5.90043 7.21116 6.5666C6.92462 7.21692 6.61421 7.90689 6.27992 8.63651C7.26688 8.50962 8.26975 8.39066 9.28855 8.27963C9.97305 8.20032 10.6018 8.13688 11.1749 8.08929C11.2067 8.02585 11.2386 7.9624 11.2704 7.89896C11.6525 6.85211 12.1141 5.86077 12.6553 4.92495C13.1966 3.97327 13.7856 3.14055 14.4223 2.42679C15.075 1.69717 15.7674 1.11823 16.4997 0.689969C17.2479 0.261713 18.012 0.0475849 18.792 0.0475849C19.0467 0.0475849 19.2855 0.0713766 19.5083 0.11896C19.7312 0.150683 19.97 0.222059 20.2247 0.333089C20.5271 0.45998 20.8375 0.626524 21.1559 0.832722C21.4743 1.02306 21.7688 1.22132 22.0394 1.42752C22.31 1.63372 22.5329 1.83992 22.708 2.04612C22.899 2.23645 23.0025 2.39507 23.0184 2.52196C22.7478 2.45851 22.4772 2.41886 22.2066 2.403C21.9359 2.37127 21.6892 2.35541 21.4663 2.35541C20.75 2.35541 20.0337 2.52989 19.3173 2.87884C18.6169 3.22779 17.9483 3.70363 17.3116 4.30636C16.6748 4.90909 16.0858 5.61492 15.5446 6.42385C15.1148 7.05831 14.7327 7.73241 14.3984 8.44617Z" fill="#2361A8"/>
<path d="M32.8586 17.1303C32.5561 16.8765 32.3492 16.5593 32.2377 16.1786C32.1422 15.7979 32.0945 15.4728 32.0945 15.2031C32.0945 14.87 32.1343 14.5845 32.2139 14.3466C32.1502 14.3466 32.0069 14.4735 31.7841 14.7273C31.5612 14.9811 31.3145 15.2824 31.0438 15.6314C30.7891 15.9803 30.5344 16.3213 30.2797 16.6544C30.025 16.9875 29.834 17.2334 29.7067 17.392C29.4997 17.614 29.3007 17.7885 29.1097 17.9154C28.9346 18.0423 28.7913 18.1137 28.6799 18.1295C28.4252 18.1137 28.1546 18.0582 27.8681 17.963C27.5974 17.8837 27.3348 17.7647 27.0801 17.6061C26.8413 17.4475 26.6264 17.2572 26.4354 17.0351C26.2603 16.813 26.1409 16.5593 26.0772 16.2738C26.0772 15.8296 26.0852 15.4648 26.1011 15.1793C26.1329 14.8938 26.1886 14.5845 26.2682 14.2514C26.4115 13.6487 26.6742 13.0222 27.0562 12.3719C27.4383 11.7215 27.884 11.214 28.3934 10.8492C28.5367 10.8492 28.7038 10.865 28.8948 10.8968C29.0858 10.9126 29.2769 10.9523 29.4679 11.0157C29.6748 11.0792 29.8659 11.1585 30.041 11.2536C30.232 11.3329 30.3912 11.444 30.5185 11.5867C30.3753 11.7453 30.025 12.5225 29.4679 13.9183C28.9107 15.3141 28.6322 16.1151 28.6322 16.3213C28.6322 16.4482 28.6481 16.5434 28.6799 16.6068C28.7277 16.6703 28.7675 16.7179 28.7993 16.7496C29.0381 16.6544 29.3405 16.3927 29.7067 15.9645C30.0728 15.5362 30.5822 14.878 31.2349 13.9897C31.3941 13.7677 31.5771 13.5139 31.7841 13.2284C32.0069 12.9429 32.2298 12.6415 32.4526 12.3243C32.6755 11.9912 32.8825 11.6502 33.0735 11.3012C33.2804 10.9523 33.4476 10.6033 33.5749 10.2544C33.6386 10.064 33.7182 9.84197 33.8137 9.58819C33.9251 9.31855 34.0525 9.04098 34.1957 8.75547C34.3549 8.46997 34.53 8.18446 34.7211 7.89896C34.928 7.59759 35.1668 7.32002 35.4374 7.06624C35.6443 7.06624 35.8672 7.09003 36.106 7.13761C36.3448 7.1852 36.5676 7.24864 36.7746 7.32795C36.9974 7.39139 37.1884 7.4707 37.3476 7.56587C37.5068 7.64518 37.6262 7.73241 37.7058 7.82758C37.4193 8.52548 37.1009 9.21545 36.7507 9.89749C36.4005 10.5795 36.0741 11.2536 35.7717 11.9198C35.4692 12.5701 35.2145 13.2204 35.0076 13.8708C34.8007 14.5211 34.6972 15.1555 34.6972 15.7741C34.6972 16.1072 34.7211 16.4006 34.7688 16.6544C34.8325 16.8923 34.8962 17.0985 34.9598 17.273C35.0235 17.4316 35.0792 17.5665 35.127 17.6775C35.1907 17.7885 35.2225 17.8837 35.2225 17.963C35.2225 17.9789 35.2066 18.0026 35.1747 18.0344C35.1588 18.0502 35.1429 18.0582 35.127 18.0582C35.0156 18.0582 34.8723 18.0344 34.6972 17.9868C34.5221 17.9392 34.3231 17.8678 34.1002 17.7727C33.8933 17.6933 33.6784 17.5982 33.4555 17.4872C33.2486 17.3761 33.0496 17.2572 32.8586 17.1303Z" fill="#2361A8"/>
<path d="M42.7474 5.73388C42.7474 5.63871 42.7713 5.49596 42.8191 5.30562C42.7395 5.22632 42.6678 5.10736 42.6042 4.94874C42.5564 4.79013 42.5325 4.64738 42.5325 4.52049C42.5325 4.37774 42.5484 4.1874 42.5803 3.94948C42.628 3.6957 42.6838 3.42605 42.7474 3.14055C42.8111 2.85505 42.8907 2.56161 42.9862 2.26024C43.0817 1.94302 43.1772 1.65751 43.2727 1.40373C43.4638 1.40373 43.6946 1.45925 43.9652 1.57027C44.2517 1.66544 44.5383 1.80026 44.8248 1.97474C45.1114 2.13335 45.374 2.31576 45.6128 2.52196C45.8516 2.71229 46.0346 2.8947 46.162 3.06917C45.9869 3.24365 45.7561 3.4895 45.4695 3.80673C45.183 4.10809 44.9044 4.43325 44.6338 4.7822C44.3632 5.11529 44.1164 5.43252 43.8936 5.73388C43.6707 6.03525 43.5274 6.24938 43.4638 6.37627C43.2727 6.34454 43.1056 6.26524 42.9623 6.13835C42.8191 5.99559 42.7474 5.86077 42.7474 5.73388ZM39.0941 11.2536C39.5557 10.0006 39.9139 9.19959 40.1686 8.85064C40.4233 8.48583 40.7337 8.21618 41.0998 8.04171C41.3705 8.07343 41.7286 8.22412 42.1744 8.49376C42.636 8.74754 43.026 9.10442 43.3444 9.5644C42.644 10.3892 42.1107 11.2378 41.7445 12.1101C41.3943 12.9825 41.0601 13.9342 40.7417 14.9652C40.7258 15.0286 40.7019 15.0921 40.67 15.1555C40.5586 15.6155 40.5029 16.0279 40.5029 16.3927C40.5029 16.7258 40.5506 16.9479 40.6462 17.0589C40.7417 17.1541 40.877 17.2016 41.0521 17.2016C41.2431 17.2016 41.4182 17.1699 41.5774 17.1065C41.7525 17.0272 41.8799 16.9875 41.9595 16.9875C42.055 17.051 42.1107 17.1303 42.1266 17.2254C42.1425 17.3206 42.1505 17.4078 42.1505 17.4872C41.8321 17.7409 41.5058 17.9471 41.1715 18.1057C40.8372 18.2802 40.4631 18.3675 40.0492 18.3675C39.6672 18.3675 39.3488 18.304 39.0941 18.1771C38.8553 18.0502 38.6563 17.8758 38.4971 17.6537C38.338 17.4316 38.2265 17.1779 38.1628 16.8923C38.0992 16.6068 38.0673 16.2975 38.0673 15.9645C38.3061 14.077 38.6484 12.5067 39.0941 11.2536Z" fill="#2361A8"/>
<path d="M48.3905 13.0618C48.3746 13.0777 48.3586 13.0856 48.3427 13.0856C48.0084 13.2442 47.7139 13.3394 47.4592 13.3711C46.8384 13.2918 46.3768 13.1015 46.0743 12.8001C45.7719 12.4988 45.6206 12.1101 45.6206 11.6343C45.6206 11.1743 45.748 10.6747 46.0027 10.1354C46.2574 9.58026 46.5837 9.06477 46.9817 8.58893C47.3956 8.11309 47.8652 7.71655 48.3905 7.39932C48.9158 7.06624 49.4411 6.89969 49.9664 6.89969C50.5395 6.89969 50.9693 7.07417 51.2558 7.42312C51.3036 7.48656 51.3513 7.55794 51.3991 7.63725C51.5583 7.43105 51.7334 7.24071 51.9244 7.06624C52.1314 7.06624 52.3542 7.09003 52.593 7.13761C52.8318 7.1852 53.0546 7.24864 53.2616 7.32795C53.4845 7.39139 53.6755 7.4707 53.8347 7.56587C53.9938 7.64518 54.1132 7.73241 54.1928 7.82758C53.9063 8.52548 53.5879 9.21545 53.2377 9.89749C52.8875 10.5795 52.5612 11.2536 52.2587 11.9198C51.9563 12.5701 51.7016 13.2204 51.4946 13.8708C51.2877 14.5211 51.1842 15.1555 51.1842 15.7741C51.1842 16.1072 51.2081 16.4006 51.2558 16.6544C51.3195 16.8923 51.3832 17.0985 51.4469 17.273C51.5105 17.4316 51.5662 17.5665 51.614 17.6775C51.6777 17.7885 51.7095 17.8837 51.7095 17.963C51.7095 17.9789 51.6936 18.0026 51.6618 18.0344C51.6458 18.0502 51.6299 18.0582 51.614 18.0582C51.5026 18.0582 51.3593 18.0344 51.1842 17.9868C51.0091 17.9392 50.8101 17.8678 50.5872 17.7727C50.3803 17.6933 50.1654 17.5982 49.9425 17.4872C49.7356 17.3761 49.5366 17.2572 49.3456 17.1303C49.0431 16.8765 48.8362 16.5593 48.7248 16.1786C48.6292 15.7979 48.5815 15.4728 48.5815 15.2031C48.5815 14.87 48.6213 14.5845 48.7009 14.3466C48.6372 14.3466 48.4939 14.4735 48.2711 14.7273C48.0482 14.9811 47.8015 15.2824 47.5309 15.6314C47.2762 15.9803 47.0215 16.3213 46.7668 16.6544C46.5121 16.9875 46.321 17.2334 46.1937 17.392C45.9868 17.614 45.7878 17.7885 45.5967 17.9154C45.4216 18.0423 45.2784 18.1137 45.1669 18.1295C44.9122 18.1137 44.6416 18.0582 44.3551 17.963C44.0845 17.8837 43.8218 17.7647 43.5671 17.6061C43.3283 17.4475 43.1134 17.2572 42.9224 17.0351C42.7473 16.813 42.6279 16.5593 42.5642 16.2738C42.5642 15.8296 42.5961 15.4728 42.6597 15.2031C42.7234 14.9335 42.8349 14.5687 42.994 14.1087C43.1691 13.6487 43.5114 13.2363 44.0208 12.8715C44.1641 12.8715 44.3312 12.8874 44.5222 12.9191C44.7133 12.9349 44.9043 12.9746 45.0953 13.038C45.3022 13.1015 45.4933 13.1808 45.6684 13.276C45.8594 13.3553 46.0186 13.4663 46.1459 13.609C46.0027 13.7677 45.7957 14.2118 45.5251 14.9414C45.2545 15.6552 45.1192 16.1151 45.1192 16.3213C45.1192 16.4482 45.1351 16.5434 45.1669 16.6068C45.2147 16.6703 45.2545 16.7179 45.2863 16.7496C45.5251 16.6544 45.8276 16.3927 46.1937 15.9645C46.5598 15.5362 47.0692 14.878 47.7219 13.9897C47.8811 13.7677 48.0721 13.5139 48.295 13.2284C48.3268 13.1808 48.3586 13.1253 48.3905 13.0618ZM50.826 8.49376C50.8101 8.46204 50.7942 8.43031 50.7783 8.39859C50.6987 8.31928 50.5475 8.26377 50.3246 8.23205C49.9744 8.31135 49.6162 8.48583 49.2501 8.75547C48.8839 9.02511 48.5497 9.34234 48.2472 9.70715C47.9607 10.0561 47.7219 10.4209 47.5309 10.8016C47.3558 11.1664 47.2682 11.4757 47.2682 11.7295C47.2682 12.1736 47.507 12.3957 47.9845 12.3957C48.1756 12.3957 48.3666 12.356 48.5576 12.2767C48.7486 12.2132 48.9317 12.1419 49.1068 12.0626C49.266 11.8088 49.4252 11.555 49.5844 11.3012C49.7754 10.9523 49.9346 10.6033 50.0619 10.2544C50.1256 10.064 50.2052 9.84197 50.3007 9.58819C50.4121 9.31855 50.5475 9.04098 50.7066 8.75547C50.7385 8.67616 50.7783 8.58893 50.826 8.49376Z" fill="#2361A8"/>
<path d="M1.67146 40.7478C1.67146 39.6375 1.79881 38.551 2.05351 37.4883C2.32413 36.4098 2.69822 35.3946 3.17578 34.4429C3.65334 33.4754 4.21845 32.5951 4.87112 31.802C5.5397 30.9931 6.264 30.2952 7.04401 29.7083C7.83995 29.1215 8.68364 28.6694 9.57508 28.3522C10.4665 28.0191 11.3819 27.8525 12.3211 27.8525C13.4194 27.8525 14.2711 28.0825 14.876 28.5425C15.4968 29.0025 15.8072 29.6449 15.8072 30.4697C15.8072 30.7869 15.7595 31.1121 15.664 31.4451C15.5844 31.7782 15.457 32.1113 15.2819 32.4444C15.1227 32.7616 14.9317 33.0709 14.7089 33.3723C14.486 33.6737 14.2393 33.9354 13.9686 34.1574C13.5548 34.094 13.1966 33.9116 12.8941 33.6102C12.5917 33.293 12.4006 32.9282 12.3211 32.5158C12.8782 32.0558 13.316 31.58 13.6343 31.0883C13.9686 30.5807 14.1358 30.1207 14.1358 29.7083C14.1358 29.0104 13.698 28.6615 12.8225 28.6615C12.4564 28.6615 12.0743 28.7408 11.6763 28.8994C11.2943 29.0421 10.9043 29.2483 10.5063 29.518C10.1084 29.7876 9.71835 30.1128 9.3363 30.4935C8.97017 30.8741 8.62792 31.2945 8.30955 31.7544C6.09685 34.9267 4.99051 38.1704 4.99051 41.4854C4.99051 42.6591 5.17357 43.6029 5.5397 44.3166C5.90583 45.0304 6.39135 45.4507 6.99626 45.5776C7.68076 45.419 8.54833 44.9828 9.59896 44.2691C10.6496 43.5553 11.7957 42.6274 13.0374 41.4854C13.1966 41.644 13.2921 41.8105 13.3239 41.985C12.8623 42.5878 12.3847 43.1667 11.8913 43.7218C11.3978 44.277 10.9043 44.7845 10.4108 45.2445C9.93325 45.7045 9.45569 46.109 8.97813 46.4579C8.51649 46.8069 8.08669 47.0765 7.68872 47.2669C5.7148 47.2351 4.21845 46.6721 3.19965 45.5776C2.18086 44.4832 1.67146 42.8733 1.67146 40.7478Z" fill="#2361A8"/>
<path d="M23.9858 41.7233C23.6197 42.8812 23.2536 43.936 22.8874 44.8876C22.5213 45.8393 22.1313 46.7117 21.7174 47.5048C21.3035 48.3137 20.8578 49.0513 20.3803 49.7174C19.9027 50.3995 19.3774 51.0419 18.8043 51.6446C18.072 52.4059 17.3159 52.9849 16.5359 53.3814C15.7559 53.7938 14.9759 54 14.1959 54C13.7979 54 13.3999 53.9524 13.002 53.8573C12.6199 53.7779 12.2617 53.659 11.9274 53.5004C11.5772 53.3576 11.2748 53.1831 11.0201 52.9769C10.7495 52.7866 10.5584 52.5804 10.447 52.3583C10.447 52.168 10.5584 52.0015 10.7813 51.8587C10.9723 52.0332 11.1315 52.168 11.2589 52.2632C11.3862 52.3583 11.5136 52.4377 11.6409 52.5011C11.7523 52.5645 11.8797 52.6042 12.023 52.6201C12.1503 52.6359 12.3015 52.6439 12.4766 52.6439C13.384 52.6439 14.2675 52.3742 15.1271 51.8349C16.0026 51.3115 16.8224 50.5581 17.5865 49.5747C18.3665 48.6071 19.0749 47.4255 19.7117 46.0297C20.3484 44.6497 20.8897 43.1032 21.3354 41.3902C21.1284 41.7074 20.8737 42.0961 20.5713 42.556C20.2688 43.016 19.9345 43.476 19.5684 43.936C19.2023 44.3801 18.8202 44.7846 18.4223 45.1494C18.0402 45.5142 17.6661 45.76 17.3 45.8869C17.0453 45.8711 16.7747 45.8155 16.4881 45.7204C16.2175 45.6411 15.9549 45.5221 15.7002 45.3635C15.4614 45.2049 15.2465 45.0145 15.0555 44.7925C14.8644 44.5704 14.7371 44.3166 14.6734 44.0311C14.6734 43.5712 14.6893 43.2063 14.7212 42.9367C14.753 42.6512 14.8087 42.3419 14.8883 42.0088C15.0316 41.4061 15.2385 40.724 15.5091 39.9627C15.7957 39.2014 16.122 38.4559 16.4881 37.7262C16.8702 36.9808 17.2841 36.2908 17.7298 35.6563C18.1914 35.006 18.669 34.4985 19.1625 34.1336C19.2898 34.1336 19.449 34.1495 19.64 34.1812C19.8311 34.1971 20.03 34.2367 20.237 34.3002C20.4439 34.3636 20.6429 34.4429 20.8339 34.5381C21.025 34.6174 21.1921 34.7284 21.3354 34.8712C21.1603 35.0298 20.7782 35.5612 20.1892 36.4653C19.6002 37.3694 18.9476 38.67 18.2312 40.3672C18.1516 40.5416 18.0561 40.7954 17.9447 41.1285C17.8333 41.4616 17.7218 41.8105 17.6104 42.1754C17.5149 42.5402 17.4273 42.897 17.3477 43.246C17.2682 43.5949 17.2284 43.8725 17.2284 44.0787C17.2284 44.2056 17.2443 44.3008 17.2761 44.3642C17.3239 44.4277 17.3637 44.4753 17.3955 44.507C17.682 44.4594 18.0641 44.2294 18.5417 43.817C19.0192 43.3887 19.5604 42.7305 20.1654 41.8423C20.5474 41.2713 20.8976 40.7082 21.216 40.153C21.5344 39.582 21.8448 39.011 22.1472 38.44C22.4656 37.869 22.7919 37.2821 23.1262 36.6794C23.4605 36.0767 23.8187 35.4581 24.2007 34.8236C24.4077 34.8236 24.6305 34.8474 24.8693 34.895C25.1081 34.9426 25.3389 35.006 25.5618 35.0853C25.7846 35.1488 25.9757 35.2281 26.1349 35.3232C26.31 35.4026 26.4373 35.4898 26.5169 35.585C26.0234 36.6318 25.5618 37.6549 25.132 38.6541C24.7022 39.6534 24.3201 40.6765 23.9858 41.7233Z" fill="#2361A8"/>
<path d="M33.185 44.8876C32.8826 44.6339 32.6756 44.3166 32.5642 43.936C32.4687 43.5553 32.4209 43.2301 32.4209 42.9605C32.4209 42.6274 32.4607 42.3419 32.5403 42.104C32.4766 42.104 32.3334 42.2309 32.1105 42.4847C31.8877 42.7384 31.6409 43.0398 31.3703 43.3888C31.1156 43.7377 30.8609 44.0787 30.6062 44.4118C30.3515 44.7449 30.1605 44.9907 30.0331 45.1494C29.8262 45.3714 29.6272 45.5459 29.4362 45.6728C29.2611 45.7997 29.1178 45.8711 29.0064 45.8869C28.7517 45.8711 28.4811 45.8155 28.1945 45.7204C27.9239 45.6411 27.6612 45.5221 27.4065 45.3635C27.1678 45.2049 26.9529 45.0145 26.7618 44.7925C26.5867 44.5704 26.4673 44.3166 26.4037 44.0311C26.4037 43.587 26.4116 43.2222 26.4276 42.9367C26.4594 42.6512 26.5151 42.3419 26.5947 42.0088C26.738 41.4061 27.0006 40.7796 27.3827 40.1292C27.7647 39.4789 28.2104 38.9714 28.7198 38.6065C28.8631 38.6065 29.0303 38.6224 29.2213 38.6541C29.4123 38.67 29.6033 38.7096 29.7943 38.7731C30.0013 38.8365 30.1923 38.9158 30.3674 39.011C30.5584 39.0903 30.7176 39.2013 30.845 39.3441C30.7017 39.5027 30.3515 40.2799 29.7943 41.6757C29.2372 43.0715 28.9586 43.8725 28.9586 44.0787C28.9586 44.2056 28.9745 44.3008 29.0064 44.3642C29.0541 44.4277 29.0939 44.4753 29.1258 44.507C29.3645 44.4118 29.667 44.1501 30.0331 43.7218C30.3993 43.2936 30.9087 42.6353 31.5613 41.7471C31.7205 41.525 31.9036 41.2713 32.1105 40.9858C32.3334 40.7003 32.5562 40.3989 32.7791 40.0817C33.002 39.7486 33.2089 39.4076 33.3999 39.0586C33.6069 38.7097 33.774 38.3607 33.9014 38.0117C33.965 37.8214 34.0446 37.5994 34.1402 37.3456C34.2516 37.0759 34.3789 36.7984 34.5222 36.5129C34.6814 36.2273 34.8565 35.9418 35.0475 35.6563C35.2545 35.355 35.4932 35.0774 35.7639 34.8236C35.9708 34.8236 36.1937 34.8474 36.4324 34.895C36.6712 34.9426 36.8941 35.006 37.101 35.0853C37.3239 35.1488 37.5149 35.2281 37.6741 35.3232C37.8333 35.4026 37.9527 35.4898 38.0323 35.585C37.7457 36.2829 37.4274 36.9728 37.0771 37.6549C36.7269 38.3369 36.4006 39.011 36.0981 39.6772C35.7957 40.3275 35.541 40.9778 35.3341 41.6281C35.1271 42.2785 35.0236 42.9129 35.0236 43.5315C35.0236 43.8646 35.0475 44.158 35.0953 44.4118C35.1589 44.6497 35.2226 44.8559 35.2863 45.0304C35.35 45.189 35.4057 45.3238 35.4534 45.4349C35.5171 45.5459 35.549 45.6411 35.549 45.7204C35.549 45.7362 35.533 45.76 35.5012 45.7917C35.4853 45.8076 35.4694 45.8155 35.4534 45.8155C35.342 45.8155 35.1987 45.7917 35.0236 45.7442C34.8485 45.6966 34.6495 45.6252 34.4267 45.53C34.2197 45.4507 34.0048 45.3556 33.782 45.2445C33.575 45.1335 33.3761 45.0145 33.185 44.8876Z" fill="#2361A8"/>
<path d="M46.7272 35.7991C46.8864 35.7991 47.0695 35.8308 47.2764 35.8943C47.4993 35.9418 47.6983 36.0132 47.8734 36.1084C48.0485 36.1877 48.1917 36.2749 48.3032 36.3701C48.4305 36.4653 48.4942 36.5525 48.4942 36.6318C48.1758 37.298 47.8813 37.9721 47.6107 38.6541C47.3401 39.3203 47.1093 39.9627 46.9182 40.5813C46.7272 41.1999 46.576 41.7788 46.4646 42.3181C46.369 42.8574 46.3213 43.3253 46.3213 43.7218C46.3213 44.166 46.369 44.5387 46.4646 44.8401C46.5601 45.1256 46.7193 45.3318 46.9421 45.4587C46.7511 45.5856 46.5044 45.6886 46.2019 45.768C45.8994 45.8473 45.6288 45.8869 45.39 45.8869C44.5304 45.8869 44.1006 45.3 44.1006 44.1263C44.1006 43.2222 44.4031 41.985 45.008 40.4147C44.6896 41.1444 44.3235 41.8343 43.9096 42.4847C43.4957 43.1191 43.0739 43.6822 42.6441 44.1739C42.2143 44.6656 41.7765 45.0701 41.3308 45.3873C40.901 45.6886 40.503 45.8711 40.1369 45.9345C39.5479 45.9028 39.0703 45.6252 38.7042 45.1018C38.3381 44.5625 38.155 43.8805 38.155 43.0557C38.155 42.1674 38.346 41.2316 38.7281 40.2482C39.1101 39.2648 39.5957 38.3528 40.1846 37.5121C40.7896 36.6715 41.4422 35.9736 42.1426 35.4184C42.8431 34.8474 43.5196 34.546 44.1723 34.5143C44.3315 34.5619 44.5066 34.6571 44.6976 34.7998C44.9045 34.9426 45.0956 35.1091 45.2707 35.2995C45.4617 35.4898 45.6209 35.6881 45.7482 35.8943C45.8756 36.0846 45.9472 36.2511 45.9631 36.3939C45.3264 36.4891 44.6657 36.7984 43.9812 37.3218C43.3127 37.8452 42.6998 38.4797 42.1426 39.2251C41.6014 39.9548 41.1557 40.7399 40.8055 41.5806C40.4553 42.4212 40.2802 43.2063 40.2802 43.936C40.2802 44.2373 40.3916 44.4277 40.6144 44.507C41.0761 44.4118 41.6094 44.0232 42.2143 43.3412C42.8192 42.6433 43.5514 41.5726 44.4111 40.1292C44.5702 39.8437 44.7453 39.5265 44.9364 39.1776C45.1433 38.8286 45.3503 38.4638 45.5572 38.0831C45.7641 37.7025 45.9631 37.3218 46.1541 36.9411C46.3611 36.5446 46.5521 36.1639 46.7272 35.7991Z" fill="#2361A8"/>
<path d="M52.5708 41.3664C52.523 41.7471 52.4992 42.1278 52.4992 42.5084C52.4992 43.7932 52.7857 44.5625 53.3588 44.8163C53.5976 44.7845 53.8761 44.7132 54.1945 44.6021C54.5129 44.4911 54.8551 44.3484 55.2213 44.1739C55.5874 43.9836 55.9615 43.7694 56.3435 43.5315C56.7415 43.2936 57.1235 43.0398 57.4897 42.7702C57.5533 42.8177 57.6091 42.8891 57.6568 42.9843C57.7046 43.0795 57.7285 43.1667 57.7285 43.246C57.4578 43.5791 57.1474 43.9042 56.7972 44.2215C56.447 44.5387 56.0809 44.8321 55.6988 45.1018C55.3168 45.3556 54.9427 45.5697 54.5766 45.7442C54.2263 45.9345 53.9159 46.0535 53.6453 46.101C53.12 46.0535 52.6265 45.8869 52.1649 45.6014C51.7032 45.3318 51.2973 44.9749 50.9471 44.5308C50.6128 44.0867 50.3422 43.5791 50.1352 43.0081C49.9442 42.4371 49.8487 41.8423 49.8487 41.2237C49.8487 40.3196 50.0318 39.4472 50.3979 38.6065C50.78 37.75 51.2734 36.9966 51.8783 36.3463C52.4992 35.6801 53.1996 35.1488 53.9796 34.7522C54.7755 34.3398 55.5954 34.1336 56.439 34.1336C57.2668 34.1336 57.9036 34.3398 58.3493 34.7522C58.795 35.1646 59.0179 35.7515 59.0179 36.5129C59.0179 36.8777 58.9622 37.2345 58.8507 37.5835C58.7552 37.9166 58.6199 38.2179 58.4448 38.4876C58.2856 38.7572 58.0946 38.9793 57.8717 39.1538C57.6489 39.3124 57.426 39.3917 57.2031 39.3917C57.0121 39.3917 56.8131 39.3362 56.6062 39.2251C56.4152 39.0983 56.256 38.9396 56.1286 38.7493C57.1952 37.7818 57.7285 36.9015 57.7285 36.1084C57.7285 35.6484 57.5454 35.4184 57.1793 35.4184C56.8609 35.4184 56.4629 35.5691 55.9854 35.8705C55.5078 36.1718 55.0462 36.5684 54.6004 37.0601C53.9159 37.8214 53.3986 38.6621 53.0484 39.582C53.0165 39.6613 52.9847 39.7406 52.9529 39.8199H53.4782C53.7647 39.8199 53.9955 39.8199 54.1706 39.8199C54.3617 39.8041 54.5527 39.7803 54.7437 39.7486C54.7755 39.7962 54.7994 39.8834 54.8153 40.0103C54.8472 40.1213 54.8631 40.2085 54.8631 40.272C54.8631 40.6368 54.7517 40.9223 54.5288 41.1285C54.3059 41.3347 54.0114 41.4378 53.6453 41.4378C53.2951 41.4378 52.9449 41.414 52.5947 41.3664H52.5708Z" fill="#2361A8"/>
<path d="M67.6121 30.8266C68.6468 29.7321 69.1642 28.7646 69.1642 27.9239C69.1642 27.8605 69.1482 27.8129 69.1164 27.7812C67.8588 28.9549 66.7366 30.3507 65.7496 31.9686C66.1953 31.7782 66.5535 31.5958 66.8241 31.4214C67.1106 31.231 67.3733 31.0328 67.6121 30.8266ZM69.4268 31.5165C68.9333 31.9924 68.408 32.3572 67.8509 32.611C67.3096 32.8647 66.3625 33.0709 65.0094 33.2295C63.9269 35.2757 63.0275 37.6311 62.3112 40.2958C62.7569 39.471 63.2583 38.6779 63.8155 37.9166C64.3726 37.1394 64.9218 36.4573 65.4631 35.8705C66.0202 35.2836 66.5455 34.8157 67.039 34.4667C67.5484 34.1178 67.9703 33.9433 68.3046 33.9433C68.5592 34.0068 68.806 34.1178 69.0448 34.2764C69.2835 34.435 69.4985 34.6333 69.6895 34.8712C69.8805 35.0933 70.0397 35.3391 70.167 35.6088C70.2944 35.8625 70.374 36.1322 70.4058 36.4177C70.3899 37.0839 70.2705 37.7976 70.0476 38.559C69.8407 39.3044 69.5542 40.042 69.188 40.7716C68.8378 41.5012 68.4319 42.1992 67.9703 42.8653C67.5245 43.5315 67.047 44.1184 66.5376 44.6259C66.0441 45.1176 65.5427 45.5142 65.0333 45.8155C64.5398 46.1169 64.0702 46.2676 63.6245 46.2676C63.4334 46.2676 63.2345 46.2438 63.0275 46.1962C62.8365 46.1645 62.6534 46.109 62.4783 46.0297C62.3191 45.9662 62.1838 45.8948 62.0724 45.8155C61.9769 45.7362 61.9291 45.6569 61.9291 45.5776C62.6614 45.0859 63.3777 44.4594 64.0781 43.698C64.7786 42.9208 65.4153 42.0881 65.9884 41.1999C66.5615 40.2958 67.047 39.36 67.4449 38.3924C67.8429 37.4249 68.1135 36.497 68.2568 35.6088C68.2568 35.4184 68.1533 35.2915 67.9464 35.2281C67.7235 35.2281 67.4131 35.4263 67.0151 35.8229C66.6331 36.2036 66.2033 36.6953 65.7257 37.298C65.2641 37.9007 64.7865 38.5748 64.293 39.3203C63.8155 40.0658 63.3777 40.8113 62.9798 41.5568C62.5818 42.2864 62.2395 42.9764 61.953 43.6267C61.6824 44.2611 61.5312 44.7766 61.4993 45.1732C61.3401 45.1732 61.2048 45.0145 61.0934 44.6973C61.0616 44.618 61.0058 44.5387 60.9262 44.4594C60.8466 44.3642 60.7193 44.2532 60.5442 44.1263C60.4646 44.0629 60.385 43.9915 60.3054 43.9122C60.2258 43.817 60.1701 43.7377 60.1383 43.6743C60.0746 43.5474 60.0428 43.3412 60.0428 43.0557C60.0428 42.1198 60.1621 41.0651 60.4009 39.8913C60.6397 38.7176 60.9501 37.52 61.3322 36.2987C61.7301 35.0774 62.1918 33.8799 62.7171 32.7061C63.2424 31.5165 63.7836 30.43 64.3408 29.4466C64.9139 28.4632 65.4869 27.6305 66.06 26.9485C66.6331 26.2664 67.1743 25.8144 67.6837 25.5923C67.8429 25.6399 68.0339 25.7192 68.2568 25.8302C68.4797 25.9413 68.7025 26.0681 68.9254 26.2109C69.1482 26.3536 69.3552 26.4964 69.5462 26.6392C69.7531 26.7819 69.9044 26.9088 69.9999 27.0198C70.4297 27.4639 70.6446 28.0191 70.6446 28.6853C70.6446 29.1928 70.5411 29.7083 70.3342 30.2318C70.1272 30.7393 69.8248 31.1676 69.4268 31.5165Z" fill="#2361A8"/>
<path d="M79.233 35.7991C79.3922 35.7991 79.5753 35.8308 79.7822 35.8943C80.0051 35.9418 80.2041 36.0132 80.3792 36.1084C80.5543 36.1877 80.6975 36.2749 80.809 36.3701C80.9363 36.4653 81 36.5525 81 36.6318C80.6816 37.298 80.3871 37.9721 80.1165 38.6541C79.8459 39.3203 79.6151 39.9627 79.4241 40.5813C79.233 41.1999 79.0818 41.7788 78.9704 42.3181C78.8749 42.8574 78.8271 43.3253 78.8271 43.7218C78.8271 44.166 78.8749 44.5387 78.9704 44.8401C79.0659 45.1256 79.2251 45.3318 79.4479 45.4587C79.2569 45.5856 79.0102 45.6886 78.7077 45.768C78.4053 45.8473 78.1346 45.8869 77.8959 45.8869C77.0363 45.8869 76.6064 45.3 76.6064 44.1263C76.6064 43.2222 76.9089 41.985 77.5138 40.4147C77.1954 41.1444 76.8293 41.8343 76.4154 42.4847C76.0015 43.1191 75.5797 43.6822 75.1499 44.1739C74.7201 44.6656 74.2823 45.0701 73.8366 45.3873C73.4068 45.6886 73.0088 45.8711 72.6427 45.9345C72.0537 45.9028 71.5761 45.6252 71.21 45.1018C70.8439 44.5625 70.6608 43.8805 70.6608 43.0557C70.6608 42.1674 70.8518 41.2316 71.2339 40.2482C71.6159 39.2648 72.1015 38.3528 72.6905 37.5121C73.2954 36.6715 73.948 35.9736 74.6485 35.4184C75.3489 34.8474 76.0254 34.546 76.6781 34.5143C76.8373 34.5619 77.0124 34.6571 77.2034 34.7998C77.4103 34.9426 77.6014 35.1091 77.7765 35.2995C77.9675 35.4898 78.1267 35.6881 78.254 35.8943C78.3814 36.0846 78.453 36.2511 78.4689 36.3939C77.8322 36.4891 77.1716 36.7984 76.4871 37.3218C75.8185 37.8452 75.2056 38.4797 74.6485 39.2251C74.1072 39.9548 73.6615 40.7399 73.3113 41.5806C72.9611 42.4212 72.786 43.2063 72.786 43.936C72.786 44.2373 72.8974 44.4277 73.1203 44.507C73.5819 44.4118 74.1152 44.0232 74.7201 43.3412C75.325 42.6433 76.0573 41.5726 76.9169 40.1292C77.076 39.8437 77.2512 39.5265 77.4422 39.1776C77.6491 38.8286 77.8561 38.4638 78.063 38.0831C78.27 37.7025 78.4689 37.3218 78.66 36.9411C78.8669 36.5446 79.0579 36.1639 79.233 35.7991Z" fill="#2361A8"/>
</svg>
