<svg width="95" height="64" viewBox="0 0 95 64" fill="none" xmlns="http://www.w3.org/2000/svg">
<path d="M16.8871 10.9583L17.2791 11.0144C17.6525 11.3511 17.8392 11.7718 17.8392 12.2768C17.8392 12.6321 17.7646 12.9594 17.6152 13.2586C17.4472 13.2212 17.2791 13.2025 17.1111 13.2025C16.9431 13.1838 16.7657 13.1651 16.579 13.1464H16.0189C15.8322 13.7635 15.6642 14.3806 15.5148 14.9978C15.2534 16.1572 15.1227 17.298 15.1227 18.4201C15.1227 19.8788 15.3655 20.9634 15.8509 21.6741C16.3363 22.3847 17.0458 22.74 17.9793 22.74C18.4273 22.74 18.9128 22.6465 19.4355 22.4595C19.9583 22.2912 20.4904 22.0481 21.0318 21.7302C21.5732 21.4123 22.1053 21.0289 22.6281 20.5801C23.1509 20.1312 23.6363 19.6356 24.0844 19.0933C24.7378 18.3079 25.3259 17.4196 25.8487 16.4284C26.3714 15.4185 26.8102 14.3526 27.1649 13.2305C27.5383 12.1085 27.8184 10.9583 28.0051 9.78017C28.2104 8.5833 28.3131 7.41448 28.3131 6.27371C28.3131 5.82488 28.3038 5.45086 28.2851 5.15164C28.2665 4.83373 28.2385 4.57191 28.2011 4.3662C28.1824 4.14179 28.1638 3.96413 28.1451 3.83322C28.1264 3.70231 28.1078 3.5901 28.0891 3.4966C28.3131 3.6088 28.5558 3.74906 28.8172 3.91737C29.0973 4.06698 29.3493 4.30074 29.5734 4.61866C29.8161 4.91788 30.0121 5.31995 30.1615 5.82488C30.3295 6.32981 30.4135 6.98435 30.4135 7.7885C30.4135 9.09758 30.2548 10.388 29.9374 11.6596C29.6387 12.9126 29.2093 14.1095 28.6492 15.2502C28.1078 16.391 27.4636 17.457 26.7168 18.4481C25.97 19.4393 25.1672 20.3089 24.3084 21.0569C23.1882 22.0481 21.9933 22.8148 20.7238 23.3572C19.4542 23.8995 18.2313 24.1707 17.0551 24.1707C15.3374 24.1707 14.0212 23.619 13.1064 22.5156C12.2102 21.431 11.7621 19.8227 11.7621 17.6907C11.7621 16.55 11.8928 15.3437 12.1542 14.0721C12.1915 13.8103 12.2476 13.5391 12.3222 13.2586C11.3701 13.3521 10.4179 13.4549 9.46572 13.5671C8.21482 13.7167 7.13196 13.8009 6.21713 13.8196C5.37698 15.7832 4.70485 17.5972 4.20076 19.2616C3.71534 20.9073 3.3326 22.5156 3.05255 24.0865C2.34309 23.9182 1.75498 23.619 1.28823 23.1889C0.821482 22.7774 0.392071 22.2538 0 21.618C0.14936 21.3187 0.317391 20.9354 0.504091 20.4678C0.709462 20.0003 0.942838 19.4393 1.20422 18.7847C1.48427 18.1115 1.79233 17.3354 2.12839 16.4565C2.48312 15.5588 2.88452 14.5209 3.3326 13.3427C2.71649 13.0809 2.30575 12.7162 2.10038 12.2487C2.19373 12.1739 2.3991 12.0991 2.71649 12.0243C3.05255 11.9308 3.46329 11.8373 3.94872 11.7438L4.31278 10.8461C4.70485 9.83627 5.02224 8.98537 5.26496 8.29343C5.52634 7.60149 5.74104 6.92825 5.90907 6.27371C6.09577 5.60047 6.2638 4.86178 6.41316 4.05763C6.58119 3.25348 6.77723 2.23427 7.00127 1C7.78541 1.14961 8.49487 1.49558 9.12966 2.03791C9.78311 2.58024 10.3432 3.23478 10.81 4.00153C10.6419 4.22594 10.4366 4.56256 10.1938 5.01139C9.95114 5.46021 9.68042 6.00254 9.3817 6.63838C9.10165 7.25552 8.79359 7.95681 8.45753 8.74226C8.12147 9.509 7.75741 10.3225 7.36534 11.1828C8.52288 11.0331 9.69909 10.8929 10.894 10.762C11.6968 10.6685 12.4343 10.5937 13.1064 10.5376C13.1437 10.4628 13.1811 10.388 13.2184 10.3131C13.6665 9.07888 14.2079 7.91006 14.8427 6.80669C15.4775 5.68463 16.1683 4.70282 16.9151 3.86127C17.6805 3.00102 18.4927 2.31843 19.3515 1.8135C20.229 1.30857 21.1252 1.0561 22.04 1.0561C22.3387 1.0561 22.6188 1.08416 22.8801 1.14026C23.1415 1.17766 23.4216 1.26182 23.7203 1.39272C24.075 1.54233 24.4391 1.73869 24.8125 1.98181C25.1859 2.20622 25.5313 2.43998 25.8487 2.6831C26.1661 2.92621 26.4275 3.16933 26.6328 3.41244C26.8569 3.63686 26.9782 3.82387 26.9969 3.97347C26.6795 3.89867 26.3621 3.85192 26.0447 3.83322C25.7273 3.79582 25.4379 3.77711 25.1766 3.77711C24.3364 3.77711 23.4963 3.98283 22.6561 4.39425C21.8346 4.80567 21.0505 5.36671 20.3037 6.07735C19.5569 6.78799 18.8661 7.62019 18.2313 8.57395C17.7272 9.32199 17.2791 10.1168 16.8871 10.9583Z" fill="white"/>
<path d="M38.5378 21.1972C38.1831 20.898 37.9404 20.5239 37.8097 20.0751C37.6977 19.6263 37.6417 19.2429 37.6417 18.925C37.6417 18.5323 37.6883 18.1957 37.7817 17.9151C37.707 17.9151 37.539 18.0648 37.2776 18.364C37.0162 18.6632 36.7268 19.0185 36.4094 19.4299C36.1107 19.8414 35.812 20.2434 35.5133 20.6362C35.2146 21.0289 34.9905 21.3187 34.8412 21.5058C34.5984 21.7676 34.3651 21.9733 34.141 22.1229C33.9357 22.2725 33.7676 22.3567 33.6369 22.3754C33.3382 22.3567 33.0208 22.2912 32.6848 22.179C32.3674 22.0855 32.0593 21.9452 31.7606 21.7582C31.4806 21.5712 31.2285 21.3468 31.0045 21.085C30.7991 20.8232 30.6591 20.5239 30.5844 20.1873C30.5844 19.6637 30.5937 19.2336 30.6124 18.897C30.6497 18.5603 30.7151 18.1957 30.8084 17.8029C30.9765 17.0923 31.2845 16.3536 31.7326 15.5869C32.1807 14.8201 32.7034 14.2217 33.3009 13.7916C33.4689 13.7916 33.6649 13.8103 33.889 13.8477C34.113 13.8664 34.3371 13.9131 34.5611 13.9879C34.8038 14.0627 35.0279 14.1562 35.2332 14.2684C35.4573 14.3619 35.644 14.4928 35.7933 14.6612C35.6253 14.8482 35.2146 15.7645 34.5611 17.4102C33.9077 19.0559 33.5809 20.0003 33.5809 20.2434C33.5809 20.393 33.5996 20.5052 33.6369 20.5801C33.693 20.6549 33.7396 20.711 33.777 20.7484C34.057 20.6362 34.4117 20.3276 34.8412 19.8227C35.2706 19.3177 35.868 18.5416 36.6335 17.4944C36.8202 17.2326 37.0349 16.9333 37.2776 16.5967C37.539 16.2601 37.8004 15.9048 38.0617 15.5308C38.3231 15.138 38.5658 14.736 38.7899 14.3245C39.0326 13.9131 39.2286 13.5017 39.378 13.0903C39.4527 12.8658 39.546 12.604 39.658 12.3048C39.7887 11.9869 39.9381 11.6596 40.1061 11.323C40.2928 10.9864 40.4982 10.6498 40.7222 10.3131C40.9649 9.95783 41.245 9.63056 41.5624 9.33134C41.8051 9.33134 42.0665 9.35939 42.3465 9.4155C42.6266 9.4716 42.888 9.5464 43.1307 9.63991C43.392 9.71471 43.6161 9.80822 43.8028 9.92043C43.9895 10.0139 44.1295 10.1168 44.2229 10.229C43.8868 11.0518 43.5134 11.8653 43.1027 12.6695C42.6919 13.4736 42.3092 14.2684 41.9545 15.0539C41.5997 15.8206 41.301 16.5874 41.0583 17.3541C40.8156 18.1209 40.6942 18.8689 40.6942 19.5982C40.6942 19.991 40.7222 20.3369 40.7782 20.6362C40.8529 20.9167 40.9276 21.1598 41.0023 21.3655C41.077 21.5525 41.1423 21.7115 41.1983 21.8424C41.273 21.9733 41.3103 22.0855 41.3103 22.179C41.3103 22.1977 41.2917 22.2257 41.2543 22.2632C41.2357 22.2819 41.217 22.2912 41.1983 22.2912C41.0676 22.2912 40.8996 22.2632 40.6942 22.207C40.4888 22.1509 40.2555 22.0668 39.9941 21.9546C39.7514 21.8611 39.4993 21.7489 39.238 21.618C38.9952 21.4871 38.7619 21.3468 38.5378 21.1972Z" fill="white"/>
<path d="M50.1359 7.76045C50.1359 7.64824 50.1639 7.47993 50.2199 7.25552C50.1265 7.16201 50.0425 7.02175 49.9678 6.83474C49.9118 6.64773 49.8838 6.47942 49.8838 6.32981C49.8838 6.1615 49.9025 5.93709 49.9398 5.65657C49.9958 5.35736 50.0612 5.03944 50.1359 4.70282C50.2106 4.3662 50.3039 4.02023 50.4159 3.66491C50.5279 3.29088 50.64 2.95426 50.752 2.65505C50.976 2.65505 51.2467 2.7205 51.5641 2.85141C51.9002 2.96362 52.2363 3.12258 52.5723 3.32829C52.9084 3.5153 53.2164 3.73036 53.4965 3.97347C53.7765 4.19789 53.9912 4.41295 54.1406 4.61866C53.9352 4.82437 53.6645 5.11424 53.3284 5.48826C52.9924 5.84359 52.6657 6.22696 52.3483 6.63838C52.0309 7.03111 51.7415 7.40513 51.4801 7.76045C51.2187 8.11577 51.0507 8.36823 50.976 8.51784C50.752 8.48044 50.5559 8.38694 50.3879 8.23733C50.2199 8.06902 50.1359 7.91006 50.1359 7.76045ZM45.8511 14.2684C46.3925 12.791 46.8126 11.8466 47.1113 11.4352C47.41 11.0051 47.7741 10.6872 48.2035 10.4815C48.5209 10.5189 48.941 10.6965 49.4637 11.0144C50.0052 11.3137 50.4626 11.7344 50.836 12.2768C50.0145 13.2492 49.3891 14.2497 48.9597 15.2783C48.5489 16.3069 48.1568 17.4289 47.7834 18.6445C47.7648 18.7193 47.7368 18.7941 47.6994 18.8689C47.5687 19.4112 47.5034 19.8975 47.5034 20.3276C47.5034 20.7203 47.5594 20.9821 47.6714 21.113C47.7834 21.2252 47.9421 21.2813 48.1475 21.2813C48.3716 21.2813 48.5769 21.2439 48.7636 21.1691C48.969 21.0756 49.1184 21.0289 49.2117 21.0289C49.3237 21.1037 49.3891 21.1972 49.4077 21.3094C49.4264 21.4216 49.4357 21.5245 49.4357 21.618C49.0623 21.9172 48.6796 22.1603 48.2875 22.3473C47.8955 22.553 47.4567 22.6559 46.9713 22.6559C46.5232 22.6559 46.1498 22.5811 45.8511 22.4315C45.571 22.2819 45.3377 22.0761 45.151 21.8143C44.9643 21.5525 44.8336 21.2533 44.7589 20.9167C44.6842 20.5801 44.6469 20.2154 44.6469 19.8227C44.9269 17.5972 45.3283 15.7458 45.8511 14.2684Z" fill="white"/>
<path d="M56.7543 16.4004C56.7356 16.4191 56.7169 16.4284 56.6982 16.4284C56.3062 16.6154 55.9608 16.7276 55.6621 16.765C54.9339 16.6715 54.3925 16.4471 54.0378 16.0918C53.683 15.7365 53.5057 15.2783 53.5057 14.7173C53.5057 14.1749 53.655 13.5858 53.9538 12.95C54.2525 12.2955 54.6352 11.6877 55.102 11.1266C55.5874 10.5656 56.1381 10.0981 56.7543 9.72406C57.3704 9.33134 57.9865 9.13498 58.6026 9.13498C59.2747 9.13498 59.7788 9.34069 60.1149 9.75212C60.1709 9.82692 60.2269 9.91107 60.2829 10.0046C60.4696 9.76147 60.675 9.53705 60.899 9.33134C61.1417 9.33134 61.4031 9.35939 61.6832 9.4155C61.9632 9.4716 62.2246 9.5464 62.4673 9.63991C62.7287 9.71471 62.9527 9.80822 63.1394 9.92043C63.3261 10.0139 63.4661 10.1168 63.5595 10.229C63.2234 11.0518 62.85 11.8653 62.4393 12.6695C62.0285 13.4736 61.6458 14.2684 61.2911 15.0539C60.9363 15.8206 60.6376 16.5874 60.3949 17.3541C60.1522 18.1209 60.0309 18.8689 60.0309 19.5982C60.0309 19.991 60.0589 20.3369 60.1149 20.6362C60.1895 20.9167 60.2642 21.1598 60.3389 21.3655C60.4136 21.5525 60.4789 21.7115 60.5349 21.8424C60.6096 21.9733 60.647 22.0855 60.647 22.179C60.647 22.1977 60.6283 22.2257 60.591 22.2632C60.5723 22.2819 60.5536 22.2912 60.5349 22.2912C60.4043 22.2912 60.2362 22.2632 60.0309 22.207C59.8255 22.1509 59.5921 22.0668 59.3307 21.9546C59.088 21.8611 58.836 21.7489 58.5746 21.618C58.3319 21.4871 58.0985 21.3468 57.8745 21.1972C57.5197 20.898 57.277 20.5239 57.1463 20.0751C57.0343 19.6263 56.9783 19.2429 56.9783 18.925C56.9783 18.5323 57.025 18.1957 57.1183 17.9151C57.0436 17.9151 56.8756 18.0648 56.6142 18.364C56.3529 18.6632 56.0635 19.0185 55.7461 19.4299C55.4474 19.8414 55.1486 20.2434 54.8499 20.6362C54.5512 21.0289 54.3272 21.3187 54.1778 21.5058C53.9351 21.7676 53.7017 21.9733 53.4777 22.1229C53.2723 22.2725 53.1043 22.3567 52.9736 22.3754C52.6749 22.3567 52.3575 22.2912 52.0214 22.179C51.704 22.0855 51.396 21.9452 51.0972 21.7582C50.8172 21.5712 50.5651 21.3468 50.3411 21.085C50.1357 20.8232 49.9957 20.5239 49.921 20.1873C49.921 19.6637 49.9584 19.2429 50.033 18.925C50.1077 18.6071 50.2384 18.177 50.4251 17.6346C50.6305 17.0923 51.0319 16.6061 51.6293 16.1759C51.7974 16.1759 51.9934 16.1946 52.2174 16.232C52.4415 16.2507 52.6655 16.2975 52.8896 16.3723C53.1323 16.4471 53.3563 16.5406 53.5617 16.6528C53.7857 16.7463 53.9724 16.8772 54.1218 17.0455C53.9538 17.2326 53.711 17.7562 53.3936 18.6164C53.0763 19.458 52.9176 20.0003 52.9176 20.2434C52.9176 20.393 52.9362 20.5052 52.9736 20.5801C53.0296 20.6549 53.0763 20.711 53.1136 20.7484C53.3937 20.6362 53.7484 20.3276 54.1778 19.8227C54.6072 19.3177 55.2046 18.5416 55.9701 17.4944C56.1568 17.2326 56.3809 16.9333 56.6422 16.5967C56.6796 16.5406 56.7169 16.4752 56.7543 16.4004ZM59.6108 11.0144C59.5921 10.977 59.5734 10.9396 59.5548 10.9022C59.4614 10.8087 59.284 10.7433 59.0227 10.7059C58.6119 10.7994 58.1919 11.0051 57.7624 11.323C57.333 11.6409 56.941 12.0149 56.5862 12.4451C56.2502 12.8565 55.9701 13.2866 55.7461 13.7354C55.5407 14.1656 55.438 14.5302 55.438 14.8295C55.438 15.3531 55.7181 15.6149 56.2782 15.6149C56.5022 15.6149 56.7263 15.5682 56.9503 15.4747C57.1743 15.3998 57.389 15.3157 57.5944 15.2222C57.7811 14.923 57.9678 14.6238 58.1545 14.3245C58.3786 13.9131 58.5653 13.5017 58.7146 13.0903C58.7893 12.8658 58.8826 12.604 58.9947 12.3048C59.1254 11.9869 59.284 11.6596 59.4707 11.323C59.5081 11.2295 59.5548 11.1266 59.6108 11.0144Z" fill="white"/>
<path d="M1.96036 48.3752C1.96036 47.0662 2.10972 45.7851 2.40844 44.5322C2.72583 43.2605 3.16457 42.0636 3.72468 40.9415C4.28478 39.8008 4.94756 38.7629 5.71304 37.8278C6.49718 36.8741 7.34667 36.0512 8.2615 35.3593C9.195 34.6673 10.1845 34.1343 11.23 33.7603C12.2756 33.3676 13.3491 33.1712 14.4506 33.1712C15.7389 33.1712 16.7377 33.4424 17.4472 33.9847C18.1753 34.5271 18.5394 35.2845 18.5394 36.2569C18.5394 36.6309 18.4834 37.0143 18.3713 37.407C18.278 37.7998 18.1286 38.1925 17.9233 38.5852C17.7365 38.9592 17.5125 39.3239 17.2511 39.6792C16.9897 40.0345 16.7004 40.3431 16.383 40.6049C15.8975 40.5301 15.4775 40.3151 15.1227 39.9597C14.768 39.5857 14.544 39.1556 14.4506 38.6694C15.1041 38.127 15.6175 37.566 15.9909 36.9863C16.383 36.3878 16.579 35.8455 16.579 35.3593C16.579 34.5364 16.0656 34.125 15.0387 34.125C14.6093 34.125 14.1612 34.2185 13.6945 34.4055C13.2464 34.5738 12.789 34.8169 12.3222 35.1348C11.8555 35.4528 11.3981 35.8361 10.95 36.285C10.5206 36.7338 10.1192 37.2294 9.74577 37.7717C7.15063 41.5119 5.85306 45.3363 5.85306 49.2448C5.85306 50.6287 6.06777 51.7414 6.49718 52.583C6.92659 53.4245 7.49603 53.9201 8.20549 54.0697C9.0083 53.8827 10.0258 53.3684 11.258 52.5269C12.4903 51.6853 13.8345 50.5913 15.2908 49.2448C15.4775 49.4318 15.5895 49.6282 15.6268 49.8339C15.0854 50.5446 14.5253 51.2271 13.9465 51.8817C13.3678 52.5362 12.789 53.1347 12.2102 53.677C11.6501 54.2193 11.09 54.6962 10.5299 55.1076C9.98848 55.5191 9.48439 55.837 9.01764 56.0614C6.70255 56.024 4.94756 55.3601 3.75268 54.0697C2.5578 52.7793 1.96036 50.8812 1.96036 48.3752Z" fill="white"/>
<path d="M28.1315 49.5253C27.7021 50.8905 27.2727 52.1342 26.8433 53.2562C26.4139 54.3783 25.9565 55.4068 25.4711 56.3419C24.9856 57.2957 24.4629 58.1653 23.9028 58.9507C23.3427 59.7549 22.7266 60.5122 22.0544 61.2229C21.1956 62.1205 20.3088 62.8031 19.394 63.2707C18.4791 63.7569 17.5643 64 16.6495 64C16.1827 64 15.716 63.9439 15.2492 63.8317C14.8011 63.7382 14.381 63.5979 13.989 63.4109C13.5782 63.2426 13.2235 63.0369 12.9248 62.7938C12.6074 62.5694 12.3833 62.3263 12.2527 62.0644C12.2527 61.84 12.3833 61.6437 12.6447 61.4754C12.8688 61.6811 13.0555 61.84 13.2048 61.9522C13.3542 62.0644 13.5036 62.1579 13.6529 62.2327C13.7836 62.3076 13.933 62.3543 14.101 62.373C14.2504 62.3917 14.4277 62.4011 14.6331 62.4011C15.6973 62.4011 16.7335 62.0831 17.7417 61.4473C18.7685 60.8302 19.73 59.9419 20.6262 58.7824C21.541 57.6416 22.3718 56.2484 23.1186 54.6027C23.8654 52.9757 24.5002 51.1523 25.023 49.1326C24.7803 49.5066 24.4815 49.9648 24.1268 50.5072C23.7721 51.0495 23.38 51.5918 22.9506 52.1342C22.5212 52.6578 22.0731 53.1347 21.6064 53.5648C21.1583 53.9949 20.7195 54.2848 20.2901 54.4344C19.9914 54.4157 19.674 54.3502 19.3379 54.238C19.0206 54.1445 18.7125 54.0043 18.4138 53.8172C18.1337 53.6302 17.8817 53.4058 17.6576 53.144C17.4336 52.8822 17.2842 52.583 17.2096 52.2464C17.2096 51.704 17.2282 51.2739 17.2656 50.956C17.3029 50.6194 17.3683 50.2547 17.4616 49.862C17.6296 49.1513 17.8723 48.3472 18.1897 47.4495C18.5258 46.5519 18.9085 45.6729 19.3379 44.8127C19.786 43.9337 20.2714 43.1202 20.7942 42.3722C21.3356 41.6054 21.8957 41.007 22.4745 40.5769C22.6239 40.5769 22.8106 40.5956 23.0346 40.633C23.2587 40.6517 23.492 40.6984 23.7347 40.7732C23.9775 40.848 24.2108 40.9415 24.4349 41.0537C24.6589 41.1473 24.8549 41.2782 25.023 41.4465C24.8176 41.6335 24.3695 42.26 23.6787 43.3259C22.9879 44.3919 22.2225 45.9254 21.3823 47.9264C21.289 48.1321 21.1769 48.4313 21.0463 48.8241C20.9156 49.2168 20.7849 49.6282 20.6542 50.0583C20.5422 50.4885 20.4395 50.9092 20.3461 51.3207C20.2528 51.7321 20.2061 52.0593 20.2061 52.3025C20.2061 52.4521 20.2248 52.5643 20.2621 52.6391C20.3181 52.7139 20.3648 52.77 20.4021 52.8074C20.7382 52.7513 21.1863 52.4801 21.7464 51.9939C22.3065 51.489 22.9413 50.7129 23.6507 49.6656C24.0988 48.9924 24.5095 48.3285 24.8829 47.6739C25.2563 47.0007 25.6204 46.3275 25.9751 45.6542C26.3485 44.981 26.7313 44.289 27.1234 43.5784C27.5154 42.8678 27.9355 42.1384 28.3836 41.3904C28.6263 41.3904 28.8877 41.4184 29.1677 41.4745C29.4478 41.5306 29.7185 41.6054 29.9799 41.6989C30.2413 41.7737 30.4653 41.8672 30.652 41.9795C30.8574 42.073 31.0067 42.1758 31.1001 42.288C30.5213 43.5223 29.9799 44.7285 29.4758 45.9067C28.9717 47.0849 28.5236 48.2911 28.1315 49.5253Z" fill="white"/>
<path d="M38.9207 53.2562C38.566 52.957 38.3233 52.583 38.1926 52.1342C38.0806 51.6853 38.0246 51.302 38.0246 50.984C38.0246 50.5913 38.0712 50.2547 38.1646 49.9742C38.0899 49.9742 37.9219 50.1238 37.6605 50.423C37.3991 50.7222 37.1097 51.0775 36.7923 51.489C36.4936 51.9004 36.1949 52.3025 35.8962 52.6952C35.5974 53.0879 35.3734 53.3778 35.224 53.5648C34.9813 53.8266 34.748 54.0323 34.5239 54.1819C34.3185 54.3315 34.1505 54.4157 34.0198 54.4344C33.7211 54.4157 33.4037 54.3502 33.0676 54.238C32.7503 54.1445 32.4422 54.0043 32.1435 53.8172C31.8634 53.6302 31.6114 53.4058 31.3873 53.144C31.182 52.8822 31.042 52.583 30.9673 52.2464C30.9673 51.7227 30.9766 51.2926 30.9953 50.956C31.0326 50.6194 31.098 50.2547 31.1913 49.862C31.3593 49.1513 31.6674 48.4126 32.1155 47.6459C32.5636 46.8791 33.0863 46.2807 33.6838 45.8506C33.8518 45.8506 34.0478 45.8693 34.2719 45.9067C34.4959 45.9254 34.72 45.9721 34.944 46.0469C35.1867 46.1217 35.4107 46.2153 35.6161 46.3275C35.8402 46.421 36.0269 46.5519 36.1762 46.7202C36.0082 46.9072 35.5974 47.8235 34.944 49.4692C34.2905 51.1149 33.9638 52.0593 33.9638 52.3025C33.9638 52.4521 33.9825 52.5643 34.0198 52.6391C34.0758 52.7139 34.1225 52.77 34.1598 52.8074C34.4399 52.6952 34.7946 52.3866 35.224 51.8817C35.6535 51.3768 36.2509 50.6007 37.0164 49.5534C37.2031 49.2916 37.4178 48.9924 37.6605 48.6557C37.9219 48.3191 38.1832 47.9638 38.4446 47.5898C38.706 47.1971 38.9487 46.795 39.1728 46.3836C39.4155 45.9721 39.6115 45.5607 39.7609 45.1493C39.8355 44.9249 39.9289 44.6631 40.0409 44.3638C40.1716 44.0459 40.321 43.7187 40.489 43.382C40.6757 43.0454 40.8811 42.7088 41.1051 42.3722C41.3478 42.0169 41.6279 41.6896 41.9453 41.3904C42.188 41.3904 42.4494 41.4184 42.7294 41.4745C43.0095 41.5306 43.2708 41.6054 43.5135 41.6989C43.7749 41.7737 43.999 41.8672 44.1857 41.9795C44.3724 42.073 44.5124 42.1758 44.6057 42.288C44.2697 43.1109 43.8963 43.9244 43.4855 44.7285C43.0748 45.5327 42.6921 46.3275 42.3373 47.1129C41.9826 47.8797 41.6839 48.6464 41.4412 49.4131C41.1985 50.1799 41.0771 50.9279 41.0771 51.6573C41.0771 52.05 41.1051 52.396 41.1611 52.6952C41.2358 52.9757 41.3105 53.2188 41.3852 53.4245C41.4598 53.6115 41.5252 53.7705 41.5812 53.9014C41.6559 54.0323 41.6932 54.1445 41.6932 54.238C41.6932 54.2567 41.6745 54.2848 41.6372 54.3222C41.6185 54.3409 41.5999 54.3502 41.5812 54.3502C41.4505 54.3502 41.2825 54.3222 41.0771 54.2661C40.8717 54.21 40.6384 54.1258 40.377 54.0136C40.1343 53.9201 39.8822 53.8079 39.6208 53.677C39.3781 53.5461 39.1448 53.4058 38.9207 53.2562Z" fill="white"/>
<path d="M54.8035 42.5405C54.9902 42.5405 55.2049 42.5779 55.4476 42.6527C55.709 42.7088 55.9424 42.7929 56.1478 42.9052C56.3531 42.9987 56.5212 43.1015 56.6519 43.2137C56.8012 43.3259 56.8759 43.4288 56.8759 43.5223C56.5025 44.3077 56.1571 45.1025 55.8397 45.9067C55.5223 46.6921 55.2516 47.4495 55.0276 48.1789C54.8035 48.9082 54.6262 49.5908 54.4955 50.2266C54.3835 50.8625 54.3274 51.4142 54.3274 51.8817C54.3274 52.4053 54.3835 52.8448 54.4955 53.2001C54.6075 53.5367 54.7942 53.7799 55.0556 53.9295C54.8315 54.0791 54.5421 54.2006 54.1874 54.2941C53.8327 54.3876 53.5153 54.4344 53.2352 54.4344C52.2271 54.4344 51.723 53.7424 51.723 52.3586C51.723 51.2926 52.0777 49.8339 52.7872 47.9825C52.4138 48.8428 51.9844 49.6563 51.4989 50.423C51.0135 51.171 50.5188 51.8349 50.0147 52.4147C49.5106 52.9944 48.9971 53.4713 48.4744 53.8453C47.9703 54.2006 47.5035 54.4157 47.0741 54.4905C46.3833 54.4531 45.8232 54.1258 45.3938 53.5087C44.9644 52.8728 44.7497 52.0687 44.7497 51.0962C44.7497 50.049 44.9737 48.9456 45.4218 47.7861C45.8699 46.6267 46.4393 45.5514 47.1301 44.5602C47.8396 43.569 48.6051 42.7462 49.4266 42.0917C50.248 41.4184 51.0415 41.0631 51.807 41.0257C51.9937 41.0818 52.1991 41.194 52.4231 41.3623C52.6658 41.5306 52.8899 41.727 53.0952 41.9514C53.3193 42.1758 53.506 42.4096 53.6553 42.6527C53.8047 42.8771 53.8887 43.0735 53.9074 43.2418C53.1606 43.354 52.3858 43.7187 51.5829 44.3358C50.7988 44.9529 50.08 45.701 49.4266 46.5799C48.7918 47.4402 48.269 48.3659 47.8583 49.357C47.4475 50.3482 47.2422 51.2739 47.2422 52.1342C47.2422 52.4895 47.3728 52.7139 47.6342 52.8074C48.1757 52.6952 48.8011 52.237 49.5106 51.4329C50.22 50.61 51.0789 49.3477 52.087 47.6459C52.2737 47.3093 52.4791 46.9352 52.7032 46.5238C52.9459 46.1124 53.1886 45.6823 53.4313 45.2334C53.674 44.7846 53.9074 44.3358 54.1314 43.887C54.3741 43.4194 54.5982 42.9706 54.8035 42.5405Z" fill="white"/>
<path d="M61.6571 49.1046C61.6011 49.5534 61.5731 50.0022 61.5731 50.4511C61.5731 51.9658 61.9092 52.8728 62.5813 53.1721C62.8613 53.1347 63.1881 53.0505 63.5615 52.9196C63.9349 52.7887 64.3363 52.6204 64.7657 52.4147C65.1951 52.1903 65.6338 51.9378 66.0819 51.6573C66.5487 51.3768 66.9967 51.0775 67.4262 50.7596C67.5008 50.8157 67.5662 50.8999 67.6222 51.0121C67.6782 51.1243 67.7062 51.2271 67.7062 51.3207C67.3888 51.7134 67.0247 52.0967 66.614 52.4708C66.2033 52.8448 65.7739 53.1908 65.3258 53.5087C64.8777 53.8079 64.439 54.0604 64.0095 54.2661C63.5988 54.4905 63.2347 54.6307 62.9173 54.6869C62.3012 54.6307 61.7225 54.4344 61.181 54.0978C60.6396 53.7798 60.1635 53.3591 59.7528 52.8354C59.3607 52.3118 59.0433 51.7134 58.8006 51.0401C58.5766 50.3669 58.4645 49.6656 58.4645 48.9363C58.4645 47.8703 58.6792 46.8417 59.1087 45.8506C59.5567 44.8407 60.1355 43.9524 60.845 43.1857C61.5731 42.4002 62.3946 41.7737 63.3094 41.3062C64.2429 40.82 65.2044 40.5769 66.1939 40.5769C67.1648 40.5769 67.9116 40.82 68.4343 41.3062C68.9571 41.7924 69.2185 42.4844 69.2185 43.382C69.2185 43.8122 69.1531 44.2329 69.0225 44.6444C68.9104 45.0371 68.7517 45.3924 68.5464 45.7103C68.3597 46.0282 68.1356 46.2901 67.8742 46.4958C67.6129 46.6828 67.3515 46.7763 67.0901 46.7763C66.8661 46.7763 66.6327 46.7108 66.39 46.5799C66.1659 46.4303 65.9792 46.2433 65.8299 46.0189C67.0808 44.8781 67.7062 43.8402 67.7062 42.9052C67.7062 42.3628 67.4915 42.0917 67.0621 42.0917C66.6887 42.0917 66.2219 42.2693 65.6618 42.6246C65.1017 42.98 64.5603 43.4475 64.0376 44.0272C63.2347 44.9249 62.628 45.916 62.2172 47.0007C62.1799 47.0942 62.1425 47.1877 62.1052 47.2812H62.7213C63.0574 47.2812 63.3281 47.2812 63.5335 47.2812C63.7575 47.2625 63.9815 47.2345 64.2056 47.1971C64.2429 47.2532 64.2709 47.356 64.2896 47.5056C64.3269 47.6365 64.3456 47.7394 64.3456 47.8142C64.3456 48.2443 64.2149 48.5809 63.9535 48.8241C63.6922 49.0672 63.3468 49.1887 62.9173 49.1887C62.5066 49.1887 62.0959 49.1607 61.6851 49.1046H61.6571Z" fill="white"/>
<path d="M79.2981 36.6777C80.5117 35.3873 81.1185 34.2465 81.1185 33.2554C81.1185 33.1806 81.0998 33.1245 81.0624 33.0871C79.5875 34.471 78.2713 36.1167 77.1137 38.0242C77.6365 37.7998 78.0566 37.5847 78.374 37.379C78.71 37.1546 79.0181 36.9208 79.2981 36.6777ZM81.4265 37.4912C80.8477 38.0522 80.2316 38.4823 79.5782 38.7816C78.9434 39.0808 77.8325 39.3239 76.2456 39.5109C74.976 41.9234 73.9212 44.7005 73.081 47.8422C73.6038 46.8698 74.1919 45.9347 74.8453 45.0371C75.4988 44.1207 76.1429 43.3166 76.7777 42.6246C77.4311 41.9327 78.0472 41.381 78.626 40.9696C79.2234 40.5582 79.7182 40.3525 80.1103 40.3525C80.409 40.4273 80.6984 40.5582 80.9784 40.7452C81.2585 40.9322 81.5105 41.166 81.7346 41.4465C81.9586 41.7083 82.1453 41.9982 82.2947 42.3161C82.444 42.6153 82.5374 42.9332 82.5747 43.2698C82.5561 44.0553 82.416 44.8968 82.1546 45.7945C81.9119 46.6734 81.5759 47.543 81.1465 48.4033C80.7357 49.2635 80.2596 50.0864 79.7182 50.8718C79.1954 51.6573 78.6353 52.3492 78.0379 52.9477C77.4591 53.5274 76.871 53.9949 76.2736 54.3502C75.6948 54.7056 75.144 54.8832 74.6213 54.8832C74.3972 54.8832 74.1639 54.8552 73.9212 54.7991C73.6971 54.7617 73.4824 54.6962 73.277 54.6027C73.0903 54.5279 72.9316 54.4437 72.8009 54.3502C72.6889 54.2567 72.6329 54.1632 72.6329 54.0697C73.4917 53.49 74.3319 52.7513 75.1534 51.8536C75.9749 50.9373 76.7217 49.9555 77.3938 48.9082C78.0659 47.8422 78.6353 46.7389 79.1021 45.5981C79.5688 44.4573 79.8862 43.3633 80.0543 42.3161C80.0543 42.0917 79.9329 41.9421 79.6902 41.8672C79.4288 41.8672 79.0648 42.101 78.598 42.5685C78.1499 43.0174 77.6458 43.5971 77.0857 44.3077C76.5443 45.0184 75.9842 45.8132 75.4054 46.6921C74.8453 47.5711 74.3319 48.45 73.8651 49.329C73.3984 50.1892 72.997 51.0027 72.6609 51.7695C72.3435 52.5175 72.1662 53.1253 72.1288 53.5928C71.9421 53.5928 71.7834 53.4058 71.6527 53.0318C71.6154 52.9383 71.5501 52.8448 71.4567 52.7513C71.3633 52.6391 71.214 52.5082 71.0086 52.3586C70.9153 52.2838 70.8219 52.1996 70.7286 52.1061C70.6352 51.9939 70.5699 51.9004 70.5325 51.8256C70.4579 51.676 70.4205 51.4329 70.4205 51.0962C70.4205 49.9929 70.5605 48.7493 70.8406 47.3654C71.1206 45.9815 71.4847 44.5696 71.9328 43.1296C72.3995 41.6896 72.941 40.2777 73.5571 38.8938C74.1732 37.4912 74.808 36.2102 75.4614 35.0507C76.1336 33.8912 76.8057 32.9094 77.4778 32.1053C78.1499 31.3011 78.7847 30.7681 79.3821 30.5063C79.5688 30.5624 79.7929 30.6559 80.0543 30.7868C80.3156 30.9178 80.577 31.0674 80.8384 31.2357C81.0998 31.404 81.3425 31.5723 81.5665 31.7406C81.8092 31.9089 81.9866 32.0585 82.0986 32.1894C82.6027 32.7131 82.8548 33.3676 82.8548 34.153C82.8548 34.7515 82.7334 35.3593 82.4907 35.9764C82.248 36.5748 81.8933 37.0798 81.4265 37.4912Z" fill="white"/>
<path d="M92.9276 42.5405C93.1143 42.5405 93.329 42.5779 93.5717 42.6527C93.8331 42.7088 94.0665 42.7929 94.2719 42.9052C94.4772 42.9987 94.6453 43.1015 94.776 43.2137C94.9253 43.3259 95 43.4288 95 43.5223C94.6266 44.3077 94.2812 45.1025 93.9638 45.9067C93.6464 46.6921 93.3757 47.4495 93.1517 48.1789C92.9276 48.9082 92.7503 49.5908 92.6196 50.2266C92.5076 50.8625 92.4515 51.4142 92.4515 51.8817C92.4515 52.4053 92.5076 52.8448 92.6196 53.2001C92.7316 53.5367 92.9183 53.7799 93.1797 53.9295C92.9556 54.0791 92.6663 54.2006 92.3115 54.2941C91.9568 54.3876 91.6394 54.4344 91.3593 54.4344C90.3512 54.4344 89.8471 53.7424 89.8471 52.3586C89.8471 51.2926 90.2018 49.8339 90.9113 47.9825C90.5379 48.8428 90.1085 49.6563 89.623 50.423C89.1376 51.171 88.6429 51.8349 88.1388 52.4147C87.6347 52.9944 87.1212 53.4713 86.5985 53.8453C86.0944 54.2006 85.6276 54.4157 85.1982 54.4905C84.5074 54.4531 83.9473 54.1258 83.5179 53.5087C83.0885 52.8728 82.8738 52.0687 82.8738 51.0962C82.8738 50.049 83.0978 48.9456 83.5459 47.7861C83.994 46.6267 84.5634 45.5514 85.2542 44.5602C85.9637 43.569 86.7292 42.7462 87.5507 42.0917C88.3721 41.4184 89.1656 41.0631 89.9311 41.0257C90.1178 41.0818 90.3232 41.194 90.5472 41.3623C90.7899 41.5306 91.0139 41.727 91.2193 41.9514C91.4434 42.1758 91.6301 42.4096 91.7794 42.6527C91.9288 42.8771 92.0128 43.0735 92.0315 43.2418C91.2847 43.354 90.5099 43.7187 89.707 44.3358C88.9229 44.9529 88.2041 45.701 87.5507 46.5799C86.9159 47.4402 86.3931 48.3659 85.9824 49.357C85.5716 50.3482 85.3663 51.2739 85.3663 52.1342C85.3663 52.4895 85.4969 52.7139 85.7583 52.8074C86.2998 52.6952 86.9252 52.237 87.6347 51.4329C88.3441 50.61 89.2029 49.3477 90.2111 47.6459C90.3978 47.3093 90.6032 46.9352 90.8272 46.5238C91.07 46.1124 91.3127 45.6823 91.5554 45.2334C91.7981 44.7846 92.0315 44.3358 92.2555 43.887C92.4982 43.4194 92.7223 42.9706 92.9276 42.5405Z" fill="white"/>
</svg>
