<svg width="284" height="160" viewBox="0 0 284 160" fill="none" xmlns="http://www.w3.org/2000/svg">
<path fill-rule="evenodd" clip-rule="evenodd" d="M256.881 51.3577C286.812 -2.39094 292.613 -69.7818 268.355 -118.358L267.265 -117.814C291.305 -69.6756 285.6 -2.7161 255.817 50.7654C226.036 104.245 174.217 143.333 120.848 156.707C89.6388 164.525 58.1676 163.867 29.0272 156.093C55.1033 148.631 80.1562 135.027 100.809 114.116C114.714 100.038 125.749 83.0994 133.706 64.8279C157.652 70.3282 185.888 66.3724 206.097 46.4263C231.183 21.6634 235.458 -18.3918 231.334 -51.4796C223.731 -112.474 191.978 -168.195 140.769 -188.883C87.4687 -210.415 19.9465 -190.595 -30.7525 -147.431C-42.453 -137.471 -53.4856 -126.21 -63.1816 -113.833C-95.0733 -95.3203 -123.74 -67.4613 -144.743 -34.5753C-161.718 -7.99089 -174.347 22.8441 -174.688 53.1458C-174.97 78.456 -166.72 101.633 -155.793 122.026C-143.376 145.208 -127.095 165.903 -106.134 179.798C-76.9759 199.132 -41.9247 203.721 -5.41031 199.446C31.1021 195.171 69.1252 182.03 104.29 165.844L103.781 164.738C68.6793 180.894 30.7861 193.982 -5.55153 198.236C-41.8871 202.49 -76.6195 197.907 -105.461 178.783C-126.204 165.033 -142.364 144.518 -154.72 121.451C-165.59 101.164 -173.749 78.1932 -173.47 53.159C-173.133 23.1691 -160.625 -7.44171 -143.717 -33.9199C-123.376 -65.7691 -95.8361 -92.8487 -65.1821 -111.238C-75.2518 -97.9646 -83.7701 -83.453 -89.9425 -67.9226C-96.1846 -52.2106 -99.8291 -35.8084 -101.112 -19.5024C-108.855 -12.1286 -115.809 -3.72387 -121.609 5.50492C-132.239 22.4207 -139.496 41.9094 -140.704 61.203C-142.643 92.1366 -128.66 120.031 -107.746 137.099C-86.8382 154.17 -59.7418 161.37 -32.287 162.893C-13.0443 163.957 7.10835 162.067 26.7392 156.731C56.624 165.062 89.0224 165.935 121.144 157.889C174.849 144.43 226.941 105.122 256.881 51.3577ZM99.9425 113.26C78.9403 134.525 53.3385 148.184 26.7439 155.468C6.91148 149.9 -11.8004 141.024 -28.5641 129.275C-56.5707 109.644 -79.7344 81.7711 -91.7137 47.0146C-98.7117 26.7205 -101.674 3.99307 -99.9337 -18.9416C-89.2867 -29.0085 -77.1547 -37.1127 -64.5008 -42.7098C-42.5655 -52.4123 -19.1142 -54.5612 0.878566 -46.4184C20.8481 -38.281 35.3045 -19.4088 41.6678 3.16764C43.1481 8.41992 44.1893 13.8692 44.7595 19.4256C26.1069 11.6912 5.65979 7.77163 -15.1374 13.8298C-28.6268 17.7593 -41.831 27.1818 -51.3248 39.228C-60.8181 51.2733 -66.6495 66.0055 -65.282 80.5744C-63.0671 104.138 -41.9902 119.59 -19.9999 117.202C1.93834 114.829 23.0536 97.1501 34.9757 75.2508C44.2437 58.2312 47.6263 39.291 46.1586 21.3394C50.9595 23.4082 55.644 25.7246 60.1877 28.1826C66.8542 31.7914 73.3536 35.6964 79.8652 39.6089C84.3813 42.3223 88.9036 45.0393 93.4914 47.6636C104.66 54.0522 116.139 59.8402 128.6 63.4937C129.885 63.8712 131.187 64.2212 132.502 64.5426C124.613 82.6 113.692 99.3403 99.9425 113.26ZM44.8908 20.8C44.8502 20.3412 44.8065 19.883 44.7595 19.4256C45.1861 19.6024 45.6117 19.7813 46.0363 19.9621C46.0802 20.4205 46.121 20.8796 46.1586 21.3394C45.7369 21.1576 45.3143 20.9778 44.8908 20.8ZM44.8908 20.8C46.4742 38.7189 43.1634 57.6692 33.9065 74.6686C22.1053 96.3457 1.28464 113.675 -20.1305 115.991C-41.4897 118.311 -61.9224 103.304 -64.0697 80.4602C-65.4 66.2878 -59.7285 51.8578 -50.3686 39.9817C-41.0094 28.1064 -28.0104 18.8481 -14.7972 14.9991C5.86498 8.98018 26.233 12.9654 44.8908 20.8ZM46.0363 19.9621C45.4751 14.1059 44.3974 8.36356 42.8397 2.83689C36.4005 -20.009 21.7351 -39.2347 1.33828 -47.5462C-19.0389 -55.8456 -42.8426 -53.6212 -64.9929 -43.8236C-77.3864 -38.3417 -89.2785 -30.4827 -99.787 -20.7465C-98.4231 -36.4916 -94.8363 -52.3069 -88.811 -67.4731C-82.3106 -83.8288 -73.1839 -99.0579 -62.3683 -112.896C-41.3086 -125.089 -18.855 -133.174 3.69147 -135.902C60.2402 -142.751 115.31 -113.544 137.376 -60.3585C152.527 -23.8426 150.319 22.9853 132.993 63.4087C131.628 63.0784 130.277 62.7168 128.943 62.3252C116.617 58.7111 105.234 52.9773 94.0961 46.6063C89.5622 44.013 85.0552 41.3055 80.5411 38.5937L80.5401 38.5931L80.5381 38.5919C73.9974 34.6627 67.4417 30.7245 60.7676 27.1115C56.0121 24.539 51.0919 22.1143 46.0363 19.9621ZM-120.578 6.1528C-115.077 -2.60169 -108.526 -10.6076 -101.245 -17.6847C-102.783 4.95895 -99.7791 27.3606 -92.8648 47.4118C-80.7915 82.4409 -57.4525 110.514 -29.263 130.272C-12.9404 141.713 5.21696 150.446 24.4548 156.078C5.58245 160.978 -13.736 162.699 -32.2195 161.677C-59.5261 160.162 -86.3381 153.006 -106.976 136.155C-127.604 119.32 -141.402 91.7974 -139.489 61.2788C-138.296 42.2285 -131.124 22.9339 -120.578 6.1528ZM3.54555 -137.111C-18.2387 -134.475 -39.9149 -126.885 -60.3374 -115.454C-51.1626 -126.83 -40.8577 -137.23 -29.9635 -146.503C20.53 -189.493 87.5793 -209.057 140.313 -187.754C190.967 -167.29 222.555 -112.067 230.126 -51.3286C234.234 -18.3679 229.92 21.1994 205.242 45.5595C185.461 65.0832 157.79 69.0489 134.196 63.6908C151.568 23.0254 153.76 -24.047 138.501 -60.8255C116.209 -114.556 60.5914 -144.02 3.54555 -137.111Z" fill="white"/>
</svg>
