<svg width="360" height="207" viewBox="0 0 360 207" fill="none" xmlns="http://www.w3.org/2000/svg">
<path opacity="0.2" d="M-292.047 227.673C-294.047 217.999 -297.632 208.724 -302.573 199.837C-282.946 199.501 -263.342 198.985 -243.738 198.211C-140.639 194.109 -36.437 182.539 56.7105 156.611C151.674 130.181 201.637 79.9249 281.892 42.5556C356.355 7.86936 438.195 -2.61775 523 0.529677V363H-339C-302.734 320.535 -282.417 274.421 -292.047 227.686V227.673Z" fill="#C2DCFC"/>
<path opacity="0.2" d="M-776.939 618.453C-781.2 597.824 -788.841 578.049 -799.371 559.098C-757.544 558.383 -715.766 557.283 -673.988 555.633C-454.275 546.886 -232.211 522.215 -33.7051 466.931C168.67 410.575 275.147 303.418 446.177 223.738C604.864 149.779 779.273 127.418 960 134.129V907H-877C-799.714 816.456 -756.417 718.128 -776.939 618.48V618.453Z" fill="#C2DCFC"/>
<path opacity="0.2" d="M-142.419 337.008L-142.409 337.058V337.076C-129.101 401.86 -157.048 465.73 -206.918 524.5H986.5V22.2173C869.157 17.9068 755.955 32.4886 652.961 80.5386L652.749 80.0854L652.961 80.5386C610.753 100.222 574.602 122.477 538.764 144.538C527.394 151.537 516.056 158.517 504.567 165.389C456.87 193.916 406.598 220.56 340.712 238.925C211.529 274.938 67.0298 291.006 -75.9175 296.702C-102.823 297.766 -129.727 298.479 -156.662 298.945C-149.997 311.103 -145.147 323.785 -142.419 337.008Z" stroke="#4B7EB7"/>
</svg>
