<svg width="360" height="528" viewBox="0 0 360 528" fill="none" xmlns="http://www.w3.org/2000/svg">
<path opacity="0.2" d="M1468.94 485.453C1473.2 464.824 1480.84 445.049 1491.37 426.098C1449.54 425.383 1407.77 424.283 1365.99 422.633C1146.28 413.886 924.211 389.215 725.705 333.931C523.33 277.575 416.853 170.418 245.823 90.7384C87.136 16.7793 -87.2729 -5.58166 -268 1.12939V774H1569C1491.71 683.456 1448.42 585.128 1468.94 485.48V485.453Z" fill="#C2DCFC"/>
<path opacity="0.2" d="M1436.94 779.453C1441.2 758.824 1448.84 739.049 1459.37 720.098C1417.54 719.383 1375.77 718.283 1333.99 716.633C1114.28 707.886 892.211 683.215 693.705 627.931C491.33 571.575 384.853 464.418 213.823 384.738C55.136 310.779 -119.273 288.418 -300 295.129V1068H1537C1459.71 977.456 1416.42 879.128 1436.94 779.48V779.453Z" fill="#C2DCFC"/>
<path opacity="0.2" d="M432.419 608.008L432.409 608.058V608.076C419.101 672.86 447.048 736.73 496.918 795.5H-696.5V293.217C-579.157 288.907 -465.955 303.489 -362.961 351.539L-362.749 351.085L-362.961 351.539C-320.753 371.222 -284.602 393.477 -248.764 415.538C-237.394 422.537 -226.056 429.517 -214.567 436.389C-166.87 464.916 -116.598 491.56 -50.7121 509.925C78.4711 545.938 222.97 562.006 365.917 567.702C392.823 568.766 419.727 569.479 446.662 569.945C439.997 582.103 435.147 594.785 432.419 608.008Z" stroke="#4B7EB7"/>
</svg>
