<svg width="768" height="754" viewBox="0 0 768 754" fill="none" xmlns="http://www.w3.org/2000/svg">
<circle opacity="0.1" cx="-65.5" cy="547.5" r="396.5" fill="#5781B2"/>
<circle opacity="0.2" cx="353.5" cy="353.5" r="353" transform="matrix(-1 0 0 1 321 98)" stroke="#A1A1A1"/>
<path opacity="0.2" d="M-638.5 495.5C-638.5 714.187 -454.507 891.5 -227.5 891.5C-0.493317 891.5 183.5 714.187 183.5 495.5C183.5 276.813 -0.493317 99.5 -227.5 99.5C-454.507 99.5 -638.5 276.813 -638.5 495.5Z" stroke="#A1A1A1"/>
<path opacity="0.2" d="M-489.5 575.5C-489.5 794.187 -305.507 971.5 -78.5 971.5C148.507 971.5 332.5 794.187 332.5 575.5C332.5 356.813 148.507 179.5 -78.5 179.5C-305.507 179.5 -489.5 356.813 -489.5 575.5Z" stroke="#A1A1A1"/>
<path opacity="0.2" d="M514.5 46.5C514.5 143.701 593.52 222.5 691 222.5C788.48 222.5 867.5 143.701 867.5 46.5C867.5 -50.7008 788.48 -129.5 691 -129.5C593.52 -129.5 514.5 -50.7008 514.5 46.5Z" stroke="#A1A1A1"/>
<circle opacity="0.2" cx="176.5" cy="176.5" r="176" transform="matrix(-1 0 0 1 947 -123)" stroke="#A1A1A1"/>
<circle opacity="0.2" cx="176.5" cy="176.5" r="176" transform="matrix(-1 0 0 1 855 -230)" stroke="#A1A1A1"/>
</svg>
