<svg width="285" height="138" viewBox="0 0 285 138" fill="none" xmlns="http://www.w3.org/2000/svg">
<circle cx="181" cy="181" r="181" transform="matrix(-1 0 0 1 442 -230.347)" fill="#F8FBFF"/>
<circle cx="102" cy="102" r="102" transform="matrix(-1 0 0 1 382.071 -145.347)" fill="#EDF5FF"/>
<path d="M0.309916 -250.893C0.309916 -250.893 46.1115 -243.159 65.447 -226.024C84.7825 -208.89 87.7737 -203.139 128.013 -213.739C168.254 -224.338 166.473 -175.152 190.511 -178.812C214.549 -182.472 255.081 -198.568 324.883 -163.004C394.686 -127.441 396.854 -31.0281 373.726 22.3348C350.599 75.6967 240.155 140.829 145.318 55.9389C50.4812 -28.9515 122.216 -168.536 222.857 -177.255C323.499 -185.975 409.406 -91.1581 373.466 3.97761C337.525 99.1133 237.712 101.375 201.557 70.9162C165.404 40.4579 192.739 -12.7265 257.9 -23.773C323.059 -34.8187 359.608 5.02286 340.271 43.8937C320.933 82.7645 223.196 97.9827 214.799 56.5614C206.401 15.1401 255.464 -18.6777 303.185 3.89833C350.908 26.4747 301.552 84.1563 249.117 67.1807C196.682 50.2049 248.386 -4.8717 298.565 15.8981C348.745 36.6683 337.348 96.6153 369.873 89.4676C402.399 82.3202 428.056 4.96344 446.714 41.4744" stroke="#DDDDDD" stroke-miterlimit="10"/>
</svg>
