<svg width="311" height="265" viewBox="0 0 311 265" fill="none" xmlns="http://www.w3.org/2000/svg">
<circle cx="181" cy="181" r="181" transform="matrix(-1 0 0 1 442 -100)" fill="#F8FBFF"/>
<circle cx="102" cy="102" r="102" transform="matrix(-1 0 0 1 382.071 -35)" fill="#EDF5FF"/>
<path d="M0.309916 -140.546C0.309916 -140.546 46.1115 -132.812 65.447 -115.677C84.7825 -98.5427 87.7737 -92.7917 128.013 -103.392C168.254 -113.991 166.473 -64.8047 190.511 -68.4648C214.549 -72.1249 255.081 -88.2205 324.883 -52.6565C394.686 -17.0937 396.854 79.319 373.726 132.682C350.599 186.044 240.155 251.176 145.318 166.286C50.4812 81.3957 122.216 -58.189 222.857 -66.9084C323.499 -75.6277 409.406 19.1891 373.466 114.325C337.525 209.46 237.712 211.722 201.557 181.263C165.404 150.805 192.739 97.6207 257.9 86.5741C323.059 75.5284 359.608 115.37 340.271 154.241C320.933 193.112 223.196 208.33 214.799 166.909C206.401 125.487 255.464 91.6694 303.185 114.245C350.908 136.822 301.552 194.503 249.117 177.528C196.682 160.552 248.386 105.475 298.565 126.245C348.745 147.015 337.348 206.962 369.873 199.815C402.399 192.667 428.056 115.311 446.714 151.822" stroke="#DDDDDD" stroke-miterlimit="10"/>
</svg>
