<svg width="135" height="93" viewBox="0 0 135 93" fill="none" xmlns="http://www.w3.org/2000/svg">
<circle cx="67.9876" cy="67.9876" r="67.9876" transform="matrix(-1 0 0 1 166.843 -45.7548)" fill="#F8FBFF"/>
<circle cx="38.3134" cy="38.3134" r="38.3134" transform="matrix(-1 0 0 1 144.333 -13.827)" fill="#EDF5FF"/>
<path d="M0.935026 -53.4723C0.935026 -53.4723 18.1391 -50.5672 25.4019 -44.1311C32.6648 -37.695 33.7883 -35.5348 48.9032 -39.5163C64.0185 -43.4977 63.3494 -25.0222 72.3786 -26.3971C81.4078 -27.7719 96.6328 -33.8177 122.852 -20.4591C149.071 -7.10095 149.886 29.1138 141.198 49.1581C132.511 69.202 91.0263 93.6672 55.4034 61.7805C19.7805 29.8938 46.7255 -22.5372 84.5286 -25.8124C122.332 -29.0876 154.601 6.52767 141.101 42.2627C127.601 77.9977 90.1085 78.8472 76.528 67.4063C62.948 55.9655 73.2157 35.9883 97.6914 31.839C122.167 27.69 135.895 42.6553 128.632 57.2561C121.368 71.8568 84.656 77.5731 81.5017 62.0143C78.3474 46.4556 96.7765 33.7529 114.702 42.2329C132.627 50.7131 114.088 72.3796 94.3925 66.0032C74.6966 59.6267 94.1179 38.9387 112.966 46.7403C131.815 54.5421 127.534 77.0595 139.751 74.3746C151.968 71.6899 161.606 42.633 168.614 56.3473" stroke="#DDDDDD" stroke-width="0.375622" stroke-miterlimit="10"/>
</svg>