<svg width="468" height="304" viewBox="0 0 468 304" fill="none" xmlns="http://www.w3.org/2000/svg">
<g clip-path="url(#clip0_376_363)">
<path fill-rule="evenodd" clip-rule="evenodd" d="M82.6725 302.372C82.6867 302.702 82.434 302.98 82.1045 302.994C81.7751 303.009 81.4968 302.756 81.4826 302.426C80.517 282.598 89.0398 271.03 100.474 255.516L101.774 253.748C101.939 253.521 102.234 253.447 102.484 253.549C110.578 256.939 120.501 260.295 128.823 260.912C133.196 261.236 137.115 260.804 140.06 259.215C142.949 257.658 144.92 254.962 145.482 250.728C145.939 247.278 145.474 242.817 143.826 237.143C143.764 236.927 143.829 236.702 143.977 236.554C147.629 232.92 149.646 229.792 149.617 227.038C149.589 224.345 147.55 221.921 143.102 219.619C142.81 219.469 142.696 219.108 142.847 218.815C142.935 218.647 143.091 218.537 143.261 218.502C148.274 217.516 151.662 216.53 153.315 214.539C154.936 212.584 154.951 209.52 153.278 204.321C153.178 204.008 153.349 203.673 153.664 203.57C153.749 203.545 153.835 203.536 153.917 203.545C163.428 204.69 166.904 202.786 167.33 199.251C167.77 195.591 165.192 190.124 162.502 184.422C160.883 180.989 159.222 177.471 158.134 174.169C155.462 166.063 157.211 163.696 159.123 161.107C160.625 159.075 162.238 156.89 161.432 150.937L161.409 150.784C161.275 149.846 160.574 144.899 159.938 139.372C159.418 139.665 158.887 139.955 158.342 140.242C149.807 144.743 140.682 147.965 131.052 149.193C121.413 150.423 111.28 149.662 100.741 146.189C97.2134 145.027 93.8025 143.643 90.5053 142.14C86.6173 147.312 82.2409 151.764 77.5918 155.401C70.6309 167.93 61.1084 172.555 52.3953 172.013C48.4335 171.766 44.6477 170.447 41.3448 168.319C39.7544 167.293 38.2748 166.077 36.9428 164.702C34.2988 163.744 31.7541 162.423 29.3543 160.718C24.515 157.282 20.2578 152.29 16.918 145.59C17.148 151.29 17.6535 157.086 18.4004 162.917C23.8106 205.196 41.8873 249.02 60.2905 268.251C67.8279 276.128 73.0109 282.894 74.854 286.551C75.6151 288.062 75.8281 289.168 75.4447 289.764C74.9932 290.463 73.985 290.446 72.3775 289.571C69.3103 287.9 63.2583 282.877 53.6222 273.247C47.076 266.706 40.3423 260.52 33.1997 254.669C26.0713 248.827 18.5481 243.326 10.4172 238.146C10.1559 238.006 10.031 237.691 10.1389 237.407C22.2032 205.753 16.438 192.696 9.74979 177.551C4.49579 165.668 -1.31486 152.512 0.264185 128.339C2.84291 88.8621 23.7056 68.5056 49.8506 61.1547C66.3965 56.5031 85.0525 57.0771 102.516 61.3195C119.973 65.5618 136.244 73.4697 148.021 83.4888C163.846 96.9518 171.587 114.22 163.329 131.573C163.258 131.723 163.121 131.843 162.948 131.891C162.63 131.976 162.303 131.791 162.218 131.473C160.577 125.5 159.864 123.23 159.739 123.264C159.213 123.409 159.969 130.527 160.835 137.489C167.393 133.576 171.934 129.308 176.032 125.455C184.387 117.601 190.945 111.435 208.72 113.174H208.752C210.558 113.415 212.262 113.765 213.872 114.197L214.75 110.744C214.818 110.477 215.059 110.295 215.323 110.295L221.989 109.858L223.636 107.414L219.791 101.274C219.617 100.995 219.703 100.629 219.981 100.455C220.08 100.393 220.188 100.364 220.296 100.364C220.529 100.362 223.417 97.6423 224.877 96.267C225.201 95.963 225.457 95.7215 225.647 95.5481C225.834 95.3776 226.101 95.3492 226.314 95.46L232.451 98.5914L234.86 97.3866L234.922 90.1692C234.922 89.8793 235.132 89.6407 235.408 89.5895L242.034 88.3506C242.153 88.1006 242.434 87.9585 242.715 88.0295C242.888 88.0721 243.022 88.1858 243.099 88.3307L246.595 94.9486L249.122 94.9997L253.448 88.6632C253.612 88.4216 253.928 88.3392 254.186 88.4557L260.883 91.0586C261.13 91.1523 261.275 91.3938 261.263 91.6439L260.888 98.8215L263.408 100.484L270.368 97.5968C270.621 97.4917 270.908 97.5741 271.067 97.7815L275.62 103.053C275.815 103.277 275.81 103.609 275.62 103.828L271.013 109.744L272.268 112.859L279.672 114.49C279.939 114.549 280.124 114.777 280.141 115.038L280.922 121.804C280.956 122.096 280.771 122.363 280.499 122.443L273.046 124.992L272.66 128.981C273.859 129.873 275.159 130.874 276.548 131.942L276.579 131.968C278.034 133.087 279.584 134.278 281.197 135.482L278.894 131.311C278.772 131.09 278.803 130.803 278.988 130.612L283.677 125.725C283.853 125.529 284.145 125.466 284.392 125.594L290.555 128.768L292.961 127.222L293.193 120.38C293.188 120.104 293.375 119.851 293.656 119.786L301.021 118.09C301.293 118.019 301.588 118.152 301.711 118.416L304.627 124.75L307.521 124.855L311.648 118.723C311.79 118.516 312.051 118.414 312.307 118.485L319.074 120.437C319.339 120.499 319.534 120.741 319.532 121.025L319.404 128.416L321.298 130.26L326.759 128.171C326.955 128.097 327.188 128.129 327.359 128.276C327.609 128.49 327.637 128.867 327.424 129.118L320.185 137.619C321.386 139.694 322.292 141.714 322.94 143.663C323.692 145.922 324.107 148.082 324.255 150.113C324.97 160.067 320.651 166.455 314.621 169.515C312.114 170.788 309.308 171.481 306.448 171.609C303.594 171.737 300.685 171.305 297.962 170.328C290.907 167.799 285.085 161.638 284.645 152.162C284.614 151.489 284.617 150.827 284.648 150.176C284.815 146.902 285.784 143.91 287.425 141.347C285.94 140.367 284.475 139.347 283.046 138.315L281.91 140.688C281.816 140.884 281.629 141.006 281.424 141.023L274.35 141.64L272.97 147.971L279.184 151.48C279.365 151.582 279.471 151.764 279.485 151.957L279.684 154.702C279.698 154.913 279.601 155.106 279.445 155.222L273.643 159.854L275.583 165.673L282.819 164.937C283.04 164.915 283.245 165.017 283.364 165.187L285.389 168.063C285.5 168.222 285.525 168.418 285.469 168.592L283.06 175.943L288.073 179.304L293.415 175.065C293.594 174.922 293.832 174.9 294.028 174.988L298.697 176.741C298.905 176.818 299.044 176.997 299.078 177.201L300.24 184.103L306.218 184.274L308.177 177.784C308.245 177.557 308.436 177.4 308.654 177.366L313.156 176.582C313.357 176.548 313.553 176.619 313.684 176.755C313.883 176.946 314.153 177.193 314.491 177.503C315.76 178.665 317.907 180.631 318.824 181.731L323.681 178.659L322.082 171.947C322.031 171.726 322.108 171.504 322.267 171.362L325.765 167.796C325.919 167.64 326.137 167.586 326.336 167.637L333.044 169.163L335.524 164.037L330.42 159.237C330.272 159.098 330.213 158.905 330.238 158.72L330.892 154.211C330.923 153.981 331.082 153.802 331.286 153.731L337.691 151.168L336.952 145.379L330.119 143.962C329.918 143.919 329.761 143.783 329.687 143.603L328.185 139.944C328.106 139.75 328.137 139.537 328.248 139.378L332.3 133.539L328.214 128.595C328.003 128.342 328.04 127.964 328.293 127.754C328.401 127.663 328.534 127.62 328.665 127.617L334.714 127.259C334.922 127.248 335.112 127.344 335.228 127.498L336.398 129.027C336.526 129.197 336.552 129.413 336.484 129.598L333.933 136.329L338.889 139.918L344.481 135.644C344.66 135.508 344.89 135.488 345.08 135.571L348.943 137.065C349.136 137.139 349.269 137.307 349.309 137.494L350.874 144.646L356.957 144.732L359.138 138.313C359.206 138.111 359.374 137.969 359.567 137.923L364.009 136.878C364.228 136.827 364.446 136.903 364.588 137.06L369.78 141.916L374.596 139.097L372.941 132.436C372.892 132.238 372.949 132.039 373.077 131.897L376.309 128.302C376.457 128.137 376.675 128.075 376.877 128.117L383.818 129.623L384.519 128.282C379.958 128.313 376.19 126.268 372.782 123.577C371.725 125.128 370.464 126.529 369.041 127.739C366.613 129.805 363.711 131.308 360.553 132.024C354.591 133.377 347.741 131.916 341.493 126.12L326.274 127.469C326.015 127.492 325.763 127.342 325.666 127.086L323.119 120.386C323.022 120.133 323.107 119.84 323.34 119.681L329.384 115.566L329.063 112.515L322.505 109.156C322.232 109.045 322.076 108.75 322.15 108.457L323.948 101.399C324.01 101.157 324.22 100.97 324.485 100.95L331.675 100.418L332.922 98.1822L329.321 91.9366C329.171 91.7064 329.193 91.3939 329.392 91.1893L334.586 85.9268C334.768 85.7421 335.058 85.691 335.296 85.8217L341.729 89.3224L343.836 88.0892L344.118 80.869C344.126 80.6075 344.308 80.3745 344.575 80.312L351.601 78.6185C351.854 78.5446 352.138 78.6469 352.28 78.8856L356.119 85.2875L358.417 85.2363L362.705 79.2862C362.85 79.0674 363.129 78.9652 363.39 79.0504L370.163 81.3321C370.422 81.4088 370.603 81.6532 370.589 81.9345L370.214 89.0695L372.628 90.8937L379.277 88.0949C379.524 87.9784 379.828 88.0437 380.001 88.271L384.323 93.8972C384.502 94.1018 384.522 94.4115 384.358 94.6388L380.367 100.16L381.569 103.249L388.672 104.746C388.93 104.786 389.14 104.996 389.171 105.269L389.955 112C389.984 112.265 389.836 112.523 389.577 112.623L382.898 115.214L382.262 118.76L387.592 124.063C387.771 124.242 387.822 124.523 387.7 124.762L386.63 126.81C391.091 126.151 396.328 123.426 402.71 117.379C402.948 117.152 403.326 117.161 403.553 117.399C403.78 117.638 403.772 118.016 403.533 118.243C396.47 124.935 390.748 127.739 385.902 128.208L384.687 130.535C384.579 130.797 384.295 130.95 384.011 130.888L376.965 129.359L374.176 132.462L375.863 139.247C375.923 139.498 375.818 139.767 375.585 139.904L369.999 143.172C369.777 143.299 369.487 143.277 369.291 143.092L363.972 138.114L360.161 139.012L357.948 145.527C357.866 145.763 357.642 145.934 357.378 145.931L350.434 145.834C350.144 145.854 349.874 145.658 349.812 145.365L348.216 138.063L344.941 136.795L339.284 141.117C339.079 141.291 338.775 141.308 338.548 141.143L332.865 137.025C332.652 136.872 332.562 136.588 332.658 136.332L335.251 129.484L334.47 128.464L329.883 128.734L333.499 133.107C333.675 133.309 333.7 133.613 333.541 133.843L329.415 139.787L330.673 142.853L337.614 144.291C337.858 144.342 338.051 144.541 338.085 144.8L338.932 151.437C338.98 151.71 338.832 151.986 338.565 152.094L332.025 154.711L331.465 158.572L336.657 163.454C336.844 163.628 336.904 163.909 336.787 164.15L333.913 170.098C333.797 170.342 333.521 170.481 333.246 170.419L326.385 168.859L323.32 171.982L324.942 178.787C324.999 179.028 324.899 179.29 324.678 179.429L319.023 183.004C318.964 183.046 318.895 183.078 318.822 183.097C318.504 183.177 318.177 182.984 318.097 182.663C318.015 182.327 315.192 179.744 313.687 178.366L313.065 177.795L309.211 178.466L307.229 185.041C307.152 185.294 306.916 185.473 306.641 185.467L299.748 185.271C299.456 185.28 299.194 185.069 299.143 184.774L297.959 177.727L293.895 176.201L288.476 180.503C288.277 180.659 287.993 180.679 287.775 180.532L282.055 176.696C281.819 176.556 281.703 176.269 281.791 175.997L284.247 168.501L282.595 166.154L275.23 166.904C274.961 166.929 274.697 166.767 274.608 166.497L272.402 159.871C272.302 159.632 272.368 159.345 272.581 159.175L278.477 154.469L278.326 152.355L272.055 148.815C271.805 148.701 271.658 148.426 271.717 148.144L273.282 140.975C273.328 140.717 273.543 140.509 273.819 140.486L280.996 139.861L282.078 137.599C279.885 135.994 277.792 134.383 275.861 132.9L275.827 132.874C274.339 131.729 272.947 130.66 271.695 129.731C271.53 129.612 271.431 129.41 271.45 129.191L271.905 124.517C271.916 124.278 272.069 124.06 272.308 123.977L279.692 121.454L279.013 115.558L271.72 113.95C271.536 113.907 271.371 113.779 271.297 113.589L269.795 109.864C269.718 109.673 269.744 109.449 269.88 109.275L274.413 103.453L270.439 98.8528L263.586 101.694C263.41 101.765 263.203 101.754 263.033 101.64L259.991 99.6342C259.804 99.5262 259.681 99.3188 259.693 99.0886L260.062 92.0019L254.177 89.7145L249.937 95.926C249.827 96.0852 249.642 96.1903 249.435 96.1846L246.268 96.1193C246.047 96.1278 245.831 96.0113 245.72 95.801L242.386 89.4872L236.124 90.6579L236.064 97.7474C236.064 97.9634 235.942 98.1708 235.734 98.2759L232.772 99.7564C232.602 99.8587 232.383 99.8757 232.193 99.7791L226.161 96.6989L225.709 97.1223C224.497 98.2646 222.364 100.271 221.131 101.132L224.837 107.053C224.988 107.252 225.005 107.531 224.857 107.75L222.832 110.756C222.733 110.904 222.568 111.006 222.375 111.017L215.82 111.446L215.039 114.515C219.865 115.973 223.821 118.175 227.192 120.397C227.498 116.97 228.649 113.756 230.486 111.04C232.403 108.204 235.07 105.911 238.316 104.482C241.071 103.271 244.24 102.683 247.714 102.925C248.307 102.964 248.878 103.021 249.42 103.089C255.677 103.871 260.178 106.474 263.024 110.341C265.858 114.194 267.026 119.28 266.628 125.054C266.591 125.577 266.543 126.1 266.483 126.62L277.437 134.65C277.696 134.84 277.755 135.198 277.582 135.463L275.046 139.773C274.924 139.983 274.691 140.091 274.464 140.063L267.486 139.222L264.757 141.674L266.625 148.84C266.696 149.113 266.566 149.392 266.327 149.517L259.991 152.85C259.744 152.98 259.446 152.918 259.267 152.719L254.791 147.684L251.071 148.462L248.509 155.151C248.409 155.413 248.148 155.563 247.884 155.532L240.858 155.077C240.577 155.06 240.352 154.85 240.307 154.583L239.123 147.661L235.385 146.209L229.708 150.827C229.481 151.011 229.157 151 228.944 150.815L223.588 146.175C223.392 146.005 223.332 145.732 223.426 145.502L225.982 139.142L223.96 136.355L217.05 137.102C216.763 137.133 216.505 136.954 216.42 136.693L213.881 129.72C213.784 129.453 213.889 129.16 214.119 129.015L219.953 124.98L219.629 121.69L213.222 118.888C212.949 118.769 212.813 118.473 212.884 118.195L213.605 115.353C212.038 114.93 210.382 114.589 208.624 114.359C191.394 112.677 185.009 118.678 176.875 126.324C172.635 130.308 167.932 134.732 161.023 138.779C161.738 144.43 162.485 149.681 162.619 150.633L162.641 150.79C163.513 157.223 161.75 159.61 160.108 161.832C158.39 164.159 156.816 166.284 159.299 173.809C160.369 177.059 162.011 180.534 163.61 183.927C166.376 189.789 169.029 195.41 168.546 199.408C168.049 203.536 164.428 205.858 154.718 204.846C156.243 209.964 156.075 213.129 154.263 215.314C152.576 217.346 149.518 218.417 145.11 219.363C149.004 221.676 150.81 224.2 150.838 227.041C150.87 230.084 148.822 233.406 145.099 237.163C146.715 242.846 147.163 247.358 146.695 250.895C146.076 255.558 143.88 258.542 140.657 260.278C137.493 261.983 133.355 262.452 128.771 262.114C120.445 261.497 110.595 258.21 102.49 254.842L101.468 256.232C90.1758 271.556 81.7609 282.976 82.7066 302.383L82.6725 302.372ZM159.793 138.091C158.949 130.544 158.31 122.417 159.424 122.11C160.176 121.903 161.292 123.966 162.917 129.569C169.784 113.29 162.213 97.1223 147.251 84.3953C135.61 74.4926 119.513 66.67 102.234 62.4731C84.9616 58.2762 66.5158 57.7051 50.1716 62.2998C24.4894 69.5229 3.99311 89.5526 1.45415 128.413C-0.107855 152.293 5.64315 165.313 10.8375 177.071C17.5996 192.383 23.4329 205.596 11.4226 237.379C19.474 242.527 26.9119 247.977 33.9551 253.746C41.1148 259.613 47.8768 265.825 54.46 272.403C64.0137 281.947 69.9664 286.906 72.9455 288.528C73.8913 289.043 74.3741 289.224 74.4451 289.116C74.5814 288.906 74.3513 288.204 73.789 287.09C71.9913 283.522 66.885 276.87 59.4328 269.081C40.8762 249.688 22.6604 205.579 17.219 163.071C16.3471 156.251 15.8018 149.468 15.6371 142.836C14.9442 141.231 14.2995 139.54 13.7059 137.761C6.82459 117.107 10.4428 103.666 18.0057 96.0738C20.1641 93.9057 22.6434 92.2179 25.2931 90.9762C30.4648 80.994 37.8942 72.9952 48.0274 67.9259C59.5805 62.1463 74.6297 60.1886 93.8309 63.4648C118.908 67.7412 137.382 80.3433 146.891 93.4994C150.563 98.58 152.903 103.752 153.781 108.574C154.669 113.45 154.062 117.97 151.824 121.687C149.151 126.128 144.17 129.39 136.655 130.703C130.495 131.777 123.182 130.979 117.19 128.436C113.586 126.907 110.451 124.742 108.312 121.974C105.85 122.326 103.476 122.633 101.192 122.898C98.5482 129.66 95.1544 135.787 91.238 141.171C94.4273 142.617 97.7217 143.947 101.121 145.067C111.487 148.482 121.444 149.232 130.91 148.025C140.384 146.814 149.376 143.638 157.793 139.199C158.484 138.835 159.151 138.469 159.799 138.097L159.793 138.091ZM15.5832 139.517C15.515 127.498 16.7447 116.032 19.579 105.78C20.8514 101.174 22.4503 96.8154 24.3985 92.7606C22.3963 93.8546 20.5191 95.2327 18.8463 96.912C11.5702 104.218 8.11963 117.246 14.8306 137.386C15.072 138.111 15.3219 138.821 15.5832 139.517ZM20.7264 106.099C17.6819 117.109 16.5118 129.549 16.8186 142.578C20.2209 150.363 24.7791 156.018 30.0445 159.755C31.7002 160.931 33.4269 161.914 35.2076 162.718C34.4777 161.786 33.8103 160.8 33.2111 159.766C30.8425 155.668 29.5645 150.812 29.8797 145.607C25.4948 140.708 23.2512 133.905 22.74 126.586C22.1975 118.834 23.6005 110.486 26.4547 103.22L26.4462 103.124C26.111 98.7221 27.0056 94.6076 28.8375 90.854C27.9315 91.1495 27.0397 91.4933 26.165 91.8854C23.9299 96.267 22.1294 101.032 20.7264 106.101V106.099ZM48.5556 68.9887C39.1097 73.7141 32.0637 81.0622 27.0397 90.226C27.8861 89.8992 28.7466 89.6122 29.6156 89.3707C33.8273 81.9658 41.7367 76.1009 50.9355 72.4439C59.0068 69.2359 68.0721 67.7242 76.487 68.3635C84.9474 69.0057 92.7659 71.8216 98.2869 77.2745C106.364 85.2477 109.494 98.8073 102.482 119.354C102.217 120.13 101.945 120.894 101.661 121.653C103.558 121.426 105.518 121.17 107.54 120.883C105.802 118.175 104.981 114.961 105.489 111.264C106.051 107.187 108.244 102.53 112.632 97.3326C119.238 89.5071 126.633 87.7511 132.557 89.311C136.51 90.351 139.805 92.8771 141.779 96.071C143.767 99.2847 144.417 103.178 143.065 106.923C141.148 112.239 135.19 117.234 123.262 119.479C118.457 120.383 113.932 121.144 109.672 121.772C111.66 124.119 114.455 125.983 117.642 127.336C123.427 129.791 130.49 130.564 136.439 129.524C143.585 128.276 148.294 125.216 150.793 121.068C152.875 117.609 153.434 113.37 152.599 108.781C151.753 104.135 149.481 99.1284 145.914 94.1927C136.564 81.2554 118.366 68.8608 93.6208 64.6412C74.6836 61.4104 59.8787 63.3227 48.5499 68.9915L48.5556 68.9887ZM106.671 111.429C106.174 115.029 107.051 118.127 108.846 120.695C113.276 120.047 118.005 119.255 123.046 118.306C134.486 116.155 140.163 111.475 141.949 106.519C143.17 103.138 142.574 99.6143 140.77 96.6932C138.953 93.7523 135.911 91.4251 132.256 90.4618C126.732 89.007 119.8 90.6892 113.543 98.0998C109.312 103.112 107.204 107.562 106.671 111.426V111.429ZM99.8432 123.048C98.5766 123.187 97.3383 123.312 96.1256 123.426L96.0887 123.52C93.7883 129.47 90.5394 134.911 86.4725 138.898C87.6738 139.498 88.8893 140.086 90.1247 140.66C93.9275 135.468 97.2361 129.561 99.8404 123.045L99.8432 123.048ZM94.8022 123.548C90.3604 123.935 86.2964 124.139 82.5845 124.185C82.9793 128.453 83.002 132.777 82.647 136.932C83.5387 137.403 84.4419 137.872 85.3535 138.335C89.321 134.553 92.5132 129.316 94.8022 123.548ZM81.3917 124.19C75.2147 124.207 70.0487 123.764 65.7831 122.957C64.8487 124.213 63.903 125.353 62.9459 126.381C66.6237 128.123 70.523 130.285 74.6495 132.57C76.8704 133.8 79.1566 135.068 81.511 136.326C81.8205 132.365 81.7808 128.254 81.3945 124.19H81.3917ZM64.488 122.696C59.4754 121.613 55.7976 119.994 53.2359 118.013C52.0602 118.624 50.785 118.925 49.4786 118.959C46.7408 119.03 43.8753 117.914 41.5266 116.055C39.1836 114.203 37.3404 111.603 36.6389 108.707C35.6336 104.561 36.9457 99.8331 42.4155 95.8408C44.6534 94.2098 46.8033 92.9197 48.8652 91.9451C45.318 90.226 41.075 89.365 36.7327 89.49C34.0687 91.9252 31.7257 95.1162 29.7945 98.7647C29.0135 100.239 28.3007 101.788 27.6617 103.393C28.4001 112.358 31.0839 119.823 34.9179 124.977C35.6875 126.015 36.5055 126.955 37.3603 127.799C43.9889 120.227 52.1113 121.437 61.807 125.847C62.7102 124.901 63.6048 123.849 64.488 122.69V122.696ZM52.2277 117.163C50.2056 115.299 49.0583 113.165 48.6294 110.881C47.7206 106.053 50.0125 100.592 54.068 95.6305C53.7187 95.2725 53.3495 94.9258 52.9661 94.5962C52.1226 93.8745 51.1911 93.2238 50.1943 92.6498C47.9535 93.6273 45.5935 94.9969 43.117 96.8041C38.1129 100.455 36.8974 104.718 37.7977 108.429C38.4338 111.057 40.1179 113.424 42.265 115.123C44.4063 116.817 46.9964 117.834 49.453 117.771C50.4101 117.746 51.3473 117.553 52.2306 117.166L52.2277 117.163ZM49.7995 110.662C50.2056 112.822 51.3189 114.836 53.287 116.589C54.7496 115.626 56.0049 114.038 56.8569 111.688C59.1289 105.442 57.9816 100.285 54.8689 96.5284C51.0946 101.188 48.9674 106.246 49.7967 110.662H49.7995ZM54.2612 117.379C56.749 119.235 60.3274 120.738 65.2037 121.732L65.6268 121.136C67.1065 119.016 68.1573 116.541 68.7679 113.896C69.8073 109.403 69.5801 104.431 68.0579 99.8587C67.0298 96.7671 65.4082 93.8603 63.1901 91.4109C62.4233 91.1751 61.6338 90.9989 60.8244 90.8852L60.5205 90.8454C59.5862 91.624 58.6887 92.4367 57.8396 93.2692C57.0671 94.0279 56.3372 94.8065 55.6499 95.5964C59.1318 99.6683 60.4552 105.286 57.9787 112.091C57.0841 114.552 55.7862 116.271 54.2612 117.376V117.379ZM66.4902 121.98C70.5486 122.699 75.4419 123.088 81.2753 123.059C80.9004 119.678 80.2898 116.348 79.4406 113.177C77.8758 107.329 75.5101 102.055 72.3719 98.0884C70.3839 95.5737 68.0806 93.5846 65.4735 92.3117C67.1008 94.4911 68.3391 96.9291 69.1882 99.4836C70.7786 104.266 71.0172 109.466 69.9295 114.163C69.2848 116.95 68.1743 119.564 66.601 121.818L66.4874 121.977L66.4902 121.98ZM82.4709 123.048C86.3305 122.994 90.5848 122.767 95.268 122.338C98.6305 113.265 99.775 103.092 98.2216 95.2725C95.8104 83.1365 87.4409 80.0392 78.3444 81.8464C73.025 82.9035 67.4558 85.6114 62.6477 89.1718C63.0652 89.5554 63.4656 89.9561 63.849 90.3681C67.5211 91.5729 70.6764 94.0308 73.3034 97.3496C76.5495 101.453 78.9862 106.877 80.5908 112.87C81.4627 116.132 82.0903 119.564 82.4681 123.048H82.4709ZM96.5829 122.213C97.8041 122.093 99.0508 121.96 100.329 121.815C100.687 120.88 101.027 119.934 101.354 118.976C108.19 98.938 105.216 85.7961 97.4519 78.1297C92.1468 72.8929 84.5952 70.1821 76.399 69.5598C68.1573 68.9347 59.2766 70.4151 51.3757 73.5578C42.8387 76.9505 35.4461 82.2812 31.2515 88.9729C32.9072 88.612 34.5856 88.3989 36.2499 88.325C40.7939 84.3015 46.2353 82.338 52.2022 83.719C55.2921 84.435 57.9929 85.6682 60.3018 87.2822C60.7988 87.6289 61.276 87.9926 61.736 88.3733C66.7288 84.6339 72.5536 81.7839 78.1229 80.6757C87.8612 78.7407 96.8186 82.0539 99.3973 95.0423C100.959 102.908 99.8688 113.077 96.5857 122.213H96.5829ZM54.8434 94.7184C55.525 93.937 56.2492 93.1698 57.0074 92.4225C57.5925 91.8485 58.1974 91.2859 58.8222 90.7346C56.5701 90.7062 54.1532 91.1353 51.5717 92.0957C52.3385 92.5844 53.0655 93.1186 53.7386 93.6926C54.122 94.0194 54.4912 94.3604 54.8405 94.7156L54.8434 94.7184ZM60.1513 89.6094C60.3558 89.4446 60.5603 89.2798 60.7648 89.1178C60.3956 88.8195 60.0122 88.5325 59.6202 88.2568C57.4363 86.7281 54.8746 85.5603 51.938 84.8783C46.8715 83.7048 42.1855 85.1482 38.1527 88.2966C42.5319 88.3819 46.7635 89.4332 50.2681 91.3285C53.8408 89.8566 57.1381 89.3394 60.1513 89.6094ZM85.5523 139.77C84.4021 140.807 83.1866 141.725 81.9171 142.512C81.2497 146.255 80.2387 149.755 78.8783 152.827C82.6356 149.633 86.1856 145.885 89.4005 141.64C88.0998 141.032 86.8161 140.407 85.5523 139.77ZM80.1393 142.163C80.375 142.035 80.6107 141.904 80.8436 141.768C81.0736 140.412 81.2554 139.026 81.3945 137.616C78.8783 136.278 76.4359 134.926 74.0702 133.613C69.8215 131.257 65.82 129.041 62.0655 127.293C59.501 129.851 56.8796 131.618 54.2782 132.675C50.4641 134.224 46.6954 134.249 43.2135 132.993C41.1829 132.26 39.2574 131.092 37.4796 129.538C37.2552 129.825 37.0309 130.118 36.8122 130.427C33.2537 135.42 31.49 140.452 31.1095 145.192C32.3676 146.533 33.7989 147.712 35.4177 148.695C44.2416 154.057 58.6092 153.665 80.1421 142.166L80.1393 142.163ZM82.1784 140.921C82.9452 140.395 83.6893 139.816 84.4106 139.191C83.7773 138.867 83.1468 138.54 82.5249 138.213C82.4283 139.125 82.3119 140.029 82.1784 140.921ZM80.5653 143.282C58.6717 154.944 43.9377 155.262 34.7986 149.71C33.4155 148.869 32.1603 147.894 31.0271 146.806C30.9589 151.347 32.1546 155.572 34.2391 159.172C35.1905 160.814 36.3237 162.329 37.6074 163.684C42.0037 165.23 46.6897 165.739 51.4694 165.304C59.1488 164.605 67.0696 161.471 74.4167 156.288C75.1749 155.754 75.9247 155.197 76.6688 154.62C78.4353 151.389 79.7331 147.511 80.5681 143.282H80.5653ZM23.9242 126.506C24.39 133.147 26.3155 139.333 30.0303 143.947C30.6039 139.35 32.4272 134.519 35.8381 129.731C36.088 129.379 36.3436 129.044 36.5963 128.72C35.6705 127.816 34.7873 126.805 33.9608 125.691C30.354 120.84 27.7355 114.046 26.7245 105.931C24.4979 112.472 23.45 119.721 23.9242 126.506ZM27.5793 100.566C27.9485 99.7649 28.3348 98.9778 28.7409 98.2134C30.4847 94.9202 32.555 91.9849 34.8952 89.6066C33.3957 89.7458 31.8933 90.0072 30.4165 90.3908C28.7125 93.525 27.7015 96.9348 27.5793 100.566ZM53.8295 131.564C56.1838 130.606 58.5638 129.029 60.9039 126.762C51.8614 122.741 44.3013 121.741 38.2379 128.617C39.9106 130.086 41.7169 131.183 43.614 131.868C46.8204 133.025 50.2994 132.996 53.8295 131.564ZM75.1039 157.26C67.5893 162.562 59.4697 165.77 51.5774 166.486C47.4735 166.858 43.4322 166.56 39.5698 165.531C40.3395 166.182 41.1489 166.779 41.9895 167.321C45.1249 169.345 48.7175 170.595 52.4663 170.828C60.1769 171.311 68.5776 167.489 75.1039 157.257V157.26ZM228.311 121.17C229.475 121.968 230.569 122.755 231.602 123.503C237.774 127.958 241.733 130.817 246.396 124.159C248.378 121.329 251.647 120.979 254.834 121.985C256.106 122.386 257.367 123.008 258.52 123.776C259.67 124.54 260.721 125.449 261.573 126.432C263.626 128.796 264.546 131.581 263.112 133.82C261.047 137.04 258.205 139.333 255.015 140.736C251.954 142.083 248.577 142.609 245.263 142.348C241.951 142.086 238.699 141.038 235.891 139.239C232.968 137.364 230.526 134.67 229.001 131.2C227.621 128.061 227.019 124.855 227.092 121.784C223.684 119.493 219.663 117.18 214.724 115.677L214.136 117.993L220.39 120.727C220.586 120.809 220.731 120.991 220.753 121.218L221.145 125.205C221.165 125.412 221.074 125.625 220.89 125.753L215.127 129.74L217.357 135.863L224.122 135.13C224.335 135.099 224.556 135.184 224.693 135.372L227.109 138.705C227.226 138.867 227.257 139.08 227.18 139.276L224.661 145.55L229.319 149.585L234.877 145.064C235.036 144.933 235.26 144.891 235.468 144.97L239.81 146.658C240.014 146.723 240.179 146.9 240.216 147.127L241.378 153.918L247.523 154.316L250.045 147.732C250.116 147.55 250.275 147.403 250.483 147.36L254.828 146.451C255.038 146.397 255.271 146.456 255.424 146.633L259.818 151.58L265.322 148.684L263.49 141.66C263.419 141.441 263.478 141.194 263.657 141.032L266.844 138.171C266.969 138.051 267.142 137.986 267.327 138.009L274.188 138.838L276.27 135.301L265.501 127.407C265.313 127.288 265.2 127.066 265.228 126.83C265.307 126.196 265.367 125.58 265.41 124.983C265.79 119.488 264.697 114.671 262.036 111.054C259.386 107.451 255.154 105.022 249.25 104.283C248.705 104.215 248.157 104.161 247.609 104.124C244.334 103.896 241.355 104.445 238.77 105.584C235.737 106.917 233.244 109.065 231.449 111.716C229.651 114.376 228.555 117.541 228.322 120.911L228.305 121.173L228.311 121.17ZM230.906 124.469C230.074 123.866 229.2 123.238 228.282 122.599C228.328 125.262 228.904 128.015 230.094 130.72C231.52 133.962 233.8 136.48 236.535 138.233C239.174 139.927 242.235 140.91 245.356 141.157C248.478 141.401 251.658 140.91 254.535 139.642C257.52 138.33 260.178 136.184 262.11 133.175C263.212 131.459 262.396 129.191 260.673 127.211C259.892 126.313 258.926 125.475 257.861 124.77C256.799 124.065 255.64 123.494 254.473 123.125C251.755 122.267 248.992 122.525 247.37 124.841C242.014 132.488 237.671 129.353 230.906 124.469ZM283.452 137.142C284.966 138.239 286.522 139.33 288.101 140.37C288.783 139.452 289.555 138.597 290.416 137.815C293.847 134.695 298.638 132.738 304.36 132.471C305.309 132.428 306.28 132.428 307.274 132.479C311.412 132.692 314.011 134.303 315.306 136.443C315.965 137.531 316.283 138.75 316.291 139.989C316.3 141.214 316.004 142.461 315.439 143.618C314.167 146.218 311.52 148.372 307.865 148.815C302.04 149.522 295.068 146.257 288.425 141.998C286.897 144.388 285.994 147.181 285.838 150.236C285.807 150.852 285.804 151.477 285.835 152.111C286.25 161.028 291.728 166.824 298.362 169.205C300.944 170.132 303.696 170.541 306.394 170.422C309.086 170.299 311.724 169.651 314.085 168.455C319.713 165.6 323.741 159.595 323.065 150.201C322.925 148.264 322.528 146.198 321.809 144.047C321.145 142.055 320.208 139.983 318.944 137.864C318.81 137.639 318.841 137.361 319.003 137.173L325.001 130.126L321.366 131.516C321.131 131.607 320.872 131.536 320.713 131.359L318.387 129.098C318.256 128.97 318.197 128.799 318.208 128.632L318.33 121.468L312.392 119.755L308.322 125.802C308.194 125.989 307.979 126.083 307.766 126.06L304.213 125.929C303.98 125.921 303.784 125.782 303.693 125.583L300.825 119.357L294.361 120.846L294.133 127.572C294.128 127.776 294.02 127.953 293.861 128.055L290.904 129.956C290.714 130.078 290.478 130.078 290.291 129.976L284.236 126.856L280.144 131.121L283.395 137.014C283.421 137.06 283.438 137.105 283.449 137.15L283.452 137.142ZM289.104 141.021C295.542 145.146 302.239 148.295 307.726 147.627C310.941 147.238 313.264 145.36 314.371 143.092C314.857 142.1 315.11 141.035 315.101 139.992C315.093 138.963 314.831 137.952 314.289 137.057C313.184 135.235 310.904 133.857 307.215 133.667C306.255 133.618 305.32 133.616 304.411 133.658C298.981 133.911 294.449 135.755 291.217 138.693C290.433 139.407 289.726 140.182 289.101 141.018L289.104 141.021ZM385.212 126.949L386.442 124.594L381.199 119.38C381.049 119.229 380.995 119.019 381.038 118.826L381.785 114.669C381.821 114.455 381.969 114.291 382.157 114.22L388.714 111.674L388.033 105.826L381.006 104.345C380.793 104.3 380.629 104.146 380.563 103.956L379.135 100.285C379.058 100.089 379.095 99.8786 379.209 99.7194L383.128 94.295L379.334 89.3565L372.767 92.1184C372.566 92.2037 372.341 92.1696 372.18 92.0446L369.24 89.8225C369.067 89.6918 368.985 89.4844 369.007 89.2855L369.374 82.3153L363.424 80.312L359.206 86.1655C359.093 86.3246 358.914 86.4099 358.732 86.4127L355.796 86.4781C355.574 86.4837 355.378 86.3644 355.273 86.1882L351.479 79.8631L345.288 81.3548L345.012 88.4529C345.004 88.6689 344.882 88.8564 344.705 88.953L342.041 90.513C341.854 90.6238 341.633 90.6181 341.456 90.5215L335.123 87.0748L330.562 91.6951L334.124 97.8725C334.231 98.06 334.226 98.2816 334.126 98.4578L332.559 101.268C332.456 101.45 332.275 101.558 332.082 101.572L324.999 102.098L323.425 108.281L329.892 111.594C330.079 111.691 330.193 111.87 330.213 112.063L330.605 115.788C330.628 116.013 330.522 116.223 330.349 116.342L324.402 120.391L326.62 126.228L341.655 124.895C341.843 124.878 342.019 124.952 342.141 125.08C348.111 130.703 354.64 132.132 360.294 130.851C363.256 130.18 365.986 128.765 368.275 126.819C369.641 125.657 370.85 124.307 371.856 122.812C370.353 121.553 368.914 120.192 367.505 118.854C365.645 117.092 363.833 115.373 362.001 114.035C356.168 109.775 349.82 109.241 339.704 123.088C339.65 123.179 339.571 123.256 339.468 123.307C339.176 123.457 338.815 123.344 338.665 123.054C336.961 119.778 336.012 116.342 335.961 112.884C335.91 109.591 336.674 106.286 338.372 103.087C340.11 99.8132 342.419 97.3553 345.029 95.622C348.292 93.4596 352.027 92.4338 355.73 92.3628C359.425 92.2946 363.086 93.1783 366.204 94.8349C368.811 96.2215 371.046 98.1509 372.614 100.518C377.033 107.19 377.184 114.271 374.702 120.067C374.335 120.923 373.912 121.75 373.438 122.542C376.829 125.208 380.603 127.188 385.215 126.944L385.212 126.949ZM372.498 121.789C372.909 121.087 373.279 120.357 373.6 119.607C375.934 114.151 375.786 107.48 371.614 101.183C370.16 98.9892 368.076 97.1933 365.639 95.8948C362.691 94.3263 359.232 93.4909 355.745 93.5562C352.263 93.6216 348.75 94.5849 345.682 96.6194C343.231 98.2447 341.062 100.558 339.42 103.649C337.818 106.667 337.097 109.778 337.142 112.873C337.188 115.834 337.935 118.792 339.287 121.644C349.678 107.764 356.423 108.497 362.694 113.077C364.602 114.472 366.437 116.211 368.32 117.993C369.675 119.277 371.052 120.585 372.498 121.789Z" fill="#4D4C4C"/>
<path fill-rule="evenodd" clip-rule="evenodd" d="M402.621 118.135C402.44 117.86 402.516 117.49 402.789 117.308C403.064 117.126 403.434 117.203 403.615 117.476C405.033 119.618 406.984 121.451 409.409 122.721C411.633 123.884 414.257 124.574 417.242 124.594C422.763 124.634 426.963 122.014 429.516 118.28C430.928 116.214 431.839 113.808 432.192 111.318C432.544 108.829 432.339 106.258 431.521 103.868C430.044 99.5546 426.557 95.8152 420.726 94.1842C420.408 94.0961 420.224 93.7694 420.312 93.4511C420.36 93.2806 420.477 93.1471 420.621 93.076C424.376 91.2205 425.449 87.3987 426.54 83.5144C427.014 81.8237 427.491 80.1217 428.193 78.5304C431.215 71.6568 433.617 69.7019 438.215 65.9625C440.842 63.8257 444.202 61.0893 448.84 56.4634C456.258 49.0584 459.177 40.7925 458.726 32.9614C458.399 27.2954 456.309 21.8483 452.884 17.1143C449.447 12.3662 444.671 8.33412 438.982 5.5182C428.931 0.539898 416.032 -0.650689 402.65 4.66007C389.594 9.84295 382.063 20.1178 379.674 29.2617C378.868 32.3533 378.649 35.3113 379.007 37.8857C379.359 40.4174 380.265 42.5741 381.711 44.1171C383.744 46.2851 386.885 47.2598 391.097 46.3704C395.499 45.4412 397.529 40.6192 399.739 35.3709C403.579 26.2526 407.932 15.9152 425.728 20.5923C427.951 21.1777 430.28 22.3683 432.265 24.059C434.134 25.6474 435.707 27.679 436.616 30.063C437.531 32.4556 437.778 35.2005 436.988 38.2039C436.307 40.7982 434.853 43.58 432.382 46.4869C429.363 50.0387 425.992 52.9996 422.714 55.8809C415.7 62.0412 409.099 67.8379 407.498 78.2946C407.023 81.3918 407.035 84.8357 408.077 87.7198C408.895 89.9816 410.352 91.9025 412.718 93.0363C413.013 93.1783 413.138 93.5335 412.999 93.829C412.922 93.991 412.783 94.099 412.624 94.1444C412.241 94.2553 411.866 94.3718 411.499 94.4968C406.93 96.0624 403.936 98.8983 402.337 102.223C400.739 105.547 400.528 109.372 401.522 112.907C401.602 113.188 401.69 113.475 401.792 113.768C401.9 114.08 401.733 114.419 401.42 114.526C401.108 114.634 400.77 114.467 400.662 114.154C400.56 113.856 400.463 113.546 400.375 113.228C399.304 109.426 399.537 105.303 401.264 101.708C402.976 98.1424 406.154 95.1049 410.977 93.4142C409.003 92.1099 407.722 90.2487 406.955 88.1233C405.836 85.0261 405.814 81.3776 406.316 78.1156C407.986 67.227 414.745 61.2939 421.931 54.9801C425.174 52.1329 428.505 49.2062 431.473 45.714C433.819 42.9521 435.199 40.3265 435.835 37.897C436.554 35.1607 436.329 32.6602 435.5 30.4864C434.665 28.3013 433.217 26.4316 431.493 24.9682C429.644 23.394 427.483 22.2859 425.421 21.746C408.622 17.3303 404.484 27.159 400.832 35.8341C398.498 41.3807 396.348 46.4784 391.335 47.5382C386.669 48.5214 383.153 47.4018 380.839 44.9354C379.217 43.2078 378.206 40.8238 377.823 38.0505C377.445 35.3226 377.669 32.2084 378.518 28.9634C380.989 19.5069 388.754 8.89389 402.207 3.55188C415.935 -1.8981 429.178 -0.667737 439.505 4.44695C445.372 7.35096 450.299 11.5109 453.847 16.4125C457.402 21.3283 459.575 26.9914 459.913 32.896C460.381 41.0483 457.36 49.6381 449.677 57.3073C445 61.9759 441.612 64.7321 438.965 66.886C434.515 70.506 432.192 72.3956 429.283 79.0106C428.616 80.528 428.15 82.1874 427.687 83.8355C426.642 87.555 425.614 91.2205 422.348 93.4454C427.829 95.3691 431.169 99.1568 432.652 103.484C433.532 106.053 433.751 108.812 433.373 111.48C432.995 114.151 432.015 116.734 430.502 118.951C427.738 122.991 423.197 125.824 417.236 125.782C414.052 125.759 411.244 125.02 408.858 123.773C406.245 122.406 404.144 120.434 402.621 118.132V118.135Z" fill="#4D4C4C"/>
<path fill-rule="evenodd" clip-rule="evenodd" d="M527.087 303H82.0788C81.7494 303 81.4824 302.733 81.4824 302.403C81.4824 302.074 81.7494 301.807 82.0788 301.807H527.087" fill="#4D4C4C"/>
<path opacity="0.2" d="M259.959 134.933C266.947 127.95 266.947 116.628 259.959 109.644C252.971 102.661 241.641 102.661 234.653 109.644C227.665 116.628 227.665 127.95 234.653 134.933C241.641 141.916 252.971 141.916 259.959 134.933Z" fill="#7EABE1"/>
<path opacity="0.2" d="M368.959 124.933C375.947 117.95 375.947 106.628 368.959 99.6444C361.971 92.6611 350.641 92.6611 343.653 99.6444C336.665 106.628 336.665 117.95 343.653 124.933C350.641 131.916 361.971 131.916 368.959 124.933Z" fill="#7EABE1"/>
<path opacity="0.2" d="M317.959 163.933C324.947 156.95 324.947 145.628 317.959 138.644C310.971 131.661 299.641 131.661 292.653 138.644C285.665 145.628 285.665 156.95 292.653 163.933C299.641 170.916 310.971 170.916 317.959 163.933Z" fill="#7EABE1"/>
<path opacity="0.2" d="M78.1566 149.927C107.271 136.519 123.164 108.939 113.654 88.3247C104.144 67.7108 72.832 61.8694 43.7171 75.2774C14.6022 88.6854 -1.29045 116.266 8.21977 136.879C17.73 157.493 49.0418 163.335 78.1566 149.927Z" fill="#7EABE1"/>
</g>
<defs>
<clipPath id="clip0_376_363">
<rect width="468" height="304" fill="white"/>
</clipPath>
</defs>
</svg>
