<svg width="1440" height="426" viewBox="0 0 1440 426" fill="none" xmlns="http://www.w3.org/2000/svg">
<path opacity="0.2" d="M1549.94 485.453C1554.2 464.824 1561.84 445.049 1572.37 426.098C1530.54 425.383 1488.77 424.283 1446.99 422.633C1227.28 413.886 1005.21 389.215 806.705 333.931C604.33 277.575 497.853 170.418 326.823 90.7384C168.136 16.7793 -6.27292 -5.58166 -187 1.12939V774H1650C1572.71 683.456 1529.42 585.128 1549.94 485.48V485.453Z" fill="#C2DCFC"/>
<path opacity="0.2" d="M1517.94 779.453C1522.2 758.824 1529.84 739.049 1540.37 720.098C1498.54 719.383 1456.77 718.283 1414.99 716.633C1195.28 707.886 973.211 683.215 774.705 627.931C572.33 571.575 465.853 464.418 294.823 384.738C136.136 310.779 -38.2729 288.418 -219 295.129V1068H1618C1540.71 977.456 1497.42 879.128 1517.94 779.48V779.453Z" fill="#C2DCFC"/>
<path opacity="0.2" d="M883.419 498.008L883.409 498.058V498.076C870.101 562.86 898.048 626.73 947.918 685.5H-245.5V183.217C-128.157 178.907 -14.9547 193.489 88.0394 241.539L88.2508 241.085L88.0395 241.539C130.247 261.222 166.398 283.477 202.236 305.538C213.606 312.537 224.944 319.517 236.433 326.389C284.13 354.916 334.402 381.56 400.288 399.925C529.471 435.938 673.97 452.006 816.917 457.702C843.823 458.766 870.727 459.479 897.662 459.945C890.997 472.103 886.147 484.785 883.419 498.008Z" stroke="#4B7EB7"/>
</svg>
