<svg width="1440" height="160" viewBox="0 0 1440 160" fill="none" xmlns="http://www.w3.org/2000/svg">
<mask id="mask0_242_552" style="mask-type:luminance" maskUnits="userSpaceOnUse" x="-232" y="-478" width="1761" height="1460">
<path d="M1226.16 981.585L-231.25 554.757L70.9973 -477.27L1528.41 -50.4419L1226.16 981.585Z" fill="white"/>
</mask>
<g mask="url(#mask0_242_552)">
<g style="mix-blend-mode:color-burn">
<path d="M1435.93 673.709C1314.16 654.856 1275.07 698.151 1116.64 651.753C929.474 596.937 950.075 526.595 762.939 471.789C575.804 416.983 555.203 487.325 368.034 432.51C180.864 377.694 201.533 307.371 14.3975 252.565C-100.407 218.942 -152.56 232.421 -218.907 235.207L-107.422 -145.461L1534.96 335.541L1435.93 673.709Z" fill="url(#paint0_linear_242_552)"/>
<path d="M1369.53 480.171C1182.4 425.365 1161.79 495.708 974.659 440.902C787.524 386.096 808.091 315.743 620.956 260.937C433.82 206.131 413.219 276.474 226.05 221.658C38.8806 166.842 59.5491 96.5196 -127.586 41.7136C-141.283 37.7022 -154.05 34.3913 -166.091 31.6042L-68.0282 -303.231L1580.63 179.608L1479.52 524.871C1451.84 509.297 1417.54 494.231 1369.53 480.171Z" fill="url(#paint1_linear_242_552)"/>
<path d="M1509.89 421.167C1393.59 405.006 1352.99 445.718 1197.67 400.229C1010.5 345.413 1031.1 275.07 843.965 220.264C656.829 165.458 636.228 235.801 449.059 180.985C261.89 126.17 282.558 55.8466 95.4228 1.0407C-19.382 -32.5819 -71.5346 -19.1028 -137.881 -16.3173L-26.3962 -396.985L1609.21 82.0312L1509.88 421.203L1509.89 421.167Z" fill="url(#paint2_linear_242_552)"/>
<path d="M1475.53 319.36C1288.39 264.554 1267.79 334.896 1080.66 280.09C893.52 225.284 914.088 154.932 726.952 100.126C539.817 45.3201 519.216 115.663 332.046 60.8469C144.877 6.03111 165.546 -64.2918 -21.5897 -119.098C-58.8346 -130.006 -89.4761 -135.945 -116.191 -138.905L-16.3239 -479.904L1632.37 2.94529L1533.83 339.429C1516.82 332.581 1497.65 325.877 1475.52 319.395L1475.53 319.36Z" fill="url(#paint3_linear_242_552)"/>
</g>
<g style="mix-blend-mode:color-burn">
<path d="M1562.59 241.207C1445.46 224.646 1405.08 265.734 1249.29 220.107C1062.12 165.291 1082.72 94.9481 895.582 40.1422C708.446 -14.6638 687.845 55.6789 500.676 0.863073C313.507 -53.9527 334.175 -124.276 147.04 -179.082C32.2352 -212.704 -19.9174 -199.225 -86.2642 -196.44L25.2211 -577.107L1661.87 -97.7849L1562.59 241.207Z" fill="url(#paint4_linear_242_552)"/>
<path d="M1479.69 125.3C1292.55 70.4937 1271.95 140.836 1084.82 86.0304C897.681 31.2244 918.248 -39.1281 731.113 -93.934C543.977 -148.74 523.376 -78.3973 336.207 -133.213C149.038 -188.029 169.706 -258.352 -17.4293 -313.158C-33.3866 -317.831 -48.0844 -321.552 -61.7843 -324.553L36.3831 -659.746L1685.04 -176.907L1584.31 167.066C1557.57 152.544 1524.61 138.496 1479.68 125.335L1479.69 125.3Z" fill="url(#paint5_linear_242_552)"/>
<path d="M1614.05 65.5121C1502.31 51.5427 1460.44 90.0923 1307.82 45.3939C1120.65 -9.42191 1141.25 -79.7646 954.112 -134.571C766.977 -189.376 746.376 -119.034 559.206 -173.85C372.037 -228.665 392.706 -298.988 205.57 -353.794C90.7655 -387.417 38.6129 -373.938 -27.7339 -371.152L83.7513 -751.82L1713.62 -274.484L1614.04 65.548L1614.05 65.5121Z" fill="url(#paint6_linear_242_552)"/>
<path d="M1585.72 -35.5018C1398.58 -90.3078 1377.98 -19.9651 1190.85 -74.771C1003.71 -129.577 1024.28 -199.929 837.144 -254.735C650.009 -309.541 629.408 -239.199 442.239 -294.014C255.069 -348.83 275.738 -419.153 88.6025 -473.959C48.49 -485.707 16.0695 -491.7 -12.0388 -494.407L88.1332 -836.445L1736.79 -353.606L1638.41 -17.6594C1622.82 -23.7402 1605.41 -29.696 1585.68 -35.476L1585.72 -35.5018Z" fill="url(#paint7_linear_242_552)"/>
</g>
</g>
<defs>
<linearGradient id="paint0_linear_242_552" x1="713.799" y1="95.0095" x2="595.45" y2="499.113" gradientUnits="userSpaceOnUse">
<stop offset="0.63" stop-color="white"/>
<stop offset="0.71" stop-color="#F0F0F0"/>
<stop offset="0.86" stop-color="#E4F0FF"/>
<stop offset="1" stop-color="#C3D8F5"/>
</linearGradient>
<linearGradient id="paint1_linear_242_552" x1="756.309" y1="-61.7707" x2="637.97" y2="342.297" gradientUnits="userSpaceOnUse">
<stop offset="0.63" stop-color="white"/>
<stop offset="0.71" stop-color="#F0F0F0"/>
<stop offset="0.86" stop-color="#C3D8F5"/>
<stop offset="1" stop-color="#C3D8F5"/>
</linearGradient>
<linearGradient id="paint2_linear_242_552" x1="791.406" y1="-157.477" x2="673.068" y2="246.59" gradientUnits="userSpaceOnUse">
<stop offset="0.63" stop-color="white"/>
<stop offset="0.71" stop-color="#F0F0F0"/>
<stop offset="0.86" stop-color="#D0E2FF"/>
<stop offset="1" stop-color="#A6CBFE"/>
</linearGradient>
<linearGradient id="paint3_linear_242_552" x1="808.068" y1="-238.505" x2="689.719" y2="165.598" gradientUnits="userSpaceOnUse">
<stop offset="0.63" stop-color="#E4F0FF"/>
<stop offset="0.71" stop-color="#F0F0F0"/>
<stop offset="0.86" stop-color="#E4F0FF"/>
<stop offset="1" stop-color="#B9D6FF"/>
</linearGradient>
<linearGradient id="paint4_linear_242_552" x1="843.574" y1="-337.477" x2="725.225" y2="66.6262" gradientUnits="userSpaceOnUse">
<stop offset="0.63" stop-color="white"/>
<stop offset="0.71" stop-color="#D0E2FF"/>
<stop offset="0.86" stop-color="#E4F0FF"/>
<stop offset="1" stop-color="#C3D8F5"/>
</linearGradient>
<linearGradient id="paint5_linear_242_552" x1="860.731" y1="-418.322" x2="742.382" y2="-14.2187" gradientUnits="userSpaceOnUse">
<stop offset="0.63" stop-color="#C3D8F5"/>
<stop offset="0.71" stop-color="#F0F0F0"/>
<stop offset="0.86" stop-color="#E4F0FF"/>
<stop offset="1" stop-color="#D0E2FF"/>
</linearGradient>
<linearGradient id="paint6_linear_242_552" x1="898.697" y1="-513.187" x2="780.348" y2="-109.084" gradientUnits="userSpaceOnUse">
<stop offset="0.63" stop-color="white"/>
<stop offset="0.71" stop-color="#F0F0F0"/>
<stop offset="0.86" stop-color="#C3D8F5"/>
<stop offset="1" stop-color="#ADCAF1"/>
</linearGradient>
<linearGradient id="paint7_linear_242_552" x1="912.481" y1="-595.021" x2="794.132" y2="-190.917" gradientUnits="userSpaceOnUse">
<stop offset="0.63" stop-color="#C3D8F5"/>
<stop offset="0.71" stop-color="#F0F0F0"/>
<stop offset="0.86" stop-color="#E4F0FF"/>
<stop offset="1" stop-color="#D0E2FF"/>
</linearGradient>
</defs>
</svg>
