<svg width="1440" height="258" viewBox="0 0 1440 258" fill="none" xmlns="http://www.w3.org/2000/svg">
<path opacity="0.2" d="M-50.939 485.453C-55.2 464.824 -62.8406 445.049 -73.3708 426.098C-31.5439 425.383 10.2339 424.283 52.0117 422.633C271.725 413.886 493.789 389.215 692.295 333.931C894.67 277.575 1001.15 170.418 1172.18 90.7384C1330.86 16.7793 1505.27 -5.58166 1686 1.12939V774H-151C-73.7135 683.456 -30.4174 585.128 -50.939 485.48V485.453Z" fill="#C2DCFC"/>
<path opacity="0.2" d="M520.581 498.008L520.591 498.058V498.076C533.899 562.86 505.952 626.73 456.082 685.5H1649.5V183.217C1532.16 178.907 1418.95 193.489 1315.96 241.539L1315.78 241.162L1315.96 241.539C1273.75 261.222 1237.6 283.477 1201.76 305.538C1190.39 312.537 1179.06 319.517 1167.57 326.389C1119.87 354.916 1069.6 381.56 1003.71 399.925C874.529 435.938 730.03 452.006 587.083 457.702C560.177 458.766 533.273 459.479 506.338 459.945C513.003 472.103 517.853 484.785 520.581 498.008Z" stroke="#4B7EB7"/>
</svg>
