<svg width="479" height="295" viewBox="0 0 479 295" fill="none" xmlns="http://www.w3.org/2000/svg">
<path fill-rule="evenodd" clip-rule="evenodd" d="M292.036 -253.909C217.878 -279.676 131.892 -272.092 76.1807 -230.87L77.1052 -229.62C132.314 -270.471 217.737 -278.079 291.526 -252.441C365.311 -226.804 425.866 -170.282 454.44 -106.136C471.146 -68.6228 477.256 -28.9098 473.907 9.44388C458.78 -21.6938 436.158 -50.1888 405.321 -71.5382C384.562 -85.9136 360.838 -96.0483 336.118 -102.018C337.753 -133.339 326.557 -167.967 297.031 -188.972C260.375 -215.045 209.086 -211.578 168.405 -199.089C93.4129 -176.064 30.3733 -123.842 15.6567 -54.8909C0.341101 16.875 40.1371 97.3935 105.568 151.607C120.666 164.119 137.252 175.504 154.947 184.962C185.246 220.972 226.583 250.864 272.549 270.011C309.706 285.485 351.248 294.556 389.411 288.295C421.287 283.062 448.601 267.574 471.826 249.333C498.227 228.605 520.652 203.567 533.497 174.145C551.372 133.217 549.413 88.1356 535.991 43.1707C522.57 -1.79156 497.67 -46.6959 469.575 -87.3341L468.297 -86.4503C496.342 -45.8847 521.145 -1.13177 534.502 43.6153C547.858 88.3599 549.753 133.04 532.072 173.523C519.361 202.638 497.137 227.485 470.866 248.111C447.762 266.257 420.687 281.585 389.159 286.761C351.389 292.958 310.155 283.988 273.146 268.576C228.63 250.033 188.521 221.386 158.65 186.905C177.553 196.635 197.672 204.141 218.553 208.473C239.678 212.853 261.099 213.814 281.877 211.827C292.853 219.935 304.95 226.823 317.828 232.077C341.434 241.708 367.53 246.529 392.047 243.789C431.357 239.399 463.337 215.66 480.181 185.598C497.03 155.542 500.107 119.886 495.97 85.0312C493.065 60.603 486.248 35.6828 475.214 12.1796C479.098 -27.2328 473.054 -68.159 455.86 -106.768C427.106 -171.319 366.214 -228.136 292.036 -253.909ZM404.437 -70.2604C435.796 -48.5493 458.608 -19.3762 473.625 12.4526C470.998 38.6163 463.966 64.1016 452.893 87.7718C434.391 127.317 404.462 162.593 363.415 185.327C339.448 198.606 311.534 207.347 282.322 210.222C267.322 199.058 254.461 185.594 244.637 170.92C227.606 145.484 219.736 116.473 225.564 89.5394C231.391 62.636 251.926 40.2942 278.901 27.3101C285.176 24.2894 291.796 21.7774 298.655 19.8338C293.044 44.9926 292.625 71.5655 304.824 96.3758C312.736 112.468 327.49 126.989 344.725 136.266C361.958 145.543 381.761 149.623 399.772 144.687C428.902 136.7 443.679 106.79 435.83 79.6696C428.011 52.6111 401.136 29.9661 370.981 19.8111C347.545 11.9158 322.993 11.8442 300.752 17.6523C302.294 11.1596 304.173 4.75863 306.261 -1.49675C309.328 -10.675 312.804 -19.7085 316.286 -28.7591C318.701 -35.036 321.12 -41.3215 323.407 -47.6689C328.975 -63.1218 333.72 -78.8312 335.566 -95.304C335.757 -97.0039 335.91 -98.7176 336.024 -100.442C360.461 -94.5091 383.91 -84.4746 404.437 -70.2604ZM300.353 19.3654C299.786 19.5177 299.219 19.6738 298.655 19.8338C298.783 19.2585 298.914 18.6839 299.048 18.1101C299.614 17.9537 300.182 17.8011 300.752 17.6523C300.616 18.2227 300.484 18.7937 300.353 19.3654ZM300.353 19.3654C322.528 13.4189 347.077 13.3981 370.485 21.284C400.334 31.336 426.704 53.6877 434.336 80.101C441.96 106.443 427.602 135.445 399.361 143.188C381.84 147.989 362.452 144.044 345.461 134.898C328.471 125.752 313.969 111.453 306.218 95.69C294.099 71.0407 294.618 44.5528 300.353 19.3654ZM299.048 18.1101C291.81 20.1086 284.83 22.7311 278.227 25.9096C250.93 39.0487 229.996 61.7313 224.045 89.2104C218.105 116.662 226.148 146.099 243.345 171.785C252.967 186.157 265.467 199.373 280.021 210.436C259.93 212.197 239.26 211.179 218.869 206.951C196.877 202.389 175.723 194.276 155.945 183.733C135.977 159.947 120.866 133.502 112.467 105.757C91.3935 36.1716 115.967 -39.5141 177.955 -78.998C220.514 -106.107 279.861 -113.669 334.491 -100.809C334.377 -99.0194 334.22 -97.2412 334.022 -95.4776C332.196 -79.1829 327.498 -63.606 321.945 -48.1958C319.684 -41.923 317.275 -35.6588 314.861 -29.3847L314.861 -29.3833L314.859 -29.3806C311.362 -20.2897 307.857 -11.1781 304.787 -1.98929C302.602 4.55755 300.639 11.2788 299.048 18.1101ZM318.416 230.638C306.199 225.654 294.692 219.185 284.191 211.593C312.993 208.529 340.488 199.806 364.168 186.687C405.537 163.775 435.678 128.234 454.3 88.4304C465.083 65.3828 472.058 40.6262 474.897 15.1958C485.216 37.8417 491.637 61.7504 494.426 85.2147C498.541 119.881 495.457 155.171 478.825 184.838C462.211 214.49 430.657 237.913 391.875 242.244C367.667 244.95 341.833 240.193 318.416 230.638ZM110.979 106.207C119.094 133.014 133.413 158.591 152.282 181.744C135.962 172.72 120.617 162.06 106.56 150.41C41.3939 96.4165 2.02397 16.4362 17.1767 -54.5665C31.7336 -122.77 94.1838 -174.675 168.861 -197.603C209.385 -210.044 260.071 -213.355 296.13 -187.705C325.031 -167.145 336.115 -133.23 334.58 -102.384C279.636 -115.248 219.985 -107.613 177.12 -80.3089C114.497 -40.4205 89.7207 36.0102 110.979 106.207Z" fill="#D8E7FC"/>
<path opacity="0.1" d="M493.461 112.251C589.834 67.8688 631.928 -46.2118 587.48 -142.555C543.032 -238.898 428.874 -281.021 332.5 -236.639C236.126 -192.257 194.032 -78.1761 238.48 18.1671C282.928 114.51 397.087 156.633 493.461 112.251Z" fill="#7EABE1"/>
</svg>
