<svg width="273" height="111" viewBox="0 0 273 111" fill="none" xmlns="http://www.w3.org/2000/svg">
<g clip-path="url(#clip0_376_449)">
<path fill-rule="evenodd" clip-rule="evenodd" d="M84.7637 32.7218C81.1122 32.7514 74.566 32.6999 69.3121 33.2327C64.0582 33.7655 60.0957 34.8827 58.9203 37.3114C57.745 39.7401 59.3578 43.4794 61.95 46.7231C64.5422 49.9668 68.1139 52.7129 70.051 55.9871C71.988 59.2613 72.2914 63.0616 72.7545 67.3357C73.2176 71.6097 73.8404 76.3566 71.6257 80.3866C69.411 84.4167 64.3578 87.729 61.5478 90.5828C58.7378 93.4367 58.1701 95.833 58.9061 98.2645C59.6421 100.696 61.6818 103.162 66.6828 104.472C71.6837 105.781 79.6468 105.933 84.4851 104.587C89.3234 103.241 91.037 100.397 91.2262 97.7022C91.4155 95.0085 90.0804 92.4644 87.4843 90.2845C84.8883 88.1046 81.0323 86.2868 78.7339 84.3252C76.4355 82.3635 75.6947 80.258 75.0063 75.1947C74.3187 70.1314 73.6835 62.1122 75.7736 56.1672C77.8638 50.2232 82.6783 46.3542 85.8259 43.4651C88.9725 40.577 90.4522 38.6687 90.8582 36.9997C91.2643 35.3307 90.5977 33.8999 89.8845 33.2403C89.1722 32.5807 88.4143 32.6923 84.7618 32.7228L84.7637 32.7218Z" fill="#C3D8F5"/>
<path d="M0 107.446C17.3212 107.429 33.6067 107.311 42.3505 106.451C52.4855 105.454 52.4855 103.46 52.2487 88.4115C52.012 73.3626 51.5384 45.2581 50.9697 29.9709C50.4011 14.6847 49.7383 12.216 48.0808 9.74725C46.4234 7.27851 43.7712 4.80977 40.8348 4.4304C37.8983 4.05103 34.6775 5.76009 34.8201 7.84851C34.9618 9.93693 38.4669 12.4057 41.8294 11.504C45.1919 10.6023 48.4127 6.32914 52.8649 3.71837C57.3162 1.10665 62.9999 0.157282 71.3358 0.299307C79.6716 0.441331 90.6596 1.6757 97.0527 3.85944C103.447 6.04318 105.246 9.17629 107.141 10.9807C109.035 12.785 111.025 13.2597 111.451 11.8347C111.877 10.4107 110.74 7.08692 108.609 6.23287C106.478 5.37882 103.353 6.99255 101.411 8.89129C99.469 10.79 98.7111 12.9738 94.5907 12.7841C90.4703 12.5944 82.9875 10.0303 75.3145 8.89129C67.6424 7.75224 59.7801 8.03629 55.7539 9.27066C51.7286 10.505 51.5384 12.6888 54.9009 14.3025C58.2634 15.9162 65.1785 16.9609 70.8147 17.5786C76.4508 18.1953 80.808 18.3859 82.087 17.7206C83.366 17.0563 81.5658 15.5369 77.7774 14.7295C73.9889 13.9222 68.2101 13.8278 64.0897 14.9669C59.9693 16.1059 57.5064 18.4803 56.2274 22.1825C54.9484 25.8856 54.8543 30.9174 56.1323 35.9969C57.4113 41.0764 60.0635 46.2036 62.6205 49.6694C65.1785 53.1352 67.6405 54.9386 69.1848 56.7715C70.7291 58.6036 71.3538 60.4651 70.0939 62.8195C68.8339 65.1739 65.6892 68.0229 62.7337 70.9854C59.7782 73.9479 57.0119 77.0238 55.9707 81.7335C54.9285 86.4432 55.6103 92.7856 57.1641 97.115C58.7179 101.444 61.1428 103.762 66.4661 104.464C71.7894 105.167 80.0111 104.255 84.7286 102.299C89.4462 100.343 90.6586 97.3428 90.98 95.0456C91.3024 92.7475 90.7337 91.1528 88.7444 89.9185C86.7551 88.6841 83.345 87.811 80.5607 86.4241C77.7755 85.0382 75.6159 83.1385 73.6085 82.9488C71.6001 82.7591 69.7439 84.2785 67.5273 85.5691C65.3107 86.8607 62.7346 87.9235 61.0106 88.626C59.2866 89.3284 58.4155 89.6706 59.3056 91.0375C60.1956 92.4044 62.8478 94.7978 67.1679 95.0628C71.487 95.3287 77.474 93.4681 81.2245 92.575C84.9759 91.6828 86.4907 91.7581 86.737 92.5369C86.9833 93.3156 85.9601 94.7969 83.4601 95.0247C80.9592 95.2525 76.9814 94.2268 74.916 92.594C72.8516 90.9612 72.6994 88.7203 73.23 86.1C73.7606 83.4797 74.9731 80.4791 75.1052 75.9972C75.2374 71.5154 74.2903 65.5532 74.5366 61.2992C74.7829 57.0451 76.2226 54.5011 78.8177 51.6339C81.4127 48.7667 85.1642 45.5764 87.4939 42.4814C89.8237 39.3865 90.7337 36.3858 90.6957 34.5062C90.6577 32.6265 89.6725 31.8668 87.8353 31.8096C85.9981 31.7524 83.308 32.3987 80.9012 34.2212C78.4953 36.0446 76.3738 39.0443 73.3612 40.678C70.3487 42.3108 66.4461 42.5768 63.794 41.7036C61.1418 40.8305 59.7402 38.8174 60.46 36.8043C61.1799 34.7912 64.0212 32.778 68.0189 32.6456C72.0166 32.5131 77.1688 34.2593 81.1284 34.6205C85.0881 34.9818 87.8534 33.9562 88.403 31.0509C88.9527 28.1456 87.2857 23.3596 86.8872 20.7965C86.4898 18.2325 87.3608 17.8912 88.4411 18.3278C89.5213 18.7644 90.8089 19.9797 92.0403 21.9165C93.2718 23.8534 94.4462 26.5118 94.8437 29.5887C95.2411 32.6646 94.8627 36.159 93.9156 38.9509C92.9684 41.7427 91.4527 43.8311 88.5542 46.8689C85.6558 49.9077 81.3738 53.8948 79.082 56.4208C76.7893 58.9467 76.4869 60.0095 77.415 61.8901C78.3432 63.7698 80.5027 66.4664 82.8334 68.4604C85.1632 70.4545 87.6642 71.746 90.032 74.3854C92.3998 77.0248 94.6354 81.0129 94.6925 85.836C94.7495 90.6591 92.627 96.3181 92.4758 99.7362C92.3246 103.154 94.1428 104.332 95.0148 105.794C95.8859 107.256 95.8108 109.003 89.7676 109.933C83.7245 110.864 71.7133 110.978 64.7801 110.18C57.8459 109.382 55.9897 107.673 56.8988 107.085C57.8079 106.496 61.4832 107.028 66.6363 107.484C71.7894 107.939 78.4202 108.32 83.6674 107.92C88.9146 107.522 92.7802 106.345 95.5645 104.635C98.3497 102.926 100.055 100.685 101.115 85.6072C102.176 70.5298 102.593 42.6149 102.346 29.0378C102.1 15.4606 101.191 16.2194 100.49 23.9868C99.7894 31.7534 99.2969 46.5277 99.2398 60.9217C99.1827 75.3157 99.5622 89.3304 99.8275 97.1541C100.093 104.978 100.244 106.611 101.93 107.408C103.616 108.206 106.837 108.168 137.921 108.149C166.559 108.132 289.5 108 272.999 108.13" stroke="#4D4C4C" stroke-miterlimit="22.93"/>
</g>
<defs>
<clipPath id="clip0_376_449">
<rect width="273" height="111" fill="white"/>
</clipPath>
</defs>
</svg>
