<svg width="1439" height="192" viewBox="0 0 1439 192" fill="none" xmlns="http://www.w3.org/2000/svg">
<path d="M180.216 789.189L1628.18 331.338L1303.96 -694L-144 -236.149L180.216 789.189Z" fill="#B9D6FF" fill-opacity="0.2"/>
<mask id="mask0_376_453" style="mask-type:luminance" maskUnits="userSpaceOnUse" x="-144" y="-694" width="1773" height="1484">
<path d="M180.216 789.189L1628.18 331.338L1303.96 -694L-144 -236.149L180.216 789.189Z" fill="white"/>
</mask>
<g mask="url(#mask0_376_453)">
<g style="mix-blend-mode:color-burn">
<path d="M-36.0772 485.863C85.26 464.413 125.266 506.864 282.665 457.094C468.621 398.294 446.522 328.407 632.445 269.618C818.367 210.828 840.466 280.715 1026.42 221.915C1212.38 163.115 1190.21 93.2493 1376.13 34.4599C1490.2 -1.60648 1542.62 10.7559 1609.02 12.1241L1489.43 -366.076L-142.314 149.887L-36.0772 485.863Z" fill="url(#paint0_linear_376_453)"/>
<path d="M26.1703 290.951C212.093 232.161 234.191 302.048 420.114 243.259C606.036 184.469 583.971 114.572 769.894 55.7825C955.816 -3.00688 977.915 66.8798 1163.87 8.07986C1349.83 -50.7201 1327.66 -120.586 1513.58 -179.375C1527.19 -183.678 1539.89 -187.261 1551.86 -190.304L1446.67 -522.969L-191.301 -5.03573L-82.8354 337.99C-55.5014 321.827 -21.5253 306.032 26.1703 290.951Z" fill="url(#paint1_linear_376_453)"/>
<path d="M-115.414 234.957C0.506942 216.317 41.9715 256.152 196.287 207.357C382.243 148.557 360.144 78.6703 546.067 19.8809C731.989 -38.9085 754.088 30.9783 940.044 -27.8217C1126 -86.6217 1103.83 -156.487 1289.76 -215.277C1403.82 -251.343 1456.25 -238.981 1522.64 -237.612L1403.05 -615.813L-221.955 -101.98L-115.403 234.993L-115.414 234.957Z" fill="url(#paint2_linear_376_453)"/>
<path d="M-83.2362 132.439C102.686 73.65 124.785 143.537 310.707 84.7473C496.63 25.9579 474.565 -43.9394 660.488 -102.729C846.41 -161.518 868.508 -91.6315 1054.46 -150.432C1240.42 -209.231 1218.26 -279.097 1404.18 -337.886C1441.18 -349.587 1471.69 -356.179 1498.33 -359.709L1391.21 -698.498L-246.8 -180.554L-141.092 153.749C-124.237 146.54 -105.213 139.428 -83.2249 132.475L-83.2362 132.439Z" fill="url(#paint3_linear_376_453)"/>
</g>
<g style="mix-blend-mode:color-burn">
<path d="M-171.949 56.164C-55.202 37.1058 -13.9492 77.3214 140.835 28.3779C326.791 -30.4221 304.693 -100.309 490.616 -159.098C676.538 -217.888 698.636 -148.001 884.593 -206.801C1070.55 -265.601 1048.38 -335.466 1234.31 -394.256C1348.37 -430.322 1400.79 -417.96 1467.19 -416.592L1347.6 -794.792L-278.445 -280.631L-171.949 56.164Z" fill="url(#paint4_linear_376_453)"/>
<path d="M-91.5392 -61.4876C94.3834 -120.277 116.482 -50.3903 302.404 -109.18C488.327 -167.969 466.262 -237.866 652.184 -296.656C838.107 -355.445 860.205 -285.558 1046.16 -344.358C1232.12 -403.158 1209.95 -473.024 1395.87 -531.813C1411.73 -536.826 1426.34 -540.86 1439.98 -544.153L1334.67 -877.174L-303.302 -359.24L-195.241 -17.4965C-168.821 -32.5863 -136.173 -47.335 -91.5279 -61.4521L-91.5392 -61.4876Z" fill="url(#paint5_linear_376_453)"/>
</g>
</g>
<defs>
<linearGradient id="paint0_linear_376_453" x1="673.528" y1="-108.125" x2="800.479" y2="293.359" gradientUnits="userSpaceOnUse">
<stop offset="0.63" stop-color="white"/>
<stop offset="0.71" stop-color="#F0F0F0"/>
<stop offset="0.86" stop-color="#E4F0FF"/>
<stop offset="1" stop-color="#C3D8F5"/>
</linearGradient>
<linearGradient id="paint1_linear_376_453" x1="627.681" y1="-263.962" x2="754.62" y2="137.486" gradientUnits="userSpaceOnUse">
<stop offset="0.63" stop-color="white"/>
<stop offset="0.71" stop-color="#F0F0F0"/>
<stop offset="0.86" stop-color="#C3D8F5"/>
<stop offset="1" stop-color="#C3D8F5"/>
</linearGradient>
<linearGradient id="paint2_linear_376_453" x1="590.547" y1="-358.896" x2="717.487" y2="42.5517" gradientUnits="userSpaceOnUse">
<stop offset="0.63" stop-color="white"/>
<stop offset="0.71" stop-color="#F0F0F0"/>
<stop offset="0.86" stop-color="#D0E2FF"/>
<stop offset="1" stop-color="#A6CBFE"/>
</linearGradient>
<linearGradient id="paint3_linear_376_453" x1="572.159" y1="-439.551" x2="699.11" y2="-38.0671" gradientUnits="userSpaceOnUse">
<stop offset="0.63" stop-color="#E4F0FF"/>
<stop offset="0.71" stop-color="#F0F0F0"/>
<stop offset="0.86" stop-color="#E4F0FF"/>
<stop offset="1" stop-color="#B9D6FF"/>
</linearGradient>
<linearGradient id="paint4_linear_376_453" x1="534.548" y1="-537.742" x2="661.499" y2="-136.258" gradientUnits="userSpaceOnUse">
<stop offset="0.63" stop-color="white"/>
<stop offset="0.71" stop-color="#D0E2FF"/>
<stop offset="0.86" stop-color="#E4F0FF"/>
<stop offset="1" stop-color="#C3D8F5"/>
</linearGradient>
<linearGradient id="paint5_linear_376_453" x1="515.669" y1="-618.202" x2="642.62" y2="-216.718" gradientUnits="userSpaceOnUse">
<stop offset="0.63" stop-color="#C3D8F5"/>
<stop offset="0.71" stop-color="#F0F0F0"/>
<stop offset="0.86" stop-color="#E4F0FF"/>
<stop offset="1" stop-color="#D0E2FF"/>
</linearGradient>
</defs>
</svg>
