<svg width="36" height="36" viewBox="0 0 36 36" fill="none" xmlns="http://www.w3.org/2000/svg">
<g clip-path="url(#clip0_326_3096)">
<path d="M9.85728 0.5H26.1427C31.3106 0.5 35.5 4.6894 35.5 9.85728V26.1427C35.5 31.3106 31.3106 35.5 26.1427 35.5H9.85728C4.6894 35.5 0.5 31.3106 0.5 26.1427V9.85728C0.5 4.6894 4.6894 0.5 9.85728 0.5Z" stroke="white"/>
<path d="M15.1116 18.0174H12.9902V14.2047C13.5714 14.2047 14.1526 14.2047 14.7339 14.2047C15.007 14.2047 15.071 14.1233 15.071 13.856C15.071 12.99 15.071 12.1124 15.1058 11.2638C15.1161 10.6127 15.2793 9.97313 15.5822 9.39667C15.885 8.8202 16.3191 8.32299 16.8495 7.94511C17.6693 7.41884 18.6309 7.15711 19.6044 7.19535C20.6331 7.19535 21.656 7.19535 22.6848 7.19535C22.8126 7.19535 22.9347 7.19535 22.9347 7.37552C22.9347 8.53794 22.9347 9.70035 22.9347 10.8976H22.3535C21.7025 10.8976 21.0516 10.8976 20.4006 10.8976C20.2945 10.8921 20.1883 10.9083 20.0887 10.9453C19.9891 10.9823 19.8981 11.0393 19.8213 11.1128C19.7445 11.1864 19.6836 11.2748 19.6423 11.3727C19.601 11.4706 19.5802 11.576 19.5811 11.6823C19.5346 12.4495 19.5811 13.2283 19.5811 14.0071C19.5811 14.0594 19.7439 14.1582 19.8369 14.1582C20.79 14.1582 21.749 14.1582 22.708 14.1582H22.9986C22.865 15.4252 22.7371 16.6748 22.6092 17.9535H19.5928V28.8046H15.1116V18.0174Z" fill="white"/>
<path d="M15.1116 18.0174H12.9902V14.2047C13.5714 14.2047 14.1526 14.2047 14.7339 14.2047C15.007 14.2047 15.071 14.1233 15.071 13.856C15.071 12.99 15.071 12.1124 15.1058 11.2638C15.1161 10.6127 15.2793 9.97313 15.5822 9.39667C15.885 8.8202 16.3191 8.32299 16.8495 7.94511C17.6693 7.41884 18.6309 7.15711 19.6044 7.19535C20.6331 7.19535 21.656 7.19535 22.6848 7.19535C22.8126 7.19535 22.9347 7.19535 22.9347 7.37552C22.9347 8.53794 22.9347 9.70035 22.9347 10.8976H22.3535C21.7025 10.8976 21.0516 10.8976 20.4006 10.8976C20.2945 10.8921 20.1883 10.9083 20.0887 10.9453C19.9891 10.9823 19.8981 11.0393 19.8213 11.1128C19.7445 11.1864 19.6836 11.2748 19.6423 11.3727C19.601 11.4706 19.5802 11.576 19.5811 11.6823C19.5346 12.4495 19.5811 13.2283 19.5811 14.0071C19.5811 14.0594 19.7439 14.1582 19.8369 14.1582C20.79 14.1582 21.749 14.1582 22.708 14.1582H22.9986C22.865 15.4252 22.7371 16.6748 22.6092 17.9535H19.5928V28.8046H15.1116V18.0174Z" fill="white"/>
</g>
<defs>
<clipPath id="clip0_326_3096">
<rect width="36" height="36" fill="white"/>
</clipPath>
</defs>
</svg>
