<svg width="11" height="22" viewBox="0 0 11 22" fill="none" xmlns="http://www.w3.org/2000/svg">
<path d="M3.11164 11.0174H0.990234V7.20471C1.57144 7.20471 2.15265 7.20471 2.73386 7.20471C3.00703 7.20471 3.07096 7.12334 3.07096 6.85599C3.07096 5.98999 3.07096 5.11237 3.10583 4.2638C3.11612 3.6127 3.27928 2.97313 3.58215 2.39667C3.88502 1.8202 4.31913 1.32299 4.84945 0.945107C5.66926 0.418838 6.63094 0.157114 7.60438 0.195349C8.63311 0.195349 9.65604 0.195349 10.6848 0.195349C10.8126 0.195349 10.9347 0.195349 10.9347 0.375523C10.9347 1.53794 10.9347 2.70035 10.9347 3.89764H10.3535C9.70254 3.89764 9.05158 3.89764 8.40063 3.89764C8.29449 3.89209 8.18834 3.90831 8.08871 3.94532C7.98908 3.98233 7.89808 4.03935 7.82131 4.11285C7.74454 4.18635 7.68363 4.27479 7.64232 4.37272C7.60102 4.47065 7.58019 4.57599 7.58113 4.68227C7.53463 5.44947 7.58113 6.22828 7.58113 7.0071C7.58113 7.05941 7.74387 7.15822 7.83686 7.15822C8.79004 7.15822 9.74903 7.15822 10.708 7.15822H10.9986C10.865 8.42525 10.7371 9.67484 10.6092 10.9535H7.59275V21.8046H3.11164V11.0174Z"/>
</svg>
