<svg width="36" height="36" viewBox="0 0 36 36" fill="none" xmlns="http://www.w3.org/2000/svg">
<g clip-path="url(#clip0_688_876)">
<path d="M9.85728 0.5H26.1427C31.3106 0.5 35.5 4.6894 35.5 9.85728V26.1427C35.5 31.3106 31.3106 35.5 26.1427 35.5H9.85728C4.6894 35.5 0.5 31.3106 0.5 26.1427V9.85728C0.5 4.6894 4.6894 0.5 9.85728 0.5Z"/>
<path d="M28.392 13.6002C28.4168 12.4005 28.0828 11.2206 27.433 10.2118C26.8809 9.3738 26.1213 8.693 25.2281 8.23569C24.3348 7.77837 23.3384 7.56012 22.3358 7.60219C20.8944 7.60219 19.4297 7.60219 18.0174 7.60219V7.63125C16.361 7.63125 14.7045 7.59056 13.0539 7.63125C11.6981 7.66186 10.4018 8.19406 9.41554 9.12495C8.82996 9.67506 8.36686 10.3424 8.05642 11.0834C7.74597 11.8245 7.59516 12.6227 7.6138 13.4259C7.6138 16.0704 7.6138 18.7149 7.6138 21.3652C7.59325 21.9934 7.61072 22.6222 7.66611 23.2483C7.74193 24.0839 8.00622 24.8915 8.43909 25.6102C8.87196 26.329 9.46216 26.9403 10.1653 27.3981C11.2555 28.0911 12.5301 28.4376 13.8211 28.392C16.0355 28.392 18.2441 28.392 20.4585 28.392C21.4867 28.4115 22.5151 28.3727 23.5389 28.2757C24.2935 28.188 25.0207 27.9404 25.6721 27.5496C26.3235 27.1587 26.8842 26.6335 27.3167 26.009C28.044 24.9549 28.4184 23.6974 28.3862 22.4172C28.4094 19.4821 28.4036 16.5412 28.392 13.6002ZM26.5495 22.1614C26.5747 22.8361 26.4538 23.5082 26.195 24.1317C25.9213 24.7978 25.4618 25.3711 24.8713 25.7833C24.2809 26.1955 23.5843 26.4292 22.8647 26.4566C22.0452 26.5263 21.2141 26.4972 20.3829 26.4972C18.155 26.4972 15.9289 26.4972 13.7049 26.4972C12.9587 26.5157 12.2191 26.3542 11.5486 26.0265C10.9701 25.7383 10.4807 25.2985 10.1326 24.7539C9.78461 24.2093 9.59099 23.5805 9.57247 22.9344C9.50272 22.0859 9.52597 21.2315 9.52597 20.3829C9.52597 18.1685 9.52597 15.9541 9.52597 13.7455C9.52648 13.1963 9.60675 12.6501 9.76427 12.124C9.96337 11.4239 10.3797 10.8052 10.9532 10.3571C11.5267 9.90895 12.2277 9.65456 12.9551 9.6306C14.1756 9.52017 15.4078 9.57829 16.64 9.56086C17.1049 9.56086 17.5641 9.56086 18.029 9.56086C19.546 9.56086 21.0629 9.56086 22.5799 9.56086C23.469 9.54393 24.3377 9.8287 25.0442 10.3687C25.4658 10.6945 25.8127 11.1069 26.0613 11.5782C26.31 12.0494 26.4547 12.5685 26.4856 13.1004C26.5612 14.0536 26.5379 15.0184 26.5379 15.9774C26.5554 18.0174 26.5495 20.0923 26.5495 22.1614Z" />
<path d="M17.976 12.6006C16.9158 12.604 15.8803 12.9216 15.0004 13.5131C14.1205 14.1047 13.4356 14.9437 13.0323 15.9243C12.6289 16.9048 12.5252 17.9829 12.7341 19.0223C12.9431 20.0618 13.4554 21.0161 14.2063 21.7646C14.9572 22.5131 15.9131 23.0223 16.9533 23.2278C17.9934 23.4334 19.0712 23.3262 20.0504 22.9196C21.0296 22.5131 21.8664 21.8255 22.4551 20.9437C23.0438 20.0619 23.358 19.0254 23.358 17.9651C23.3572 17.2594 23.2174 16.5607 22.9464 15.9091C22.6755 15.2574 22.2787 14.6656 21.7789 14.1674C21.2791 13.6691 20.6859 13.2743 20.0334 13.0055C19.3809 12.7366 18.6818 12.5991 17.976 12.6006ZM17.976 21.3943C17.2969 21.3943 16.633 21.1929 16.0683 20.8158C15.5035 20.4386 15.0633 19.9025 14.8031 19.2751C14.543 18.6478 14.4746 17.9575 14.6067 17.2913C14.7387 16.6252 15.0653 16.0131 15.5451 15.5325C16.0249 15.0519 16.6364 14.7243 17.3023 14.5911C17.9683 14.4579 18.6587 14.5251 19.2865 14.7842C19.9142 15.0433 20.4511 15.4826 20.8292 16.0467C21.2074 16.6108 21.4098 17.2744 21.411 17.9535C21.4141 18.859 21.0589 19.7289 20.423 20.3735C19.7872 21.0181 18.9221 21.385 18.0167 21.3943H17.976ZM23.5847 11.258C23.3439 11.2557 23.108 11.325 22.9067 11.457C22.7054 11.5891 22.5479 11.778 22.4542 11.9997C22.3604 12.2215 22.3347 12.4661 22.3803 12.7025C22.4258 12.9389 22.5406 13.1564 22.71 13.3275C22.8794 13.4985 23.0958 13.6154 23.3318 13.6632C23.5677 13.711 23.8125 13.6876 24.0352 13.596C24.2578 13.5045 24.4482 13.3488 24.5822 13.1488C24.7162 12.9488 24.7878 12.7135 24.7878 12.4727C24.7885 12.314 24.758 12.1566 24.698 12.0096C24.6379 11.8627 24.5495 11.729 24.4378 11.6162C24.3261 11.5034 24.1932 11.4137 24.0469 11.3522C23.9005 11.2908 23.7434 11.2588 23.5847 11.258Z"/>
<path d="M28.392 13.6002C28.4168 12.4005 28.0828 11.2206 27.433 10.2118C26.8809 9.3738 26.1213 8.693 25.2281 8.23569C24.3348 7.77837 23.3384 7.56012 22.3358 7.60219C20.8944 7.60219 19.4297 7.60219 18.0174 7.60219V7.63125C16.361 7.63125 14.7045 7.59056 13.0539 7.63125C11.6981 7.66186 10.4018 8.19406 9.41554 9.12495C8.82996 9.67506 8.36686 10.3424 8.05642 11.0834C7.74597 11.8245 7.59516 12.6227 7.6138 13.4259C7.6138 16.0704 7.6138 18.7149 7.6138 21.3652C7.59325 21.9934 7.61072 22.6222 7.66611 23.2483C7.74193 24.0839 8.00622 24.8915 8.43909 25.6102C8.87196 26.329 9.46216 26.9403 10.1653 27.3981C11.2555 28.0911 12.5301 28.4376 13.8211 28.392C16.0355 28.392 18.2441 28.392 20.4585 28.392C21.4867 28.4115 22.5151 28.3727 23.5389 28.2757C24.2935 28.188 25.0207 27.9404 25.6721 27.5496C26.3235 27.1587 26.8842 26.6335 27.3167 26.009C28.044 24.9549 28.4184 23.6974 28.3862 22.4172C28.4094 19.4821 28.4036 16.5412 28.392 13.6002ZM26.5495 22.1614C26.5747 22.8361 26.4538 23.5082 26.195 24.1317C25.9213 24.7978 25.4618 25.3711 24.8713 25.7833C24.2809 26.1955 23.5843 26.4292 22.8647 26.4566C22.0452 26.5263 21.2141 26.4972 20.3829 26.4972C18.155 26.4972 15.9289 26.4972 13.7049 26.4972C12.9587 26.5157 12.2191 26.3542 11.5486 26.0265C10.9701 25.7383 10.4807 25.2985 10.1326 24.7539C9.78461 24.2093 9.59099 23.5805 9.57247 22.9344C9.50272 22.0859 9.52597 21.2315 9.52597 20.3829C9.52597 18.1685 9.52597 15.9541 9.52597 13.7455C9.52648 13.1963 9.60675 12.6501 9.76427 12.124C9.96337 11.4239 10.3797 10.8052 10.9532 10.3571C11.5267 9.90895 12.2277 9.65456 12.9551 9.6306C14.1756 9.52017 15.4078 9.57829 16.64 9.56086C17.1049 9.56086 17.5641 9.56086 18.029 9.56086C19.546 9.56086 21.0629 9.56086 22.5799 9.56086C23.469 9.54393 24.3377 9.8287 25.0442 10.3687C25.4658 10.6945 25.8127 11.1069 26.0613 11.5782C26.31 12.0494 26.4547 12.5685 26.4856 13.1004C26.5612 14.0536 26.5379 15.0184 26.5379 15.9774C26.5554 18.0174 26.5495 20.0923 26.5495 22.1614Z" fill="white"/>
<path d="M17.976 12.6006C16.9158 12.604 15.8803 12.9216 15.0004 13.5131C14.1205 14.1047 13.4356 14.9437 13.0323 15.9243C12.6289 16.9048 12.5252 17.9829 12.7341 19.0223C12.9431 20.0618 13.4554 21.0161 14.2063 21.7646C14.9572 22.5131 15.9131 23.0223 16.9533 23.2278C17.9934 23.4334 19.0712 23.3262 20.0504 22.9196C21.0296 22.5131 21.8664 21.8255 22.4551 20.9437C23.0438 20.0619 23.358 19.0254 23.358 17.9651C23.3572 17.2594 23.2174 16.5607 22.9464 15.9091C22.6755 15.2574 22.2787 14.6656 21.7789 14.1674C21.2791 13.6691 20.6859 13.2743 20.0334 13.0055C19.3809 12.7366 18.6818 12.5991 17.976 12.6006ZM17.976 21.3943C17.2969 21.3943 16.633 21.1929 16.0683 20.8158C15.5035 20.4386 15.0633 19.9025 14.8031 19.2751C14.543 18.6478 14.4746 17.9575 14.6067 17.2913C14.7387 16.6252 15.0653 16.0131 15.5451 15.5325C16.0249 15.0519 16.6364 14.7243 17.3023 14.5911C17.9683 14.4579 18.6587 14.5251 19.2865 14.7842C19.9142 15.0433 20.4511 15.4826 20.8292 16.0467C21.2074 16.6108 21.4098 17.2744 21.411 17.9535C21.4141 18.859 21.0589 19.7289 20.423 20.3735C19.7872 21.0181 18.9221 21.385 18.0167 21.3943H17.976ZM23.5847 11.258C23.3439 11.2557 23.108 11.325 22.9067 11.457C22.7054 11.5891 22.5479 11.778 22.4542 11.9997C22.3604 12.2215 22.3347 12.4661 22.3803 12.7025C22.4258 12.9389 22.5406 13.1564 22.71 13.3275C22.8794 13.4985 23.0958 13.6154 23.3318 13.6632C23.5677 13.711 23.8125 13.6876 24.0352 13.596C24.2578 13.5045 24.4482 13.3488 24.5822 13.1488C24.7162 12.9488 24.7878 12.7135 24.7878 12.4727C24.7885 12.314 24.758 12.1566 24.698 12.0096C24.6379 11.8627 24.5495 11.729 24.4378 11.6162C24.3261 11.5034 24.1932 11.4137 24.0469 11.3522C23.9005 11.2908 23.7434 11.2588 23.5847 11.258Z" fill="white"/>
</g>
<defs>
<clipPath id="clip0_688_876">
<rect width="36" height="36"/>
</clipPath>
</defs>
</svg>
