<svg width="22" height="22" viewBox="0 0 22 22" fill="none" xmlns="http://www.w3.org/2000/svg">
<path d="M21.392 6.60026C21.4168 5.4005 21.0828 4.22065 20.433 3.21182C19.8809 2.37381 19.1213 1.69302 18.2281 1.2357C17.3348 0.778387 16.3384 0.560138 15.3358 0.6022C13.8944 0.6022 12.4297 0.6022 11.0174 0.6022V0.631261C9.36097 0.631261 7.70453 0.590576 6.0539 0.631261C4.69808 0.661877 3.40176 1.19407 2.41554 2.12496C1.82996 2.67508 1.36686 3.34241 1.05642 4.08346C0.745974 4.82451 0.595159 5.62267 0.613798 6.4259C0.613798 9.0704 0.613798 11.7149 0.613798 14.3652C0.593254 14.9934 0.610722 15.6222 0.666106 16.2483C0.741933 17.0839 1.00622 17.8915 1.43909 18.6103C1.87196 19.329 2.46216 19.9403 3.1653 20.3981C4.2555 21.0912 5.53007 21.4377 6.82109 21.392C9.0355 21.392 11.2441 21.392 13.4585 21.392C14.4867 21.4115 15.5151 21.3727 16.5389 21.2758C17.2935 21.188 18.0207 20.9404 18.6721 20.5496C19.3235 20.1587 19.8842 19.6336 20.3167 19.009C21.044 17.9549 21.4184 16.6974 21.3862 15.4172C21.4094 12.4821 21.4036 9.54117 21.392 6.60026ZM19.5495 15.1615C19.5747 15.8361 19.4538 16.5082 19.195 17.1317C18.9213 17.7978 18.4618 18.3711 17.8713 18.7833C17.2809 19.1955 16.5843 19.4292 15.8647 19.4566C15.0452 19.5263 14.2141 19.4973 13.3829 19.4973C11.155 19.4973 8.92894 19.4973 6.70485 19.4973C5.95873 19.5157 5.21913 19.3542 4.54857 19.0265C3.97007 18.7383 3.48068 18.2985 3.13264 17.7539C2.78461 17.2094 2.59099 16.5805 2.57247 15.9345C2.50272 15.0859 2.52597 14.2315 2.52597 13.383C2.52597 11.1686 2.52597 8.95415 2.52597 6.74556C2.52648 6.19636 2.60675 5.65013 2.76427 5.124C2.96337 4.42395 3.3797 3.80524 3.95318 3.3571C4.52667 2.90897 5.22768 2.65457 5.9551 2.63061C7.17563 2.52019 8.40779 2.57831 9.63995 2.56087C10.1049 2.56087 10.5641 2.56087 11.029 2.56087C12.546 2.56087 14.0629 2.56087 15.5799 2.56087C16.469 2.54395 17.3377 2.82871 18.0442 3.36875C18.4658 3.69452 18.8127 4.10694 19.0613 4.57818C19.31 5.04942 19.4547 5.56851 19.4856 6.10043C19.5612 7.05361 19.5379 8.01841 19.5379 8.9774C19.5554 11.0174 19.5495 13.0924 19.5495 15.1615Z" />
<path d="M10.976 5.60058C9.91576 5.60403 8.8803 5.92158 8.0004 6.51313C7.1205 7.10469 6.43563 7.94371 6.03227 8.92426C5.62892 9.9048 5.52516 10.9829 5.73412 12.0223C5.94308 13.0618 6.45537 14.0161 7.20631 14.7646C7.95724 15.5131 8.91314 16.0223 9.95328 16.2278C10.9934 16.4334 12.0712 16.3262 13.0504 15.9196C14.0296 15.5131 14.8664 14.8255 15.4551 13.9437C16.0438 13.0619 16.358 12.0254 16.358 10.9651C16.3572 10.2594 16.2174 9.56073 15.9464 8.90908C15.6755 8.25743 15.2787 7.66557 14.7789 7.16735C14.2791 6.66913 13.6859 6.27432 13.0334 6.00548C12.3809 5.73664 11.6818 5.59905 10.976 5.60058ZM10.976 14.3943C10.2969 14.3943 9.63302 14.1929 9.06828 13.8158C8.50353 13.4386 8.06326 12.9025 7.80311 12.2751C7.54296 11.6478 7.4746 10.9575 7.60666 10.2913C7.73873 9.62517 8.0653 9.01312 8.5451 8.5325C9.02491 8.05189 9.63641 7.72428 10.3023 7.59109C10.9683 7.45789 11.6587 7.52509 12.2865 7.78418C12.9142 8.04327 13.4511 8.48263 13.8292 9.04674C14.2074 9.61085 14.4098 10.2744 14.411 10.9535C14.4141 11.859 14.0589 12.7289 13.423 13.3735C12.7872 14.0181 11.9221 14.385 11.0167 14.3943H10.976ZM16.5847 4.25799C16.3439 4.25569 16.108 4.32497 15.9067 4.45703C15.7054 4.5891 15.5479 4.778 15.4542 4.99975C15.3604 5.2215 15.3347 5.46609 15.3803 5.70249C15.4258 5.93888 15.5406 6.15641 15.71 6.32746C15.8794 6.49851 16.0958 6.61536 16.3318 6.66318C16.5677 6.711 16.8125 6.68763 17.0352 6.59604C17.2578 6.50445 17.4482 6.34878 17.5822 6.14877C17.7162 5.94877 17.7878 5.71346 17.7878 5.47271C17.7885 5.31396 17.758 5.1566 17.698 5.00964C17.6379 4.86267 17.5495 4.72898 17.4378 4.61618C17.3261 4.50338 17.1932 4.41369 17.0469 4.35223C16.9005 4.29077 16.7434 4.25875 16.5847 4.25799Z" />
<path d="M21.392 6.60026C21.4168 5.4005 21.0828 4.22065 20.433 3.21182C19.8809 2.37381 19.1213 1.69302 18.2281 1.2357C17.3348 0.778387 16.3384 0.560138 15.3358 0.6022C13.8944 0.6022 12.4297 0.6022 11.0174 0.6022V0.631261C9.36097 0.631261 7.70453 0.590576 6.0539 0.631261C4.69808 0.661877 3.40176 1.19407 2.41554 2.12496C1.82996 2.67508 1.36686 3.34241 1.05642 4.08346C0.745974 4.82451 0.595159 5.62267 0.613798 6.4259C0.613798 9.0704 0.613798 11.7149 0.613798 14.3652C0.593254 14.9934 0.610722 15.6222 0.666106 16.2483C0.741933 17.0839 1.00622 17.8915 1.43909 18.6103C1.87196 19.329 2.46216 19.9403 3.1653 20.3981C4.2555 21.0912 5.53007 21.4377 6.82109 21.392C9.0355 21.392 11.2441 21.392 13.4585 21.392C14.4867 21.4115 15.5151 21.3727 16.5389 21.2758C17.2935 21.188 18.0207 20.9404 18.6721 20.5496C19.3235 20.1587 19.8842 19.6336 20.3167 19.009C21.044 17.9549 21.4184 16.6974 21.3862 15.4172C21.4094 12.4821 21.4036 9.54117 21.392 6.60026ZM19.5495 15.1615C19.5747 15.8361 19.4538 16.5082 19.195 17.1317C18.9213 17.7978 18.4618 18.3711 17.8713 18.7833C17.2809 19.1955 16.5843 19.4292 15.8647 19.4566C15.0452 19.5263 14.2141 19.4973 13.3829 19.4973C11.155 19.4973 8.92894 19.4973 6.70485 19.4973C5.95873 19.5157 5.21913 19.3542 4.54857 19.0265C3.97007 18.7383 3.48068 18.2985 3.13264 17.7539C2.78461 17.2094 2.59099 16.5805 2.57247 15.9345C2.50272 15.0859 2.52597 14.2315 2.52597 13.383C2.52597 11.1686 2.52597 8.95415 2.52597 6.74556C2.52648 6.19636 2.60675 5.65013 2.76427 5.124C2.96337 4.42395 3.3797 3.80524 3.95318 3.3571C4.52667 2.90897 5.22768 2.65457 5.9551 2.63061C7.17563 2.52019 8.40779 2.57831 9.63995 2.56087C10.1049 2.56087 10.5641 2.56087 11.029 2.56087C12.546 2.56087 14.0629 2.56087 15.5799 2.56087C16.469 2.54395 17.3377 2.82871 18.0442 3.36875C18.4658 3.69452 18.8127 4.10694 19.0613 4.57818C19.31 5.04942 19.4547 5.56851 19.4856 6.10043C19.5612 7.05361 19.5379 8.01841 19.5379 8.9774C19.5554 11.0174 19.5495 13.0924 19.5495 15.1615Z" />
<path d="M10.976 5.60058C9.91576 5.60403 8.8803 5.92158 8.0004 6.51313C7.1205 7.10469 6.43563 7.94371 6.03227 8.92426C5.62892 9.9048 5.52516 10.9829 5.73412 12.0223C5.94308 13.0618 6.45537 14.0161 7.20631 14.7646C7.95724 15.5131 8.91314 16.0223 9.95328 16.2278C10.9934 16.4334 12.0712 16.3262 13.0504 15.9196C14.0296 15.5131 14.8664 14.8255 15.4551 13.9437C16.0438 13.0619 16.358 12.0254 16.358 10.9651C16.3572 10.2594 16.2174 9.56073 15.9464 8.90908C15.6755 8.25743 15.2787 7.66557 14.7789 7.16735C14.2791 6.66913 13.6859 6.27432 13.0334 6.00548C12.3809 5.73664 11.6818 5.59905 10.976 5.60058ZM10.976 14.3943C10.2969 14.3943 9.63302 14.1929 9.06828 13.8158C8.50353 13.4386 8.06326 12.9025 7.80311 12.2751C7.54296 11.6478 7.4746 10.9575 7.60666 10.2913C7.73873 9.62517 8.0653 9.01312 8.5451 8.5325C9.02491 8.05189 9.63641 7.72428 10.3023 7.59109C10.9683 7.45789 11.6587 7.52509 12.2865 7.78418C12.9142 8.04327 13.4511 8.48263 13.8292 9.04674C14.2074 9.61085 14.4098 10.2744 14.411 10.9535C14.4141 11.859 14.0589 12.7289 13.423 13.3735C12.7872 14.0181 11.9221 14.385 11.0167 14.3943H10.976ZM16.5847 4.25799C16.3439 4.25569 16.108 4.32497 15.9067 4.45703C15.7054 4.5891 15.5479 4.778 15.4542 4.99975C15.3604 5.2215 15.3347 5.46609 15.3803 5.70249C15.4258 5.93888 15.5406 6.15641 15.71 6.32746C15.8794 6.49851 16.0958 6.61536 16.3318 6.66318C16.5677 6.711 16.8125 6.68763 17.0352 6.59604C17.2578 6.50445 17.4482 6.34878 17.5822 6.14877C17.7162 5.94877 17.7878 5.71346 17.7878 5.47271C17.7885 5.31396 17.758 5.1566 17.698 5.00964C17.6379 4.86267 17.5495 4.72898 17.4378 4.61618C17.3261 4.50338 17.1932 4.41369 17.0469 4.35223C16.9005 4.29077 16.7434 4.25875 16.5847 4.25799Z" />
</svg>
