<svg width="21" height="18" viewBox="0 0 21 18" fill="none" xmlns="http://www.w3.org/2000/svg">
<path d="M11.4889 13.8182L10.9775 14.3181C10.3963 14.8528 9.87317 15.3933 9.3094 15.9222C9.0791 16.1574 8.78692 16.3227 8.46664 16.3988H8.3969H8.30972C8.30683 16.3717 8.30683 16.3445 8.30972 16.3174C8.36203 15.6025 8.42015 14.8818 8.47827 14.1611C8.52477 13.5276 8.57707 12.8941 8.62357 12.2548C8.62357 12.0746 8.65263 11.8886 8.67007 11.7084C8.67975 11.6677 8.70214 11.631 8.734 11.6038L11.3262 9.23249L16.5571 4.46658L17.2545 3.82726C17.3018 3.7831 17.3446 3.73443 17.3824 3.68195C17.4521 3.58315 17.4172 3.50178 17.301 3.47272C17.2407 3.45399 17.1773 3.44742 17.1144 3.45341C17.0516 3.45939 16.9905 3.47781 16.9348 3.50759C16.8398 3.55491 16.7485 3.60931 16.6617 3.67033L6.69977 9.93575C6.51379 10.052 6.33361 10.174 6.11857 10.2845C6.06768 10.3017 6.01252 10.3017 5.96164 10.2845L1.49796 8.93026C1.34695 8.88927 1.19928 8.83681 1.05625 8.77333C0.987321 8.74934 0.925309 8.70885 0.875616 8.65539C0.825923 8.60194 0.790058 8.53714 0.771146 8.46665C0.752234 8.39616 0.750848 8.32211 0.767111 8.25096C0.783373 8.17981 0.81679 8.11372 0.864449 8.05845C0.980736 7.88521 1.14695 7.75143 1.34104 7.67485C1.79826 7.48111 2.25741 7.28738 2.7185 7.09364L10.2393 4.1876L19.5387 0.601554C19.6622 0.552545 19.7909 0.517456 19.9222 0.496936C20.1459 0.472018 20.3705 0.535131 20.5484 0.672909C20.7263 0.810686 20.8436 1.01231 20.8754 1.23507C20.9276 1.48422 20.9276 1.74149 20.8754 1.99064C20.4918 3.7982 20.1024 5.60575 19.713 7.41912L18.4111 13.4404C18.2019 14.4285 17.9984 15.4107 17.7776 16.393C17.7359 16.5941 17.6695 16.7893 17.58 16.9742C17.5451 17.0689 17.4918 17.1557 17.423 17.2296C17.3543 17.3036 17.2716 17.3631 17.1796 17.4047C17.0877 17.4464 16.9884 17.4693 16.8875 17.4722C16.7866 17.4751 16.6861 17.458 16.5919 17.4217C16.3491 17.3584 16.1204 17.25 15.9177 17.102C14.4647 16.0152 13.0117 14.9341 11.5412 13.8473L11.4889 13.8182Z" />
</svg>
