<svg width="36" height="36" viewBox="0 0 36 36" fill="none" xmlns="http://www.w3.org/2000/svg">
<g clip-path="url(#clip0_688_873)">
<path d="M9.85728 0.5H26.1427C31.3106 0.5 35.5 4.6894 35.5 9.85728V26.1427C35.5 31.3106 31.3106 35.5 26.1427 35.5H9.85728C4.6894 35.5 0.5 31.3106 0.5 26.1427V9.85728C0.5 4.6894 4.6894 0.5 9.85728 0.5Z" stroke="white"/>
<path d="M17.4889 22.8182L16.9775 23.3181C16.3963 23.8528 15.8732 24.3933 15.3094 24.9222C15.0791 25.1574 14.7869 25.3227 14.4666 25.3988H14.3969H14.3097C14.3068 25.3717 14.3068 25.3445 14.3097 25.3174C14.362 24.6025 14.4201 23.8818 14.4783 23.1611C14.5248 22.5276 14.5771 21.8941 14.6236 21.2548C14.6236 21.0746 14.6526 20.8886 14.6701 20.7084C14.6797 20.6677 14.7021 20.631 14.734 20.6038L17.3262 18.2325L22.5571 13.4666L23.2545 12.8273C23.3018 12.7831 23.3446 12.7344 23.3824 12.682C23.4521 12.5831 23.4172 12.5018 23.301 12.4727C23.2407 12.454 23.1773 12.4474 23.1144 12.4534C23.0516 12.4594 22.9905 12.4778 22.9348 12.5076C22.8398 12.5549 22.7485 12.6093 22.6617 12.6703L12.6998 18.9357C12.5138 19.052 12.3336 19.174 12.1186 19.2845C12.0677 19.3017 12.0125 19.3017 11.9616 19.2845L7.49796 17.9303C7.34695 17.8893 7.19928 17.8368 7.05625 17.7733C6.98732 17.7493 6.92531 17.7088 6.87562 17.6554C6.82592 17.6019 6.79006 17.5371 6.77115 17.4667C6.75223 17.3962 6.75085 17.3221 6.76711 17.251C6.78337 17.1798 6.81679 17.1137 6.86445 17.0584C6.98074 16.8852 7.14695 16.7514 7.34104 16.6749C7.79826 16.4811 8.25741 16.2874 8.7185 16.0936L16.2393 13.1876L25.5387 9.60155C25.6622 9.55255 25.7909 9.51746 25.9222 9.49694C26.1459 9.47202 26.3705 9.53513 26.5484 9.67291C26.7263 9.81069 26.8436 10.0123 26.8754 10.2351C26.9276 10.4842 26.9276 10.7415 26.8754 10.9906C26.4918 12.7982 26.1024 14.6058 25.713 16.4191L24.4111 22.4404C24.2019 23.4285 23.9984 24.4107 23.7776 25.393C23.7359 25.5941 23.6695 25.7893 23.58 25.9742C23.5451 26.0689 23.4918 26.1557 23.423 26.2296C23.3543 26.3036 23.2716 26.3631 23.1796 26.4047C23.0877 26.4464 22.9884 26.4693 22.8875 26.4722C22.7866 26.4751 22.6861 26.458 22.5919 26.4217C22.3491 26.3584 22.1204 26.25 21.9177 26.102C20.4647 25.0152 19.0117 23.9341 17.5412 22.8473L17.4889 22.8182Z" fill="none" stroke="white"/>
</g>
<defs>
<clipPath id="clip0_688_873">
<rect width="36" height="36" stroke="white"/>
</clipPath>
</defs>
</svg>
