<svg width="24" height="16" viewBox="0 0 24 16" fill="none" xmlns="http://www.w3.org/2000/svg">
<path d="M12.6862 15.7591C11.0821 15.7591 9.7046 15.7591 8.32132 15.6894C7.27515 15.6603 6.23479 15.608 5.19443 15.5266C4.55602 15.4994 3.92161 15.4118 3.29969 15.2651C2.78357 15.1416 2.31668 14.8653 1.96 14.4723C1.60333 14.0793 1.37343 13.588 1.30034 13.0623C1.15416 12.2592 1.05711 11.4478 1.00973 10.6329C0.939988 9.55182 0.910927 8.47077 0.916739 7.38973C0.912832 6.05741 1.00803 4.72665 1.20153 3.40845C1.24988 2.81377 1.44999 2.24144 1.78274 1.7462C2.00538 1.43365 2.29113 1.17128 2.6215 0.976063C2.95188 0.78084 3.31954 0.657103 3.70072 0.612847C4.56091 0.514041 5.44435 0.432672 6.2871 0.380364C8.90834 0.22925 11.518 0.223437 14.1566 0.25831C15.3772 0.25831 16.5977 0.302869 17.8183 0.391987C18.6831 0.435766 19.5446 0.528911 20.3988 0.670968C20.9762 0.747983 21.5117 1.01473 21.9209 1.42925C22.3302 1.84378 22.5901 2.38258 22.6597 2.96092C22.8049 3.74292 22.9039 4.53279 22.9561 5.32644C23.0607 6.41911 23.0607 7.51178 23.0607 8.59864C23.0624 9.9609 22.9575 11.3212 22.7469 12.6671C22.6909 13.2457 22.4911 13.8011 22.1657 14.2828C21.9384 14.5752 21.6555 14.8197 21.3333 15.0022C21.0111 15.1848 20.656 15.3018 20.2884 15.3465C19.2076 15.4976 18.1189 15.5849 17.0278 15.608L12.6862 15.7591ZM15.5922 7.99999L9.78015 4.65224V11.3303L15.5922 7.99999Z" />
</svg>
