<svg width="36" height="36" viewBox="0 0 36 36" fill="none" xmlns="http://www.w3.org/2000/svg">
<g clip-path="url(#clip0_688_875)">
<path d="M9.85728 0.5H26.1427C31.3106 0.5 35.5 4.6894 35.5 9.85728V26.1427C35.5 31.3106 31.3106 35.5 26.1427 35.5H9.85728C4.6894 35.5 0.5 31.3106 0.5 26.1427V9.85728C0.5 4.6894 4.6894 0.5 9.85728 0.5Z"/>
<path d="M18.6862 25.7591C17.0821 25.7591 15.7046 25.7591 14.3213 25.6894C13.2751 25.6603 12.2348 25.608 11.1944 25.5266C10.556 25.4994 9.92161 25.4118 9.29969 25.2651C8.78357 25.1416 8.31668 24.8653 7.96 24.4723C7.60333 24.0793 7.37343 23.588 7.30034 23.0623C7.15416 22.2592 7.05711 21.4478 7.00973 20.6329C6.93999 19.5518 6.91093 18.4708 6.91674 17.3897C6.91283 16.0574 7.00803 14.7266 7.20153 13.4085C7.24988 12.8138 7.44999 12.2414 7.78274 11.7462C8.00538 11.4336 8.29113 11.1713 8.6215 10.9761C8.95188 10.7808 9.31954 10.6571 9.70072 10.6128C10.5609 10.514 11.4443 10.4327 12.2871 10.3804C14.9083 10.2292 17.518 10.2234 20.1566 10.2583C21.3772 10.2583 22.5977 10.3029 23.8183 10.392C24.6831 10.4358 25.5446 10.5289 26.3988 10.671C26.9762 10.748 27.5117 11.0147 27.9209 11.4293C28.3302 11.8438 28.5901 12.3826 28.6597 12.9609C28.8049 13.7429 28.9039 14.5328 28.9561 15.3264C29.0607 16.4191 29.0607 17.5118 29.0607 18.5986C29.0624 19.9609 28.9575 21.3212 28.7469 22.6671C28.6909 23.2457 28.4911 23.8011 28.1657 24.2828C27.9384 24.5752 27.6555 24.8197 27.3333 25.0022C27.0111 25.1848 26.656 25.3018 26.2884 25.3465C25.2076 25.4976 24.1189 25.5849 23.0278 25.608L18.6862 25.7591ZM21.5922 18L15.7802 14.6522V21.3303L21.5922 18Z" fill="white"/>
</g>
<defs>
<clipPath id="clip0_688_875">
<rect width="36" height="36" fill="white"/>
</clipPath>
</defs>
</svg>
