<svg width="768" height="286" viewBox="0 0 768 286" fill="none" xmlns="http://www.w3.org/2000/svg">
<path opacity="0.2" d="M-613.939 485.453C-618.2 464.824 -625.841 445.049 -636.371 426.098C-594.544 425.383 -552.766 424.283 -510.988 422.633C-291.275 413.886 -69.2109 389.215 129.295 333.931C331.67 277.575 438.147 170.418 609.177 90.7384C767.864 16.7793 942.273 -5.58166 1123 1.12939V774H-714C-636.714 683.456 -593.417 585.128 -613.939 485.48V485.453Z" fill="#C2DCFC"/>
<path opacity="0.2" d="M-42.4189 498.008L-42.4086 498.058V498.076C-29.1011 562.86 -57.0485 626.73 -106.918 685.5H1086.5V183.217C969.157 178.907 855.955 193.489 752.961 241.539L752.749 241.085L752.961 241.539C710.753 261.222 674.602 283.477 638.764 305.538C627.394 312.537 616.056 319.517 604.567 326.389C556.87 354.916 506.598 381.56 440.712 399.925C311.529 435.938 167.03 452.006 24.0825 457.702C-2.82263 458.766 -29.7273 459.479 -56.662 459.945C-49.9971 472.103 -45.1475 484.785 -42.4189 498.008Z" stroke="#4B7EB7"/>
</svg>
