<svg width="768" height="562" viewBox="0 0 768 562" fill="none" xmlns="http://www.w3.org/2000/svg">
<path opacity="0.2" d="M1468.94 485.453C1473.2 464.824 1480.84 445.049 1491.37 426.098C1449.54 425.383 1407.77 424.283 1365.99 422.633C1146.28 413.886 924.211 389.215 725.705 333.931C523.33 277.575 416.853 170.418 245.823 90.7384C87.136 16.7793 -87.2729 -5.58166 -268 1.12939V774H1569C1491.71 683.456 1448.42 585.128 1468.94 485.48V485.453Z" fill="#C2DCFC"/>
<path opacity="0.2" d="M1436.94 779.453C1441.2 758.824 1448.84 739.049 1459.37 720.098C1417.54 719.383 1375.77 718.283 1333.99 716.633C1114.28 707.886 892.211 683.215 693.705 627.931C491.33 571.575 384.853 464.418 213.823 384.738C55.136 310.779 -119.273 288.418 -300 295.129V1068H1537C1459.71 977.456 1416.42 879.128 1436.94 779.48V779.453Z" fill="#C2DCFC"/>
<path opacity="0.2" d="M802.419 498.008L802.409 498.058V498.076C789.101 562.86 817.048 626.73 866.918 685.5H-326.5V183.217C-209.157 178.907 -95.9547 193.489 7.03943 241.539L7.25082 241.085L7.03949 241.539C49.2471 261.222 85.3984 283.477 121.236 305.538C132.606 312.537 143.944 319.517 155.433 326.389C203.13 354.916 253.402 381.56 319.288 399.925C448.471 435.938 592.97 452.006 735.917 457.702C762.823 458.766 789.727 459.479 816.662 459.945C809.997 472.103 805.147 484.785 802.419 498.008Z" stroke="#4B7EB7"/>
</svg>
