<svg width="768" height="184" viewBox="0 0 768 184" fill="none" xmlns="http://www.w3.org/2000/svg">
<path d="M106.734 789.189L1296.76 270.761L1075.34 -694L-114.689 -175.572L106.734 789.189Z" fill="#B9D6FF" fill-opacity="0.2"/>
<mask id="mask0_479_4457" style="mask-type:luminance" maskUnits="userSpaceOnUse" x="-115" y="-694" width="1412" height="1484">
<path d="M87.6812 789.189L1296.76 234.519L1094.39 -694L-114.689 -139.33L87.6812 789.189Z" fill="white"/>
</mask>
<g mask="url(#mask0_479_4457)">
<g style="mix-blend-mode:color-burn">
<path d="M-48.8158 496.253C48.6168 467.815 77.8406 501.372 205.516 445.457C356.355 379.396 342.932 320.601 493.744 254.552C644.557 188.503 657.98 247.299 808.819 181.238C959.659 115.178 946.181 56.4058 1096.99 -9.64285C1189.51 -50.1627 1230.35 -43.698 1282.89 -47.8973L1210.25 -366.076L-113.346 213.597L-48.8158 496.253Z" fill="url(#paint0_linear_479_4457)"/>
<path d="M2.66921 297.67C153.472 231.639 166.894 290.419 317.697 224.387C468.499 158.356 455.104 99.5635 605.907 33.5318C756.71 -32.4998 770.132 26.2805 920.962 -39.763C1071.79 -105.807 1058.31 -164.563 1209.12 -230.595C1220.16 -235.428 1230.43 -239.562 1240.1 -243.172L1176.21 -522.97L-152.362 58.7682L-86.4821 347.28C-63.8709 331.055 -36.017 314.61 2.66921 297.67Z" fill="url(#paint1_linear_479_4457)"/>
<path d="M-112.056 245.179C-19.0749 219.609 11.4605 250.79 136.643 195.953C287.493 129.874 274.07 71.0614 424.892 4.99369C575.715 -61.074 589.139 -2.26153 739.99 -68.3411C890.84 -134.421 877.361 -193.209 1028.18 -259.277C1120.71 -299.809 1161.55 -293.342 1214.1 -297.542L1141.45 -615.813L-176.776 -38.3665L-112.05 245.209L-112.056 245.179Z" fill="url(#paint2_linear_479_4457)"/>
<path d="M-85.2555 141.259C65.5468 75.2279 78.969 134.008 229.771 67.9766C380.574 1.94547 367.179 -56.8463 517.981 -122.877C668.784 -188.909 682.206 -130.129 833.035 -196.172C983.865 -262.215 970.388 -320.971 1121.19 -387.002C1151.2 -400.144 1175.77 -408.331 1197.1 -413.552L1132.03 -698.498L-196.564 -116.753L-132.359 164.42C-118.578 156.805 -103.083 149.098 -85.2487 141.289L-85.2555 141.259Z" fill="url(#paint3_linear_479_4457)"/>
</g>
<g style="mix-blend-mode:color-burn">
<path d="M-156.828 66.2725C-63.1767 40.3677 -32.8008 72.0117 92.7332 17.0935C243.548 -48.8845 230.073 -107.845 380.86 -173.811C531.648 -239.777 545.123 -180.817 695.938 -246.794C846.752 -312.772 833.223 -371.709 984.01 -437.675C1076.52 -478.144 1117.36 -471.598 1169.91 -475.722L1096.99 -794.792L-221.768 -217.865L-156.828 66.2725Z" fill="url(#paint4_linear_479_4457)"/>
<path d="M-90.9374 -54.6397C59.8314 -120.573 73.305 -61.6421 224.074 -127.575C374.843 -193.508 361.396 -252.451 512.165 -318.384C662.934 -384.317 676.408 -325.386 827.204 -391.331C978 -457.276 964.472 -516.183 1115.24 -582.116C1128.1 -587.738 1139.91 -592.41 1150.91 -596.361L1086.71 -877.174L-241.565 -296.305L-175.679 -8.13664C-153.865 -23.3559 -127.135 -38.7772 -90.9305 -54.6097L-90.9374 -54.6397Z" fill="url(#paint5_linear_479_4457)"/>
</g>
</g>
<defs>
<linearGradient id="paint0_linear_479_4457" x1="548.432" y1="-76.2633" x2="684.962" y2="235.482" gradientUnits="userSpaceOnUse">
<stop offset="0.63" stop-color="white"/>
<stop offset="0.71" stop-color="#F0F0F0"/>
<stop offset="0.86" stop-color="#E4F0FF"/>
<stop offset="1" stop-color="#C3D8F5"/>
</linearGradient>
<linearGradient id="paint1_linear_479_4457" x1="511.916" y1="-232.065" x2="648.38" y2="79.5916" gradientUnits="userSpaceOnUse">
<stop offset="0.63" stop-color="white"/>
<stop offset="0.71" stop-color="#F0F0F0"/>
<stop offset="0.86" stop-color="#C3D8F5"/>
<stop offset="1" stop-color="#C3D8F5"/>
</linearGradient>
<linearGradient id="paint2_linear_479_4457" x1="482.337" y1="-327.09" x2="618.914" y2="-15.3042" gradientUnits="userSpaceOnUse">
<stop offset="0.63" stop-color="white"/>
<stop offset="0.71" stop-color="#F0F0F0"/>
<stop offset="0.86" stop-color="#D0E2FF"/>
<stop offset="1" stop-color="#A6CBFE"/>
</linearGradient>
<linearGradient id="paint3_linear_479_4457" x1="467.699" y1="-407.644" x2="604.174" y2="-95.9612" gradientUnits="userSpaceOnUse">
<stop offset="0.63" stop-color="#E4F0FF"/>
<stop offset="0.71" stop-color="#F0F0F0"/>
<stop offset="0.86" stop-color="#E4F0FF"/>
<stop offset="1" stop-color="#B9D6FF"/>
</linearGradient>
<linearGradient id="paint4_linear_479_4457" x1="437.591" y1="-506.353" x2="574.402" y2="-193.625" gradientUnits="userSpaceOnUse">
<stop offset="0.63" stop-color="white"/>
<stop offset="0.71" stop-color="#D0E2FF"/>
<stop offset="0.86" stop-color="#E4F0FF"/>
<stop offset="1" stop-color="#C3D8F5"/>
</linearGradient>
<linearGradient id="paint5_linear_479_4457" x1="422.558" y1="-586.734" x2="559.265" y2="-274.125" gradientUnits="userSpaceOnUse">
<stop offset="0.63" stop-color="#C3D8F5"/>
<stop offset="0.71" stop-color="#F0F0F0"/>
<stop offset="0.86" stop-color="#E4F0FF"/>
<stop offset="1" stop-color="#D0E2FF"/>
</linearGradient>
</defs>
</svg>
