<!-- Generated by IcoMoon.io -->
<svg version="1.1" xmlns="http://www.w3.org/2000/svg" width="32" height="32" viewBox="0 0 32 32">
<title>telegram</title>
<path d="M8.762 0c-4.834 0-8.762 3.928-8.762 8.762v14.476c0 4.834 3.928 8.762 8.762 8.762h14.476c4.834 0 8.762-3.928 8.762-8.762v-14.476c0-4.834-3.928-8.762-8.762-8.762zM8.762 0.889h14.476c4.354 0 7.873 3.52 7.873 7.873v14.476c0 4.354-3.52 7.873-7.873 7.873h-14.476c-4.353 0-7.873-3.52-7.873-7.873v-14.476c0-4.353 3.52-7.873 7.873-7.873z"></path>
<path d="M15.546 20.283l-0.455 0.444c-0.517 0.475-0.982 0.956-1.483 1.426-0.205 0.209-0.464 0.356-0.749 0.424h-0.139c-0.003-0.024-0.003-0.048 0-0.072 0.046-0.635 0.098-1.276 0.15-1.917 0.041-0.563 0.088-1.126 0.129-1.695 0-0.16 0.026-0.326 0.041-0.486 0.009-0.036 0.028-0.069 0.057-0.093l2.304-2.108 5.27-4.805c0.042-0.039 0.080-0.082 0.114-0.129 0.062-0.088 0.031-0.16-0.072-0.186-0.054-0.017-0.11-0.023-0.166-0.017s-0.11 0.022-0.16 0.048c-0.084 0.042-0.166 0.090-0.243 0.145l-8.855 5.569c-0.165 0.103-0.325 0.212-0.517 0.31-0.045 0.015-0.094 0.015-0.14 0l-3.968-1.204c-0.134-0.036-0.266-0.083-0.393-0.14-0.061-0.021-0.116-0.057-0.161-0.105s-0.076-0.105-0.093-0.168c-0.017-0.063-0.018-0.128-0.004-0.192s0.044-0.122 0.087-0.171c0.103-0.154 0.251-0.273 0.424-0.341 0.406-0.172 0.815-0.344 1.224-0.517l14.951-5.771c0.11-0.044 0.224-0.075 0.341-0.093 0.199-0.022 0.398 0.034 0.557 0.156s0.262 0.302 0.291 0.5c0.046 0.221 0.046 0.45 0 0.672-0.341 1.607-0.687 3.213-1.033 4.825l-1.157 5.352c-0.186 0.878-0.367 1.751-0.563 2.625-0.037 0.179-0.096 0.352-0.176 0.517-0.031 0.084-0.078 0.161-0.14 0.227s-0.135 0.119-0.216 0.156c-0.082 0.037-0.17 0.057-0.26 0.060s-0.179-0.013-0.263-0.045c-0.216-0.056-0.419-0.153-0.599-0.284-1.292-0.966-2.583-1.927-3.89-2.893l-0.046-0.026z"></path>
</svg>
