<svg width="320" height="117" viewBox="0 0 320 117" fill="none" xmlns="http://www.w3.org/2000/svg">
<path d="M-29.2121 -69.2783C-30.1399 -61.3628 -31.8036 -53.7745 -34.0965 -46.5028C-24.9889 -46.2284 -15.8919 -45.8062 -6.79492 -45.173C41.0468 -41.8168 89.4005 -32.3499 132.624 -11.1364C176.691 10.4887 199.876 51.6069 237.117 82.1818C271.67 110.561 309.647 119.142 349 116.567V-180H-51C-34.1711 -145.256 -24.7436 -107.526 -29.2121 -69.2889V-69.2783Z" fill="#EFF6FF"/>
<path d="M226.941 -26.6283C228.546 -20.373 230.482 -13.9815 232.79 -7.63542C240.98 14.8881 253.884 36.827 273.658 50.013C318.736 80.0633 399.136 59.8841 415.791 6.79374C417.019 2.88277 417.911 -1.19282 418.407 -5.45571C420.801 -26.0266 415.751 -46.3137 406.738 -65H222C222 -63.1439 222.034 -61.282 222.103 -59.4259C222.525 -48.3458 224.199 -37.2997 226.941 -26.6283Z" fill="#E6F1FF"/>
</svg>
