<svg width="592" height="179" viewBox="0 0 592 179" fill="none" xmlns="http://www.w3.org/2000/svg">
<path d="M-30.6923 -165.333C-32.4088 -150.701 -35.4866 -136.674 -39.7285 -123.232C-22.8794 -122.725 -6.04999 -121.945 10.7794 -120.774C99.2866 -114.571 188.741 -97.071 268.705 -57.8582C350.228 -17.8846 393.12 58.1219 462.016 114.639C525.94 167.098 596.198 182.959 669 178.199V-370H-71C-39.8666 -305.777 -22.4256 -236.033 -30.6923 -165.352V-165.333Z" fill="#EFF6FF"/>
<path d="M380.198 -73.0784C382.536 -63.9622 385.357 -54.6475 388.719 -45.3989C400.652 -12.5739 419.45 19.399 448.258 38.6158C513.93 82.41 631.061 53.0016 655.326 -24.3704C657.115 -30.0701 658.413 -36.0097 659.137 -42.2223C662.623 -72.2015 655.267 -101.767 642.136 -129H373C373 -126.295 373.05 -123.582 373.15 -120.876C373.766 -104.729 376.204 -88.6306 380.198 -73.0784Z" fill="#E6F1FF"/>
</svg>
