<svg id="etwrGxJMAHX1" xmlns="http://www.w3.org/2000/svg" xmlns:xlink="http://www.w3.org/1999/xlink" viewBox="0 0 258 517" shape-rendering="geometricPrecision" text-rendering="geometricPrecision" width="258" height="517"><path d="M266.768,475.804c-29.432-21.327-55.044-48.639-75.325-80.563-28.611-45.035-44.425-95.796-45.732-146.795-.177-6.953-.111-14.069-.043-20.953.163-17.154.334-34.785-3.3-51.497-18.618,2.97-37.706,2.592-55.9393-1.502-13.9494-3.14-47.5024-13.624-57.7947-43.218-.0741-.205-.144-.416-.208-.623C15.4637,118.191,6.30204,103.067,2.54055,87.2086C-4.25574,58.5606,7.53337,27.8113,30.5715,14.0907c7.1977-4.28608,15.3979-6.85545,23.9014-7.71506-.3183-1.0247-.6122-2.0585-.8902-3.08968-3.8255.3952-7.6285.9316-11.3612,1.71528C25.571,8.50444,7.91898,19.7132,6.01451,36.846c-.09862.8743-.88294,1.5014-1.75106,1.4077-.87396-.098-1.5004-.882-1.40601-1.7504C4.94451,17.7897,23.7961,5.63914,41.5665,1.89462c3.7124-.78046,7.4794-1.316232,11.2513-1.723518-1.838-8.326622-2.2467-16.866602-1.0274-25.217202c3.2945-22.4958,18.9293-41.0457,38.0233-45.1159c10.8473-2.3105,23.1953,1.1326,32.2103,9.0033c2.414,2.1062,4.471,4.4351,6.139,6.9194c4.517-1.5352,9.138-2.7195,13.812-3.5349c27.12-4.7137,56.469,3.0461,80.552,21.4697c24.071,18.3529,39.393,44.58649,42.035,71.9912.162,1.6962.283,3.3989.368,5.1022c6.348,3.4934,11.518,8.6853,14.472,14.8319c5,10.3856,4.542,23.0979-.235,34.366c3.713,6.4025,5.754,13.5642,5.218,21.2412-1.508,21.729-20.909,37.64-59.326,48.63-15.563,4.451-33.281,8.394-49.283,6.979-9.772,3.866-19.942,6.766-30.291,8.634c3.679,16.995,3.509,34.76,3.342,52.054-.062,6.852-.133,13.938.045,20.839c2.618,102.375,65.875,201.941,157.416,247.762c31.986,16.005,59.054,20.836,82.741,14.759c30.85-7.918,57.294-37.165,67.361-74.507c12.313-45.644-.033-95.532-31.447-127.102-32.968-33.141-85.965-42.923-125.989-23.257-41.985,20.628-64.382,72.044-49.925,114.602c7.254,21.361,24.257,39.392,46.659,49.469c21.022,9.46,44.035,10.291,63.126,2.276c26.992-11.329,45.314-39.209,43.565-66.296-1.873-28.997-27.585-53.464-55.026-52.355-13.867.56-27.378,8.479-36.151,21.188-8.088,11.715-10.457,25.219-6.51,37.046c4.173,12.498,14.96,21.761,26.237,22.536c6.2.425,12.93-2.318,17.558-7.154c4.018-4.191,5.912-9.278,5.353-14.314-.73-6.533-6.45-11.115-11.804-12.756-5.61-1.718-10.852-.538-14.018,3.155-.571.665-1.562.741-2.237.172-.665-.571-.742-1.573-.17-2.238c4.015-4.692,10.507-6.233,17.362-4.129c7.616,2.333,13.254,8.542,14.026,15.436.669,5.99-1.535,11.985-6.213,16.865-5.347,5.583-12.842,8.619-20.066,8.131-12.526-.86-24.459-11.015-29.032-24.696-4.27-12.783-1.748-27.31,6.916-39.857c9.335-13.523,23.773-21.957,38.632-22.557c29.095-1.177,56.346,24.672,58.321,55.323c1.828,28.394-17.307,57.593-45.506,69.43-19.906,8.353-43.837,7.509-65.659-2.309-23.198-10.431-40.828-29.148-48.36-51.343-7.261-21.375-5.747-45.597,4.27-68.192c9.876-22.303,26.666-40.159,47.268-50.283c41.207-20.254,95.735-10.211,129.638,23.867c32.197,32.36,44.864,83.454,32.262,130.173-10.364,38.429-37.702,68.564-69.645,76.76-24.466,6.279-52.254,1.373-84.95-14.995-13.282-6.644-26.017-14.401-38.112-23.164l.005-.006ZM33.8263,135.503c11.7136,24.101,40.7489,33.07,53.298,35.891c9.4541,2.122,19.1447,3.229,28.8717,3.363-9.419-1.642-18.3419-6.207-25.4522-12.671-13.5187-3.033-25.5877-7.354-36.394-12.998-7.3717-3.852-14.2034-8.437-20.3235-13.585Zm-2.6144-6.579c7.0809,6.702,15.3101,12.593,24.4078,17.348c9.2433,4.824,19.4472,8.667,30.7376,11.54-5.6913-6.515-9.6921-14.428-11.0399-22.988-1.5186-9.666.3617-19.482,4.6954-28.083-8.197-6.047-14.7373-15.3276-18.9141-25.4829-7.9591-.0394-15.7158,3.8863-21.6981,11.0962C30.8891,102.612,27.6789,117.13,31.2061,128.92l.0058.004ZM55.5001,9.44857c-8.2988.74923-16.3118,3.19553-23.3106,7.36703C10.3147,29.8536,-0.863709,59.145,5.62396,86.472c3.27027,13.781,10.78784,26.99,21.42344,38.284-1.7082-11.668,1.9302-24.7963,9.9117-34.4207c6.3024-7.6026,14.4562-11.8918,22.9291-12.2293-.7727-2.1569-1.4318-4.3476-1.9885-6.5443-4.2475-16.8979-3.5528-35.0679,1.7154-52.5737-1.5852-3.1025-2.9623-6.2953-4.1209-9.54367l.0059.00424ZM140.116,167.405c-2.438.018-4.551-.032-6.256-.09-13.236-.482-25.416-1.759-36.6401-3.862c8.7991,6.287,19.6451,9.686,30.4291,8.596c4.463-.451,8.777-1.643,12.836-3.431-.121-.399-.243-.809-.369-1.213ZM82.7961,108.633c-3.9639,7.967-5.7159,16.967-4.3408,25.699c1.4962,9.524,6.5157,18.184,13.5392,24.817c12.6345,2.777,26.5745,4.429,41.9905,4.992c1.415.052,3.133.093,5.093.095-.038-.108-.081-.22-.115-.334-6.803-19.24-19.971-35.687-33.431-50.402-.847.136-1.711.233-2.579.299-7.3316.559-14.129-1.441-20.141-5.164l-.0159-.002Zm58.5349,63.061c-1.847.803-3.746,1.479-5.69,2.033c2-.237,4.003-.516,5.996-.83-.101-.403-.201-.806-.312-1.207l.006.004Zm2.919-1.382c.181.684.358,1.375.53,2.061c8.289-1.487,16.472-3.651,24.417-6.458-1.206-.231-2.397-.506-3.574-.814-5.622,1.029-11.049,1.629-15.93,1.955-1.743,1.2-3.57,2.294-5.453,3.257l.01-.001Zm-35.133-57.577c13.235,14.595,26.043,30.925,32.82,50.102.161.455.315.906.47,1.357c1.937-.041,4.025-.117,6.247-.255c1.681-1.2,3.283-2.501,4.802-3.908-3.191-1.92-6.164-4.288-8.877-7.164-13.096-13.888-13.908-33.498-14.324-52.669-6.4,5.596-13.229,10.407-21.133,12.531l-.005.006Zm47.226,48.897c-.665.634-1.341,1.259-2.036,1.862c1.583-.155,3.208-.343,4.858-.566-.952-.395-1.895-.829-2.817-1.292l-.005-.004ZM133.367,97.4033c.008.3091.01.6139.018.9229.423,20.0238.823,38.9338,13.496,52.3728c2.699,2.857,5.696,5.18,8.916,7.023c8.204-8.652,13.324-20.269,13.151-32.332-.157-10.856-3.9-20.75-8.826-30.6457-5.377-2.8524-10.727-5.435-16.109-7.4436-1.679,1.5668-3.347,3.1681-4.985,4.7386-1.87,1.794-3.749,3.5997-5.655,5.3683l-.006-.0043ZM64.6565,81.5523c3.9045,8.9318,9.7121,17.0212,16.8671,22.4027c1.8417-3.145,4.0143-6.0938,6.467-8.7774-7.1086-6.8106-14.551-12.2749-23.3341-13.6253ZM90.3753,97.5212c-2.3091,2.5468-4.3597,5.3518-6.0928,8.3348c5.5179,3.445,11.7263,5.285,18.4045,4.78.056-.004.106-.012.158-.01-2.808-3.026-5.6101-5.975-8.3602-8.86-1.3663-1.436-2.7353-2.8564-4.1137-4.2389l.0042-.0059Zm74.4837-.2099c4.082,8.8827,7.117,18.1297,7.261,28.0307.189,12.583-5.029,24.718-13.43,33.887c2.281,1.073,4.663,1.943,7.13,2.624c19.51-3.698,41.003-12.801,48.245-34.532.816-2.443,1.407-4.968,1.822-7.558-4.028-.679-8.072-1.692-12.093-3.044-11.021-3.713-21.65-9.701-31.937-15.496-2.351-1.32-4.68-2.6331-6.998-3.9117ZM181.448,160.99c-2.63.923-5.296,1.712-7.955,2.391.619.082,1.235.154,1.854.21c2.051-.825,4.089-1.694,6.105-2.607l-.004.006ZM92.6045,95.2199c1.4843,1.4948,2.8772,2.9681,4.1935,4.3502c3.237,3.4069,6.558,6.8939,9.872,10.4899c8.816-1.882,16.367-7.554,23.497-14.0215-.093-4.1534-.208-8.3497-.47-12.4916-5.128-.7098-10.344-.6972-15.714.2918-8.061,1.4922-15.4319,5.6353-21.3827,11.387l.0042-.0058ZM61.7849,22.9692c-4.2971,16.0058-4.664,32.4684-.8065,47.8256.6234,2.486,1.3997,4.9578,2.3156,7.3969.5771.0524,1.1558.1149,1.7336.2034c10.0537,1.5039,18.4248,7.9624,25.2141,14.488c6.3808-6.136,14.3553-10.5464,23.1713-12.1698c5.465-1.0093,10.81-1.053,16.054-.3668-.179-2.1641-.406-4.2998-.704-6.3983-.414-2.959-.988-5.882-1.709-8.7507-14.356-2.1234-27.846-7.054-39.2463-14.6101-10.879-7.2052-19.7295-16.8037-26.0186-27.6241l-.0042.0059ZM238.554,120.013c-4.296,5.621-9.079,10.979-14.308,16.005-12.073,11.593-26.269,20.997-41.644,27.932c13.746.013,28.453-3.391,41.594-7.145c36.967-10.577,55.622-25.556,57.021-45.793.435-6.234-.993-12.1133-3.719-17.4793-3.442,6.6063-8.427,12.5403-14.696,16.9463-7.031,4.942-15.327,8.147-24.248,9.534Zm-19.521.219c-.445,2.755-1.079,5.463-1.953,8.095-2.841,8.523-7.701,15.217-13.728,20.458c6.655-4.483,12.922-9.515,18.694-15.057c4.345-4.176,8.365-8.579,12.06-13.173-4.907.423-9.96.322-15.067-.319l-.006-.004ZM132.911,84.0823c.18,3.0121.285,6.0412.362,9.0594c1.191-1.1267,2.374-2.2677,3.559-3.3986c1.252-1.1985,2.521-2.4204,3.801-3.6338-2.557-.8267-5.129-1.5216-7.718-2.0329l-.004.0059ZM130.43,65.645c.607,2.5815,1.103,5.2069,1.473,7.8574.338,2.4128.59,4.8703.789,7.3518c3.559.661,7.07,1.6349,10.546,2.842c1.006-.9213,2.026-1.824,3.04-2.6949c1.479-1.2659,2.996-2.4862,4.547-3.655-1.932-3.5951-3.822-7.2487-5.536-10.9617-5.007.0828-9.98-.1658-14.864-.7338l.005-.0058ZM63.0277,18.6951c6.1005,11.4867,15.1791,21.7054,26.5257,29.2494c10.6486,7.0559,23.1996,11.7437,36.5806,13.9096-5.312-17.9635-16.447-33.4641-31.1474-42.8139-8.7043-5.5312-18.6223-8.7478-28.5775-9.60033-1.2769,3.05393-2.4029,6.14573-3.3814,9.25523ZM152.35,80.1638c-1.37,1.0416-2.708,2.1245-4.008,3.2429-.583.4966-1.163,1.0135-1.748,1.5261c3.711,1.4487,7.392,3.1348,11.028,4.9575-1.278-2.407-2.594-4.8235-3.929-7.2628-.45-.8173-.891-1.6363-1.343-2.4637Zm2.588-1.8985c.518.9462,1.035,1.8924,1.547,2.8344c2.038,3.7335,4.1,7.494,6.017,11.3191c3.673,1.9565,7.308,4.0017,10.921,6.04c10.152,5.7232,20.655,11.6392,31.391,15.2522c3.825,1.291,7.671,2.258,11.498,2.907.88-8.105.308-16.7014-.255-25.103-.703-10.52-1.416-21.2608.874-30.7808-21.832-1.206-44.153,4.9063-61.993,17.5311ZM58.787,9.24302c.6777,1.82048,1.4202,3.62538,2.2402,5.39728.6266-1.8121,1.3069-3.6121,2.035-5.40418-1.4292-.0453-2.8504-.04018-4.2693.01114l-.0059-.00424ZM100.104,18.671c14.017,10.1573,24.515,25.8116,29.48,43.6755c4.692.5986,9.48.8923,14.301.8704-.451-1.0499-.877-2.0988-1.288-3.1552-8.618-22.1611-8.35-52.91725,11.668-71.6724c9.943-9.3179,25.681-13.2955,40.104-10.133c12.194,2.6713,21.558,10.0363,25.683,20.18951c5.357,13.21409,1.745,30.34089-8.989,42.61939-8.792,10.0541-21.82,17.3422-38.716,21.6758-7.809,2.0052-15.731,3.1699-23.59,3.5333c1.469,3.09,3.054,6.1565,4.672,9.1761c18.565-13.0097,41.757-19.2407,64.391-17.8373c1.683-5.1772,4.422-9.9286,8.739-13.9914c6.745-6.3445,16.528-8.8827,26.838-6.97c2.867.534,5.651,1.3916,8.272,2.5234-.066-1.065-.153-2.1269-.255-3.1913-2.559-26.52342-17.427-51.9556-40.802-69.7684-23.395-17.8356-51.832-25.4157-78.083-20.8669-4.293.744-8.527,1.815-12.682,3.1938c2.537,4.7652,3.713,9.9709,3.325,15.1682-1.396,18.9909-19.972,31.51096-37.7673,35.487061C86.9668,1.08613,78.2479,1.66476,69.7714,2.14252c-.7068,1.40602-1.3818,2.81727-2.0249,4.23377C77.8532,7.40104,87.8786,10.7401,96.7041,16.3502c1.1615.7346,2.2933,1.5101,3.4099,2.3192l-.01.0016ZM56.7713,2.98241c.287,1.05557.5985,2.10206.9343,3.13948c2.211-.11087,4.4397-.11078,6.6658.00347.5589-1.26339,1.1396-2.51993,1.7463-3.77546-3.0954.17487-6.2194.36465-9.3464.63251ZM117.375,-60.8075c-7.956-5.7648-17.9948-8.1502-26.902-6.2537-17.8187,3.7988-32.4325,21.2596-35.5397,42.4636-1.1873,8.0972-.7684,16.37694,1.0656,24.450811c3.9477-.342346,7.8929-.570538,11.7791-.778938c1.686-3.212463,3.5388-6.384373,5.5487-9.478073c13.013-20.0126,31.3023-34.9795,51.7443-42.7303-1.432-2.0101-3.145-3.9027-5.133-5.6376-.823-.7215-1.681-1.3962-2.563-2.0358ZM220.111,60.9595c-2.301,9.0305-1.605,19.5-.883,30.3375.573,8.5964,1.156,17.388.234,25.784c5.915.744,11.756.73,17.349-.026c10.108-13.482,17.387-28.4237,21.414-43.7864-3.669-2.3552-7.534-4.3533-11.432-5.9375-8.519-3.4612-17.537-5.5705-26.682-6.3716Zm-12.827-73.6571c-3.823-2.7702-8.429-4.8049-13.599-5.9372-13.432-2.9437-28.055.7262-37.251,9.34536C137.502,8.45924,137.332,37.7518,145.558,58.9154c.551,1.4166,1.139,2.8327,1.767,4.2422c8.058-.2814,16.204-1.4355,24.228-3.4905c16.265-4.1656,28.755-11.1297,37.115-20.6854c9.969-11.3958,13.353-27.1984,8.438-39.324831-2-4.928869-5.384-9.129429-9.821-12.344369l-.001-.0101ZM126.8,-50.3909c-20.056,7.441-38.042,22.0749-50.8139,41.71793-1.6025,2.46993-3.1047,4.98583-4.498,7.53603c7.746-.45391,15.6526-1.06797,23.2212-2.76567c16.1077-3.60241,34.0147-15.34849,35.2877-32.61809.351-4.7416-.78-9.5045-3.197-13.8702ZM261.007,75.1504c-3.912,14.3668-10.584,28.3486-19.698,41.1226c7.207-1.532,13.896-4.34,19.666-8.403c6.435-4.526,11.425-10.7598,14.639-17.6559-3.583-5.6838-8.608-10.7077-14.296-14.8291-.105-.0762-.216-.1567-.321-.2329l.01-.0017Zm.82-32.4167c-2.814-1.3699-5.855-2.3778-9.02-2.9674-9.303-1.7274-18.082.5209-24.077,6.1607-3.696,3.4774-6.128,7.497-7.681,11.9294c9.239.8689,18.337,3.0274,26.951,6.5303c3.748,1.5203,7.473,3.4167,11.031,5.6294c2.097-9.0444,3.056-18.217,2.796-27.2824Zm1.31,30.0434c5.407,3.9181,10.25,8.6142,13.955,13.9218c3.661-9.8999,3.767-20.7615-.545-29.7212-2.418-5.0171-6.489-9.3506-11.507-12.4777.096,9.1071-.994,18.3007-3.186,27.3654.435.2975.862.6068,1.289.916l-.006-.0043Z" transform="matrix(.997649-.068538 0.068538 0.997649-14.728301 16.455846)" opacity="0.5" fill="#eee"/></svg>
