<svg width="642" height="511" viewBox="0 0 642 511" fill="none" xmlns="http://www.w3.org/2000/svg">
<g clip-path="url(#clip0_242_729)">
<path d="M617.921 123.121C617.523 120.331 613.619 120.022 612.787 122.716C607.139 141.002 596.08 181.577 592.305 229.407C591.481 239.835 590.848 249.958 590.4 259.614L618.546 261.842C619.619 252.235 620.582 242.138 621.406 231.712C625.183 183.885 620.627 142.07 617.921 123.123V123.121Z" fill="white"/>
<path d="M618.545 262.368C618.531 262.368 618.516 262.368 618.502 262.368L590.357 260.139C590.074 260.118 589.858 259.873 589.873 259.588C590.328 249.769 590.97 239.6 591.777 229.364C595.507 182.136 606.226 142.175 612.284 122.56C612.801 120.888 614.301 120.235 615.558 120.338C616.816 120.437 618.196 121.315 618.442 123.049C621.345 143.373 625.662 184.521 621.932 231.755C621.125 241.984 620.162 252.127 619.07 261.905C619.039 262.174 618.811 262.373 618.548 262.373L618.545 262.368ZM590.948 259.125L618.078 261.274C619.144 251.666 620.088 241.709 620.881 231.667C624.603 184.535 620.296 143.476 617.398 123.193C617.221 121.957 616.25 121.447 615.474 121.384C614.693 121.322 613.659 121.674 613.29 122.867C607.246 142.442 596.549 182.316 592.829 229.443C592.036 239.492 591.403 249.474 590.951 259.122L590.948 259.125Z" fill="#4D4C4C"/>
<path d="M604.657 258.923C604.642 258.923 604.628 258.923 604.614 258.923C604.324 258.899 604.106 258.645 604.13 258.354C607.498 216.023 610.863 173.376 614.138 131.594C614.161 131.304 614.418 131.09 614.703 131.109C614.993 131.131 615.211 131.385 615.187 131.675C611.912 173.457 608.544 216.107 605.179 258.436C605.157 258.712 604.927 258.923 604.654 258.923H604.657Z" fill="#4D4C4C"/>
<path d="M547.259 123.121C547.657 120.331 551.561 120.022 552.392 122.716C558.04 141.002 569.1 181.577 572.875 229.407C573.699 239.835 574.331 249.958 574.779 259.614L546.634 261.842C545.561 252.235 544.598 242.138 543.774 231.712C539.996 183.885 544.552 142.07 547.259 123.123V123.121Z" fill="white"/>
<path d="M546.635 262.368C546.369 262.368 546.141 262.169 546.112 261.9C545.02 252.122 544.057 241.98 543.25 231.751C539.52 184.521 543.837 143.37 546.74 123.044C546.989 121.31 548.367 120.434 549.624 120.333C550.886 120.23 552.381 120.883 552.899 122.555C558.956 142.168 569.676 182.127 573.405 229.359C574.212 239.597 574.854 249.766 575.31 259.583C575.324 259.868 575.108 260.11 574.826 260.134L546.68 262.363C546.666 262.363 546.651 262.363 546.637 262.363L546.635 262.368ZM547.782 123.195C544.884 143.478 540.579 184.54 544.299 231.669C545.092 241.708 546.036 251.666 547.102 261.276L574.232 259.127C573.779 249.479 573.147 239.497 572.354 229.448C568.634 182.316 557.936 142.444 551.892 122.871C551.524 121.679 550.489 121.327 549.708 121.389C548.929 121.451 547.959 121.96 547.784 123.198L547.782 123.195Z" fill="#4D4C4C"/>
<path d="M560.523 258.923C560.25 258.923 560.02 258.714 559.999 258.436C556.631 216.105 553.265 173.457 549.991 131.675C549.969 131.385 550.185 131.131 550.475 131.109C550.764 131.09 551.018 131.304 551.04 131.594C554.314 173.376 557.68 216.023 561.048 258.354C561.072 258.645 560.854 258.899 560.564 258.923C560.549 258.923 560.535 258.923 560.521 258.923H560.523Z" fill="#4D4C4C"/>
<path d="M585.492 105.069C584.797 101.97 580.38 101.97 579.685 105.069C574.962 126.127 566.13 172.723 566.13 226.821C566.13 238.614 566.319 250.052 566.671 260.945H598.508C598.86 250.052 599.049 238.614 599.049 226.821C599.049 172.723 590.218 126.127 585.494 105.069H585.492Z" fill="white"/>
<path d="M598.507 261.473H566.67C566.385 261.473 566.152 261.248 566.143 260.962C565.784 249.865 565.602 238.379 565.602 226.821C565.602 173.404 574.103 127.54 579.171 104.954C579.595 103.064 581.193 102.217 582.589 102.217C583.986 102.217 585.581 103.064 586.005 104.954C591.074 127.54 599.575 173.404 599.575 226.821C599.575 238.379 599.393 249.865 599.034 260.962C599.024 261.248 598.792 261.473 598.507 261.473ZM567.18 260.418H597.996C598.344 249.49 598.521 238.192 598.521 226.821C598.521 173.505 590.037 127.727 584.978 105.184C584.661 103.771 583.493 103.27 582.589 103.27C581.686 103.27 580.517 103.771 580.199 105.184C575.142 127.727 566.655 173.505 566.655 226.821C566.655 238.189 566.833 249.49 567.18 260.418Z" fill="#4D4C4C"/>
<path d="M598.507 261.473H566.67C566.385 261.473 566.152 261.248 566.143 260.962C565.784 249.865 565.602 238.379 565.602 226.821C565.602 216.448 565.93 205.747 566.581 195.011C566.6 194.721 566.854 194.503 567.139 194.517C567.429 194.534 567.652 194.783 567.633 195.076C566.984 205.79 566.655 216.472 566.655 226.823C566.655 238.192 566.833 249.493 567.18 260.42H597.996C598.344 249.493 598.521 238.194 598.521 226.823C598.521 215.452 598.162 204.792 597.45 193.558C597.431 193.267 597.652 193.016 597.944 192.999C598.226 192.982 598.485 193.2 598.502 193.493C599.213 204.751 599.575 215.966 599.575 226.826C599.575 238.384 599.393 249.87 599.034 260.967C599.024 261.252 598.792 261.478 598.507 261.478V261.473Z" fill="#4D4C4C"/>
<path d="M582.589 258.836C582.3 258.836 582.062 258.599 582.062 258.309C582.091 210.796 582.091 162.559 582.062 114.931C582.062 114.638 582.297 114.403 582.589 114.403C582.879 114.403 583.116 114.638 583.116 114.931C583.145 162.559 583.145 210.798 583.116 258.309C583.116 258.599 582.879 258.836 582.589 258.836Z" fill="#4D4C4C"/>
<path d="M640.474 255.809H524.704L555.199 380.241H609.979L640.474 255.809Z" fill="white"/>
<path d="M609.981 380.768H555.202C554.96 380.768 554.749 380.603 554.689 380.365L524.194 255.934C524.155 255.776 524.191 255.61 524.29 255.483C524.39 255.356 524.541 255.281 524.704 255.281H640.474C640.637 255.281 640.788 255.356 640.889 255.483C640.989 255.61 641.023 255.778 640.984 255.934L610.489 380.365C610.432 380.6 610.221 380.768 609.977 380.768H609.981ZM555.614 379.713H609.567L639.804 256.337H525.377L555.614 379.713Z" fill="#4D4C4C"/>
<path d="M629.137 280.823H536.042C535.749 280.823 535.515 280.588 535.515 280.295C535.515 280.002 535.749 279.767 536.042 279.767H629.137C629.43 279.767 629.664 280.002 629.664 280.295C629.664 280.588 629.43 280.823 629.137 280.823Z" fill="#4D4C4C"/>
<path d="M88.224 347.402H16.5308C13.7953 347.402 11.4383 345.471 10.8969 342.784L4.68338 311.915C3.74918 307.273 7.29193 302.938 12.0204 302.938H72.8554C80.6715 302.938 87.4048 308.458 88.9498 316.132L93.8579 340.512C94.5741 344.075 91.8554 347.404 88.224 347.404V347.402Z" fill="white"/>
<path d="M88.2249 347.93H16.5317C13.5566 347.93 10.9697 345.809 10.3828 342.887L4.16923 312.018C3.69255 309.65 4.29618 307.22 5.82442 305.349C7.35266 303.48 9.61149 302.408 12.0236 302.408H72.8586C80.8951 302.408 87.8799 308.134 89.4681 316.024L94.3762 340.404C94.7498 342.258 94.278 344.161 93.0803 345.624C91.885 347.087 90.1148 347.927 88.2249 347.927V347.93ZM12.0236 303.463C9.92768 303.463 7.96588 304.394 6.63885 306.018C5.31181 307.642 4.78723 309.753 5.20163 311.809L11.4152 342.678C11.9038 345.108 14.0573 346.872 16.5317 346.872H88.2249C89.7962 346.872 91.2694 346.173 92.2635 344.955C93.2575 343.736 93.6528 342.153 93.3414 340.61L88.4333 316.23C86.9434 308.832 80.392 303.461 72.8562 303.461H12.0236V303.463Z" fill="#4D4C4C"/>
<path d="M45.2134 405.671H132.8C136.545 405.671 139.581 402.631 139.581 398.88V395.788C139.581 392.037 136.545 388.996 132.8 388.996H45.2134C41.4682 388.996 38.4321 392.037 38.4321 395.788V398.88C38.4321 402.631 41.4682 405.671 45.2134 405.671Z" fill="white"/>
<path d="M132.8 406.201H45.2135C41.1845 406.201 37.9053 402.917 37.9053 398.882V395.79C37.9053 391.755 41.1845 388.471 45.2135 388.471H132.8C136.829 388.471 140.108 391.755 140.108 395.79V398.882C140.108 402.917 136.831 406.201 132.8 406.201ZM45.2135 389.527C41.7642 389.527 38.9592 392.336 38.9592 395.79V398.882C38.9592 402.337 41.7642 405.146 45.2135 405.146H132.8C136.249 405.146 139.054 402.337 139.054 398.882V395.79C139.054 392.336 136.249 389.527 132.8 389.527H45.2135Z" fill="#4D4C4C"/>
<path d="M34.6998 398.422C27.2383 398.422 21.166 392.343 21.166 384.868V347.399C21.166 347.107 21.4008 346.871 21.693 346.871C21.9852 346.871 22.22 347.107 22.22 347.399V384.868C22.22 391.76 27.8179 397.366 34.6998 397.366C34.992 397.366 35.2268 397.601 35.2268 397.894C35.2268 398.187 34.992 398.422 34.6998 398.422Z" fill="#4D4C4C"/>
<path d="M11.6065 511C11.5514 511 11.4939 510.99 11.4364 510.971C11.1609 510.878 11.0124 510.578 11.1082 510.302L44.2241 412.99C44.3175 412.714 44.617 412.566 44.8924 412.662C45.1679 412.755 45.3164 413.055 45.2206 413.331L12.1047 510.643C12.0305 510.861 11.8244 511 11.6065 511Z" fill="#4D4C4C"/>
<path d="M166.406 511C166.188 511 165.982 510.861 165.908 510.643L132.792 413.331C132.698 413.055 132.845 412.755 133.12 412.662C133.396 412.566 133.695 412.714 133.788 412.99L166.904 510.302C166.998 510.578 166.852 510.878 166.576 510.971C166.521 510.99 166.463 511 166.406 511Z" fill="#4D4C4C"/>
<path d="M83.4701 338.202L74.1114 362.489C67.5936 379.403 80.1238 397.582 98.2279 397.472C141.114 397.213 205.277 396.954 205.277 397.733C205.277 398.724 177.076 478.922 168.448 503.436C167.238 506.874 169.787 510.475 173.426 510.475H258.535C261.378 510.475 262.552 506.826 260.248 505.164L239.202 489.976C239.202 489.976 262.535 441.976 278.924 395.402C288.753 367.471 267.999 338.207 238.431 338.207H83.4701V338.202Z" fill="white"/>
<path d="M258.533 511H173.424C171.514 511 169.787 510.105 168.686 508.546C167.584 506.987 167.315 505.06 167.95 503.261C184.821 455.329 202.901 403.714 204.623 398.129C199.962 397.659 162.458 397.613 98.2284 398.002C98.1757 398.002 98.123 398.002 98.0703 398.002C89.4542 398.002 81.401 393.773 76.5024 386.667C71.5728 379.516 70.4949 370.407 73.6184 362.301L82.9771 338.015C83.0562 337.811 83.2502 337.677 83.4682 337.677H238.427C252.715 337.677 265.647 344.377 273.904 356.059C282.144 367.716 284.152 382.119 279.418 395.574C263.992 439.412 242.147 485.07 239.866 489.806L260.555 504.734C261.793 505.629 262.292 507.147 261.822 508.606C261.353 510.062 260.061 511.002 258.533 511.002V511ZM167.193 396.683C204.978 396.683 205.399 397.105 205.639 397.345C205.739 397.443 205.802 397.592 205.802 397.733C205.802 398.688 185.757 455.837 168.942 503.611C168.422 505.084 168.642 506.663 169.543 507.937C170.446 509.213 171.859 509.947 173.424 509.947H258.533C259.822 509.947 260.56 509.086 260.818 508.28C261.077 507.474 260.984 506.344 259.937 505.591L238.891 490.403C238.683 490.254 238.613 489.976 238.726 489.743C238.961 489.264 262.234 441.237 278.427 395.224C283.047 382.095 281.086 368.042 273.047 356.669C264.989 345.269 252.372 338.73 238.429 338.73H83.8322L74.6029 362.678C71.5608 370.575 72.5693 379.099 77.3696 386.065C82.1411 392.986 89.6769 396.944 98.0607 396.944C98.1158 396.944 98.1685 396.944 98.2212 396.944C129.409 396.755 151.518 396.683 167.193 396.683Z" fill="#4D4C4C"/>
<path d="M214.61 498.108C212.567 498.108 210.447 498 208.25 497.787C202.988 497.273 197.723 496.23 192.633 495.222C188.467 494.397 184.158 493.543 179.887 492.989C179.6 492.953 179.396 492.687 179.432 492.399C179.468 492.111 179.731 491.9 180.021 491.943C184.328 492.502 188.654 493.358 192.836 494.188C197.902 495.191 203.139 496.23 208.351 496.738C219.614 497.835 228.812 496.069 235.692 491.487C236.274 491.099 236.882 490.667 237.376 490.125C237.572 489.909 237.905 489.894 238.121 490.091C238.336 490.288 238.351 490.621 238.154 490.837C237.582 491.463 236.882 491.962 236.276 492.368C230.542 496.189 223.272 498.113 214.61 498.113V498.108Z" fill="#4D4C4C"/>
<path d="M55.6937 338.202L46.335 362.488C39.8173 379.403 52.3474 397.582 70.4515 397.472C113.338 397.213 177.5 396.954 177.5 397.733C177.5 398.724 149.3 478.922 140.672 503.436C139.462 506.874 142.011 510.475 145.649 510.475H230.759C233.602 510.475 234.776 506.826 232.471 505.163L211.426 489.976C211.426 489.976 234.759 441.976 251.148 395.401C260.976 367.471 240.223 338.207 210.654 338.207H55.6937V338.202Z" fill="white"/>
<path d="M230.756 511H145.647C143.738 511 142.011 510.105 140.909 508.546C139.807 506.987 139.539 505.06 140.173 503.261C148.423 479.819 174.746 404.964 176.849 398.129C172.19 397.659 134.683 397.613 70.454 398.002C70.4013 398.002 70.3486 398.002 70.2959 398.002C61.6798 398.002 53.6265 393.773 48.728 386.667C43.7984 379.516 42.7205 370.407 45.844 362.299L55.2027 338.012C55.2817 337.809 55.4758 337.674 55.6937 337.674H210.652C224.94 337.674 237.873 344.374 246.13 356.057C254.37 367.713 256.377 382.116 251.644 395.572C236.218 439.409 214.372 485.068 212.092 489.803L232.78 504.732C234.019 505.626 234.517 507.145 234.048 508.604C233.578 510.06 232.287 511 230.759 511H230.756ZM139.416 396.683C177.201 396.683 177.622 397.105 177.862 397.345C177.963 397.443 178.025 397.592 178.025 397.733C178.025 398.683 157.981 455.835 141.167 503.611C140.648 505.087 140.868 506.663 141.769 507.937C142.672 509.213 144.085 509.947 145.647 509.947H230.756C232.045 509.947 232.783 509.086 233.042 508.282C233.3 507.476 233.207 506.346 232.16 505.593L211.114 490.405C210.906 490.257 210.837 489.978 210.949 489.746C211.184 489.266 234.457 441.24 250.65 395.226C255.271 382.097 253.309 368.044 245.27 356.671C237.212 345.272 224.596 338.732 210.652 338.732H56.0554L46.8261 362.68C43.784 370.578 44.7925 379.101 49.5952 386.067C54.3667 392.988 61.9025 396.946 70.2863 396.946C70.3414 396.946 70.3941 396.946 70.4468 396.946C101.634 396.757 123.744 396.685 139.416 396.685V396.683Z" fill="#4D4C4C"/>
<path d="M186.833 498.108C184.79 498.108 182.67 498 180.473 497.787C175.21 497.273 169.945 496.23 164.855 495.222C160.69 494.397 156.381 493.543 152.11 492.989C151.822 492.953 151.619 492.687 151.655 492.399C151.69 492.111 151.952 491.9 152.244 491.943C156.551 492.502 160.874 493.358 165.059 494.188C170.125 495.191 175.364 496.23 180.574 496.738C191.837 497.835 201.035 496.069 207.914 491.487C208.496 491.101 209.102 490.667 209.598 490.125C209.795 489.909 210.128 489.894 210.343 490.091C210.559 490.288 210.573 490.621 210.377 490.837C209.802 491.466 209.105 491.965 208.499 492.368C202.764 496.189 195.494 498.113 186.833 498.113V498.108Z" fill="#4D4C4C"/>
<path d="M202.729 398.422H181.195C180.903 398.422 180.668 398.187 180.668 397.894C180.668 397.601 180.903 397.366 181.195 397.366H202.729C203.021 397.366 203.256 397.601 203.256 397.894C203.256 398.187 203.021 398.422 202.729 398.422Z" fill="#4D4C4C"/>
<path d="M102.481 180.628C110.227 180.036 116.028 173.265 115.436 165.507C114.844 157.749 108.084 151.94 100.337 152.533C92.5897 153.126 86.7895 159.896 87.3815 167.654C87.9735 175.413 94.7336 181.221 102.481 180.628Z" fill="#4D4C4C"/>
<path d="M155.732 254.785C138.823 259.23 71.3909 276.159 61.9963 257.52C59.141 251.856 62.0753 243.757 64.0563 238.285C70.3585 220.888 85.7415 212.425 92.2281 199.953C96.5446 191.653 98.0393 182.95 98.0393 182.95C98.195 182.016 99.6609 173.575 107.642 169.592C111.772 167.532 117.583 167.026 125.703 170.293C125.703 170.293 132.822 168.446 139.057 172.509C143.503 175.405 145.515 180.001 146.78 184.108C152.596 203.026 155.554 251.753 155.732 254.785Z" fill="#4D4C4C"/>
<path d="M98.7183 181.088C98.6609 181.088 98.601 181.078 98.5435 181.059C98.268 180.963 98.1243 180.661 98.2201 180.388C99.5902 176.458 103.952 167.419 115.014 167.419C115.172 167.419 115.328 167.419 115.488 167.424C115.781 167.431 116.01 167.673 116.003 167.964C115.996 168.256 115.733 168.479 115.464 168.479C115.311 168.477 115.158 168.475 115.007 168.475C105.001 168.475 100.824 176.127 99.2166 180.738C99.1399 180.956 98.9363 181.09 98.7183 181.09V181.088Z" fill="white"/>
<path d="M184.467 279.184C189.998 270.891 207.374 234.799 215.343 228.713C220.501 224.774 228.566 224.174 231.493 221.905C233.721 220.178 236.31 219.11 237.74 220.08C239.417 221.217 239.898 224.27 236.336 226.477C232.775 228.684 231.493 231.225 231.493 231.225C231.493 231.225 233.649 230.815 239.781 229.543C245.913 228.272 249.719 224.412 252.567 225.052C255.415 225.693 253.837 228.164 253.837 228.164C256.625 226.849 258.359 227.106 258.939 228.895C259.519 230.685 257.684 232.635 257.684 232.635C259.842 234.665 257.926 236.766 257.926 236.766C259.569 238.767 259.037 242.092 253.71 246.391C248.383 250.69 239.187 251.4 232.204 252.374C227.047 253.091 228.034 298.881 211.216 313.294C191.807 329.93 150.484 299.98 147.682 297.099L169.082 268.449L184.467 279.184Z" fill="white"/>
<path d="M196.216 318.836C175.603 318.836 149.7 299.932 147.305 297.469C147.125 297.281 147.106 296.994 147.262 296.785L168.662 268.135C168.832 267.907 169.15 267.854 169.385 268.017L184.325 278.44C186.11 275.66 188.97 270.387 192.254 264.332C199.945 250.15 209.515 232.501 215.026 228.294C218.028 226 221.896 224.839 225.31 223.815C227.818 223.062 229.983 222.412 231.171 221.49C233.971 219.319 236.539 218.628 238.036 219.643C239.006 220.301 239.569 221.421 239.545 222.637C239.526 223.573 239.121 225.374 236.616 226.926C234.587 228.183 233.32 229.56 232.63 230.465C233.861 230.22 236.096 229.769 239.675 229.028C242.571 228.428 244.904 227.253 246.961 226.216C249.232 225.072 251.029 224.168 252.684 224.539C253.699 224.767 254.361 225.24 254.65 225.943C254.828 226.372 254.828 226.821 254.756 227.217C256.092 226.746 257.182 226.689 258.002 227.044C258.689 227.344 259.175 227.912 259.441 228.735C259.949 230.302 258.943 231.897 258.392 232.612C259.743 234.181 259.23 235.848 258.588 236.776C259.125 237.582 259.355 238.527 259.252 239.533C259.024 241.749 257.271 244.196 254.04 246.804C249.227 250.687 241.579 251.681 234.831 252.559C233.954 252.671 233.099 252.784 232.273 252.899C230.742 253.113 229.552 260.341 228.292 267.991C225.896 282.533 222.275 304.512 211.555 313.697C207.263 317.377 201.943 318.836 196.213 318.838L196.216 318.836ZM148.387 297.034C150.593 298.958 160.906 306.52 173.431 312.032C185.017 317.132 200.922 321.422 210.87 312.891C221.297 303.955 224.881 282.204 227.252 267.813C228.994 257.246 229.928 252.153 232.129 251.849C232.958 251.733 233.816 251.621 234.695 251.508C241.303 250.649 248.796 249.675 253.376 245.978C257.118 242.958 258.066 240.746 258.2 239.422C258.291 238.544 258.059 237.762 257.515 237.1C257.348 236.899 257.357 236.603 257.534 236.409C257.693 236.234 259.036 234.632 257.321 233.02C257.108 232.82 257.098 232.487 257.297 232.273C257.314 232.257 258.909 230.525 258.435 229.059C258.263 228.529 257.982 228.186 257.58 228.011C256.837 227.689 255.621 227.907 254.059 228.644C253.848 228.742 253.594 228.692 253.438 228.514C253.283 228.337 253.263 228.08 253.39 227.881C253.544 227.636 253.896 226.883 253.671 226.341C253.52 225.979 253.11 225.717 252.451 225.569C251.163 225.278 249.517 226.108 247.433 227.157C245.421 228.169 242.918 229.431 239.885 230.059C233.82 231.316 231.609 231.739 231.588 231.743C231.391 231.779 231.19 231.703 231.068 231.542C230.948 231.381 230.929 231.165 231.018 230.985C231.073 230.875 232.409 228.286 236.055 226.027C237.598 225.072 238.463 223.858 238.487 222.613C238.503 221.754 238.113 220.97 237.44 220.514C236.388 219.802 234.125 220.526 231.811 222.32C230.467 223.362 228.213 224.038 225.607 224.822C222.279 225.82 218.509 226.955 215.661 229.128C210.329 233.199 200.415 251.482 193.176 264.831C189.693 271.253 186.687 276.8 184.905 279.472C184.826 279.59 184.703 279.671 184.565 279.697C184.426 279.724 184.282 279.693 184.167 279.611L169.201 269.169L148.39 297.03L148.387 297.034Z" fill="#4D4C4C"/>
<path d="M238.748 243.145C238.075 243.145 237.404 243.116 236.736 243.054C236.446 243.028 236.233 242.771 236.259 242.481C236.285 242.19 236.537 241.977 236.832 242.003C241.323 242.414 245.936 241.37 249.817 239.067C250.229 238.822 250.634 238.563 251.038 238.307C251.755 237.848 252.497 237.376 253.278 236.982C254.761 236.234 256.155 235.915 257.417 236.037C257.707 236.066 257.918 236.323 257.892 236.613C257.863 236.903 257.607 237.114 257.317 237.088C256.253 236.985 255.055 237.266 253.752 237.923C253.017 238.295 252.298 238.753 251.604 239.197C251.189 239.461 250.775 239.727 250.353 239.976C246.861 242.047 242.806 243.145 238.748 243.145Z" fill="#4D4C4C"/>
<path d="M236.233 238.942C235.963 238.942 235.733 238.734 235.709 238.46C235.685 238.17 235.898 237.916 236.188 237.889C240.152 237.549 243.975 236.491 247.549 234.742C248.019 234.512 248.481 234.272 248.943 234.032C249.973 233.497 251.039 232.943 252.158 232.523C254.1 231.791 255.873 231.607 257.43 231.976C257.713 232.043 257.888 232.326 257.82 232.612C257.753 232.895 257.466 233.072 257.186 233.003C255.835 232.681 254.271 232.854 252.527 233.509C251.468 233.91 250.431 234.447 249.427 234.967C248.958 235.212 248.486 235.457 248.009 235.69C244.318 237.496 240.37 238.59 236.274 238.94C236.26 238.94 236.243 238.94 236.229 238.94L236.233 238.942Z" fill="#4D4C4C"/>
<path d="M235.538 236.042C235.284 236.042 235.061 235.857 235.018 235.598C234.97 235.31 235.166 235.039 235.454 234.994C241.636 233.986 247.68 231.65 252.935 228.238C253.18 228.08 253.505 228.15 253.663 228.394C253.822 228.639 253.752 228.965 253.508 229.124C248.133 232.616 241.948 235.006 235.622 236.037C235.593 236.042 235.564 236.044 235.538 236.044V236.042Z" fill="#4D4C4C"/>
<path d="M182.053 343.641H55.4585C51.4869 343.641 48.2676 346.865 48.2676 350.842C48.2676 354.819 51.4869 358.044 55.4585 358.044H182.053C186.025 358.044 189.244 354.819 189.244 350.842C189.244 346.865 186.025 343.641 182.053 343.641Z" fill="white"/>
<path d="M182.053 358.574H55.4581C51.2015 358.574 47.7402 355.105 47.7402 350.844C47.7402 346.584 51.2039 343.115 55.4581 343.115H182.053C186.31 343.115 189.771 346.582 189.771 350.844C189.771 355.107 186.307 358.574 182.053 358.574ZM55.4581 344.168C51.7836 344.168 48.7942 347.162 48.7942 350.842C48.7942 354.522 51.7836 357.516 55.4581 357.516H182.053C185.727 357.516 188.717 354.522 188.717 350.842C188.717 347.162 185.727 344.168 182.053 344.168H55.4581Z" fill="#4D4C4C"/>
<path d="M157.523 306.184L182.104 272.959C182.104 272.959 156.345 246.837 145.443 242.524C131.236 236.903 105.977 234.265 80.6967 239.115C75.2041 240.168 70.3272 243.296 67.103 247.874C58.5372 260.036 54.0603 284.85 48.6348 302.885L83.6693 303.528L75.3239 332.728L142.974 332.339L157.526 306.184H157.523Z" fill="#C3D8F5"/>
<path d="M176.879 343.64H66.8887C52.7752 343.64 42.3218 330.504 45.4717 316.727L48.636 302.888C48.636 302.888 72.9849 297.116 88.8757 303.531L85.5581 316.876H137.128C146.927 316.876 156.542 319.97 164.267 326.006C169.508 330.101 174.457 335.82 176.877 343.643L176.879 343.64Z" fill="white"/>
<path d="M176.879 344.168H66.8883C59.9992 344.168 53.5868 341.074 49.2944 335.678C45.0019 330.283 43.4209 323.331 44.9588 316.607L48.123 302.768C48.1877 302.485 48.4727 302.305 48.7554 302.372C49.0381 302.437 49.2153 302.72 49.1506 303.005L45.9864 316.845C44.5204 323.254 46.0271 329.88 50.1184 335.021C54.2096 340.164 60.3226 343.113 66.8883 343.113H176.155C174.011 336.691 169.908 331.077 163.944 326.419C160.183 323.482 155.934 321.213 151.308 319.675C151.033 319.584 150.882 319.284 150.975 319.008C151.066 318.733 151.366 318.584 151.641 318.675C156.379 320.251 160.736 322.576 164.593 325.589C170.938 330.545 175.24 336.566 177.382 343.484C177.432 343.645 177.401 343.818 177.303 343.955C177.204 344.089 177.046 344.168 176.879 344.168Z" fill="#4D4C4C"/>
<path d="M162.98 339.699C162.772 339.699 162.575 339.574 162.492 339.37C160.247 333.85 155.298 329.417 149.569 327.803C149.288 327.723 149.125 327.433 149.205 327.15C149.284 326.869 149.576 326.709 149.856 326.785C155.89 328.489 161.105 333.159 163.467 338.972C163.577 339.243 163.447 339.55 163.177 339.66C163.112 339.687 163.045 339.699 162.978 339.699H162.98Z" fill="#4D4C4C"/>
<path d="M151.325 339.953C151.123 339.953 150.929 339.836 150.843 339.641C148.79 335.026 144.709 331.312 139.925 329.705C139.65 329.612 139.501 329.314 139.592 329.036C139.686 328.76 139.985 328.611 140.261 328.702C145.317 330.401 149.634 334.328 151.804 339.21C151.924 339.476 151.804 339.788 151.538 339.905C151.468 339.936 151.397 339.951 151.325 339.951V339.953Z" fill="#4D4C4C"/>
<path d="M90.8352 303.502C90.7849 303.502 90.7322 303.495 90.6819 303.478C90.404 303.394 90.2459 303.096 90.3322 302.818L97.5374 279.223C97.9063 278.011 98.3255 276.639 99.2022 275.538C100.232 274.245 101.765 273.619 103.114 273.935C103.396 274.003 103.571 274.286 103.507 274.571C103.44 274.854 103.155 275.029 102.872 274.964C101.787 274.708 100.663 275.401 100.026 276.198C99.274 277.143 98.9028 278.359 98.5435 279.534L91.3382 303.13C91.2687 303.358 91.0603 303.504 90.8352 303.504V303.502Z" fill="#4D4C4C"/>
<path d="M128.281 286.561C126.578 286.561 124.784 286.002 123.145 284.929C120.999 283.526 119.423 281.513 118.168 279.731C109.367 267.245 106.538 251.453 104.042 237.522C103.992 237.234 104.181 236.961 104.469 236.911C104.754 236.86 105.029 237.05 105.079 237.338C107.556 251.162 110.364 266.83 119.028 279.124C120.228 280.825 121.722 282.739 123.723 284.047C125.766 285.383 128.049 285.829 129.989 285.273C133.922 284.143 135.628 279.366 136.363 275.557C138.593 264.033 137.477 251.659 133.22 240.722C133.115 240.451 133.249 240.144 133.52 240.039C133.79 239.933 134.097 240.068 134.202 240.339C138.528 251.46 139.664 264.04 137.398 275.758C136.262 281.636 133.8 285.275 130.279 286.287C129.639 286.472 128.966 286.561 128.281 286.561Z" fill="#4D4C4C"/>
<path d="M147.067 309.182C146.303 309.182 145.546 309.099 144.811 308.928C144.528 308.863 144.351 308.578 144.416 308.295C144.48 308.012 144.763 307.834 145.048 307.899C148.641 308.736 152.826 307.232 155.463 304.164C157.866 301.369 159.087 297.353 158.814 293.148C158.582 289.569 157.315 285.781 155.051 281.895C154.905 281.643 154.989 281.319 155.24 281.173C155.492 281.026 155.815 281.11 155.961 281.362C158.311 285.393 159.624 289.334 159.868 293.079C160.158 297.557 158.845 301.849 156.263 304.85C153.913 307.585 150.423 309.18 147.067 309.18V309.182Z" fill="#4D4C4C"/>
<path d="M129.831 239.18L127.479 260.367L105.065 236.983C108.311 235.989 110.831 233.411 111.753 230.141L117.852 208.546L134.813 217.074L129.831 239.182V239.18Z" fill="white"/>
<path d="M129.833 239.708C129.794 239.708 129.756 239.703 129.715 239.696C129.43 239.631 129.253 239.348 129.318 239.065L134.209 217.359L118.184 209.304L112.26 230.285C111.283 233.744 108.651 236.436 105.22 237.486C104.943 237.573 104.648 237.414 104.562 237.136C104.475 236.858 104.634 236.563 104.911 236.476C107.999 235.531 110.368 233.108 111.247 229.994L117.346 208.4C117.389 208.248 117.497 208.124 117.64 208.061C117.784 207.999 117.949 208.001 118.088 208.073L135.05 216.601C135.265 216.709 135.38 216.952 135.328 217.189L130.345 239.297C130.29 239.542 130.072 239.71 129.833 239.71V239.708Z" fill="#4D4C4C"/>
<path d="M118.884 203.304C118.884 203.304 114.774 196.352 110.273 197.755C103.413 199.895 103.856 212.17 115.162 211.58C115.162 211.58 128.535 228.692 141.367 223.942C154.199 219.192 144.788 190.256 142.299 185.295C142.299 185.295 125.254 183.024 123.982 193.315C123.241 199.303 124.679 203.306 118.884 203.306V203.304Z" fill="white"/>
<path d="M136.626 225.312C126.001 225.312 116.369 213.915 114.917 212.118C108.744 212.338 105.944 208.918 105.355 205.607C104.691 201.896 106.739 198.305 110.119 197.249C114.488 195.892 118.34 201.457 119.179 202.772C122.913 202.678 123.006 200.721 123.186 196.916C123.239 195.82 123.296 194.577 123.461 193.246C123.749 190.914 124.832 189.009 126.674 187.582C132.022 183.444 141.951 184.713 142.37 184.768C142.543 184.792 142.694 184.897 142.773 185.053C144.783 189.059 151.221 208.359 147.185 218.612C146.043 221.514 144.148 223.474 141.554 224.434C139.908 225.043 138.258 225.309 136.631 225.309L136.626 225.312ZM115.162 211.05C115.322 211.05 115.475 211.125 115.576 211.252C115.708 211.42 128.87 228.003 141.185 223.443C143.487 222.591 145.173 220.835 146.203 218.223C149.837 208.994 144.356 190.815 141.954 185.783C140.318 185.61 131.84 184.914 127.313 188.419C125.701 189.666 124.757 191.334 124.503 193.375C124.343 194.668 124.285 195.889 124.235 196.966C124.053 200.8 123.909 203.83 118.884 203.83C118.697 203.83 118.525 203.731 118.431 203.57C118.393 203.506 114.481 196.993 110.431 198.257C107.159 199.276 105.908 202.709 106.392 205.42C106.914 208.337 109.48 211.357 115.135 211.05C115.145 211.05 115.154 211.05 115.162 211.05Z" fill="#4D4C4C"/>
<path d="M116.496 207.833C116.367 207.833 116.235 207.785 116.135 207.689C114.587 206.219 112.328 205.564 110.232 205.984C109.947 206.041 109.67 205.854 109.612 205.569C109.555 205.283 109.739 205.005 110.026 204.948C112.451 204.461 115.066 205.221 116.858 206.924C117.069 207.126 117.078 207.459 116.877 207.67C116.774 207.781 116.635 207.836 116.494 207.836L116.496 207.833Z" fill="#4D4C4C"/>
<path d="M453.938 219.742C451.612 219.742 449.719 217.861 449.7 215.532C449.602 203.811 449.568 193.251 449.693 188.088C450.062 172.802 469.088 150.049 489.791 165.327C505.019 176.566 516.227 194.8 524.32 213.84C525.509 216.637 523.451 219.742 520.416 219.742H453.938Z" fill="#4D4C4C"/>
<path d="M594.372 499.689C594.173 499.689 593.982 499.577 593.893 499.382L524.317 347.992C524.195 347.728 524.31 347.414 524.576 347.292C524.842 347.169 525.153 347.287 525.275 347.551L594.851 498.941C594.973 499.205 594.858 499.519 594.593 499.641C594.521 499.675 594.446 499.689 594.372 499.689Z" fill="#4D4C4C"/>
<path d="M597.38 510.455C600.071 510.078 601.948 507.587 601.571 504.892C601.194 502.197 598.707 500.319 596.016 500.696C593.325 501.073 591.449 503.564 591.826 506.259C592.203 508.954 594.689 510.833 597.38 510.455Z" fill="#4D4C4C"/>
<path d="M398.208 499.689C398.134 499.689 398.06 499.675 397.988 499.641C397.724 499.519 397.607 499.207 397.729 498.941L467.305 347.551C467.425 347.287 467.736 347.169 468.004 347.292C468.268 347.414 468.385 347.726 468.263 347.992L398.687 499.382C398.599 499.577 398.407 499.689 398.208 499.689Z" fill="#4D4C4C"/>
<path d="M400.601 507.018C401.388 504.413 399.919 501.663 397.318 500.874C394.717 500.085 391.971 501.557 391.183 504.161C390.395 506.766 391.865 509.517 394.466 510.305C397.066 511.094 399.813 509.622 400.601 507.018Z" fill="#4D4C4C"/>
<path d="M392.167 357.12C392.167 394.03 434.51 415.896 486.741 415.896C538.972 415.896 581.314 394.032 581.314 357.12C581.314 320.208 538.972 282.231 486.741 282.231C434.51 282.231 392.167 320.21 392.167 357.12Z" fill="white"/>
<path d="M486.74 416.423C460.544 416.423 436.701 410.877 419.6 400.804C401.309 390.031 391.642 374.925 391.642 357.12C391.642 339.315 401.808 320.04 419.533 305.426C438.092 290.128 461.96 281.703 486.742 281.703C511.525 281.703 535.392 290.128 553.951 305.426C571.677 320.038 581.843 338.881 581.843 357.12C581.843 375.359 572.175 390.031 553.884 400.804C536.784 410.877 512.938 416.423 486.745 416.423H486.74ZM486.74 282.759C432.914 282.759 392.693 322.019 392.693 357.12C392.693 374.531 402.181 389.32 420.134 399.895C437.077 409.872 460.731 415.368 486.742 415.368C512.754 415.368 536.408 409.872 553.348 399.895C571.299 389.323 580.789 374.531 580.789 357.12C580.789 322.017 540.568 282.759 486.742 282.759H486.74Z" fill="#4D4C4C"/>
<path d="M555.575 348.256C553.646 358.151 548.25 367.332 540.544 373.821C532.84 380.31 522.88 384.062 512.817 384.266L555.575 348.256Z" fill="white"/>
<path d="M512.817 384.794C512.532 384.794 512.297 384.563 512.29 384.278C512.285 383.985 512.515 383.745 512.805 383.74C522.813 383.537 532.543 379.871 540.203 373.418C547.864 366.967 553.138 357.995 555.057 348.155C555.112 347.87 555.39 347.683 555.675 347.738C555.96 347.793 556.147 348.071 556.092 348.357C554.128 358.432 548.726 367.62 540.884 374.224C533.039 380.831 523.074 384.585 512.829 384.794H512.817Z" fill="#4D4C4C"/>
<path d="M544.369 324.02L514.886 226.559C514.886 226.559 468.373 225.612 452.03 229.311C452.03 229.311 442.07 300.973 441.231 317.291L544.369 324.02Z" fill="white"/>
<path d="M544.368 324.547C544.368 324.547 544.347 324.547 544.335 324.547L441.198 317.818C440.91 317.799 440.692 317.552 440.707 317.264C441.538 301.11 451.412 229.956 451.51 229.239C451.541 229.021 451.701 228.845 451.915 228.797C468.131 225.127 514.431 226.024 514.896 226.034C515.123 226.039 515.322 226.19 515.389 226.408L544.874 323.868C544.924 324.034 544.891 324.214 544.783 324.351C544.682 324.478 544.531 324.55 544.371 324.55L544.368 324.547ZM441.785 316.799L543.643 323.444L514.491 227.08C510.026 227.003 468.102 226.37 452.499 229.747C451.74 235.234 442.75 300.381 441.785 316.799Z" fill="#4D4C4C"/>
<path d="M420.81 313.659C420.81 313.659 435.551 228.517 452.028 229.311L443.645 317.72L420.81 313.659Z" fill="white"/>
<path d="M443.645 318.246C443.613 318.246 443.582 318.243 443.554 318.238L420.719 314.177C420.434 314.127 420.242 313.853 420.292 313.568C420.896 310.089 435.165 228.776 451.81 228.776C451.892 228.776 451.973 228.776 452.055 228.781C452.198 228.788 452.333 228.853 452.428 228.963C452.522 229.073 452.567 229.215 452.555 229.359L444.169 317.768C444.155 317.914 444.081 318.049 443.963 318.138C443.87 318.207 443.76 318.246 443.645 318.246ZM421.42 313.229L443.175 317.099L451.451 229.846C445.127 230.354 437.984 244.652 430.753 271.318C425.572 290.423 422.026 309.842 421.423 313.229H421.42Z" fill="#4D4C4C"/>
<path d="M318.368 358.509C318.368 358.509 284.045 434.777 281.961 436.852C280.595 438.21 272.235 444.497 266.628 448.676C264.642 450.157 265.337 453.289 267.761 453.791L346.36 470.079L366.356 380.538L318.368 358.509Z" fill="white"/>
<path d="M346.362 470.607C346.326 470.607 346.29 470.605 346.254 470.595L267.658 454.307C266.328 454.031 265.322 453.038 265.03 451.711C264.738 450.387 265.231 449.06 266.319 448.249C275.155 441.664 280.581 437.483 281.594 436.476C283.137 434.866 304.146 388.836 317.891 358.29C317.948 358.163 318.056 358.063 318.186 358.012C318.317 357.962 318.461 357.967 318.59 358.027L366.581 380.056C366.807 380.159 366.931 380.408 366.876 380.651L346.877 470.19C346.822 470.435 346.607 470.602 346.365 470.602L346.362 470.607ZM318.631 359.212C314.221 369.009 284.387 435.183 282.334 437.229C280.99 438.565 273.225 444.423 266.946 449.101C266.197 449.66 265.856 450.574 266.058 451.486C266.259 452.4 266.954 453.086 267.871 453.275L345.962 469.458L365.753 380.84L318.631 359.209V359.212Z" fill="#4D4C4C"/>
<path d="M347.464 454.009C347.416 454.009 347.368 454.002 347.322 453.99L288.976 437.737C288.696 437.658 288.531 437.368 288.61 437.087C288.689 436.807 288.981 436.643 289.259 436.72L347.605 452.973C347.885 453.052 348.051 453.342 347.971 453.623C347.907 453.856 347.694 454.009 347.464 454.009Z" fill="#4D4C4C"/>
<path d="M418.419 439.506L408.119 501.088C407.214 506.505 402.531 510.475 397.045 510.475H321.34C318.782 510.475 317.498 507.38 319.301 505.564L336.905 487.846L351.78 412.786L418.419 439.508V439.506Z" fill="white"/>
<path d="M397.047 511H321.342C319.943 511 318.738 510.197 318.202 508.901C317.665 507.606 317.943 506.186 318.932 505.19L336.423 487.585L351.267 412.681C351.298 412.528 351.394 412.396 351.533 412.319C351.67 412.244 351.832 412.235 351.981 412.292L418.62 439.014C418.85 439.105 418.984 439.347 418.943 439.592L408.643 501.174C407.69 506.869 402.815 511 397.052 511H397.047ZM352.175 413.511L337.424 487.947C337.405 488.05 337.355 488.144 337.281 488.215L319.677 505.934C318.863 506.754 318.882 507.795 319.174 508.496C319.466 509.196 320.187 509.945 321.342 509.945H397.047C402.296 509.945 406.734 506.183 407.599 500.999L417.829 439.837L352.173 413.511H352.175Z" fill="#4D4C4C"/>
<path d="M406.342 494.789H406.335C385.136 494.529 363.817 492.44 342.972 488.58C342.687 488.527 342.498 488.252 342.551 487.966C342.603 487.678 342.879 487.489 343.164 487.544C363.951 491.392 385.21 493.476 406.349 493.735C406.639 493.74 406.873 493.978 406.869 494.27C406.864 494.561 406.629 494.791 406.342 494.791V494.789Z" fill="#4D4C4C"/>
<path d="M545.73 332.013C545.73 332.013 562.538 374.2 525.652 386.029C488.766 397.858 428.331 382.181 428.331 382.181L418.158 445.819L281.685 408.879C281.685 408.879 315.672 353.351 341.14 316.96C354.425 297.98 377.957 289.082 400.454 294.535C450.376 306.632 538.281 328.22 545.728 332.013H545.73Z" fill="#C3D8F5"/>
<path d="M334.074 423.589C334.036 423.589 333.997 423.584 333.957 423.577C333.674 423.512 333.494 423.231 333.559 422.946C333.607 422.732 338.431 401.375 346.142 378.887C356.528 348.596 366.934 330.787 377.068 325.951C388.025 320.721 401.911 322.52 418.338 331.293C434.739 340.052 449.471 353.651 456.791 360.98C477.31 381.512 487.449 387.639 487.55 387.696C487.801 387.845 487.883 388.169 487.734 388.418C487.586 388.67 487.262 388.752 487.013 388.603C486.913 388.543 476.682 382.375 456.048 361.723C444.575 350.24 405.001 313.793 377.524 326.901C353.912 338.164 334.781 422.324 334.591 423.174C334.536 423.418 334.318 423.586 334.079 423.586L334.074 423.589Z" fill="#4D4C4C"/>
<path d="M487.671 202.832L496.692 226.72C496.692 226.72 490.565 234.816 476.82 236.658C463.076 238.503 474.77 226.986 474.77 226.986L468.13 207.96L487.669 202.829L487.671 202.832Z" fill="white"/>
<path d="M474.164 237.388C471.843 237.388 470.427 236.812 469.86 235.649C468.513 232.895 472.959 228.082 474.164 226.849L467.634 208.135C467.586 207.996 467.598 207.843 467.668 207.713C467.737 207.584 467.857 207.488 467.998 207.449L487.537 202.318C487.801 202.251 488.069 202.39 488.165 202.642L497.186 226.53C497.251 226.701 497.222 226.89 497.112 227.036C496.855 227.375 490.692 235.329 476.89 237.179C475.872 237.316 474.964 237.383 474.164 237.383V237.388ZM468.818 208.327L475.268 226.813C475.335 227.005 475.285 227.221 475.141 227.363C473.012 229.459 469.953 233.437 470.808 235.183C471.333 236.255 473.388 236.584 476.754 236.136C488.857 234.511 494.997 227.914 496.096 226.621L487.351 203.462L468.822 208.327H468.818Z" fill="#4D4C4C"/>
<path d="M485.541 201.618C485.541 201.618 478.774 215.848 467.379 214.582C455.984 213.315 454.916 189.887 455.484 184.969C455.484 184.969 465.362 187.131 474.783 179.087C479.282 175.247 486.712 187.337 485.541 201.62V201.618Z" fill="white"/>
<path d="M468.835 215.188C468.339 215.188 467.836 215.162 467.321 215.105C464.823 214.826 462.634 213.526 460.811 211.235C454.992 203.921 454.554 188.417 454.959 184.907C454.976 184.758 455.055 184.626 455.174 184.538C455.297 184.451 455.45 184.42 455.594 184.451C455.689 184.473 465.343 186.45 474.44 178.682C475.58 177.708 476.987 177.574 478.405 178.3C482.75 180.529 486.963 190.672 486.063 201.659C486.058 201.721 486.041 201.783 486.012 201.841C485.742 202.41 479.538 215.186 468.833 215.186L468.835 215.188ZM455.955 185.586C455.661 189.846 456.283 203.851 461.635 210.578C463.275 212.638 465.228 213.809 467.436 214.054C477.88 215.217 484.443 202.63 485.023 201.472C485.857 190.938 481.962 181.309 477.926 179.238C476.884 178.704 475.942 178.787 475.123 179.483C466.811 186.579 458.255 185.922 455.955 185.584V185.586Z" fill="#4D4C4C"/>
<path d="M467.443 174.016C491.519 172.423 502.265 205.171 505.843 219.742H487.797C487.037 217.391 486.522 214.322 486.297 210.323C485.478 195.808 476.824 204.461 465.07 177.907C461.752 170.413 467.446 174.016 467.446 174.016H467.443Z" fill="#4D4C4C"/>
<path d="M487.672 287.031C506.634 294.076 533.661 311.003 533.661 311.003C533.661 311.003 508.706 243.119 514.884 226.559C514.884 226.559 547.571 236.387 562.69 285.323C575.149 325.644 562.029 344.029 548.074 349.414C545.092 350.563 542.074 351.122 539.257 351.173C527.126 351.391 501.13 327.133 486.513 315.4C481.854 311.66 478.35 309.192 476.821 309.197L454.832 303.799C454.832 303.799 468.711 279.985 487.672 287.031Z" fill="white"/>
<path d="M551.561 348.301C551.377 348.301 551.197 348.203 551.101 348.03C550.96 347.776 551.051 347.455 551.305 347.313C558.992 343.012 575.441 328.374 562.187 285.479C554.424 260.353 541.934 245.808 532.825 238.033C524.319 230.774 517.099 227.898 515.212 227.226C509.81 244.222 533.91 310.149 534.157 310.821C534.233 311.032 534.169 311.272 533.994 311.413C533.819 311.555 533.572 311.572 533.383 311.452C533.112 311.284 506.181 294.475 487.49 287.528C470.84 281.343 457.991 299.829 455.665 303.461L476.891 308.672C478.431 308.722 481.329 310.564 486.843 314.99C487.071 315.173 487.107 315.504 486.925 315.731C486.743 315.959 486.412 315.995 486.185 315.813C482.929 313.201 478.417 309.725 476.826 309.725C476.824 309.725 476.821 309.725 476.821 309.725C476.778 309.725 476.737 309.72 476.697 309.71L454.707 304.313C454.547 304.272 454.413 304.159 454.348 304.006C454.283 303.852 454.295 303.677 454.379 303.533C454.52 303.291 468.699 279.417 487.857 286.537C504.296 292.644 527.03 306.316 532.65 309.758C528.997 299.63 508.641 241.788 514.39 226.375C514.486 226.113 514.769 225.974 515.034 226.053C515.372 226.154 523.428 228.639 533.457 237.189C542.691 245.057 555.344 259.767 563.191 285.167C576.672 328.798 559.727 343.808 551.815 348.234C551.734 348.28 551.645 348.301 551.559 348.301H551.561Z" fill="#4D4C4C"/>
<path d="M471.877 306.301C471.82 306.301 471.762 306.292 471.705 306.273C471.429 306.177 471.286 305.877 471.379 305.601C472.692 301.815 475.664 298.591 479.329 296.979C479.598 296.862 479.907 296.984 480.024 297.25C480.141 297.517 480.019 297.829 479.753 297.946C476.352 299.443 473.592 302.434 472.373 305.949C472.296 306.167 472.093 306.304 471.875 306.304L471.877 306.301Z" fill="#4D4C4C"/>
<path d="M464.967 304.915C464.917 304.915 464.867 304.908 464.816 304.893C464.538 304.809 464.378 304.517 464.462 304.236C465.827 299.657 469.221 295.708 473.54 293.674C473.804 293.549 474.117 293.662 474.242 293.926C474.367 294.189 474.252 294.504 473.99 294.628C469.937 296.536 466.754 300.239 465.473 304.536C465.403 304.764 465.195 304.913 464.967 304.913V304.915Z" fill="#4D4C4C"/>
<path d="M435.679 332.908H492.1C495.317 332.908 497.568 329.727 496.505 326.687L473.327 260.511C472.671 258.638 470.905 257.383 468.922 257.383H412.502C409.285 257.383 407.033 260.564 408.097 263.603L431.274 329.78C431.93 331.653 433.696 332.905 435.679 332.905V332.908Z" fill="#4D4C4C"/>
<path d="M426.018 313.997C426.018 313.997 413.389 313.844 406.115 296.301C398.838 278.76 403.942 274.159 408.232 269.615C412.522 265.072 417.114 263.755 417.557 266.926C417.557 266.926 424.533 264.542 422.772 272.971C422.772 272.971 427.982 274.01 424.434 281.195C424.434 281.195 429.366 285.009 419.22 295.022L426.018 313.997Z" fill="white"/>
<path d="M426.018 314.525H426.011C425.882 314.525 412.952 314.163 405.627 296.504C398.436 279.17 403.231 274.118 407.464 269.661L407.849 269.255C410.983 265.937 414.451 264.143 416.477 264.793C417.189 265.021 417.697 265.539 417.943 266.276C418.914 266.055 420.93 265.796 422.293 267.003C423.491 268.063 423.855 269.946 423.379 272.609C424.018 272.851 425.11 273.429 425.736 274.701C426.526 276.31 426.303 278.457 425.07 281.087C425.453 281.523 426.059 282.435 426.148 283.898C426.334 286.993 424.207 290.781 419.826 295.161L426.512 313.82C426.569 313.983 426.545 314.163 426.445 314.304C426.346 314.443 426.186 314.525 426.016 314.525H426.018ZM415.567 265.714C414.025 265.714 411.361 267.07 408.614 269.98L408.225 270.387C404.019 274.818 399.672 279.4 406.599 296.101C412.623 310.627 422.42 313.009 425.242 313.397L418.724 295.204C418.655 295.01 418.705 294.794 418.851 294.65C424.195 289.377 425.199 285.954 425.101 284.011C425.017 282.363 424.147 281.643 424.109 281.612C423.915 281.456 423.853 281.185 423.963 280.964C425.168 278.522 425.455 276.517 424.792 275.168C424.116 273.796 422.684 273.496 422.67 273.492C422.531 273.465 422.411 273.384 422.334 273.266C422.258 273.149 422.229 273.005 422.258 272.868C422.782 270.354 422.562 268.648 421.599 267.797C420.238 266.592 417.754 267.42 417.73 267.43C417.579 267.48 417.416 267.463 417.285 267.379C417.151 267.298 417.06 267.159 417.038 267.003C416.947 266.352 416.66 265.959 416.159 265.798C415.986 265.743 415.79 265.714 415.57 265.714H415.567Z" fill="#4D4C4C"/>
<path d="M411.634 292.544C411.519 292.544 411.402 292.506 411.306 292.429C411.078 292.246 411.042 291.915 411.224 291.687C413.862 288.384 416.695 285.174 419.639 282.142C420.135 281.631 420.751 280.998 421.532 280.6C422.442 280.137 423.441 280.098 424.207 280.497C424.466 280.631 424.567 280.95 424.43 281.209C424.296 281.466 423.977 281.569 423.719 281.432C423.261 281.195 422.607 281.235 422.008 281.54C421.429 281.835 420.954 282.301 420.394 282.879C417.472 285.887 414.662 289.073 412.046 292.347C411.941 292.477 411.79 292.544 411.634 292.544Z" fill="#4D4C4C"/>
<path d="M408.797 285.992C408.673 285.992 408.551 285.949 408.45 285.861C408.232 285.669 408.208 285.335 408.402 285.117L417.244 275.029C417.902 274.279 418.585 273.501 419.483 272.942C420.547 272.28 421.725 272.096 422.715 272.434C422.99 272.527 423.136 272.83 423.043 273.103C422.947 273.379 422.65 273.525 422.374 273.432C421.696 273.199 420.822 273.35 420.039 273.837C419.275 274.312 418.645 275.029 418.036 275.725L409.197 285.813C409.092 285.932 408.948 285.992 408.802 285.992H408.797Z" fill="#4D4C4C"/>
<path d="M404.917 280.65C404.814 280.65 404.708 280.619 404.617 280.557C404.378 280.391 404.318 280.062 404.483 279.823C408.016 274.689 412.342 270.201 417.339 266.482C417.574 266.307 417.902 266.357 418.077 266.59C418.249 266.825 418.201 267.154 417.969 267.329C413.063 270.978 408.819 275.385 405.353 280.422C405.25 280.571 405.087 280.65 404.919 280.65H404.917Z" fill="#4D4C4C"/>
<path d="M223.073 46.5277H271.711C304.322 46.5277 330.795 73.0428 330.795 105.699C330.795 138.358 304.319 164.871 271.711 164.871H223.073C190.463 164.871 163.989 138.355 163.989 105.699C163.989 73.0404 190.465 46.5277 223.073 46.5277Z" fill="white"/>
<path d="M271.71 165.401H223.072C190.203 165.401 163.461 138.619 163.461 105.702C163.461 72.7838 190.203 46 223.074 46H271.712C304.581 46 331.323 72.7814 331.323 105.699C331.323 138.617 304.581 165.398 271.712 165.398L271.71 165.401ZM223.074 47.0555C190.785 47.0555 164.517 73.3619 164.517 105.699C164.517 138.036 190.785 164.343 223.074 164.343H271.712C304.002 164.343 330.269 138.036 330.269 105.699C330.269 73.3619 303.999 47.0555 271.71 47.0555H223.072H223.074Z" fill="#4D4C4C"/>
<path d="M379.929 99.3853H337.711C309.389 99.3853 286.429 122.379 286.429 150.743V150.746C286.429 179.11 309.389 202.104 337.711 202.104H379.929C408.252 202.104 431.212 179.11 431.212 150.746V150.743C431.212 122.379 408.252 99.3853 379.929 99.3853Z" fill="white"/>
<path d="M379.927 202.632H337.711C309.144 202.632 285.901 179.355 285.901 150.746C285.901 122.136 309.144 98.8599 337.711 98.8599H379.927C408.494 98.8599 431.736 122.136 431.736 150.746C431.736 179.355 408.494 202.632 379.927 202.632ZM337.711 99.913C309.723 99.913 286.955 122.715 286.955 150.743C286.955 178.772 309.726 201.574 337.711 201.574H379.927C407.914 201.574 430.682 178.772 430.682 150.743C430.682 122.715 407.912 99.913 379.927 99.913H337.711Z" fill="#C3D8F5"/>
<path d="M355.508 190.896C343.447 190.896 331.247 188.543 319.582 183.911C303.126 177.376 288.993 166.809 278.712 153.351C277.311 151.516 275.943 149.59 274.621 147.726C271.325 143.081 267.938 138.308 263.708 134.522C259.283 138.948 254.081 142.566 248.385 145.017C244.025 146.891 232.968 150.609 224.44 144.657C224.381 144.617 224.321 144.574 224.263 144.53C218.354 143.705 212.948 141.424 208.849 137.893C201.445 131.514 198.626 120.949 202.144 112.771C203.244 110.216 204.947 107.928 207.065 106.04C206.779 105.826 206.499 105.606 206.224 105.383C205.273 106.234 204.355 107.119 203.505 108.057C199.713 112.243 197.153 118.697 199.977 123.674C200.12 123.929 200.032 124.25 199.78 124.394C199.526 124.538 199.205 124.449 199.062 124.197C195.979 118.759 198.678 111.819 202.724 107.35C203.57 106.417 204.478 105.539 205.412 104.694C203.297 102.813 201.524 100.597 200.226 98.1139C196.731 91.4233 197.32 83.3894 201.658 78.5748C204.123 75.84 208.111 74.3599 212.066 74.7197C213.125 74.8157 214.131 75.0412 215.063 75.3842C215.978 74.0912 216.989 72.8726 218.086 71.7427C224.455 65.1913 233.852 61.5593 243.91 61.8208C253.951 62.0655 263.176 66.1341 269.222 72.9877C269.595 73.4123 269.96 73.8465 270.314 74.2879C272.7 73.9905 275.1 74.3791 277.091 75.4562C280.456 77.2746 282.808 80.7818 283.719 84.7424C285.963 85.7403 287.906 87.2684 289.257 89.437C293.082 95.5735 290.967 103.631 282.784 114.071C279.469 118.301 275.476 122.813 270.901 125.55C269.028 128.494 266.86 131.255 264.443 133.774C268.74 137.626 272.154 142.436 275.476 147.119C276.794 148.973 278.154 150.892 279.546 152.713C300.182 179.73 336.565 194.176 370.083 188.661C381.794 186.732 390.008 182.757 395.189 176.508C401.937 168.368 403.348 155.352 398.782 143.35C393.203 128.678 380.173 117.67 365.585 115.302C350.274 112.814 334.129 120.51 327.204 133.596C319.939 147.323 323.932 165.511 336.103 174.138C342.211 178.468 350.29 180.003 358.272 178.348C365.762 176.796 372.107 172.535 375.676 166.66C380.724 158.355 380.218 147.289 374.474 140.347C368.325 132.915 356.653 131.346 349.495 136.991C345.878 139.843 343.789 144.605 343.907 149.731C344.015 154.457 346.008 158.55 349.371 160.96C352.925 163.508 357.627 163.897 360.808 161.908C362.557 160.814 363.831 158.765 364.133 156.563C364.397 154.654 363.915 152.917 362.785 151.672C361.316 150.057 358.887 149.94 357.129 150.542C355.287 151.173 354.109 152.512 353.977 154.121C353.953 154.411 353.701 154.625 353.409 154.603C353.119 154.579 352.904 154.325 352.928 154.035C353.093 151.991 354.537 150.312 356.789 149.542C359.29 148.685 362.013 149.256 363.563 150.959C364.909 152.44 365.484 154.481 365.178 156.705C364.828 159.248 363.405 161.524 361.369 162.8C357.836 165.01 352.652 164.604 348.76 161.817C345.124 159.212 342.973 154.814 342.858 149.753C342.733 144.298 344.97 139.217 348.846 136.161C356.435 130.175 368.79 131.816 375.288 139.673C381.308 146.951 381.852 158.53 376.58 167.207C372.857 173.332 366.263 177.767 358.487 179.379C350.223 181.094 341.842 179.497 335.497 174.996C329.384 170.664 325.074 163.856 323.367 155.829C321.678 147.908 322.713 139.836 326.277 133.1C333.406 119.625 350.013 111.701 365.757 114.259C380.709 116.686 394.061 127.956 399.771 142.973C404.469 155.325 402.991 168.755 396.004 177.182C390.652 183.637 382.23 187.732 370.258 189.702C365.396 190.503 360.464 190.899 355.508 190.899V190.896ZM226.659 144.782C234.499 148.98 244.047 145.735 247.968 144.048C250.921 142.777 253.741 141.186 256.38 139.327C253.53 140.721 250.243 141.232 247.074 140.879C242.851 142.698 238.767 143.887 234.764 144.475C232.034 144.876 229.305 144.974 226.659 144.782ZM224.675 143.523C227.883 143.945 231.241 143.926 234.611 143.432C238.034 142.928 241.524 141.973 245.117 140.546C242.319 139.903 239.704 138.555 237.675 136.516C235.385 134.213 233.979 131.207 233.469 128.05C230.089 128.021 226.524 126.8 223.425 124.883C221.279 126.423 219.959 128.99 219.755 132.094C219.465 136.511 221.43 141.04 224.673 143.523H224.675ZM207.939 106.666C205.855 108.484 204.178 110.703 203.11 113.189C199.771 120.956 202.47 131.01 209.534 137.094C213.096 140.162 217.688 142.249 222.745 143.213C220.014 140.409 218.435 136.17 218.706 132.027C218.919 128.755 220.275 126.013 222.486 124.272C221.858 123.842 221.255 123.382 220.677 122.899C216.246 119.183 212.895 114.163 210.902 108.429C209.872 107.904 208.88 107.314 207.936 106.666H207.939ZM261.43 132.651C260.778 133.131 260.201 133.529 259.731 133.846C256.081 136.295 252.56 138.324 249.134 139.946C252.723 139.922 256.299 138.723 258.984 136.328C260.095 135.338 261.022 134.177 261.765 132.905C261.655 132.821 261.542 132.735 261.43 132.651ZM234.585 128.016C235.071 130.931 236.353 133.692 238.422 135.772C240.679 138.041 243.714 139.392 246.892 139.807C250.828 138.092 254.895 135.82 259.147 132.968C259.537 132.706 260.007 132.382 260.534 132.001C260.503 131.979 260.469 131.958 260.438 131.934C254.864 128.086 248.123 126.229 241.642 124.895C241.44 125.097 241.227 125.291 241.007 125.478C239.146 127.057 236.93 127.844 234.59 128.014L234.585 128.016ZM262.591 133.567C262.251 134.143 261.873 134.695 261.458 135.223C261.949 134.769 262.433 134.304 262.908 133.831C262.802 133.742 262.697 133.654 262.589 133.567H262.591ZM263.106 132.627C263.288 132.776 263.471 132.927 263.65 133.078C265.588 131.063 267.365 128.887 268.954 126.584C268.585 126.757 268.211 126.915 267.835 127.062C266.525 128.434 265.183 129.652 263.935 130.691C263.7 131.353 263.423 132.003 263.104 132.629L263.106 132.627ZM242.456 123.991C248.854 125.337 255.475 127.232 261.03 131.068C261.161 131.159 261.291 131.25 261.42 131.341C261.933 130.953 262.479 130.526 263.049 130.055C263.267 129.405 263.444 128.743 263.578 128.069C262.347 128.175 261.087 128.117 259.798 127.872C253.575 126.69 249.539 121.575 245.695 116.502C245.065 119.253 244.166 121.877 242.456 123.989V123.991ZM264.666 127.937C264.611 128.237 264.551 128.537 264.481 128.834C264.877 128.484 265.277 128.117 265.677 127.736C265.344 127.815 265.006 127.882 264.668 127.937H264.666ZM245.987 115.144C246.049 115.225 246.109 115.307 246.171 115.388C250.183 120.69 253.973 125.697 259.995 126.841C261.276 127.083 262.534 127.124 263.758 126.992C264.278 123.067 263.391 118.946 260.996 115.736C258.84 112.848 255.908 110.917 252.658 109.216C250.658 109.497 248.717 109.845 246.88 110.353C246.734 111.102 246.598 111.857 246.463 112.598C246.31 113.445 246.157 114.297 245.989 115.144H245.987ZM224.438 124.269C227.226 125.91 230.362 126.954 233.332 127.006C233.215 125.802 233.224 124.586 233.361 123.386C230.125 122.94 227.061 122.921 224.438 124.269ZM234.458 123.552C234.333 124.687 234.329 125.84 234.444 126.98C236.597 126.831 238.623 126.116 240.319 124.679C240.334 124.667 240.346 124.655 240.36 124.646C239.016 124.38 237.689 124.132 236.389 123.893C235.742 123.773 235.097 123.657 234.458 123.554V123.552ZM254.43 108.983C257.257 110.576 259.873 112.471 261.839 115.105C264.34 118.452 265.301 122.731 264.829 126.834C265.65 126.678 266.46 126.447 267.255 126.15C271.778 121.355 275.78 114.719 273.495 107.465C273.239 106.649 272.906 105.855 272.513 105.078C271.299 105.68 270.015 106.196 268.671 106.616C264.987 107.765 260.965 108.225 257.073 108.671C256.184 108.775 255.302 108.875 254.43 108.983ZM271.287 122.873C270.76 123.633 270.197 124.365 269.615 125.066C269.797 124.967 269.976 124.867 270.154 124.761C270.544 124.14 270.922 123.509 271.287 122.871V122.873ZM234.609 122.499C235.299 122.612 235.96 122.736 236.583 122.851C238.116 123.137 239.687 123.427 241.277 123.749C243.28 121.525 244.205 118.529 244.861 115.4C244.027 114.302 243.179 113.196 242.303 112.133C240.786 112.942 239.388 113.961 238.137 115.273C236.262 117.245 235.088 119.795 234.609 122.501V122.499ZM212.26 109.077C214.222 114.218 217.329 118.716 221.355 122.093C222.007 122.64 222.697 123.154 223.418 123.631C223.583 123.533 223.751 123.437 223.923 123.348C226.917 121.794 230.424 121.899 233.519 122.331C234.039 119.438 235.323 116.698 237.375 114.544C238.647 113.208 240.075 112.155 241.618 111.317C241.148 110.771 240.671 110.24 240.183 109.734C239.495 109.019 238.772 108.345 238.02 107.714C233.749 109.941 229.164 111.243 224.63 111.433C220.304 111.615 216.057 110.759 212.26 109.074V109.077ZM278.652 100.729C278.592 103.077 278.351 105.45 277.924 107.82C276.937 113.289 274.954 118.584 272.173 123.444C275.869 120.769 279.158 116.988 281.958 113.419C289.831 103.372 291.927 95.7102 288.363 89.996C287.266 88.2352 285.738 86.9326 283.96 86.021C284.322 88.4679 284.138 91.0347 283.311 93.4408C282.384 96.1396 280.779 98.6177 278.652 100.729ZM273.45 104.591C273.866 105.419 274.223 106.27 274.501 107.148C275.397 109.993 275.395 112.74 274.796 115.324C275.711 112.822 276.415 110.248 276.887 107.633C277.241 105.663 277.464 103.696 277.562 101.741C276.326 102.811 274.949 103.768 273.452 104.591H273.45ZM243.27 111.651C243.905 112.426 244.523 113.22 245.132 114.016C245.232 113.481 245.328 112.944 245.426 112.409C245.529 111.843 245.632 111.267 245.74 110.691C244.892 110.967 244.066 111.281 243.27 111.649V111.651ZM239.014 107.177C239.68 107.753 240.324 108.362 240.94 109.003C241.5 109.585 242.046 110.197 242.583 110.826C243.668 110.31 244.801 109.888 245.97 109.535C246.061 109.091 246.159 108.65 246.262 108.218C246.413 107.59 246.583 106.966 246.772 106.349C245.553 105.759 244.334 105.145 243.151 104.481C241.821 105.479 240.437 106.381 239.014 107.179V107.177ZM211.762 107.686C215.638 109.585 220.067 110.564 224.584 110.382C228.819 110.204 233.104 109.019 237.122 106.995C232.197 103.2 226.187 101.201 220.416 101.552C217 101.76 213.709 102.828 210.868 104.538C211.12 105.608 211.419 106.659 211.762 107.686ZM247.731 106.81C247.565 107.357 247.417 107.909 247.285 108.463C247.225 108.71 247.17 108.962 247.113 109.214C248.392 108.88 249.709 108.616 251.041 108.398C250.229 108 249.405 107.606 248.571 107.211C248.291 107.079 248.013 106.944 247.731 106.81ZM248.056 105.795C248.38 105.949 248.703 106.102 249.024 106.256C250.298 106.863 251.585 107.472 252.845 108.127C254.212 107.937 255.587 107.779 256.955 107.623C260.797 107.184 264.771 106.728 268.359 105.608C269.639 105.21 270.86 104.72 272.015 104.15C270.673 101.799 268.846 99.5988 267.059 97.4494C264.821 94.7578 262.539 92.0087 261.3 89.0028C255.199 92.9323 250.392 98.9247 248.056 105.795ZM208.782 105.97C209.319 106.328 209.869 106.668 210.435 106.985C210.25 106.376 210.083 105.759 209.929 105.135C209.537 105.402 209.156 105.68 208.784 105.97H208.782ZM221.719 100.455C227.463 100.455 233.332 102.619 238.144 106.455C239.522 105.702 240.865 104.848 242.157 103.902C241.831 103.708 241.512 103.509 241.196 103.305C234.566 99.0255 228.649 90.7037 230.376 81.7605C231.234 77.3178 234.688 73.182 239.179 71.2221C242.976 69.5645 246.926 69.7204 250.011 71.6468C254.023 74.156 256.387 79.4648 255.894 84.8575C255.489 89.2739 253.408 93.7719 249.712 98.229C248.004 100.29 246.102 102.146 244.061 103.775C245.057 104.32 246.08 104.836 247.103 105.332C249.558 98.217 254.577 92.0231 260.931 87.9905C260.376 86.2705 260.186 84.4593 260.555 82.5258C261.133 79.5056 263.267 76.9171 266.41 75.4226C267.284 75.0076 268.199 74.6958 269.124 74.4895C268.898 74.216 268.668 73.9473 268.434 73.681C262.582 67.048 253.635 63.1066 243.886 62.8715C234.127 62.6341 225.011 66.1365 218.843 72.4744C217.834 73.5107 216.905 74.6238 216.057 75.8041C217.666 76.5909 218.996 77.7616 219.904 79.2345C223.226 84.6128 220.673 91.5985 216.665 96.1348C214.766 98.2866 212.536 100.141 210.351 101.921C210.435 102.437 210.528 102.948 210.631 103.454C213.546 101.76 216.89 100.705 220.354 100.494C220.809 100.465 221.264 100.453 221.722 100.453L221.719 100.455ZM207.021 104.68C207.304 104.908 207.591 105.128 207.884 105.342C208.456 104.881 209.055 104.447 209.675 104.044C209.58 103.595 209.491 103.144 209.41 102.689C208.612 103.339 207.809 103.998 207.021 104.68ZM210.885 75.7201C207.625 75.7201 204.463 77.0347 202.439 79.2801C198.391 83.7732 197.864 91.3154 201.158 97.6221C202.415 100.031 204.14 102.175 206.205 103.989C207.199 103.128 208.214 102.298 209.218 101.484C209.045 100.292 208.926 99.0783 208.863 97.8548C208.463 89.9384 210.464 82.3507 214.447 76.2838C213.671 76.0224 212.842 75.8472 211.97 75.7681C211.609 75.7345 211.247 75.7201 210.885 75.7201ZM262.199 88.4439C263.339 91.3202 265.564 93.9998 267.868 96.7729C269.696 98.9727 271.564 101.223 272.951 103.66C274.686 102.708 276.252 101.566 277.608 100.273C277.699 94.6787 276.746 89.2427 274.837 84.3274C273.392 84.4089 271.964 84.6248 270.609 84.9583C267.646 85.6876 264.812 86.8774 262.199 88.4439ZM244.411 71.1382C242.844 71.1382 241.21 71.4884 239.601 72.1913C235.418 74.0169 232.204 77.8527 231.411 81.9621C229.78 90.423 235.438 98.3322 241.769 102.42C242.193 102.693 242.626 102.96 243.069 103.216C245.18 101.571 247.144 99.6732 248.9 97.5573C252.459 93.2681 254.459 88.9621 254.845 84.764C255.305 79.7575 253.137 74.8493 249.455 72.5463C247.958 71.6108 246.231 71.1406 244.413 71.1406L244.411 71.1382ZM215.446 76.6845C211.506 82.593 209.522 90.032 209.915 97.802C209.965 98.7784 210.052 99.7475 210.174 100.705C212.167 99.0735 214.172 97.3678 215.875 95.4367C219.501 91.3298 222.026 84.6824 219.005 79.791C218.177 78.4477 216.945 77.3873 215.446 76.6845ZM275.95 84.2914C277.697 88.9165 278.626 93.9758 278.664 99.1862C280.303 97.3702 281.553 95.312 282.312 93.0954C283.16 90.6245 283.287 87.9761 282.808 85.4956C280.739 84.6656 278.41 84.2938 276.08 84.2938C276.037 84.2938 275.991 84.2938 275.948 84.2938L275.95 84.2914ZM269.859 75.4154C268.836 75.5954 267.823 75.9168 266.858 76.375C264.021 77.7232 262.1 80.0381 261.588 82.7225C261.272 84.3778 261.401 85.9322 261.846 87.4268C264.498 85.8603 267.363 84.668 270.36 83.9316C271.663 83.6101 273.033 83.3942 274.42 83.2958C273.222 80.4555 271.694 77.8023 269.859 75.4154ZM276.061 83.2383C278.276 83.2383 280.492 83.5573 282.521 84.2626C281.577 80.8873 279.491 77.9463 276.588 76.3774C274.961 75.4994 273.023 75.1276 271.066 75.2643C272.865 77.6944 274.362 80.3788 275.538 83.2431C275.713 83.2383 275.888 83.2383 276.063 83.2383H276.061Z" fill="#4D4C4C"/>
<path d="M171.866 194.62C169.686 194.62 167.509 194.361 165.399 193.828C165.116 193.756 164.946 193.471 165.016 193.188C165.087 192.904 165.375 192.734 165.655 192.804C172.642 194.564 180.396 193.228 186.394 189.229C192.392 185.23 196.615 178.583 197.691 171.449C197.734 171.161 198.004 170.966 198.29 171.005C198.577 171.048 198.776 171.317 198.733 171.605C197.614 179.029 193.221 185.945 186.979 190.105C182.55 193.058 177.198 194.617 171.866 194.617V194.62Z" fill="#4D4C4C"/>
<path d="M474.618 150.721C474.381 150.721 474.166 150.561 474.108 150.321C472.154 142.402 466.628 135.52 459.324 131.912C452.021 128.304 443.203 128.1 435.739 131.367C435.473 131.487 435.162 131.362 435.045 131.096C434.927 130.83 435.049 130.518 435.315 130.4C443.06 127.011 452.207 127.222 459.786 130.966C467.365 134.711 473.102 141.853 475.129 150.069C475.198 150.352 475.026 150.637 474.743 150.707C474.7 150.717 474.659 150.721 474.616 150.721H474.618Z" fill="#C3D8F5"/>
<path d="M640.474 511H182.368C182.076 511 181.841 510.765 181.841 510.472C181.841 510.18 182.076 509.945 182.368 509.945H639.947V380.768H610.323C610.031 380.768 609.796 380.533 609.796 380.24C609.796 379.948 610.031 379.713 610.323 379.713H640.474C640.764 379.713 641.001 379.948 641.001 380.24V510.472C641.001 510.765 640.764 511 640.474 511Z" fill="#4D4C4C"/>
</g>
<defs>
<clipPath id="clip0_242_729">
<rect width="642" height="511" fill="white"/>
</clipPath>
</defs>
</svg>
