<?xml version="1.0" standalone="no"?>
<!DOCTYPE svg PUBLIC "-//W3C//DTD SVG 20010904//EN"
 "http://www.w3.org/TR/2001/REC-SVG-20010904/DTD/svg10.dtd">
<svg version="1.0" xmlns="http://www.w3.org/2000/svg"
 width="501.000000pt" height="501.000000pt" viewBox="0 0 501.000000 501.000000"
 preserveAspectRatio="xMidYMid meet">
<metadata>
Created by potrace 1.14, written by Peter Selinger 2001-2017
</metadata>
<g transform="translate(0.000000,501.000000) scale(0.100000,-0.100000)"
fill="#000000" stroke="none">
<path d="M1016 3578 c-2 -7 -13 -56 -24 -108 -22 -104 -79 -270 -92 -270 -5 0
-21 -5 -37 -11 l-28 -11 24 -19 25 -20 -61 -152 -62 -151 21 -28 c21 -30 76
-64 86 -53 3 3 16 47 28 98 33 136 82 257 108 266 11 5 63 12 114 15 l93 8 -8
-49 c-14 -89 -7 -198 17 -247 52 -108 181 -131 330 -59 88 42 208 170 259 275
86 178 94 371 16 422 l-22 15 -5 -127 c-4 -109 -10 -141 -37 -222 -40 -117
-69 -169 -139 -242 -127 -134 -275 -145 -298 -23 -8 46 1 178 16 228 9 32 15
37 41 37 38 0 48 24 26 62 -16 28 -16 31 3 68 11 21 46 67 77 101 70 75 135
109 212 109 l54 0 -19 21 c-34 38 -116 79 -160 79 -100 0 -211 -98 -290 -256
l-45 -91 -97 -10 c-53 -6 -99 -9 -101 -7 -6 5 77 195 99 230 17 25 17 29 2 52
-19 29 -89 82 -109 82 -7 0 -15 -6 -17 -12z"/>
<path d="M2619 3503 c-25 -65 -19 -178 9 -178 6 0 36 31 67 68 63 76 63 82 -6
118 -50 25 -58 24 -70 -8z"/>
<path d="M2267 3258 c-13 -18 -40 -67 -59 -109 -36 -77 -167 -263 -194 -273
-23 -9 -17 28 23 125 36 88 37 92 18 105 -49 36 -99 8 -141 -81 -46 -97 -29
-178 44 -206 44 -17 67 -3 128 78 l59 78 5 -48 c7 -55 30 -82 86 -102 42 -14
52 -8 35 24 -27 50 -3 158 65 293 57 113 58 117 28 128 -62 24 -71 23 -97 -12z"/>
<path d="M2832 3260 c-46 -33 -90 -102 -98 -152 -8 -45 20 -78 70 -87 l38 -6
-53 -69 c-79 -101 -99 -99 -59 5 10 29 17 56 14 60 -2 5 -21 13 -41 18 -32 9
-40 8 -59 -10 -22 -21 -44 -80 -44 -121 0 -47 87 -101 128 -79 10 5 43 42 73
81 l54 72 7 -49 c8 -54 35 -83 95 -101 33 -10 35 -10 28 11 -25 87 -13 146 65
314 28 58 47 109 44 114 -2 5 -23 13 -45 19 -31 9 -44 8 -55 -1 -11 -9 -18 -9
-26 -1 -23 23 -92 14 -136 -18z m118 -35 c0 -29 -58 -143 -78 -154 -26 -14
-59 -14 -67 -1 -4 6 -1 26 5 44 22 67 140 160 140 111z"/>
<path d="M2507 3222 c-42 -46 -97 -227 -97 -319 0 -90 55 -125 136 -87 44 21
45 42 2 40 -29 -1 -33 2 -36 27 -5 39 42 173 84 243 l36 59 -33 28 c-38 31
-69 35 -92 9z"/>
<path d="M3625 2436 c-118 -124 -259 -478 -267 -667 -2 -46 2 -61 22 -87 27
-33 40 -40 40 -19 0 20 81 175 130 248 49 73 128 159 147 159 19 0 16 -26 -11
-103 -36 -101 -100 -202 -178 -279 -37 -38 -68 -71 -68 -73 0 -2 16 -9 36 -14
49 -14 95 6 157 67 87 84 167 248 167 341 0 41 -32 90 -72 112 -40 21 -127
-50 -218 -179 -24 -34 -45 -60 -47 -59 -5 6 42 137 74 208 30 66 31 66 79 74
115 17 194 94 194 190 0 41 -37 88 -93 116 l-40 21 -52 -56z m110 -100 c-18
-37 -96 -116 -115 -116 -16 0 18 53 75 117 52 59 68 58 40 -1z"/>
<path d="M1186 2370 c-164 -52 -303 -225 -341 -425 -19 -97 -19 -136 0 -210
27 -101 81 -154 182 -176 37 -9 60 -9 76 -2 38 18 134 102 181 160 55 66 62
99 14 59 -88 -71 -137 -106 -181 -130 -45 -24 -51 -24 -77 -11 -18 9 -34 31
-45 60 -26 68 -17 225 20 325 58 158 163 297 243 321 110 33 147 -31 68 -119
-32 -35 -33 -39 -20 -64 30 -58 75 -43 114 36 71 147 -47 236 -234 176z"/>
<path d="M1547 2078 c-70 -87 -125 -209 -146 -322 -9 -46 -8 -63 4 -86 13 -26
68 -60 96 -60 23 0 80 52 126 114 25 33 46 63 48 65 8 7 -15 -66 -39 -127 -36
-92 -89 -182 -141 -240 -78 -86 -190 -125 -249 -86 -29 18 -44 3 -20 -20 28
-29 75 -48 130 -53 44 -5 62 -1 107 21 67 32 137 101 194 188 52 81 72 125
128 288 24 69 60 161 79 204 20 44 34 86 32 92 -5 13 -83 41 -90 33 -2 -2 -36
-62 -76 -134 -114 -204 -194 -305 -221 -278 -23 23 68 262 141 368 l31 45 -35
15 c-52 22 -61 19 -99 -27z"/>
<path d="M3127 2106 c-224 -80 -289 -396 -100 -487 44 -21 45 -21 86 -3 54 25
137 90 137 109 0 20 -4 19 -49 -9 -48 -30 -108 -56 -131 -56 -23 0 -40 41 -40
95 0 42 2 45 28 45 35 0 72 26 72 51 0 16 -7 19 -40 19 -22 0 -40 2 -40 5 0
13 35 72 62 107 33 43 86 78 117 78 34 0 28 -56 -10 -103 -25 -31 -29 -40 -19
-52 27 -32 76 -3 99 58 43 112 -48 187 -172 143z"/>
<path d="M2612 2083 c-87 -42 -190 -211 -199 -325 -9 -106 38 -166 107 -138
33 14 122 106 146 151 19 38 25 37 13 -3 -5 -18 -9 -54 -9 -80 0 -60 20 -82
68 -74 19 3 36 7 38 9 2 1 -2 20 -8 40 -15 49 -1 122 46 250 21 53 35 101 32
106 -4 5 -19 14 -35 19 l-30 11 -52 -97 c-94 -177 -180 -290 -213 -279 -6 2
-10 23 -10 49 3 89 99 231 188 279 25 13 46 28 46 32 0 16 -59 67 -77 67 -10
0 -33 -8 -51 -17z"/>
<path d="M4014 2081 c-111 -68 -216 -266 -198 -374 7 -47 48 -97 79 -97 36 0
103 58 153 130 26 37 42 54 38 40 -3 -14 -9 -46 -13 -72 -10 -80 36 -121 98
-87 16 8 18 13 8 25 -8 9 -10 38 -7 87 5 64 31 150 83 270 5 13 0 20 -26 31
-19 8 -37 12 -41 10 -3 -2 -30 -48 -59 -102 -28 -53 -69 -122 -90 -153 -37
-55 -101 -119 -119 -119 -24 0 -9 89 25 158 35 68 139 182 168 182 7 0 19 5
27 10 12 8 9 15 -20 45 -38 40 -61 43 -106 16z"/>
<path d="M2281 2062 c-11 -16 -36 -63 -55 -106 -32 -70 -152 -244 -190 -275
-32 -27 -27 15 13 115 22 54 37 102 32 107 -4 4 -24 10 -45 14 -45 7 -67 -11
-103 -80 -33 -66 -41 -138 -19 -173 21 -30 79 -57 107 -49 11 4 47 41 79 82
50 63 60 72 60 51 0 -57 21 -89 73 -114 28 -13 53 -21 55 -19 3 2 -1 24 -8 49
-17 61 -2 122 65 266 30 64 55 120 55 124 0 9 -63 36 -84 36 -8 0 -24 -13 -35
-28z"/>
</g>
</svg>
