<svg width="24" height="24" viewBox="0 0 24 24" fill="none" xmlns="http://www.w3.org/2000/svg">
<path d="M21.2102 5.29C21.1172 5.19627 21.0066 5.12188 20.8848 5.07111C20.7629 5.02034 20.6322 4.9942 20.5002 4.9942C20.3682 4.9942 20.2375 5.02034 20.1156 5.07111C19.9937 5.12188 19.8831 5.19627 19.7902 5.29L8.50019 16.59L4.21019 12.29C4.02188 12.1017 3.76649 11.9959 3.50019 11.9959C3.23388 11.9959 2.97849 12.1017 2.79019 12.29C2.60188 12.4783 2.49609 12.7337 2.49609 13C2.49609 13.2663 2.60188 13.5217 2.79019 13.71L7.79018 18.71C7.88315 18.8037 7.99375 18.8781 8.11561 18.9289C8.23747 18.9797 8.36817 19.0058 8.50019 19.0058C8.6322 19.0058 8.7629 18.9797 8.88476 18.9289C9.00662 18.8781 9.11722 18.8037 9.21019 18.71L21.2102 6.71C21.3039 6.61704 21.3783 6.50644 21.4291 6.38458C21.4798 6.26272 21.506 6.13201 21.506 6C21.506 5.86799 21.4798 5.73728 21.4291 5.61542C21.3783 5.49356 21.3039 5.38296 21.2102 5.29Z" fill="#2361A8"/>
</svg>
