<svg width="256" height="124" viewBox="0 0 256 124" fill="none" xmlns="http://www.w3.org/2000/svg">
<path d="M39.8856 101.22L38.746 99.5918C38.746 99.5918 38.8002 98.7236 38.9088 96.987C39.0173 95.3591 39.1258 93.1342 39.2344 90.3123C39.3429 87.4905 39.4514 84.4516 39.56 81.1956C39.6685 77.9397 39.7228 74.7922 39.7228 71.7533C33.4279 71.5363 26.7532 71.3735 19.6986 71.2649C12.7525 71.1564 6.18633 71.1021 0 71.1021C0.108532 69.7997 0.217064 68.4431 0.325596 67.0322C0.434128 65.6212 0.542661 64.2646 0.651193 62.9622L44.7695 2.07567C44.878 2.07567 44.9866 2.07567 45.0951 2.07567C45.3122 1.96714 45.475 1.91287 45.5835 1.91287L54.3746 3.54086V60.1946H68.7009L70.0032 61.6598L68.538 72.5673C68.538 72.5673 67.2357 72.513 64.6309 72.4045C62.1347 72.296 58.7702 72.1874 54.5374 72.0789C54.6459 76.3117 54.7545 80.4359 54.863 84.4516C55.0801 88.3587 55.2429 91.5604 55.3514 94.0567C55.4599 96.6614 55.5142 97.9638 55.5142 97.9638L54.5374 99.2662L39.8856 101.22ZM14.489 60.1946H39.7228V26.9838H38.2576L14.489 60.1946Z" fill="#2670C4"/>
<path d="M225.882 101.22L224.742 99.5918C224.742 99.5918 224.796 98.7236 224.905 96.987C225.013 95.3591 225.122 93.1342 225.23 90.3123C225.339 87.4905 225.448 84.4516 225.556 81.1956C225.665 77.9397 225.719 74.7922 225.719 71.7533C219.424 71.5363 212.749 71.3735 205.695 71.2649C198.749 71.1564 192.182 71.1021 185.996 71.1021C186.105 69.7997 186.213 68.4431 186.322 67.0322C186.43 65.6212 186.539 64.2646 186.647 62.9622L230.766 2.07567C230.874 2.07567 230.983 2.07567 231.091 2.07567C231.308 1.96714 231.471 1.91287 231.58 1.91287L240.371 3.54086V60.1946H254.697L255.999 61.6598L254.534 72.5673C254.534 72.5673 253.232 72.513 250.627 72.4045C248.131 72.296 244.766 72.1874 240.534 72.0789C240.642 76.3117 240.751 80.4359 240.859 84.4516C241.076 88.3587 241.239 91.5604 241.347 94.0567C241.456 96.6614 241.51 97.9638 241.51 97.9638L240.534 99.2662L225.882 101.22ZM200.485 60.1946H225.719V26.9838H224.254L200.485 60.1946Z" fill="#2670C4"/>
<g clip-path="url(#clip0_826_925)">
<path opacity="0.4" d="M166.664 31.5915C163.807 19.8619 155.45 10.9104 144.988 6.77172C152.125 11.5845 157.555 18.9548 159.755 27.963C164.439 47.17 152.606 66.5219 133.332 71.1897C125.829 73.004 118.3 72.3173 111.631 69.6779C118.249 74.1442 126.334 76.3994 134.666 75.719L136.992 85.2564C135.69 86.4785 135.064 88.3368 135.519 90.1888L141.272 113.787L141.467 114.593L142.422 118.505C143.212 121.755 146.499 123.746 149.755 122.958C153.017 122.171 155.014 118.895 154.224 115.651L153.269 111.739L152.966 110.505L148.313 91.4109L148.01 90.1762L147.315 87.3289C146.866 85.4769 145.45 84.1099 143.731 83.6185L141.505 74.478C160.027 69.2873 171.247 50.3764 166.664 31.5915Z" fill="#2361A8"/>
<path opacity="0.7" d="M95.4744 48.7326C90.7966 29.5256 102.624 10.1737 121.897 5.50583C131.19 3.25694 140.514 4.84439 148.213 9.2288C139.743 2.00965 128.035 -1.19676 116.373 1.62538C97.099 6.29326 85.2654 25.6451 89.9495 44.8521C92.3706 54.7989 98.7551 62.7425 107.011 67.4608C101.48 62.7425 97.3265 56.3234 95.4744 48.7326Z" fill="#AFCDEA"/>
<path d="M136.538 69.708L129.793 71.3403L136.054 97.0323L142.799 95.4L136.538 69.708Z" fill="#2670C4"/>
<path d="M136.998 82.3022L135.177 82.7432C132.421 83.4109 130.734 86.1764 131.397 88.9229L138.3 117.239C139.09 120.489 142.377 122.48 145.633 121.693C148.895 120.905 150.892 117.629 150.102 114.385L143.199 86.0693C142.529 83.3227 139.754 81.6408 136.998 82.3022Z" fill="#174172"/>
<path d="M136.208 82.4911L135.177 82.7431C132.421 83.4108 130.734 86.1763 131.397 88.9228L138.3 117.239C139.09 120.489 142.377 122.48 145.633 121.692C145.671 121.68 145.715 121.667 145.753 121.655L136.208 82.4974V82.4911Z" fill="#2361A8"/>
<path d="M133.473 71.776C113.902 76.5131 94.1102 64.5001 89.3566 44.9971C84.6029 25.494 96.6577 5.77049 116.228 1.03331C135.799 -3.70386 155.591 8.30916 160.345 27.8122C165.099 47.3153 153.044 67.0388 133.473 71.776ZM117.354 5.6508C100.337 9.77063 89.8559 26.9177 93.9901 43.8758C98.1242 60.8338 115.331 71.2783 132.348 67.1585C149.365 63.0386 159.846 45.8916 155.711 28.9335C151.577 11.9754 134.371 1.53097 117.354 5.6508Z" fill="#2670C4"/>
<path d="M137.404 73.2621L136.538 69.7093L129.793 71.3408L130.659 74.8937C131.797 74.7299 132.935 74.5157 134.072 74.2386C135.21 73.9614 136.317 73.6338 137.404 73.2558V73.2621Z" fill="#174172"/>
<path d="M133.473 71.776C113.902 76.5131 94.1102 64.5001 89.3566 44.9971C84.6029 25.494 96.6577 5.77049 116.228 1.03331C135.799 -3.70386 155.591 8.30916 160.345 27.8122C165.099 47.3153 153.044 67.0388 133.473 71.776ZM117.354 5.6508C100.337 9.77063 89.8559 26.9177 93.9901 43.8758C98.1242 60.8338 115.331 71.2783 132.348 67.1585C149.365 63.0386 159.846 45.8916 155.711 28.9335C151.577 11.9754 134.371 1.53097 117.354 5.6508Z" fill="#2670C4"/>
<g opacity="0.6">
<path d="M117.353 5.65056C100.336 9.77039 89.8551 26.9174 93.9893 43.8755C98.1234 60.8336 115.33 71.2781 132.347 67.1582C149.364 63.0384 159.845 45.8913 155.711 28.9333C151.576 11.9752 134.37 1.53073 117.353 5.65056Z" fill="#DCEAF9"/>
</g>
<path d="M100.847 44.7135C99.8227 44.9591 98.7923 44.3355 98.5395 43.315C95.0122 28.8452 103.957 14.2179 118.471 10.7028C119.495 10.4571 120.525 11.0808 120.778 12.1013C121.024 13.1218 120.399 14.1486 119.375 14.4006C106.903 17.418 99.2222 29.9854 102.25 42.4142C102.497 43.4347 101.871 44.4615 100.847 44.7135Z" fill="white"/>
<path d="M143.894 88.9115L132.094 91.7673L132.394 92.9977L144.194 90.1419L143.894 88.9115Z" fill="white"/>
<path d="M148.839 109.234L137.039 112.09L137.339 113.32L149.139 110.464L148.839 109.234Z" fill="white"/>
</g>
<defs>
<clipPath id="clip0_826_925">
<rect width="79.3641" height="123.116" fill="white" transform="translate(88.3184)"/>
</clipPath>
</defs>
</svg>
