<svg width="316" height="150" viewBox="0 0 316 150" fill="none" xmlns="http://www.w3.org/2000/svg">
<g clip-path="url(#clip0_826_965)">
<path d="M0 130.006H61.9556C59.1873 116.293 56.4205 102.581 54.361 92.1288C52.3031 81.6784 50.9525 74.4894 50.6153 70.7103C50.278 66.9311 50.9525 66.562 63.6185 67.0547C76.2844 67.5459 100.942 68.8973 113.547 69.5746C126.152 70.2504 126.703 70.2504 127.256 70.6805C127.808 71.1107 128.36 71.971 130.538 83.0627C132.716 94.1545 136.518 115.476 138.266 126.476C140.015 137.475 139.708 138.151 130.875 137.505C122.042 136.86 104.684 134.893 92.7538 133.602C80.8233 132.312 74.3217 131.697 70.3355 131.544C66.3493 131.39 64.8769 131.697 64.3867 132.28C63.8964 132.864 64.3867 133.724 71.1022 134.954C77.8192 136.183 90.7599 137.78 103.212 139.009C115.664 140.239 127.624 141.099 133.973 141.529C140.321 141.96 141.057 141.96 147.466 140.7C153.876 139.441 165.959 136.921 172.155 135.509C178.35 134.095 178.656 133.788 177.829 133.511C177.001 133.234 175.039 132.989 168.782 132.466C162.526 131.944 151.975 131.145 147.099 130.624C142.223 130.101 143.021 129.856 142.499 126.507C141.978 123.158 140.139 116.706 140.353 107.827C140.566 98.9488 142.837 87.6412 143.848 78.6392C144.86 69.6372 144.615 62.9393 145.474 57.4709C146.333 52.0024 148.295 47.7619 147.967 46.0162C147.639 44.269 145.019 45.0167 142.804 46.5652C140.588 48.1138 138.774 50.4648 137.814 55.3279C136.853 60.1894 136.747 67.5646 137.12 73.1207C137.494 78.6783 138.348 82.4183 138.348 87.3878C138.348 92.3572 137.494 98.5546 138.401 104.48C139.306 110.405 141.973 116.055 144.373 120.003C146.773 123.951 148.906 126.194 151.626 127.023C154.346 127.852 157.653 127.264 159.626 124.833C161.6 122.402 162.24 118.127 160.56 115.029C158.88 111.93 154.88 110.006 152.4 111.048C149.921 112.09 148.96 116.097 150.027 118.875C151.093 121.653 154.186 123.203 156.855 123.765C159.522 124.326 161.762 123.898 163.681 122.535C165.602 121.173 167.202 118.875 167.467 111.501C167.734 104.128 166.668 91.6784 165.52 82.5403C164.374 73.4038 163.147 67.5787 162.907 63.3851C162.666 59.1899 163.414 56.6262 162.215 55.0776C161.017 53.5291 157.874 52.9988 155.376 52.4169C152.878 51.835 151.021 51.2015 150.302 51.9492C149.582 52.6954 149.997 54.8211 151.993 55.769C153.988 56.7169 157.564 56.4854 158.279 55.5031C158.994 54.5208 156.848 52.7876 154.772 51.7474C152.695 50.7072 150.689 50.3616 149.919 48.5424C149.149 46.7248 149.615 43.4337 150.047 39.531C150.48 35.6284 150.878 31.1109 151.381 28.2156C151.885 25.3203 152.494 24.0455 154.814 23.0491C157.134 22.0527 161.166 21.3363 163.247 21.2158C165.328 21.0969 165.461 21.574 164.401 22.5047C163.341 23.4338 161.086 24.8166 159.628 25.7848C158.169 26.7546 157.506 27.3131 157.016 28.4549C156.525 29.5968 156.207 31.3237 156.366 32.0276C156.525 32.7315 157.161 32.4124 158.991 30.6198C160.821 28.8272 163.843 25.5596 165.912 23.6857C167.981 21.8133 169.094 21.3347 170.195 21.1345C171.296 20.9358 172.383 21.0156 172.887 21.6256C173.391 22.2372 173.312 23.3791 171.429 25.3719C169.546 27.3647 165.859 30.2068 163.633 32.1058C161.405 34.0047 160.636 34.962 160.291 35.6659C159.946 36.3698 160.026 36.8218 160.849 36.5028C161.672 36.1837 163.235 35.095 164.999 33.5136C166.762 31.9321 168.724 29.8611 169.984 28.8913C171.244 27.9215 171.8 28.0545 172.145 28.6661C172.49 29.2777 172.623 30.3664 172.291 31.3753C171.96 32.3842 171.163 33.3149 169.692 34.8025C168.22 36.29 166.073 38.336 164.641 39.7047C163.21 41.0733 162.493 41.7632 162.135 42.3748C161.778 42.9864 161.778 43.5166 162.254 43.6902C162.732 43.8623 163.686 43.6762 164.932 42.88C166.178 42.0823 167.716 40.6745 169.002 39.9174C170.289 39.1603 171.322 39.054 171.919 39.3465C172.515 39.639 172.675 40.3288 171.721 41.4988C170.767 42.6673 168.698 44.3144 167.452 45.4312C166.206 46.5465 165.781 47.1315 165.583 47.9824C165.385 48.8318 165.411 49.9486 165.358 51.1437C165.305 52.3387 165.172 53.6135 165.742 55.1558C166.312 56.6966 167.585 58.5032 168.287 60.191C168.99 61.8772 169.123 63.4445 168.393 64.1625C167.664 64.8805 166.073 64.7475 165.132 63.7105C164.19 62.675 163.898 60.7353 164.164 58.7426C164.429 56.7498 165.25 54.7038 165.769 53.4696C166.285 52.2339 166.498 51.81 167.268 51.9148C168.037 52.0212 169.363 52.6594 170.901 53.0833C172.439 53.5087 174.189 53.7215 175.979 53.2428C177.768 52.7642 179.598 51.5957 180.805 50.4539C182.012 49.312 182.594 48.1952 183.059 47.8104C183.523 47.4256 183.868 47.7712 184.942 48.4611C186.017 49.1524 187.82 50.1879 189.424 50.7855C191.029 51.383 192.434 51.5425 193.507 51.4894C194.581 51.4362 195.322 51.1703 195.262 50.4507C195.201 49.7296 194.334 48.5549 192.88 47.144C191.427 45.7331 189.385 44.086 188.31 42.8628C187.236 41.6412 187.13 40.8434 187.859 40.7104C188.588 40.5775 190.153 41.1093 191.744 41.7725C193.335 42.4373 194.952 43.2335 195.02 43.0349C195.087 42.8362 193.6 41.6396 191.466 40.4179C189.331 39.1963 186.546 37.9465 185.049 36.7515C183.55 35.5564 183.339 34.413 183.47 33.67C183.603 32.9254 184.081 32.5813 185.419 32.7674C186.758 32.9536 188.958 33.67 191.544 35.0652C194.13 36.4605 197.099 38.5315 198.664 39.4888C200.228 40.4445 200.388 40.2865 199.434 39.2072C198.48 38.1295 196.411 36.132 193.945 34.3379C191.478 32.5453 188.615 30.9561 187.289 29.5858C185.964 28.2172 186.179 27.0691 187.169 26.6952C188.159 26.3214 189.923 26.7234 191.989 27.6071C194.055 28.4909 196.42 29.8565 198.186 30.9827C199.95 32.1073 201.114 32.9911 201.846 33.6137C202.578 34.2362 202.878 34.5975 203.129 34.6679C203.381 34.7383 203.581 34.5178 203.36 33.8749C203.14 33.232 202.499 32.1668 201.535 31.1532C200.573 30.138 199.29 29.1745 197.925 28.3001C196.562 27.4257 195.118 26.642 194.005 25.9991C192.891 25.3563 192.109 24.8541 191.739 24.4631C191.367 24.0705 191.408 23.7905 192 23.4683C192.592 23.146 193.735 22.7847 195.58 23.1664C197.426 23.548 199.972 24.6727 201.707 25.497C203.442 26.3214 204.364 26.8422 205.165 27.676C205.968 28.5097 206.649 29.6547 207.081 30.077C207.512 30.4993 207.693 30.1975 207.433 29.3731C207.172 28.5488 206.469 27.2036 205.868 26.0382C205.267 24.8729 204.766 23.889 204.485 23.2149C204.204 22.5423 204.144 22.1809 204.364 21.9291C204.585 21.6773 205.086 21.5365 205.748 21.879C206.41 22.22 207.231 23.0444 207.954 23.8671C208.675 24.6915 209.297 25.5142 209.796 25.7364C210.295 25.9569 210.671 25.5768 210.182 23.5121C209.693 21.4489 208.341 17.7026 205.45 14.2082C202.559 10.7138 198.13 7.47275 193.608 5.81313C189.086 4.15195 184.471 4.07217 179.807 5.24376C175.143 6.41378 170.428 8.83517 167.072 11.4787C163.717 14.1222 161.723 16.9878 160.599 18.7506C159.475 20.5135 159.222 21.1736 158.955 20.6902M182.529 7.19589C184.084 9.2184 184.004 12.1419 183.659 14.8245C183.314 17.5087 182.705 19.9519 182.108 22.3108C181.512 24.6696 180.931 26.9408 180.975 29.8658C181.02 32.7893 181.69 36.3651 182.277 39.2119C182.864 42.0588 183.369 44.1783 183.209 45.145C183.05 46.1132 182.226 45.9286 181.554 44.1564C180.883 42.3841 180.364 39.0227 180.716 36.1805C181.067 33.3384 182.287 31.0171 183.355 28.6489C184.422 26.2807 185.337 23.8671 185.901 21.4066C186.465 18.9462 186.679 16.4419 187.083 14.4694C187.487 12.4985 188.082 11.061 189.839 10.3556C191.595 9.65011 194.514 9.6767 197.788 11.1721C201.062 12.6675 204.694 15.6332 207.147 19.1667C209.6 22.7002 210.875 26.8031 211.867 29.9957C212.858 33.1882 213.564 35.4688 214.176 38.0779C214.788 40.6854 215.307 43.6183 215.703 45.7581C216.1 47.8964 216.375 49.2416 216.084 50.6775C215.794 52.1135 214.94 53.6417 212.668 54.8946C210.396 56.1475 206.705 57.1252 204.143 57.1862C201.58 57.2472 200.147 56.3915 199.156 55.1699C198.164 53.9483 197.615 52.359 197.966 51.8241C198.317 51.2891 199.568 51.8084 200.483 52.9237C201.398 54.039 201.977 55.7502 202.054 57.2628C202.13 58.7754 201.702 60.0893 200 61.9883C198.298 63.8872 195.319 66.3727 192.824 68.2107C190.329 70.0486 188.315 71.2405 185.996 71.3469C183.678 71.4532 181.055 70.4756 179.209 69.085C177.363 67.6945 176.296 65.8909 175 64.455C173.704 63.0191 172.178 61.9492 170.957 60.5742C169.738 59.1993 168.823 57.5178 169.035 56.4494C169.249 55.3795 170.59 54.9212 172.406 55.2888C174.22 55.6548 176.509 56.8467 177.958 57.7493C179.407 58.6503 180.018 59.2619 180.2 60.4084C180.383 61.555 180.14 63.2349 180.094 64.3346C180.049 65.4342 180.2 65.9535 181.041 66.1224C181.879 66.2898 183.404 66.1068 184.319 66.2445C185.234 66.3821 185.54 66.8404 185.174 67.3597C184.808 67.879 183.77 68.4594 183.465 68.7503C183.161 69.0412 183.587 69.0413 184.441 68.9177C185.295 68.7957 186.576 68.5517 187.644 68.1684C188.712 67.7868 189.566 67.2674 190.755 66.8999C191.945 66.5338 193.471 66.3195 195.346 65.9989C197.221 65.6782 199.449 65.2496 201.593 64.4957C203.737 63.7402 205.798 62.6577 205.974 61.5268C206.151 60.3959 204.444 59.2181 203.798 59.057C203.151 58.8958 203.567 59.7499 204.154 60.9637C204.742 62.1775 205.504 63.748 206.635 70.3223C207.765 76.8967 209.266 88.4749 209.985 96.8449C210.705 105.215 210.643 110.378 211.533 114.589C212.423 118.8 214.264 122.058 212.484 124.27C210.704 126.482 205.304 127.65 196.5 128.143C187.695 128.634 175.485 128.451 169.717 127.682C163.95 126.914 164.624 125.561 168.796 124.761C172.968 123.962 180.638 123.716 188.46 123.87C196.283 124.023 204.26 124.577 209.689 125.313C215.119 126.052 218.003 126.973 220.732 127.619C223.463 128.265 226.04 128.633 228.279 127.772C230.518 126.912 232.419 124.822 232.237 122.456C232.052 120.089 229.782 117.445 227.574 117.139C225.365 116.832 223.218 118.859 222.757 121.073C222.297 123.286 223.524 125.683 225.826 126.851C228.127 128.019 231.501 127.957 234.415 125.714C237.33 123.471 239.783 119.044 241.532 111.239C243.28 103.432 244.323 92.2462 245.213 81.949C246.103 71.6535 246.839 62.2495 246.287 56.1945C245.735 50.1394 243.894 47.4349 241.257 45.3452C238.618 43.2554 235.183 41.7804 231.899 40.8888C228.617 39.9972 225.488 39.6906 222.857 38.4392C220.227 37.1894 218.094 34.9964 217.611 35.9725C217.129 36.9485 218.295 41.0937 219.201 44.1235C220.106 47.1518 220.748 49.0633 221.905 49.6608C223.062 50.2583 224.733 49.5404 226.47 48.2249C228.208 46.9094 230.012 44.9964 230.528 43.734C231.045 42.4717 230.277 41.8601 228.566 42.4717C226.855 43.0833 224.202 44.9166 222.359 46.9094C220.515 48.9022 219.482 51.0545 218.314 53.4196C217.147 55.7846 215.847 58.3624 214.07 59.8109C212.293 61.2593 210.038 61.5784 209.361 60.8339C208.685 60.0893 209.586 58.2827 211.748 56.9672C213.911 55.6517 217.332 54.8274 219.362 55.2794C221.391 55.7315 222.027 57.4583 222.637 59.85C223.248 62.2417 223.83 65.2981 224.814 70.1518C225.798 75.0055 227.181 81.6581 227.596 86.274C228.012 90.8916 227.459 93.4725 226.202 93.5648C224.943 93.6571 222.981 91.2591 222.704 87.7553C222.428 84.2515 223.84 79.6418 225.68 73.8324C227.521 68.0229 229.792 61.0169 232.062 56.8671C234.332 52.7172 236.602 51.4268 239.394 52.1041C242.186 52.7798 245.499 55.4233 247.032 57.9135C248.566 60.4022 248.32 62.7391 249.24 63.906C250.16 65.0729 252.246 65.0713 253.517 65.406C254.788 65.7408 255.245 66.4134 255.062 75.1103C254.88 83.8073 254.055 100.527 253.156 107.144C252.257 113.76 251.282 110.275 250.904 102.453C250.527 94.6316 250.745 82.4746 251.754 75.614C252.763 68.7534 254.561 67.1908 255.96 66.7919C257.359 66.3931 258.359 67.1564 259.092 68.5313C259.826 69.9062 260.293 71.8897 260.284 79.0365C260.274 86.1833 259.79 98.4951 259.425 106.679C259.06 114.863 258.814 118.92 258.293 121.501C257.771 124.084 256.974 125.19 254.888 126.081C252.802 126.973 249.427 127.649 246.636 127.865C243.844 128.08 241.635 127.833 240.96 126.881C240.286 125.928 241.144 124.268 244.058 123.654C246.973 123.039 251.943 123.469 256.023 124.145C260.103 124.821 263.294 125.744 266.27 126.203C269.246 126.665 272.007 126.665 280.26 126.665H316.002" stroke="black" stroke-width="0.342715" stroke-miterlimit="22.93"/>
<path d="M43.4451 43.7452L43.0042 43.1153C43.0042 43.1153 43.0252 42.7794 43.0672 42.1075C43.1092 41.4777 43.1512 40.6169 43.1932 39.5251C43.2352 38.4334 43.2772 37.2576 43.3192 35.9979C43.3611 34.7382 43.3821 33.5205 43.3821 32.3448C40.9467 32.2608 38.3643 32.1978 35.6349 32.1558C32.9475 32.1138 30.4071 32.0928 28.0137 32.0928C28.0557 31.5889 28.0977 31.0641 28.1396 30.5182C28.1816 29.9723 28.2236 29.4474 28.2656 28.9436L45.3347 5.38696C45.3767 5.38696 45.4187 5.38696 45.4607 5.38696C45.5446 5.34497 45.6076 5.32397 45.6496 5.32397L49.0508 5.95383V27.8728H54.5936L55.0975 28.4397L54.5306 32.6597C54.5306 32.6597 54.0267 32.6387 53.0189 32.5967C52.0532 32.5547 50.7515 32.5127 49.1138 32.4707C49.1558 34.1084 49.1978 35.704 49.2398 37.2576C49.3238 38.7693 49.3868 40.008 49.4288 40.9738C49.4707 41.9816 49.4917 42.4854 49.4917 42.4854L49.1138 42.9893L43.4451 43.7452ZM33.6194 27.8728H43.3821V15.0237H42.8153L33.6194 27.8728Z" fill="#2670C4"/>
<path d="M115.457 43.7452L115.016 43.1153C115.016 43.1153 115.037 42.7794 115.079 42.1075C115.121 41.4777 115.163 40.6169 115.205 39.5251C115.247 38.4334 115.289 37.2576 115.331 35.9979C115.373 34.7382 115.394 33.5205 115.394 32.3448C112.958 32.2608 110.376 32.1978 107.647 32.1558C104.959 32.1138 102.419 32.0928 100.025 32.0928C100.067 31.5889 100.109 31.0641 100.151 30.5182C100.193 29.9723 100.235 29.4474 100.277 28.9436L117.346 5.38696C117.388 5.38696 117.43 5.38696 117.472 5.38696C117.556 5.34497 117.619 5.32397 117.661 5.32397L121.063 5.95383V27.8728H126.605L127.109 28.4397L126.542 32.6597C126.542 32.6597 126.038 32.6387 125.031 32.5967C124.065 32.5547 122.763 32.5127 121.126 32.4707C121.168 34.1084 121.21 35.704 121.252 37.2576C121.335 38.7693 121.398 40.008 121.44 40.9738C121.482 41.9816 121.503 42.4854 121.503 42.4854L121.126 42.9893L115.457 43.7452ZM105.631 27.8728H115.394V15.0237H114.827L105.631 27.8728Z" fill="#2670C4"/>
<g clip-path="url(#clip1_826_965)">
<path opacity="0.4" d="M92.5206 16.8065C91.4151 12.2684 88.1819 8.8051 84.1343 7.20386C86.8955 9.06589 88.9963 11.9174 89.8474 15.4026C91.6597 22.8337 87.0814 30.3208 79.6245 32.1268C76.7215 32.8287 73.8087 32.563 71.2285 31.5418C73.7891 33.2698 76.9172 34.1423 80.1406 33.8791L81.0406 37.569C80.5368 38.0419 80.2946 38.7608 80.4707 39.4774L82.6963 48.6072L82.7721 48.9191L83.1414 50.4326C83.4471 51.6902 84.7189 52.4604 85.9784 52.1557C87.2404 51.8511 88.0132 50.5837 87.7075 49.3286L87.3382 47.8151L87.2208 47.3374L85.4208 39.9502L85.3034 39.4725L85.0344 38.3709C84.8607 37.6544 84.3129 37.1255 83.6477 36.9354L82.7868 33.399C89.9526 31.3907 94.2937 24.0742 92.5206 16.8065Z" fill="#2361A8"/>
<path opacity="0.7" d="M64.9779 23.4382C63.1681 16.0071 67.744 8.52001 75.2009 6.71404C78.796 5.84395 82.4034 6.45813 85.3822 8.15443C82.105 5.36139 77.5756 4.12085 73.0633 5.21272C65.6065 7.01869 61.0282 14.5058 62.8404 21.9368C63.7771 25.7852 66.2472 28.8585 69.4413 30.684C67.3013 28.8585 65.6945 26.375 64.9779 23.4382Z" fill="#AFCDEA"/>
<path d="M80.8663 31.5537L78.2568 32.1852L80.6792 42.1252L83.2887 41.4937L80.8663 31.5537Z" fill="#2670C4"/>
<path d="M81.044 36.426L80.3396 36.5966C79.2733 36.855 78.6203 37.9249 78.8771 38.9875L81.5478 49.9428C81.8535 51.2004 83.1253 51.9705 84.3848 51.6659C85.6468 51.3612 86.4196 50.0939 86.1139 48.8387L83.4432 37.8835C83.184 36.8208 82.1103 36.1701 81.044 36.426Z" fill="#174172"/>
<path d="M80.7383 36.4993L80.3396 36.5968C79.2733 36.8551 78.6203 37.925 78.8771 38.9877L81.5478 49.9429C81.8535 51.2005 83.1253 51.9707 84.3848 51.666C84.3995 51.6611 84.4166 51.6563 84.4313 51.6514L80.7383 36.5017V36.4993Z" fill="#2361A8"/>
<path d="M79.6783 32.3536C72.1065 34.1864 64.449 29.5386 62.6099 21.993C60.7708 14.4474 65.4347 6.81654 73.0065 4.98375C80.5783 3.15097 88.2357 7.79873 90.0748 15.3443C91.914 22.8899 87.2501 30.5208 79.6783 32.3536ZM73.4418 6.77023C66.858 8.36416 62.8031 14.9982 64.4026 21.5592C66.002 28.1202 72.6592 32.1611 79.2429 30.5671C85.8267 28.9732 89.8816 22.3391 88.2822 15.7782C86.6827 9.21719 80.0256 5.17629 73.4418 6.77023Z" fill="#2670C4"/>
<path d="M81.2014 32.9288L80.8664 31.5542L78.2568 32.1854L78.5919 33.56C79.0321 33.4967 79.4723 33.4138 79.9126 33.3066C80.3528 33.1993 80.7808 33.0726 81.2014 32.9263V32.9288Z" fill="#174172"/>
<path d="M79.6783 32.3536C72.1065 34.1864 64.449 29.5386 62.6099 21.993C60.7708 14.4474 65.4347 6.81654 73.0065 4.98375C80.5783 3.15097 88.2357 7.79873 90.0748 15.3443C91.914 22.8899 87.2501 30.5208 79.6783 32.3536ZM73.4418 6.77023C66.858 8.36416 62.8031 14.9982 64.4026 21.5592C66.002 28.1202 72.6592 32.1611 79.2429 30.5671C85.8267 28.9732 89.8816 22.3391 88.2822 15.7782C86.6827 9.21719 80.0256 5.17629 73.4418 6.77023Z" fill="#2670C4"/>
<g opacity="0.6">
<path d="M73.4407 6.77014C66.8569 8.36408 62.802 14.9982 64.4015 21.5591C66.0009 28.1201 72.6581 32.161 79.2418 30.567C85.8256 28.9731 89.8805 22.339 88.281 15.7781C86.6816 9.2171 80.0244 5.17621 73.4407 6.77014Z" fill="#DCEAF9"/>
</g>
<path d="M67.0564 21.8834C66.6602 21.9785 66.2615 21.7372 66.1637 21.3424C64.799 15.7441 68.2597 10.0849 73.8749 8.72492C74.2711 8.62987 74.6698 8.87115 74.7676 9.26598C74.863 9.66081 74.6209 10.0581 74.2247 10.1556C69.3993 11.323 66.4278 16.1852 67.5993 20.9938C67.6947 21.3887 67.4526 21.7859 67.0564 21.8834Z" fill="white"/>
<path d="M83.71 38.9833L79.1445 40.0881L79.2605 40.5642L83.826 39.4593L83.71 38.9833Z" fill="white"/>
<path d="M85.624 46.8459L81.0586 47.9508L81.1746 48.4268L85.74 47.322L85.624 46.8459Z" fill="white"/>
</g>
</g>
<defs>
<clipPath id="clip0_826_965">
<rect width="316" height="150" fill="white"/>
</clipPath>
<clipPath id="clip1_826_965">
<rect width="30.7055" height="47.6328" fill="white" transform="translate(62.209 4.58398)"/>
</clipPath>
</defs>
</svg>
