<svg width="215" height="165" viewBox="0 0 215 165" fill="none" xmlns="http://www.w3.org/2000/svg">
<circle opacity="0.1" cx="15" cy="180" r="180" fill="#2670C4"/>
<circle opacity="0.2" cx="180" cy="180" r="179.5" transform="matrix(-1 0 0 1 215 33)" stroke="#A1A1A1"/>
<path opacity="0.2" d="M-256.5 236C-256.5 335.117 -173.019 415.5 -70 415.5C33.0193 415.5 116.5 335.117 116.5 236C116.5 136.883 33.0193 56.5 -70 56.5C-173.019 56.5 -256.5 136.883 -256.5 236Z" stroke="#A1A1A1"/>
<path opacity="0.2" d="M-165.5 272C-165.5 371.119 -82.2418 451.5 20.5 451.5C123.242 451.5 206.5 371.119 206.5 272C206.5 172.881 123.242 92.5 20.5 92.5C-82.2418 92.5 -165.5 172.881 -165.5 272Z" stroke="#A1A1A1"/>
</svg>
