<svg width="1005" height="209" viewBox="0 0 1005 209" fill="none" xmlns="http://www.w3.org/2000/svg">
<circle opacity="0.2" cx="396.5" cy="396.5" r="396" transform="matrix(-1 0 0 1 1040 0)" stroke="#A1A1A1"/>
<path opacity="0.2" d="M0.5 447.5C0.5 666.187 184.493 843.5 411.5 843.5C638.507 843.5 822.5 666.187 822.5 447.5C822.5 228.813 638.507 51.5 411.5 51.5C184.493 51.5 0.5 228.813 0.5 447.5Z" stroke="#A1A1A1"/>
<path opacity="0.2" d="M200.5 527.5C200.5 746.187 384.493 923.5 611.5 923.5C838.507 923.5 1022.5 746.187 1022.5 527.5C1022.5 308.813 838.507 131.5 611.5 131.5C384.493 131.5 200.5 308.813 200.5 527.5Z" stroke="#A1A1A1"/>
</svg>
