<svg width="414" height="104" viewBox="0 0 414 104" fill="none" xmlns="http://www.w3.org/2000/svg">
<circle opacity="0.2" cx="196" cy="196" r="195.5" transform="matrix(-1 0 0 1 514 0)" stroke="#A1A1A1"/>
<path opacity="0.2" d="M0.5 221C0.5 328.954 91.3683 416.5 203.5 416.5C315.632 416.5 406.5 328.954 406.5 221C406.5 113.046 315.632 25.5 203.5 25.5C91.3683 25.5 0.5 113.046 0.5 221Z" stroke="#A1A1A1"/>
<path opacity="0.2" d="M99.5 261C99.5 368.955 190.146 456.5 302 456.5C413.854 456.5 504.5 368.955 504.5 261C504.5 153.045 413.854 65.5 302 65.5C190.146 65.5 99.5 153.045 99.5 261Z" stroke="#A1A1A1"/>
</svg>
