<svg width="167" height="172" viewBox="0 0 167 172" fill="none" xmlns="http://www.w3.org/2000/svg">
<circle opacity="0.1" cx="171.5" cy="0.5" r="171.5" fill="#2670C4"/>
<path opacity="0.2" d="M22.5 26.5C22.5 87.2492 71.9704 136.5 133 136.5C194.03 136.5 243.5 87.2492 243.5 26.5C243.5 -34.2492 194.03 -83.5 133 -83.5C71.9704 -83.5 22.5 -34.2492 22.5 26.5Z" stroke="#A1A1A1"/>
<path opacity="0.2" d="M72.5 30.5C72.5 91.2492 121.97 140.5 183 140.5C244.03 140.5 293.5 91.2492 293.5 30.5C293.5 -30.2492 244.03 -79.5 183 -79.5C121.97 -79.5 72.5 -30.2492 72.5 30.5Z" stroke="#A1A1A1"/>
<circle opacity="0.2" cx="110.5" cy="110.5" r="110" transform="matrix(-1 0 0 1 236 -147)" stroke="#A1A1A1"/>
</svg>
