<svg width="122" height="69" viewBox="0 0 122 69" fill="none" xmlns="http://www.w3.org/2000/svg">
<circle opacity="0.2" cx="68.5" cy="68.5" r="68" transform="matrix(-1 0 0 1 180 0)" stroke="#A1A1A1"/>
<path opacity="0.2" d="M0.5 77.5C0.5 115.039 32.0469 145.5 71 145.5C109.953 145.5 141.5 115.039 141.5 77.5C141.5 39.9614 109.953 9.5 71 9.5C32.0469 9.5 0.5 39.9614 0.5 77.5Z" stroke="#A1A1A1"/>
<path opacity="0.2" d="M35.5 91.5C35.5 129.039 67.0469 159.5 106 159.5C144.953 159.5 176.5 129.039 176.5 91.5C176.5 53.9614 144.953 23.5 106 23.5C67.0469 23.5 35.5 53.9614 35.5 91.5Z" stroke="#A1A1A1"/>
</svg>
