<svg width="459" height="350" viewBox="0 0 459 350" fill="none" xmlns="http://www.w3.org/2000/svg">
<circle opacity="0.1" cx="17.5" cy="396.5" r="396.5" fill="#2670C4"/>
<circle opacity="0.2" cx="396.5" cy="396.5" r="396" transform="matrix(-1 0 0 1 459 73)" stroke="#A1A1A1"/>
<path opacity="0.2" d="M-580.5 520.5C-580.5 739.187 -396.507 916.5 -169.5 916.5C57.5067 916.5 241.5 739.187 241.5 520.5C241.5 301.813 57.5067 124.5 -169.5 124.5C-396.507 124.5 -580.5 301.813 -580.5 520.5Z" stroke="#A1A1A1"/>
<path opacity="0.2" d="M-380.5 600.5C-380.5 819.187 -196.507 996.5 30.5 996.5C257.507 996.5 441.5 819.187 441.5 600.5C441.5 381.813 257.507 204.5 30.5 204.5C-196.507 204.5 -380.5 381.813 -380.5 600.5Z" stroke="#A1A1A1"/>
</svg>
