<svg width="344" height="164" viewBox="0 0 344 164" fill="none" xmlns="http://www.w3.org/2000/svg">
<circle opacity="0.1" cx="79.5" cy="237.5" r="237.5" fill="#2670C4"/>
<circle opacity="0.2" cx="237.5" cy="237.5" r="237" transform="matrix(-1 0 0 1 344 44)" stroke="#A1A1A1"/>
<path opacity="0.2" d="M-278.5 311.5C-278.5 442.374 -168.38 548.5 -32.5 548.5C103.38 548.5 213.5 442.374 213.5 311.5C213.5 180.626 103.38 74.5 -32.5 74.5C-168.38 74.5 -278.5 180.626 -278.5 311.5Z" stroke="#A1A1A1"/>
<path opacity="0.2" d="M-158.5 359.5C-158.5 490.374 -48.3797 596.5 87.5 596.5C223.38 596.5 333.5 490.374 333.5 359.5C333.5 228.626 223.38 122.5 87.5 122.5C-48.3797 122.5 -158.5 228.626 -158.5 359.5Z" stroke="#A1A1A1"/>
</svg>
